<?xml version="1.0" encoding="utf-8" standalone="no"?>
<!DOCTYPE svg PUBLIC "-//W3C//DTD SVG 1.1//EN"
  "http://www.w3.org/Graphics/SVG/1.1/DTD/svg11.dtd">
<svg xmlns:xlink="http://www.w3.org/1999/xlink" width="463.99896pt" height="463.99896pt" viewBox="0 0 463.99896 463.99896" xmlns="http://www.w3.org/2000/svg" version="1.1">
 <metadata>
  <rdf:RDF xmlns:dc="http://purl.org/dc/elements/1.1/" xmlns:cc="http://creativecommons.org/ns#" xmlns:rdf="http://www.w3.org/1999/02/22-rdf-syntax-ns#">
   <cc:Work>
    <dc:type rdf:resource="http://purl.org/dc/dcmitype/StillImage"/>
    <dc:date>2025-02-07T21:26:51.637439</dc:date>
    <dc:format>image/svg+xml</dc:format>
    <dc:creator>
     <cc:Agent>
      <dc:title>Matplotlib v3.8.4, https://matplotlib.org/</dc:title>
     </cc:Agent>
    </dc:creator>
   </cc:Work>
  </rdf:RDF>
 </metadata>
 <defs>
  <style type="text/css">*{stroke-linejoin: round; stroke-linecap: butt}</style>
 </defs>
 <g id="figure_1">
  <g id="patch_1">
   <path d="M 0 463.99896 
L 463.99896 463.99896 
L 463.99896 0 
L 0 0 
L 0 463.99896 
z
" style="fill: none"/>
  </g>
  <g id="axes_1">
   <g id="patch_2">
    <path d="M 100.494531 397.284897 
L 443.99896 397.284897 
L 443.99896 20 
L 100.494531 20 
L 100.494531 397.284897 
z
" style="fill: none"/>
   </g>
   <g id="matplotlib.axis_1">
    <g id="xtick_1">
     <g id="line2d_1">
      <defs>
       <path id="m04438ccb60" d="M 0 0 
L 0 5 
" style="stroke: #000000; stroke-width: 0.75"/>
      </defs>
      <g>
       <use xlink:href="#m04438ccb60" x="177.676684" y="397.284897" style="stroke: #000000; stroke-width: 0.75"/>
      </g>
     </g>
     <g id="text_1">
      <text style="font: 14.5px &quot;Suisse Int&apos;l Mono&quot;; text-anchor: middle" x="177.676684" y="417.797397" transform="rotate(-0 177.676684 417.797397)">2050</text>
     </g>
    </g>
    <g id="xtick_2">
     <g id="line2d_2">
      <g>
       <use xlink:href="#m04438ccb60" x="259.362134" y="397.284897" style="stroke: #000000; stroke-width: 0.75"/>
      </g>
     </g>
     <g id="text_2">
      <text style="font: 14.5px &quot;Suisse Int&apos;l Mono&quot;; text-anchor: middle" x="259.362134" y="417.797397" transform="rotate(-0 259.362134 417.797397)">2100</text>
     </g>
    </g>
    <g id="xtick_3">
     <g id="line2d_3">
      <g>
       <use xlink:href="#m04438ccb60" x="341.047584" y="397.284897" style="stroke: #000000; stroke-width: 0.75"/>
      </g>
     </g>
     <g id="text_3">
      <text style="font: 14.5px &quot;Suisse Int&apos;l Mono&quot;; text-anchor: middle" x="341.047584" y="417.797397" transform="rotate(-0 341.047584 417.797397)">2150</text>
     </g>
    </g>
    <g id="xtick_4">
     <g id="line2d_4">
      <g>
       <use xlink:href="#m04438ccb60" x="422.733034" y="397.284897" style="stroke: #000000; stroke-width: 0.75"/>
      </g>
     </g>
     <g id="text_4">
      <text style="font: 14.5px &quot;Suisse Int&apos;l Mono&quot;; text-anchor: middle" x="422.733034" y="417.797397" transform="rotate(-0 422.733034 417.797397)">2200</text>
     </g>
    </g>
    <g id="text_5">
     <text style="font: 500 15px &quot;Suisse Int&apos;l&quot;, sans-serif; text-anchor: middle" x="272.246746" y="441.209898" transform="rotate(-0 272.246746 441.209898)">Raman shift (cm-1)</text>
    </g>
   </g>
   <g id="matplotlib.axis_2">
    <g id="ytick_1">
     <g id="line2d_5">
      <defs>
       <path id="me42775a33a" d="M 0 0 
L -5 0 
" style="stroke: #000000; stroke-width: 0.75"/>
      </defs>
      <g>
       <use xlink:href="#me42775a33a" x="100.494531" y="383.310831" style="stroke: #000000; stroke-width: 0.75"/>
      </g>
     </g>
     <g id="text_6">
      <text style="font: 14.5px &quot;Suisse Int&apos;l Mono&quot;; text-anchor: end" x="90.494531" y="388.567081" transform="rotate(-0 90.494531 388.567081)">0.000</text>
     </g>
    </g>
    <g id="ytick_2">
     <g id="line2d_6">
      <g>
       <use xlink:href="#me42775a33a" x="100.494531" y="339.013697" style="stroke: #000000; stroke-width: 0.75"/>
      </g>
     </g>
     <g id="text_7">
      <text style="font: 14.5px &quot;Suisse Int&apos;l Mono&quot;; text-anchor: end" x="90.494531" y="344.269947" transform="rotate(-0 90.494531 344.269947)">0.005</text>
     </g>
    </g>
    <g id="ytick_3">
     <g id="line2d_7">
      <g>
       <use xlink:href="#me42775a33a" x="100.494531" y="294.716563" style="stroke: #000000; stroke-width: 0.75"/>
      </g>
     </g>
     <g id="text_8">
      <text style="font: 14.5px &quot;Suisse Int&apos;l Mono&quot;; text-anchor: end" x="90.494531" y="299.972813" transform="rotate(-0 90.494531 299.972813)">0.010</text>
     </g>
    </g>
    <g id="ytick_4">
     <g id="line2d_8">
      <g>
       <use xlink:href="#me42775a33a" x="100.494531" y="250.419429" style="stroke: #000000; stroke-width: 0.75"/>
      </g>
     </g>
     <g id="text_9">
      <text style="font: 14.5px &quot;Suisse Int&apos;l Mono&quot;; text-anchor: end" x="90.494531" y="255.675679" transform="rotate(-0 90.494531 255.675679)">0.015</text>
     </g>
    </g>
    <g id="ytick_5">
     <g id="line2d_9">
      <g>
       <use xlink:href="#me42775a33a" x="100.494531" y="206.122296" style="stroke: #000000; stroke-width: 0.75"/>
      </g>
     </g>
     <g id="text_10">
      <text style="font: 14.5px &quot;Suisse Int&apos;l Mono&quot;; text-anchor: end" x="90.494531" y="211.378546" transform="rotate(-0 90.494531 211.378546)">0.020</text>
     </g>
    </g>
    <g id="ytick_6">
     <g id="line2d_10">
      <g>
       <use xlink:href="#me42775a33a" x="100.494531" y="161.825162" style="stroke: #000000; stroke-width: 0.75"/>
      </g>
     </g>
     <g id="text_11">
      <text style="font: 14.5px &quot;Suisse Int&apos;l Mono&quot;; text-anchor: end" x="90.494531" y="167.081412" transform="rotate(-0 90.494531 167.081412)">0.025</text>
     </g>
    </g>
    <g id="ytick_7">
     <g id="line2d_11">
      <g>
       <use xlink:href="#me42775a33a" x="100.494531" y="117.528028" style="stroke: #000000; stroke-width: 0.75"/>
      </g>
     </g>
     <g id="text_12">
      <text style="font: 14.5px &quot;Suisse Int&apos;l Mono&quot;; text-anchor: end" x="90.494531" y="122.784278" transform="rotate(-0 90.494531 122.784278)">0.030</text>
     </g>
    </g>
    <g id="ytick_8">
     <g id="line2d_12">
      <g>
       <use xlink:href="#me42775a33a" x="100.494531" y="73.230894" style="stroke: #000000; stroke-width: 0.75"/>
      </g>
     </g>
     <g id="text_13">
      <text style="font: 14.5px &quot;Suisse Int&apos;l Mono&quot;; text-anchor: end" x="90.494531" y="78.487144" transform="rotate(-0 90.494531 78.487144)">0.035</text>
     </g>
    </g>
    <g id="ytick_9">
     <g id="line2d_13">
      <g>
       <use xlink:href="#me42775a33a" x="100.494531" y="28.93376" style="stroke: #000000; stroke-width: 0.75"/>
      </g>
     </g>
     <g id="text_14">
      <text style="font: 14.5px &quot;Suisse Int&apos;l Mono&quot;; text-anchor: end" x="90.494531" y="34.19001" transform="rotate(-0 90.494531 34.19001)">0.040</text>
     </g>
    </g>
    <g id="text_15">
     <text style="font: 500 15px &quot;Suisse Int&apos;l&quot;, sans-serif; text-anchor: middle" x="30.875" y="208.642449" transform="rotate(-90 30.875 208.642449)">Intensity (au)</text>
    </g>
   </g>
   <g id="line2d_14">
    <path d="M 347.898373 383.311304 
L 347.621581 373.711672 
L 347.483227 382.331203 
L 347.344901 383.311304 
L 346.930092 361.649651 
L 346.791878 364.567149 
L 346.515534 375.520634 
L 346.377404 383.311304 
L 346.239302 383.311304 
L 345.687173 362.195392 
L 345.549211 367.683895 
L 345.411277 367.829278 
L 345.135491 382.186511 
L 344.99764 383.311304 
L 344.859818 380.864436 
L 344.722023 381.134808 
L 344.584255 359.796259 
L 344.446516 365.850703 
L 344.308804 379.539961 
L 344.171121 381.517341 
L 343.895837 367.597339 
L 343.758237 379.413998 
L 343.620664 381.2952 
L 343.345603 365.188195 
L 343.208113 382.445831 
L 343.070652 381.349552 
L 342.933219 379.049698 
L 342.795813 367.377359 
L 342.521084 383.311304 
L 342.383762 373.404604 
L 342.246467 383.311304 
L 342.109199 383.311304 
L 341.97196 377.971453 
L 341.834748 366.761097 
L 341.560407 379.640436 
L 341.423278 376.525311 
L 341.286177 367.27016 
L 341.149103 371.983464 
L 341.012058 371.46439 
L 340.875039 383.311304 
L 340.601085 380.874572 
L 340.46415 378.880581 
L 340.327242 383.311304 
L 340.053509 363.521205 
L 339.916684 381.393699 
L 339.506374 368.841557 
L 339.369659 383.311304 
L 339.096312 383.311304 
L 338.959679 371.752853 
L 338.823074 379.2591 
L 338.686497 366.960523 
L 338.549947 370.192885 
L 338.413425 367.802523 
L 338.27693 382.969747 
L 338.004022 360.833875 
L 337.867609 366.392368 
L 337.594867 383.311304 
L 337.458536 378.140429 
L 337.322233 383.311304 
L 337.04971 373.527219 
L 336.777296 359.196565 
L 336.36888 373.166817 
L 336.232796 372.50741 
L 336.096739 374.810418 
L 335.96071 383.311304 
L 335.824708 377.173848 
L 335.688734 383.311304 
L 335.416866 379.618748 
L 335.280973 373.928285 
L 335.145108 376.851657 
L 335.00927 383.311304 
L 334.737675 366.725837 
L 334.601919 376.104541 
L 334.46619 367.529653 
L 334.194813 383.311304 
L 334.059166 383.311304 
L 333.652386 364.473151 
L 333.516848 352.154295 
L 333.381336 355.784002 
L 332.974964 383.311304 
L 332.839561 383.311304 
L 332.704186 377.809228 
L 332.568837 361.159902 
L 332.162953 383.311304 
L 332.027713 376.660143 
L 331.8925 382.209537 
L 331.622155 364.736896 
L 331.487023 358.555497 
L 331.21684 383.311304 
L 331.081789 383.311304 
L 330.811769 367.620019 
L 330.676799 364.045329 
L 330.541856 367.986091 
L 330.40694 364.866598 
L 330.137189 381.360397 
L 330.002355 383.311305 
L 329.463285 383.311305 
L 329.328585 381.621475 
L 329.193911 377.538857 
L 329.059265 357.191588 
L 328.924646 355.970228 
L 328.790053 353.13468 
L 328.655487 360.893677 
L 328.386437 383.311305 
L 328.251952 361.991271 
L 328.117494 365.696727 
L 327.983062 362.662107 
L 327.848658 377.047185 
L 327.71428 373.701307 
L 327.445606 383.311305 
L 327.311308 383.311305 
L 327.177038 382.229817 
L 327.042795 378.532477 
L 326.908578 378.527542 
L 326.774388 376.175302 
L 326.640225 370.865228 
L 326.371978 383.311305 
L 326.237895 370.44095 
L 325.96981 383.311305 
L 325.835807 381.594437 
L 325.701831 369.050197 
L 325.567881 370.676434 
L 325.433959 382.400981 
L 325.300063 383.311305 
L 325.166193 383.311305 
L 325.032351 380.269616 
L 324.898535 371.998437 
L 324.764745 375.530992 
L 324.630983 354.756221 
L 324.497247 375.4465 
L 324.363537 371.778458 
L 324.229854 383.311305 
L 324.096198 379.794139 
L 323.962569 379.92595 
L 323.828966 383.311305 
L 323.695389 383.311305 
L 323.428317 372.15959 
L 323.29482 360.871529 
L 323.16135 378.487268 
L 323.027906 376.359712 
L 322.894489 381.733504 
L 322.227802 355.911313 
L 321.961313 378.956694 
L 321.828108 379.907921 
L 321.69493 381.7761 
L 321.561778 381.793491 
L 321.428653 383.311306 
L 321.162481 383.311306 
L 320.896415 378.562892 
L 320.630455 365.543725 
L 320.497514 365.956043 
L 320.231713 370.46496 
L 320.098851 382.216228 
L 319.966016 382.08393 
L 319.833208 383.311306 
L 319.700425 376.565517 
L 319.56767 380.550124 
L 319.43494 380.876824 
L 319.16956 375.182109 
L 319.036909 382.096386 
L 318.904285 372.038483 
L 318.771687 381.220145 
L 318.639116 373.773247 
L 318.50657 373.491517 
L 318.374051 368.817195 
L 318.241558 383.311306 
L 318.109092 382.608338 
L 317.976651 378.150221 
L 317.844237 368.218298 
L 317.711849 383.311306 
L 317.579488 383.311306 
L 317.447152 378.880583 
L 317.314843 378.6183 
L 317.18256 375.978226 
L 317.050304 378.455517 
L 316.918073 383.311306 
L 316.785869 375.913242 
L 316.65369 383.311306 
L 316.521538 377.027404 
L 316.389413 381.722164 
L 316.125239 361.789544 
L 315.993192 377.552236 
L 315.861171 374.927649 
L 315.597206 383.311307 
L 315.333347 378.185357 
L 315.201456 366.908698 
L 315.069591 368.108796 
L 314.80594 383.311307 
L 314.674153 382.446115 
L 314.542393 383.297788 
L 314.410659 376.701829 
L 314.27895 376.790831 
L 314.147268 381.926844 
L 314.015612 364.771716 
L 313.620799 382.699871 
L 313.489247 382.399078 
L 313.35772 376.137776 
L 313.22622 383.311307 
L 313.094746 382.554264 
L 312.963297 383.311307 
L 312.700478 354.038786 
L 312.437763 381.72702 
L 312.306444 369.705619 
L 312.175152 383.311307 
L 312.043885 371.012916 
L 311.912644 381.947478 
L 311.781429 348.671391 
L 311.387939 383.311307 
L 311.256827 383.311307 
L 311.125741 376.254588 
L 310.994681 375.423192 
L 310.863647 368.515178 
L 310.732639 382.622703 
L 310.601657 382.527227 
L 310.4707 373.183742 
L 310.339769 379.026472 
L 310.208864 368.663574 
L 310.077985 370.535925 
L 309.947132 367.000837 
L 309.685502 383.311307 
L 309.554726 376.903479 
L 309.423976 378.488537 
L 308.901232 298.861125 
L 308.640014 226.912303 
L 308.509444 213.704669 
L 308.24838 277.336616 
L 307.987419 342.156524 
L 307.856977 349.316092 
L 307.726561 383.311307 
L 306.814365 383.311308 
L 306.684154 380.932029 
L 306.553968 383.311308 
L 306.293673 383.311308 
L 306.163564 381.513331 
L 306.033481 371.668958 
L 305.903423 378.131706 
L 305.773391 365.703286 
L 305.513403 383.311308 
L 305.253517 369.493348 
L 305.123612 383.311308 
L 304.993733 383.311308 
L 304.863879 381.178321 
L 304.734051 381.053696 
L 304.604248 383.311308 
L 304.344719 376.54524 
L 304.214992 382.048795 
L 304.085291 376.882996 
L 303.955616 380.01903 
L 303.825966 377.69165 
L 303.696341 380.74094 
L 303.566742 379.334232 
L 303.437168 379.855396 
L 303.307619 383.311308 
L 303.178096 376.146442 
L 303.048599 378.17191 
L 302.919126 368.38973 
L 302.789679 380.889858 
L 302.660258 375.049813 
L 302.401491 383.311308 
L 302.272145 383.311308 
L 302.01353 360.631176 
L 301.88426 360.944356 
L 301.755016 383.311308 
L 301.496604 355.501302 
L 301.238292 378.798626 
L 300.980082 383.311308 
L 300.721972 373.397964 
L 300.463964 383.311309 
L 300.334998 377.836617 
L 300.206057 382.496812 
L 299.94825 383.311309 
L 299.690544 357.364617 
L 299.561729 356.793893 
L 299.304174 383.311309 
L 299.175435 380.367277 
L 299.04672 380.316938 
L 298.918031 383.311309 
L 298.789367 380.353545 
L 298.660728 380.711652 
L 298.532114 381.728501 
L 298.274961 361.1219 
L 298.017909 383.311309 
L 297.889421 383.311309 
L 297.760958 381.472774 
L 297.632519 369.248564 
L 297.504106 383.311309 
L 297.375718 361.225644 
L 297.247355 381.634299 
L 297.119017 353.353335 
L 296.990704 378.668013 
L 296.862416 377.184422 
L 296.734153 383.311309 
L 296.605915 376.986494 
L 296.477702 378.228311 
L 296.349514 383.311309 
L 296.093214 377.624408 
L 295.965101 369.441611 
L 295.837013 371.259831 
L 295.70895 382.446893 
L 295.580912 383.31131 
L 295.452898 383.31131 
L 295.196947 363.13494 
L 294.941095 383.31131 
L 294.685343 369.194876 
L 294.557505 354.731242 
L 294.301902 376.485113 
L 294.174138 382.89688 
L 294.046399 378.807709 
L 293.918684 380.339043 
L 293.66333 377.396136 
L 293.535691 366.897273 
L 293.280486 383.31131 
L 293.15292 379.421047 
L 293.02538 382.611792 
L 292.897864 378.115088 
L 292.770373 383.31131 
L 292.515466 373.621844 
L 292.38805 376.301625 
L 292.260658 357.149777 
L 292.133291 366.5584 
L 292.005949 367.153222 
L 291.878631 379.740279 
L 291.751338 378.922616 
L 291.62407 375.881707 
L 291.496827 383.31131 
L 291.242415 367.921866 
L 290.988101 383.311311 
L 290.733886 371.341073 
L 290.606816 357.334497 
L 290.47977 357.962719 
L 290.225752 383.311311 
L 290.098781 383.311311 
L 289.971833 377.981595 
L 289.844911 382.892233 
L 289.718013 375.616048 
L 289.59114 376.909188 
L 289.337467 368.098878 
L 289.083893 383.311311 
L 288.703715 358.39063 
L 288.577039 369.105398 
L 288.450387 363.177555 
L 288.323759 383.311311 
L 288.197156 383.311311 
L 287.817495 356.473538 
L 287.69099 380.397623 
L 287.564509 376.40576 
L 287.438053 382.945182 
L 287.311622 363.984472 
L 287.185215 372.469411 
L 287.058833 358.863901 
L 286.932475 381.937268 
L 286.679832 377.729669 
L 286.553547 383.311312 
L 286.301051 381.212549 
L 286.17484 379.627837 
L 286.048653 367.145782 
L 285.670239 383.204783 
L 285.54415 383.311312 
L 285.418085 368.570643 
L 285.292044 373.441468 
L 285.166028 371.971689 
L 285.040036 383.311312 
L 284.788125 379.971999 
L 284.536312 367.090854 
L 284.158775 383.311312 
L 284.032977 378.434614 
L 283.907205 383.311312 
L 283.781456 382.463019 
L 283.655732 383.311312 
L 283.530032 369.779158 
L 283.278704 371.624311 
L 283.153077 379.280087 
L 283.027474 379.335007 
L 282.901895 383.311313 
L 282.776341 377.089373 
L 282.65081 380.127678 
L 282.525304 380.223785 
L 282.399822 373.328511 
L 282.274365 360.009337 
L 282.148931 379.669034 
L 282.023522 372.570233 
L 281.898137 383.311313 
L 281.772776 373.770331 
L 281.647439 382.315088 
L 281.522126 375.842843 
L 281.396838 383.311313 
L 281.271574 380.161477 
L 281.021118 363.713287 
L 280.895926 381.813707 
L 280.770758 383.311313 
L 280.645614 374.916253 
L 280.395399 346.062739 
L 280.145281 375.981334 
L 280.020258 372.843369 
L 279.645332 383.311314 
L 279.520406 374.808107 
L 279.395503 382.102808 
L 279.270624 358.723304 
L 279.145769 376.922143 
L 279.020938 377.828666 
L 278.896131 383.311314 
L 278.64659 353.372033 
L 278.521855 355.685495 
L 278.272458 383.311314 
L 278.023156 376.136304 
L 277.898541 348.232148 
L 277.77395 373.620696 
L 277.649383 367.567227 
L 277.52484 369.22013 
L 277.400321 366.083273 
L 277.275826 375.254428 
L 277.151355 373.369532 
L 277.026907 379.122232 
L 276.778084 371.682342 
L 276.653709 374.516819 
L 276.529357 372.194417 
L 276.405029 373.104901 
L 276.280725 357.875457 
L 276.156445 375.631476 
L 276.032189 367.317392 
L 275.907956 383.311315 
L 275.659563 367.315443 
L 275.411265 344.092139 
L 275.163063 368.080454 
L 274.790937 324.539118 
L 274.666943 346.926447 
L 274.542972 338.360178 
L 274.419025 360.954197 
L 274.295103 350.554028 
L 273.923476 372.765231 
L 273.799648 379.052811 
L 273.675844 374.216494 
L 273.552063 383.311316 
L 273.304574 383.311316 
L 273.180864 382.757052 
L 273.057178 383.311316 
L 272.933516 379.607216 
L 272.809878 380.208231 
L 272.686263 376.548065 
L 272.439105 382.269961 
L 272.315561 383.311316 
L 272.192041 381.118059 
L 272.068545 374.616028 
L 271.945072 383.311316 
L 271.821623 381.702604 
L 271.574796 372.406336 
L 271.451417 383.311316 
L 271.328063 376.658817 
L 271.204732 381.073425 
L 271.081424 369.809816 
L 270.83488 379.469984 
L 270.711643 374.337426 
L 270.58843 383.311317 
L 270.46524 383.311317 
L 270.342074 383.135575 
L 270.218931 383.311317 
L 269.972717 370.664042 
L 269.849645 371.693862 
L 269.726596 365.569429 
L 269.603571 372.204165 
L 269.48057 353.16065 
L 269.111706 383.311317 
L 268.988799 382.054085 
L 268.743054 383.311317 
L 268.497403 359.499216 
L 268.374613 357.026993 
L 268.006382 383.311318 
L 267.883685 382.89224 
L 267.761012 378.494749 
L 267.515736 383.311318 
L 267.270553 371.260903 
L 267.147997 374.732274 
L 266.902954 383.311318 
L 266.780468 383.311318 
L 266.658005 376.653397 
L 266.413149 381.647403 
L 266.290757 381.109892 
L 266.168387 383.311318 
L 266.046041 372.202483 
L 265.923718 372.943751 
L 265.801418 364.091767 
L 265.679142 376.130957 
L 265.556889 368.476031 
L 265.190269 383.311319 
L 265.068109 383.311319 
L 264.945972 367.907788 
L 264.701768 383.311319 
L 264.579701 383.311319 
L 264.457657 377.173862 
L 264.335637 381.158478 
L 264.213639 373.54451 
L 264.091665 355.078009 
L 263.969714 361.920145 
L 263.847786 382.487035 
L 263.725882 383.311319 
L 263.482142 377.863312 
L 263.360307 367.577332 
L 263.116706 378.541076 
L 262.994941 379.634533 
L 262.873198 383.31132 
L 262.751479 375.286256 
L 262.629782 375.516778 
L 262.386459 380.474523 
L 262.264832 361.774851 
L 262.143228 376.178844 
L 262.021648 374.670951 
L 261.90009 383.31132 
L 261.778555 383.31132 
L 261.657044 375.737511 
L 261.535556 382.997013 
L 261.292648 373.584201 
L 261.171229 383.31132 
L 260.928459 374.44206 
L 260.807109 376.915745 
L 260.685782 383.311321 
L 260.564478 382.342702 
L 260.443197 383.311321 
L 260.321938 383.311321 
L 260.200703 381.770197 
L 260.079491 383.311321 
L 259.958302 383.311321 
L 259.837136 382.919281 
L 259.715993 374.095037 
L 259.594872 373.950982 
L 259.473775 369.542709 
L 259.352701 379.61764 
L 259.110621 359.959467 
L 258.868633 381.272971 
L 258.747673 383.311321 
L 258.626736 375.647811 
L 258.384931 383.311322 
L 258.264063 383.311322 
L 258.143218 369.883975 
L 258.022395 371.908619 
L 257.901596 351.163651 
L 257.780819 351.15683 
L 257.660066 355.139762 
L 257.418627 383.311322 
L 257.177279 378.486089 
L 257.056639 376.545254 
L 256.936023 383.311322 
L 256.815429 382.337981 
L 256.574309 371.06095 
L 256.453784 369.190105 
L 256.333281 370.654657 
L 256.212801 377.927671 
L 256.092344 364.516758 
L 255.971909 368.665893 
L 255.731109 383.311323 
L 255.610742 382.689467 
L 255.370078 375.879744 
L 255.129505 383.311323 
L 255.009253 383.311323 
L 254.889023 380.276394 
L 254.768816 383.311323 
L 254.648631 379.782968 
L 254.528469 381.820893 
L 254.288214 365.131248 
L 253.928001 383.311324 
L 253.807975 380.43186 
L 253.687972 369.000869 
L 253.567991 371.21546 
L 253.328098 383.311324 
L 252.968428 351.697877 
L 252.728762 383.311324 
L 252.608962 383.311324 
L 252.489185 368.207419 
L 252.369431 370.767971 
L 252.249699 368.713116 
L 252.129989 381.232629 
L 251.890638 373.809678 
L 251.770997 382.699607 
L 251.651378 383.311325 
L 251.531781 383.311325 
L 251.412207 367.548633 
L 251.292655 370.390914 
L 251.173126 355.583003 
L 250.934136 373.918207 
L 250.814674 362.978232 
L 250.695235 370.19707 
L 250.575819 362.526845 
L 250.456424 382.847116 
L 250.337053 383.311326 
L 250.217704 383.311326 
L 250.098377 382.513728 
L 249.979073 383.027435 
L 249.859791 357.509929 
L 249.621294 380.906417 
L 249.50208 383.311326 
L 249.382888 382.932805 
L 249.144571 370.720663 
L 249.025446 373.801972 
L 248.906343 382.974628 
L 248.787263 383.311327 
L 248.54917 373.893756 
L 248.430157 374.425322 
L 248.192198 382.158157 
L 247.954328 366.500476 
L 247.835427 383.311327 
L 247.597691 383.311327 
L 247.478857 376.917018 
L 247.360044 379.208429 
L 247.122487 356.047416 
L 246.766319 371.98455 
L 246.64764 369.34391 
L 246.528984 381.997342 
L 246.41035 376.151245 
L 246.291739 383.311328 
L 246.054582 380.205426 
L 245.936038 382.880422 
L 245.817515 372.410158 
L 245.699015 382.779455 
L 245.580536 359.383788 
L 245.46208 379.291231 
L 245.343647 371.965238 
L 245.225235 383.311328 
L 244.988478 372.772686 
L 244.870133 379.488725 
L 244.751811 377.223866 
L 244.63351 383.311329 
L 244.515231 376.41345 
L 244.396975 383.311329 
L 244.278741 374.90275 
L 244.160529 378.583195 
L 244.042339 360.386411 
L 243.924171 363.311085 
L 243.806025 360.072344 
L 243.687901 382.531263 
L 243.5698 370.898032 
L 243.333663 378.405546 
L 243.215628 383.31133 
L 243.097615 383.040958 
L 242.861655 380.900015 
L 242.625783 373.545584 
L 242.50788 374.788473 
L 242.39 383.134532 
L 242.272141 378.032662 
L 242.154304 381.814778 
L 241.918697 369.9289 
L 241.800926 372.380835 
L 241.565451 383.311331 
L 241.447746 375.889612 
L 241.330064 383.311331 
L 241.094765 367.481839 
L 240.977148 366.361476 
L 240.74198 383.311331 
L 240.62443 377.160364 
L 240.506901 380.087138 
L 240.389394 374.644207 
L 240.271909 379.683556 
L 240.154446 368.956491 
L 239.919585 381.017529 
L 239.802188 383.311332 
L 239.567459 370.644655 
L 239.450128 370.96386 
L 239.21553 379.269334 
L 239.098264 383.311332 
L 238.98102 378.877224 
L 238.863798 364.779626 
L 238.512262 383.311332 
L 238.278014 372.528347 
L 238.160923 371.68998 
L 237.926806 377.648086 
L 237.809781 383.311333 
L 237.458834 383.270777 
L 237.341895 373.986875 
L 237.224979 378.146376 
L 237.108084 364.282613 
L 236.99121 372.309254 
L 236.874359 368.554452 
L 236.640721 381.727472 
L 236.523935 382.004603 
L 236.40717 383.311333 
L 236.290427 382.716514 
L 236.173706 380.147978 
L 236.057007 364.02826 
L 235.940329 377.024684 
L 235.823673 370.670969 
L 235.590427 383.311334 
L 235.357266 375.282965 
L 235.240719 363.216648 
L 235.124193 383.311334 
L 235.007689 374.984642 
L 234.774745 383.311334 
L 234.658306 383.311334 
L 234.541888 381.297064 
L 234.425492 365.572812 
L 234.309118 366.282984 
L 234.076434 381.787956 
L 233.960125 379.875073 
L 233.843837 372.940135 
L 233.72757 383.311334 
L 233.611326 381.648544 
L 233.495103 383.243741 
L 233.378901 377.472556 
L 233.262721 358.969882 
L 233.146563 362.681185 
L 232.91431 383.311334 
L 232.798217 372.795726 
L 232.682144 382.578865 
L 232.566094 369.453862 
L 232.334057 383.311335 
L 232.218071 383.311335 
L 231.986163 376.698481 
L 231.870241 372.506909 
L 231.754341 383.311335 
L 231.638462 380.131084 
L 231.522605 383.311335 
L 231.290955 358.316323 
L 231.059391 380.383711 
L 230.943641 377.684563 
L 230.827913 383.141578 
L 230.712206 367.841359 
L 230.596521 382.641178 
L 230.480856 377.79123 
L 230.365214 383.311335 
L 230.249592 365.558816 
L 230.133993 371.651975 
L 230.018414 361.586249 
L 229.787321 378.626993 
L 229.671807 383.311336 
L 229.556314 382.067623 
L 229.440843 383.311336 
L 229.209964 342.222023 
L 229.094556 347.916774 
L 228.863806 381.633759 
L 228.748462 383.311336 
L 228.517839 378.105537 
L 228.287302 383.311336 
L 228.172065 379.810011 
L 228.056849 381.523495 
L 227.941655 380.677039 
L 227.5962 352.873092 
L 227.366003 383.311336 
L 227.250937 383.311336 
L 227.135892 382.148732 
L 227.020868 376.183644 
L 226.905865 377.322027 
L 226.790883 374.323891 
L 226.675923 383.311337 
L 226.560984 379.593717 
L 226.331169 343.275587 
L 226.10144 379.840081 
L 225.986607 382.921972 
L 225.757004 359.480099 
L 225.527486 373.217083 
L 225.412759 383.311337 
L 225.183368 372.430012 
L 225.068704 383.311337 
L 224.954062 380.485942 
L 224.83944 381.863299 
L 224.610261 349.150539 
L 224.381166 379.28145 
L 224.26665 383.311338 
L 224.037682 371.154698 
L 223.923229 371.322407 
L 223.808798 364.492409 
L 223.579998 383.311338 
L 223.46563 367.311479 
L 223.351283 376.782693 
L 223.236957 371.416937 
L 223.122652 383.311338 
L 223.008368 383.040966 
L 222.779863 370.807055 
L 222.665642 368.928325 
L 222.551442 357.890365 
L 222.323106 383.311338 
L 222.208969 383.311338 
L 222.094853 379.390936 
L 221.980758 368.318885 
L 221.638599 383.311339 
L 221.182682 358.906719 
L 221.068754 370.404306 
L 220.954848 369.324519 
L 220.727099 383.311339 
L 220.613255 381.303616 
L 220.499433 383.311339 
L 220.385631 383.068004 
L 220.271851 383.311339 
L 220.158091 372.270013 
L 220.044352 378.686984 
L 219.930634 366.79533 
L 219.816937 371.026681 
L 219.703261 370.009353 
L 219.589605 364.02862 
L 219.475971 383.311339 
L 219.362357 380.9591 
L 219.248765 383.31134 
L 219.135193 381.324099 
L 219.021642 383.053289 
L 218.794602 380.82589 
L 218.681113 382.677936 
L 218.567646 371.239485 
L 218.454199 371.997763 
L 218.340773 383.31134 
L 218.227367 380.337248 
L 218.113983 383.047727 
L 218.000619 373.548075 
L 217.887276 383.096309 
L 217.773954 376.576882 
L 217.660653 378.10407 
L 217.547372 360.430985 
L 217.320873 375.391403 
L 217.207655 383.31134 
L 217.094457 374.645909 
L 216.98128 383.311341 
L 216.868124 373.492881 
L 216.754989 378.193843 
L 216.641874 364.60475 
L 216.415707 376.480847 
L 216.302654 367.99162 
L 216.189622 383.311341 
L 216.076611 377.564027 
L 215.963621 383.311341 
L 215.850651 373.093055 
L 215.737702 377.225925 
L 215.624773 358.046382 
L 215.286112 383.311341 
L 215.060441 352.418875 
L 214.947637 353.352304 
L 214.722089 382.660758 
L 214.496625 369.612276 
L 214.383923 383.311342 
L 214.271243 376.2259 
L 214.158582 383.311342 
L 213.820725 353.616758 
L 213.59559 364.504551 
L 213.370537 383.311342 
L 213.258041 382.675967 
L 213.145566 379.958723 
L 213.033112 364.426411 
L 212.808264 377.789412 
L 212.695871 368.372046 
L 212.583499 382.721241 
L 212.471147 373.122736 
L 212.358816 383.311343 
L 212.246505 360.114971 
L 212.134214 366.51573 
L 212.021944 362.902856 
L 211.909695 383.311343 
L 211.797466 383.311343 
L 211.573069 375.359299 
L 211.460902 372.698902 
L 211.348755 366.923087 
L 211.236628 379.851985 
L 211.124522 377.35104 
L 211.012436 383.311343 
L 210.900371 383.000415 
L 210.564297 335.248688 
L 210.452314 348.79608 
L 210.340351 339.249693 
L 210.228408 348.670985 
L 210.004583 285.59984 
L 209.557179 33.973515 
L 209.445379 37.60588 
L 209.333599 66.737447 
L 208.998382 263.083607 
L 208.775005 361.729604 
L 208.663347 383.311345 
L 207.436451 383.311345 
L 207.325037 377.579447 
L 207.213643 383.311345 
L 207.102269 369.320096 
L 206.990916 377.890944 
L 206.879582 369.948052 
L 206.768269 383.311346 
L 206.656976 363.537371 
L 206.545703 366.582976 
L 206.434451 376.462761 
L 206.323219 370.1543 
L 206.212007 352.955229 
L 206.100815 354.093842 
L 205.878492 381.405506 
L 205.76736 375.681634 
L 205.545158 383.311346 
L 205.323037 383.311346 
L 205.212006 382.506989 
L 205.100996 383.311347 
L 204.990006 377.714634 
L 204.879036 381.060494 
L 204.768086 380.985021 
L 204.546246 383.311347 
L 204.213638 375.430976 
L 204.102809 368.898123 
L 203.770441 383.311347 
L 203.659692 378.025565 
L 203.548963 379.140852 
L 203.438255 375.201862 
L 203.106249 382.269993 
L 202.99562 378.945254 
L 202.885012 367.927396 
L 202.663854 383.311348 
L 202.553306 383.311348 
L 202.442778 376.376295 
L 202.332269 379.369967 
L 202.221781 371.769996 
L 202.111312 376.477824 
L 202.000864 371.046712 
L 201.780027 383.121032 
L 201.669638 383.311349 
L 201.228284 366.167738 
L 201.007727 383.311349 
L 200.897478 376.781854 
L 200.67704 380.902781 
L 200.566851 383.311349 
L 200.346533 366.737134 
L 200.236404 370.227748 
L 200.126294 364.099948 
L 200.016205 383.31135 
L 199.906135 365.332915 
L 199.796085 369.881876 
L 199.686056 383.31135 
L 199.576046 379.401579 
L 199.466056 383.31135 
L 199.356085 376.795375 
L 199.246135 381.111191 
L 199.136205 361.567305 
L 198.916403 371.575002 
L 198.806532 374.127935 
L 198.58685 383.311351 
L 198.367247 359.216811 
L 198.037991 383.311351 
L 197.818585 375.65981 
L 197.708913 382.624155 
L 197.59926 364.831119 
L 197.489626 370.481927 
L 197.380013 352.922897 
L 197.160845 383.311352 
L 197.051291 381.405228 
L 196.832241 383.311352 
L 196.613271 373.790569 
L 196.503815 357.179764 
L 196.284963 375.078721 
L 196.175567 370.467221 
L 196.06619 371.68681 
L 195.847496 383.311353 
L 195.62888 366.413059 
L 195.519602 383.311353 
L 195.410343 382.040601 
L 195.301104 383.311353 
L 195.082685 372.556098 
L 194.973505 374.605292 
L 194.864345 383.311353 
L 194.536981 358.28551 
L 194.318837 383.311354 
L 194.209795 382.675979 
L 193.773821 367.482305 
L 193.664876 378.613209 
L 193.555951 374.015158 
L 193.447045 383.311354 
L 193.33816 382.392091 
L 193.229293 383.311354 
L 193.120447 382.351533 
L 193.011619 382.848342 
L 192.794024 380.597491 
L 192.685255 383.311355 
L 192.467777 366.578556 
L 192.359067 367.578342 
L 192.250376 371.753524 
L 192.141705 383.311355 
L 192.033054 383.270799 
L 191.924422 381.256526 
L 191.707217 365.792636 
L 191.381555 374.719988 
L 191.164544 383.311356 
L 191.056068 383.311356 
L 190.947611 374.226811 
L 190.839174 380.346832 
L 190.730756 365.058102 
L 190.622358 375.361075 
L 190.513979 366.993089 
L 190.40562 376.899169 
L 190.29728 366.059394 
L 190.188959 381.060858 
L 190.080658 362.756423 
L 189.864114 383.311356 
L 189.647648 374.710279 
L 189.539443 382.963041 
L 189.431259 378.988567 
L 189.214947 383.311356 
L 188.890625 371.731554 
L 188.782557 369.604051 
L 188.566477 383.10548 
L 188.458467 381.638777 
L 188.350476 365.761275 
L 188.134551 383.311357 
L 188.026618 383.311357 
L 187.918704 372.180107 
L 187.810809 379.378711 
L 187.595078 371.798178 
L 187.379423 383.311357 
L 187.271625 383.311357 
L 186.948346 368.282669 
L 186.840625 372.721862 
L 186.62524 383.311357 
L 186.409933 367.798767 
L 186.194702 380.481745 
L 185.979548 363.345045 
L 185.764471 383.311358 
L 185.549471 374.0638 
L 185.442 383.311358 
L 185.334548 379.701886 
L 185.227115 382.929457 
L 185.119701 367.012405 
L 185.012307 375.887105 
L 184.797575 373.127802 
L 184.690238 360.708037 
L 184.58292 360.957519 
L 184.368342 379.91966 
L 184.261081 381.38826 
L 184.15384 369.201127 
L 184.046618 383.311359 
L 183.939415 382.662465 
L 183.832231 383.311359 
L 183.725066 376.896771 
L 183.61792 383.311359 
L 183.403686 357.857517 
L 183.296597 363.200815 
L 183.082477 383.311359 
L 182.868434 373.739014 
L 182.761441 373.074735 
L 182.654466 361.77994 
L 182.440575 381.178585 
L 182.333659 383.311359 
L 182.226761 370.772879 
L 182.013022 381.533662 
L 181.799359 383.31136 
L 181.692556 379.941845 
L 181.585773 383.31136 
L 181.265535 365.103998 
L 181.158828 365.238307 
L 181.052139 383.31136 
L 180.838818 373.743534 
L 180.625573 349.910347 
L 180.518979 376.450168 
L 180.412404 368.345751 
L 180.305848 378.038185 
L 180.199311 375.63729 
L 179.986293 383.311361 
L 179.879813 377.582846 
L 179.773352 380.202074 
L 179.560486 364.248001 
L 179.347695 361.384988 
L 179.13498 383.311361 
L 178.922341 383.311361 
L 178.709777 365.520303 
L 178.178697 383.311362 
L 178.072538 381.205272 
L 177.860276 383.311362 
L 177.754173 383.270806 
L 177.542024 376.555429 
L 177.435977 383.311362 
L 177.32995 380.823936 
L 177.117951 360.637697 
L 176.906027 379.554876 
L 176.800093 374.808155 
L 176.694178 383.311362 
L 176.588282 379.458557 
L 176.482405 383.216732 
L 176.270707 367.525458 
L 176.164885 376.88375 
L 176.059083 372.725056 
L 175.847535 383.311362 
L 175.636061 369.790459 
L 175.424662 353.385725 
L 175.213339 383.311362 
L 175.107705 383.054509 
L 175.00209 382.04061 
L 174.896493 369.151695 
L 174.790915 379.168331 
L 174.685356 368.342563 
L 174.579816 381.517683 
L 174.474294 375.873803 
L 174.263307 348.009382 
L 174.052394 379.900235 
L 173.946965 383.311362 
L 173.736164 378.539294 
L 173.525438 342.855765 
L 173.314786 367.539102 
L 173.104208 381.618158 
L 172.893705 383.311363 
L 172.788482 375.9014 
L 172.683277 383.311363 
L 172.57809 382.3921 
L 172.472922 383.311363 
L 172.367773 371.969259 
L 172.15753 383.311363 
L 171.947361 376.516634 
L 171.842304 367.778573 
L 171.632247 383.311363 
L 171.527246 378.050086 
L 171.422264 363.182745 
L 171.212354 383.311363 
L 171.002519 382.112364 
L 170.897629 367.373874 
L 170.687905 383.311363 
L 170.583071 375.37593 
L 170.478255 378.708271 
L 170.268679 365.235563 
L 170.059176 383.311363 
L 169.849747 364.816247 
L 169.745061 370.934478 
L 169.640393 374.984034 
L 169.535743 374.831953 
L 169.221904 383.311363 
L 169.012771 383.311364 
L 168.908232 381.351162 
L 168.699208 369.328708 
L 168.594724 369.626118 
L 168.490259 382.09391 
L 168.385812 372.740916 
L 168.281383 383.311364 
L 168.07258 377.22461 
L 167.968207 378.052621 
L 167.863851 377.69874 
L 167.655196 383.311364 
L 167.550895 383.027473 
L 167.446613 382.108209 
L 167.238104 373.538708 
L 167.133877 381.508107 
L 167.029669 379.673657 
L 166.925479 380.435771 
L 166.821307 361.995583 
L 166.717153 362.905446 
L 166.613018 383.311364 
L 166.300721 356.445596 
L 166.092615 381.27343 
L 165.988589 383.311364 
L 165.884582 380.634675 
L 165.780593 373.131351 
L 165.676622 380.979049 
L 165.57267 368.7431 
L 165.468735 372.085585 
L 165.364819 364.765218 
L 165.157042 381.847973 
L 165.05318 380.635738 
L 164.949337 381.866986 
L 164.845512 366.339981 
L 164.741706 383.311365 
L 164.637917 383.216735 
L 164.534147 383.311365 
L 164.326661 370.998179 
L 164.119248 380.577718 
L 164.015568 383.311365 
L 163.911907 379.539668 
L 163.704639 352.024654 
L 163.393874 383.311365 
L 163.186788 371.846647 
L 163.083272 365.514992 
L 162.979774 372.25675 
L 162.876295 358.072276 
L 162.772833 365.722568 
L 162.565965 383.311365 
L 162.462558 382.919325 
L 162.359169 380.093932 
L 162.255798 366.262728 
L 162.04911 369.469131 
L 161.945793 360.910128 
L 161.842495 365.756589 
L 161.739215 365.420551 
L 161.635952 383.311366 
L 161.532708 381.905428 
L 161.326273 372.481159 
L 161.223083 368.495215 
L 161.119911 383.311366 
L 161.016757 382.797658 
L 160.913621 383.311366 
L 160.707403 358.075377 
L 160.501258 383.311366 
L 160.398212 383.311366 
L 160.089182 354.064981 
L 159.780315 376.479464 
L 159.677395 373.009979 
L 159.574493 355.966834 
L 159.368743 377.545111 
L 159.265895 376.024833 
L 158.854683 304.118191 
L 158.751925 301.150814 
L 158.238403 77.444973 
L 158.135752 91.168225 
L 157.725329 249.004229 
L 157.417699 383.311367 
L 156.086494 383.311368 
L 155.984219 380.445423 
L 155.881961 368.972651 
L 155.677499 383.311368 
L 155.575295 376.673726 
L 155.473108 379.154392 
L 155.37094 363.960608 
L 155.166656 373.539952 
L 155.06454 371.326956 
L 154.962443 383.311368 
L 154.758301 374.161352 
L 154.656256 376.966769 
L 154.35023 367.19926 
L 154.248257 377.294382 
L 154.146301 374.8554 
L 154.044363 362.381504 
L 153.942443 377.648263 
L 153.636789 354.942775 
L 153.433108 379.659088 
L 153.331294 381.942047 
L 153.229498 375.583787 
L 153.127719 383.311369 
L 153.025958 380.432463 
L 152.924215 383.311369 
L 152.82249 370.797074 
L 152.720782 373.366042 
L 152.517419 381.561694 
L 152.415764 374.200778 
L 152.212508 383.311369 
L 152.009321 383.311369 
L 151.907755 379.080045 
L 151.704674 383.311369 
L 151.603161 383.31137 
L 151.400186 357.693008 
L 151.298725 359.866137 
L 151.095856 383.31137 
L 150.893057 383.31137 
L 150.791684 378.585486 
L 150.690329 383.31137 
L 150.487671 377.754658 
L 150.386368 383.31137 
L 150.285083 382.419137 
L 150.183815 379.43491 
L 150.082565 367.054854 
L 149.880118 373.94102 
L 149.77892 383.31137 
L 149.67774 383.12211 
L 149.576578 383.31137 
L 149.374306 376.67077 
L 149.273196 349.974854 
L 149.071029 381.748701 
L 148.969971 383.311371 
L 148.868932 380.769867 
L 148.666904 383.311371 
L 148.565917 372.705485 
L 148.464947 383.311371 
L 148.363995 382.608403 
L 148.26306 383.311371 
L 148.162142 347.787905 
L 147.859495 383.311371 
L 147.758647 380.661721 
L 147.456209 342.536303 
L 147.053201 377.153007 
L 146.751129 383.311372 
L 146.650473 383.311372 
L 146.449213 361.032306 
L 146.248022 383.311372 
L 146.147453 382.716553 
L 146.046901 371.619232 
L 145.84585 382.623683 
L 145.74535 383.311372 
L 145.644867 380.864505 
L 145.544402 382.324512 
L 145.443955 379.722179 
L 145.343524 373.038513 
L 145.142716 383.311372 
L 145.042337 374.4422 
L 144.941976 378.870647 
L 144.841633 374.633334 
L 144.741306 381.578035 
L 144.540705 368.444723 
L 144.440431 383.311373 
L 144.139711 373.512935 
L 144.039505 383.311373 
L 143.939317 378.850226 
L 143.839146 378.958373 
L 143.738993 376.688943 
L 143.638857 377.360505 
L 143.538737 373.778896 
L 143.338551 353.869372 
L 143.238484 356.964944 
L 143.038401 383.311373 
L 142.838387 383.311373 
L 142.638442 366.52462 
L 142.538495 367.596788 
L 142.438565 382.735917 
L 142.13888 358.440482 
L 142.039019 357.784176 
L 141.939176 375.07783 
L 141.839349 373.68038 
L 141.639748 383.311374 
L 141.539973 380.743327 
L 141.440215 368.067047 
L 141.240752 383.311374 
L 140.842029 363.297664 
L 140.742392 381.993517 
L 140.543168 376.793574 
L 140.443581 366.743804 
L 140.344012 383.205197 
L 140.24446 370.585605 
L 140.045407 383.311375 
L 139.945906 382.77063 
L 139.846423 383.311375 
L 139.647506 376.829969 
L 139.548074 380.743612 
L 139.448659 370.608906 
L 139.249879 382.769785 
L 139.150515 379.978335 
L 139.051168 380.787059 
L 138.951838 365.1647 
L 138.852525 366.65583 
L 138.65395 383.311376 
L 138.554688 381.338009 
L 138.455443 383.311376 
L 138.257004 366.607547 
L 138.058634 383.074448 
L 137.959474 383.311376 
L 137.860331 379.553198 
L 137.761205 365.518723 
L 137.563005 379.93193 
L 137.46393 377.963569 
L 137.265831 350.327287 
L 137.0678 383.311376 
L 136.869837 373.550946 
L 136.770881 375.088535 
L 136.671942 372.142917 
L 136.57302 373.70262 
L 136.375227 383.311377 
L 136.276355 380.350796 
L 136.078664 369.150646 
L 135.979843 370.777326 
L 135.881039 382.127864 
L 135.782253 377.256092 
L 135.683483 377.618141 
L 135.387275 383.311377 
L 135.189887 366.358155 
L 135.091219 364.426623 
L 134.893933 380.946814 
L 134.795315 383.311377 
L 134.696714 379.742464 
L 134.59813 380.787194 
L 134.401012 372.664473 
L 134.302479 383.311378 
L 134.203962 380.621168 
L 134.105462 381.678018 
L 133.810064 370.948934 
L 133.514816 383.311378 
L 133.318069 371.705617 
L 133.121389 383.311378 
L 133.023074 380.458953 
L 132.924776 381.114603 
L 132.826495 378.58296 
L 132.72823 365.707874 
L 132.629982 376.752594 
L 132.531751 373.357724 
L 132.335339 378.697725 
L 132.237159 383.311378 
L 132.138995 369.706577 
L 131.844603 383.311378 
L 131.746506 380.999697 
L 131.550363 366.462078 
L 131.452316 366.573972 
L 131.256272 383.311379 
L 131.158276 381.878402 
L 131.060296 383.311379 
L 130.864386 367.356703 
L 130.766456 366.72981 
L 130.570646 383.311379 
L 130.472766 372.516788 
L 130.374903 373.866344 
L 130.277057 375.739191 
L 130.179227 381.038493 
L 130.081414 380.426776 
L 129.885837 383.311379 
L 129.788074 380.445434 
L 129.690328 367.334023 
L 129.494885 371.980261 
L 129.397188 383.311379 
L 129.299508 376.443924 
L 129.201845 383.311379 
L 129.104198 362.761762 
L 129.006568 373.975936 
L 128.908954 364.391188 
L 128.811357 383.31138 
L 128.713777 373.792811 
L 128.616213 383.032487 
L 128.518666 371.003775 
L 128.421136 382.452806 
L 128.323622 380.959423 
L 128.226124 372.887555 
L 128.128644 377.620111 
L 128.031179 357.522031 
L 127.738886 383.31138 
L 127.641488 383.31138 
L 127.544107 381.851373 
L 127.252062 353.826676 
L 127.057448 383.31138 
L 126.960166 370.077523 
L 126.8629 378.366031 
L 126.765651 362.253763 
L 126.571202 376.608755 
L 126.37682 383.311381 
L 126.08537 354.032836 
L 125.891152 377.952375 
L 125.794068 383.311381 
L 125.599949 380.080428 
L 125.405896 341.641687 
L 125.308894 350.347669 
L 125.11494 381.18192 
L 125.017987 378.246686 
L 124.824131 383.311381 
L 124.727228 383.311381 
L 124.630342 371.242627 
L 124.533471 376.700778 
L 124.436617 376.365201 
L 124.33978 351.044817 
L 123.855838 383.311382 
L 123.759099 381.218812 
L 123.662377 383.311382 
L 123.372307 367.554271 
L 123.27565 380.343766 
L 123.082384 376.132013 
L 122.985776 357.780817 
L 122.889184 376.617341 
L 122.792609 371.40387 
L 122.599507 376.339013 
L 122.502981 359.393145 
L 122.406471 378.865518 
L 122.309977 373.907367 
L 122.213499 383.311382 
L 122.020594 371.54252 
L 121.924165 373.234139 
L 121.827753 372.470988 
L 121.731357 367.513076 
L 121.442267 383.311383 
L 121.249622 383.257308 
L 121.153324 376.389849 
L 121.057042 358.454312 
L 120.960776 360.971541 
L 120.768294 378.087776 
L 120.575877 356.499568 
L 120.383524 383.311383 
L 120.287372 382.581378 
L 120.095118 377.636379 
L 119.999014 383.311383 
L 119.710802 359.750889 
L 119.614764 375.516629 
L 119.518742 352.876328 
L 119.230773 383.311383 
L 119.134816 377.214485 
L 119.038875 354.224821 
L 118.751149 380.799593 
L 118.655272 371.817428 
L 118.559412 375.32709 
L 118.463568 373.843668 
L 118.36774 351.460237 
L 118.271928 380.79115 
L 118.176133 364.321024 
L 118.080353 381.821236 
L 117.98459 380.667437 
L 117.793112 381.303163 
L 117.697397 376.020695 
L 117.410349 383.311383 
L 117.314699 379.37746 
L 117.219064 365.418264 
L 117.123446 368.619707 
L 117.027844 375.925287 
L 116.932258 375.256542 
L 116.836688 357.241279 
L 116.741134 375.056718 
L 116.645597 374.450184 
L 116.550075 383.311383 
L 116.45457 367.690973 
L 116.35908 374.642708 
L 116.263607 366.204627 
L 116.168149 383.311383 
L 116.072708 382.608414 
L 115.977283 381.770259 
L 115.881874 382.033871 
L 115.691103 378.007793 
L 115.595742 372.629394 
L 115.500397 357.24181 
L 115.309755 369.198227 
L 115.214458 383.311383 
L 115.119178 382.797675 
L 115.023913 383.311383 
L 114.928664 380.594143 
L 114.833431 365.535297 
L 114.738214 367.260405 
L 114.643013 359.128957 
L 114.357507 383.311382 
L 114.26237 373.434451 
L 114.167249 382.409014 
L 113.977055 366.192046 
L 113.786925 344.372164 
L 113.406856 383.311382 
L 113.311879 376.413504 
L 113.216917 378.425533 
L 113.216917 378.425533 
" clip-path="url(#pc7d7cee90c)" style="fill: none; stroke: #5088c5; stroke-linecap: round"/>
   </g>
   <g id="line2d_15">
    <defs>
     <path id="mf05d72b0c1" d="M 0 2 
C 0.530406 2 1.03916 1.789267 1.414214 1.414214 
C 1.789267 1.03916 2 0.530406 2 0 
C 2 -0.530406 1.789267 -1.03916 1.414214 -1.414214 
C 1.03916 -1.789267 0.530406 -2 0 -2 
C -0.530406 -2 -1.03916 -1.789267 -1.414214 -1.414214 
C -1.789267 -1.03916 -2 -0.530406 -2 0 
C -2 0.530406 -1.789267 1.03916 -1.414214 1.414214 
C -1.03916 1.789267 -0.530406 2 0 2 
z
"/>
    </defs>
    <g clip-path="url(#pc7d7cee90c)">
     <use xlink:href="#mf05d72b0c1" x="308.543919" y="213.704669" style="fill: #f28360"/>
     <use xlink:href="#mf05d72b0c1" x="209.500411" y="37.60588" style="fill: #f28360"/>
     <use xlink:href="#mf05d72b0c1" x="163.123195" y="365.514992" style="fill: #f28360"/>
     <use xlink:href="#mf05d72b0c1" x="158.227226" y="77.444973" style="fill: #f28360"/>
     <use xlink:href="#mf05d72b0c1" x="431.276574" y="383.311304" style="fill: #f28360"/>
    </g>
   </g>
   <g id="patch_3">
    <path d="M 100.494531 397.284897 
L 100.494531 20 
" style="fill: none; stroke: #000000; stroke-width: 0.75; stroke-linejoin: miter; stroke-linecap: square"/>
   </g>
   <g id="patch_4">
    <path d="M 100.494531 397.284897 
L 443.99896 397.284897 
" style="fill: none; stroke: #000000; stroke-width: 0.75; stroke-linejoin: miter; stroke-linecap: square"/>
   </g>
  </g>
 </g>
 <defs>
  <clipPath id="pc7d7cee90c">
   <rect x="100.494531" y="20" width="343.504429" height="377.284898"/>
  </clipPath>
 </defs>
</svg>
