<?xml version="1.0" encoding="utf-8" standalone="no"?>
<!DOCTYPE svg PUBLIC "-//W3C//DTD SVG 1.1//EN"
  "http://www.w3.org/Graphics/SVG/1.1/DTD/svg11.dtd">
<svg xmlns:xlink="http://www.w3.org/1999/xlink" width="463.95775pt" height="463.99896pt" viewBox="0 0 463.95775 463.99896" xmlns="http://www.w3.org/2000/svg" version="1.1">
 <metadata>
  <rdf:RDF xmlns:dc="http://purl.org/dc/elements/1.1/" xmlns:cc="http://creativecommons.org/ns#" xmlns:rdf="http://www.w3.org/1999/02/22-rdf-syntax-ns#">
   <cc:Work>
    <dc:type rdf:resource="http://purl.org/dc/dcmitype/StillImage"/>
    <dc:date>2025-01-29T10:29:31.084633</dc:date>
    <dc:format>image/svg+xml</dc:format>
    <dc:creator>
     <cc:Agent>
      <dc:title>Matplotlib v3.8.4, https://matplotlib.org/</dc:title>
     </cc:Agent>
    </dc:creator>
   </cc:Work>
  </rdf:RDF>
 </metadata>
 <defs>
  <style type="text/css">*{stroke-linejoin: round; stroke-linecap: butt}</style>
 </defs>
 <g id="figure_1">
  <g id="patch_1">
   <path d="M 0 463.99896 
L 463.95775 463.99896 
L 463.95775 0 
L 0 0 
L 0 463.99896 
z
" style="fill: none"/>
  </g>
  <g id="axes_1">
   <g id="patch_2">
    <path d="M 91.128438 397.284897 
L 442.420427 397.284897 
L 442.420427 20 
L 91.128438 20 
L 91.128438 397.284897 
z
" style="fill: none"/>
   </g>
   <g id="matplotlib.axis_1">
    <g id="xtick_1">
     <g id="line2d_1">
      <defs>
       <path id="m681d66f678" d="M 0 0 
L 0 5 
" style="stroke: #000000; stroke-width: 0.75"/>
      </defs>
      <g>
       <use xlink:href="#m681d66f678" x="115.955574" y="397.284897" style="stroke: #000000; stroke-width: 0.75"/>
      </g>
     </g>
     <g id="text_1">
      <text style="font: 14.5px &quot;Suisse Int&apos;l Mono&quot;; text-anchor: middle" x="115.955574" y="417.797397" transform="rotate(-0 115.955574 417.797397)">500</text>
     </g>
    </g>
    <g id="xtick_2">
     <g id="line2d_2">
      <g>
       <use xlink:href="#m681d66f678" x="167.500572" y="397.284897" style="stroke: #000000; stroke-width: 0.75"/>
      </g>
     </g>
     <g id="text_2">
      <text style="font: 14.5px &quot;Suisse Int&apos;l Mono&quot;; text-anchor: middle" x="167.500572" y="417.797397" transform="rotate(-0 167.500572 417.797397)">1000</text>
     </g>
    </g>
    <g id="xtick_3">
     <g id="line2d_3">
      <g>
       <use xlink:href="#m681d66f678" x="219.04557" y="397.284897" style="stroke: #000000; stroke-width: 0.75"/>
      </g>
     </g>
     <g id="text_3">
      <text style="font: 14.5px &quot;Suisse Int&apos;l Mono&quot;; text-anchor: middle" x="219.04557" y="417.797397" transform="rotate(-0 219.04557 417.797397)">1500</text>
     </g>
    </g>
    <g id="xtick_4">
     <g id="line2d_4">
      <g>
       <use xlink:href="#m681d66f678" x="270.590568" y="397.284897" style="stroke: #000000; stroke-width: 0.75"/>
      </g>
     </g>
     <g id="text_4">
      <text style="font: 14.5px &quot;Suisse Int&apos;l Mono&quot;; text-anchor: middle" x="270.590568" y="417.797397" transform="rotate(-0 270.590568 417.797397)">2000</text>
     </g>
    </g>
    <g id="xtick_5">
     <g id="line2d_5">
      <g>
       <use xlink:href="#m681d66f678" x="322.135566" y="397.284897" style="stroke: #000000; stroke-width: 0.75"/>
      </g>
     </g>
     <g id="text_5">
      <text style="font: 14.5px &quot;Suisse Int&apos;l Mono&quot;; text-anchor: middle" x="322.135566" y="417.797397" transform="rotate(-0 322.135566 417.797397)">2500</text>
     </g>
    </g>
    <g id="xtick_6">
     <g id="line2d_6">
      <g>
       <use xlink:href="#m681d66f678" x="373.680564" y="397.284897" style="stroke: #000000; stroke-width: 0.75"/>
      </g>
     </g>
     <g id="text_6">
      <text style="font: 14.5px &quot;Suisse Int&apos;l Mono&quot;; text-anchor: middle" x="373.680564" y="417.797397" transform="rotate(-0 373.680564 417.797397)">3000</text>
     </g>
    </g>
    <g id="xtick_7">
     <g id="line2d_7">
      <g>
       <use xlink:href="#m681d66f678" x="425.225563" y="397.284897" style="stroke: #000000; stroke-width: 0.75"/>
      </g>
     </g>
     <g id="text_7">
      <text style="font: 14.5px &quot;Suisse Int&apos;l Mono&quot;; text-anchor: middle" x="425.225563" y="417.797397" transform="rotate(-0 425.225563 417.797397)">3500</text>
     </g>
    </g>
    <g id="text_8">
     <text style="font: 500 15px &quot;Suisse Int&apos;l&quot;, sans-serif; text-anchor: middle" x="266.774432" y="441.209898" transform="rotate(-0 266.774432 441.209898)">Raman shift (cm-1)</text>
    </g>
   </g>
   <g id="matplotlib.axis_2">
    <g id="ytick_1">
     <g id="line2d_8">
      <defs>
       <path id="mf182312ea7" d="M 0 0 
L -5 0 
" style="stroke: #000000; stroke-width: 0.75"/>
      </defs>
      <g>
       <use xlink:href="#mf182312ea7" x="91.128438" y="357.047935" style="stroke: #000000; stroke-width: 0.75"/>
      </g>
     </g>
     <g id="text_9">
      <text style="font: 14.5px &quot;Suisse Int&apos;l Mono&quot;; text-anchor: end" x="81.128438" y="362.304185" transform="rotate(-0 81.128438 362.304185)">0.00</text>
     </g>
    </g>
    <g id="ytick_2">
     <g id="line2d_9">
      <g>
       <use xlink:href="#mf182312ea7" x="91.128438" y="311.223337" style="stroke: #000000; stroke-width: 0.75"/>
      </g>
     </g>
     <g id="text_10">
      <text style="font: 14.5px &quot;Suisse Int&apos;l Mono&quot;; text-anchor: end" x="81.128438" y="316.479587" transform="rotate(-0 81.128438 316.479587)">0.02</text>
     </g>
    </g>
    <g id="ytick_3">
     <g id="line2d_10">
      <g>
       <use xlink:href="#mf182312ea7" x="91.128438" y="265.39874" style="stroke: #000000; stroke-width: 0.75"/>
      </g>
     </g>
     <g id="text_11">
      <text style="font: 14.5px &quot;Suisse Int&apos;l Mono&quot;; text-anchor: end" x="81.128438" y="270.65499" transform="rotate(-0 81.128438 270.65499)">0.04</text>
     </g>
    </g>
    <g id="ytick_4">
     <g id="line2d_11">
      <g>
       <use xlink:href="#mf182312ea7" x="91.128438" y="219.574142" style="stroke: #000000; stroke-width: 0.75"/>
      </g>
     </g>
     <g id="text_12">
      <text style="font: 14.5px &quot;Suisse Int&apos;l Mono&quot;; text-anchor: end" x="81.128438" y="224.830392" transform="rotate(-0 81.128438 224.830392)">0.06</text>
     </g>
    </g>
    <g id="ytick_5">
     <g id="line2d_12">
      <g>
       <use xlink:href="#mf182312ea7" x="91.128438" y="173.749545" style="stroke: #000000; stroke-width: 0.75"/>
      </g>
     </g>
     <g id="text_13">
      <text style="font: 14.5px &quot;Suisse Int&apos;l Mono&quot;; text-anchor: end" x="81.128438" y="179.005795" transform="rotate(-0 81.128438 179.005795)">0.08</text>
     </g>
    </g>
    <g id="ytick_6">
     <g id="line2d_13">
      <g>
       <use xlink:href="#mf182312ea7" x="91.128438" y="127.924947" style="stroke: #000000; stroke-width: 0.75"/>
      </g>
     </g>
     <g id="text_14">
      <text style="font: 14.5px &quot;Suisse Int&apos;l Mono&quot;; text-anchor: end" x="81.128438" y="133.181197" transform="rotate(-0 81.128438 133.181197)">0.10</text>
     </g>
    </g>
    <g id="ytick_7">
     <g id="line2d_14">
      <g>
       <use xlink:href="#mf182312ea7" x="91.128438" y="82.10035" style="stroke: #000000; stroke-width: 0.75"/>
      </g>
     </g>
     <g id="text_15">
      <text style="font: 14.5px &quot;Suisse Int&apos;l Mono&quot;; text-anchor: end" x="81.128438" y="87.3566" transform="rotate(-0 81.128438 87.3566)">0.12</text>
     </g>
    </g>
    <g id="ytick_8">
     <g id="line2d_15">
      <g>
       <use xlink:href="#mf182312ea7" x="91.128438" y="36.275752" style="stroke: #000000; stroke-width: 0.75"/>
      </g>
     </g>
     <g id="text_16">
      <text style="font: 14.5px &quot;Suisse Int&apos;l Mono&quot;; text-anchor: end" x="81.128438" y="41.532002" transform="rotate(-0 81.128438 41.532002)">0.14</text>
     </g>
    </g>
    <g id="text_17">
     <text style="font: 500 15px &quot;Suisse Int&apos;l&quot;, sans-serif; text-anchor: middle" x="30.875" y="208.642449" transform="rotate(-90 30.875 208.642449)">Intensity (AU)</text>
    </g>
   </g>
   <g id="line2d_16">
    <path d="M 104.139252 359.107729 
L 104.331089 357.664257 
L 104.522888 357.664259 
L 104.714647 358.83279 
L 104.906368 358.832795 
L 105.09805 357.206029 
L 105.289693 354.616946 
L 105.481297 353.631722 
L 105.672863 353.631723 
L 105.86439 356.106249 
L 106.055878 356.793614 
L 106.247327 361.651018 
L 106.438737 361.65102 
L 107.012736 355.968792 
L 107.203992 354.18164 
L 107.395209 354.181644 
L 107.586387 354.571155 
L 108.15969 362.040565 
L 108.350713 362.040571 
L 108.541698 360.91788 
L 108.732645 355.831365 
L 108.923553 355.831379 
L 109.114422 358.305921 
L 109.305253 358.305935 
L 109.496045 355.854334 
L 109.686798 355.716875 
L 110.06819 355.7169 
L 110.258828 352.073854 
L 110.449427 352.07386 
L 110.639988 354.433827 
L 110.830511 354.433825 
L 111.21144 353.792267 
L 111.401847 353.792256 
L 111.592216 354.937857 
L 111.782546 356.999947 
L 111.972838 360.322214 
L 112.163092 360.3222 
L 112.733622 355.648063 
L 112.923722 355.922999 
L 113.113784 355.922987 
L 113.303807 354.59406 
L 113.493792 354.433658 
L 113.683739 354.594025 
L 113.873647 358.512007 
L 114.063517 358.511987 
L 114.253349 357.732951 
L 114.443143 357.732933 
L 114.632898 357.57253 
L 114.822615 355.945741 
L 115.012294 355.945723 
L 115.201935 357.251706 
L 115.391538 357.251688 
L 115.581102 356.724687 
L 115.770628 356.724668 
L 115.960116 361.765355 
L 116.149566 363.04843 
L 116.338978 363.048422 
L 116.906984 357.778598 
L 117.096243 357.572393 
L 117.285464 357.77861 
L 117.474647 356.243493 
L 117.852899 355.327012 
L 118.041968 355.327015 
L 118.230999 359.15337 
L 118.608947 362.567314 
L 118.797864 360.573956 
L 118.986743 360.184463 
L 119.364387 354.823025 
L 119.553152 352.073567 
L 119.741879 351.867369 
L 119.930568 351.867377 
L 120.119219 352.96717 
L 120.496408 353.792006 
L 120.873445 358.763957 
L 121.061907 357.801633 
L 121.250331 357.801626 
L 121.815376 355.876972 
L 122.003649 355.876963 
L 122.191884 355.304145 
L 122.380081 355.304134 
L 122.568241 354.021031 
L 122.944446 356.862122 
L 123.132493 360.482247 
L 123.320501 360.482232 
L 123.508472 359.611553 
L 124.072158 351.225621 
L 124.259978 351.225603 
L 124.635505 357.732644 
L 124.823213 362.223428 
L 125.010882 362.223407 
L 125.573665 358.259539 
L 125.761184 360.023776 
L 125.948666 360.023769 
L 126.323517 358.190778 
L 126.698217 353.402103 
L 126.885511 353.402097 
L 127.259986 357.113867 
L 127.447168 357.113855 
L 127.821419 351.935648 
L 128.008488 351.866891 
L 128.19552 351.20241 
L 128.382514 351.866835 
L 129.130118 362.841678 
L 129.690428 366.736704 
L 129.877123 366.7367 
L 130.063781 363.735194 
L 130.250402 356.288709 
L 130.623532 353.172657 
L 130.810041 353.172663 
L 130.996513 355.532631 
L 131.182947 355.532631 
L 131.369345 350.537748 
L 131.555705 350.102406 
L 131.742027 350.537725 
L 131.928313 353.058056 
L 132.114561 353.607926 
L 132.300773 355.53253 
L 132.486947 358.786046 
L 132.673084 359.129702 
L 132.859183 359.129675 
L 133.045246 357.434141 
L 133.231272 357.06752 
L 133.603211 355.715645 
L 133.975003 355.715591 
L 134.160843 356.402931 
L 134.346646 356.402901 
L 134.532412 356.975679 
L 134.718141 356.975648 
L 134.903832 354.271967 
L 135.089487 354.271934 
L 135.275105 357.38797 
L 135.460686 357.754532 
L 135.64623 357.754497 
L 135.831737 357.067094 
L 136.017207 354.98204 
L 136.20264 354.180074 
L 136.388036 354.981965 
L 136.573395 354.638239 
L 136.758718 355.233915 
L 136.944003 358.808189 
L 137.314463 360.045368 
L 137.499638 363.184315 
L 137.684776 364.009125 
L 137.869877 364.0091 
L 138.054941 360.847185 
L 138.239968 360.847171 
L 138.424959 359.816107 
L 138.609912 360.068134 
L 138.794829 359.816094 
L 139.53413 351.544741 
L 139.718863 351.178132 
L 139.903559 351.178114 
L 140.088219 353.079811 
L 140.272842 353.400556 
L 140.641978 354.866877 
L 140.826491 356.883122 
L 141.010967 357.22677 
L 141.195407 358.120313 
L 141.37981 358.120278 
L 141.748506 353.629398 
L 141.932799 351.24648 
L 142.117055 350.834014 
L 142.301275 350.833964 
L 142.485459 351.452539 
L 142.669606 354.453988 
L 143.03779 354.545504 
L 143.221827 355.347365 
L 143.405828 355.003609 
L 143.589792 355.003535 
L 143.773719 353.949493 
L 143.957611 353.949414 
L 144.141465 352.643331 
L 144.325284 353.055666 
L 144.509065 351.085118 
L 145.060192 351.016074 
L 145.243828 354.338243 
L 145.427428 354.338126 
L 145.610991 353.627725 
L 145.794518 353.627602 
L 145.978009 356.858109 
L 146.161463 356.857982 
L 146.344881 355.643504 
L 146.711608 355.620333 
L 146.894917 355.849325 
L 147.078189 355.849192 
L 147.261425 357.567481 
L 147.444625 354.932433 
L 147.627789 355.619667 
L 147.810917 354.840512 
L 147.994008 352.938653 
L 148.177063 352.93851 
L 148.360082 352.594678 
L 148.543064 353.488106 
L 148.726011 353.648337 
L 148.908921 354.129337 
L 149.091795 354.129175 
L 149.274632 352.548062 
L 149.457434 349.82133 
L 149.6402 349.821154 
L 150.188279 353.280345 
L 150.3709 353.280149 
L 150.553485 351.080367 
L 150.736034 351.080161 
L 150.918547 350.736264 
L 151.101023 348.765588 
L 151.283464 348.765361 
L 151.465868 349.91074 
L 151.648237 352.132991 
L 151.830569 352.132743 
L 152.012866 352.522 
L 152.195126 355.225395 
L 152.377351 355.614645 
L 152.559539 355.224876 
L 152.741692 350.687979 
L 152.923808 349.29006 
L 153.105889 349.289784 
L 153.287934 349.541536 
L 153.469942 353.138476 
L 153.651915 349.54095 
L 153.833852 352.129737 
L 154.197618 347.523742 
L 154.379448 347.523417 
L 154.742999 354.785941 
L 154.92472 354.785598 
L 155.106406 354.510306 
L 155.288056 353.685116 
L 155.46967 353.684765 
L 155.651249 354.692552 
L 155.832792 354.692195 
L 156.014298 351.73615 
L 156.19577 351.048417 
L 156.377205 348.115272 
L 156.558605 347.748296 
L 156.739968 346.418994 
L 157.102589 346.418186 
L 157.465067 342.934663 
L 158.008516 308.083637 
L 158.732615 233.1348 
L 158.913551 233.133854 
L 159.094451 234.209662 
L 159.817697 272.742716 
L 160.179106 301.838061 
L 160.540373 333.591012 
L 160.720953 339.271471 
L 160.901498 340.254892 
L 161.44292 348.978962 
L 161.623323 354.72809 
L 161.80369 354.726228 
L 161.984022 354.541066 
L 162.34458 351.123396 
L 162.524806 352.817029 
L 162.885151 352.813264 
L 163.065271 352.376041 
L 163.245356 352.374147 
L 163.425404 355.236286 
L 163.605418 355.234385 
L 163.785396 355.392869 
L 163.965339 355.390965 
L 164.145247 355.686919 
L 164.504957 355.683104 
L 164.684758 354.421018 
L 164.864525 354.923177 
L 165.044256 354.30263 
L 165.223952 354.919345 
L 165.762829 355.326003 
L 166.121904 355.390889 
L 166.301389 354.816154 
L 166.480839 355.387031 
L 166.660253 355.362187 
L 167.198286 358.678668 
L 167.37756 358.676736 
L 167.556799 352.969643 
L 167.736002 351.822093 
L 167.915171 351.820153 
L 168.094305 352.665963 
L 168.273403 352.664013 
L 168.452466 351.17276 
L 168.631495 351.1708 
L 168.810488 353.803748 
L 169.16837 353.845631 
L 169.347258 352.446006 
L 169.526111 352.444026 
L 169.70493 353.839691 
L 169.883713 353.837703 
L 170.062461 354.271046 
L 170.241175 354.085754 
L 170.419853 354.267055 
L 170.598497 354.081757 
L 170.955679 345.714754 
L 171.134218 345.712732 
L 171.312722 349.766175 
L 171.491191 350.268204 
L 172.561272 350.187076 
L 172.739498 347.893757 
L 172.917688 347.891659 
L 173.45205 358.860315 
L 173.630101 358.858203 
L 173.808117 358.397846 
L 173.986099 354.981804 
L 174.164046 357.064712 
L 174.341958 352.251018 
L 174.519836 355.777396 
L 174.697679 355.202471 
L 174.875487 355.773159 
L 175.05326 355.312793 
L 175.230999 355.677267 
L 175.408703 355.675144 
L 175.586372 356.749897 
L 175.764007 356.747771 
L 176.119173 355.116746 
L 176.296704 355.114617 
L 176.651662 359.440781 
L 176.829089 359.438654 
L 177.006482 357.534809 
L 177.18384 357.532685 
L 177.361163 358.951123 
L 177.538452 362.844092 
L 177.715707 362.841976 
L 177.892927 358.280319 
L 178.070112 358.278209 
L 178.247263 359.009295 
L 178.424379 359.098839 
L 178.601461 359.005086 
L 178.778509 358.613475 
L 178.955522 358.542638 
L 179.486354 357.482379 
L 179.663229 357.480282 
L 179.84007 360.937943 
L 180.193649 362.835485 
L 180.370387 362.902141 
L 180.54709 366.03905 
L 180.723759 366.036984 
L 180.900394 363.216714 
L 181.076994 362.664767 
L 181.25356 358.85928 
L 181.430091 358.261516 
L 181.606589 358.855193 
L 181.783052 360.571575 
L 182.135875 360.567504 
L 182.488561 359.142883 
L 182.664853 359.140857 
L 183.017333 361.015622 
L 183.193523 361.013606 
L 183.545798 354.892 
L 183.721884 354.889986 
L 184.073955 361.232665 
L 184.249939 361.230657 
L 184.425888 361.618161 
L 184.777685 359.345848 
L 184.953533 359.160555 
L 185.129346 357.738001 
L 185.305125 357.73601 
L 185.48087 358.879634 
L 185.656581 358.877645 
L 186.007901 358.277953 
L 186.18351 358.275969 
L 186.359085 357.197108 
L 186.534625 358.478214 
L 186.710132 365.32701 
L 186.885605 365.325037 
L 187.411819 357.231112 
L 187.587156 360.070278 
L 187.762459 361.076463 
L 187.937727 360.066369 
L 188.288163 355.66331 
L 188.638464 358.867131 
L 188.988628 358.863237 
L 189.16366 360.556802 
L 189.338657 360.554861 
L 189.688551 359.222076 
L 189.863447 358.028704 
L 190.038309 358.026772 
L 190.387932 360.680741 
L 190.562693 360.678817 
L 190.73742 359.095948 
L 190.912113 358.864906 
L 191.086773 359.092113 
L 191.261398 361.518902 
L 191.43599 361.516992 
L 191.610548 360.46112 
L 191.785073 357.366058 
L 191.959564 357.364156 
L 192.308444 360.064006 
L 192.831512 364.25128 
L 193.0058 364.822208 
L 193.180055 364.820336 
L 193.354276 362.298119 
L 193.528464 362.29626 
L 193.702618 362.913039 
L 193.876738 364.446315 
L 194.050825 364.902721 
L 194.398898 364.280431 
L 194.572884 363.980754 
L 194.746836 363.978943 
L 194.920755 362.029593 
L 195.094641 362.027794 
L 195.268492 361.81979 
L 195.442311 363.559335 
L 195.616095 363.03057 
L 195.789847 365.801181 
L 195.963564 364.76836 
L 196.484517 367.375109 
L 196.658101 364.394779 
L 196.831651 364.393055 
L 197.005168 366.728394 
L 197.178651 366.726687 
L 197.352101 364.067164 
L 197.525518 356.344029 
L 197.698901 356.021567 
L 197.872251 356.019875 
L 198.218851 358.216071 
L 198.3921 358.214381 
L 198.565317 358.464726 
L 198.91165 358.530088 
L 199.084766 356.832893 
L 199.257849 357.174892 
L 199.430899 357.035732 
L 199.603915 357.171521 
L 199.776898 357.032362 
L 199.949848 353.525095 
L 200.122765 353.523406 
L 200.295648 353.773749 
L 200.468498 357.506758 
L 200.641315 365.180683 
L 200.814099 365.178995 
L 201.33225 356.444386 
L 201.504901 356.442714 
L 202.195173 352.495095 
L 202.367658 352.218462 
L 202.712528 348.319983 
L 202.884914 348.043329 
L 203.057266 346.598139 
L 203.229586 346.183992 
L 203.401872 346.182255 
L 203.574125 343.91219 
L 203.918532 347.482977 
L 204.090686 347.481197 
L 204.60695 330.70397 
L 204.778972 329.94601 
L 204.950961 328.592303 
L 205.46673 307.163459 
L 205.638587 305.145138 
L 205.810411 304.707713 
L 205.982202 301.612409 
L 206.153961 301.404 
L 206.325686 301.401746 
L 206.497378 302.499226 
L 207.012258 310.969532 
L 207.183819 319.1238 
L 207.355347 321.710342 
L 207.526842 330.024923 
L 207.698304 330.29726 
L 207.869733 331.16529 
L 208.383824 331.111399 
L 208.726388 332.961789 
L 208.89762 333.921315 
L 209.239987 333.915667 
L 209.411121 336.364424 
L 209.582223 336.361544 
L 209.753291 333.700817 
L 209.924327 333.697893 
L 210.095331 334.13028 
L 210.266301 335.158363 
L 210.437239 334.124318 
L 210.779017 334.187003 
L 211.120664 335.715984 
L 211.46218 340.842113 
L 211.632889 340.930624 
L 211.803566 340.83582 
L 212.144821 334.803525 
L 212.3154 333.952558 
L 212.485946 331.772654 
L 212.65646 331.219498 
L 212.826941 328.30635 
L 212.99739 328.303034 
L 213.50854 333.837701 
L 213.678858 334.338354 
L 213.849144 334.334913 
L 214.189618 328.531148 
L 214.359807 328.52763 
L 214.870177 338.437946 
L 215.210261 338.430709 
L 215.380255 339.366467 
L 215.890041 339.286684 
L 216.229737 345.350993 
L 216.399536 350.296305 
L 216.569303 350.292554 
L 216.739038 350.51792 
L 216.90874 350.514155 
L 217.248047 351.583486 
L 217.417652 351.190195 
L 217.587225 348.299457 
L 217.926274 348.200206 
L 218.09575 346.432144 
L 218.265194 348.398777 
L 218.434606 348.394943 
L 218.773332 352.030308 
L 218.942647 352.026454 
L 219.111929 352.36628 
L 219.281179 353.737155 
L 219.450398 357.147221 
L 219.619583 357.143355 
L 219.788737 357.55191 
L 219.957859 356.837763 
L 220.126948 355.298773 
L 220.296005 352.614166 
L 220.46503 352.610294 
L 220.634023 357.899158 
L 220.802984 358.97216 
L 220.971913 358.968286 
L 221.309674 355.890294 
L 221.478506 355.886421 
L 221.816074 356.382742 
L 221.98481 356.241392 
L 222.153514 354.450356 
L 222.322186 354.446477 
L 222.490826 354.923753 
L 222.659434 354.919869 
L 222.82801 354.480649 
L 222.996554 354.408023 
L 223.165066 354.472869 
L 223.333546 357.401749 
L 223.501994 357.397856 
L 223.670409 358.608314 
L 223.838793 356.794351 
L 224.175465 356.786567 
L 224.343753 357.011797 
L 224.680234 357.004012 
L 224.848426 357.847875 
L 225.016586 360.433073 
L 225.184715 360.543746 
L 225.520876 363.377107 
L 225.688909 363.44197 
L 225.85691 365.935544 
L 226.192817 366.019487 
L 226.360722 362.395504 
L 226.528596 361.841775 
L 226.696437 361.837945 
L 227.032026 358.301805 
L 227.199772 358.297984 
L 227.53517 362.941546 
L 227.87044 365.316813 
L 228.038028 366.596107 
L 228.205584 370.739448 
L 228.373108 370.735677 
L 228.5406 365.576652 
L 228.708061 364.175253 
L 228.87549 358.260138 
L 229.042887 357.798151 
L 229.210253 357.794411 
L 229.544889 364.752276 
L 230.046607 364.649468 
L 230.213782 368.059697 
L 230.380927 368.056003 
L 230.548039 363.744809 
L 230.882169 361.423321 
L 231.049187 361.419655 
L 231.216173 360.98066 
L 231.383128 359.350229 
L 231.550051 359.346574 
L 231.883803 364.150856 
L 232.050631 364.147215 
L 232.217428 363.364563 
L 232.384194 363.360935 
L 232.71763 367.111318 
L 233.05094 369.166231 
L 233.217548 369.323038 
L 233.384125 369.319471 
L 233.55067 369.040969 
L 233.717184 365.325634 
L 233.883666 365.3221 
L 234.050117 366.143416 
L 234.216536 368.476954 
L 234.382924 369.114993 
L 234.549281 369.111499 
L 234.715606 366.473103 
L 234.8819 366.469631 
L 235.048163 367.657608 
L 235.214394 367.654156 
L 235.546762 362.537839 
L 235.712899 362.534411 
L 235.879005 367.869554 
L 236.045079 369.33253 
L 236.211123 369.329131 
L 236.377135 364.743284 
L 236.543115 364.235834 
L 236.709064 364.736533 
L 236.874982 366.222468 
L 237.040869 366.562797 
L 237.206725 366.559451 
L 237.538342 371.089426 
L 237.704104 371.086117 
L 237.869835 366.179589 
L 238.035534 365.466021 
L 238.201202 361.796774 
L 238.532445 361.790232 
L 238.69802 361.672406 
L 238.863563 360.11111 
L 239.029075 361.66589 
L 239.194557 366.015975 
L 239.360007 367.318733 
L 239.525426 370.454486 
L 239.690813 370.451266 
L 239.85617 370.287675 
L 240.021496 368.77227 
L 240.18679 368.769089 
L 240.517286 369.42722 
L 240.682487 369.424075 
L 241.012797 365.980976 
L 241.177905 365.977863 
L 241.342982 368.013953 
L 241.508028 368.01086 
L 241.673043 365.372863 
L 241.838027 365.18649 
L 242.00298 365.183424 
L 242.167902 366.669666 
L 242.332793 366.666618 
L 242.497653 366.411544 
L 242.662482 366.408515 
L 242.992048 374.67383 
L 243.156784 374.670843 
L 243.486164 371.961268 
L 243.81542 363.409111 
L 243.980002 363.406188 
L 244.144553 364.365587 
L 244.473562 364.382687 
L 244.802447 366.805608 
L 244.966844 368.956487 
L 245.13121 368.953622 
L 245.295545 368.767471 
L 245.624122 368.143167 
L 245.788364 365.757469 
L 245.952576 366.923185 
L 246.116757 364.904102 
L 246.280907 366.917592 
L 246.609115 367.026598 
L 246.773173 367.023835 
L 247.429097 372.970093 
L 247.593002 372.280024 
L 247.756875 372.277339 
L 247.920718 371.839336 
L 248.08453 366.750151 
L 248.248312 366.472559 
L 248.412063 366.744871 
L 248.575783 366.719333 
L 248.739473 368.206016 
L 249.06676 368.246642 
L 249.230358 369.802096 
L 249.393925 369.799526 
L 249.884443 367.042414 
L 250.047888 365.756801 
L 250.211302 365.754286 
L 250.374685 365.889254 
L 250.538039 366.757423 
L 250.864653 365.538104 
L 251.027915 365.306511 
L 251.191146 365.304048 
L 251.354346 367.913596 
L 251.517516 368.529785 
L 251.680656 370.978969 
L 252.006843 367.651862 
L 252.169891 366.778799 
L 252.332909 366.776413 
L 252.658853 370.575114 
L 252.821779 370.84771 
L 253.147541 370.293154 
L 253.310376 369.145229 
L 253.473181 369.647001 
L 253.635955 369.484329 
L 253.798699 369.642442 
L 253.961413 369.479795 
L 254.286749 366.19885 
L 254.449371 366.196622 
L 254.774525 368.185562 
L 254.937057 369.214417 
L 255.099558 369.21223 
L 255.262029 366.300194 
L 255.74926 366.385376 
L 256.073929 364.112792 
L 256.236219 364.11067 
L 256.398478 364.314765 
L 256.560707 365.274974 
L 256.885074 367.859875 
L 257.047212 368.751376 
L 257.20932 368.749309 
L 257.371398 365.677006 
L 257.533445 365.125064 
L 257.85745 362.623553 
L 258.181334 365.002386 
L 258.666934 371.755511 
L 258.828741 371.753535 
L 259.313979 367.783862 
L 259.637322 370.666975 
L 259.798948 370.665076 
L 259.960543 370.319506 
L 260.122109 368.919984 
L 260.445151 368.824627 
L 260.606627 370.472476 
L 260.768072 370.470653 
L 260.929488 370.950002 
L 261.090874 370.948206 
L 261.25223 370.442354 
L 261.413555 366.224723 
L 261.574851 366.222963 
L 261.736117 370.024655 
L 261.897353 370.274953 
L 262.219735 370.271519 
L 262.380881 372.469402 
L 262.703083 372.420229 
L 263.186162 365.175023 
L 263.347129 367.075122 
L 263.508066 367.073509 
L 263.668973 369.821383 
L 263.82985 367.070318 
L 263.990697 369.818214 
L 264.151514 370.297806 
L 264.312302 371.854289 
L 264.633787 371.897051 
L 264.794486 371.551858 
L 264.955154 371.550364 
L 265.276401 374.251071 
L 265.43698 372.783237 
L 265.597529 368.703417 
L 265.758049 368.243751 
L 265.918538 368.242343 
L 266.239429 371.126512 
L 266.399829 369.933702 
L 266.5602 370.825924 
L 266.720541 369.426931 
L 266.880852 370.82325 
L 267.361608 366.191049 
L 267.842097 371.915304 
L 268.002201 376.42778 
L 268.162275 377.068097 
L 268.322319 376.425346 
L 268.642319 363.912867 
L 268.802275 363.911697 
L 269.122098 371.035109 
L 269.281964 371.033972 
L 269.441802 370.368392 
L 269.60161 370.206896 
L 269.921136 370.204716 
L 270.400205 369.399613 
L 270.719437 365.639941 
L 270.879008 365.638928 
L 271.198063 373.220902 
L 271.357546 376.542211 
L 271.517 376.541255 
L 271.835819 374.24817 
L 272.313827 375.91812 
L 272.473104 369.364357 
L 272.632352 369.042751 
L 272.79157 369.04193 
L 272.950759 371.676035 
L 273.109918 371.675241 
L 273.269048 368.054318 
L 273.428149 368.053549 
L 273.587221 368.281914 
L 273.746263 368.80815 
L 273.905276 370.342539 
L 274.223213 370.34111 
L 274.382138 372.998241 
L 274.541033 372.997562 
L 274.699899 372.378267 
L 274.858736 367.840984 
L 275.017544 367.840347 
L 275.335071 372.83399 
L 275.493791 374.139394 
L 275.652482 374.138814 
L 275.811143 371.549162 
L 275.969775 371.502789 
L 276.128378 370.906536 
L 276.445496 370.905511 
L 276.604011 371.134142 
L 276.762497 369.392329 
L 277.079382 372.1638 
L 277.237781 372.163364 
L 277.39615 368.657361 
L 277.712801 367.167253 
L 277.871083 367.166864 
L 278.029336 370.69498 
L 278.18756 371.198685 
L 278.345754 371.198334 
L 278.50392 370.854313 
L 278.662056 370.85399 
L 278.820163 371.014067 
L 278.978241 373.167528 
L 279.136291 373.167249 
L 279.294311 372.20467 
L 279.452302 370.486 
L 279.610264 367.43843 
L 279.768197 367.438206 
L 279.9261 367.002659 
L 280.241821 368.331176 
L 280.557426 371.744759 
L 280.715185 373.233905 
L 280.872914 373.371242 
L 281.030615 373.233648 
L 281.34593 369.750783 
L 281.661129 367.505233 
L 281.976213 367.505131 
L 282.29118 371.720936 
L 282.448621 370.987735 
L 282.606032 371.491812 
L 282.763415 371.102324 
L 283.23539 371.056647 
L 283.392657 369.452864 
L 283.549895 369.452953 
L 283.707105 372.523303 
L 283.864285 372.890018 
L 284.021437 372.523554 
L 284.17856 372.546615 
L 284.335655 370.690883 
L 284.49272 371.08057 
L 284.649757 370.691253 
L 284.806764 370.920582 
L 284.963744 370.920802 
L 285.120694 372.06665 
L 285.434508 376.924571 
L 285.591372 374.060819 
L 285.748208 374.267332 
L 286.061792 372.709951 
L 286.688616 372.665627 
L 286.845251 374.888534 
L 287.001856 372.666473 
L 287.158433 372.918956 
L 287.314982 371.544682 
L 287.471501 371.201475 
L 287.627992 371.201967 
L 287.784455 376.289004 
L 287.940889 376.28953 
L 288.25367 365.70515 
L 288.410018 365.705717 
L 288.566338 371.044858 
L 288.722629 371.045447 
L 288.878891 369.854611 
L 289.191329 369.764207 
L 289.347506 372.331026 
L 289.659773 368.574735 
L 289.815864 367.131942 
L 289.971927 363.352104 
L 290.12796 363.352801 
L 290.283966 364.49912 
L 290.595891 370.870173 
L 290.751811 370.87091 
L 291.063565 367.435579 
L 291.219399 367.230142 
L 291.530983 367.231719 
L 291.686732 364.597608 
L 291.842453 367.554106 
L 292.153809 362.6067 
L 292.309444 361.668131 
L 292.465051 362.608375 
L 292.62063 367.054206 
L 292.77618 367.055061 
L 293.24266 363.643749 
L 293.398097 363.644637 
L 293.553506 363.370584 
L 293.708886 364.837872 
L 293.864237 365.205378 
L 294.019561 365.206295 
L 294.950907 311.734357 
L 295.26113 258.625161 
L 296.036192 66.2777 
L 296.191119 63.275703 
L 296.346019 63.274924 
L 296.50089 72.713718 
L 296.655733 89.415427 
L 297.120093 192.400648 
L 297.738846 309.518722 
L 298.048054 335.771028 
L 298.357149 343.830873 
L 298.511654 348.960564 
L 298.666132 349.461962 
L 298.820581 349.482195 
L 298.975002 351.449965 
L 299.438097 346.92814 
L 299.592406 348.552194 
L 300.055165 341.807757 
L 300.209361 341.346742 
L 300.36353 339.87757 
L 300.517671 334.650764 
L 300.671784 334.647939 
L 300.825869 337.394568 
L 300.979926 342.226196 
L 301.133954 342.314964 
L 301.90368 357.674557 
L 302.211374 364.084166 
L 302.36518 364.081258 
L 302.826428 367.532339 
L 302.980122 367.529467 
L 303.441036 366.169085 
L 303.594619 367.243129 
L 303.9017 371.407534 
L 304.055199 371.404738 
L 304.20867 371.104096 
L 304.362113 370.459785 
L 304.515529 370.457031 
L 304.668917 371.095835 
L 304.822276 371.093108 
L 304.975609 370.150991 
L 305.128913 370.148292 
L 305.588659 371.537925 
L 305.895018 369.860053 
L 306.048156 369.949085 
L 306.201266 368.800866 
L 306.354349 369.943888 
L 306.507403 372.163801 
L 306.66043 372.413272 
L 306.966401 372.408188 
L 307.119345 372.061985 
L 307.272262 370.363971 
L 307.42515 370.361481 
L 307.578011 376.109991 
L 307.730845 376.107533 
L 307.88365 375.303163 
L 308.036428 375.140357 
L 308.189179 375.29834 
L 308.341902 375.13557 
L 308.647265 370.754604 
L 308.799905 370.271109 
L 308.952517 370.749944 
L 309.105102 368.960475 
L 309.257659 370.699512 
L 309.410189 370.697228 
L 309.562691 373.879767 
L 309.867613 374.929243 
L 310.172425 374.856088 
L 310.324789 370.798429 
L 310.477126 370.360926 
L 310.781718 370.356629 
L 310.933972 371.637588 
L 311.086199 371.635474 
L 311.390571 367.804933 
L 311.542716 367.802856 
L 311.694833 369.519212 
L 311.846923 373.687197 
L 312.15102 373.660227 
L 312.455007 370.792198 
L 312.60696 369.140538 
L 312.910783 371.519505 
L 313.062654 376.741575 
L 313.366312 378.181242 
L 313.518101 378.179369 
L 313.669862 376.642393 
L 313.973302 372.19376 
L 314.276632 372.190175 
L 314.428257 370.699105 
L 314.579854 370.697349 
L 314.731424 373.972065 
L 314.882966 373.97034 
L 315.034481 371.631576 
L 315.185969 371.629882 
L 315.33743 375.019223 
L 315.488863 375.682018 
L 315.640269 375.015918 
L 315.943 372.07991 
L 316.245621 372.076736 
L 316.396891 371.800225 
L 316.548134 368.728427 
L 316.699349 368.726889 
L 316.850537 370.145926 
L 317.001699 374.131153 
L 317.152832 374.129657 
L 317.455019 370.369098 
L 317.606071 370.115612 
L 317.757096 370.114175 
L 318.360926 377.005175 
L 318.511815 377.370418 
L 318.813513 377.36777 
L 319.265857 376.08086 
L 319.567284 370.94605 
L 319.717957 370.944843 
L 319.868602 371.768493 
L 320.019221 375.158336 
L 320.169813 375.157176 
L 320.320378 374.079156 
L 320.621426 370.227656 
L 320.77191 370.226559 
L 321.072796 372.744759 
L 321.223199 376.524235 
L 321.373574 377.416781 
L 321.523923 377.415768 
L 322.125048 371.660919 
L 322.275262 373.011821 
L 322.425449 370.902981 
L 322.575609 373.010018 
L 322.725743 370.007628 
L 323.025928 375.367392 
L 323.175981 375.366562 
L 323.326006 373.647327 
L 323.476005 373.646532 
L 323.775922 376.096609 
L 323.92584 376.897797 
L 324.075731 376.897076 
L 324.525244 373.091583 
L 324.675028 373.090933 
L 324.824785 374.510861 
L 324.974516 374.808105 
L 325.273896 374.806925 
L 325.423546 375.447906 
L 325.722765 375.538484 
L 326.021878 372.742185 
L 326.171394 373.085395 
L 326.320883 373.084936 
L 326.619782 377.18537 
L 326.769191 377.184966 
L 327.217258 373.861584 
L 327.366561 375.029779 
L 327.515837 378.076801 
L 327.665086 378.076508 
L 327.963504 373.95177 
L 328.261815 373.951315 
L 328.410931 371.178725 
L 328.56002 371.178537 
L 328.858118 374.248453 
L 329.007127 374.454523 
L 329.15611 374.454399 
L 329.305066 378.074436 
L 329.602898 378.028462 
L 329.900624 373.079337 
L 330.049448 373.079327 
L 330.198244 371.910807 
L 330.347014 368.015737 
L 330.495758 368.015769 
L 330.644475 372.117114 
L 330.793165 372.552506 
L 330.941829 372.55258 
L 331.090466 373.354599 
L 331.239077 376.608251 
L 331.387662 376.929149 
L 331.53622 376.608521 
L 331.684751 377.525178 
L 331.833256 376.288099 
L 331.981734 371.385071 
L 332.130186 370.400061 
L 332.278612 370.400293 
L 332.427011 374.410191 
L 332.575384 374.410453 
L 332.72373 372.004942 
L 333.020343 371.134879 
L 333.16861 371.135203 
L 333.31685 373.449682 
L 333.465065 373.88537 
L 333.613252 373.885741 
L 333.761414 375.535814 
L 333.909549 375.53622 
L 334.20574 377.118037 
L 334.353795 377.118501 
L 334.501825 377.829266 
L 334.649828 376.844542 
L 334.945755 374.348169 
L 335.09368 373.409324 
L 335.241578 373.4099 
L 335.389449 378.817795 
L 335.537294 378.818409 
L 335.980672 370.709414 
L 336.276126 374.857919 
L 336.423814 375.041933 
L 336.571475 375.455087 
L 336.71911 379.511316 
L 336.866719 379.51209 
L 337.014302 377.313306 
L 337.161858 376.787139 
L 337.456892 371.175315 
L 337.60437 370.328426 
L 337.751822 370.329305 
L 338.194019 377.824356 
L 338.341366 377.825304 
L 338.488687 371.754514 
L 338.78325 371.641935 
L 338.930492 373.109336 
L 339.077708 373.156189 
L 339.960456 377.997232 
L 340.10749 376.87569 
L 340.254497 376.876871 
L 340.401478 377.15302 
L 340.548433 377.154241 
L 340.695362 371.152459 
L 340.842265 371.153714 
L 341.135993 374.066131 
L 341.429617 376.0163 
L 341.57639 376.934132 
L 342.016552 374.761599 
L 342.309864 376.322483 
L 342.456481 379.829517 
L 342.603072 379.830992 
L 342.749637 379.030559 
L 343.042689 373.030595 
L 343.189176 373.03215 
L 343.335637 378.853444 
L 343.482073 379.748616 
L 343.628482 379.750231 
L 343.774866 379.087412 
L 344.067555 374.69159 
L 344.21386 375.311919 
L 344.36014 372.884931 
L 344.506394 372.886662 
L 344.652622 366.51879 
L 344.798825 366.520546 
L 345.091152 371.564797 
L 345.237276 372.047749 
L 345.383375 372.049557 
L 345.529448 369.576853 
L 345.675495 361.71977 
L 345.821517 361.721611 
L 346.551237 368.7879 
L 346.697103 368.789789 
L 347.134548 372.484415 
L 347.280312 372.028114 
L 347.571762 375.102299 
L 347.863109 375.220869 
L 348.008744 373.412828 
L 348.154353 373.414876 
L 348.299937 373.691887 
L 348.736533 373.652354 
L 348.882014 374.135643 
L 349.172899 376.477012 
L 349.318302 375.929302 
L 349.75436 377.975172 
L 350.044937 377.72769 
L 350.190187 375.874101 
L 350.335411 375.876428 
L 350.48061 377.207687 
L 350.625783 377.210053 
L 350.770931 377.097877 
L 350.916053 374.144596 
L 351.06115 374.147019 
L 351.64128 375.760747 
L 351.931192 378.125759 
L 352.07611 378.380348 
L 352.221002 378.382924 
L 352.365868 374.788289 
L 352.51071 374.011886 
L 352.800315 374.06299 
L 352.94508 376.815131 
L 353.089819 375.740938 
L 353.379221 375.746364 
L 353.523884 376.001141 
L 353.668521 376.485059 
L 353.813133 377.656366 
L 353.95772 380.729414 
L 354.102281 380.732238 
L 354.246816 380.116454 
L 354.535811 378.266321 
L 354.680271 377.146531 
L 354.824705 377.149465 
L 354.969113 376.717085 
L 355.113497 371.221106 
L 355.257854 371.224094 
L 355.402187 372.578921 
L 355.546494 372.581938 
L 355.690776 370.843636 
L 355.979263 370.849743 
L 356.123469 371.402712 
L 356.267649 371.405801 
L 356.700038 367.405495 
L 356.844117 365.277789 
L 356.988171 365.005988 
L 357.276203 365.493463 
L 357.420181 366.940109 
L 357.708061 366.94648 
L 357.851963 367.705787 
L 357.99584 370.61886 
L 358.283518 370.625323 
L 358.42732 368.08531 
L 358.571096 368.088573 
L 358.858572 369.034537 
L 359.002272 369.037835 
L 359.145947 368.743285 
L 359.433222 362.426141 
L 359.576822 362.429475 
L 359.720396 364.976079 
L 359.863946 364.979426 
L 360.150969 360.747366 
L 360.294442 360.200835 
L 360.437891 358.577428 
L 360.581315 358.787008 
L 360.724713 358.790378 
L 361.011435 365.922854 
L 361.154758 365.926242 
L 361.298056 364.257041 
L 361.441329 358.944792 
L 361.584576 358.925285 
L 361.727799 357.943464 
L 362.014169 354.994594 
L 362.157317 355.570807 
L 362.300439 359.308915 
L 362.443537 359.312321 
L 362.586609 357.391097 
L 362.872679 357.329177 
L 363.015676 362.05252 
L 363.158649 362.30797 
L 363.301596 362.059354 
L 363.444518 358.534284 
L 363.587416 358.53771 
L 363.873135 362.210537 
L 364.015958 362.213973 
L 364.444275 349.439231 
L 364.586998 349.144801 
L 364.872368 348.235144 
L 365.015016 345.145388 
L 365.157638 338.160529 
L 365.442809 337.159116 
L 365.585357 333.656868 
L 366.012852 289.789626 
L 366.297725 250.569997 
L 367.151745 45.405204 
L 367.293995 33.973515 
L 367.43622 33.974739 
L 367.57842 36.152309 
L 367.720595 46.990406 
L 368.004871 99.391088 
L 368.4311 206.939987 
L 368.857106 270.977055 
L 369.282889 316.202351 
L 369.850253 344.470773 
L 370.133787 344.490897 
L 370.275517 343.641729 
L 370.417223 343.640302 
L 370.558903 344.692828 
L 370.700559 344.691376 
L 370.842191 344.117104 
L 370.983797 340.243448 
L 371.266937 340.240443 
L 371.408469 340.445126 
L 371.549977 339.068844 
L 371.691461 339.067281 
L 371.83292 336.889033 
L 371.974354 336.56666 
L 372.257149 332.210058 
L 372.681156 329.2722 
L 373.387344 319.112984 
L 373.669648 322.545951 
L 373.810762 322.543959 
L 374.23396 323.45427 
L 374.374977 322.833509 
L 374.515969 323.014645 
L 374.656937 323.012449 
L 374.938799 328.209049 
L 375.079694 328.458794 
L 375.643027 341.807263 
L 375.783799 341.873608 
L 376.06527 346.24503 
L 376.205969 346.242599 
L 376.487294 341.517769 
L 376.627919 341.515298 
L 376.909098 350.171164 
L 377.04965 350.260309 
L 377.752047 354.71561 
L 377.892454 359.158068 
L 378.032836 359.155541 
L 378.313527 355.644911 
L 378.453836 355.642386 
L 378.594121 356.739649 
L 378.734381 359.715721 
L 378.874617 359.804845 
L 379.155017 359.75398 
L 379.29518 359.407779 
L 379.435319 359.405265 
L 379.575434 360.57128 
L 379.995633 367.689503 
L 380.13565 367.916144 
L 380.275644 367.913673 
L 380.415613 369.011003 
L 380.555558 368.641958 
L 380.695479 369.006118 
L 380.835376 368.637097 
L 380.975248 363.571066 
L 381.115097 363.568659 
L 381.254921 364.87226 
L 381.39472 369.910574 
L 381.534496 369.908195 
L 381.953678 356.611979 
L 382.093357 356.609622 
L 382.233012 359.929548 
L 382.372643 360.225054 
L 383.070435 370.753033 
L 383.209921 366.672344 
L 383.349383 365.982684 
L 383.488821 365.980402 
L 383.628234 369.323324 
L 384.046331 369.270754 
L 384.324942 370.297373 
L 384.464212 370.570122 
L 384.881875 369.784591 
L 385.160198 369.780313 
L 385.438424 368.03475 
L 385.577502 369.017882 
L 385.994589 366.239269 
L 386.133571 369.99483 
L 386.272528 370.51977 
L 386.411461 370.334442 
L 386.550371 370.813584 
L 386.689256 374.844146 
L 386.828118 374.842161 
L 386.966955 374.152825 
L 387.383325 370.366493 
L 387.522067 365.782128 
L 387.660785 365.780231 
L 387.799479 366.465711 
L 388.076795 375.351942 
L 388.215418 380.505365 
L 388.354016 380.503544 
L 388.631142 374.107438 
L 388.769669 374.105677 
L 388.908172 373.485301 
L 389.046651 372.337959 
L 389.323538 366.629384 
L 389.461946 366.627693 
L 389.60033 369.421312 
L 389.73869 369.923714 
L 390.015339 373.03649 
L 390.291893 373.033257 
L 390.430134 374.062717 
L 390.568352 377.245951 
L 390.706545 377.244396 
L 390.982861 374.675167 
L 391.120984 374.673668 
L 391.259082 375.726152 
L 391.397157 375.72469 
L 391.535209 375.173351 
L 391.81124 375.124693 
L 392.225109 381.879716 
L 392.363018 382.153341 
L 392.500903 381.877096 
L 392.638764 380.363611 
L 392.776602 380.362362 
L 393.052207 379.672564 
L 393.327717 379.670226 
L 393.603132 378.20159 
L 393.740805 374.122108 
L 393.878453 374.121032 
L 394.15368 378.197324 
L 394.291258 378.631639 
L 394.428812 378.195309 
L 394.566342 377.025807 
L 394.70385 377.024851 
L 394.841333 377.780022 
L 394.978793 379.612091 
L 395.116229 379.611199 
L 395.253642 378.6251 
L 395.391031 375.256145 
L 395.528396 375.255315 
L 395.665739 376.331381 
L 395.803057 376.330589 
L 395.940352 371.999392 
L 396.077623 371.998634 
L 396.352096 378.687559 
L 396.489297 378.686858 
L 396.626474 377.838424 
L 396.763628 377.837765 
L 396.900758 377.951689 
L 397.037865 378.592617 
L 397.449045 383.310837 
L 397.586058 379.254841 
L 397.723047 378.841922 
L 397.860013 378.841446 
L 397.996956 379.4138 
L 398.407643 379.343836 
L 398.544492 379.939191 
L 398.681317 379.93885 
L 398.954898 374.782965 
L 399.091653 374.782683 
L 399.228385 378.265089 
L 399.638441 379.38713 
L 399.775079 379.295304 
L 399.911694 378.287009 
L 400.048285 378.286877 
L 400.184854 379.478205 
L 400.321399 379.546853 
L 400.45792 379.478049 
L 400.730893 378.011595 
L 400.867345 378.011594 
L 401.003773 379.203053 
L 401.140178 383.14401 
L 401.27656 383.144077 
L 401.412918 381.929819 
L 401.549253 381.929938 
L 401.685565 383.075696 
L 401.958119 383.098973 
L 402.094361 382.778423 
L 402.502947 378.311338 
L 402.775222 378.31199 
L 402.911325 378.770594 
L 403.047404 378.770973 
L 403.18346 378.267304 
L 403.455503 378.35982 
L 403.591489 380.147444 
L 403.727452 380.147933 
L 403.999309 376.230973 
L 404.135203 376.231523 
L 404.406921 381.571251 
L 404.542745 382.305062 
L 404.678546 381.57251 
L 404.950079 377.335089 
L 405.08581 377.335797 
L 405.221519 380.47551 
L 405.357204 380.476262 
L 405.492866 377.613 
L 405.628505 377.613796 
L 405.764121 377.935384 
L 406.035284 379.243081 
L 406.306354 379.244866 
L 406.441855 378.604247 
L 406.577332 376.359789 
L 406.712787 376.360755 
L 406.848218 376.682513 
L 407.119012 379.548582 
L 407.525029 373.915364 
L 407.660322 376.620122 
L 407.795593 375.315246 
L 407.93084 377.30976 
L 408.066064 375.317554 
L 408.201265 376.212316 
L 408.336443 375.13664 
L 408.471598 375.13786 
L 408.876925 371.223618 
L 409.011989 371.224902 
L 409.147029 371.844832 
L 409.282046 376.909763 
L 409.41704 377.392254 
L 409.552012 377.393607 
L 409.821886 368.483486 
L 409.956788 368.095378 
L 410.091668 368.096789 
L 410.226525 368.235686 
L 410.361359 370.047192 
L 410.49617 368.238567 
L 410.630958 369.614763 
L 410.765723 369.616234 
L 410.900465 370.373824 
L 411.035185 373.170621 
L 411.169881 373.172134 
L 411.304555 372.509206 
L 411.439206 368.157414 
L 411.573834 368.158969 
L 411.97758 373.204415 
L 412.112117 373.206025 
L 412.246631 371.535054 
L 412.51559 360.792474 
L 412.650035 360.794126 
L 412.918857 367.579487 
L 413.053234 368.085233 
L 413.456228 371.206403 
L 413.590514 366.877705 
L 413.724777 366.673231 
L 413.859017 365.873047 
L 413.993235 359.413534 
L 414.12743 359.186168 
L 414.261602 359.417051 
L 414.529878 363.819742 
L 414.663982 366.112746 
L 414.798063 366.458215 
L 414.932121 368.040956 
L 415.066157 368.042761 
L 415.20017 364.516082 
L 415.334161 364.517904 
L 415.468128 363.534506 
L 415.602073 363.536342 
L 415.869895 360.309399 
L 416.003772 357.951284 
L 416.137626 358.090611 
L 416.271458 357.95499 
L 416.539053 357.294243 
L 416.672817 355.508939 
L 416.806558 357.297952 
L 417.073973 354.414709 
L 417.207646 353.568804 
L 417.341297 353.547738 
L 417.474925 353.182984 
L 417.60853 353.184823 
L 417.742113 353.484518 
L 418.009211 356.993762 
L 418.142726 358.530716 
L 418.276219 358.532548 
L 418.676561 349.166907 
L 418.809963 351.43704 
L 418.943343 351.43885 
L 419.0767 345.483457 
L 419.210035 345.48525 
L 419.476637 352.179196 
L 419.609904 352.180965 
L 419.743149 350.876728 
L 419.876371 350.878485 
L 420.009571 350.009569 
L 420.275903 346.049221 
L 420.409035 346.050944 
L 420.542145 342.661636 
L 420.675232 343.259054 
L 420.808297 343.260739 
L 420.94134 349.632028 
L 421.07436 349.633691 
L 421.207357 347.481591 
L 421.340332 341.709338 
L 421.473285 341.710969 
L 421.606215 344.530797 
L 421.739123 344.5324 
L 421.872009 341.165882 
L 422.004872 341.144544 
L 422.137712 339.863014 
L 422.27053 339.864556 
L 422.403326 335.28362 
L 422.5361 339.294775 
L 422.668851 338.517242 
L 422.801579 338.518708 
L 423.06697 337.948777 
L 423.199631 336.896221 
L 423.332271 336.897611 
L 423.464887 337.173928 
L 423.597482 337.175277 
L 423.730054 335.458185 
L 423.862604 330.877033 
L 423.995132 330.878315 
L 424.127637 331.177431 
L 424.26012 331.178661 
L 424.525019 330.081252 
L 424.657435 330.494824 
L 424.789829 330.083526 
L 424.9222 330.474132 
L 425.054549 328.458921 
L 425.451463 333.067341 
L 425.715962 332.152759 
L 426.112542 327.825009 
L 426.244691 325.030544 
L 426.376817 325.031347 
L 426.508922 327.071313 
L 426.641004 332.112759 
L 426.773064 332.365511 
L 426.905102 332.13708 
L 427.037118 332.137746 
L 427.169112 325.952067 
L 427.301083 325.563169 
L 427.564959 322.814817 
L 427.696864 323.22775 
L 427.828747 322.815806 
L 427.960607 324.42011 
L 428.356056 317.776669 
L 428.487828 312.346755 
L 428.619578 312.347011 
L 428.751305 314.821751 
L 429.014694 324.491044 
L 429.146356 324.491145 
L 429.277995 322.543669 
L 429.409612 322.543703 
L 429.409612 322.543703 
" clip-path="url(#pcaaf27f542)" style="fill: none; stroke: #5088c5; stroke-width: 2; stroke-linecap: round"/>
   </g>
   <g id="line2d_17">
    <defs>
     <path id="mf0ff998827" d="M 0 3 
C 0.795609 3 1.55874 2.683901 2.12132 2.12132 
C 2.683901 1.55874 3 0.795609 3 0 
C 3 -0.795609 2.683901 -1.55874 2.12132 -2.12132 
C 1.55874 -2.683901 0.795609 -3 0 -3 
C -0.795609 -3 -1.55874 -2.683901 -2.12132 -2.12132 
C -2.683901 -1.55874 -3 -0.795609 -3 0 
C -3 0.795609 -2.683901 1.55874 -2.12132 2.12132 
C -1.55874 2.683901 -0.795609 3 0 3 
z
"/>
    </defs>
    <g clip-path="url(#pcaaf27f542)">
     <use xlink:href="#mf0ff998827" x="159.078528" y="234.209662" style="fill: #f28360"/>
     <use xlink:href="#mf0ff998827" x="206.207912" y="301.404" style="fill: #f28360"/>
     <use xlink:href="#mf0ff998827" x="296.312694" y="63.274924" style="fill: #f28360"/>
     <use xlink:href="#mf0ff998827" x="367.437736" y="33.974739" style="fill: #f28360"/>
     <use xlink:href="#mf0ff998827" x="373.81153" y="322.543959" style="fill: #f28360"/>
    </g>
   </g>
   <g id="patch_3">
    <path d="M 91.128438 397.284897 
L 91.128438 20 
" style="fill: none; stroke: #000000; stroke-width: 0.75; stroke-linejoin: miter; stroke-linecap: square"/>
   </g>
   <g id="patch_4">
    <path d="M 91.128438 397.284897 
L 442.420427 397.284897 
" style="fill: none; stroke: #000000; stroke-width: 0.75; stroke-linejoin: miter; stroke-linecap: square"/>
   </g>
  </g>
 </g>
 <defs>
  <clipPath id="pcaaf27f542">
   <rect x="91.128438" y="20" width="351.291989" height="377.284898"/>
  </clipPath>
 </defs>
</svg>
