<?xml version="1.0" encoding="utf-8" standalone="no"?>
<!DOCTYPE svg PUBLIC "-//W3C//DTD SVG 1.1//EN"
  "http://www.w3.org/Graphics/SVG/1.1/DTD/svg11.dtd">
<svg xmlns:xlink="http://www.w3.org/1999/xlink" width="463.998845pt" height="463.99896pt" viewBox="0 0 463.998845 463.99896" xmlns="http://www.w3.org/2000/svg" version="1.1">
 <metadata>
  <rdf:RDF xmlns:dc="http://purl.org/dc/elements/1.1/" xmlns:cc="http://creativecommons.org/ns#" xmlns:rdf="http://www.w3.org/1999/02/22-rdf-syntax-ns#">
   <cc:Work>
    <dc:type rdf:resource="http://purl.org/dc/dcmitype/StillImage"/>
    <dc:date>2025-02-07T21:26:50.322240</dc:date>
    <dc:format>image/svg+xml</dc:format>
    <dc:creator>
     <cc:Agent>
      <dc:title>Matplotlib v3.8.4, https://matplotlib.org/</dc:title>
     </cc:Agent>
    </dc:creator>
   </cc:Work>
  </rdf:RDF>
 </metadata>
 <defs>
  <style type="text/css">*{stroke-linejoin: round; stroke-linecap: butt}</style>
 </defs>
 <g id="figure_1">
  <g id="patch_1">
   <path d="M 0 463.99896 
L 463.998845 463.99896 
L 463.998845 0 
L 0 0 
L 0 463.99896 
z
" style="fill: none"/>
  </g>
  <g id="axes_1">
   <g id="patch_2">
    <path d="M 81.762344 397.163023 
L 430.888951 397.163023 
L 430.888951 20 
L 81.762344 20 
L 81.762344 397.163023 
z
" style="fill: none"/>
   </g>
   <g id="matplotlib.axis_1">
    <g id="xtick_1">
     <g id="line2d_1">
      <defs>
       <path id="mf876d3b26a" d="M 0 0 
L 0 5 
" style="stroke: #000000; stroke-width: 0.75"/>
      </defs>
      <g>
       <use xlink:href="#mf876d3b26a" x="85.599361" y="397.163023" style="stroke: #000000; stroke-width: 0.75"/>
      </g>
     </g>
     <g id="text_1">
      <text style="font: 14.5px &quot;Suisse Int&apos;l Mono&quot;; text-anchor: middle" x="85.599361" y="417.675522" transform="rotate(-0 85.599361 417.675522)">540</text>
     </g>
    </g>
    <g id="xtick_2">
     <g id="line2d_2">
      <g>
       <use xlink:href="#mf876d3b26a" x="142.991085" y="397.163023" style="stroke: #000000; stroke-width: 0.75"/>
      </g>
     </g>
     <g id="text_2">
      <text style="font: 14.5px &quot;Suisse Int&apos;l Mono&quot;; text-anchor: middle" x="142.991085" y="417.675522" transform="rotate(-0 142.991085 417.675522)">560</text>
     </g>
    </g>
    <g id="xtick_3">
     <g id="line2d_3">
      <g>
       <use xlink:href="#mf876d3b26a" x="200.382809" y="397.163023" style="stroke: #000000; stroke-width: 0.75"/>
      </g>
     </g>
     <g id="text_3">
      <text style="font: 14.5px &quot;Suisse Int&apos;l Mono&quot;; text-anchor: middle" x="200.382809" y="417.675522" transform="rotate(-0 200.382809 417.675522)">580</text>
     </g>
    </g>
    <g id="xtick_4">
     <g id="line2d_4">
      <g>
       <use xlink:href="#mf876d3b26a" x="257.774533" y="397.163023" style="stroke: #000000; stroke-width: 0.75"/>
      </g>
     </g>
     <g id="text_4">
      <text style="font: 14.5px &quot;Suisse Int&apos;l Mono&quot;; text-anchor: middle" x="257.774533" y="417.675522" transform="rotate(-0 257.774533 417.675522)">600</text>
     </g>
    </g>
    <g id="xtick_5">
     <g id="line2d_5">
      <g>
       <use xlink:href="#mf876d3b26a" x="315.166257" y="397.163023" style="stroke: #000000; stroke-width: 0.75"/>
      </g>
     </g>
     <g id="text_5">
      <text style="font: 14.5px &quot;Suisse Int&apos;l Mono&quot;; text-anchor: middle" x="315.166257" y="417.675522" transform="rotate(-0 315.166257 417.675522)">620</text>
     </g>
    </g>
    <g id="xtick_6">
     <g id="line2d_6">
      <g>
       <use xlink:href="#mf876d3b26a" x="372.557981" y="397.163023" style="stroke: #000000; stroke-width: 0.75"/>
      </g>
     </g>
     <g id="text_6">
      <text style="font: 14.5px &quot;Suisse Int&apos;l Mono&quot;; text-anchor: middle" x="372.557981" y="417.675522" transform="rotate(-0 372.557981 417.675522)">640</text>
     </g>
    </g>
    <g id="xtick_7">
     <g id="line2d_7">
      <g>
       <use xlink:href="#mf876d3b26a" x="429.949705" y="397.163023" style="stroke: #000000; stroke-width: 0.75"/>
      </g>
     </g>
     <g id="text_7">
      <text style="font: 14.5px &quot;Suisse Int&apos;l Mono&quot;; text-anchor: middle" x="429.949705" y="417.675522" transform="rotate(-0 429.949705 417.675522)">660</text>
     </g>
    </g>
    <g id="text_8">
     <text style="font: 500 15px &quot;Suisse Int&apos;l&quot;, sans-serif; text-anchor: middle" x="256.325647" y="441.088023" transform="rotate(-0 256.325647 441.088023)">Wavelength (nm)</text>
    </g>
   </g>
   <g id="matplotlib.axis_2">
    <g id="ytick_1">
     <g id="line2d_8">
      <defs>
       <path id="mdc115a2511" d="M 0 0 
L -5 0 
" style="stroke: #000000; stroke-width: 0.75"/>
      </defs>
      <g>
       <use xlink:href="#mdc115a2511" x="81.762344" y="383.067486" style="stroke: #000000; stroke-width: 0.75"/>
      </g>
     </g>
     <g id="text_9">
      <text style="font: 14.5px &quot;Suisse Int&apos;l Mono&quot;; text-anchor: end" x="71.762344" y="388.323736" transform="rotate(-0 71.762344 388.323736)">0.0</text>
     </g>
    </g>
    <g id="ytick_2">
     <g id="line2d_9">
      <g>
       <use xlink:href="#mdc115a2511" x="81.762344" y="327.819507" style="stroke: #000000; stroke-width: 0.75"/>
      </g>
     </g>
     <g id="text_10">
      <text style="font: 14.5px &quot;Suisse Int&apos;l Mono&quot;; text-anchor: end" x="71.762344" y="333.075757" transform="rotate(-0 71.762344 333.075757)">0.5</text>
     </g>
    </g>
    <g id="ytick_3">
     <g id="line2d_10">
      <g>
       <use xlink:href="#mdc115a2511" x="81.762344" y="272.571527" style="stroke: #000000; stroke-width: 0.75"/>
      </g>
     </g>
     <g id="text_11">
      <text style="font: 14.5px &quot;Suisse Int&apos;l Mono&quot;; text-anchor: end" x="71.762344" y="277.827777" transform="rotate(-0 71.762344 277.827777)">1.0</text>
     </g>
    </g>
    <g id="ytick_4">
     <g id="line2d_11">
      <g>
       <use xlink:href="#mdc115a2511" x="81.762344" y="217.323547" style="stroke: #000000; stroke-width: 0.75"/>
      </g>
     </g>
     <g id="text_12">
      <text style="font: 14.5px &quot;Suisse Int&apos;l Mono&quot;; text-anchor: end" x="71.762344" y="222.579797" transform="rotate(-0 71.762344 222.579797)">1.5</text>
     </g>
    </g>
    <g id="ytick_5">
     <g id="line2d_12">
      <g>
       <use xlink:href="#mdc115a2511" x="81.762344" y="162.075567" style="stroke: #000000; stroke-width: 0.75"/>
      </g>
     </g>
     <g id="text_13">
      <text style="font: 14.5px &quot;Suisse Int&apos;l Mono&quot;; text-anchor: end" x="71.762344" y="167.331817" transform="rotate(-0 71.762344 167.331817)">2.0</text>
     </g>
    </g>
    <g id="ytick_6">
     <g id="line2d_13">
      <g>
       <use xlink:href="#mdc115a2511" x="81.762344" y="106.827587" style="stroke: #000000; stroke-width: 0.75"/>
      </g>
     </g>
     <g id="text_14">
      <text style="font: 14.5px &quot;Suisse Int&apos;l Mono&quot;; text-anchor: end" x="71.762344" y="112.083837" transform="rotate(-0 71.762344 112.083837)">2.5</text>
     </g>
    </g>
    <g id="ytick_7">
     <g id="line2d_14">
      <g>
       <use xlink:href="#mdc115a2511" x="81.762344" y="51.579607" style="stroke: #000000; stroke-width: 0.75"/>
      </g>
     </g>
     <g id="text_15">
      <text style="font: 14.5px &quot;Suisse Int&apos;l Mono&quot;; text-anchor: end" x="71.762344" y="56.835857" transform="rotate(-0 71.762344 56.835857)">3.0</text>
     </g>
    </g>
    <g id="text_16">
     <text style="font: 500 15px &quot;Suisse Int&apos;l&quot;, sans-serif; text-anchor: middle" x="30.875" y="208.581511" transform="rotate(-90 30.875 208.581511)">Intensity (au)</text>
    </g>
   </g>
   <g id="line2d_15">
    <path d="M 94.692959 382.766583 
L 94.85088 382.69267 
L 95.324645 382.870019 
L 95.640488 382.859212 
L 95.79841 382.810644 
L 96.114253 382.871662 
L 96.272174 382.83456 
L 96.588017 382.950544 
L 97.061782 382.958272 
L 97.219703 382.966019 
L 97.377625 382.746486 
L 97.693468 382.8247 
L 98.325154 382.945721 
L 98.483076 382.749117 
L 98.640997 382.938282 
L 98.95684 382.759203 
L 99.114762 382.798647 
L 99.272683 382.664426 
L 99.430605 382.748719 
L 99.746448 382.436778 
L 99.904369 382.597955 
L 100.062291 382.500154 
L 100.220212 382.724388 
L 100.378134 382.491365 
L 100.536056 382.626239 
L 100.693977 382.596554 
L 100.851899 382.801905 
L 101.00982 382.76615 
L 101.167742 383.009268 
L 101.483585 382.969456 
L 101.641506 382.777234 
L 101.957349 382.86927 
L 102.273192 382.608583 
L 102.746957 382.750515 
L 102.904879 382.771072 
L 103.220722 383.063749 
L 103.378643 383.155459 
L 103.694486 382.723804 
L 103.852408 382.857328 
L 104.168251 382.619569 
L 104.642015 383.051838 
L 104.799937 383.043058 
L 104.957858 382.917603 
L 105.11578 382.997509 
L 105.589545 382.927668 
L 105.747466 382.957666 
L 105.905388 382.678442 
L 106.063309 382.655498 
L 106.379152 382.862519 
L 106.537074 383.029427 
L 106.694995 382.846307 
L 106.852917 382.961282 
L 107.010838 382.894163 
L 107.16876 382.704299 
L 107.484603 382.646608 
L 107.642525 382.984143 
L 108.274211 382.765573 
L 108.590054 382.951685 
L 108.905897 382.905795 
L 109.063818 382.963107 
L 109.695504 382.701708 
L 110.011347 382.927272 
L 110.485112 382.724899 
L 110.800955 383.06444 
L 110.958877 383.015192 
L 111.27472 382.622983 
L 111.432641 382.512361 
L 111.748484 383.055241 
L 111.906406 383.132109 
L 112.38017 382.825533 
L 112.538092 382.884866 
L 112.853935 382.738145 
L 113.3277 382.834536 
L 113.801464 382.530993 
L 114.117307 382.844228 
L 114.43315 382.66918 
L 114.748993 382.707585 
L 114.906915 382.437461 
L 115.222758 382.900416 
L 115.38068 383.152969 
L 115.854444 382.976552 
L 116.170287 383.194022 
L 116.328209 383.11562 
L 116.644052 382.79403 
L 116.959895 382.6608 
L 117.117816 382.85232 
L 117.275738 382.724838 
L 117.43366 382.879264 
L 117.749503 382.659707 
L 119.012875 382.882807 
L 119.170796 382.829848 
L 119.328718 383.077344 
L 119.486639 382.836558 
L 119.644561 382.996379 
L 119.802483 382.883396 
L 119.960404 383.078624 
L 120.276247 382.894471 
L 120.59209 382.62534 
L 120.750012 382.86879 
L 121.065855 382.901464 
L 121.381698 382.56489 
L 121.539619 382.592861 
L 121.697541 382.442109 
L 121.855462 382.795152 
L 122.013384 382.875727 
L 122.171306 383.093211 
L 122.487149 382.728311 
L 122.802992 382.991636 
L 123.118835 382.918425 
L 123.434678 383.10554 
L 123.592599 383.099452 
L 123.908442 382.738597 
L 124.224285 382.745304 
L 124.540128 382.624544 
L 124.69805 382.785375 
L 125.329736 382.637263 
L 125.961422 383.082643 
L 126.593108 382.92475 
L 126.908951 382.723732 
L 127.224795 382.706495 
L 127.540638 382.94419 
L 127.698559 382.937764 
L 127.856481 382.777568 
L 128.014402 382.942445 
L 128.330245 382.802461 
L 128.646088 382.672595 
L 128.80401 382.735634 
L 128.961931 382.646927 
L 129.435696 382.932486 
L 129.593618 382.734185 
L 130.067382 383.023115 
L 130.225304 382.919908 
L 130.383225 382.953272 
L 130.541147 382.818029 
L 130.699068 383.070243 
L 131.014911 382.999388 
L 131.330754 382.933929 
L 131.646597 382.728862 
L 131.962441 382.841444 
L 132.278284 382.677172 
L 132.594127 383.001517 
L 132.90997 382.620076 
L 133.383734 382.726554 
L 133.857499 382.763566 
L 134.173342 382.748675 
L 134.331264 382.592519 
L 134.489185 382.61812 
L 134.805028 382.98293 
L 134.96295 382.729319 
L 135.436714 382.852996 
L 135.752557 382.594638 
L 136.226322 382.885571 
L 136.384243 382.777299 
L 136.542165 382.866634 
L 136.858008 382.614009 
L 137.01593 382.50169 
L 137.331773 382.74679 
L 137.647616 382.712342 
L 138.12138 382.660391 
L 138.279302 382.967228 
L 138.753066 383.056847 
L 138.910988 382.842691 
L 139.068909 382.985643 
L 139.226831 382.809592 
L 139.384753 382.922532 
L 139.542674 382.675329 
L 140.490203 383.109164 
L 140.963968 382.631932 
L 141.279811 382.913115 
L 141.753576 382.546826 
L 142.385262 383.032646 
L 143.016948 382.554041 
L 143.174869 382.523667 
L 143.648634 382.9677 
L 143.964477 382.653369 
L 144.122399 382.830381 
L 144.438242 382.890694 
L 144.754085 382.885923 
L 145.227849 382.853479 
L 145.385771 382.95799 
L 145.543692 382.825442 
L 145.701614 382.838907 
L 145.859535 382.715463 
L 146.175378 382.793987 
L 146.3333 382.631765 
L 146.649143 383.012768 
L 147.754594 382.951909 
L 148.070437 382.75763 
L 148.38628 383.177415 
L 148.544201 383.119056 
L 148.702123 382.725844 
L 148.860045 382.770335 
L 149.175888 383.111551 
L 149.491731 382.706853 
L 149.807574 382.937802 
L 150.123417 382.803213 
L 150.43926 382.638613 
L 150.597181 382.937025 
L 150.755103 382.836179 
L 150.913024 382.930241 
L 151.228867 382.749456 
L 151.386789 382.832391 
L 151.544711 382.730196 
L 151.702632 382.909574 
L 152.176397 382.694713 
L 152.334318 382.693682 
L 152.650161 382.940486 
L 153.59769 382.772372 
L 154.071455 383.059999 
L 154.229377 382.724119 
L 154.387298 382.748381 
L 154.54522 382.589538 
L 154.703141 382.844117 
L 154.861063 382.76081 
L 155.018984 382.9439 
L 155.176906 382.860256 
L 155.334827 382.981974 
L 155.492749 382.814365 
L 155.65067 382.973176 
L 155.966513 383.015973 
L 156.124435 383.186589 
L 156.5982 382.874628 
L 156.914043 382.945754 
L 157.70365 383.005382 
L 157.861572 382.657704 
L 158.019493 382.604752 
L 158.335336 382.910245 
L 158.967023 382.682252 
L 159.282866 382.404372 
L 159.75663 382.816081 
L 159.914552 382.726374 
L 160.546238 383.033205 
L 161.020003 382.919205 
L 161.177924 382.756662 
L 161.80961 383.04799 
L 162.125453 382.812606 
L 162.283375 382.800462 
L 162.441296 382.655457 
L 162.599218 382.810234 
L 162.915061 382.652074 
L 163.072982 382.675677 
L 163.230904 382.881373 
L 163.388826 382.896882 
L 163.546747 383.087068 
L 163.704669 382.930937 
L 164.020512 382.839888 
L 164.336355 382.714445 
L 164.968041 382.989274 
L 165.283884 382.891823 
L 165.599727 383.033457 
L 165.91557 383.119114 
L 166.231413 382.757967 
L 166.705178 382.797096 
L 167.021021 382.571849 
L 167.178942 382.670995 
L 167.336864 382.548594 
L 167.810628 382.718569 
L 168.126471 382.987342 
L 168.284393 383.007583 
L 168.758158 382.504489 
L 168.916079 382.706151 
L 169.074001 382.621183 
L 169.705687 382.925729 
L 169.863608 383.17258 
L 170.179451 382.953079 
L 170.495294 382.831035 
L 170.969059 382.838495 
L 171.600745 383.05943 
L 171.758667 382.812606 
L 172.07451 382.765768 
L 172.232431 383.055449 
L 172.548274 383.066276 
L 172.706196 382.841037 
L 173.179961 382.863013 
L 173.337882 382.647891 
L 173.495804 382.960844 
L 173.969568 382.87829 
L 174.443333 383.193805 
L 174.601254 383.077888 
L 175.075019 383.193803 
L 175.390862 383.082838 
L 175.548784 382.814668 
L 176.022548 382.943263 
L 176.18047 383.088304 
L 176.812156 382.550614 
L 178.075528 382.647741 
L 178.391371 383.023823 
L 178.707214 382.980751 
L 178.865136 382.782517 
L 179.180979 382.737425 
L 179.970586 382.983157 
L 180.128508 383.031765 
L 180.286429 382.820383 
L 180.444351 382.816723 
L 180.602273 382.57297 
L 180.918116 382.702562 
L 181.233959 382.822376 
L 181.39188 383.140757 
L 181.549802 383.089216 
L 181.865645 382.708611 
L 182.023566 382.684385 
L 182.339409 383.105673 
L 182.497331 382.893285 
L 182.655252 383.005295 
L 182.813174 382.791221 
L 182.971096 383.089373 
L 183.44486 382.727716 
L 183.918625 382.916392 
L 184.076546 382.849683 
L 184.392389 382.958721 
L 185.181997 382.17332 
L 185.49784 381.995734 
L 185.813683 382.211337 
L 186.919134 382.920269 
L 187.077055 382.782752 
L 187.392898 383.010502 
L 188.024585 382.853292 
L 188.340428 382.952231 
L 188.498349 382.761101 
L 188.656271 382.853228 
L 188.814192 382.67525 
L 189.130035 382.703716 
L 189.287957 382.05769 
L 189.6038 380.028828 
L 189.761721 380.068352 
L 189.919643 380.326051 
L 190.077565 380.253963 
L 190.235486 380.342724 
L 190.393408 380.155974 
L 190.709251 380.296402 
L 190.867172 380.682917 
L 191.340937 382.797464 
L 191.498858 382.744934 
L 191.972623 383.158583 
L 192.130544 383.026136 
L 192.288466 383.097364 
L 192.762231 382.781628 
L 194.025603 382.941762 
L 194.499367 382.750805 
L 194.657289 382.784945 
L 194.973132 383.143902 
L 195.446897 382.88517 
L 195.76274 382.867128 
L 195.920661 383.077294 
L 196.394426 382.875047 
L 196.710269 383.021692 
L 197.026112 383.193745 
L 197.657798 382.728923 
L 197.973641 382.922996 
L 198.447406 382.753306 
L 198.763249 382.913322 
L 199.079092 382.930361 
L 199.710778 382.987372 
L 200.184543 382.836908 
L 200.342464 382.944233 
L 200.658307 382.660144 
L 201.289993 382.325995 
L 201.605836 382.569647 
L 201.921679 382.472039 
L 202.237523 382.394665 
L 203.185052 382.896321 
L 203.658816 382.703042 
L 203.974659 382.845534 
L 204.290502 382.91013 
L 204.606346 382.836807 
L 204.764267 382.623447 
L 204.922189 382.625901 
L 205.08011 382.821242 
L 205.238032 382.579556 
L 205.553875 381.475719 
L 205.869718 381.215246 
L 206.027639 381.195445 
L 206.185561 380.887326 
L 206.501404 380.988595 
L 206.975168 381.543924 
L 207.448933 382.955115 
L 207.922698 382.782078 
L 208.080619 382.98248 
L 208.238541 382.727645 
L 208.396462 382.900732 
L 208.712305 382.870915 
L 208.870227 382.686557 
L 209.343991 382.773514 
L 209.659835 382.710652 
L 209.975678 382.867988 
L 210.607364 382.85658 
L 210.923207 382.622078 
L 211.081128 382.629258 
L 211.396971 382.756584 
L 211.870736 382.505996 
L 212.502422 382.295972 
L 212.660344 382.541562 
L 212.818265 382.445556 
L 212.976187 382.636854 
L 213.134108 382.420464 
L 213.29203 382.432703 
L 213.765794 382.059036 
L 214.081637 381.361209 
L 214.239559 379.682665 
L 214.397481 373.616657 
L 214.555402 312.758377 
L 214.871245 50.07379 
L 215.029167 34.978936 
L 215.187088 35.128105 
L 215.34501 36.328091 
L 215.660853 35.189982 
L 215.818774 33.969001 
L 215.976696 34.027563 
L 216.134617 54.228434 
L 216.608382 363.533032 
L 216.766304 376.644294 
L 217.082147 380.01021 
L 217.713833 381.677449 
L 218.029676 382.026659 
L 218.819283 382.172968 
L 219.135126 382.299945 
L 219.608891 382.287409 
L 220.082656 382.697061 
L 220.398499 382.567081 
L 220.55642 382.303474 
L 220.714342 382.356847 
L 221.188106 381.945723 
L 221.819793 382.297131 
L 221.977714 382.334654 
L 222.293557 382.919226 
L 222.451479 382.96147 
L 222.6094 382.669874 
L 222.767322 382.089287 
L 222.925243 379.583557 
L 223.241086 362.395015 
L 223.399008 358.301691 
L 223.556929 357.600042 
L 224.030694 357.409435 
L 224.188616 357.644238 
L 224.346537 357.402914 
L 224.504459 358.560359 
L 225.136145 382.074472 
L 225.294066 382.622875 
L 225.767831 382.633603 
L 226.083674 382.701228 
L 226.557439 382.879212 
L 226.873282 382.837243 
L 227.347046 383.030737 
L 227.504968 383.023747 
L 227.820811 383.193655 
L 228.452497 382.806117 
L 228.610418 382.890512 
L 228.926262 382.55854 
L 229.242105 381.754476 
L 229.557948 381.677769 
L 229.873791 381.792264 
L 230.505477 381.311429 
L 231.295085 382.225387 
L 231.453006 382.123302 
L 231.926771 382.592634 
L 232.084692 382.642969 
L 232.400535 382.579078 
L 232.716378 382.522943 
L 232.8743 382.745929 
L 233.821829 382.383289 
L 233.979751 382.574914 
L 234.137672 382.557468 
L 234.295594 382.821931 
L 234.453515 382.6261 
L 234.611437 382.620457 
L 234.769358 382.478579 
L 235.243123 382.925311 
L 235.401044 382.850538 
L 235.716887 382.983913 
L 236.03273 382.77839 
L 236.506495 382.974575 
L 236.664417 382.925092 
L 236.822338 383.094798 
L 236.98026 382.954605 
L 237.296103 382.900826 
L 237.454024 382.686447 
L 237.769867 382.7861 
L 238.08571 382.999392 
L 238.401553 382.937856 
L 238.559475 383.024943 
L 238.717397 382.973729 
L 238.875318 383.065862 
L 239.03324 382.909819 
L 239.191161 383.010058 
L 239.349083 382.958551 
L 239.507004 383.046313 
L 239.664926 382.754036 
L 240.13869 382.728329 
L 240.612455 382.622701 
L 240.770376 382.263318 
L 240.928298 380.272844 
L 241.559984 337.068193 
L 242.033749 336.007651 
L 242.19167 335.961795 
L 242.349592 335.775057 
L 242.507513 336.813166 
L 242.665435 342.53332 
L 242.981278 375.729001 
L 243.297121 382.057623 
L 243.455043 382.706845 
L 243.612964 382.850919 
L 243.928807 382.73711 
L 244.24465 382.711314 
L 245.192179 382.690236 
L 245.350101 382.967509 
L 245.508022 382.904196 
L 245.665944 383.003758 
L 245.823866 382.964388 
L 246.139709 382.739634 
L 246.29763 382.69352 
L 246.613473 382.975933 
L 246.771395 382.694444 
L 247.245159 382.50282 
L 247.561002 382.36102 
L 248.192688 382.352585 
L 248.508532 382.54496 
L 248.824375 382.860082 
L 249.140218 382.831247 
L 249.298139 382.541327 
L 249.456061 382.691469 
L 249.613982 382.418501 
L 249.771904 381.019151 
L 250.245668 370.738826 
L 250.40359 370.361261 
L 250.719433 370.382254 
L 250.877355 370.112975 
L 251.193198 370.442583 
L 251.351119 371.679916 
L 251.982805 382.35802 
L 252.298648 382.858942 
L 252.45657 382.86307 
L 252.772413 382.974175 
L 252.930334 382.960767 
L 253.088256 383.065047 
L 253.562021 382.795521 
L 253.877864 382.370457 
L 254.983314 382.381474 
L 255.299157 382.656463 
L 255.457079 382.566844 
L 255.772922 382.757865 
L 256.088765 382.79377 
L 256.404608 383.193577 
L 256.56253 383.012185 
L 256.720451 383.09387 
L 257.036294 382.780422 
L 257.194216 382.9572 
L 257.510059 382.813707 
L 257.66798 382.823903 
L 257.983824 383.043586 
L 258.457588 382.81553 
L 258.773431 382.87841 
L 258.931353 382.785418 
L 259.089274 382.847206 
L 259.247196 383.032077 
L 260.984333 383.067346 
L 261.142254 383.002008 
L 261.300176 383.123148 
L 261.931862 382.938004 
L 262.089783 383.076005 
L 262.563548 382.757918 
L 263.511077 383.110786 
L 263.82692 382.906933 
L 263.984842 382.794721 
L 264.142763 382.904731 
L 264.300685 382.833997 
L 264.932371 383.185352 
L 265.248214 382.785914 
L 265.406136 381.293157 
L 265.721979 371.365404 
L 265.8799 368.926426 
L 266.195743 368.612396 
L 266.353665 368.742892 
L 266.511586 368.404111 
L 266.827429 368.523004 
L 266.985351 369.928844 
L 267.617037 382.586454 
L 267.774959 382.683986 
L 268.090802 383.080366 
L 268.406645 383.018137 
L 268.564566 382.702922 
L 268.722488 382.695243 
L 268.880409 382.475796 
L 269.354174 383.060416 
L 269.670017 383.164769 
L 269.827938 382.935204 
L 269.98586 382.991259 
L 270.459625 382.679567 
L 270.617546 382.83611 
L 270.775468 382.788303 
L 270.933389 382.935066 
L 271.091311 382.796211 
L 271.407154 382.916748 
L 271.565075 383.140732 
L 271.722997 383.122598 
L 271.880918 382.878195 
L 272.03884 383.026307 
L 272.196761 382.927241 
L 272.354683 383.036574 
L 272.828448 382.878984 
L 272.986369 382.799477 
L 273.302212 383.014768 
L 273.460134 382.846911 
L 273.618055 382.976137 
L 273.933898 382.923344 
L 274.09182 383.03571 
L 274.881427 382.817229 
L 275.039349 382.947803 
L 275.197271 382.779271 
L 275.828957 382.993693 
L 276.302721 382.742352 
L 276.618564 383.008557 
L 276.776486 382.926687 
L 276.934407 382.70285 
L 277.408172 382.889882 
L 277.566094 382.635696 
L 277.881937 382.607176 
L 278.039858 381.380811 
L 278.355701 350.307169 
L 278.513623 337.699248 
L 278.829466 334.473981 
L 278.987387 334.42713 
L 279.145309 334.209342 
L 279.30323 334.559503 
L 279.461152 334.461714 
L 279.619073 336.074733 
L 279.776995 342.10516 
L 280.092838 375.162865 
L 280.25076 381.130243 
L 280.566603 382.610742 
L 280.724524 382.344077 
L 280.882446 382.588288 
L 281.040367 382.383332 
L 281.198289 382.546613 
L 281.35621 382.508576 
L 281.514132 382.850578 
L 281.672053 382.855368 
L 281.829975 382.973461 
L 281.987896 382.849481 
L 282.145818 382.963876 
L 282.619583 382.826499 
L 282.935426 382.795948 
L 283.093347 382.909993 
L 283.725033 382.578109 
L 283.882955 382.693166 
L 284.040876 382.536766 
L 284.198798 382.038772 
L 284.356719 378.818124 
L 284.672563 315.553186 
L 284.830484 300.30629 
L 285.146327 298.892825 
L 285.620092 298.219903 
L 285.778013 298.895364 
L 285.935935 302.58184 
L 286.409699 375.863311 
L 286.725542 381.935958 
L 286.883464 382.363609 
L 287.041386 382.454383 
L 287.199307 382.311133 
L 287.51515 382.447158 
L 287.673072 382.338639 
L 287.988915 382.887073 
L 288.304758 383.049398 
L 288.462679 383.091276 
L 288.620601 382.893058 
L 288.778522 382.931226 
L 288.936444 382.762683 
L 289.252287 382.883866 
L 289.56813 382.877584 
L 290.041895 382.705117 
L 290.199816 382.928075 
L 291.463188 382.845609 
L 291.62111 382.715505 
L 292.410718 382.89655 
L 292.726561 382.630946 
L 293.358247 382.91073 
L 293.516168 382.816706 
L 293.832011 381.602191 
L 294.147854 380.622698 
L 294.463698 380.413406 
L 294.779541 380.489393 
L 295.095384 380.552905 
L 295.253305 380.883431 
L 295.72707 382.781093 
L 295.884991 382.799359 
L 296.042913 382.959254 
L 296.200834 382.76946 
L 296.516677 382.874782 
L 296.674599 382.822906 
L 296.832521 383.02495 
L 297.306285 382.693296 
L 297.464207 382.552732 
L 297.622128 381.598474 
L 297.78005 377.954272 
L 298.253814 257.026962 
L 298.569657 253.508769 
L 298.727579 253.288881 
L 299.043422 251.825914 
L 299.201344 253.007115 
L 299.359265 259.154004 
L 299.990951 378.998339 
L 300.306794 381.403437 
L 300.464716 381.454408 
L 300.622637 381.825055 
L 300.93848 381.976235 
L 301.88601 382.741329 
L 302.043931 382.726879 
L 302.201853 382.831802 
L 302.833539 382.79079 
L 303.149382 382.939936 
L 303.307303 382.914018 
L 303.465225 382.715112 
L 303.623146 381.322131 
L 303.781068 373.152214 
L 304.096911 347.876273 
L 304.254833 345.358622 
L 304.412754 344.994206 
L 304.570676 344.948681 
L 304.728597 345.145694 
L 304.886519 345.121053 
L 305.04444 345.349116 
L 305.202362 347.414285 
L 305.360283 353.832774 
L 305.676126 376.287142 
L 305.834048 381.115727 
L 305.991969 382.20632 
L 306.465734 382.74262 
L 306.939499 382.604157 
L 307.09742 382.842272 
L 307.255342 382.866256 
L 307.413263 382.749625 
L 307.571185 382.824865 
L 307.887028 382.696473 
L 308.676635 382.706464 
L 308.834557 382.922322 
L 308.992479 382.772304 
L 309.624165 382.791354 
L 309.940008 382.447818 
L 310.097929 382.473488 
L 310.255851 382.650564 
L 310.413772 382.558209 
L 310.887537 382.889474 
L 311.045458 383.184237 
L 311.677145 382.93992 
L 311.835066 383.031344 
L 312.150909 382.95825 
L 312.308831 383.025731 
L 312.466752 382.815014 
L 312.624674 382.996473 
L 312.782595 382.976955 
L 312.940517 383.164146 
L 313.414281 383.059391 
L 313.730125 382.760362 
L 313.888046 382.871006 
L 314.045968 382.791463 
L 314.203889 383.00462 
L 314.361811 382.967903 
L 314.519732 383.153745 
L 314.677654 383.092748 
L 314.835575 382.832121 
L 314.993497 382.812938 
L 315.151418 382.917176 
L 315.467261 382.836658 
L 315.783104 382.910921 
L 316.256869 383.077953 
L 316.730634 382.892262 
L 317.046477 383.084884 
L 317.36232 382.92984 
L 317.678163 382.972402 
L 317.994006 382.93618 
L 318.309849 382.607285 
L 318.783614 382.583452 
L 318.941535 381.907712 
L 319.099457 379.472071 
L 319.4153 361.22291 
L 319.573221 356.849921 
L 319.731143 356.231254 
L 319.889064 356.282523 
L 320.046986 356.807931 
L 320.204907 356.766494 
L 320.362829 357.116876 
L 320.52075 358.005152 
L 320.678672 360.839483 
L 321.152437 380.32467 
L 321.310358 382.226914 
L 321.46828 382.497056 
L 321.626201 382.337926 
L 321.784123 382.393602 
L 322.099966 382.825641 
L 322.257887 382.842536 
L 322.415809 382.715442 
L 322.57373 382.839234 
L 322.731652 382.755977 
L 322.889573 382.922257 
L 323.047495 382.826187 
L 323.205416 382.895687 
L 323.363338 382.839407 
L 323.52126 383.046827 
L 323.679181 382.993246 
L 323.837103 383.193353 
L 324.62671 382.938152 
L 324.942553 383.1392 
L 325.574239 382.961966 
L 325.732161 383.018315 
L 325.890083 382.805232 
L 326.363847 383.125687 
L 326.995533 383.165617 
L 327.311376 382.910755 
L 327.469298 382.869987 
L 327.785141 383.00568 
L 329.048513 382.745967 
L 329.680199 383.073538 
L 330.153964 382.789709 
L 330.311885 382.740512 
L 330.627728 382.987083 
L 330.943572 382.972652 
L 331.417336 382.848324 
L 331.891101 382.983313 
L 332.206944 382.728787 
L 332.522787 382.800682 
L 332.680708 382.869507 
L 332.83863 382.735669 
L 332.996551 382.046784 
L 333.154473 379.554139 
L 333.628238 307.249559 
L 333.786159 302.315141 
L 333.944081 301.482332 
L 334.102002 301.515701 
L 334.417845 302.163207 
L 334.575767 304.21147 
L 334.733688 309.432956 
L 335.365374 378.866383 
L 335.523296 381.020192 
L 335.839139 381.988058 
L 336.154982 382.537781 
L 336.470825 382.329453 
L 336.786668 382.510606 
L 336.94459 382.79255 
L 337.102511 382.674561 
L 337.418354 382.846946 
L 337.576276 382.739074 
L 337.734197 382.811609 
L 337.892119 382.740493 
L 338.365884 383.108496 
L 338.681727 382.848913 
L 338.839648 382.818599 
L 339.313413 383.113092 
L 339.629256 383.185548 
L 339.945099 382.914284 
L 340.260942 382.855686 
L 340.418864 382.988587 
L 340.576785 382.883079 
L 340.734707 382.981582 
L 341.05055 382.747636 
L 341.208471 382.64179 
L 341.840157 383.036483 
L 342.156 382.883467 
L 342.471843 383.101722 
L 342.629765 383.043761 
L 342.787686 382.843158 
L 343.261451 382.860474 
L 343.735216 382.977604 
L 343.893137 382.829945 
L 344.051059 381.791713 
L 344.20898 378.687715 
L 344.524823 358.628389 
L 344.682745 353.712865 
L 344.840666 352.440614 
L 344.998588 352.220838 
L 345.314431 352.22592 
L 345.472353 352.624921 
L 345.630274 354.414624 
L 345.788196 358.827059 
L 346.26196 379.073387 
L 346.419882 381.618032 
L 346.735725 382.440905 
L 347.525332 382.679847 
L 347.683254 382.633351 
L 347.841176 382.711623 
L 348.157019 382.535002 
L 348.788705 383.092572 
L 348.946626 383.059227 
L 349.104548 383.193292 
L 349.420391 383.11836 
L 349.578312 383.026005 
L 349.736234 383.088768 
L 350.209999 382.748647 
L 350.36792 382.879528 
L 350.525842 382.792905 
L 350.841685 382.790629 
L 350.999606 382.757625 
L 351.157528 382.474746 
L 351.315449 382.486591 
L 351.947135 382.021074 
L 352.262978 382.02756 
L 352.4209 381.622272 
L 352.578822 380.360132 
L 352.736743 369.726487 
L 353.052586 321.025393 
L 353.368429 308.047532 
L 353.526351 308.046979 
L 353.842194 308.983101 
L 354.000115 310.185629 
L 354.158037 314.454861 
L 354.315958 325.197721 
L 354.631801 360.788248 
L 354.947645 379.360266 
L 355.263488 381.660803 
L 355.579331 382.138386 
L 355.737252 382.301302 
L 355.895174 382.244356 
L 356.211017 382.574235 
L 356.368938 382.493684 
L 356.52686 382.266109 
L 356.842703 382.614534 
L 357.000624 382.783521 
L 357.158546 382.650365 
L 357.316467 382.816654 
L 357.474389 382.80658 
L 357.790232 382.974261 
L 358.106075 382.851265 
L 358.737761 382.865937 
L 358.895683 382.798875 
L 359.211526 382.996905 
L 360.159055 382.792813 
L 360.63282 382.999991 
L 360.948663 382.953879 
L 361.106584 383.164342 
L 361.264506 383.135262 
L 361.73827 382.693829 
L 362.212035 382.943496 
L 362.527878 382.724732 
L 363.001643 382.511406 
L 363.159564 382.734009 
L 363.317486 382.757994 
L 363.475407 382.95497 
L 363.633329 382.865314 
L 363.79125 382.969893 
L 363.949172 382.738946 
L 364.580858 382.836572 
L 365.054623 383.022505 
L 365.212544 382.861361 
L 366.002152 382.792783 
L 366.160073 382.658279 
L 366.317995 382.354156 
L 366.475916 380.931495 
L 366.633838 371.673757 
L 366.949681 292.171582 
L 367.265524 260.231178 
L 367.423446 259.742786 
L 367.581367 260.119577 
L 367.89721 262.090825 
L 368.055132 265.91067 
L 368.213053 277.371864 
L 368.686818 356.632052 
L 369.002661 377.743288 
L 369.318504 380.637663 
L 369.792269 382.186263 
L 369.95019 382.248353 
L 370.266033 381.88324 
L 370.581876 382.436684 
L 371.055641 382.229697 
L 371.371484 382.602737 
L 371.687327 382.190747 
L 371.845248 381.51636 
L 372.00317 379.648248 
L 372.161092 365.272945 
L 372.476935 241.457913 
L 372.792778 187.328152 
L 372.950699 185.441986 
L 373.108621 185.827617 
L 373.424464 189.873979 
L 373.582385 195.735789 
L 373.740307 211.301355 
L 374.214071 337.686192 
L 374.529915 374.761022 
L 374.845758 379.564348 
L 375.161601 380.757483 
L 375.635365 381.603672 
L 377.056659 382.821034 
L 377.214581 382.743516 
L 377.372502 382.885522 
L 377.846267 382.844838 
L 378.004188 382.655027 
L 378.16211 382.661474 
L 378.320031 382.524942 
L 378.477953 382.707413 
L 378.635874 382.592801 
L 379.109639 383.033654 
L 379.583404 382.623047 
L 380.530933 383.153713 
L 380.846776 382.779821 
L 381.162619 382.699303 
L 381.636384 382.833291 
L 381.952227 382.858995 
L 382.110148 382.816207 
L 382.26807 382.588289 
L 382.583913 382.752924 
L 382.741834 383.02037 
L 382.899756 382.894964 
L 384.005206 383.052353 
L 384.32105 382.769164 
L 384.636893 382.881862 
L 385.110657 382.880955 
L 385.268579 382.958211 
L 386.216108 382.49711 
L 386.847794 383.045552 
L 387.005716 382.855734 
L 387.163637 382.963338 
L 387.321559 382.753962 
L 387.47948 382.981614 
L 387.637402 382.776284 
L 387.795323 383.021808 
L 387.953245 382.788152 
L 388.269088 383.052592 
L 388.427009 383.193282 
L 388.584931 383.177601 
L 388.742852 382.951865 
L 389.848303 383.166226 
L 390.164146 382.843918 
L 390.322068 382.757626 
L 390.479989 382.875008 
L 390.637911 382.815355 
L 390.795832 382.921947 
L 390.953754 382.783385 
L 391.58544 383.048903 
L 392.059205 382.885789 
L 392.217126 382.869972 
L 392.375048 383.032877 
L 392.532969 382.956362 
L 392.848812 383.144925 
L 393.954263 382.869297 
L 394.270106 382.945229 
L 394.743871 382.801328 
L 394.901792 382.866102 
L 395.059714 382.67999 
L 395.217635 382.886055 
L 395.375557 382.75356 
L 395.533478 382.972439 
L 395.6914 382.842641 
L 396.323086 383.023163 
L 396.481008 382.791526 
L 396.638929 382.93116 
L 396.954772 382.883332 
L 397.74438 382.962037 
L 397.902301 382.583712 
L 398.218144 382.637044 
L 398.533987 382.873483 
L 399.323595 382.887099 
L 399.639438 382.555333 
L 400.113203 382.890933 
L 400.271124 382.746631 
L 400.429046 382.983378 
L 400.586967 382.922704 
L 400.744889 383.01209 
L 400.90281 382.836762 
L 401.060732 382.945369 
L 401.218654 382.668878 
L 401.376575 382.677669 
L 401.692418 382.543168 
L 401.85034 382.137862 
L 402.008261 380.526349 
L 402.166183 369.146492 
L 402.639947 262.790264 
L 402.95579 243.403748 
L 403.113712 243.675568 
L 403.271633 244.492133 
L 403.429555 246.47664 
L 403.587477 250.527422 
L 403.745398 259.430082 
L 404.219163 340.540083 
L 404.535006 371.929112 
L 404.850849 379.459124 
L 405.166692 381.233911 
L 405.482535 381.761352 
L 405.798378 381.923251 
L 406.272143 382.654047 
L 406.430064 382.721171 
L 406.587986 382.569444 
L 406.745907 382.79236 
L 406.903829 382.766413 
L 407.06175 382.951562 
L 407.377593 382.908435 
L 407.693436 382.632295 
L 408.009279 382.982356 
L 408.325123 382.684633 
L 408.483044 382.629348 
L 408.956809 382.934576 
L 409.272652 382.69148 
L 409.430573 382.328319 
L 409.588495 381.579388 
L 409.746416 378.949827 
L 410.220181 349.177552 
L 410.536024 343.92347 
L 410.693946 343.404249 
L 410.851867 343.313532 
L 411.009789 343.718831 
L 411.16771 344.553849 
L 411.325632 347.054262 
L 411.957318 374.223893 
L 412.273161 380.296441 
L 412.589004 381.999383 
L 412.904847 382.77163 
L 413.062768 382.906192 
L 413.694455 382.648616 
L 413.852376 382.883667 
L 414.326141 382.703635 
L 415.115748 383.176468 
L 415.589513 382.803211 
L 415.747435 382.730385 
L 416.221199 382.859572 
L 416.537042 382.878816 
L 416.694964 382.980329 
L 417.168728 382.593242 
L 417.642493 383.117977 
L 417.800414 383.004684 
L 417.958336 383.038078 
L 417.958336 383.038078 
" clip-path="url(#p01dc1a8928)" style="fill: none; stroke: #5088c5; stroke-linecap: round"/>
   </g>
   <g id="line2d_16">
    <defs>
     <path id="ma87674f1c2" d="M 0 2 
C 0.530406 2 1.03916 1.789267 1.414214 1.414214 
C 1.789267 1.03916 2 0.530406 2 0 
C 2 -0.530406 1.789267 -1.03916 1.414214 -1.414214 
C 1.03916 -1.789267 0.530406 -2 0 -2 
C -0.530406 -2 -1.03916 -1.789267 -1.414214 -1.414214 
C -1.789267 -1.03916 -2 -0.530406 -2 0 
C -2 0.530406 -1.789267 1.03916 -1.414214 1.414214 
C -1.03916 1.789267 -0.530406 2 0 2 
z
"/>
    </defs>
    <g clip-path="url(#p01dc1a8928)">
     <use xlink:href="#ma87674f1c2" x="215.496946" y="35.875057" style="fill: #f28360"/>
     <use xlink:href="#ma87674f1c2" x="223.933309" y="357.460263" style="fill: #f28360"/>
     <use xlink:href="#ma87674f1c2" x="241.991565" y="336.007651" style="fill: #f28360"/>
     <use xlink:href="#ma87674f1c2" x="279.107645" y="334.209342" style="fill: #f28360"/>
     <use xlink:href="#ma87674f1c2" x="285.360132" y="298.601557" style="fill: #f28360"/>
     <use xlink:href="#ma87674f1c2" x="298.800942" y="253.288881" style="fill: #f28360"/>
     <use xlink:href="#ma87674f1c2" x="304.683511" y="345.145694" style="fill: #f28360"/>
     <use xlink:href="#ma87674f1c2" x="320.058477" y="356.807931" style="fill: #f28360"/>
     <use xlink:href="#ma87674f1c2" x="334.186494" y="301.789952" style="fill: #f28360"/>
     <use xlink:href="#ma87674f1c2" x="345.172021" y="352.24813" style="fill: #f28360"/>
     <use xlink:href="#ma87674f1c2" x="353.678623" y="308.417583" style="fill: #f28360"/>
     <use xlink:href="#ma87674f1c2" x="367.639368" y="260.119577" style="fill: #f28360"/>
     <use xlink:href="#ma87674f1c2" x="373.177687" y="185.827617" style="fill: #f28360"/>
     <use xlink:href="#ma87674f1c2" x="403.219307" y="244.492133" style="fill: #f28360"/>
     <use xlink:href="#ma87674f1c2" x="410.831523" y="343.313532" style="fill: #f28360"/>
    </g>
   </g>
   <g id="patch_3">
    <path d="M 81.762344 397.163023 
L 81.762344 20 
" style="fill: none; stroke: #000000; stroke-width: 0.75; stroke-linejoin: miter; stroke-linecap: square"/>
   </g>
   <g id="patch_4">
    <path d="M 81.762344 397.163023 
L 430.888951 397.163023 
" style="fill: none; stroke: #000000; stroke-width: 0.75; stroke-linejoin: miter; stroke-linecap: square"/>
   </g>
  </g>
 </g>
 <defs>
  <clipPath id="p01dc1a8928">
   <rect x="81.762344" y="20" width="349.126607" height="377.163023"/>
  </clipPath>
 </defs>
</svg>
