<?xml version="1.0" encoding="utf-8" standalone="no"?>
<!DOCTYPE svg PUBLIC "-//W3C//DTD SVG 1.1//EN"
  "http://www.w3.org/Graphics/SVG/1.1/DTD/svg11.dtd">
<svg xmlns:xlink="http://www.w3.org/1999/xlink" width="463.998845pt" height="463.99896pt" viewBox="0 0 463.998845 463.99896" xmlns="http://www.w3.org/2000/svg" version="1.1">
 <metadata>
  <rdf:RDF xmlns:dc="http://purl.org/dc/elements/1.1/" xmlns:cc="http://creativecommons.org/ns#" xmlns:rdf="http://www.w3.org/1999/02/22-rdf-syntax-ns#">
   <cc:Work>
    <dc:type rdf:resource="http://purl.org/dc/dcmitype/StillImage"/>
    <dc:date>2025-02-06T14:51:13.656103</dc:date>
    <dc:format>image/svg+xml</dc:format>
    <dc:creator>
     <cc:Agent>
      <dc:title>Matplotlib v3.8.4, https://matplotlib.org/</dc:title>
     </cc:Agent>
    </dc:creator>
   </cc:Work>
  </rdf:RDF>
 </metadata>
 <defs>
  <style type="text/css">*{stroke-linejoin: round; stroke-linecap: butt}</style>
 </defs>
 <g id="figure_1">
  <g id="patch_1">
   <path d="M 0 463.99896 
L 463.998845 463.99896 
L 463.998845 0 
L 0 0 
L 0 463.99896 
z
" style="fill: none"/>
  </g>
  <g id="axes_1">
   <g id="patch_2">
    <path d="M 81.762344 397.163023 
L 430.888966 397.163023 
L 430.888966 20 
L 81.762344 20 
L 81.762344 397.163023 
z
" style="fill: none"/>
   </g>
   <g id="matplotlib.axis_1">
    <g id="xtick_1">
     <g id="line2d_1">
      <defs>
       <path id="m39173bd0b9" d="M 0 0 
L 0 5 
" style="stroke: #000000; stroke-width: 0.75"/>
      </defs>
      <g>
       <use xlink:href="#m39173bd0b9" x="85.59915" y="397.163023" style="stroke: #000000; stroke-width: 0.75"/>
      </g>
     </g>
     <g id="text_1">
      <text style="font: 14.5px &quot;Suisse Int&apos;l Mono&quot;; text-anchor: middle" x="85.59915" y="417.675522" transform="rotate(-0 85.59915 417.675522)">540</text>
     </g>
    </g>
    <g id="xtick_2">
     <g id="line2d_2">
      <g>
       <use xlink:href="#m39173bd0b9" x="142.990909" y="397.163023" style="stroke: #000000; stroke-width: 0.75"/>
      </g>
     </g>
     <g id="text_2">
      <text style="font: 14.5px &quot;Suisse Int&apos;l Mono&quot;; text-anchor: middle" x="142.990909" y="417.675522" transform="rotate(-0 142.990909 417.675522)">560</text>
     </g>
    </g>
    <g id="xtick_3">
     <g id="line2d_3">
      <g>
       <use xlink:href="#m39173bd0b9" x="200.382668" y="397.163023" style="stroke: #000000; stroke-width: 0.75"/>
      </g>
     </g>
     <g id="text_3">
      <text style="font: 14.5px &quot;Suisse Int&apos;l Mono&quot;; text-anchor: middle" x="200.382668" y="417.675522" transform="rotate(-0 200.382668 417.675522)">580</text>
     </g>
    </g>
    <g id="xtick_4">
     <g id="line2d_4">
      <g>
       <use xlink:href="#m39173bd0b9" x="257.774427" y="397.163023" style="stroke: #000000; stroke-width: 0.75"/>
      </g>
     </g>
     <g id="text_4">
      <text style="font: 14.5px &quot;Suisse Int&apos;l Mono&quot;; text-anchor: middle" x="257.774427" y="417.675522" transform="rotate(-0 257.774427 417.675522)">600</text>
     </g>
    </g>
    <g id="xtick_5">
     <g id="line2d_5">
      <g>
       <use xlink:href="#m39173bd0b9" x="315.166186" y="397.163023" style="stroke: #000000; stroke-width: 0.75"/>
      </g>
     </g>
     <g id="text_5">
      <text style="font: 14.5px &quot;Suisse Int&apos;l Mono&quot;; text-anchor: middle" x="315.166186" y="417.675522" transform="rotate(-0 315.166186 417.675522)">620</text>
     </g>
    </g>
    <g id="xtick_6">
     <g id="line2d_6">
      <g>
       <use xlink:href="#m39173bd0b9" x="372.557946" y="397.163023" style="stroke: #000000; stroke-width: 0.75"/>
      </g>
     </g>
     <g id="text_6">
      <text style="font: 14.5px &quot;Suisse Int&apos;l Mono&quot;; text-anchor: middle" x="372.557946" y="417.675522" transform="rotate(-0 372.557946 417.675522)">640</text>
     </g>
    </g>
    <g id="xtick_7">
     <g id="line2d_7">
      <g>
       <use xlink:href="#m39173bd0b9" x="429.949705" y="397.163023" style="stroke: #000000; stroke-width: 0.75"/>
      </g>
     </g>
     <g id="text_7">
      <text style="font: 14.5px &quot;Suisse Int&apos;l Mono&quot;; text-anchor: middle" x="429.949705" y="417.675522" transform="rotate(-0 429.949705 417.675522)">660</text>
     </g>
    </g>
    <g id="text_8">
     <text style="font: 500 15px &quot;Suisse Int&apos;l&quot;, sans-serif; text-anchor: middle" x="256.325655" y="441.088023" transform="rotate(-0 256.325655 441.088023)">Wavelength (nm)</text>
    </g>
   </g>
   <g id="matplotlib.axis_2">
    <g id="ytick_1">
     <g id="line2d_8">
      <defs>
       <path id="m9af445ad66" d="M 0 0 
L -5 0 
" style="stroke: #000000; stroke-width: 0.75"/>
      </defs>
      <g>
       <use xlink:href="#m9af445ad66" x="81.762344" y="382.571321" style="stroke: #000000; stroke-width: 0.75"/>
      </g>
     </g>
     <g id="text_9">
      <text style="font: 14.5px &quot;Suisse Int&apos;l Mono&quot;; text-anchor: end" x="71.762344" y="387.827571" transform="rotate(-0 71.762344 387.827571)">0.0</text>
     </g>
    </g>
    <g id="ytick_2">
     <g id="line2d_9">
      <g>
       <use xlink:href="#m9af445ad66" x="81.762344" y="327.318902" style="stroke: #000000; stroke-width: 0.75"/>
      </g>
     </g>
     <g id="text_10">
      <text style="font: 14.5px &quot;Suisse Int&apos;l Mono&quot;; text-anchor: end" x="71.762344" y="332.575152" transform="rotate(-0 71.762344 332.575152)">0.5</text>
     </g>
    </g>
    <g id="ytick_3">
     <g id="line2d_10">
      <g>
       <use xlink:href="#m9af445ad66" x="81.762344" y="272.066483" style="stroke: #000000; stroke-width: 0.75"/>
      </g>
     </g>
     <g id="text_11">
      <text style="font: 14.5px &quot;Suisse Int&apos;l Mono&quot;; text-anchor: end" x="71.762344" y="277.322733" transform="rotate(-0 71.762344 277.322733)">1.0</text>
     </g>
    </g>
    <g id="ytick_4">
     <g id="line2d_11">
      <g>
       <use xlink:href="#m9af445ad66" x="81.762344" y="216.814064" style="stroke: #000000; stroke-width: 0.75"/>
      </g>
     </g>
     <g id="text_12">
      <text style="font: 14.5px &quot;Suisse Int&apos;l Mono&quot;; text-anchor: end" x="71.762344" y="222.070314" transform="rotate(-0 71.762344 222.070314)">1.5</text>
     </g>
    </g>
    <g id="ytick_5">
     <g id="line2d_12">
      <g>
       <use xlink:href="#m9af445ad66" x="81.762344" y="161.561645" style="stroke: #000000; stroke-width: 0.75"/>
      </g>
     </g>
     <g id="text_13">
      <text style="font: 14.5px &quot;Suisse Int&apos;l Mono&quot;; text-anchor: end" x="71.762344" y="166.817895" transform="rotate(-0 71.762344 166.817895)">2.0</text>
     </g>
    </g>
    <g id="ytick_6">
     <g id="line2d_13">
      <g>
       <use xlink:href="#m9af445ad66" x="81.762344" y="106.309226" style="stroke: #000000; stroke-width: 0.75"/>
      </g>
     </g>
     <g id="text_14">
      <text style="font: 14.5px &quot;Suisse Int&apos;l Mono&quot;; text-anchor: end" x="71.762344" y="111.565476" transform="rotate(-0 71.762344 111.565476)">2.5</text>
     </g>
    </g>
    <g id="ytick_7">
     <g id="line2d_14">
      <g>
       <use xlink:href="#m9af445ad66" x="81.762344" y="51.056807" style="stroke: #000000; stroke-width: 0.75"/>
      </g>
     </g>
     <g id="text_15">
      <text style="font: 14.5px &quot;Suisse Int&apos;l Mono&quot;; text-anchor: end" x="71.762344" y="56.313057" transform="rotate(-0 71.762344 56.313057)">3.0</text>
     </g>
    </g>
    <g id="text_16">
     <text style="font: 500 15px &quot;Suisse Int&apos;l&quot;, sans-serif; text-anchor: middle" x="30.875" y="208.581511" transform="rotate(-90 30.875 208.581511)">Intensity (au)</text>
    </g>
   </g>
   <g id="line2d_15">
    <path d="M 94.692959 382.69607 
L 95.324646 382.739168 
L 95.79841 382.788898 
L 97.219704 382.887268 
L 97.377626 382.676208 
L 97.85139 382.773464 
L 98.483076 382.867413 
L 98.798919 382.760234 
L 100.220213 382.42988 
L 100.378135 382.555861 
L 100.693978 382.555873 
L 101.167742 382.905086 
L 101.483586 382.899574 
L 101.799429 382.748196 
L 102.115272 382.641022 
L 102.589036 382.611208 
L 103.378644 382.993596 
L 104.168252 382.628978 
L 104.957859 382.927393 
L 105.431624 382.877701 
L 105.747467 382.857835 
L 105.905389 382.609213 
L 106.06331 382.609226 
L 106.379153 382.79269 
L 107.010839 382.824792 
L 107.168761 382.634739 
L 107.484604 382.633663 
L 107.642526 382.831481 
L 107.958369 382.78068 
L 108.274212 382.696727 
L 108.432133 382.871341 
L 109.221741 382.825012 
L 109.695506 382.639416 
L 110.16927 382.800807 
L 110.643035 382.862745 
L 110.958878 382.946768 
L 111.274721 382.554515 
L 111.432643 382.554535 
L 111.906407 382.98667 
L 112.853936 382.705012 
L 113.327701 382.766962 
L 113.801466 382.463141 
L 114.117309 382.65657 
L 114.748995 382.564942 
L 115.064838 382.538467 
L 115.380681 383.021419 
L 116.32821 383.062453 
L 116.644053 382.726571 
L 117.117818 382.658138 
L 117.275739 382.785245 
L 117.591583 382.620647 
L 118.38119 382.663881 
L 118.697033 382.815328 
L 119.328719 382.770135 
L 119.486641 382.930396 
L 119.644563 382.816606 
L 119.960406 382.940431 
L 120.118327 382.940461 
L 120.592092 382.642191 
L 120.907935 382.826797 
L 121.065856 382.826828 
L 121.3817 382.527424 
L 121.697543 382.527488 
L 122.013386 382.810444 
L 123.118836 382.875872 
L 123.43468 383.033962 
L 123.592601 383.033997 
L 123.908444 382.71913 
L 124.54013 382.601033 
L 124.855973 382.667409 
L 125.329738 382.572483 
L 125.961424 382.984813 
L 126.435189 382.925254 
L 127.224796 382.642556 
L 127.54064 382.87359 
L 127.856483 382.87367 
L 128.172326 382.745565 
L 129.119855 382.715975 
L 129.435698 382.869659 
L 129.751541 382.80123 
L 130.067384 382.91403 
L 130.69907 382.91973 
L 131.172835 382.937544 
L 131.804521 382.727768 
L 134.173344 382.687587 
L 134.489187 382.557287 
L 134.647109 382.724198 
L 136.700089 382.73257 
L 136.85801 382.554707 
L 137.331775 382.609005 
L 137.80554 382.644517 
L 138.121383 382.644617 
L 138.279304 382.907669 
L 138.753069 382.95092 
L 138.91099 382.92666 
L 139.068912 382.784162 
L 139.226833 382.863777 
L 139.542677 382.68155 
L 139.85852 382.792161 
L 140.174363 382.887303 
L 140.490206 383.013387 
L 140.96397 382.680932 
L 142.069421 382.605074 
L 142.385264 382.826197 
L 142.701107 382.818575 
L 142.859029 382.54237 
L 143.174872 382.497177 
L 143.648637 382.852068 
L 144.280323 382.773841 
L 144.596166 382.834736 
L 146.491224 382.869713 
L 146.807067 382.954925 
L 147.12291 382.886536 
L 147.754597 382.872424 
L 148.07044 382.769782 
L 148.386283 383.06496 
L 148.544204 383.065025 
L 148.702126 382.717 
L 148.860047 382.717066 
L 149.017969 382.953613 
L 149.333812 382.852082 
L 149.649655 382.761602 
L 151.22887 382.75234 
L 151.386792 382.697157 
L 151.702635 382.755864 
L 152.018478 382.756004 
L 152.334321 382.642325 
L 152.650164 382.845795 
L 153.123929 382.757605 
L 153.439772 382.722387 
L 153.755615 382.779993 
L 154.071458 382.879593 
L 154.387301 382.675305 
L 156.440281 382.890654 
L 157.229889 382.941875 
L 157.545732 383.038172 
L 157.703654 382.958689 
L 157.861575 382.610678 
L 158.177418 382.710293 
L 158.493261 382.816539 
L 159.282869 382.513056 
L 159.756634 382.680161 
L 160.38832 382.987691 
L 160.704163 382.956915 
L 161.177927 382.794724 
L 162.4413 382.755622 
L 162.757143 382.625398 
L 163.072986 382.632201 
L 163.230907 382.837826 
L 163.862594 382.887901 
L 164.336358 382.701412 
L 164.968044 382.945982 
L 165.283887 382.859968 
L 165.441809 382.864478 
L 165.757652 383.076829 
L 165.915574 383.07692 
L 166.231417 382.731224 
L 166.705181 382.754707 
L 166.863103 382.577992 
L 167.810632 382.676898 
L 168.126475 382.945611 
L 168.442318 382.837503 
L 168.758161 382.665304 
L 168.916083 382.58031 
L 170.021534 382.935693 
L 171.126984 382.884432 
L 171.600749 383.006281 
L 171.758671 382.79642 
L 172.074514 382.796618 
L 172.232435 383.016623 
L 172.548278 383.027873 
L 172.864121 382.802645 
L 174.127494 382.981376 
L 174.285415 383.149447 
L 175.390866 383.054051 
L 175.548787 382.803314 
L 175.864631 382.803531 
L 176.180474 382.906519 
L 176.338395 382.898894 
L 176.654238 382.599646 
L 176.970081 382.540194 
L 178.075532 382.626054 
L 178.391375 382.987626 
L 178.707218 382.944752 
L 179.023061 382.747173 
L 179.654747 382.773039 
L 179.970591 382.947863 
L 180.128512 382.947977 
L 180.444355 382.781343 
L 180.760198 382.664437 
L 181.076041 382.688978 
L 181.233963 382.787442 
L 181.391884 383.054979 
L 181.549806 383.055095 
L 181.865649 382.674086 
L 182.023571 382.674202 
L 182.181492 382.908589 
L 183.286943 382.816591 
L 183.602786 382.764893 
L 183.918629 382.851326 
L 184.392394 382.872684 
L 184.866158 382.47302 
L 185.182001 382.139538 
L 185.497844 382.049164 
L 185.971609 382.286002 
L 186.287452 382.591232 
L 186.761217 382.831383 
L 188.656275 382.728956 
L 189.13004 382.671862 
L 189.287961 382.025531 
L 189.603804 380.036687 
L 189.761726 380.036805 
L 190.077569 380.294509 
L 190.393412 380.226215 
L 190.709255 380.265102 
L 190.867177 380.650865 
L 191.340941 382.713181 
L 192.288471 382.994456 
L 192.920157 382.776058 
L 193.236 382.896711 
L 193.867686 382.863968 
L 194.815215 382.961832 
L 195.28898 383.008559 
L 195.604823 382.854063 
L 197.184038 383.048526 
L 197.815724 382.805859 
L 199.237018 382.927322 
L 199.552861 383.011534 
L 200.974155 382.506466 
L 201.132077 382.309884 
L 201.289998 382.31 
L 201.605841 382.517981 
L 201.921685 382.440859 
L 202.237528 382.362631 
L 203.185057 382.817498 
L 203.5009 382.817729 
L 203.974665 382.814764 
L 204.290508 382.877986 
L 204.606351 382.805288 
L 204.764272 382.594342 
L 205.238037 382.548284 
L 205.55388 381.444576 
L 205.869723 381.184016 
L 206.027645 381.164239 
L 206.185566 380.880354 
L 206.501409 380.957927 
L 206.975174 381.512979 
L 207.291017 382.574032 
L 207.448938 382.838241 
L 208.712311 382.84018 
L 209.028154 382.71773 
L 209.501918 382.697052 
L 209.817761 382.807769 
L 210.449448 382.825877 
L 211.239055 382.725857 
L 211.396977 382.725965 
L 211.870741 382.475444 
L 212.660349 382.415205 
L 212.818271 382.511452 
L 213.134114 382.402267 
L 213.449957 382.28203 
L 213.607878 382.219149 
L 213.923721 381.776237 
L 214.081643 381.331007 
L 214.239565 379.651437 
L 214.397486 373.585927 
L 214.555408 312.722174 
L 214.871251 50.013699 
L 215.029172 35.073546 
L 215.187094 35.073646 
L 215.345015 35.814129 
L 215.502937 35.81423 
L 215.976701 33.969102 
L 216.134623 54.169487 
L 216.608388 363.501561 
L 216.766309 376.613061 
L 217.082152 379.979224 
L 217.713838 381.647086 
L 218.029681 381.996446 
L 218.819289 382.142714 
L 219.135132 382.230171 
L 219.608897 382.256926 
L 220.082662 382.597512 
L 220.398505 382.535784 
L 220.714348 382.272936 
L 221.188112 382.026739 
L 221.346034 382.026814 
L 221.661877 382.170619 
L 221.97772 382.303372 
L 222.293563 382.88809 
L 222.451485 382.888163 
L 222.609406 382.638496 
L 222.767328 382.05842 
L 222.925249 379.552244 
L 223.241092 362.362252 
L 223.399014 358.268118 
L 223.556935 357.566483 
L 224.188622 357.376696 
L 224.346543 357.611037 
L 224.504465 358.527193 
L 225.136151 382.042901 
L 225.294072 382.563446 
L 227.504974 382.998682 
L 227.820817 383.129218 
L 228.13666 382.909456 
L 228.452503 382.779205 
L 228.768346 382.758354 
L 228.926268 382.526367 
L 229.242111 381.722037 
L 229.557954 381.671346 
L 229.873797 381.732263 
L 230.505483 381.279458 
L 231.295091 382.090871 
L 231.610934 382.295424 
L 231.768855 382.55959 
L 232.084698 382.559708 
L 232.716385 382.515742 
L 233.032228 382.663937 
L 233.348071 382.605487 
L 233.821835 382.403441 
L 234.137678 382.541689 
L 234.611443 382.587173 
L 235.085208 382.694539 
L 235.401051 382.892461 
L 235.716894 382.920207 
L 236.032737 382.826398 
L 237.296109 382.86778 
L 237.454031 382.687721 
L 237.769874 382.753046 
L 238.085717 382.925561 
L 239.507011 382.92505 
L 239.822854 382.720752 
L 240.612462 382.589593 
L 240.770383 382.229416 
L 240.928305 380.239293 
L 241.559991 337.03106 
L 242.033755 335.970412 
L 242.349599 335.924132 
L 242.50752 336.77619 
L 242.665442 342.495986 
L 242.981285 375.695087 
L 243.297128 382.023815 
L 243.455049 382.672535 
L 243.770892 382.80857 
L 244.086735 382.677183 
L 245.192186 382.656591 
L 245.508029 382.93297 
L 245.823872 382.929772 
L 246.139715 382.705566 
L 246.929323 382.615252 
L 247.245166 382.468402 
L 247.561009 382.32597 
L 248.192695 382.325102 
L 248.508539 382.509763 
L 248.824382 382.793877 
L 249.140225 382.793994 
L 249.613989 382.383094 
L 249.771911 380.984162 
L 250.245675 370.702952 
L 250.403597 370.377014 
L 251.035283 370.210358 
L 251.193205 370.406003 
L 251.351126 371.643708 
L 251.982812 382.323093 
L 252.298656 382.823773 
L 252.930342 382.938886 
L 253.246185 382.972134 
L 253.562028 382.760063 
L 253.877871 382.334718 
L 254.983322 382.345001 
L 255.299165 382.530744 
L 255.772929 382.717639 
L 256.088772 382.757516 
L 256.246694 382.957578 
L 256.720459 382.975405 
L 257.036302 382.863894 
L 257.667988 382.787848 
L 257.983831 382.937132 
L 259.089282 382.81042 
L 259.247203 382.995016 
L 261.458105 383.043333 
L 261.773948 382.900903 
L 262.405634 382.901151 
L 262.721477 382.783037 
L 262.879399 382.78531 
L 263.195242 382.968875 
L 263.511085 382.99663 
L 263.826928 382.86968 
L 264.458614 382.89315 
L 264.774457 383.063461 
L 264.932379 383.063529 
L 265.248222 382.748727 
L 265.406143 381.255876 
L 265.721986 371.327144 
L 265.879908 368.888362 
L 266.037829 368.648627 
L 266.353672 368.573605 
L 266.669516 368.446645 
L 266.827437 368.484277 
L 266.985359 369.889959 
L 267.617045 382.54852 
L 267.774966 382.645819 
L 268.090809 383.042642 
L 268.406653 382.979766 
L 268.564574 382.664884 
L 269.19626 382.714839 
L 269.354182 383.022099 
L 269.670025 383.03658 
L 270.301711 382.812492 
L 271.24924 382.822799 
L 271.407162 382.878112 
L 271.565083 383.084818 
L 271.880926 382.987698 
L 272.038848 382.889411 
L 272.196769 382.987823 
L 272.670534 382.841044 
L 273.933906 382.884664 
L 274.249749 382.948891 
L 274.565593 382.79874 
L 275.197279 382.821114 
L 277.40818 382.83205 
L 277.566102 382.607797 
L 277.881945 382.569266 
L 278.039866 381.342735 
L 278.355709 350.265602 
L 278.513631 337.657072 
L 278.829474 334.431579 
L 279.145317 334.385309 
L 279.46116 334.516953 
L 279.619082 336.032046 
L 279.777003 342.063471 
L 280.092846 375.123347 
L 280.250768 381.091777 
L 280.408689 382.180312 
L 280.724533 382.549522 
L 280.882454 382.34515 
L 281.040376 382.507654 
L 281.356219 382.507777 
L 281.51414 382.811726 
L 283.251277 382.796949 
L 284.040885 382.497804 
L 284.198806 381.999491 
L 284.356728 378.778339 
L 284.672571 315.508915 
L 284.830493 300.260413 
L 285.146336 298.847176 
L 285.462179 298.436219 
L 285.6201 298.436279 
L 285.778022 298.849627 
L 285.935943 302.536129 
L 286.409708 375.824223 
L 286.725551 381.896569 
L 286.883473 382.324273 
L 287.67308 382.408507 
L 287.988923 382.848416 
L 288.304766 383.009853 
L 288.462688 383.009904 
L 288.778531 382.854194 
L 289.568139 382.837881 
L 289.883982 382.68107 
L 290.041903 382.681124 
L 290.199825 382.888926 
L 291.463197 382.806488 
L 291.77904 382.707146 
L 292.410726 382.820089 
L 292.568648 382.655495 
L 292.884491 382.665556 
L 293.200334 382.831429 
L 293.516177 382.777399 
L 293.83202 381.563068 
L 294.147863 380.583003 
L 294.463706 380.457134 
L 295.095393 380.513677 
L 295.253314 380.844128 
L 295.727079 382.741612 
L 297.148373 382.892252 
L 297.464216 382.513302 
L 297.622137 381.558581 
L 297.780059 377.914171 
L 298.253823 256.976677 
L 298.569666 253.458273 
L 298.727588 253.239509 
L 298.88551 252.678179 
L 299.043431 252.678214 
L 299.201353 252.956722 
L 299.359274 259.104141 
L 299.99096 378.957829 
L 300.306803 381.36358 
L 300.464725 381.414441 
L 300.622647 381.784659 
L 300.93849 381.936103 
L 301.886019 382.686576 
L 303.307313 382.873551 
L 303.465234 382.674668 
L 303.623156 381.281228 
L 303.781077 373.110525 
L 304.09692 347.832593 
L 304.254842 345.315317 
L 304.412763 344.950676 
L 304.570685 344.9507 
L 305.04445 345.305495 
L 305.202371 347.370855 
L 305.360293 353.790106 
L 305.676136 376.245843 
L 305.834057 381.074923 
L 305.991979 382.165622 
L 306.465743 382.665153 
L 306.939508 382.621 
L 307.09743 382.801139 
L 307.729116 382.702857 
L 308.20288 382.671968 
L 308.518723 382.744937 
L 309.624174 382.72186 
L 309.940017 382.432375 
L 310.25586 382.516396 
L 311.20339 383.070139 
L 311.519233 382.897792 
L 312.782605 382.954326 
L 313.098448 383.094715 
L 313.414291 383.017411 
L 313.730134 382.829605 
L 313.888056 382.750067 
L 314.677663 383.050776 
L 314.835585 382.790013 
L 315.783114 382.868646 
L 316.256879 383.002447 
L 317.36233 382.950736 
L 317.994016 382.894515 
L 318.309859 382.565281 
L 318.783624 382.542181 
L 318.941545 381.865926 
L 319.099467 379.430434 
L 319.41531 361.179517 
L 319.573231 356.805767 
L 319.731153 356.238909 
L 319.889074 356.23894 
L 320.046996 356.722982 
L 320.204917 356.7639 
L 320.362839 357.073345 
L 320.52076 357.961835 
L 320.678682 360.796316 
L 321.152447 380.282825 
L 321.310368 382.184635 
L 321.626211 382.351539 
L 321.784133 382.35156 
L 322.099976 382.783675 
L 323.363348 382.853465 
L 323.837113 383.09775 
L 323.995034 383.097774 
L 324.310877 382.882338 
L 324.62672 382.89565 
L 324.942564 383.024992 
L 325.100485 383.025019 
L 325.416328 382.893573 
L 326.995544 383.123718 
L 327.311387 382.868517 
L 328.574759 382.788121 
L 328.890602 382.704208 
L 329.206445 382.816994 
L 329.522288 383.031446 
L 329.68021 383.031483 
L 330.153974 382.747599 
L 330.311896 382.747637 
L 330.627739 382.945518 
L 331.101504 382.874913 
L 331.575268 382.840777 
L 331.891111 382.908267 
L 332.364876 382.687383 
L 332.680719 382.759295 
L 332.838641 382.69414 
L 332.996562 382.004632 
L 333.154484 379.511685 
L 333.628248 307.201856 
L 333.78617 302.266748 
L 333.944091 301.467837 
L 334.102013 301.467876 
L 334.417856 302.115512 
L 334.575777 304.163206 
L 334.733699 309.385703 
L 335.365385 378.824889 
L 335.523307 380.978663 
L 335.83915 381.946751 
L 336.154993 382.404305 
L 336.786679 382.468522 
L 337.102522 382.750371 
L 337.418365 382.799055 
L 337.89213 382.770419 
L 338.365894 382.906437 
L 338.839659 382.807082 
L 339.471345 383.193986 
L 339.629267 383.194022 
L 339.94511 382.872526 
L 340.260953 382.814032 
L 340.892639 382.872752 
L 341.050561 382.705928 
L 341.366404 382.732527 
L 341.524325 383.008828 
L 341.840168 382.994542 
L 342.156011 382.853177 
L 342.471854 383.002441 
L 342.629776 383.002483 
L 342.787697 382.801406 
L 343.261462 382.819215 
L 343.893148 382.788448 
L 344.05107 381.749747 
L 344.208991 378.645709 
L 344.524834 358.58474 
L 344.682756 353.668419 
L 344.840677 352.396548 
L 345.156521 352.182247 
L 345.314442 352.204388 
L 345.472364 352.581249 
L 345.630285 354.370361 
L 345.788207 358.782859 
L 346.261971 379.031884 
L 346.419893 381.575741 
L 346.735736 382.399072 
L 347.683265 382.637967 
L 348.15703 382.53309 
L 348.314951 382.648049 
L 348.630794 383.050355 
L 348.946638 383.050426 
L 349.262481 383.169844 
L 349.894167 382.893733 
L 350.999618 382.716098 
L 351.157539 382.444296 
L 351.473382 382.318401 
L 351.789225 382.027853 
L 352.26299 381.985976 
L 352.420911 381.58046 
L 352.578833 380.318531 
L 352.736754 369.68358 
L 353.052598 320.97864 
L 353.368441 307.999915 
L 353.526362 307.999949 
L 353.842205 308.934888 
L 354.000127 310.138319 
L 354.158048 314.407155 
L 354.31597 325.151575 
L 354.631813 360.744146 
L 354.947656 379.317867 
L 355.263499 381.618637 
L 355.579342 382.096074 
L 356.211028 382.465266 
L 356.684793 382.340474 
L 357.000636 382.607946 
L 357.316479 382.76381 
L 357.474401 382.774886 
L 357.790244 382.90644 
L 358.264008 382.809277 
L 359.053616 382.860249 
L 359.527381 382.915589 
L 360.47491 382.846154 
L 360.790753 382.952302 
L 360.948674 382.952334 
L 361.264518 383.092741 
L 361.738282 382.651928 
L 362.212047 382.876356 
L 362.52789 382.681937 
L 363.001654 382.573748 
L 363.633341 382.912034 
L 364.107105 382.695553 
L 364.58087 382.792908 
L 364.896713 382.879176 
L 366.002164 382.74905 
L 366.160085 382.615378 
L 366.318007 382.310424 
L 366.475928 380.888266 
L 366.63385 371.629103 
L 366.949693 292.120947 
L 367.265536 260.178494 
L 367.581379 260.066959 
L 367.897222 262.03844 
L 368.055144 265.857525 
L 368.213065 277.320229 
L 368.68683 356.586566 
L 369.002673 377.699696 
L 369.318516 380.593879 
L 369.792281 382.143236 
L 369.950202 382.143261 
L 370.266045 382.005178 
L 370.423967 382.069295 
L 370.581888 382.312428 
L 371.055653 382.240667 
L 371.213575 382.457278 
L 371.371496 382.4573 
L 371.687339 382.146824 
L 371.845261 381.472765 
L 372.003182 379.604148 
L 372.161104 365.227485 
L 372.476947 241.402428 
L 372.79279 187.268351 
L 372.950711 185.767712 
L 373.108633 185.767729 
L 373.424476 189.814449 
L 373.582398 195.676748 
L 373.740319 211.243581 
L 374.214084 337.63796 
L 374.529927 374.716786 
L 374.84577 379.520445 
L 375.161613 380.712792 
L 375.635378 381.559245 
L 376.89875 382.697376 
L 377.214593 382.775816 
L 377.688358 382.826623 
L 377.846279 382.800093 
L 378.004201 382.616647 
L 378.635887 382.661923 
L 379.267573 382.861907 
L 379.583416 382.666301 
L 379.899259 382.666288 
L 380.215102 382.951378 
L 380.530945 383.068502 
L 381.00471 382.666251 
L 381.478475 382.712651 
L 381.952239 382.8132 
L 382.583925 382.705999 
L 382.899768 382.878381 
L 383.373533 382.838594 
L 384.005219 383.005453 
L 384.321062 382.810966 
L 385.742356 382.781146 
L 386.058199 382.466213 
L 386.216121 382.466216 
L 386.689885 382.841941 
L 386.847807 382.808793 
L 387.005728 382.915987 
L 387.16365 382.808801 
L 387.321572 382.915995 
L 387.479493 382.729246 
L 387.637415 382.933685 
L 387.795336 382.740306 
L 387.953258 382.958006 
L 388.269101 383.005535 
L 388.584944 383.140364 
L 388.742865 382.933727 
L 389.374552 382.987909 
L 389.690395 383.118324 
L 389.848316 383.118334 
L 390.164159 382.795682 
L 391.26961 382.890802 
L 391.743375 382.908524 
L 392.059218 382.822359 
L 392.375061 382.908583 
L 392.848825 383.044551 
L 393.480512 382.951797 
L 393.796355 382.853485 
L 394.428041 382.836987 
L 394.743884 382.753044 
L 396.007256 382.833883 
L 396.323099 382.901336 
L 397.270628 382.889322 
L 397.744393 382.913709 
L 397.902315 382.535808 
L 398.218158 382.588902 
L 398.534001 382.825433 
L 399.323609 382.825567 
L 399.639452 382.66097 
L 400.113216 382.698624 
L 400.429059 382.874383 
L 400.586981 382.93519 
L 401.692432 382.494482 
L 401.850353 382.088959 
L 402.008275 380.477828 
L 402.166196 369.096962 
L 402.639961 262.731716 
L 402.955804 243.615539 
L 403.113725 243.615566 
L 403.271647 244.432224 
L 403.429569 246.418023 
L 403.58749 250.468052 
L 403.745412 259.371454 
L 404.219176 340.488717 
L 404.535019 371.879881 
L 404.850862 379.410834 
L 405.166705 381.185577 
L 405.482549 381.712714 
L 405.798392 381.875182 
L 406.272156 382.605654 
L 406.587999 382.673084 
L 407.377607 382.859896 
L 407.69345 382.705214 
L 408.009293 382.800275 
L 408.483058 382.636768 
L 409.114744 382.821366 
L 409.272665 382.643468 
L 409.430587 382.279922 
L 409.588509 381.530714 
L 409.74643 378.900712 
L 410.220195 349.126317 
L 410.536038 343.871832 
L 410.693959 343.352469 
L 410.851881 343.352478 
L 411.009802 343.667427 
L 411.167724 344.501748 
L 411.325645 347.002482 
L 411.957332 374.174555 
L 412.273175 380.247899 
L 412.589018 381.950767 
L 412.904861 382.723181 
L 413.220704 382.775105 
L 413.536547 382.599389 
L 413.694469 382.599382 
L 413.85239 382.766238 
L 414.010312 382.766232 
L 414.326155 382.65461 
L 414.957841 382.997152 
L 415.431606 382.908735 
L 415.747449 382.740761 
L 416.852899 382.765053 
L 417.010821 382.544042 
L 417.168742 382.54404 
L 417.484586 382.913123 
L 417.95835 382.988264 
L 417.95835 382.988264 
" clip-path="url(#pa74e2b0a7e)" style="fill: none; stroke: #5088c5; stroke-linecap: round"/>
   </g>
   <g id="line2d_16">
    <defs>
     <path id="m1692a51532" d="M 0 2 
C 0.530406 2 1.03916 1.789267 1.414214 1.414214 
C 1.789267 1.03916 2 0.530406 2 0 
C 2 -0.530406 1.789267 -1.03916 1.414214 -1.414214 
C 1.03916 -1.789267 0.530406 -2 0 -2 
C -0.530406 -2 -1.03916 -1.789267 -1.414214 -1.414214 
C -1.789267 -1.03916 -2 -0.530406 -2 0 
C -2 0.530406 -1.789267 1.03916 -1.414214 1.414214 
C -1.03916 1.789267 -0.530406 2 0 2 
z
"/>
    </defs>
    <g clip-path="url(#pa74e2b0a7e)">
     <use xlink:href="#m1692a51532" x="215.496908" y="35.81423" style="fill: #f28360"/>
     <use xlink:href="#m1692a51532" x="223.933122" y="357.427388" style="fill: #f28360"/>
     <use xlink:href="#m1692a51532" x="241.991371" y="335.970412" style="fill: #f28360"/>
     <use xlink:href="#m1692a51532" x="279.10764" y="334.385309" style="fill: #f28360"/>
     <use xlink:href="#m1692a51532" x="285.359928" y="298.555504" style="fill: #f28360"/>
     <use xlink:href="#m1692a51532" x="298.80055" y="253.239509" style="fill: #f28360"/>
     <use xlink:href="#m1692a51532" x="304.683629" y="345.077806" style="fill: #f28360"/>
     <use xlink:href="#m1692a51532" x="320.058624" y="356.722982" style="fill: #f28360"/>
     <use xlink:href="#m1692a51532" x="334.186463" y="301.741967" style="fill: #f28360"/>
     <use xlink:href="#m1692a51532" x="345.171652" y="352.182247" style="fill: #f28360"/>
     <use xlink:href="#m1692a51532" x="353.678781" y="308.370174" style="fill: #f28360"/>
     <use xlink:href="#m1692a51532" x="367.639467" y="260.066959" style="fill: #f28360"/>
     <use xlink:href="#m1692a51532" x="373.177769" y="185.767729" style="fill: #f28360"/>
     <use xlink:href="#m1692a51532" x="403.21938" y="244.432224" style="fill: #f28360"/>
     <use xlink:href="#m1692a51532" x="410.831229" y="343.352478" style="fill: #f28360"/>
    </g>
   </g>
   <g id="patch_3">
    <path d="M 81.762344 397.163023 
L 81.762344 20 
" style="fill: none; stroke: #000000; stroke-width: 0.75; stroke-linejoin: miter; stroke-linecap: square"/>
   </g>
   <g id="patch_4">
    <path d="M 81.762344 397.163023 
L 430.888966 397.163023 
" style="fill: none; stroke: #000000; stroke-width: 0.75; stroke-linejoin: miter; stroke-linecap: square"/>
   </g>
  </g>
 </g>
 <defs>
  <clipPath id="pa74e2b0a7e">
   <rect x="81.762344" y="20" width="349.126622" height="377.163023"/>
  </clipPath>
 </defs>
</svg>
