<?xml version="1.0" encoding="utf-8" standalone="no"?>
<!DOCTYPE svg PUBLIC "-//W3C//DTD SVG 1.1//EN"
  "http://www.w3.org/Graphics/SVG/1.1/DTD/svg11.dtd">
<svg xmlns:xlink="http://www.w3.org/1999/xlink" width="463.951477pt" height="463.99896pt" viewBox="0 0 463.951477 463.99896" xmlns="http://www.w3.org/2000/svg" version="1.1">
 <metadata>
  <rdf:RDF xmlns:dc="http://purl.org/dc/elements/1.1/" xmlns:cc="http://creativecommons.org/ns#" xmlns:rdf="http://www.w3.org/1999/02/22-rdf-syntax-ns#">
   <cc:Work>
    <dc:type rdf:resource="http://purl.org/dc/dcmitype/StillImage"/>
    <dc:date>2025-01-29T10:28:11.539799</dc:date>
    <dc:format>image/svg+xml</dc:format>
    <dc:creator>
     <cc:Agent>
      <dc:title>Matplotlib v3.8.4, https://matplotlib.org/</dc:title>
     </cc:Agent>
    </dc:creator>
   </cc:Work>
  </rdf:RDF>
 </metadata>
 <defs>
  <style type="text/css">*{stroke-linejoin: round; stroke-linecap: butt}</style>
 </defs>
 <g id="figure_1">
  <g id="patch_1">
   <path d="M 0 463.99896 
L 463.951477 463.99896 
L 463.951477 0 
L 0 0 
L 0 463.99896 
z
" style="fill: none"/>
  </g>
  <g id="axes_1">
   <g id="patch_2">
    <path d="M 91.128438 397.284897 
L 443.305804 397.284897 
L 443.305804 20 
L 91.128438 20 
L 91.128438 397.284897 
z
" style="fill: none"/>
   </g>
   <g id="matplotlib.axis_1">
    <g id="xtick_1">
     <g id="line2d_1">
      <defs>
       <path id="mb3481557a7" d="M 0 0 
L 0 5 
" style="stroke: #000000; stroke-width: 0.75"/>
      </defs>
      <g>
       <use xlink:href="#mb3481557a7" x="115.129225" y="397.284897" style="stroke: #000000; stroke-width: 0.75"/>
      </g>
     </g>
     <g id="text_1">
      <text style="font: 14.5px &quot;Suisse Int&apos;l Mono&quot;; text-anchor: middle" x="115.129225" y="417.797397" transform="rotate(-0 115.129225 417.797397)">500</text>
     </g>
    </g>
    <g id="xtick_2">
     <g id="line2d_2">
      <g>
       <use xlink:href="#mb3481557a7" x="166.810903" y="397.284897" style="stroke: #000000; stroke-width: 0.75"/>
      </g>
     </g>
     <g id="text_2">
      <text style="font: 14.5px &quot;Suisse Int&apos;l Mono&quot;; text-anchor: middle" x="166.810903" y="417.797397" transform="rotate(-0 166.810903 417.797397)">1000</text>
     </g>
    </g>
    <g id="xtick_3">
     <g id="line2d_3">
      <g>
       <use xlink:href="#mb3481557a7" x="218.49258" y="397.284897" style="stroke: #000000; stroke-width: 0.75"/>
      </g>
     </g>
     <g id="text_3">
      <text style="font: 14.5px &quot;Suisse Int&apos;l Mono&quot;; text-anchor: middle" x="218.49258" y="417.797397" transform="rotate(-0 218.49258 417.797397)">1500</text>
     </g>
    </g>
    <g id="xtick_4">
     <g id="line2d_4">
      <g>
       <use xlink:href="#mb3481557a7" x="270.174258" y="397.284897" style="stroke: #000000; stroke-width: 0.75"/>
      </g>
     </g>
     <g id="text_4">
      <text style="font: 14.5px &quot;Suisse Int&apos;l Mono&quot;; text-anchor: middle" x="270.174258" y="417.797397" transform="rotate(-0 270.174258 417.797397)">2000</text>
     </g>
    </g>
    <g id="xtick_5">
     <g id="line2d_5">
      <g>
       <use xlink:href="#mb3481557a7" x="321.855935" y="397.284897" style="stroke: #000000; stroke-width: 0.75"/>
      </g>
     </g>
     <g id="text_5">
      <text style="font: 14.5px &quot;Suisse Int&apos;l Mono&quot;; text-anchor: middle" x="321.855935" y="417.797397" transform="rotate(-0 321.855935 417.797397)">2500</text>
     </g>
    </g>
    <g id="xtick_6">
     <g id="line2d_6">
      <g>
       <use xlink:href="#mb3481557a7" x="373.537612" y="397.284897" style="stroke: #000000; stroke-width: 0.75"/>
      </g>
     </g>
     <g id="text_6">
      <text style="font: 14.5px &quot;Suisse Int&apos;l Mono&quot;; text-anchor: middle" x="373.537612" y="417.797397" transform="rotate(-0 373.537612 417.797397)">3000</text>
     </g>
    </g>
    <g id="xtick_7">
     <g id="line2d_7">
      <g>
       <use xlink:href="#mb3481557a7" x="425.21929" y="397.284897" style="stroke: #000000; stroke-width: 0.75"/>
      </g>
     </g>
     <g id="text_7">
      <text style="font: 14.5px &quot;Suisse Int&apos;l Mono&quot;; text-anchor: middle" x="425.21929" y="417.797397" transform="rotate(-0 425.21929 417.797397)">3500</text>
     </g>
    </g>
    <g id="text_8">
     <text style="font: 500 15px &quot;Suisse Int&apos;l&quot;, sans-serif; text-anchor: middle" x="267.217121" y="441.209898" transform="rotate(-0 267.217121 441.209898)">Raman shift (cm-1)</text>
    </g>
   </g>
   <g id="matplotlib.axis_2">
    <g id="ytick_1">
     <g id="line2d_8">
      <defs>
       <path id="maaae10814f" d="M 0 0 
L -5 0 
" style="stroke: #000000; stroke-width: 0.75"/>
      </defs>
      <g>
       <use xlink:href="#maaae10814f" x="91.128438" y="364.594037" style="stroke: #000000; stroke-width: 0.75"/>
      </g>
     </g>
     <g id="text_9">
      <text style="font: 14.5px &quot;Suisse Int&apos;l Mono&quot;; text-anchor: end" x="81.128438" y="369.850287" transform="rotate(-0 81.128438 369.850287)">0.00</text>
     </g>
    </g>
    <g id="ytick_2">
     <g id="line2d_9">
      <g>
       <use xlink:href="#maaae10814f" x="91.128438" y="304.001514" style="stroke: #000000; stroke-width: 0.75"/>
      </g>
     </g>
     <g id="text_10">
      <text style="font: 14.5px &quot;Suisse Int&apos;l Mono&quot;; text-anchor: end" x="81.128438" y="309.257764" transform="rotate(-0 81.128438 309.257764)">0.05</text>
     </g>
    </g>
    <g id="ytick_3">
     <g id="line2d_10">
      <g>
       <use xlink:href="#maaae10814f" x="91.128438" y="243.40899" style="stroke: #000000; stroke-width: 0.75"/>
      </g>
     </g>
     <g id="text_11">
      <text style="font: 14.5px &quot;Suisse Int&apos;l Mono&quot;; text-anchor: end" x="81.128438" y="248.66524" transform="rotate(-0 81.128438 248.66524)">0.10</text>
     </g>
    </g>
    <g id="ytick_4">
     <g id="line2d_11">
      <g>
       <use xlink:href="#maaae10814f" x="91.128438" y="182.816467" style="stroke: #000000; stroke-width: 0.75"/>
      </g>
     </g>
     <g id="text_12">
      <text style="font: 14.5px &quot;Suisse Int&apos;l Mono&quot;; text-anchor: end" x="81.128438" y="188.072717" transform="rotate(-0 81.128438 188.072717)">0.15</text>
     </g>
    </g>
    <g id="ytick_5">
     <g id="line2d_12">
      <g>
       <use xlink:href="#maaae10814f" x="91.128438" y="122.223943" style="stroke: #000000; stroke-width: 0.75"/>
      </g>
     </g>
     <g id="text_13">
      <text style="font: 14.5px &quot;Suisse Int&apos;l Mono&quot;; text-anchor: end" x="81.128438" y="127.480193" transform="rotate(-0 81.128438 127.480193)">0.20</text>
     </g>
    </g>
    <g id="ytick_6">
     <g id="line2d_13">
      <g>
       <use xlink:href="#maaae10814f" x="91.128438" y="61.63142" style="stroke: #000000; stroke-width: 0.75"/>
      </g>
     </g>
     <g id="text_14">
      <text style="font: 14.5px &quot;Suisse Int&apos;l Mono&quot;; text-anchor: end" x="81.128438" y="66.88767" transform="rotate(-0 81.128438 66.88767)">0.25</text>
     </g>
    </g>
    <g id="text_15">
     <text style="font: 500 15px &quot;Suisse Int&apos;l&quot;, sans-serif; text-anchor: middle" x="30.875" y="208.642449" transform="rotate(-90 30.875 208.642449)">Intensity (AU)</text>
    </g>
   </g>
   <g id="line2d_14">
    <path d="M 104.172044 369.37969 
L 104.364332 369.379695 
L 104.556581 371.306546 
L 104.748792 371.912488 
L 104.940964 371.306586 
L 105.133096 371.173313 
L 105.32519 370.046329 
L 105.517245 371.173392 
L 105.709262 370.04642 
L 105.901239 371.052311 
L 106.285077 371.052439 
L 106.476938 370.495061 
L 106.860544 370.604293 
L 107.243994 370.616601 
L 107.435661 370.119846 
L 107.627289 369.247422 
L 108.01043 370.568572 
L 108.201942 370.568698 
L 108.393416 371.029332 
L 108.584851 369.417709 
L 108.776247 370.629702 
L 108.967605 369.648251 
L 109.158923 369.648405 
L 109.350204 369.454668 
L 109.732649 368.521874 
L 109.923813 367.528329 
L 110.114939 367.407318 
L 110.306026 367.528681 
L 110.497075 368.546816 
L 110.688085 368.595474 
L 110.879057 370.328609 
L 111.06999 370.389396 
L 111.260885 370.329003 
L 111.451741 369.044648 
L 111.642559 368.523762 
L 112.024079 368.524194 
L 112.214782 368.076031 
L 112.596071 368.997493 
L 112.786658 368.997727 
L 112.977207 369.470587 
L 113.167717 370.997761 
L 113.358189 370.998011 
L 113.739018 369.180753 
L 113.929374 369.181018 
L 114.500215 370.878437 
L 114.880584 369.667169 
L 115.070711 368.116299 
L 115.640862 367.911202 
L 115.830836 370.14132 
L 116.020772 370.165875 
L 116.21067 370.384332 
L 116.400529 370.384661 
L 116.59035 369.270094 
L 116.969878 369.185949 
L 117.159585 370.979837 
L 117.349254 370.980192 
L 117.538884 370.750302 
L 117.728476 369.320687 
L 117.918031 369.32106 
L 118.107547 370.084903 
L 118.297025 371.781876 
L 118.486465 370.824905 
L 118.865231 372.267807 
L 119.054557 372.268218 
L 119.433094 367.954873 
L 119.622306 367.9553 
L 120.000616 369.531571 
L 120.189714 369.532011 
L 120.378774 367.738917 
L 120.567796 367.739365 
L 120.75678 369.703014 
L 120.945726 370.067025 
L 121.323505 370.067954 
L 121.512337 369.777583 
L 121.701132 370.177971 
L 122.078607 370.166825 
L 122.267288 366.968034 
L 122.455932 366.968531 
L 122.644537 367.308349 
L 122.833105 370.22941 
L 123.210126 371.466519 
L 123.398581 371.46704 
L 123.586997 369.698266 
L 123.775376 369.298888 
L 123.963717 367.893679 
L 124.340286 367.882645 
L 124.904856 371.944001 
L 125.092971 371.944567 
L 125.281048 370.818118 
L 125.469088 370.818697 
L 125.65709 371.849355 
L 125.845054 371.849948 
L 126.408721 370.385428 
L 126.596535 368.434967 
L 126.784311 368.084153 
L 126.97205 368.084779 
L 127.159751 368.897349 
L 127.535041 370.898175 
L 127.722629 370.898821 
L 127.910181 369.796689 
L 128.097694 369.676162 
L 128.28517 369.422335 
L 128.472609 367.617345 
L 128.66001 367.460475 
L 128.847374 367.618689 
L 129.0347 371.654827 
L 129.221989 373.109731 
L 129.596455 373.850352 
L 129.783632 373.851061 
L 130.344938 368.787705 
L 130.531965 368.71573 
L 130.718955 366.838103 
L 130.905908 366.838846 
L 131.279701 368.512694 
L 132.02684 368.57632 
L 132.400187 370.322926 
L 132.586804 370.590312 
L 132.773384 370.591097 
L 132.959927 370.131385 
L 133.146432 370.023115 
L 133.332901 370.132983 
L 133.519332 371.672841 
L 133.705726 371.673655 
L 134.63714 370.490215 
L 134.823312 369.99421 
L 135.009446 367.741027 
L 135.195544 367.741889 
L 135.567627 369.803769 
L 135.753613 369.622866 
L 135.939562 369.757049 
L 136.31135 369.698232 
L 136.497188 369.238624 
L 136.682989 369.239523 
L 136.868753 370.35533 
L 137.240171 370.466222 
L 137.425825 369.740034 
L 137.611441 369.740961 
L 138.168069 371.852396 
L 138.353538 371.59886 
L 138.53897 371.575583 
L 138.909724 368.620606 
L 139.28033 368.525614 
L 139.465578 367.860081 
L 139.650789 367.67929 
L 140.206201 367.694389 
L 140.391265 367.852929 
L 140.576293 366.16946 
L 140.761283 366.558257 
L 140.946237 366.038167 
L 141.131154 366.560271 
L 141.316034 368.900152 
L 141.500878 369.337433 
L 141.685685 369.338451 
L 141.870455 368.309402 
L 142.055189 368.068059 
L 142.793757 368.120678 
L 143.162822 368.898356 
L 143.347299 368.899409 
L 143.53174 370.015369 
L 143.716144 370.016432 
L 144.084843 368.564352 
L 144.269138 365.632751 
L 144.637617 365.634909 
L 145.005951 366.000625 
L 145.190063 366.171367 
L 145.374139 368.886997 
L 145.558178 368.888086 
L 145.742181 368.695283 
L 145.926147 368.69638 
L 146.110077 369.739673 
L 146.293971 369.874082 
L 146.477828 369.741891 
L 146.661648 370.227748 
L 146.845433 370.386411 
L 147.029181 371.235834 
L 147.212892 371.455102 
L 147.396568 371.456244 
L 147.580207 370.851467 
L 147.763809 367.944181 
L 147.947376 367.000096 
L 148.130906 367.001257 
L 148.314399 367.305382 
L 148.497857 367.367141 
L 148.681278 367.731864 
L 148.864663 367.733036 
L 149.231324 368.595803 
L 149.4146 368.596986 
L 149.59784 367.337848 
L 149.781044 367.339037 
L 149.964212 368.176406 
L 150.147343 368.177601 
L 150.513498 366.265278 
L 150.696521 366.266482 
L 151.062458 367.504982 
L 151.245373 367.506193 
L 151.428251 366.392504 
L 151.7939 366.394936 
L 151.97667 365.717518 
L 152.159404 365.718738 
L 152.524764 368.641742 
L 152.70739 368.64297 
L 152.88998 367.747432 
L 153.255052 367.665075 
L 153.437534 367.230049 
L 153.80239 365.729844 
L 153.984764 365.718971 
L 154.349404 364.594446 
L 154.531671 364.595694 
L 154.713901 366.39048 
L 154.896095 366.755285 
L 155.078254 367.604832 
L 155.260377 367.606087 
L 155.442463 366.928709 
L 155.624514 366.748191 
L 156.35236 364.923356 
L 157.079632 355.706224 
L 157.624711 334.91456 
L 157.806332 328.941317 
L 157.987918 327.17316 
L 158.169468 327.089438 
L 158.350982 326.121027 
L 158.53246 326.122057 
L 158.713903 326.377539 
L 159.076682 337.092172 
L 159.439318 348.800415 
L 159.620583 351.043197 
L 160.164163 361.503977 
L 160.526372 366.21973 
L 160.707423 366.499284 
L 161.069418 366.500948 
L 161.250363 366.332123 
L 161.792983 366.346756 
L 161.973785 366.068872 
L 162.154552 365.22142 
L 162.335283 365.222263 
L 162.69664 368.083921 
L 162.877265 370.023731 
L 163.057854 370.024586 
L 163.238409 369.480114 
L 163.418927 368.572091 
L 163.599411 368.512368 
L 163.779859 367.22868 
L 163.960271 367.229555 
L 164.140649 368.042374 
L 164.32099 368.188678 
L 164.501297 368.189563 
L 164.681568 368.457059 
L 165.042005 368.458849 
L 165.22217 369.162623 
L 165.4023 369.296832 
L 165.762454 369.080523 
L 166.122467 369.082366 
L 166.482339 368.344997 
L 167.021883 367.802482 
L 167.20166 368.421471 
L 167.381403 368.422421 
L 167.56111 367.453894 
L 167.740782 367.188243 
L 167.920419 367.189202 
L 168.100021 371.540706 
L 168.279587 371.541675 
L 168.818076 365.267225 
L 168.997502 364.456266 
L 169.35625 364.458228 
L 169.535571 364.871238 
L 169.894107 366.254711 
L 170.073323 366.255695 
L 170.252504 365.929481 
L 170.610761 365.931455 
L 170.968878 367.484605 
L 171.147883 366.782726 
L 171.326854 364.711458 
L 171.684691 364.580148 
L 171.863558 366.08384 
L 172.042389 366.084838 
L 172.221185 365.286016 
L 172.578673 365.203188 
L 172.757365 365.555626 
L 172.936022 365.556629 
L 173.114644 364.563915 
L 173.293231 364.564919 
L 173.471783 367.777326 
L 173.6503 367.778332 
L 173.828783 367.488498 
L 174.185644 365.939357 
L 174.898948 369.033656 
L 175.077188 369.034685 
L 175.255392 368.478268 
L 175.433562 367.158388 
L 175.611697 367.159428 
L 175.967863 369.682165 
L 176.145894 369.683217 
L 176.32389 368.230052 
L 176.501852 368.231112 
L 176.679779 368.426072 
L 176.857671 370.269152 
L 177.035529 370.270225 
L 177.213352 369.204876 
L 177.391141 369.205959 
L 177.568894 369.352469 
L 177.746614 369.959487 
L 177.924298 369.960585 
L 178.101949 368.943734 
L 178.279564 368.835775 
L 178.634692 368.086656 
L 178.812204 367.942353 
L 178.989681 367.943476 
L 179.167124 369.568482 
L 179.344533 369.569613 
L 179.521907 367.486366 
L 179.699246 367.487505 
L 179.876551 369.342778 
L 180.053822 369.792309 
L 180.231058 369.79346 
L 180.408259 369.382588 
L 180.585427 369.38375 
L 180.762559 372.075224 
L 181.116722 371.99275 
L 181.293751 371.509199 
L 181.470747 371.449802 
L 181.824634 370.967474 
L 182.001526 369.962853 
L 182.178384 369.685348 
L 182.355207 369.9653 
L 182.531997 369.687806 
L 182.708751 369.070998 
L 182.885472 369.072239 
L 183.062158 370.24898 
L 183.415428 370.336317 
L 183.768561 368.848271 
L 183.945076 368.849542 
L 184.121556 370.37775 
L 184.298003 370.585046 
L 184.474415 370.477267 
L 184.650793 371.6177 
L 184.827137 370.867654 
L 185.003447 370.86896 
L 185.179723 370.434007 
L 185.355964 370.435326 
L 185.532171 370.679021 
L 185.708344 370.680352 
L 186.060588 369.228811 
L 186.236659 368.56364 
L 186.412696 368.564991 
L 186.588698 369.366167 
L 186.764667 371.730634 
L 186.940601 371.732001 
L 187.116501 371.406175 
L 187.292368 370.15935 
L 187.4682 370.100143 
L 187.643998 369.49561 
L 187.819762 367.533809 
L 188.171189 367.512374 
L 188.346851 368.568089 
L 188.522479 368.569498 
L 188.698074 368.328541 
L 189.04916 368.343498 
L 189.400111 371.533519 
L 189.575536 371.801563 
L 189.750926 371.5364 
L 189.926283 369.501942 
L 190.101606 369.285265 
L 190.276895 368.232416 
L 190.45215 368.23388 
L 190.627371 370.416679 
L 190.802558 370.418153 
L 190.977712 368.480672 
L 191.152832 368.482155 
L 191.327918 368.641183 
L 191.50297 371.490523 
L 191.677988 372.303961 
L 191.852972 372.305467 
L 192.027923 371.107249 
L 192.20284 370.975466 
L 192.377723 368.589647 
L 192.552572 368.094319 
L 192.727388 367.102136 
L 192.90217 367.103672 
L 193.076918 367.396056 
L 193.251632 369.615284 
L 193.426313 369.616831 
L 193.60096 369.266946 
L 193.775573 369.268503 
L 193.950153 370.021412 
L 194.124699 370.204756 
L 194.299211 370.206328 
L 194.47369 369.395967 
L 194.822547 369.399137 
L 195.171269 368.081409 
L 195.345579 368.083009 
L 195.519856 369.175277 
L 195.6941 369.322307 
L 195.86831 369.178498 
L 196.042486 369.325537 
L 196.564813 372.723604 
L 196.738856 370.883236 
L 197.086839 370.886543 
L 197.434689 370.453609 
L 197.782405 366.627516 
L 197.956213 366.629196 
L 198.129987 368.266877 
L 198.477435 368.270254 
L 198.651109 368.065933 
L 198.998357 365.936473 
L 199.171931 365.938174 
L 199.345472 365.18853 
L 199.518979 366.559624 
L 199.692452 366.06447 
L 199.865893 366.478206 
L 200.0393 366.358729 
L 200.212674 366.481624 
L 200.386014 366.762062 
L 200.905835 366.791448 
L 201.252217 365.413381 
L 201.425357 361.379642 
L 201.771539 360.268175 
L 201.94458 360.269887 
L 202.117588 362.077251 
L 202.290562 362.078956 
L 202.463503 361.523207 
L 202.982128 358.607731 
L 203.327712 352.988103 
L 203.500455 352.165708 
L 203.84584 349.272672 
L 204.191092 346.731011 
L 204.881201 325.335909 
L 205.398435 320.85631 
L 205.743092 320.798334 
L 206.259831 329.81811 
L 207.4644 345.034122 
L 207.63635 345.204724 
L 207.808267 345.205648 
L 208.152001 344.989305 
L 208.323819 344.299416 
L 208.839076 340.811757 
L 209.010763 340.812535 
L 209.354037 344.013305 
L 209.525625 345.952977 
L 209.868703 345.845276 
L 210.040193 344.294762 
L 210.554465 344.33296 
L 210.725824 343.048972 
L 211.239704 342.844549 
L 211.410931 343.026813 
L 211.582126 342.845501 
L 212.095515 341.307715 
L 212.26658 339.453959 
L 212.437611 338.921094 
L 212.779577 338.788414 
L 212.950511 337.964628 
L 213.29228 340.158544 
L 213.463116 340.15874 
L 214.146134 346.775998 
L 214.316807 346.776088 
L 214.487448 346.218708 
L 214.658056 346.218762 
L 214.828631 347.067092 
L 214.999174 349.236322 
L 215.169684 352.883994 
L 215.510608 352.883963 
L 215.851401 352.302197 
L 216.021749 352.30214 
L 217.043156 358.397189 
L 217.553422 359.342059 
L 217.893438 360.723293 
L 218.063397 361.159416 
L 218.233324 361.159269 
L 218.403219 361.861991 
L 218.573081 361.861838 
L 218.742911 362.552437 
L 218.912708 362.552279 
L 219.082474 360.249603 
L 219.252207 360.249439 
L 219.421908 360.612825 
L 219.591576 362.103228 
L 219.761212 362.260594 
L 219.930816 362.260416 
L 220.100388 362.744976 
L 220.269928 361.642011 
L 220.439435 362.538595 
L 220.60891 362.538409 
L 221.117142 365.652296 
L 221.286488 365.652108 
L 221.455803 364.876337 
L 221.625085 362.840241 
L 221.794335 362.840052 
L 222.132738 364.027284 
L 222.301891 364.027092 
L 222.471013 363.13013 
L 222.640102 363.129936 
L 222.809159 363.529651 
L 222.978184 365.480533 
L 223.147177 365.480338 
L 223.485067 365.164867 
L 223.653964 365.322214 
L 223.822829 365.806762 
L 224.329231 366.133391 
L 224.497968 366.751247 
L 224.835345 366.82359 
L 225.003986 367.744415 
L 225.172595 367.223142 
L 225.341172 367.477456 
L 225.509717 367.222795 
L 225.67823 367.477114 
L 225.846711 368.288887 
L 226.01516 370.639714 
L 226.183577 370.918283 
L 226.351963 371.899732 
L 226.520316 371.899588 
L 226.688638 369.378804 
L 226.856927 369.31808 
L 227.193411 367.124381 
L 227.361605 367.124261 
L 227.529768 368.675312 
L 227.865997 369.874822 
L 228.034063 369.135489 
L 228.202099 369.414116 
L 228.370102 368.771741 
L 228.538073 369.413931 
L 228.706013 369.425964 
L 228.873921 369.765202 
L 229.041797 371.001214 
L 229.209641 371.340463 
L 229.377454 371.340401 
L 229.545235 370.055784 
L 229.712984 370.055734 
L 229.880702 369.825438 
L 230.048387 370.46768 
L 230.216042 370.625187 
L 230.383664 372.127854 
L 230.551255 372.467152 
L 230.718814 372.46714 
L 230.886341 370.104028 
L 231.053837 370.104029 
L 231.388734 371.412848 
L 231.556134 371.412868 
L 231.723504 370.491888 
L 231.890841 370.491921 
L 232.058147 370.697974 
L 232.225422 372.358254 
L 232.392665 372.358306 
L 232.559876 370.698131 
L 232.727056 370.698198 
L 232.894204 373.000786 
L 233.061321 373.727977 
L 233.228406 373.812896 
L 233.39546 374.188669 
L 233.562482 375.134021 
L 233.729472 375.134141 
L 234.063359 372.759183 
L 234.230255 373.825758 
L 234.39712 374.10464 
L 234.563953 374.104806 
L 235.064264 373.426724 
L 235.230971 372.578631 
L 235.397647 372.578842 
L 235.564292 373.039564 
L 235.730905 373.039791 
L 235.897487 372.543168 
L 236.064038 372.543411 
L 236.230557 375.124904 
L 236.397044 375.767447 
L 236.563501 375.76772 
L 236.896319 373.150701 
L 237.062682 372.375419 
L 237.395313 372.376048 
L 237.561581 372.848995 
L 237.727818 372.316115 
L 237.894024 374.109996 
L 238.060199 373.771029 
L 238.226342 373.771389 
L 238.392454 373.420323 
L 238.558535 373.420701 
L 238.724584 373.154481 
L 238.890603 373.154877 
L 239.38847 370.235552 
L 239.554364 373.810934 
L 239.720226 374.611187 
L 239.886057 374.61163 
L 240.217626 373.9945 
L 240.383364 372.758884 
L 240.54907 372.759364 
L 240.714745 373.01434 
L 240.88039 373.511695 
L 241.046003 374.724051 
L 241.211585 374.724566 
L 241.377136 372.810367 
L 241.542656 372.810901 
L 241.708144 374.168715 
L 241.873602 374.169267 
L 242.039029 373.685087 
L 242.369789 371.335245 
L 242.535122 371.032867 
L 242.700425 371.033457 
L 242.865696 370.755329 
L 243.361324 373.035439 
L 243.691588 372.927635 
L 243.856674 372.770738 
L 244.021728 372.77139 
L 244.351744 373.172629 
L 244.846537 373.223159 
L 245.176244 375.139298 
L 245.670572 375.044552 
L 245.835287 373.797101 
L 245.999971 373.797865 
L 246.164623 373.398727 
L 246.329245 373.399509 
L 246.658397 373.267796 
L 246.822927 373.910885 
L 247.31633 373.804299 
L 247.480737 375.126062 
L 247.645112 375.296577 
L 247.809457 375.297443 
L 248.138055 375.420393 
L 248.302307 375.421292 
L 248.63072 374.065849 
L 248.794881 374.066778 
L 248.959011 375.279567 
L 249.287178 375.426899 
L 249.451216 374.155427 
L 249.943145 374.231108 
L 250.10706 374.389658 
L 250.270945 373.821108 
L 250.434798 374.161454 
L 250.598622 373.823174 
L 250.762414 373.084992 
L 250.926176 373.086048 
L 251.089908 373.923289 
L 251.417279 374.070868 
L 251.580919 374.07196 
L 251.744528 374.836528 
L 251.908107 374.83764 
L 252.398659 373.42317 
L 252.562116 373.642453 
L 252.725542 373.09828 
L 252.888937 373.923506 
L 253.215637 373.950106 
L 253.378941 377.477786 
L 253.542215 377.478994 
L 253.705458 376.995476 
L 254.031853 374.319764 
L 254.358127 373.631526 
L 254.521218 374.032709 
L 254.847309 373.174868 
L 255.010309 373.176167 
L 255.173278 373.662215 
L 255.336217 373.712006 
L 255.499126 374.779761 
L 255.662005 374.781097 
L 255.987671 374.420245 
L 256.150458 373.100694 
L 256.313215 374.422986 
L 256.475942 373.103454 
L 256.638639 373.977379 
L 256.801305 372.972946 
L 256.963941 373.180372 
L 257.126546 372.975777 
L 257.289122 373.183219 
L 257.451667 373.645159 
L 257.614182 373.646604 
L 257.776667 374.423643 
L 257.939121 373.564694 
L 258.101545 373.566167 
L 258.263939 373.216213 
L 258.426303 373.569141 
L 258.588637 374.855202 
L 258.913214 374.858233 
L 259.075457 373.51461 
L 259.562005 373.531374 
L 259.724127 372.842186 
L 259.88622 372.843761 
L 260.210314 374.34963 
L 260.69623 372.694227 
L 260.858142 374.986251 
L 261.020023 375.21814 
L 261.343696 375.221447 
L 261.505488 376.350138 
L 261.667249 376.351819 
L 262.152354 373.957466 
L 262.313995 373.801649 
L 262.475607 373.803382 
L 262.637188 373.950546 
L 262.960261 376.147509 
L 263.121752 375.749372 
L 263.283214 375.751156 
L 263.444646 374.056362 
L 263.606047 373.864271 
L 263.767419 373.866085 
L 263.928761 375.346367 
L 264.090073 375.433031 
L 264.251355 375.89538 
L 264.573829 377.535103 
L 264.735021 377.718763 
L 264.896184 377.720658 
L 265.057317 375.250391 
L 265.218419 375.25231 
L 265.379492 375.423898 
L 265.540535 375.425838 
L 265.701549 376.336677 
L 266.023486 376.243667 
L 266.506168 373.898666 
L 266.667002 373.900682 
L 266.827807 375.284217 
L 266.988582 375.637689 
L 267.310042 375.629676 
L 267.470728 375.171242 
L 267.631384 375.246032 
L 267.79201 374.642197 
L 267.952607 373.383973 
L 268.113173 373.386082 
L 268.594696 377.670301 
L 268.755144 376.933226 
L 269.075951 372.647617 
L 269.23631 372.649801 
L 269.396639 372.967074 
L 269.556939 375.562635 
L 269.717209 375.819335 
L 269.87745 376.294179 
L 270.678209 374.112009 
L 270.838272 374.114294 
L 271.15831 373.525087 
L 271.318284 373.5274 
L 271.478229 373.86904 
L 271.638144 376.416258 
L 271.79803 376.806393 
L 271.957886 376.808749 
L 272.277511 374.923008 
L 272.756726 374.893851 
L 272.916405 372.920955 
L 273.076055 372.923384 
L 273.714361 374.387406 
L 273.873864 373.517348 
L 274.192781 373.522323 
L 274.352196 373.924735 
L 274.670937 376.002031 
L 274.830264 376.004563 
L 274.989561 375.304234 
L 275.308067 375.212406 
L 275.467277 374.027368 
L 275.626457 374.029953 
L 275.785607 375.147451 
L 275.944728 375.186411 
L 276.10382 376.146389 
L 276.262883 375.191655 
L 276.421916 375.909284 
L 277.057757 375.859357 
L 277.216645 375.353075 
L 277.375502 375.355781 
L 277.534331 375.915948 
L 277.693131 375.918676 
L 277.851901 375.545741 
L 278.010642 373.827663 
L 278.169354 373.830422 
L 278.645314 374.674933 
L 278.803909 373.890028 
L 279.121012 373.798704 
L 279.437999 374.858676 
L 279.596448 375.576513 
L 279.754868 375.57937 
L 279.91326 374.952076 
L 280.071622 374.954955 
L 280.229955 375.091147 
L 280.388259 376.790637 
L 280.70478 377.099435 
L 281.021184 377.081083 
L 281.179343 376.841674 
L 281.337473 377.087017 
L 281.495573 376.847633 
L 281.653645 374.717775 
L 281.811688 374.720783 
L 281.969701 375.123712 
L 282.127686 375.126742 
L 282.285642 375.590284 
L 282.443568 375.593335 
L 282.601466 376.529521 
L 282.759335 376.532595 
L 283.074986 376.296407 
L 283.232767 376.360109 
L 283.39052 376.2784 
L 283.70594 376.357388 
L 284.021243 376.363711 
L 284.336431 375.667208 
L 284.493982 375.003892 
L 284.651504 375.007105 
L 284.808997 374.658891 
L 284.966461 375.158982 
L 285.59603 373.523898 
L 285.910641 375.736038 
L 286.225137 377.754328 
L 286.382342 376.788175 
L 286.539518 376.767278 
L 286.696665 376.45555 
L 286.853784 376.555862 
L 287.010874 376.013905 
L 287.324967 376.020692 
L 287.795892 375.013002 
L 287.95281 375.016444 
L 288.109699 375.153201 
L 288.266559 375.859538 
L 288.42339 375.863013 
L 288.580193 375.175744 
L 288.736967 373.761375 
L 288.893713 373.764881 
L 289.05043 374.640928 
L 289.207118 374.644454 
L 289.363778 374.114774 
L 289.520409 374.094082 
L 289.677011 372.982734 
L 289.833585 370.429292 
L 289.99013 370.226845 
L 290.303135 368.888844 
L 290.772427 370.41442 
L 290.928801 371.811647 
L 291.085146 371.948557 
L 291.241463 371.818866 
L 291.397751 371.410458 
L 291.710242 371.393482 
L 291.866444 370.815435 
L 292.022619 370.819082 
L 292.178764 370.047151 
L 292.334881 369.953861 
L 292.49097 368.963808 
L 292.64703 365.501584 
L 292.803062 365.505254 
L 292.959066 365.920953 
L 293.11504 365.924625 
L 293.270987 364.898225 
L 293.738656 360.098191 
L 293.894489 358.999069 
L 294.050293 355.173279 
L 294.361817 339.317436 
L 294.673227 312.482125 
L 295.14013 227.129678 
L 295.606777 150.707334 
L 295.76227 143.354021 
L 295.917734 143.356419 
L 296.07317 145.406623 
L 296.383957 170.798598 
L 296.849926 241.829323 
L 297.315641 305.078849 
L 297.781101 337.352919 
L 298.40132 353.546185 
L 298.866189 353.56037 
L 299.021089 353.427733 
L 299.330804 348.957303 
L 299.48562 346.110081 
L 299.949898 345.408977 
L 300.259276 345.410061 
L 300.413923 345.580233 
L 300.568542 345.580728 
L 301.03223 354.852767 
L 301.186737 354.938033 
L 301.495666 363.009808 
L 301.650088 363.955473 
L 301.95885 366.779927 
L 302.576036 371.725999 
L 303.192775 371.618759 
L 303.500977 371.57124 
L 303.655036 373.377385 
L 303.809067 373.377882 
L 303.96307 372.845173 
L 304.117046 372.845687 
L 304.270993 374.5428 
L 304.424913 374.543332 
L 304.732668 371.769287 
L 304.886504 371.769845 
L 305.194093 375.079336 
L 305.347845 375.64949 
L 305.50157 375.080516 
L 305.655267 375.371967 
L 305.808936 374.681829 
L 306.269776 374.683741 
L 306.423334 375.266087 
L 306.576864 375.266755 
L 306.730366 373.898042 
L 307.037287 373.778243 
L 307.344098 375.912523 
L 307.497461 376.16774 
L 307.650797 376.01094 
L 307.957386 376.485076 
L 308.110638 376.909998 
L 308.263864 376.910785 
L 308.570231 376.31859 
L 308.723373 376.440598 
L 308.876487 376.320248 
L 309.029574 375.121362 
L 309.182633 374.988916 
L 309.488668 373.875759 
L 309.641644 373.876645 
L 310.406111 377.116875 
L 310.558921 377.117829 
L 310.86446 376.00487 
L 311.017188 376.00586 
L 311.169888 376.33406 
L 311.322561 376.335073 
L 311.780414 375.150566 
L 311.932977 373.661047 
L 312.085512 373.662114 
L 312.238019 374.123692 
L 312.3905 374.124777 
L 312.542952 374.392479 
L 312.847775 374.394697 
L 313.000146 373.971673 
L 313.152489 372.954852 
L 313.304804 372.955994 
L 313.609353 376.545381 
L 313.761586 376.570791 
L 313.913791 377.820181 
L 314.218121 375.798798 
L 314.370244 375.327397 
L 314.52234 375.328629 
L 314.82645 376.700516 
L 314.978464 376.701783 
L 315.130451 375.660869 
L 315.28241 375.662159 
L 315.738124 376.441679 
L 315.889974 376.018867 
L 316.041797 375.196155 
L 316.193592 375.197513 
L 316.34536 375.320066 
L 316.497101 375.733474 
L 316.648815 375.734864 
L 316.800501 375.506014 
L 317.103792 373.70319 
L 317.255396 373.704621 
L 317.558523 376.167568 
L 317.710046 376.169031 
L 318.315865 373.169597 
L 318.467251 374.2133 
L 318.618611 374.336006 
L 318.769943 376.724882 
L 318.921248 376.726425 
L 319.223777 376.365992 
L 319.375001 375.810119 
L 319.828509 377.402449 
L 320.130712 377.502664 
L 320.281773 376.546955 
L 320.432807 374.815673 
L 320.583813 374.817348 
L 320.885746 377.995779 
L 321.036671 377.99749 
L 321.489285 376.500007 
L 321.640103 376.501769 
L 321.790893 377.775985 
L 321.941656 377.777772 
L 322.092392 378.76117 
L 322.243101 377.684437 
L 322.393784 377.419657 
L 322.695067 377.42335 
L 322.845668 377.085897 
L 323.29731 377.140042 
L 323.447803 376.257307 
L 323.59827 376.259234 
L 323.748709 376.842861 
L 323.899122 376.844812 
L 324.049507 376.725591 
L 324.199866 376.37613 
L 324.350198 375.323807 
L 324.500503 375.192501 
L 324.650781 375.327814 
L 324.801032 374.990515 
L 324.951256 375.75601 
L 325.101453 375.758051 
L 325.251624 377.177968 
L 325.401768 377.507233 
L 325.551884 377.50931 
L 325.701974 377.256912 
L 325.852037 377.259015 
L 326.152083 378.632652 
L 326.302066 378.634795 
L 326.452021 378.079501 
L 326.60195 376.578978 
L 326.751852 376.290317 
L 326.901728 376.583356 
L 327.201398 378.090477 
L 327.351193 377.644325 
L 327.500962 376.155995 
L 327.650703 376.158253 
L 328.099768 377.825333 
L 328.249402 377.960944 
L 328.39901 377.829961 
L 328.698146 376.101694 
L 328.847674 376.03134 
L 328.997175 375.742865 
L 329.146649 375.745244 
L 329.296097 377.529056 
L 329.445518 377.93137 
L 329.594913 377.933787 
L 330.042936 379.116615 
L 330.49072 377.9607 
L 330.789109 376.075254 
L 330.938264 376.077792 
L 331.087392 377.243718 
L 331.981604 378.652919 
L 332.428351 380.248418 
L 332.577214 377.330547 
L 332.72605 377.33325 
L 333.023643 377.459877 
L 333.1724 375.620605 
L 333.32113 375.623356 
L 333.469834 375.880608 
L 333.618511 376.549899 
L 333.767162 376.552685 
L 333.915786 376.773616 
L 334.064384 378.703268 
L 334.212956 378.706092 
L 334.361501 377.509198 
L 334.51002 377.463575 
L 334.658512 377.236188 
L 334.806978 377.239064 
L 334.955417 376.708739 
L 335.10383 377.378158 
L 335.252217 377.381073 
L 335.548911 379.386494 
L 335.8455 381.02842 
L 335.993754 380.231586 
L 336.141983 380.113405 
L 336.58651 378.2199 
L 336.734633 377.968473 
L 336.88273 377.971547 
L 337.030801 377.502013 
L 337.326863 377.532465 
L 337.474854 378.771679 
L 337.62282 378.77482 
L 337.770759 378.184168 
L 337.918672 376.478627 
L 338.066558 376.481808 
L 338.362253 377.445567 
L 338.657842 377.548963 
L 338.805598 378.642872 
L 338.953327 378.64613 
L 339.10103 376.892219 
L 339.396357 376.801851 
L 339.543981 376.102286 
L 339.69158 377.111442 
L 339.986697 377.154475 
L 340.134217 377.42444 
L 340.281711 378.276105 
L 340.429178 377.758394 
L 340.576619 378.198057 
L 340.724035 378.201468 
L 340.871424 378.835055 
L 341.018786 378.838493 
L 341.166123 377.460437 
L 341.460719 377.515855 
L 341.755209 378.710466 
L 341.902416 378.713985 
L 342.049596 377.336009 
L 342.19675 377.339556 
L 342.343878 376.458464 
L 342.638057 376.550447 
L 342.785107 376.554042 
L 342.932131 377.260522 
L 343.226101 377.413196 
L 343.519966 376.02687 
L 343.66686 376.030539 
L 343.96057 378.07382 
L 344.107386 378.077526 
L 344.694391 371.948387 
L 344.987738 370.550161 
L 345.134372 370.529694 
L 345.427563 368.525577 
L 345.57412 368.068857 
L 345.72065 368.072644 
L 346.306515 369.626882 
L 346.452916 369.957891 
L 346.599292 369.137647 
L 346.745641 369.965524 
L 346.891965 370.114771 
L 347.184536 371.625131 
L 347.330782 372.016767 
L 347.477003 374.274659 
L 347.623197 374.27852 
L 347.769366 374.779248 
L 347.915509 374.783129 
L 348.645839 376.76589 
L 348.791827 376.01849 
L 349.083727 376.026421 
L 349.375524 374.604412 
L 349.521384 374.608415 
L 349.813026 377.318878 
L 350.104566 378.405514 
L 350.396003 378.583316 
L 350.541683 378.587409 
L 350.687338 378.009828 
L 350.832966 378.013948 
L 350.978569 377.484867 
L 351.124147 377.876806 
L 351.269699 377.493173 
L 351.415225 376.661169 
L 351.560725 376.665354 
L 351.7062 376.342351 
L 351.85165 375.546738 
L 351.997073 375.550957 
L 352.142471 375.082566 
L 352.578512 375.192268 
L 352.869078 377.818423 
L 353.014323 377.035018 
L 353.159542 377.039328 
L 353.449903 375.14538 
L 353.740163 375.008657 
L 353.885254 375.631067 
L 354.03032 375.756628 
L 354.465365 375.515336 
L 354.755268 375.657491 
L 355.045068 373.630478 
L 355.18993 373.537991 
L 355.334767 373.63941 
L 355.624364 373.539311 
L 355.769125 372.586447 
L 355.91386 372.578834 
L 356.058569 370.850401 
L 356.203253 370.782209 
L 356.347912 368.253968 
L 356.637153 367.53592 
L 356.926293 367.557113 
L 357.070825 367.779787 
L 357.359812 367.728288 
L 357.648698 365.871142 
L 357.793103 365.875697 
L 357.937483 366.692193 
L 358.081838 366.696751 
L 358.226167 366.010556 
L 358.370471 366.015117 
L 358.514749 366.516539 
L 358.659002 366.521104 
L 358.80323 366.101523 
L 358.947433 363.476376 
L 359.09161 363.238573 
L 359.235762 363.243139 
L 359.379889 363.768799 
L 359.523991 363.773362 
L 359.812118 363.043258 
L 359.956144 359.666756 
L 360.100144 359.004793 
L 360.24412 359.009343 
L 360.38807 359.619812 
L 360.531995 359.624351 
L 360.819769 358.542748 
L 360.963619 356.135689 
L 361.107443 355.994781 
L 361.251242 356.144708 
L 361.538764 359.110611 
L 361.826186 359.543723 
L 361.96986 359.548197 
L 362.113508 358.47412 
L 362.257131 358.248332 
L 362.400729 355.259518 
L 362.544301 355.263966 
L 362.687849 355.644078 
L 362.831371 356.739173 
L 362.974869 356.949609 
L 363.118341 356.954023 
L 363.405211 355.096577 
L 363.69198 354.075269 
L 363.835327 354.394718 
L 363.978649 354.083994 
L 364.265217 350.505596 
L 364.408464 350.291783 
L 364.551686 349.641689 
L 364.981201 339.487078 
L 365.26742 331.739661 
L 365.553539 319.896058 
L 365.69656 311.223292 
L 365.982529 277.772091 
L 366.411295 179.22354 
L 366.839837 65.464571 
L 367.125407 33.973515 
L 367.268154 33.975493 
L 367.410877 34.667896 
L 367.553575 43.951989 
L 367.981519 115.986494 
L 368.409239 198.707298 
L 368.979185 273.391254 
L 369.406384 308.192779 
L 369.975636 329.95307 
L 370.117887 330.194205 
L 370.260113 334.192042 
L 370.544491 334.334834 
L 370.686643 334.163814 
L 370.970873 332.125092 
L 371.112951 332.123638 
L 371.822969 315.222595 
L 372.248683 311.933202 
L 372.674176 296.948958 
L 372.957714 293.406177 
L 373.241154 290.311494 
L 373.666129 287.638166 
L 373.807738 287.671949 
L 374.373929 297.040633 
L 374.939727 306.602132 
L 375.081115 307.483603 
L 375.646422 320.267484 
L 376.070144 331.212192 
L 376.352504 332.598696 
L 376.493647 332.631442 
L 376.916929 341.079149 
L 377.198994 342.041166 
L 377.62191 346.356113 
L 377.762833 346.546184 
L 378.044605 349.568108 
L 378.185455 349.564234 
L 378.467081 349.713981 
L 379.030041 354.994018 
L 379.311374 353.628806 
L 379.452005 353.624821 
L 379.873749 357.357422 
L 380.014282 357.001965 
L 380.154791 356.997936 
L 380.295275 357.89067 
L 380.435735 358.044168 
L 380.576171 357.882578 
L 380.716583 356.448539 
L 380.85697 356.444475 
L 381.418276 362.499526 
L 381.558542 361.67138 
L 381.839001 359.578811 
L 381.979194 359.57471 
L 382.399628 361.743713 
L 382.679796 360.511508 
L 383.099867 360.062858 
L 383.239842 362.288525 
L 383.379793 362.538875 
L 383.659623 364.930055 
L 383.939356 364.873297 
L 384.079186 364.59043 
L 384.218993 364.586288 
L 384.498533 365.51113 
L 384.638267 366.658248 
L 384.777976 366.65411 
L 385.476164 369.420719 
L 385.75527 369.351899 
L 385.894787 369.396266 
L 386.03428 370.204103 
L 386.173749 369.618319 
L 386.313194 370.607945 
L 386.452615 369.610142 
L 386.592012 370.090802 
L 386.870733 370.082657 
L 387.010058 370.43003 
L 387.149359 370.425972 
L 387.427889 370.551177 
L 387.706322 369.58574 
L 387.98466 370.244203 
L 388.123793 370.240184 
L 388.401987 368.281082 
L 388.541049 368.277077 
L 388.958088 372.724701 
L 389.097054 373.653846 
L 389.235995 372.716751 
L 389.374913 373.209647 
L 389.513807 372.539175 
L 389.652676 372.535229 
L 389.791522 372.361631 
L 390.069143 370.30575 
L 390.207917 370.301832 
L 390.485394 371.530101 
L 390.624097 371.586794 
L 390.762776 372.261539 
L 390.901431 374.123904 
L 391.040062 374.3624 
L 391.317253 376.245168 
L 391.594349 377.473583 
L 391.732861 377.469766 
L 392.009814 375.717105 
L 392.425065 374.663602 
L 392.9784 378.187273 
L 393.116675 378.183572 
L 393.254926 377.695145 
L 393.669536 375.199864 
L 393.807692 376.008163 
L 393.945824 378.367643 
L 394.083932 378.570043 
L 394.222017 378.360427 
L 394.498116 376.390067 
L 395.325844 376.27192 
L 395.463715 376.801642 
L 395.601564 376.822399 
L 395.739388 377.364264 
L 395.877189 378.899859 
L 396.15272 378.856637 
L 396.290451 376.817316 
L 396.428157 377.686449 
L 396.56584 376.810529 
L 396.7035 377.558502 
L 396.841136 377.555141 
L 396.978748 379.442279 
L 397.116337 379.438945 
L 397.391443 378.826396 
L 397.666456 376.941461 
L 398.216199 379.836926 
L 398.353576 379.651941 
L 398.490929 378.327832 
L 398.902849 377.530634 
L 399.040108 377.030636 
L 399.177344 377.524369 
L 399.314557 379.654112 
L 399.588911 379.744879 
L 400.000268 378.693527 
L 400.13734 378.70262 
L 400.411413 381.774714 
L 400.685393 382.435294 
L 400.959279 381.799264 
L 401.096187 381.747882 
L 401.233072 379.660609 
L 401.369933 379.657733 
L 401.506771 379.291318 
L 401.780377 379.285641 
L 401.917145 380.700689 
L 402.19061 380.876882 
L 402.327308 380.874115 
L 402.463983 382.979983 
L 402.600634 382.97725 
L 402.873866 381.299484 
L 403.010448 380.715114 
L 403.28354 378.51635 
L 403.420051 378.513713 
L 403.693004 379.247711 
L 403.965864 378.951694 
L 404.102259 378.94913 
L 404.238631 379.298016 
L 404.511305 381.353106 
L 404.647607 380.259937 
L 404.783886 381.542011 
L 405.192583 381.607361 
L 405.328769 381.980615 
L 405.464932 381.590421 
L 405.737188 379.695179 
L 405.873281 380.686543 
L 406.009351 380.684205 
L 406.145398 383.251006 
L 406.281422 383.248703 
L 406.5534 380.469013 
L 406.689354 379.691176 
L 406.825285 379.688939 
L 406.961193 379.517058 
L 407.097078 379.163414 
L 407.23294 379.161222 
L 407.504594 381.629056 
L 407.640386 383.311383 
L 407.776156 383.309256 
L 407.911902 382.689104 
L 408.047625 379.80281 
L 408.183325 379.800736 
L 408.454656 380.741876 
L 408.590287 380.364174 
L 408.725895 380.737836 
L 408.861479 381.802269 
L 409.13258 381.798329 
L 409.268096 381.311644 
L 409.539058 378.326652 
L 409.674504 378.324752 
L 409.809928 379.740732 
L 409.945329 379.763098 
L 410.080706 380.379286 
L 410.216061 380.377447 
L 410.486701 378.010705 
L 410.621987 377.26968 
L 410.892489 377.266126 
L 411.027706 376.706917 
L 411.298071 376.642844 
L 411.433219 377.804499 
L 411.568344 377.80279 
L 411.703446 377.413303 
L 411.838525 377.41162 
L 412.108614 379.383611 
L 412.243625 379.38197 
L 412.378612 379.683306 
L 412.513577 379.681695 
L 412.648519 380.891949 
L 412.783438 380.890369 
L 412.918334 379.846615 
L 413.053207 377.324417 
L 413.188057 376.910853 
L 413.322885 376.90933 
L 413.457689 377.392559 
L 413.592471 378.299949 
L 413.72723 378.298465 
L 413.861966 378.515127 
L 413.996679 378.51367 
L 414.13137 379.29993 
L 414.266037 379.298502 
L 414.400682 377.891342 
L 414.535304 377.768757 
L 414.669903 376.288913 
L 414.804479 376.178471 
L 414.939033 376.286174 
L 415.208072 378.331511 
L 415.47702 378.668192 
L 415.745876 379.574501 
L 415.880271 379.573233 
L 416.41762 378.489763 
L 416.551901 377.107057 
L 416.686159 376.996807 
L 416.820394 376.062511 
L 417.357108 379.184525 
L 417.491229 379.546975 
L 417.625329 379.182329 
L 418.161498 374.997217 
L 418.295484 375.856601 
L 418.429447 375.904058 
L 418.697306 377.404751 
L 418.831201 377.112926 
L 418.965074 377.281616 
L 419.098924 377.001935 
L 419.232751 376.346592 
L 419.366556 376.34566 
L 419.634098 378.197964 
L 419.767835 378.197071 
L 420.168911 377.079568 
L 420.436182 376.993068 
L 420.569784 378.385879 
L 420.703363 378.385076 
L 420.83692 378.214628 
L 421.103965 375.946929 
L 421.237454 375.946177 
L 421.370921 376.224162 
L 421.637787 376.222716 
L 421.771186 379.178926 
L 421.904562 379.178235 
L 422.037916 378.886714 
L 422.304557 375.41951 
L 422.437844 375.152263 
L 422.571108 375.151635 
L 422.837569 375.659386 
L 423.237093 375.706105 
L 423.370222 376.638667 
L 423.769477 377.073317 
L 423.902516 377.351528 
L 424.035534 377.351027 
L 424.434452 375.640888 
L 424.700286 375.094658 
L 424.833169 375.094224 
L 425.098869 373.772472 
L 425.231685 374.402231 
L 425.364479 376.280205 
L 425.49725 376.279823 
L 425.63 375.903779 
L 425.895431 375.866717 
L 426.028113 376.448069 
L 426.558619 374.156438 
L 426.69119 374.156155 
L 426.823739 374.386134 
L 426.956265 374.38587 
L 427.088769 373.731218 
L 427.22125 373.730973 
L 427.750955 376.03261 
L 428.015673 376.916888 
L 428.147999 376.916721 
L 428.280303 374.977604 
L 428.677081 375.001437 
L 428.809296 373.498629 
L 428.941489 373.498524 
L 429.07366 374.261893 
L 429.205808 374.261807 
L 429.337934 373.510383 
L 429.470038 371.76525 
L 429.60212 371.765189 
L 429.998233 375.533912 
L 430.262198 376.32158 
L 430.262198 376.32158 
" clip-path="url(#p01c13423b9)" style="fill: none; stroke: #5088c5; stroke-width: 2; stroke-linecap: round"/>
   </g>
   <g id="line2d_15">
    <defs>
     <path id="m36cdf62e1d" d="M 0 3 
C 0.795609 3 1.55874 2.683901 2.12132 2.12132 
C 2.683901 1.55874 3 0.795609 3 0 
C 3 -0.795609 2.683901 -1.55874 2.12132 -2.12132 
C 1.55874 -2.683901 0.795609 -3 0 -3 
C -0.795609 -3 -1.55874 -2.683901 -2.12132 -2.12132 
C -2.683901 -1.55874 -3 -0.795609 -3 0 
C -3 0.795609 -2.683901 1.55874 -2.12132 2.12132 
C -1.55874 2.683901 -0.795609 3 0 3 
z
"/>
    </defs>
    <g clip-path="url(#p01c13423b9)">
     <use xlink:href="#m36cdf62e1d" x="158.353153" y="326.121027" style="fill: #f28360"/>
     <use xlink:href="#m36cdf62e1d" x="205.637578" y="320.797047" style="fill: #f28360"/>
     <use xlink:href="#m36cdf62e1d" x="295.960528" y="143.356419" style="fill: #f28360"/>
     <use xlink:href="#m36cdf62e1d" x="367.335515" y="33.975493" style="fill: #f28360"/>
     <use xlink:href="#m36cdf62e1d" x="373.612377" y="287.638166" style="fill: #f28360"/>
    </g>
   </g>
   <g id="patch_3">
    <path d="M 91.128438 397.284898 
L 91.128438 20 
" style="fill: none; stroke: #000000; stroke-width: 0.75; stroke-linejoin: miter; stroke-linecap: square"/>
   </g>
   <g id="patch_4">
    <path d="M 91.128438 397.284897 
L 443.305804 397.284897 
" style="fill: none; stroke: #000000; stroke-width: 0.75; stroke-linejoin: miter; stroke-linecap: square"/>
   </g>
  </g>
 </g>
 <defs>
  <clipPath id="p01c13423b9">
   <rect x="91.128438" y="20" width="352.177366" height="377.284898"/>
  </clipPath>
 </defs>
</svg>
