<?xml version="1.0" encoding="utf-8" standalone="no"?>
<!DOCTYPE svg PUBLIC "-//W3C//DTD SVG 1.1//EN"
  "http://www.w3.org/Graphics/SVG/1.1/DTD/svg11.dtd">
<svg xmlns:xlink="http://www.w3.org/1999/xlink" width="463.998551pt" height="463.99896pt" viewBox="0 0 463.998551 463.99896" xmlns="http://www.w3.org/2000/svg" version="1.1">
 <metadata>
  <rdf:RDF xmlns:dc="http://purl.org/dc/elements/1.1/" xmlns:cc="http://creativecommons.org/ns#" xmlns:rdf="http://www.w3.org/1999/02/22-rdf-syntax-ns#">
   <cc:Work>
    <dc:type rdf:resource="http://purl.org/dc/dcmitype/StillImage"/>
    <dc:date>2025-02-06T14:50:22.613159</dc:date>
    <dc:format>image/svg+xml</dc:format>
    <dc:creator>
     <cc:Agent>
      <dc:title>Matplotlib v3.8.4, https://matplotlib.org/</dc:title>
     </cc:Agent>
    </dc:creator>
   </cc:Work>
  </rdf:RDF>
 </metadata>
 <defs>
  <style type="text/css">*{stroke-linejoin: round; stroke-linecap: butt}</style>
 </defs>
 <g id="figure_1">
  <g id="patch_1">
   <path d="M 0 463.99896 
L 463.998551 463.99896 
L 463.998551 -0 
L 0 -0 
L 0 463.99896 
z
" style="fill: none"/>
  </g>
  <g id="axes_1">
   <g id="patch_2">
    <path d="M 63.030156 397.163022 
L 431.211693 397.163022 
L 431.211693 20 
L 63.030156 20 
L 63.030156 397.163022 
z
" style="fill: none"/>
   </g>
   <g id="matplotlib.axis_1">
    <g id="xtick_1">
     <g id="line2d_1">
      <defs>
       <path id="m7ed7b0687c" d="M 0 0 
L 0 5 
" style="stroke: #000000; stroke-width: 0.75"/>
      </defs>
      <g>
       <use xlink:href="#m7ed7b0687c" x="66.559946" y="397.163022" style="stroke: #000000; stroke-width: 0.75"/>
      </g>
     </g>
     <g id="text_1">
      <text style="font: 14.5px &quot;Suisse Int&apos;l Mono&quot;; text-anchor: middle" x="66.559946" y="417.675522" transform="rotate(-0 66.559946 417.675522)">540</text>
     </g>
    </g>
    <g id="xtick_2">
     <g id="line2d_2">
      <g>
       <use xlink:href="#m7ed7b0687c" x="127.124857" y="397.163022" style="stroke: #000000; stroke-width: 0.75"/>
      </g>
     </g>
     <g id="text_2">
      <text style="font: 14.5px &quot;Suisse Int&apos;l Mono&quot;; text-anchor: middle" x="127.124857" y="417.675522" transform="rotate(-0 127.124857 417.675522)">560</text>
     </g>
    </g>
    <g id="xtick_3">
     <g id="line2d_3">
      <g>
       <use xlink:href="#m7ed7b0687c" x="187.689768" y="397.163022" style="stroke: #000000; stroke-width: 0.75"/>
      </g>
     </g>
     <g id="text_3">
      <text style="font: 14.5px &quot;Suisse Int&apos;l Mono&quot;; text-anchor: middle" x="187.689768" y="417.675522" transform="rotate(-0 187.689768 417.675522)">580</text>
     </g>
    </g>
    <g id="xtick_4">
     <g id="line2d_4">
      <g>
       <use xlink:href="#m7ed7b0687c" x="248.254678" y="397.163022" style="stroke: #000000; stroke-width: 0.75"/>
      </g>
     </g>
     <g id="text_4">
      <text style="font: 14.5px &quot;Suisse Int&apos;l Mono&quot;; text-anchor: middle" x="248.254678" y="417.675522" transform="rotate(-0 248.254678 417.675522)">600</text>
     </g>
    </g>
    <g id="xtick_5">
     <g id="line2d_5">
      <g>
       <use xlink:href="#m7ed7b0687c" x="308.819589" y="397.163022" style="stroke: #000000; stroke-width: 0.75"/>
      </g>
     </g>
     <g id="text_5">
      <text style="font: 14.5px &quot;Suisse Int&apos;l Mono&quot;; text-anchor: middle" x="308.819589" y="417.675522" transform="rotate(-0 308.819589 417.675522)">620</text>
     </g>
    </g>
    <g id="xtick_6">
     <g id="line2d_6">
      <g>
       <use xlink:href="#m7ed7b0687c" x="369.3845" y="397.163022" style="stroke: #000000; stroke-width: 0.75"/>
      </g>
     </g>
     <g id="text_6">
      <text style="font: 14.5px &quot;Suisse Int&apos;l Mono&quot;; text-anchor: middle" x="369.3845" y="417.675522" transform="rotate(-0 369.3845 417.675522)">640</text>
     </g>
    </g>
    <g id="xtick_7">
     <g id="line2d_7">
      <g>
       <use xlink:href="#m7ed7b0687c" x="429.94941" y="397.163022" style="stroke: #000000; stroke-width: 0.75"/>
      </g>
     </g>
     <g id="text_7">
      <text style="font: 14.5px &quot;Suisse Int&apos;l Mono&quot;; text-anchor: middle" x="429.94941" y="417.675522" transform="rotate(-0 429.94941 417.675522)">660</text>
     </g>
    </g>
    <g id="text_8">
     <text style="font: 500 15px &quot;Suisse Int&apos;l&quot;, sans-serif; text-anchor: middle" x="247.120925" y="441.088022" transform="rotate(-0 247.120925 441.088022)">Wavelength (nm)</text>
    </g>
   </g>
   <g id="matplotlib.axis_2">
    <g id="ytick_1">
     <g id="line2d_8">
      <defs>
       <path id="ma905711ad0" d="M 0 0 
L -5 0 
" style="stroke: #000000; stroke-width: 0.75"/>
      </defs>
      <g>
       <use xlink:href="#ma905711ad0" x="63.030156" y="382.509035" style="stroke: #000000; stroke-width: 0.75"/>
      </g>
     </g>
     <g id="text_9">
      <text style="font: 14.5px &quot;Suisse Int&apos;l Mono&quot;; text-anchor: end" x="53.030156" y="387.765285" transform="rotate(-0 53.030156 387.765285)">0</text>
     </g>
    </g>
    <g id="ytick_2">
     <g id="line2d_9">
      <g>
       <use xlink:href="#ma905711ad0" x="63.030156" y="307.263133" style="stroke: #000000; stroke-width: 0.75"/>
      </g>
     </g>
     <g id="text_10">
      <text style="font: 14.5px &quot;Suisse Int&apos;l Mono&quot;; text-anchor: end" x="53.030156" y="312.519383" transform="rotate(-0 53.030156 312.519383)">1</text>
     </g>
    </g>
    <g id="ytick_3">
     <g id="line2d_10">
      <g>
       <use xlink:href="#ma905711ad0" x="63.030156" y="232.017232" style="stroke: #000000; stroke-width: 0.75"/>
      </g>
     </g>
     <g id="text_11">
      <text style="font: 14.5px &quot;Suisse Int&apos;l Mono&quot;; text-anchor: end" x="53.030156" y="237.273482" transform="rotate(-0 53.030156 237.273482)">2</text>
     </g>
    </g>
    <g id="ytick_4">
     <g id="line2d_11">
      <g>
       <use xlink:href="#ma905711ad0" x="63.030156" y="156.77133" style="stroke: #000000; stroke-width: 0.75"/>
      </g>
     </g>
     <g id="text_12">
      <text style="font: 14.5px &quot;Suisse Int&apos;l Mono&quot;; text-anchor: end" x="53.030156" y="162.02758" transform="rotate(-0 53.030156 162.02758)">3</text>
     </g>
    </g>
    <g id="ytick_5">
     <g id="line2d_12">
      <g>
       <use xlink:href="#ma905711ad0" x="63.030156" y="81.525428" style="stroke: #000000; stroke-width: 0.75"/>
      </g>
     </g>
     <g id="text_13">
      <text style="font: 14.5px &quot;Suisse Int&apos;l Mono&quot;; text-anchor: end" x="53.030156" y="86.781678" transform="rotate(-0 53.030156 86.781678)">4</text>
     </g>
    </g>
    <g id="text_14">
     <text style="font: 500 15px &quot;Suisse Int&apos;l&quot;, sans-serif; text-anchor: middle" x="30.875" y="208.581511" transform="rotate(-90 30.875 208.581511)">Intensity (au)</text>
    </g>
   </g>
   <g id="line2d_13">
    <path d="M 76.666509 382.756811 
L 76.83305 382.756811 
L 76.999591 382.917085 
L 78.165376 382.811003 
L 78.664998 382.786183 
L 78.998079 382.936683 
L 79.997324 382.811058 
L 80.330405 382.999187 
L 81.163109 382.790046 
L 81.662731 382.745679 
L 82.995056 382.776618 
L 83.161597 382.715681 
L 83.82776 382.839888 
L 84.993545 382.768506 
L 85.326626 382.896455 
L 86.15933 382.917609 
L 86.325871 382.766383 
L 86.825493 382.795786 
L 87.158574 382.89214 
L 88.4909 382.786968 
L 89.323603 382.85857 
L 89.823225 382.891754 
L 90.322848 382.855714 
L 90.82247 382.859558 
L 91.155551 382.805437 
L 92.321336 382.843266 
L 92.654417 382.816239 
L 94.486365 382.834662 
L 94.819447 383.01457 
L 95.152528 383.033454 
L 95.319069 382.873218 
L 95.65215 382.864263 
L 95.985232 382.72965 
L 96.318313 382.806478 
L 96.984476 382.846517 
L 98.150261 382.949894 
L 98.483342 383.064354 
L 99.316046 382.978048 
L 100.31529 382.740557 
L 100.981453 382.807722 
L 103.146482 382.873106 
L 103.812645 382.866554 
L 107.643081 382.904047 
L 107.976163 382.74616 
L 108.475785 382.758396 
L 109.141948 382.90539 
L 109.475029 382.85812 
L 109.80811 382.919958 
L 110.307733 382.814069 
L 112.472762 382.737496 
L 112.972384 382.720411 
L 113.138925 382.892798 
L 116.63628 382.798882 
L 117.135902 382.696043 
L 117.468983 382.882067 
L 117.802064 382.873958 
L 118.135146 382.700309 
L 118.801309 382.799975 
L 118.967849 382.955067 
L 119.634012 382.870387 
L 120.133634 382.763802 
L 121.132879 382.88699 
L 121.299419 382.667363 
L 121.46596 382.667454 
L 121.965582 383.028908 
L 122.964826 382.938422 
L 123.464449 382.812296 
L 124.297152 382.894045 
L 124.963315 383.005051 
L 125.129856 382.799729 
L 126.795263 382.898564 
L 127.128344 382.939403 
L 127.961048 382.763851 
L 128.294129 382.808458 
L 128.627211 382.721385 
L 129.293373 383.054401 
L 130.459158 382.85652 
L 131.125321 382.934471 
L 131.458403 382.934698 
L 131.958025 382.957614 
L 132.790728 382.85586 
L 134.289595 382.989362 
L 134.622676 382.860935 
L 135.45538 382.775016 
L 135.62192 382.928641 
L 139.119275 382.859841 
L 139.618897 382.640519 
L 140.118519 382.804201 
L 140.451601 383.009137 
L 140.784682 382.888259 
L 141.117764 382.913361 
L 141.450845 383.019729 
L 141.950467 382.784621 
L 142.117008 382.968358 
L 142.949711 382.954757 
L 143.449334 382.706867 
L 143.948956 382.687728 
L 144.282037 382.832483 
L 145.447822 382.851545 
L 145.780904 383.00985 
L 145.947444 383.009995 
L 146.113985 382.852125 
L 148.445555 382.857966 
L 148.778636 382.737875 
L 150.943665 382.77975 
L 151.276747 382.780061 
L 151.609828 382.988805 
L 152.442532 382.941436 
L 153.108695 382.660654 
L 154.44102 382.773305 
L 154.774102 382.648721 
L 154.940642 382.681239 
L 155.107183 382.849952 
L 156.77259 382.826766 
L 157.105672 382.701438 
L 158.104916 382.855946 
L 158.604538 382.968569 
L 158.937619 382.886892 
L 159.270701 382.854878 
L 159.603782 382.751382 
L 160.603027 383.119619 
L 160.936108 383.151572 
L 161.43573 382.997847 
L 161.602271 382.994262 
L 161.935352 382.838107 
L 162.268434 382.724091 
L 163.267678 382.792891 
L 163.600759 382.672106 
L 163.933841 382.672469 
L 164.266922 382.84063 
L 164.766544 382.851712 
L 165.099626 382.954413 
L 165.599248 382.750297 
L 166.09887 382.842652 
L 166.265411 383.025685 
L 166.765033 382.975078 
L 167.264655 382.661866 
L 167.597736 382.748776 
L 168.263899 382.939905 
L 168.596981 382.769478 
L 168.763521 382.769669 
L 169.096603 382.973215 
L 170.595469 382.884663 
L 171.927795 382.361017 
L 172.260876 382.247036 
L 172.593958 382.266991 
L 173.26012 382.830612 
L 173.759743 382.896666 
L 175.42515 382.839211 
L 175.758231 382.727497 
L 176.424394 380.974318 
L 176.924016 380.880849 
L 177.590179 380.972658 
L 178.089801 382.603042 
L 178.422882 382.808834 
L 178.589423 382.978323 
L 179.255586 382.893291 
L 179.755208 382.851718 
L 182.253319 382.92683 
L 183.086022 382.887176 
L 183.752185 383.048993 
L 184.085266 382.918464 
L 184.91797 382.96311 
L 185.251051 382.803242 
L 186.416836 382.859597 
L 186.749918 382.920956 
L 187.749162 382.834158 
L 188.082243 382.63442 
L 188.581866 382.451445 
L 189.58111 382.537722 
L 190.413813 382.73365 
L 190.913436 382.702674 
L 192.578843 382.778521 
L 192.911924 382.19278 
L 193.411546 381.513191 
L 193.744628 381.330009 
L 194.077709 381.251414 
L 194.41079 381.138953 
L 195.076953 382.589746 
L 195.576575 382.651297 
L 195.909657 382.577206 
L 196.409279 382.729807 
L 197.741605 382.709605 
L 198.074686 382.5535 
L 198.740849 382.633323 
L 199.407012 382.336917 
L 200.239715 382.250648 
L 200.905878 381.99863 
L 201.072419 381.991307 
L 201.4055 381.792305 
L 202.238204 379.668343 
L 202.404744 377.099638 
L 202.571285 359.770692 
L 202.904367 135.85205 
L 203.237448 105.535846 
L 203.903611 71.367421 
L 204.070152 71.367606 
L 204.236692 74.332479 
L 204.403233 157.682549 
L 204.569774 320.642784 
L 204.736314 360.487178 
L 205.069396 375.262081 
L 205.402477 379.197792 
L 205.735559 380.615761 
L 206.06864 381.275244 
L 206.568262 381.79944 
L 206.734803 382.125414 
L 207.400966 382.246443 
L 207.734047 382.183552 
L 208.40021 382.382078 
L 208.733291 382.359065 
L 209.066373 382.077205 
L 209.399454 382.077516 
L 210.565239 382.32916 
L 210.898321 382.573262 
L 211.231402 382.588616 
L 211.397943 381.551128 
L 211.564483 376.535388 
L 211.731024 365.268965 
L 212.064106 360.817709 
L 212.563728 358.621718 
L 212.730268 358.126746 
L 213.06335 358.049534 
L 213.22989 361.019635 
L 213.562972 379.537182 
L 213.896053 382.139452 
L 214.229135 382.537767 
L 214.562216 382.675732 
L 214.895298 382.635365 
L 215.228379 382.847824 
L 216.560705 382.948978 
L 216.893786 382.991389 
L 217.89303 382.331558 
L 218.226112 381.814895 
L 219.391897 381.423805 
L 220.05806 382.13314 
L 220.557682 382.221561 
L 221.057304 382.75619 
L 221.556926 382.658001 
L 222.389629 382.593933 
L 223.055792 382.671952 
L 223.222333 382.497511 
L 223.555414 382.49175 
L 223.888496 382.712479 
L 224.721199 382.719149 
L 225.220821 382.974625 
L 226.386606 382.893538 
L 227.552391 382.783122 
L 228.551636 382.769649 
L 229.051258 382.736957 
L 229.217799 382.816857 
L 229.55088 382.726088 
L 230.217043 382.485861 
L 230.383583 381.291849 
L 230.550124 377.064673 
L 230.883206 343.630176 
L 231.216287 337.472319 
L 231.88245 332.885863 
L 232.048991 332.885996 
L 232.215531 336.488151 
L 232.548613 375.664444 
L 232.881694 381.138834 
L 233.214776 382.069118 
L 233.547857 382.559963 
L 233.880938 382.670817 
L 234.38056 382.736646 
L 234.880183 382.895781 
L 235.213264 382.833574 
L 235.546345 382.784912 
L 235.879427 382.84611 
L 236.71213 382.679692 
L 237.211753 382.168398 
L 238.377537 382.24527 
L 238.710619 382.620994 
L 239.0437 382.890622 
L 239.376782 382.830674 
L 239.543322 382.553894 
L 239.709863 381.505091 
L 239.876404 379.089822 
L 240.209485 371.299094 
L 240.542567 369.713887 
L 240.875648 368.984225 
L 241.042189 368.723987 
L 241.20873 368.724099 
L 241.37527 369.293822 
L 241.541811 371.828216 
L 241.874892 380.729273 
L 242.041433 382.110893 
L 242.207974 382.464654 
L 243.207218 382.836247 
L 243.540299 382.666404 
L 243.873381 382.462701 
L 244.373003 382.371973 
L 245.039166 382.212124 
L 245.205707 382.212229 
L 246.03841 382.714645 
L 246.371491 382.595967 
L 247.537276 382.961655 
L 247.703817 382.775906 
L 248.203439 382.861259 
L 248.703061 382.912002 
L 249.369224 382.869556 
L 249.702306 382.929976 
L 250.035387 382.873015 
L 250.368468 383.04706 
L 250.868091 382.994733 
L 251.700794 382.968981 
L 252.033876 382.877418 
L 252.200416 382.904625 
L 252.366957 383.056741 
L 253.532742 382.95902 
L 253.865823 382.915625 
L 254.198905 382.978328 
L 254.865068 382.853924 
L 255.36469 382.818941 
L 255.864312 382.795247 
L 256.030853 382.698309 
L 256.197393 381.820318 
L 256.363934 378.696989 
L 256.697015 368.059725 
L 257.030097 366.269874 
L 257.529719 365.2153 
L 257.69626 365.215425 
L 257.8628 365.360774 
L 258.029341 368.266896 
L 258.362423 380.584141 
L 258.528963 381.924387 
L 258.862045 382.572486 
L 259.195126 382.805981 
L 260.02783 382.823874 
L 260.360911 382.71049 
L 261.193615 382.957894 
L 261.693237 382.889031 
L 262.026318 382.743299 
L 262.859022 382.714567 
L 263.025562 382.801976 
L 263.192103 383.018808 
L 263.525184 383.037116 
L 263.691725 382.879225 
L 266.689458 382.770936 
L 267.022539 382.732073 
L 267.688702 382.839455 
L 268.021784 382.745666 
L 269.021028 382.62533 
L 269.354109 382.399112 
L 269.52065 381.552731 
L 269.687191 378.483585 
L 270.020272 334.179812 
L 270.353354 325.790907 
L 270.686435 323.09586 
L 271.019516 320.997513 
L 271.186057 320.997644 
L 271.352598 324.210022 
L 271.85222 378.083469 
L 272.185301 381.621782 
L 272.518383 382.254846 
L 272.684923 382.454371 
L 273.351086 382.520325 
L 273.684168 382.722981 
L 275.349575 382.6881 
L 276.015738 381.907546 
L 276.182278 380.195825 
L 276.348819 366.656951 
L 276.6819 289.883801 
L 277.014982 279.217937 
L 277.514604 272.649334 
L 277.681145 272.649455 
L 277.847685 273.606705 
L 278.014226 281.394024 
L 278.347308 369.215264 
L 278.680389 379.887627 
L 279.01347 381.832206 
L 279.513092 382.401398 
L 280.179255 382.454511 
L 280.512337 382.764744 
L 281.011959 382.800442 
L 281.678122 382.666951 
L 282.510825 382.675038 
L 283.176988 382.661194 
L 283.510069 382.55382 
L 283.843151 382.800102 
L 284.176232 382.810113 
L 284.509314 382.685434 
L 285.008936 382.777581 
L 285.508558 382.68011 
L 285.841639 382.754084 
L 286.00818 382.498365 
L 286.674343 380.036027 
L 287.007424 379.924128 
L 287.340506 379.622599 
L 287.507046 379.622698 
L 287.673587 379.747703 
L 288.173209 382.151333 
L 288.506291 382.660176 
L 289.005913 382.574668 
L 289.505535 382.474864 
L 289.672076 382.541171 
L 289.838616 382.472789 
L 290.005157 382.261438 
L 290.171698 381.849182 
L 290.338239 380.059172 
L 290.504779 366.368267 
L 290.837861 232.974765 
L 291.170942 214.648801 
L 291.670564 204.878384 
L 291.837105 203.784396 
L 292.003646 203.784483 
L 292.170186 213.707248 
L 292.503268 353.226117 
L 292.669808 372.400365 
L 293.00289 379.733228 
L 293.335971 381.397052 
L 293.669053 381.791474 
L 294.002134 382.063242 
L 294.168675 382.408685 
L 294.501756 382.481049 
L 296.333704 382.49756 
L 296.500245 381.791818 
L 296.666785 379.628562 
L 297.166408 336.234434 
L 297.499489 332.515904 
L 297.999111 330.516052 
L 298.165652 330.516113 
L 298.332193 333.884933 
L 298.498733 345.58197 
L 298.665274 370.187441 
L 298.831815 378.145509 
L 299.164896 381.73184 
L 299.497978 382.30457 
L 299.9976 382.702782 
L 300.330681 382.672792 
L 300.663762 382.534449 
L 301.329925 382.633992 
L 301.663007 382.538539 
L 301.996088 382.622172 
L 302.32917 382.589927 
L 302.828792 382.271803 
L 303.994577 382.36925 
L 304.327658 382.748596 
L 304.82728 382.811965 
L 305.493443 382.970203 
L 305.826524 382.807785 
L 306.492687 382.911102 
L 306.825769 382.966149 
L 306.992309 382.957179 
L 307.15885 382.742036 
L 307.491932 382.81665 
L 307.825013 382.925126 
L 309.49042 382.824179 
L 310.822746 382.653905 
L 310.989286 382.832306 
L 311.82199 382.789759 
L 312.321612 382.312157 
L 312.654693 382.223506 
L 312.821234 381.201736 
L 312.987775 376.386818 
L 313.320856 350.369166 
L 313.653938 345.616006 
L 313.987019 344.641695 
L 314.15356 344.315189 
L 314.320101 344.315251 
L 314.486641 345.147532 
L 314.653182 349.073925 
L 314.986263 376.586207 
L 315.319345 381.693256 
L 315.485886 382.326879 
L 315.652426 382.489463 
L 316.152048 382.528748 
L 316.48513 382.869717 
L 316.818211 382.862299 
L 317.151293 382.744271 
L 317.484374 382.87907 
L 317.983996 382.912344 
L 319.649403 383.00924 
L 319.982485 382.88295 
L 320.315566 382.806322 
L 320.648648 382.816982 
L 321.481351 383.107749 
L 322.813677 382.852447 
L 323.812921 382.756548 
L 324.479084 383.046528 
L 325.478328 382.898731 
L 326.144491 382.766598 
L 326.477572 382.632059 
L 326.977194 382.635297 
L 327.476817 382.326265 
L 327.643357 381.316541 
L 327.809898 376.428642 
L 328.30952 273.369804 
L 328.642602 264.636902 
L 328.975683 262.254002 
L 329.142224 261.299952 
L 329.308764 261.300021 
L 329.475305 266.005968 
L 330.141468 378.05641 
L 330.474549 381.425273 
L 330.807631 381.996489 
L 331.473794 382.515127 
L 331.806875 382.546827 
L 332.473038 382.841985 
L 332.97266 382.787205 
L 333.305741 382.864809 
L 334.471526 382.934398 
L 334.971148 383.185881 
L 335.470771 382.751879 
L 337.80234 382.814391 
L 338.135422 382.936409 
L 338.301963 382.93647 
L 338.635044 382.771051 
L 339.134666 382.731356 
L 339.301207 381.785577 
L 339.467748 377.21746 
L 339.800829 343.748948 
L 340.13391 336.180828 
L 340.466992 334.890473 
L 340.633533 334.127536 
L 340.800073 334.127593 
L 340.966614 334.61449 
L 341.133155 339.063836 
L 341.466236 371.862132 
L 341.632777 379.155763 
L 341.965858 382.112258 
L 342.132399 382.373402 
L 342.798562 382.447304 
L 343.131643 382.600133 
L 343.964347 382.674075 
L 345.130132 383.054358 
L 345.296672 382.874563 
L 345.796294 382.886735 
L 346.129376 382.681404 
L 346.462457 382.620546 
L 347.295161 381.692989 
L 347.461702 381.659923 
L 347.961324 381.210829 
L 348.127864 380.790996 
L 348.294405 379.19883 
L 348.460946 364.655336 
L 348.794027 279.036854 
L 349.127109 261.85452 
L 349.46019 258.944076 
L 349.626731 258.02009 
L 349.793271 258.020124 
L 349.959812 260.810276 
L 350.126353 272.50277 
L 350.459434 356.171766 
L 350.625975 374.091611 
L 350.959056 380.750168 
L 351.292138 382.006814 
L 351.625219 382.363516 
L 352.291382 382.663821 
L 352.624464 382.751896 
L 353.290626 382.676727 
L 353.623708 382.676014 
L 355.122574 382.749944 
L 356.121818 382.910355 
L 356.288359 382.75161 
L 356.954522 382.805134 
L 357.620685 382.95272 
L 357.953766 382.895588 
L 358.286848 382.782023 
L 360.951499 382.616212 
L 361.28458 382.697541 
L 361.617662 382.652457 
L 362.616906 382.292976 
L 362.783447 381.89872 
L 362.949987 380.337398 
L 363.116528 369.243924 
L 363.61615 191.533509 
L 363.782691 181.789194 
L 364.115772 177.710924 
L 364.282313 176.484445 
L 364.448854 176.484474 
L 364.615395 177.342307 
L 364.781935 185.092664 
L 365.281557 357.935598 
L 365.448098 373.627407 
L 365.78118 379.506405 
L 366.114261 381.04596 
L 366.780424 382.024188 
L 367.446587 382.131059 
L 367.613127 382.131063 
L 367.946209 381.958757 
L 368.445831 381.565228 
L 368.612372 380.930153 
L 368.778912 378.890236 
L 368.945453 361.081031 
L 369.611616 44.638888 
L 369.778157 38.64931 
L 370.277779 33.969001 
L 370.444319 35.172931 
L 370.61086 48.348483 
L 371.277023 365.858329 
L 371.610104 377.334817 
L 371.943186 380.101569 
L 372.276267 381.006728 
L 373.108971 382.080342 
L 373.775134 382.388723 
L 374.108215 382.524854 
L 375.107459 382.575077 
L 376.106703 382.475561 
L 376.439785 382.628999 
L 378.105192 382.883022 
L 378.604814 382.770819 
L 378.937895 382.796347 
L 379.270977 383.037831 
L 379.604058 382.979086 
L 379.93714 382.855631 
L 380.270221 382.942867 
L 380.603303 383.016559 
L 380.936384 382.841943 
L 382.601791 382.760466 
L 383.101413 382.720527 
L 383.934117 382.800196 
L 384.267198 382.943129 
L 384.76682 382.977693 
L 384.933361 382.795583 
L 385.266442 382.795553 
L 385.599524 382.940749 
L 386.265687 383.047546 
L 386.765309 383.121254 
L 387.764553 383.132491 
L 387.931094 383.106148 
L 388.264175 382.867608 
L 389.096879 382.877369 
L 389.263419 383.13245 
L 389.763042 383.157275 
L 390.096123 382.972922 
L 390.595745 382.969915 
L 390.928827 383.064729 
L 391.261908 383.182871 
L 391.428449 383.146005 
L 391.76153 382.934574 
L 392.261152 382.920295 
L 393.260396 382.901531 
L 393.926559 382.765375 
L 394.0931 382.819563 
L 394.259641 383.049073 
L 394.592722 382.969336 
L 395.258885 382.766223 
L 395.591966 383.00177 
L 395.925048 382.925049 
L 397.257373 382.707719 
L 397.756996 382.786029 
L 398.423158 382.594978 
L 398.75624 382.667252 
L 399.922025 382.604183 
L 400.088565 382.428127 
L 400.255106 381.915723 
L 400.421647 380.087267 
L 400.588188 368.786102 
L 400.921269 237.903414 
L 401.25435 139.484819 
L 401.420891 134.639 
L 401.753973 133.457673 
L 401.920513 133.45769 
L 402.087054 134.887379 
L 402.253595 145.203609 
L 403.086298 375.034024 
L 403.41938 379.970922 
L 403.752461 381.229791 
L 404.085542 381.919795 
L 404.418624 382.321605 
L 404.918246 382.437478 
L 405.417868 382.590973 
L 405.91749 382.660946 
L 406.916735 382.756499 
L 407.416357 382.768537 
L 407.749438 382.672222 
L 408.082519 382.632343 
L 408.24906 382.577414 
L 408.415601 381.940082 
L 408.582142 378.911434 
L 408.915223 345.758083 
L 409.248304 314.738705 
L 409.414845 311.82819 
L 409.914467 311.91396 
L 410.081008 312.300721 
L 410.247549 315.648407 
L 410.414089 327.228748 
L 410.913712 375.897034 
L 411.246793 381.428338 
L 411.579874 382.216134 
L 411.912956 382.517841 
L 412.412578 382.984322 
L 412.579119 382.984308 
L 412.9122 382.821751 
L 413.911444 382.838986 
L 414.744148 383.021032 
L 415.077229 382.966838 
L 415.410311 383.019496 
L 416.742636 382.860688 
L 417.242258 383.19402 
L 417.57534 383.154137 
L 417.57534 383.154137 
" clip-path="url(#pf6870ca178)" style="fill: none; stroke: #5088c5; stroke-linecap: round"/>
   </g>
   <g id="line2d_14">
    <defs>
     <path id="m6446426801" d="M 0 2 
C 0.530406 2 1.03916 1.789267 1.414214 1.414214 
C 1.789267 1.03916 2 0.530406 2 0 
C 2 -0.530406 1.789267 -1.03916 1.414214 -1.414214 
C 1.03916 -1.789267 0.530406 -2 0 -2 
C -0.530406 -2 -1.03916 -1.789267 -1.414214 -1.414214 
C -1.789267 -1.03916 -2 -0.530406 -2 0 
C -2 0.530406 -1.789267 1.03916 -1.414214 1.414214 
C -1.03916 1.789267 -0.530406 2 0 2 
z
"/>
    </defs>
    <g clip-path="url(#pf6870ca178)">
     <use xlink:href="#m6446426801" x="203.653076" y="86.566723" style="fill: #f28360"/>
     <use xlink:href="#m6446426801" x="212.547615" y="358.621718" style="fill: #f28360"/>
     <use xlink:href="#m6446426801" x="231.5868" y="334.902938" style="fill: #f28360"/>
     <use xlink:href="#m6446426801" x="270.75247" y="323.09586" style="fill: #f28360"/>
     <use xlink:href="#m6446426801" x="277.350313" y="274.729009" style="fill: #f28360"/>
     <use xlink:href="#m6446426801" x="291.539078" y="207.939299" style="fill: #f28360"/>
     <use xlink:href="#m6446426801" x="297.747748" y="331.862079" style="fill: #f28360"/>
     <use xlink:href="#m6446426801" x="313.987763" y="344.641695" style="fill: #f28360"/>
     <use xlink:href="#m6446426801" x="328.899766" y="262.254002" style="fill: #f28360"/>
     <use xlink:href="#m6446426801" x="340.504349" y="334.890473" style="fill: #f28360"/>
     <use xlink:href="#m6446426801" x="349.479725" y="258.944076" style="fill: #f28360"/>
     <use xlink:href="#m6446426801" x="364.207932" y="176.484445" style="fill: #f28360"/>
     <use xlink:href="#m6446426801" x="370.050366" y="33.969005" style="fill: #f28360"/>
     <use xlink:href="#m6446426801" x="401.731135" y="133.457673" style="fill: #f28360"/>
     <use xlink:href="#m6446426801" x="409.749451" y="311.819906" style="fill: #f28360"/>
    </g>
   </g>
   <g id="patch_3">
    <path d="M 63.030156 397.163022 
L 63.030156 20 
" style="fill: none; stroke: #000000; stroke-width: 0.75; stroke-linejoin: miter; stroke-linecap: square"/>
   </g>
   <g id="patch_4">
    <path d="M 63.030156 397.163022 
L 431.211693 397.163022 
" style="fill: none; stroke: #000000; stroke-width: 0.75; stroke-linejoin: miter; stroke-linecap: square"/>
   </g>
  </g>
 </g>
 <defs>
  <clipPath id="pf6870ca178">
   <rect x="63.030156" y="20" width="368.181537" height="377.163022"/>
  </clipPath>
 </defs>
</svg>
