<?xml version="1.0" encoding="utf-8" standalone="no"?>
<!DOCTYPE svg PUBLIC "-//W3C//DTD SVG 1.1//EN"
  "http://www.w3.org/Graphics/SVG/1.1/DTD/svg11.dtd">
<svg xmlns:xlink="http://www.w3.org/1999/xlink" width="463.998551pt" height="463.99896pt" viewBox="0 0 463.998551 463.99896" xmlns="http://www.w3.org/2000/svg" version="1.1">
 <metadata>
  <rdf:RDF xmlns:dc="http://purl.org/dc/elements/1.1/" xmlns:cc="http://creativecommons.org/ns#" xmlns:rdf="http://www.w3.org/1999/02/22-rdf-syntax-ns#">
   <cc:Work>
    <dc:type rdf:resource="http://purl.org/dc/dcmitype/StillImage"/>
    <dc:date>2025-02-06T14:50:49.000890</dc:date>
    <dc:format>image/svg+xml</dc:format>
    <dc:creator>
     <cc:Agent>
      <dc:title>Matplotlib v3.8.4, https://matplotlib.org/</dc:title>
     </cc:Agent>
    </dc:creator>
   </cc:Work>
  </rdf:RDF>
 </metadata>
 <defs>
  <style type="text/css">*{stroke-linejoin: round; stroke-linecap: butt}</style>
 </defs>
 <g id="figure_1">
  <g id="patch_1">
   <path d="M 0 463.99896 
L 463.998551 463.99896 
L 463.998551 0 
L 0 0 
L 0 463.99896 
z
" style="fill: none"/>
  </g>
  <g id="axes_1">
   <g id="patch_2">
    <path d="M 63.030156 397.163023 
L 431.211608 397.163023 
L 431.211608 20 
L 63.030156 20 
L 63.030156 397.163023 
z
" style="fill: none"/>
   </g>
   <g id="matplotlib.axis_1">
    <g id="xtick_1">
     <g id="line2d_1">
      <defs>
       <path id="m335c96406f" d="M 0 0 
L 0 5 
" style="stroke: #000000; stroke-width: 0.75"/>
      </defs>
      <g>
       <use xlink:href="#m335c96406f" x="66.560768" y="397.163023" style="stroke: #000000; stroke-width: 0.75"/>
      </g>
     </g>
     <g id="text_1">
      <text style="font: 14.5px &quot;Suisse Int&apos;l Mono&quot;; text-anchor: middle" x="66.560768" y="417.675522" transform="rotate(-0 66.560768 417.675522)">540</text>
     </g>
    </g>
    <g id="xtick_2">
     <g id="line2d_2">
      <g>
       <use xlink:href="#m335c96406f" x="127.125541" y="397.163023" style="stroke: #000000; stroke-width: 0.75"/>
      </g>
     </g>
     <g id="text_2">
      <text style="font: 14.5px &quot;Suisse Int&apos;l Mono&quot;; text-anchor: middle" x="127.125541" y="417.675522" transform="rotate(-0 127.125541 417.675522)">560</text>
     </g>
    </g>
    <g id="xtick_3">
     <g id="line2d_3">
      <g>
       <use xlink:href="#m335c96406f" x="187.690315" y="397.163023" style="stroke: #000000; stroke-width: 0.75"/>
      </g>
     </g>
     <g id="text_3">
      <text style="font: 14.5px &quot;Suisse Int&apos;l Mono&quot;; text-anchor: middle" x="187.690315" y="417.675522" transform="rotate(-0 187.690315 417.675522)">580</text>
     </g>
    </g>
    <g id="xtick_4">
     <g id="line2d_4">
      <g>
       <use xlink:href="#m335c96406f" x="248.255089" y="397.163023" style="stroke: #000000; stroke-width: 0.75"/>
      </g>
     </g>
     <g id="text_4">
      <text style="font: 14.5px &quot;Suisse Int&apos;l Mono&quot;; text-anchor: middle" x="248.255089" y="417.675522" transform="rotate(-0 248.255089 417.675522)">600</text>
     </g>
    </g>
    <g id="xtick_5">
     <g id="line2d_5">
      <g>
       <use xlink:href="#m335c96406f" x="308.819863" y="397.163023" style="stroke: #000000; stroke-width: 0.75"/>
      </g>
     </g>
     <g id="text_5">
      <text style="font: 14.5px &quot;Suisse Int&apos;l Mono&quot;; text-anchor: middle" x="308.819863" y="417.675522" transform="rotate(-0 308.819863 417.675522)">620</text>
     </g>
    </g>
    <g id="xtick_6">
     <g id="line2d_6">
      <g>
       <use xlink:href="#m335c96406f" x="369.384636" y="397.163023" style="stroke: #000000; stroke-width: 0.75"/>
      </g>
     </g>
     <g id="text_6">
      <text style="font: 14.5px &quot;Suisse Int&apos;l Mono&quot;; text-anchor: middle" x="369.384636" y="417.675522" transform="rotate(-0 369.384636 417.675522)">640</text>
     </g>
    </g>
    <g id="xtick_7">
     <g id="line2d_7">
      <g>
       <use xlink:href="#m335c96406f" x="429.94941" y="397.163023" style="stroke: #000000; stroke-width: 0.75"/>
      </g>
     </g>
     <g id="text_7">
      <text style="font: 14.5px &quot;Suisse Int&apos;l Mono&quot;; text-anchor: middle" x="429.94941" y="417.675522" transform="rotate(-0 429.94941 417.675522)">660</text>
     </g>
    </g>
    <g id="text_8">
     <text style="font: 500 15px &quot;Suisse Int&apos;l&quot;, sans-serif; text-anchor: middle" x="247.120882" y="441.088023" transform="rotate(-0 247.120882 441.088023)">Wavelength (nm)</text>
    </g>
   </g>
   <g id="matplotlib.axis_2">
    <g id="ytick_1">
     <g id="line2d_8">
      <defs>
       <path id="m74b624ea79" d="M 0 0 
L -5 0 
" style="stroke: #000000; stroke-width: 0.75"/>
      </defs>
      <g>
       <use xlink:href="#m74b624ea79" x="63.030156" y="383.013961" style="stroke: #000000; stroke-width: 0.75"/>
      </g>
     </g>
     <g id="text_9">
      <text style="font: 14.5px &quot;Suisse Int&apos;l Mono&quot;; text-anchor: end" x="53.030156" y="388.270211" transform="rotate(-0 53.030156 388.270211)">0</text>
     </g>
    </g>
    <g id="ytick_2">
     <g id="line2d_9">
      <g>
       <use xlink:href="#m74b624ea79" x="63.030156" y="308.152898" style="stroke: #000000; stroke-width: 0.75"/>
      </g>
     </g>
     <g id="text_10">
      <text style="font: 14.5px &quot;Suisse Int&apos;l Mono&quot;; text-anchor: end" x="53.030156" y="313.409148" transform="rotate(-0 53.030156 313.409148)">1</text>
     </g>
    </g>
    <g id="ytick_3">
     <g id="line2d_10">
      <g>
       <use xlink:href="#m74b624ea79" x="63.030156" y="233.291835" style="stroke: #000000; stroke-width: 0.75"/>
      </g>
     </g>
     <g id="text_11">
      <text style="font: 14.5px &quot;Suisse Int&apos;l Mono&quot;; text-anchor: end" x="53.030156" y="238.548085" transform="rotate(-0 53.030156 238.548085)">2</text>
     </g>
    </g>
    <g id="ytick_4">
     <g id="line2d_11">
      <g>
       <use xlink:href="#m74b624ea79" x="63.030156" y="158.430772" style="stroke: #000000; stroke-width: 0.75"/>
      </g>
     </g>
     <g id="text_12">
      <text style="font: 14.5px &quot;Suisse Int&apos;l Mono&quot;; text-anchor: end" x="53.030156" y="163.687022" transform="rotate(-0 53.030156 163.687022)">3</text>
     </g>
    </g>
    <g id="ytick_5">
     <g id="line2d_12">
      <g>
       <use xlink:href="#m74b624ea79" x="63.030156" y="83.569709" style="stroke: #000000; stroke-width: 0.75"/>
      </g>
     </g>
     <g id="text_13">
      <text style="font: 14.5px &quot;Suisse Int&apos;l Mono&quot;; text-anchor: end" x="53.030156" y="88.825959" transform="rotate(-0 53.030156 88.825959)">4</text>
     </g>
    </g>
    <g id="text_14">
     <text style="font: 500 15px &quot;Suisse Int&apos;l&quot;, sans-serif; text-anchor: middle" x="30.875" y="208.581511" transform="rotate(-90 30.875 208.581511)">Intensity (au)</text>
    </g>
   </g>
   <g id="line2d_13">
    <path d="M 76.666506 382.816857 
L 76.833047 382.844015 
L 77.166128 383.018788 
L 77.998832 382.898164 
L 78.664994 382.797185 
L 78.831535 383.022905 
L 79.331157 382.928323 
L 79.497698 382.830999 
L 79.830779 382.898397 
L 79.99732 382.883775 
L 80.16386 383.129144 
L 80.330401 383.023824 
L 80.496942 383.085052 
L 80.663482 382.828491 
L 81.329645 382.883552 
L 81.496186 382.802678 
L 81.995808 382.845174 
L 82.162348 382.81913 
L 82.49543 382.983167 
L 82.66197 382.825072 
L 82.828511 382.863911 
L 82.995052 382.781209 
L 83.161592 382.982027 
L 83.328133 382.803371 
L 83.994296 382.926971 
L 84.160836 382.843355 
L 84.327377 382.934055 
L 84.99354 382.855467 
L 85.160081 382.991174 
L 85.493162 382.982722 
L 85.992784 383.092385 
L 86.658947 382.854788 
L 87.325109 382.97816 
L 87.49165 382.875581 
L 87.658191 382.985929 
L 87.824731 382.854564 
L 88.157813 383.001466 
L 88.324353 382.997811 
L 88.657435 382.848399 
L 90.655923 382.963549 
L 91.988248 382.910321 
L 92.48787 382.931569 
L 92.654411 382.843155 
L 93.320573 382.993712 
L 93.487114 382.887478 
L 93.820195 382.946421 
L 93.986736 383.011533 
L 94.319817 382.846813 
L 95.152521 383.112064 
L 95.485602 382.948937 
L 95.652143 383.003083 
L 95.818683 382.802723 
L 98.150253 383.033706 
L 98.483334 383.193847 
L 98.816415 383.114583 
L 99.149497 383.193847 
L 99.649119 382.863282 
L 99.81566 382.949185 
L 99.9822 382.803657 
L 102.147229 382.968167 
L 102.48031 383.095423 
L 103.146473 382.864912 
L 103.313014 382.974346 
L 103.812636 382.850981 
L 104.145717 383.040835 
L 104.81188 382.912902 
L 104.97842 382.992637 
L 105.478042 382.860819 
L 105.811124 382.951064 
L 105.977664 382.869961 
L 106.477286 383.03994 
L 107.143449 383.051825 
L 107.30999 383.098661 
L 107.809612 382.836164 
L 108.642315 382.839826 
L 108.808856 382.98924 
L 111.140425 382.908613 
L 111.473506 382.79507 
L 111.640047 382.973957 
L 112.972372 382.800337 
L 113.305454 383.040681 
L 113.471994 382.818161 
L 114.138157 382.978546 
L 115.137401 383.090956 
L 115.303942 382.939488 
L 115.470483 383.000261 
L 115.637023 382.879634 
L 115.803564 383.007346 
L 116.303186 382.844229 
L 116.469727 382.975824 
L 116.969349 382.728405 
L 117.468971 382.958927 
L 117.635511 383.077271 
L 118.135133 382.695059 
L 118.468215 382.804267 
L 118.634755 382.782792 
L 119.134377 383.030677 
L 119.467459 382.94615 
L 119.633999 382.999839 
L 120.133621 382.800396 
L 120.300162 382.917141 
L 120.633243 382.913489 
L 120.966325 383.029778 
L 121.132865 382.961926 
L 121.299406 382.743747 
L 121.465947 382.726157 
L 121.965569 383.193879 
L 122.465191 383.018824 
L 122.798272 383.015172 
L 122.964813 382.942066 
L 123.131353 383.012205 
L 123.464435 382.865537 
L 124.630219 383.116855 
L 124.79676 383.190422 
L 125.462923 382.837456 
L 125.962545 382.94918 
L 126.462167 382.768929 
L 126.961789 383.024812 
L 127.627951 382.889341 
L 127.794492 382.785393 
L 128.294114 382.917677 
L 128.627195 382.759586 
L 129.126817 383.124216 
L 130.292602 382.926612 
L 130.459143 383.008174 
L 130.625684 382.906283 
L 130.958765 383.021889 
L 131.125306 382.949697 
L 131.624928 383.111453 
L 131.958009 382.972553 
L 132.29109 382.993119 
L 132.457631 382.978728 
L 132.624172 382.828859 
L 133.123794 383.02717 
L 133.456875 383.048192 
L 133.623416 382.920255 
L 134.123038 383.153521 
L 134.62266 382.890113 
L 134.7892 382.97853 
L 135.288822 382.77155 
L 136.121526 383.02584 
L 136.288066 382.950222 
L 136.454607 383.041152 
L 136.621148 382.830741 
L 136.787688 382.968048 
L 137.453851 382.872104 
L 137.620392 383.0631 
L 137.953473 382.930825 
L 138.286554 383.044375 
L 138.453095 383.015819 
L 138.619636 382.82597 
L 138.952717 382.96762 
L 139.285798 382.822095 
L 139.452339 382.704896 
L 140.118502 382.867341 
L 140.285042 383.084838 
L 140.451583 382.950505 
L 140.618124 383.070678 
L 140.784664 382.839934 
L 141.284286 383.088964 
L 141.617368 383.012663 
L 141.950449 382.824186 
L 142.28353 383.10657 
L 142.616612 382.945738 
L 142.949693 383.080535 
L 143.282774 382.843853 
L 143.782396 382.681882 
L 144.448559 382.892076 
L 144.78164 382.745637 
L 145.114722 382.835199 
L 145.447803 382.909682 
L 145.780884 383.128781 
L 146.447047 382.77559 
L 146.613588 382.991946 
L 146.780129 382.922496 
L 147.279751 382.978705 
L 147.612832 382.865623 
L 147.945913 382.894642 
L 148.278995 383.10643 
L 148.612076 382.793901 
L 148.778617 382.734046 
L 148.945157 382.892601 
L 149.111698 382.805103 
L 149.278239 382.896718 
L 149.944401 382.790038 
L 150.610564 383.00046 
L 150.777105 382.822263 
L 151.942889 382.955246 
L 152.10943 382.878256 
L 152.442511 383.018765 
L 152.942133 382.713548 
L 153.108674 382.79237 
L 153.441755 382.724979 
L 153.774837 382.803575 
L 154.107918 382.869834 
L 154.440999 382.823918 
L 154.774081 382.636584 
L 155.440243 382.903209 
L 155.939865 383.05263 
L 156.439487 382.889288 
L 156.606028 382.955544 
L 157.272191 382.741942 
L 157.438731 382.880392 
L 157.771813 382.865775 
L 157.938353 382.826711 
L 158.604516 383.051755 
L 158.937597 382.932959 
L 159.770301 382.873114 
L 160.936085 383.162952 
L 162.434952 382.718034 
L 162.601492 382.831354 
L 162.768033 382.757793 
L 162.934574 382.895787 
L 163.933818 382.690876 
L 164.100358 382.87342 
L 165.266143 382.909311 
L 165.432684 382.770867 
L 166.598468 383.023111 
L 166.765009 383.012149 
L 167.264631 382.605269 
L 168.097334 383.033879 
L 168.763497 382.749687 
L 169.096578 383.007626 
L 169.263119 383.048981 
L 169.5962 382.85868 
L 170.095822 383.038032 
L 170.262363 382.906898 
L 170.595444 382.917871 
L 171.92777 382.395176 
L 172.260851 382.281412 
L 172.593932 382.301065 
L 173.260095 382.95996 
L 173.426636 382.86104 
L 173.926258 382.932101 
L 174.259339 382.920684 
L 174.42588 382.924114 
L 174.59242 383.059138 
L 175.092042 382.84211 
L 175.425124 382.910654 
L 175.591664 382.755532 
L 175.758205 382.800771 
L 176.424368 380.954816 
L 176.590908 381.010333 
L 176.92399 380.917358 
L 177.590153 381.007839 
L 178.089775 382.629013 
L 178.422856 382.833493 
L 178.589397 383.008954 
L 179.4221 382.871294 
L 179.588641 382.784487 
L 179.755181 382.922481 
L 180.254803 382.838416 
L 181.254047 383.004526 
L 182.919454 382.885306 
L 183.085995 382.97578 
L 183.252535 382.906559 
L 183.585617 383.066744 
L 183.752157 383.125233 
L 184.085239 382.858853 
L 184.584861 383.183963 
L 185.251023 382.828718 
L 186.250267 382.852041 
L 186.416808 382.935432 
L 186.583349 382.874893 
L 186.91643 382.93567 
L 187.915674 382.800668 
L 188.415296 382.38488 
L 188.748377 382.466444 
L 189.581081 382.550534 
L 190.413784 382.744742 
L 190.913406 382.713223 
L 191.413028 382.757097 
L 191.579569 382.689476 
L 191.746109 382.858997 
L 192.245732 382.718045 
L 192.578813 382.787047 
L 192.911894 382.203794 
L 193.411516 381.526873 
L 193.744598 381.344333 
L 194.077679 381.26552 
L 194.24422 381.073847 
L 194.41076 381.153357 
L 195.076923 382.596101 
L 195.576545 382.656195 
L 195.909626 382.58218 
L 196.409248 382.669461 
L 196.74233 382.758796 
L 197.241952 382.705574 
L 197.741574 382.716321 
L 197.908114 382.496544 
L 198.074655 382.60895 
L 198.407736 382.604388 
L 198.574277 382.6743 
L 198.740818 382.534028 
L 198.907358 382.634782 
L 199.40698 382.291415 
L 199.906602 382.336656 
L 200.905846 381.993527 
L 201.072387 382.001074 
L 201.405468 381.79478 
L 202.238172 379.680842 
L 202.404712 377.125048 
L 202.571253 359.884666 
L 202.904334 137.109448 
L 203.237416 106.948676 
L 203.903578 72.955018 
L 204.070119 69.131864 
L 204.23666 75.901551 
L 204.4032 158.8259 
L 204.569741 320.9549 
L 204.736282 360.595031 
L 205.069363 375.294227 
L 205.402444 379.209357 
L 205.735526 380.619659 
L 206.068607 381.275346 
L 206.568229 381.796508 
L 206.73477 382.12047 
L 207.400932 382.253905 
L 207.734014 382.17349 
L 208.233636 382.37135 
L 208.733258 382.351484 
L 209.066339 382.036216 
L 209.899043 382.123275 
L 210.065583 382.089004 
L 211.064827 382.718209 
L 211.231368 382.577709 
L 211.397909 381.545294 
L 211.564449 376.555018 
L 211.73099 365.345817 
L 212.064071 360.917338 
L 212.563693 358.732295 
L 212.896775 357.899841 
L 213.063315 358.16208 
L 213.229856 361.117222 
L 213.562937 379.539677 
L 213.896019 382.128374 
L 214.2291 382.524536 
L 214.562181 382.672585 
L 214.895263 382.620959 
L 215.394885 382.940358 
L 215.727966 382.778614 
L 216.061047 382.816773 
L 216.893751 383.005498 
L 217.393373 382.669897 
L 217.559913 382.702114 
L 217.892995 382.31602 
L 218.226076 381.801763 
L 219.22532 381.261697 
L 219.558401 381.633181 
L 219.891483 382.143802 
L 220.391105 382.16186 
L 220.557645 382.204808 
L 221.057267 382.736221 
L 221.390349 382.70904 
L 222.056511 382.530624 
L 222.556133 382.618363 
L 222.722674 382.740135 
L 223.388837 382.471478 
L 223.555378 382.431041 
L 223.888459 382.690581 
L 224.22154 382.581383 
L 224.388081 382.540949 
L 225.220784 383.05386 
L 225.553866 382.917018 
L 227.552354 382.66849 
L 227.885435 382.788438 
L 228.385057 382.747553 
L 228.884679 382.71078 
L 229.05122 382.792115 
L 229.21776 382.681315 
L 229.384301 382.790523 
L 229.550842 382.663729 
L 229.883923 382.627639 
L 230.217004 382.460412 
L 230.383545 381.272191 
L 230.550086 377.066444 
L 230.883167 343.802965 
L 231.216248 337.676561 
L 231.882411 332.958595 
L 232.048952 333.112809 
L 232.215492 336.695959 
L 232.548574 375.672148 
L 232.881655 381.117798 
L 233.214736 382.043066 
L 233.547818 382.531754 
L 233.880899 382.62543 
L 234.380521 382.788332 
L 234.547062 382.706318 
L 234.880143 382.875385 
L 235.213224 382.802284 
L 235.379765 382.627057 
L 235.712846 382.81463 
L 236.045928 382.795217 
L 236.71209 382.648101 
L 237.211712 382.057078 
L 237.711334 382.211533 
L 238.210957 382.103705 
L 238.544038 382.350904 
L 238.877119 382.781791 
L 239.210201 382.915447 
L 239.376741 382.796879 
L 239.543282 382.520901 
L 239.709823 381.477751 
L 239.876363 379.074569 
L 240.209445 371.323568 
L 240.542526 369.745797 
L 240.875607 369.020245 
L 241.042148 368.712267 
L 241.208689 368.760927 
L 241.375229 369.327327 
L 241.54177 371.848797 
L 241.874851 380.703994 
L 242.041392 382.078646 
L 242.207933 382.430478 
L 243.207177 382.880797 
L 244.03988 382.419547 
L 244.206421 382.454735 
L 244.706043 382.190189 
L 245.039124 382.177629 
L 245.205665 382.111669 
L 245.705287 382.649504 
L 246.038368 382.716221 
L 246.371449 382.495763 
L 247.037612 382.805112 
L 247.537234 382.921865 
L 247.703775 382.737042 
L 248.036856 382.726996 
L 248.203397 382.878241 
L 248.703019 382.809255 
L 248.869559 382.889448 
L 249.369181 382.828914 
L 249.702263 382.889235 
L 249.868803 382.79237 
L 250.035344 382.831897 
L 250.201885 383.005302 
L 250.368425 382.934254 
L 250.534966 383.01399 
L 251.034588 382.891772 
L 251.201129 383.043702 
L 251.367669 382.944552 
L 251.700751 382.926738 
L 251.867291 382.780069 
L 252.533454 383.013568 
L 253.033076 382.952806 
L 253.199617 383.104736 
L 254.03232 382.933633 
L 254.365402 382.92747 
L 254.531942 382.825122 
L 254.698483 382.962888 
L 255.198105 382.632312 
L 255.531186 382.860779 
L 256.030808 382.65403 
L 256.197349 381.780398 
L 256.36389 378.672871 
L 256.696971 368.089613 
L 257.030052 366.309268 
L 257.529674 365.259043 
L 257.696215 365.145928 
L 257.862756 365.4036 
L 258.029296 368.295034 
L 258.362378 380.549027 
L 258.528918 381.881876 
L 258.862 382.526597 
L 259.195081 382.758948 
L 260.027784 382.776325 
L 260.194325 382.646104 
L 260.693947 382.791871 
L 260.860488 382.934434 
L 262.858976 382.665568 
L 263.025516 382.75193 
L 263.358598 383.0021 
L 263.525138 382.985653 
L 263.691679 382.813396 
L 265.024004 382.833064 
L 265.690167 382.829876 
L 266.023248 382.852955 
L 266.35633 382.719996 
L 267.355574 382.813223 
L 267.688655 382.78627 
L 268.188277 382.627953 
L 268.687899 382.687589 
L 269.020981 382.571992 
L 269.354062 382.346279 
L 269.520603 381.504175 
L 269.687143 378.450562 
L 270.020225 334.373551 
L 270.353306 326.027366 
L 270.686387 323.345244 
L 271.186009 320.831035 
L 271.35255 324.453787 
L 271.852172 378.051014 
L 272.185253 381.570922 
L 272.518335 382.200339 
L 272.684875 382.414404 
L 273.184497 382.446628 
L 273.351038 382.463994 
L 273.684119 382.690175 
L 275.016445 382.571623 
L 275.349526 382.629886 
L 276.015689 381.852671 
L 276.182229 380.149492 
L 276.34877 366.679846 
L 276.681851 290.299328 
L 277.014933 279.687024 
L 277.514555 273.152402 
L 277.681095 272.325187 
L 277.847636 274.104635 
L 278.014177 281.852006 
L 278.347258 369.223326 
L 278.680339 379.841335 
L 279.013421 381.775723 
L 279.679583 382.341628 
L 280.012665 382.343919 
L 280.179205 382.393956 
L 280.512287 382.741449 
L 281.011909 382.737572 
L 281.678071 382.604617 
L 282.177693 382.575153 
L 282.344234 382.704464 
L 282.510775 382.563963 
L 283.010397 382.684369 
L 283.510019 382.45363 
L 284.009641 382.807752 
L 284.675804 382.673883 
L 284.842344 382.773266 
L 285.508507 382.581825 
L 285.841588 382.697203 
L 286.008129 382.43356 
L 286.674292 379.983552 
L 287.007373 379.871613 
L 287.506995 379.483458 
L 287.673536 379.696161 
L 288.173158 382.08679 
L 288.506239 382.592833 
L 288.83932 382.588725 
L 289.338942 382.408019 
L 289.505483 382.493009 
L 289.672024 382.405736 
L 289.838564 382.474051 
L 290.171646 381.785699 
L 290.338186 380.004388 
L 290.504727 366.383328 
L 290.837808 233.672181 
L 291.17089 215.43902 
L 291.670512 205.71906 
L 291.837052 203.557821 
L 292.003593 204.629832 
L 292.170134 214.502509 
L 292.503215 353.307572 
L 292.669756 372.383668 
L 293.002837 379.679096 
L 293.335918 381.334304 
L 293.669 381.726576 
L 294.501703 382.420426 
L 294.668244 382.339322 
L 295.001325 382.509075 
L 295.334406 382.56094 
L 295.500947 382.364236 
L 295.667488 382.538784 
L 296.16711 382.477563 
L 296.33365 382.427988 
L 296.500191 381.725469 
L 296.666732 379.573139 
L 297.166354 336.401026 
L 297.499435 332.701542 
L 297.999057 330.705522 
L 298.165598 330.711212 
L 298.332138 334.062741 
L 298.498679 345.700343 
L 298.66522 370.179761 
L 298.83176 378.097307 
L 299.164842 381.664736 
L 299.497923 382.234751 
L 299.997545 382.652386 
L 300.330627 382.600986 
L 300.497167 382.463226 
L 301.329871 382.571299 
L 301.496411 382.405667 
L 302.162574 382.654927 
L 302.828737 382.164884 
L 303.494899 382.270671 
L 303.827981 382.167183 
L 304.660684 382.730123 
L 305.493387 382.894854 
L 305.826469 382.677135 
L 306.825713 382.909035 
L 306.992253 382.88185 
L 307.158794 382.667327 
L 307.491875 382.74181 
L 307.824957 382.849419 
L 308.324579 382.949035 
L 308.65766 382.960462 
L 308.990741 382.770157 
L 309.323823 382.788895 
L 309.989985 382.733843 
L 310.323067 382.686556 
L 310.822689 382.578728 
L 311.15577 382.808793 
L 311.488851 382.789148 
L 311.655392 382.8353 
L 312.654636 382.14924 
L 312.821177 381.133046 
L 312.987717 376.342447 
L 313.320799 350.457543 
L 313.65388 345.729093 
L 313.986961 344.759717 
L 314.320043 344.18718 
L 314.486583 345.262559 
L 314.653124 349.169034 
L 314.986205 376.539855 
L 315.319287 381.621297 
L 315.652368 382.459298 
L 315.98545 382.329991 
L 316.651612 382.825761 
L 316.818153 382.783726 
L 316.984694 382.615123 
L 318.150478 382.8685 
L 318.48356 382.905286 
L 318.816641 382.975199 
L 319.149722 382.895241 
L 319.482804 382.952588 
L 319.982426 382.80295 
L 320.315507 382.708828 
L 321.14821 382.869672 
L 321.314751 383.02617 
L 321.481292 382.981622 
L 321.647832 383.091513 
L 321.980914 382.760476 
L 322.647076 382.821939 
L 322.813617 382.708623 
L 323.313239 382.784477 
L 323.64632 382.64352 
L 324.145942 382.783115 
L 324.312483 382.986675 
L 325.145186 382.757536 
L 325.478268 382.845268 
L 326.810593 382.553993 
L 326.977134 382.586436 
L 327.310215 382.37077 
L 327.476756 382.246493 
L 327.643296 381.241715 
L 327.809837 376.378463 
L 328.309459 273.847111 
L 328.64254 265.157987 
L 328.975622 262.787136 
L 329.308703 261.460598 
L 329.475244 266.519708 
L 330.141406 377.99736 
L 330.474488 381.348664 
L 330.807569 381.916852 
L 331.473732 382.432718 
L 331.806813 382.464021 
L 332.472976 382.719218 
L 332.639517 382.75783 
L 332.972598 382.702772 
L 333.305679 382.779996 
L 334.471464 382.848771 
L 334.971086 383.098712 
L 335.470708 382.667153 
L 335.97033 382.662588 
L 336.136871 382.746663 
L 336.803033 382.546309 
L 337.136115 382.751698 
L 337.802277 382.728629 
L 338.135359 382.888326 
L 339.134603 382.645024 
L 339.301143 381.704221 
L 339.467684 377.159211 
L 339.800765 343.862328 
L 340.133847 336.332503 
L 340.466928 335.04856 
L 340.800009 333.960829 
L 340.96655 334.773745 
L 341.133091 339.200579 
L 341.466172 371.830794 
L 341.632713 379.087219 
L 341.965794 382.028428 
L 342.132335 382.297329 
L 342.798497 382.361304 
L 343.131579 382.513691 
L 344.130823 382.652147 
L 344.463904 382.864847 
L 344.796985 382.836978 
L 345.130067 382.974514 
L 345.463148 382.695793 
L 345.796229 382.95807 
L 346.129311 382.593676 
L 346.462392 382.532908 
L 347.295096 381.609927 
L 347.461636 381.5768 
L 347.961258 381.130163 
L 348.127799 380.712768 
L 348.29434 379.128393 
L 348.46088 364.659022 
L 348.793962 279.478136 
L 349.127043 262.383612 
L 349.460124 259.487986 
L 349.793206 258.120273 
L 349.959746 261.345288 
L 350.126287 272.977948 
L 350.459368 356.218509 
L 350.625909 374.046521 
L 350.95899 380.671433 
L 351.292072 381.921806 
L 351.625153 382.27661 
L 352.457856 382.786996 
L 352.790938 382.615424 
L 353.623641 382.636904 
L 353.790182 382.518791 
L 354.289804 382.637366 
L 355.78867 382.825627 
L 356.121751 382.819918 
L 356.288292 382.661594 
L 356.954454 382.715058 
L 357.620617 382.875671 
L 357.953698 382.805078 
L 358.28678 382.635334 
L 358.45332 382.726948 
L 358.786402 382.67486 
L 359.119483 382.735405 
L 359.619105 382.551953 
L 359.785646 382.518142 
L 360.118727 382.615468 
L 360.285268 382.688805 
L 360.618349 382.598564 
L 360.95143 382.513122 
L 361.451053 382.696123 
L 361.784134 382.494164 
L 362.450297 382.313455 
L 362.616837 382.204255 
L 362.783378 381.811982 
L 362.949919 380.259132 
L 363.116459 369.221931 
L 363.616081 192.42368 
L 363.782622 182.725429 
L 364.115703 178.671702 
L 364.448785 176.901238 
L 364.615325 178.299642 
L 364.781866 186.012577 
L 365.281488 357.971133 
L 365.448029 373.582584 
L 365.78111 379.431433 
L 366.114191 380.96327 
L 366.780354 381.93629 
L 367.113435 381.986552 
L 367.446517 382.043213 
L 367.613057 382.042524 
L 367.779598 381.871414 
L 367.946139 381.895175 
L 368.445761 381.47983 
L 368.612301 380.848137 
L 368.778842 378.818257 
L 368.945383 361.100395 
L 369.611545 46.276161 
L 369.778086 40.316471 
L 370.277708 33.969001 
L 370.444249 36.857889 
L 370.610789 49.967558 
L 371.276952 365.853544 
L 371.610033 377.271361 
L 371.943115 380.023635 
L 372.276196 380.92446 
L 373.108899 381.99298 
L 373.775062 382.300037 
L 374.108143 382.434824 
L 374.441225 382.460416 
L 374.607765 382.391875 
L 374.774306 382.513192 
L 376.106631 382.35442 
L 376.273172 382.530333 
L 376.772794 382.569631 
L 376.939335 382.756513 
L 377.272416 382.637029 
L 377.605498 382.644342 
L 377.938579 382.837849 
L 378.771282 382.680672 
L 378.937823 382.70626 
L 379.270904 382.968078 
L 379.603986 382.88789 
L 379.937067 382.764978 
L 380.103608 382.73962 
L 380.436689 382.967854 
L 381.769014 382.727745 
L 383.934043 382.70285 
L 384.433665 383.0163 
L 384.933287 382.611011 
L 385.432909 382.854552 
L 386.099072 382.863464 
L 386.598694 383.030698 
L 386.765234 382.97861 
L 387.098316 383.073422 
L 387.431397 382.929492 
L 387.597938 383.056974 
L 387.931019 383.015395 
L 388.2641 382.778025 
L 389.096804 382.78808 
L 389.429885 383.109526 
L 389.929507 382.914422 
L 390.429129 382.726172 
L 390.76221 382.883811 
L 391.261832 383.102223 
L 391.428373 383.055389 
L 391.761454 382.844749 
L 392.261077 382.830359 
L 392.594158 382.837214 
L 392.927239 382.812999 
L 393.593402 382.73464 
L 393.759943 382.586827 
L 394.426105 382.972016 
L 395.092268 382.676847 
L 395.258809 382.667481 
L 395.59189 382.940036 
L 396.091512 382.798392 
L 396.424593 382.622706 
L 396.924215 382.752246 
L 397.090756 382.585698 
L 397.923459 382.64967 
L 398.256541 382.411844 
L 398.756163 382.602611 
L 398.922703 382.500946 
L 399.422325 382.593703 
L 400.088488 382.340343 
L 400.255029 381.830187 
L 400.421569 380.010951 
L 400.58811 368.76792 
L 400.921191 238.554512 
L 401.254273 140.639984 
L 401.420813 135.820429 
L 401.920435 134.037986 
L 402.086976 136.06747 
L 402.253517 146.329424 
L 403.08622 374.983632 
L 403.419301 379.895588 
L 403.752383 381.148013 
L 404.085464 381.834317 
L 404.418545 382.244862 
L 404.751627 382.309969 
L 405.084708 382.421002 
L 405.251249 382.623195 
L 405.58433 382.490231 
L 405.750871 382.438602 
L 406.083952 382.634392 
L 406.417033 382.544608 
L 406.583574 382.472871 
L 407.083196 382.745427 
L 407.9159 382.543241 
L 408.08244 382.723955 
L 408.248981 382.488183 
L 408.415522 381.854205 
L 408.582062 378.841024 
L 408.915144 345.857135 
L 409.248225 314.996335 
L 409.414766 312.100859 
L 409.914388 311.993508 
L 410.080928 312.57151 
L 410.247469 315.901555 
L 410.41401 327.423046 
L 410.913632 375.842253 
L 411.246713 381.345657 
L 411.579794 382.12928 
L 411.912876 382.429023 
L 412.412498 382.900568 
L 412.579038 382.893486 
L 412.91212 382.684902 
L 413.411742 382.731509 
L 414.244445 382.850539 
L 414.577526 383.01389 
L 415.077148 382.867447 
L 415.41023 382.928676 
L 416.076392 382.840491 
L 416.242933 382.902633 
L 416.576014 382.678513 
L 416.909096 382.927308 
L 417.242177 383.121044 
L 417.575258 382.931422 
L 417.575258 382.931422 
" clip-path="url(#p73e8f6459a)" style="fill: none; stroke: #5088c5; stroke-linecap: round"/>
   </g>
   <g id="line2d_14">
    <defs>
     <path id="mb123834ee7" d="M 0 2 
C 0.530406 2 1.03916 1.789267 1.414214 1.414214 
C 1.789267 1.03916 2 0.530406 2 0 
C 2 -0.530406 1.789267 -1.03916 1.414214 -1.414214 
C 1.03916 -1.789267 0.530406 -2 0 -2 
C -0.530406 -2 -1.03916 -1.789267 -1.414214 -1.414214 
C -1.789267 -1.03916 -2 -0.530406 -2 0 
C -2 0.530406 -1.789267 1.03916 -1.414214 1.414214 
C -1.03916 1.789267 -0.530406 2 0 2 
z
"/>
    </defs>
    <g clip-path="url(#p73e8f6459a)">
     <use xlink:href="#mb123834ee7" x="203.653933" y="80.024148" style="fill: #f28360"/>
     <use xlink:href="#mb123834ee7" x="212.548287" y="358.732295" style="fill: #f28360"/>
     <use xlink:href="#mb123834ee7" x="231.586785" y="335.119608" style="fill: #f28360"/>
     <use xlink:href="#mb123834ee7" x="270.752781" y="323.345244" style="fill: #f28360"/>
     <use xlink:href="#mb123834ee7" x="277.350718" y="275.220813" style="fill: #f28360"/>
     <use xlink:href="#mb123834ee7" x="291.539444" y="208.76366" style="fill: #f28360"/>
     <use xlink:href="#mb123834ee7" x="297.747653" y="332.0507" style="fill: #f28360"/>
     <use xlink:href="#mb123834ee7" x="313.988135" y="344.759717" style="fill: #f28360"/>
     <use xlink:href="#mb123834ee7" x="328.899852" y="262.787136" style="fill: #f28360"/>
     <use xlink:href="#mb123834ee7" x="340.504732" y="335.04856" style="fill: #f28360"/>
     <use xlink:href="#mb123834ee7" x="349.479918" y="259.487986" style="fill: #f28360"/>
     <use xlink:href="#mb123834ee7" x="364.208019" y="177.449969" style="fill: #f28360"/>
     <use xlink:href="#mb123834ee7" x="370.050582" y="35.66161" style="fill: #f28360"/>
     <use xlink:href="#mb123834ee7" x="401.731181" y="134.646607" style="fill: #f28360"/>
     <use xlink:href="#mb123834ee7" x="409.749603" y="312.186724" style="fill: #f28360"/>
    </g>
   </g>
   <g id="patch_3">
    <path d="M 63.030156 397.163023 
L 63.030156 20 
" style="fill: none; stroke: #000000; stroke-width: 0.75; stroke-linejoin: miter; stroke-linecap: square"/>
   </g>
   <g id="patch_4">
    <path d="M 63.030156 397.163023 
L 431.211608 397.163023 
" style="fill: none; stroke: #000000; stroke-width: 0.75; stroke-linejoin: miter; stroke-linecap: square"/>
   </g>
  </g>
 </g>
 <defs>
  <clipPath id="p73e8f6459a">
   <rect x="63.030156" y="20" width="368.181452" height="377.163023"/>
  </clipPath>
 </defs>
</svg>
