<?xml version="1.0" encoding="utf-8" standalone="no"?>
<!DOCTYPE svg PUBLIC "-//W3C//DTD SVG 1.1//EN"
  "http://www.w3.org/Graphics/SVG/1.1/DTD/svg11.dtd">
<svg xmlns:xlink="http://www.w3.org/1999/xlink" width="463.99896pt" height="463.99896pt" viewBox="0 0 463.99896 463.99896" xmlns="http://www.w3.org/2000/svg" version="1.1">
 <metadata>
  <rdf:RDF xmlns:dc="http://purl.org/dc/elements/1.1/" xmlns:cc="http://creativecommons.org/ns#" xmlns:rdf="http://www.w3.org/1999/02/22-rdf-syntax-ns#">
   <cc:Work>
    <dc:type rdf:resource="http://purl.org/dc/dcmitype/StillImage"/>
    <dc:date>2025-02-06T14:50:50.298297</dc:date>
    <dc:format>image/svg+xml</dc:format>
    <dc:creator>
     <cc:Agent>
      <dc:title>Matplotlib v3.8.4, https://matplotlib.org/</dc:title>
     </cc:Agent>
    </dc:creator>
   </cc:Work>
  </rdf:RDF>
 </metadata>
 <defs>
  <style type="text/css">*{stroke-linejoin: round; stroke-linecap: butt}</style>
 </defs>
 <g id="figure_1">
  <g id="patch_1">
   <path d="M 0 463.99896 
L 463.99896 463.99896 
L 463.99896 0 
L 0 0 
L 0 463.99896 
z
" style="fill: none"/>
  </g>
  <g id="axes_1">
   <g id="patch_2">
    <path d="M 91.128438 397.284897 
L 443.99896 397.284897 
L 443.99896 20 
L 91.128438 20 
L 91.128438 397.284897 
z
" style="fill: none"/>
   </g>
   <g id="matplotlib.axis_1">
    <g id="xtick_1">
     <g id="line2d_1">
      <defs>
       <path id="me28f1c0dd6" d="M 0 0 
L 0 5 
" style="stroke: #000000; stroke-width: 0.75"/>
      </defs>
      <g>
       <use xlink:href="#me28f1c0dd6" x="115.922812" y="397.284897" style="stroke: #000000; stroke-width: 0.75"/>
      </g>
     </g>
     <g id="text_1">
      <text style="font: 14.5px &quot;Suisse Int&apos;l Mono&quot;; text-anchor: middle" x="115.922812" y="417.797397" transform="rotate(-0 115.922812 417.797397)">−2000</text>
     </g>
    </g>
    <g id="xtick_2">
     <g id="line2d_2">
      <g>
       <use xlink:href="#me28f1c0dd6" x="166.83974" y="397.284897" style="stroke: #000000; stroke-width: 0.75"/>
      </g>
     </g>
     <g id="text_2">
      <text style="font: 14.5px &quot;Suisse Int&apos;l Mono&quot;; text-anchor: middle" x="166.83974" y="417.797397" transform="rotate(-0 166.83974 417.797397)">−1000</text>
     </g>
    </g>
    <g id="xtick_3">
     <g id="line2d_3">
      <g>
       <use xlink:href="#me28f1c0dd6" x="217.756668" y="397.284897" style="stroke: #000000; stroke-width: 0.75"/>
      </g>
     </g>
     <g id="text_3">
      <text style="font: 14.5px &quot;Suisse Int&apos;l Mono&quot;; text-anchor: middle" x="217.756668" y="417.797397" transform="rotate(-0 217.756668 417.797397)">0</text>
     </g>
    </g>
    <g id="xtick_4">
     <g id="line2d_4">
      <g>
       <use xlink:href="#me28f1c0dd6" x="268.673596" y="397.284897" style="stroke: #000000; stroke-width: 0.75"/>
      </g>
     </g>
     <g id="text_4">
      <text style="font: 14.5px &quot;Suisse Int&apos;l Mono&quot;; text-anchor: middle" x="268.673596" y="417.797397" transform="rotate(-0 268.673596 417.797397)">1000</text>
     </g>
    </g>
    <g id="xtick_5">
     <g id="line2d_5">
      <g>
       <use xlink:href="#me28f1c0dd6" x="319.590525" y="397.284897" style="stroke: #000000; stroke-width: 0.75"/>
      </g>
     </g>
     <g id="text_5">
      <text style="font: 14.5px &quot;Suisse Int&apos;l Mono&quot;; text-anchor: middle" x="319.590525" y="417.797397" transform="rotate(-0 319.590525 417.797397)">2000</text>
     </g>
    </g>
    <g id="xtick_6">
     <g id="line2d_6">
      <g>
       <use xlink:href="#me28f1c0dd6" x="370.507453" y="397.284897" style="stroke: #000000; stroke-width: 0.75"/>
      </g>
     </g>
     <g id="text_6">
      <text style="font: 14.5px &quot;Suisse Int&apos;l Mono&quot;; text-anchor: middle" x="370.507453" y="417.797397" transform="rotate(-0 370.507453 417.797397)">3000</text>
     </g>
    </g>
    <g id="xtick_7">
     <g id="line2d_7">
      <g>
       <use xlink:href="#me28f1c0dd6" x="421.424381" y="397.284897" style="stroke: #000000; stroke-width: 0.75"/>
      </g>
     </g>
     <g id="text_7">
      <text style="font: 14.5px &quot;Suisse Int&apos;l Mono&quot;; text-anchor: middle" x="421.424381" y="417.797397" transform="rotate(-0 421.424381 417.797397)">4000</text>
     </g>
    </g>
    <g id="text_8">
     <text style="font: 500 15px &quot;Suisse Int&apos;l&quot;, sans-serif; text-anchor: middle" x="267.563699" y="441.209898" transform="rotate(-0 267.563699 441.209898)">Raman shift (cm-1)</text>
    </g>
   </g>
   <g id="matplotlib.axis_2">
    <g id="ytick_1">
     <g id="line2d_8">
      <defs>
       <path id="m76f9c4ce1f" d="M 0 0 
L -5 0 
" style="stroke: #000000; stroke-width: 0.75"/>
      </defs>
      <g>
       <use xlink:href="#m76f9c4ce1f" x="91.128438" y="383.303172" style="stroke: #000000; stroke-width: 0.75"/>
      </g>
     </g>
     <g id="text_9">
      <text style="font: 14.5px &quot;Suisse Int&apos;l Mono&quot;; text-anchor: end" x="81.128438" y="388.559422" transform="rotate(-0 81.128438 388.559422)">0.00</text>
     </g>
    </g>
    <g id="ytick_2">
     <g id="line2d_9">
      <g>
       <use xlink:href="#m76f9c4ce1f" x="91.128438" y="315.721154" style="stroke: #000000; stroke-width: 0.75"/>
      </g>
     </g>
     <g id="text_10">
      <text style="font: 14.5px &quot;Suisse Int&apos;l Mono&quot;; text-anchor: end" x="81.128438" y="320.977404" transform="rotate(-0 81.128438 320.977404)">0.01</text>
     </g>
    </g>
    <g id="ytick_3">
     <g id="line2d_10">
      <g>
       <use xlink:href="#m76f9c4ce1f" x="91.128438" y="248.139137" style="stroke: #000000; stroke-width: 0.75"/>
      </g>
     </g>
     <g id="text_11">
      <text style="font: 14.5px &quot;Suisse Int&apos;l Mono&quot;; text-anchor: end" x="81.128438" y="253.395387" transform="rotate(-0 81.128438 253.395387)">0.02</text>
     </g>
    </g>
    <g id="ytick_4">
     <g id="line2d_11">
      <g>
       <use xlink:href="#m76f9c4ce1f" x="91.128438" y="180.557119" style="stroke: #000000; stroke-width: 0.75"/>
      </g>
     </g>
     <g id="text_12">
      <text style="font: 14.5px &quot;Suisse Int&apos;l Mono&quot;; text-anchor: end" x="81.128438" y="185.813369" transform="rotate(-0 81.128438 185.813369)">0.03</text>
     </g>
    </g>
    <g id="ytick_5">
     <g id="line2d_12">
      <g>
       <use xlink:href="#m76f9c4ce1f" x="91.128438" y="112.975101" style="stroke: #000000; stroke-width: 0.75"/>
      </g>
     </g>
     <g id="text_13">
      <text style="font: 14.5px &quot;Suisse Int&apos;l Mono&quot;; text-anchor: end" x="81.128438" y="118.231351" transform="rotate(-0 81.128438 118.231351)">0.04</text>
     </g>
    </g>
    <g id="ytick_6">
     <g id="line2d_13">
      <g>
       <use xlink:href="#m76f9c4ce1f" x="91.128438" y="45.393083" style="stroke: #000000; stroke-width: 0.75"/>
      </g>
     </g>
     <g id="text_14">
      <text style="font: 14.5px &quot;Suisse Int&apos;l Mono&quot;; text-anchor: end" x="81.128438" y="50.649333" transform="rotate(-0 81.128438 50.649333)">0.05</text>
     </g>
    </g>
    <g id="text_15">
     <text style="font: 500 15px &quot;Suisse Int&apos;l&quot;, sans-serif; text-anchor: middle" x="30.875" y="208.642449" transform="rotate(-90 30.875 208.642449)">Intensity (au)</text>
    </g>
   </g>
   <g id="line2d_14">
    <path d="M 104.197716 376.780223 
L 104.583011 383.311383 
L 104.7756 379.454565 
L 104.96815 383.311383 
L 105.160661 373.275723 
L 105.353133 381.058131 
L 105.545566 375.73652 
L 105.73796 383.311383 
L 105.930316 373.831721 
L 106.122632 381.421641 
L 106.314909 383.311383 
L 106.507148 379.241438 
L 106.699348 378.812191 
L 107.083631 383.074198 
L 107.275714 382.929825 
L 107.467758 375.360966 
L 107.659764 381.637342 
L 107.851731 376.024013 
L 108.043659 383.190641 
L 108.235548 383.311382 
L 108.427399 375.007376 
L 108.61921 383.311381 
L 108.810983 373.887204 
L 109.002718 383.31138 
L 109.38607 377.893525 
L 109.577688 382.515182 
L 109.960809 375.766185 
L 110.152311 377.657629 
L 110.343774 374.077107 
L 110.535199 381.493395 
L 110.726586 378.839685 
L 110.917933 383.311378 
L 111.109242 379.42362 
L 111.300513 382.769978 
L 111.491745 366.883337 
L 111.682938 379.769085 
L 112.065209 378.416877 
L 112.256287 382.325259 
L 112.447326 376.589438 
L 112.638327 383.311375 
L 112.829289 381.68675 
L 113.020213 382.143929 
L 113.211099 383.311374 
L 113.401945 383.311374 
L 113.783524 375.599049 
L 113.974255 376.92244 
L 114.355603 383.311373 
L 114.54622 383.311373 
L 114.736798 376.38408 
L 114.927337 381.862488 
L 115.117839 373.258547 
L 115.308302 375.832746 
L 115.498726 368.383382 
L 115.87946 383.311371 
L 116.450275 383.31137 
L 116.64047 378.126836 
L 116.830626 376.583418 
L 117.020745 373.12703 
L 117.210825 383.311369 
L 117.400867 382.44513 
L 117.590871 382.651378 
L 117.780836 368.321474 
L 118.160653 383.311368 
L 118.350504 377.577696 
L 118.540317 383.311368 
L 118.730092 377.147158 
L 118.919828 383.311367 
L 119.109527 383.311367 
L 119.48881 367.331937 
L 119.678394 358.947982 
L 119.86794 378.359287 
L 120.057449 383.311366 
L 120.246919 381.331395 
L 120.436351 373.495754 
L 120.625745 372.361389 
L 120.815101 383.311365 
L 121.004419 383.311365 
L 121.193699 382.671999 
L 121.382942 374.677762 
L 121.572146 383.311365 
L 121.761312 379.913016 
L 122.139531 383.270115 
L 122.328583 369.748464 
L 122.517598 369.470026 
L 122.706575 371.412198 
L 122.895513 383.311363 
L 123.273277 383.311363 
L 123.462103 380.846708 
L 123.65089 375.59255 
L 123.83964 376.666766 
L 124.028351 372.607114 
L 124.217025 371.8973 
L 124.782821 383.311362 
L 125.159829 383.311361 
L 125.536686 373.736341 
L 125.725058 383.311361 
L 125.913392 383.311361 
L 126.101689 381.217954 
L 126.289947 380.826086 
L 126.478169 380.855302 
L 126.854498 367.516699 
L 127.230677 379.265049 
L 127.41871 383.31136 
L 127.606706 383.31136 
L 127.794664 381.91919 
L 127.982584 377.8355 
L 128.170467 380.487925 
L 128.358312 381.364903 
L 128.54612 368.870636 
L 128.73389 372.626034 
L 128.921622 369.055811 
L 129.109318 383.311359 
L 129.672178 383.311359 
L 129.859723 383.18761 
L 130.047231 377.567373 
L 130.234701 375.581395 
L 130.422134 369.475156 
L 130.60953 375.207125 
L 130.796888 365.508362 
L 130.984208 370.993251 
L 131.171492 383.311357 
L 131.358738 378.315018 
L 131.733117 383.311357 
L 131.920251 378.220058 
L 132.107348 380.177686 
L 132.294407 383.311356 
L 132.668414 383.311356 
L 132.855361 382.80605 
L 133.042271 380.584164 
L 133.229144 379.755744 
L 133.415979 376.108599 
L 133.602778 383.311355 
L 133.976263 382.419333 
L 134.162949 380.438936 
L 134.349599 382.100514 
L 134.722786 382.040359 
L 134.909324 381.658798 
L 135.095825 369.589501 
L 135.282289 368.234279 
L 135.468715 383.311354 
L 135.655105 378.449936 
L 135.841457 382.241449 
L 136.027772 381.490362 
L 136.21405 383.311353 
L 136.400291 383.136043 
L 136.586495 368.771352 
L 136.958792 382.195897 
L 137.144885 383.311352 
L 137.330941 376.701134 
L 137.51696 375.522929 
L 137.702942 370.438936 
L 138.074795 383.31135 
L 138.260666 383.31135 
L 138.4465 382.262065 
L 138.632297 383.249475 
L 139.00378 373.133902 
L 139.189467 375.752367 
L 139.375116 381.200322 
L 139.560729 377.981147 
L 139.746304 379.028716 
L 139.931843 378.828051 
L 140.30281 383.311347 
L 140.488238 373.881154 
L 140.67363 383.311346 
L 140.858985 374.931243 
L 141.044302 377.450923 
L 141.229584 367.866421 
L 141.414828 383.311345 
L 141.785206 383.311344 
L 141.97034 376.244833 
L 142.155438 379.52671 
L 142.340498 379.320463 
L 142.525522 381.147468 
L 142.710509 381.228674 
L 142.89546 374.333139 
L 143.080374 383.311342 
L 143.265251 380.89567 
L 143.450091 380.814896 
L 143.634895 383.311341 
L 144.189087 380.948524 
L 144.373744 366.794836 
L 144.742949 377.61548 
L 144.927497 377.627942 
L 145.112008 379.32175 
L 145.296483 377.029394 
L 145.480921 383.311339 
L 145.665322 383.311338 
L 146.034016 371.791983 
L 146.218308 383.311338 
L 146.402563 382.621697 
L 146.586782 383.311337 
L 146.770965 378.927298 
L 146.955111 383.311337 
L 147.139221 380.132123 
L 147.323294 383.311336 
L 147.507331 382.929779 
L 147.691332 381.609796 
L 147.875296 371.243282 
L 148.059223 369.620367 
L 148.243115 369.398698 
L 148.610788 383.311335 
L 148.79457 378.186097 
L 149.162026 380.908982 
L 149.345699 383.311334 
L 149.529336 383.311334 
L 149.712937 376.436417 
L 149.896501 376.250837 
L 150.08003 381.446515 
L 150.263522 383.311333 
L 150.446977 379.794817 
L 150.630397 371.024178 
L 150.997127 380.819178 
L 151.180438 383.311332 
L 151.363712 383.301019 
L 151.546951 376.692518 
L 151.913319 383.311331 
L 152.096449 372.852879 
L 152.279543 375.534938 
L 152.645622 383.31133 
L 152.828608 383.31133 
L 153.011557 376.672749 
L 153.194471 380.19442 
L 153.377348 381.264757 
L 153.560189 381.367022 
L 153.742994 378.727485 
L 153.925763 377.919258 
L 154.108496 380.339221 
L 154.473854 376.215149 
L 154.65648 375.652259 
L 154.839069 383.311329 
L 155.021622 382.289549 
L 155.204139 383.311328 
L 155.38662 382.486341 
L 155.569065 379.405527 
L 155.751474 381.675532 
L 155.933848 380.082698 
L 156.116185 380.841516 
L 156.298487 380.792106 
L 156.480752 381.463696 
L 156.662982 374.477479 
L 156.845176 377.041412 
L 157.209456 369.144717 
L 157.391543 357.838515 
L 157.573593 334.375323 
L 157.937587 321.392073 
L 158.483309 364.948007 
L 158.665145 363.843717 
L 158.846945 365.05972 
L 159.028709 378.360963 
L 159.210438 383.311325 
L 160.844388 383.311324 
L 161.207096 378.155147 
L 161.388397 383.112811 
L 161.569662 380.466831 
L 161.750891 380.822609 
L 161.932085 380.223629 
L 162.113244 383.311323 
L 162.294366 376.581654 
L 162.475453 374.34988 
L 162.656505 377.208984 
L 162.837521 382.980468 
L 163.018502 383.311322 
L 163.199447 379.413252 
L 163.380357 379.093568 
L 163.561231 376.487092 
L 163.742069 379.262861 
L 163.922873 372.697362 
L 164.10364 375.68273 
L 164.284373 383.31132 
L 164.465069 381.210607 
L 164.645731 381.599467 
L 164.826357 383.31132 
L 165.006948 382.112077 
L 165.187503 375.448557 
L 165.368023 383.311319 
L 165.548507 382.929762 
L 165.728957 383.311319 
L 165.90937 378.158149 
L 166.089749 382.255592 
L 166.270092 383.311318 
L 166.4504 380.845378 
L 166.81091 380.510225 
L 166.991112 379.709297 
L 167.171278 375.388407 
L 167.35141 382.68613 
L 167.531506 383.311317 
L 167.711567 377.051715 
L 167.891593 365.301655 
L 168.071583 369.136123 
L 168.251538 383.311316 
L 168.431458 382.620391 
L 168.611343 376.41234 
L 168.791193 362.425363 
L 168.971008 363.56662 
L 169.150787 374.559984 
L 169.51024 375.47349 
L 169.869553 383.184988 
L 170.049157 383.311314 
L 170.408259 380.635255 
L 170.587758 379.474256 
L 170.767221 374.742589 
L 170.946649 383.311313 
L 171.126043 381.114782 
L 171.305401 383.311312 
L 171.484724 373.01999 
L 171.664012 369.352246 
L 171.843266 373.812321 
L 172.022484 383.311311 
L 172.201667 383.311311 
L 172.380815 378.526375 
L 172.559929 367.90207 
L 172.91805 383.31131 
L 173.097059 379.330742 
L 173.454971 369.100027 
L 173.633875 383.311309 
L 173.812744 383.311308 
L 174.170377 369.988595 
L 174.349141 375.595063 
L 174.52787 373.193198 
L 174.706565 381.235086 
L 174.885225 380.196547 
L 175.06385 383.311307 
L 175.24244 378.835742 
L 175.420995 379.19152 
L 175.599515 370.62454 
L 175.778001 373.73196 
L 176.134868 383.311306 
L 176.31325 383.311305 
L 176.669908 367.057289 
L 177.026428 383.311305 
L 177.204636 382.785374 
L 177.382809 379.750962 
L 177.560948 374.715074 
L 177.91712 383.311304 
L 178.095155 383.311303 
L 178.273155 379.7819 
L 178.45112 380.560485 
L 178.629051 379.498312 
L 178.806947 379.400771 
L 178.984808 376.517147 
L 179.162635 377.453023 
L 179.340427 383.311302 
L 179.518185 381.620075 
L 179.695908 372.597187 
L 179.873596 371.402269 
L 180.05125 381.759294 
L 180.22887 383.311301 
L 180.406455 381.228207 
L 180.584005 377.834583 
L 180.761521 371.409972 
L 180.939003 383.311301 
L 181.11645 383.3113 
L 181.47124 380.498604 
L 181.648584 381.808702 
L 181.825893 381.190819 
L 182.003168 382.252134 
L 182.180408 375.486789 
L 182.357614 379.124053 
L 182.534786 378.98355 
L 182.711923 383.311299 
L 183.066094 368.071757 
L 183.243128 381.812999 
L 183.420128 382.215179 
L 183.597093 383.311298 
L 183.774024 376.133885 
L 183.950921 373.509405 
L 184.127784 367.868537 
L 184.304612 383.311298 
L 184.481406 381.691397 
L 184.658165 383.311298 
L 184.83489 377.479659 
L 185.011581 383.311297 
L 185.188238 377.557006 
L 185.364861 376.79045 
L 185.541449 374.971203 
L 185.894523 383.311297 
L 186.071009 377.165131 
L 186.24746 376.836426 
L 186.423878 371.896356 
L 186.77661 377.530364 
L 186.952925 383.311296 
L 187.129206 383.311296 
L 187.481665 376.463886 
L 187.657843 379.359086 
L 187.833987 379.535252 
L 188.010097 372.218654 
L 188.362216 374.666947 
L 188.714198 383.311295 
L 188.890137 376.804201 
L 189.066043 376.440705 
L 189.241915 373.769796 
L 189.417753 382.628102 
L 189.593557 383.311295 
L 189.769327 382.568805 
L 189.945063 383.311295 
L 190.120764 373.976056 
L 190.296432 377.701805 
L 190.472066 362.680127 
L 190.823233 383.311295 
L 190.998765 381.362256 
L 191.349727 370.59317 
L 191.525158 372.490602 
L 191.700555 383.311294 
L 191.875917 383.311294 
L 192.051246 382.455368 
L 192.226541 378.603707 
L 192.401802 381.584405 
L 192.57703 372.496211 
L 192.752223 374.279363 
L 193.102509 370.519235 
L 193.277601 375.202804 
L 193.452659 383.311294 
L 193.627684 383.311294 
L 193.802675 378.856355 
L 193.977632 377.425515 
L 194.327445 383.311294 
L 194.677123 377.141927 
L 194.851911 378.783312 
L 195.026666 382.909112 
L 195.376074 374.283282 
L 195.550728 376.576469 
L 195.725348 383.311294 
L 195.899935 381.290071 
L 196.074487 381.299526 
L 196.249006 376.045348 
L 196.423492 382.738099 
L 196.597944 383.311294 
L 196.772362 383.311294 
L 196.946747 376.659824 
L 197.4697 380.576804 
L 197.64395 383.311294 
L 197.99235 366.752686 
L 198.1665 367.468109 
L 198.340617 383.311294 
L 198.5147 379.062602 
L 198.688749 378.320112 
L 198.862765 383.311294 
L 199.210696 373.205214 
L 199.384612 371.563377 
L 199.558494 382.893214 
L 199.732342 374.502384 
L 199.906158 383.311294 
L 200.079939 380.917972 
L 200.253688 383.124813 
L 200.427403 381.927289 
L 200.601084 383.311294 
L 200.948347 382.058344 
L 201.121929 383.311294 
L 201.295477 379.062601 
L 201.468992 381.382881 
L 201.642473 361.312063 
L 201.815922 370.842817 
L 201.989336 363.751368 
L 202.162718 370.748269 
L 202.336066 382.262873 
L 202.509381 383.311293 
L 202.682663 376.721701 
L 202.855911 375.762652 
L 203.029127 372.880751 
L 203.202309 377.688482 
L 203.548573 363.933095 
L 203.721655 368.699114 
L 203.894704 361.781216 
L 204.06772 375.464006 
L 204.240703 373.673961 
L 204.413653 379.116739 
L 204.932302 334.357716 
L 205.105119 338.431898 
L 205.450654 358.562959 
L 205.796056 368.672012 
L 205.968707 363.192327 
L 206.141326 383.311291 
L 208.037947 383.31129 
L 208.382358 377.059426 
L 208.554514 383.31129 
L 208.726637 376.352167 
L 208.898728 375.649179 
L 209.070785 366.206957 
L 209.58676 383.31129 
L 209.930579 383.31129 
L 210.446061 373.304894 
L 210.617822 380.830307 
L 210.789551 382.30154 
L 210.961247 377.462465 
L 211.13291 378.283161 
L 211.30454 376.425223 
L 211.476138 383.31129 
L 211.647703 381.48171 
L 211.819235 383.112777 
L 212.162201 379.720015 
L 212.333634 380.990152 
L 212.505035 374.313758 
L 212.676404 374.930781 
L 212.847739 377.124304 
L 213.019042 373.062544 
L 213.190312 381.653151 
L 213.36155 375.353574 
L 213.532755 383.311289 
L 213.703927 381.625218 
L 213.875066 383.311288 
L 214.046173 382.266301 
L 214.217248 383.311288 
L 214.388289 383.311288 
L 214.559298 382.898793 
L 214.730275 381.754124 
L 214.901218 368.556443 
L 215.243008 382.574386 
L 215.413854 383.311287 
L 215.584668 383.311287 
L 215.755449 380.001018 
L 215.926197 380.221876 
L 216.096913 376.743173 
L 216.267596 377.179732 
L 216.608866 383.311286 
L 217.46147 383.311286 
L 217.802284 382.659888 
L 217.972643 383.311285 
L 218.142969 381.500607 
L 218.483524 383.311285 
L 218.653753 377.898161 
L 218.994114 383.311284 
L 219.164246 382.816291 
L 219.504413 369.632346 
L 219.84445 383.311284 
L 220.184358 383.311283 
L 220.354263 377.366208 
L 220.524137 383.311283 
L 220.693978 374.778648 
L 221.203307 383.311283 
L 221.373019 383.311283 
L 221.542698 379.464771 
L 221.712346 379.137356 
L 221.881961 370.282483 
L 222.051544 371.434013 
L 222.390613 383.311282 
L 222.5601 382.115046 
L 222.898976 375.354851 
L 223.068366 377.869368 
L 223.237724 383.311282 
L 223.745604 381.085528 
L 223.914834 376.60997 
L 224.084031 383.311281 
L 224.253196 381.207561 
L 224.422329 380.975532 
L 224.59143 383.311281 
L 224.760499 379.60313 
L 225.098541 383.311281 
L 225.267513 371.311147 
L 225.436454 383.311281 
L 225.605363 381.168032 
L 225.774239 382.208721 
L 225.943084 376.987226 
L 226.280677 383.31128 
L 226.618143 383.31128 
L 226.786828 383.135971 
L 226.955481 374.089444 
L 227.124102 377.804481 
L 227.292691 375.610512 
L 227.461248 366.383539 
L 227.629773 370.900788 
L 227.966728 383.311279 
L 228.135157 375.298552 
L 228.303555 380.153117 
L 228.47192 374.788105 
L 228.640254 380.583661 
L 228.808556 377.716393 
L 228.976827 382.72863 
L 229.145065 379.189342 
L 229.313272 383.311278 
L 229.481446 383.311277 
L 229.649589 382.836909 
L 229.98578 372.930206 
L 230.153828 381.987859 
L 230.321843 377.746039 
L 230.65778 383.311276 
L 230.8257 383.311276 
L 230.993589 382.321287 
L 231.329272 368.45418 
L 231.664828 383.311275 
L 231.832558 382.775033 
L 232.000257 379.475077 
L 232.167924 371.719743 
L 232.503163 383.311275 
L 232.670735 379.784446 
L 233.005784 366.692045 
L 233.173262 383.311274 
L 233.340707 381.300364 
L 233.508121 383.311274 
L 233.675504 382.573508 
L 233.842854 383.311274 
L 234.010174 382.321285 
L 234.177461 372.676635 
L 234.344718 378.682317 
L 234.511942 373.790792 
L 234.679135 383.311273 
L 235.013427 380.323269 
L 235.180526 382.807686 
L 235.347593 381.431418 
L 235.514628 377.306475 
L 235.681632 377.990094 
L 235.848605 383.311273 
L 236.015546 381.47567 
L 236.182456 374.553927 
L 236.349334 374.837095 
L 236.516181 383.311272 
L 236.84978 383.311272 
L 237.183254 374.649352 
L 237.349944 372.793077 
L 237.683229 379.925379 
L 237.849825 370.293218 
L 238.016389 383.311272 
L 238.182922 373.144571 
L 238.349424 383.311271 
L 238.515894 376.494814 
L 238.682333 376.866907 
L 238.848741 373.250742 
L 239.015118 383.311271 
L 239.347776 377.454715 
L 239.514059 368.001714 
L 239.68031 366.575193 
L 239.84653 383.311271 
L 240.178877 383.311271 
L 240.345003 377.03105 
L 240.511098 378.652667 
L 240.677162 373.122673 
L 240.843194 375.71708 
L 241.009196 380.596542 
L 241.175166 377.863342 
L 241.341105 383.311271 
L 241.507013 383.311271 
L 241.67289 373.140718 
L 241.838736 374.330905 
L 242.00455 382.233628 
L 242.170333 383.311271 
L 242.667497 373.78349 
L 242.833156 375.223798 
L 242.998783 375.006387 
L 243.16438 381.707272 
L 243.329946 376.481027 
L 243.49548 383.311271 
L 243.826456 383.311271 
L 243.991898 378.907897 
L 244.157308 379.525779 
L 244.322688 377.466744 
L 244.653353 383.311271 
L 244.81864 383.053462 
L 244.983895 378.79446 
L 245.149119 380.035381 
L 245.314313 383.31127 
L 245.644607 383.31127 
L 245.809708 382.158861 
L 245.974777 383.31127 
L 246.304824 371.69953 
L 246.469801 383.311269 
L 246.634747 379.223713 
L 246.964546 377.125574 
L 247.129399 383.311268 
L 247.294222 380.475371 
L 247.459014 379.670577 
L 247.623774 375.068289 
L 247.788504 383.311268 
L 248.117872 383.311267 
L 248.282509 380.196939 
L 248.447116 380.975518 
L 248.611692 383.311267 
L 248.940751 376.135611 
L 249.105235 377.164243 
L 249.269688 383.311267 
L 249.598501 383.311266 
L 249.762862 375.567989 
L 250.091491 378.59594 
L 250.255759 383.311266 
L 250.419997 378.287002 
L 250.584204 382.55503 
L 250.74838 380.217989 
L 250.912526 383.311265 
L 251.076641 377.993527 
L 251.240726 377.312483 
L 251.404779 383.097284 
L 251.568802 383.311265 
L 251.732795 382.76471 
L 251.896757 379.840299 
L 252.060688 383.311264 
L 252.224588 383.311264 
L 252.552298 375.48459 
L 252.716107 377.553964 
L 252.879885 377.068854 
L 253.043633 382.955486 
L 253.20735 373.079277 
L 253.371036 379.967054 
L 253.534693 376.334094 
L 253.698318 383.311261 
L 253.861913 383.311261 
L 254.025478 381.279725 
L 254.189012 374.761459 
L 254.515988 373.296213 
L 254.679431 378.526325 
L 254.842843 378.709803 
L 255.006224 383.311259 
L 255.169576 378.094927 
L 255.332896 378.567143 
L 255.496187 379.425218 
L 255.659447 378.864916 
L 255.822676 383.311258 
L 255.985875 379.557563 
L 256.149044 381.220425 
L 256.312182 371.420269 
L 256.47529 381.980101 
L 256.638367 376.116678 
L 256.801414 383.311257 
L 256.964431 372.08541 
L 257.127418 383.311256 
L 257.290374 379.114987 
L 257.453299 380.998281 
L 257.616195 375.329076 
L 257.77906 382.13522 
L 257.941895 383.311255 
L 258.104699 378.959439 
L 258.267473 383.311255 
L 258.430217 377.273801 
L 258.592931 379.62158 
L 258.755614 377.165521 
L 258.918268 383.311254 
L 259.243483 383.311253 
L 259.406045 373.798543 
L 259.73108 383.311253 
L 259.893551 380.72328 
L 260.055993 375.511679 
L 260.218404 377.185713 
L 260.380786 383.311252 
L 260.543137 381.434404 
L 260.705457 383.311251 
L 260.867748 374.266479 
L 261.030009 372.664583 
L 261.192239 383.311251 
L 261.354439 383.311251 
L 261.51661 381.393151 
L 261.67875 374.224375 
L 261.84086 383.31125 
L 262.00294 383.31125 
L 262.164989 380.343872 
L 262.327009 380.44957 
L 262.650958 371.563738 
L 262.812888 376.991067 
L 262.974787 377.590039 
L 263.136657 383.311249 
L 263.298496 379.155367 
L 263.460305 383.306092 
L 263.622085 382.207823 
L 263.945553 373.655467 
L 264.107243 375.914734 
L 264.268902 383.311248 
L 264.430531 382.841606 
L 264.7537 383.311247 
L 265.07675 383.311247 
L 265.238229 382.166576 
L 265.399679 373.014788 
L 265.561099 372.182921 
L 265.883849 382.585516 
L 266.045179 377.635586 
L 266.206479 383.311245 
L 266.690201 375.372047 
L 266.851382 374.722313 
L 267.012533 372.231916 
L 267.173654 381.943999 
L 267.495807 383.311244 
L 267.656839 375.814167 
L 267.81784 379.670985 
L 267.978813 375.782809 
L 268.139755 382.429108 
L 268.300668 368.535786 
L 268.622403 378.359163 
L 268.783227 383.311242 
L 268.94402 381.248774 
L 269.104784 383.311241 
L 269.426223 366.491766 
L 269.586897 367.01431 
L 269.747542 371.225143 
L 269.908158 383.31124 
L 270.068743 383.31124 
L 270.229299 380.37222 
L 270.389826 383.31124 
L 270.550322 376.742268 
L 270.710789 377.49507 
L 270.871227 370.778289 
L 271.031634 379.63102 
L 271.192013 381.349313 
L 271.352361 381.460174 
L 271.51268 380.539362 
L 271.672969 373.555301 
L 271.993459 383.311238 
L 272.31383 383.311238 
L 272.634084 375.259854 
L 272.794166 376.163898 
L 272.954219 383.311237 
L 273.114242 380.836269 
L 273.274236 373.138116 
L 273.4342 371.379834 
L 273.75404 383.181043 
L 273.913916 383.311236 
L 274.073762 377.167652 
L 274.233579 383.311236 
L 274.553124 376.060361 
L 274.712853 378.510837 
L 274.872552 383.311235 
L 275.191861 383.311234 
L 275.351472 379.078011 
L 275.511053 381.619149 
L 275.670605 382.316521 
L 275.830128 374.208409 
L 275.989621 374.587409 
L 276.308519 383.311233 
L 276.467924 375.793544 
L 276.6273 381.488525 
L 276.786647 372.397345 
L 276.945964 380.757206 
L 277.105251 381.238451 
L 277.26451 383.311232 
L 277.582939 377.208034 
L 277.742109 378.02529 
L 277.901251 382.359919 
L 278.060363 383.311231 
L 278.219445 381.413757 
L 278.378499 374.896796 
L 278.537523 373.497713 
L 278.855484 382.567449 
L 279.01442 383.311229 
L 279.332206 377.519126 
L 279.491055 378.108643 
L 279.649874 381.742035 
L 279.808665 381.874374 
L 279.967426 383.311228 
L 280.284861 379.962721 
L 280.443535 368.620857 
L 280.760796 383.311227 
L 280.919382 383.311227 
L 281.077939 382.769828 
L 281.236467 383.311227 
L 281.394967 377.165494 
L 281.553437 381.48637 
L 281.711878 381.004699 
L 281.870289 383.311226 
L 282.028672 367.351597 
L 282.503646 383.311226 
L 282.661913 375.071626 
L 282.978359 383.311225 
L 283.136538 383.311225 
L 283.294689 379.423468 
L 283.45281 380.388532 
L 283.610903 377.927317 
L 283.768966 383.311225 
L 283.927001 381.698197 
L 284.085006 382.457447 
L 284.242983 382.428231 
L 284.40093 381.178714 
L 284.558849 383.311224 
L 285.032431 376.853971 
L 285.190234 383.311224 
L 285.348009 379.733269 
L 285.505754 383.311223 
L 285.978816 374.087224 
L 286.136446 382.182448 
L 286.294046 383.278567 
L 286.451618 383.311223 
L 286.609162 380.609388 
L 286.766676 383.311223 
L 286.924161 378.653902 
L 287.081618 381.551677 
L 287.239046 377.887786 
L 287.396445 382.68002 
L 287.553815 380.916176 
L 287.711157 382.612559 
L 288.025753 380.185716 
L 288.183008 374.684107 
L 288.340235 379.984199 
L 288.497432 380.373492 
L 288.654601 383.311221 
L 288.811741 380.939376 
L 288.968853 380.284547 
L 289.125935 372.625017 
L 289.28299 375.478127 
L 289.440015 382.023898 
L 289.597011 383.311221 
L 289.753979 381.171405 
L 289.910919 382.5842 
L 290.067829 380.196892 
L 290.224711 370.657096 
L 290.381565 374.119052 
L 290.538389 371.155108 
L 290.695185 376.888773 
L 290.851953 374.689647 
L 291.165401 382.824391 
L 291.322083 383.31122 
L 291.478736 382.888413 
L 291.63536 383.31122 
L 291.791956 380.104939 
L 292.105062 382.889273 
L 292.418053 377.005216 
L 292.574506 383.311219 
L 292.730931 379.59877 
L 292.887327 380.014271 
L 293.043694 357.372632 
L 293.356343 377.278922 
L 293.512625 383.294891 
L 293.825104 374.808252 
L 293.9813 365.698128 
L 294.293607 379.353852 
L 294.449719 371.959873 
L 295.073878 308.900038 
L 295.853439 104.27588 
L 296.165065 202.950356 
L 296.632291 354.625692 
L 296.787976 380.044776 
L 296.943633 383.311217 
L 299.11986 383.311217 
L 299.275093 382.274827 
L 299.430298 383.311217 
L 299.740623 370.622288 
L 299.895743 361.602454 
L 300.360934 375.593283 
L 300.670921 383.311217 
L 300.825873 369.286394 
L 300.980796 372.785724 
L 301.135691 383.311217 
L 301.445397 383.311217 
L 301.600207 379.536897 
L 301.75499 383.311218 
L 303.146771 383.311218 
L 303.301274 377.229506 
L 303.455748 382.001547 
L 303.610194 382.569587 
L 303.764612 380.455554 
L 303.919002 375.54645 
L 304.073365 383.311219 
L 304.227699 383.311219 
L 304.382005 380.391102 
L 304.536284 374.116889 
L 304.690534 383.311219 
L 304.844757 383.31122 
L 305.153118 369.228817 
L 305.307257 369.13258 
L 305.461368 381.313198 
L 305.615451 383.31122 
L 305.769506 381.506558 
L 305.923533 383.311221 
L 306.077532 378.358283 
L 306.231504 383.311221 
L 306.385447 380.478332 
L 306.539363 380.835827 
L 306.693251 376.641708 
L 306.847111 383.311222 
L 307.000943 383.311222 
L 307.308524 370.86079 
L 307.462273 374.85509 
L 307.615994 382.979509 
L 307.769687 383.311223 
L 307.923352 382.599672 
L 308.07699 383.311223 
L 308.2306 381.469607 
L 308.384182 383.064587 
L 308.537736 383.311224 
L 308.691263 383.311224 
L 308.844762 378.351413 
L 308.998233 380.341697 
L 309.151676 380.206344 
L 309.305092 383.311224 
L 309.45848 375.735077 
L 309.61184 378.648321 
L 309.765173 377.175371 
L 309.918478 370.998253 
L 310.225005 381.274531 
L 310.378226 383.311224 
L 310.531421 383.125601 
L 310.684587 383.311223 
L 310.990838 383.311223 
L 311.143921 380.650634 
L 311.296977 373.932123 
L 311.450006 376.422588 
L 311.603007 383.311222 
L 311.908926 376.806703 
L 312.061844 380.370911 
L 312.214734 379.829085 
L 312.520433 366.621504 
L 312.826021 383.311221 
L 312.978773 379.021284 
L 313.284196 382.482368 
L 313.436867 381.111683 
L 313.742124 372.603999 
L 313.894712 382.644355 
L 314.047272 383.31122 
L 314.199805 383.31122 
L 314.35231 378.497927 
L 314.504788 383.31122 
L 314.657239 375.873008 
L 314.809661 374.570229 
L 314.962057 370.759347 
L 315.114425 381.645775 
L 315.266766 383.311219 
L 315.419079 383.311219 
L 315.723623 375.592406 
L 315.875854 377.928169 
L 316.028057 383.311219 
L 316.180234 381.073436 
L 316.332383 380.789848 
L 316.484504 376.967403 
L 317.092716 383.311218 
L 317.244701 381.857177 
L 317.548589 374.739047 
L 317.700491 373.742212 
L 317.852367 382.340996 
L 318.004215 383.311217 
L 318.459596 376.32202 
L 318.611335 373.080516 
L 318.763047 372.251622 
L 318.914732 378.709327 
L 319.066389 377.4104 
L 319.218019 383.311216 
L 319.369622 380.217507 
L 319.521198 381.109529 
L 319.672746 377.089858 
L 319.824268 380.994801 
L 319.975762 377.694852 
L 320.127229 383.025477 
L 320.278668 383.311215 
L 320.430081 383.311214 
L 320.732825 379.175958 
L 320.884156 369.872934 
L 321.03546 367.490803 
L 321.186736 383.311212 
L 321.337986 383.311212 
L 321.489208 383.187463 
L 321.791572 379.628409 
L 321.942713 373.918796 
L 322.093827 376.923134 
L 322.244914 383.220116 
L 322.395974 383.311208 
L 322.547007 378.273624 
L 322.698013 383.311207 
L 322.848992 375.906515 
L 323.150868 381.600211 
L 323.301766 371.146036 
L 323.452636 381.092331 
L 323.754296 383.311203 
L 323.905086 377.298241 
L 324.055848 377.188244 
L 324.357293 383.311201 
L 324.507974 381.310604 
L 324.658629 381.457553 
L 324.809256 376.315109 
L 324.959857 378.491033 
L 325.110431 378.066509 
L 325.260978 383.311198 
L 325.411498 377.384173 
L 325.56199 379.222775 
L 325.712456 383.311196 
L 325.862896 383.311195 
L 326.013308 379.949368 
L 326.163693 379.455235 
L 326.314051 374.814647 
L 326.464383 383.311193 
L 326.764965 383.311192 
L 326.915216 381.743715 
L 327.06544 374.278449 
L 327.215638 376.021186 
L 327.365808 370.184397 
L 327.515951 383.31119 
L 327.666068 380.774349 
L 327.816158 383.311189 
L 327.966221 371.481226 
L 328.266267 379.797253 
L 328.41625 380.921297 
L 328.566205 383.311186 
L 328.716135 382.444946 
L 328.866037 383.311185 
L 329.015912 378.394769 
L 329.165761 378.015363 
L 329.315583 379.33878 
L 329.465379 370.394503 
L 329.764889 383.311182 
L 330.064293 383.311181 
L 330.213955 375.713543 
L 330.36359 383.31118 
L 330.513198 382.310878 
L 330.66278 383.31118 
L 331.26084 374.45719 
L 331.410288 370.85473 
L 331.55971 381.337221 
L 331.709105 383.311177 
L 331.858473 379.784348 
L 332.306419 383.311175 
L 332.455681 374.588228 
L 332.604917 383.311174 
L 332.903308 383.311173 
L 333.052463 372.149327 
L 333.201593 373.357625 
L 333.499771 381.660765 
L 333.648821 373.76663 
L 333.797844 375.822272 
L 333.94684 383.196016 
L 334.09581 378.902639 
L 334.244753 380.838783 
L 334.39367 379.065917 
L 334.542561 383.311168 
L 334.691425 383.311168 
L 334.840262 376.832431 
L 334.989073 377.98913 
L 335.137858 377.751951 
L 335.286616 377.100547 
L 335.435347 382.992342 
L 335.584052 377.582224 
L 336.030009 383.311163 
L 336.178608 383.311163 
L 336.327181 379.76629 
L 336.475728 383.311162 
L 336.624248 376.896878 
L 336.772742 376.071437 
L 336.921209 371.702057 
L 337.06965 372.272651 
L 337.218065 383.31116 
L 337.366453 379.61418 
L 337.514815 378.6938 
L 337.663151 367.396201 
L 337.959743 383.311158 
L 338.107999 383.311157 
L 338.25623 381.00119 
L 338.404433 373.357136 
L 338.552611 373.522171 
L 338.700762 383.222641 
L 338.848887 380.731346 
L 338.996986 380.466235 
L 339.145059 379.630502 
L 339.293105 383.311153 
L 339.441125 381.310556 
L 339.737086 374.383635 
L 339.885027 369.951065 
L 340.032942 383.311151 
L 340.18083 374.211367 
L 340.328693 379.067188 
L 340.476529 378.692074 
L 340.624339 383.311149 
L 340.772123 379.242062 
L 340.919881 383.311148 
L 341.067612 378.971794 
L 341.510649 383.311146 
L 341.805877 373.680707 
L 342.248521 383.311144 
L 342.543487 376.626159 
L 342.690931 372.246817 
L 342.838349 381.951628 
L 342.98574 377.106544 
L 343.133106 379.003152 
L 343.280445 383.31114 
L 343.427759 372.845794 
L 343.575046 383.311139 
L 343.722307 383.311139 
L 343.869542 379.227448 
L 344.016751 369.262256 
L 344.458223 383.311137 
L 345.046486 366.729279 
L 345.193487 370.546987 
L 345.340462 370.983161 
L 345.634334 380.622619 
L 345.781231 376.288821 
L 345.928102 377.321372 
L 346.074947 367.704687 
L 346.36856 381.590257 
L 346.515327 383.311131 
L 346.808784 383.31113 
L 346.955473 379.224857 
L 347.102137 382.449188 
L 347.248775 376.787707 
L 347.395386 383.311128 
L 347.541972 378.960603 
L 347.688532 383.311128 
L 347.835067 379.9493 
L 347.981575 383.311127 
L 348.128057 383.311127 
L 348.274514 378.113697 
L 348.713729 383.311125 
L 348.860082 381.374123 
L 349.00641 383.311124 
L 349.152711 382.166454 
L 349.298987 376.886527 
L 349.591461 383.311123 
L 349.883833 370.320101 
L 350.02998 374.23364 
L 350.176101 383.311122 
L 350.61431 383.311121 
L 350.760328 382.950188 
L 350.90632 383.31112 
L 351.052287 383.13581 
L 351.344143 378.030334 
L 351.490033 382.725892 
L 351.635897 380.828418 
L 351.781735 383.311117 
L 351.927548 378.62329 
L 352.073335 378.59579 
L 352.219096 382.784756 
L 352.510541 372.068508 
L 352.656225 382.500738 
L 352.947517 377.50569 
L 353.093124 376.883935 
L 353.238706 383.311113 
L 353.384262 379.670854 
L 353.529793 383.311112 
L 354.111659 374.989466 
L 354.402438 383.24193 
L 354.54779 382.72803 
L 354.693116 383.311108 
L 354.983691 377.489355 
L 355.12894 383.311106 
L 355.274164 382.279872 
L 355.564535 375.570801 
L 355.9999 383.034389 
L 356.144971 382.517054 
L 356.290016 379.415607 
L 356.435036 382.085217 
L 356.58003 375.988454 
L 356.724999 380.054545 
L 356.869942 370.785853 
L 357.01486 373.583545 
L 357.159753 369.556535 
L 357.449461 382.041385 
L 357.594278 381.875099 
L 357.739068 383.311094 
L 357.883834 382.898599 
L 358.028574 380.335977 
L 358.173289 374.057897 
L 358.317978 376.271613 
L 358.462642 383.31109 
L 358.60728 381.722987 
L 358.751893 378.365025 
L 358.896481 379.280679 
L 359.041044 382.969061 
L 359.185581 383.311087 
L 359.330092 382.11485 
L 359.474579 372.224863 
L 359.61904 373.436608 
L 359.763476 372.288457 
L 360.052271 383.311082 
L 360.196631 378.567398 
L 360.340966 380.498385 
L 360.485275 366.910141 
L 360.773818 369.001397 
L 361.062259 383.311077 
L 361.206442 376.187797 
L 361.3506 382.58663 
L 361.494732 368.386059 
L 361.63884 372.13632 
L 361.782922 368.005842 
L 361.926978 380.84341 
L 362.07101 383.311072 
L 362.358998 381.998824 
L 362.502954 383.31107 
L 362.646884 376.824601 
L 362.79079 380.047208 
L 362.93467 364.491436 
L 363.366161 382.949703 
L 363.509941 383.311065 
L 363.653695 382.877945 
L 364.084809 372.913231 
L 364.228463 378.832489 
L 364.372092 380.078566 
L 364.515696 383.31106 
L 364.802829 371.406283 
L 365.089861 379.76361 
L 365.807003 353.812584 
L 365.950357 353.108717 
L 366.236988 343.614929 
L 366.666748 245.230174 
L 366.95313 140.115806 
L 367.239411 33.973515 
L 367.382515 48.780734 
L 368.38354 383.311041 
L 371.09446 383.31103 
L 371.236891 380.268885 
L 371.379298 370.429626 
L 371.52168 382.358851 
L 371.664038 380.268884 
L 371.80637 371.335831 
L 371.948678 351.8124 
L 372.090961 350.116428 
L 372.375453 358.641291 
L 372.802005 380.573526 
L 373.08625 351.917215 
L 373.228335 345.81226 
L 373.370396 347.479441 
L 373.512431 360.389228 
L 373.654443 362.382964 
L 373.938391 372.7172 
L 374.080328 361.903401 
L 374.222241 373.083763 
L 374.364128 373.441677 
L 374.64783 382.729657 
L 374.789644 383.311016 
L 376.913902 383.311008 
L 377.055323 376.369929 
L 377.196719 383.311007 
L 377.62076 383.311006 
L 377.762058 382.465392 
L 377.903332 383.311005 
L 378.75046 383.311002 
L 378.891562 377.506004 
L 379.03264 378.550991 
L 379.314723 383.311001 
L 379.455728 383.311 
L 379.596708 380.021358 
L 379.737664 383.311 
L 380.019502 372.92344 
L 380.301243 383.310998 
L 380.582887 380.183775 
L 380.723672 373.781527 
L 380.864432 383.310997 
L 381.005169 378.536374 
L 381.145881 382.078672 
L 381.286569 367.235329 
L 381.708486 383.310995 
L 381.849077 383.310994 
L 381.989643 381.042279 
L 382.130185 383.310994 
L 382.270702 373.63629 
L 382.411195 372.763197 
L 382.551664 368.926971 
L 382.83253 383.310992 
L 382.972926 380.717437 
L 383.113298 383.310992 
L 383.253645 378.908476 
L 383.393969 379.081634 
L 383.674543 373.793955 
L 383.814794 383.31099 
L 384.375555 383.310989 
L 384.515684 381.382576 
L 384.65579 372.641545 
L 384.795871 378.354611 
L 384.935928 379.476938 
L 385.075961 383.310988 
L 385.21597 378.247621 
L 385.495915 382.585257 
L 385.635852 383.310986 
L 386.055516 383.310986 
L 386.195356 380.433837 
L 386.335172 375.162959 
L 386.474963 382.938451 
L 386.614731 378.250626 
L 386.754474 383.310985 
L 386.894194 378.201209 
L 387.033889 383.310984 
L 387.17356 377.282553 
L 387.45283 383.310984 
L 387.592429 379.796617 
L 387.871555 382.003034 
L 388.011082 383.310983 
L 388.150585 375.416457 
L 388.290064 376.699042 
L 388.429518 374.160039 
L 388.568949 383.310982 
L 388.987098 368.12172 
L 389.126432 370.699839 
L 389.40503 383.310981 
L 389.544293 383.310981 
L 389.683532 376.649198 
L 389.822747 382.498881 
L 389.961938 370.223722 
L 390.101105 382.927274 
L 390.240248 381.123904 
L 390.379367 382.168884 
L 390.518462 378.009569 
L 390.657534 369.591221 
L 390.935604 382.330019 
L 391.21358 383.310978 
L 391.352532 377.056533 
L 391.491459 383.310978 
L 391.630363 382.532393 
L 391.769244 383.310978 
L 391.9081 381.305225 
L 392.046932 383.310978 
L 392.185741 383.310977 
L 392.324526 382.155994 
L 392.463287 375.65407 
L 392.602024 380.55113 
L 393.018092 372.205832 
L 393.156734 381.853928 
L 393.433946 383.310976 
L 393.711063 383.310976 
L 393.849586 376.234125 
L 393.988085 383.310976 
L 394.12656 370.715309 
L 394.265012 375.603382 
L 394.403439 370.521484 
L 394.541844 383.310975 
L 394.680224 382.290054 
L 394.81858 383.310975 
L 394.956913 379.980087 
L 395.095222 368.521326 
L 395.371769 378.929943 
L 395.510007 383.310975 
L 395.648222 379.485089 
L 395.786412 379.607547 
L 395.924579 381.924394 
L 396.062722 371.531226 
L 396.200842 383.310974 
L 396.338938 378.514868 
L 396.47701 383.310974 
L 396.615058 383.310974 
L 396.753083 369.232018 
L 396.891084 383.310974 
L 397.029062 374.810575 
L 397.167016 380.778858 
L 397.304946 373.414533 
L 397.580736 383.310974 
L 397.718596 383.310974 
L 397.856431 380.062583 
L 397.994244 381.473655 
L 398.132032 371.920092 
L 398.269797 378.526903 
L 398.407539 373.4859 
L 398.545257 382.134073 
L 398.682951 383.310973 
L 398.820622 382.197242 
L 398.958269 383.310973 
L 399.095893 377.809763 
L 399.37107 379.207089 
L 399.508623 374.940805 
L 399.646153 379.036073 
L 399.783659 375.372181 
L 399.921141 383.310973 
L 400.196036 383.310973 
L 400.470837 379.601964 
L 400.608202 373.452379 
L 401.020156 383.310973 
L 401.157427 383.310973 
L 401.294675 382.042553 
L 401.4319 383.310973 
L 401.5691 381.016476 
L 401.706278 383.310973 
L 401.843432 373.901394 
L 401.980563 373.741562 
L 402.11767 381.296624 
L 402.254754 377.415747 
L 402.391814 376.797432 
L 402.528851 383.310974 
L 402.665864 383.310974 
L 402.802855 381.214127 
L 402.939821 374.543356 
L 403.076765 383.310974 
L 403.213685 383.310974 
L 403.350582 376.620834 
L 403.624305 378.049525 
L 403.897935 370.176882 
L 404.171472 383.310974 
L 404.308205 381.44444 
L 404.444915 383.201836 
L 404.581602 376.096594 
L 404.718265 379.650949 
L 404.854905 380.17817 
L 404.991522 383.310975 
L 405.128116 379.451575 
L 405.264686 383.310974 
L 405.401233 373.242673 
L 405.537757 381.183195 
L 405.674257 380.224571 
L 405.810735 383.310974 
L 405.947189 378.629163 
L 406.083619 382.475674 
L 406.220027 371.516223 
L 406.356411 379.436964 
L 406.492772 371.114921 
L 406.765424 383.310974 
L 406.901716 383.310975 
L 407.037984 374.965677 
L 407.174229 374.568227 
L 407.310451 372.612336 
L 407.44665 375.245399 
L 407.582825 383.310975 
L 407.718977 376.345837 
L 407.855106 376.176544 
L 407.991212 378.441825 
L 408.127295 383.310975 
L 408.399391 383.310975 
L 408.535405 378.175424 
L 408.807362 362.801387 
L 408.943306 382.137515 
L 409.079227 377.394264 
L 409.215125 380.367657 
L 409.350999 377.880659 
L 409.486851 383.310975 
L 409.622679 383.238789 
L 409.758485 383.310975 
L 410.301476 367.328977 
L 410.437166 382.295637 
L 410.572833 382.258257 
L 410.708477 383.310975 
L 410.844098 383.310975 
L 411.115271 375.745168 
L 411.250823 372.287064 
L 411.521857 381.46721 
L 411.65734 379.651375 
L 411.7928 379.70638 
L 411.928237 375.409151 
L 412.063651 383.310975 
L 412.199042 383.310975 
L 412.469755 378.467609 
L 412.605077 383.310976 
L 412.875652 383.310976 
L 413.010905 375.808763 
L 413.281343 383.310976 
L 413.551688 380.413201 
L 413.686827 370.676653 
L 413.821943 371.996597 
L 413.957035 369.72618 
L 414.227152 383.310976 
L 414.362176 383.310976 
L 414.497177 373.29593 
L 414.767111 383.310977 
L 414.902044 381.61975 
L 415.036953 376.566697 
L 415.17184 379.903174 
L 415.306704 372.61619 
L 415.441546 375.768351 
L 415.576364 375.544925 
L 415.71116 383.249103 
L 415.845932 383.310977 
L 415.980682 382.650987 
L 416.115409 382.800515 
L 416.250114 383.310977 
L 416.519454 383.310977 
L 416.65409 382.362241 
L 416.788703 376.862747 
L 416.923293 382.244506 
L 417.057861 382.743798 
L 417.326928 370.152016 
L 417.461427 379.252637 
L 417.595904 374.455706 
L 417.730358 383.310978 
L 417.864789 380.533519 
L 417.999197 383.310978 
L 418.133583 382.13795 
L 418.267946 383.310978 
L 418.402286 376.339826 
L 418.536603 375.81174 
L 418.670898 367.423933 
L 418.80517 368.914049 
L 418.93942 378.246754 
L 419.073647 379.559859 
L 419.207851 383.310979 
L 419.342032 382.516931 
L 419.476191 383.310979 
L 419.610327 381.753815 
L 419.74444 383.310979 
L 419.878531 376.201013 
L 420.012599 377.311339 
L 420.146645 383.31098 
L 420.414668 383.31098 
L 420.548646 375.210599 
L 420.682601 381.109293 
L 420.816533 377.83856 
L 420.950443 378.278553 
L 421.08433 377.239581 
L 421.218195 383.310981 
L 421.352037 383.310981 
L 421.485856 382.259121 
L 421.753428 374.585467 
L 421.887179 375.752473 
L 422.020909 381.844911 
L 422.288299 373.737651 
L 422.421961 383.310982 
L 422.5556 383.310982 
L 422.689217 381.949752 
L 422.956382 371.514542 
L 423.223458 375.724496 
L 423.490443 383.310983 
L 423.757339 377.311343 
L 423.890753 383.310984 
L 424.024144 378.792025 
L 424.157513 383.310984 
L 424.424184 382.666033 
L 424.557486 382.679353 
L 424.690765 383.310985 
L 424.957256 375.358474 
L 425.090468 378.400584 
L 425.223658 372.623971 
L 425.48997 382.633808 
L 425.623092 376.621705 
L 425.756192 379.354053 
L 425.88927 366.89545 
L 426.022325 383.310987 
L 426.155358 382.980992 
L 426.288368 382.077372 
L 426.421356 371.346538 
L 426.554322 383.310988 
L 426.687265 379.78416 
L 426.820186 383.073804 
L 426.953085 379.359637 
L 427.085961 379.124174 
L 427.218815 372.507056 
L 427.484456 383.310988 
L 427.750008 379.198075 
L 427.88275 371.675189 
L 428.148168 383.310988 
L 428.280844 382.950056 
L 428.413497 383.310988 
L 428.811323 383.310988 
L 428.943887 374.946835 
L 429.076429 374.704486 
L 429.208949 381.885738 
L 429.341446 381.163441 
L 429.473921 374.482749 
L 429.606374 374.834243 
L 429.738805 383.257708 
L 429.871213 382.640686 
L 430.003599 381.196955 
L 430.268305 364.403702 
L 430.532922 383.310988 
L 430.665197 382.795371 
L 430.797451 383.310988 
L 430.929681 381.908506 
L 430.929681 381.908506 
" clip-path="url(#p18e5744093)" style="fill: none; stroke: #5088c5; stroke-linecap: round"/>
   </g>
   <g id="line2d_15">
    <defs>
     <path id="m289b728fca" d="M 0 2 
C 0.530406 2 1.03916 1.789267 1.414214 1.414214 
C 1.789267 1.03916 2 0.530406 2 0 
C 2 -0.530406 1.789267 -1.03916 1.414214 -1.414214 
C 1.03916 -1.789267 0.530406 -2 0 -2 
C -0.530406 -2 -1.03916 -1.789267 -1.414214 -1.414214 
C -1.789267 -1.03916 -2 -0.530406 -2 0 
C -2 0.530406 -1.789267 1.03916 -1.414214 1.414214 
C -1.03916 1.789267 -0.530406 2 0 2 
z
"/>
    </defs>
    <g clip-path="url(#p18e5744093)">
     <use xlink:href="#m289b728fca" x="290.257335" y="370.657096" style="fill: #f28360"/>
     <use xlink:href="#m289b728fca" x="295.781569" y="104.27588" style="fill: #f28360"/>
     <use xlink:href="#m289b728fca" x="296.423682" y="305.758149" style="fill: #f28360"/>
     <use xlink:href="#m289b728fca" x="367.260681" y="33.973515" style="fill: #f28360"/>
     <use xlink:href="#m289b728fca" x="372.873149" y="357.992501" style="fill: #f28360"/>
    </g>
   </g>
   <g id="patch_3">
    <path d="M 91.128438 397.284897 
L 91.128438 20 
" style="fill: none; stroke: #000000; stroke-width: 0.75; stroke-linejoin: miter; stroke-linecap: square"/>
   </g>
   <g id="patch_4">
    <path d="M 91.128437 397.284897 
L 443.99896 397.284897 
" style="fill: none; stroke: #000000; stroke-width: 0.75; stroke-linejoin: miter; stroke-linecap: square"/>
   </g>
  </g>
 </g>
 <defs>
  <clipPath id="p18e5744093">
   <rect x="91.128438" y="20" width="352.870523" height="377.284898"/>
  </clipPath>
 </defs>
</svg>
