<?xml version="1.0" encoding="utf-8" standalone="no"?>
<!DOCTYPE svg PUBLIC "-//W3C//DTD SVG 1.1//EN"
  "http://www.w3.org/Graphics/SVG/1.1/DTD/svg11.dtd">
<svg xmlns:xlink="http://www.w3.org/1999/xlink" width="463.99896pt" height="463.99896pt" viewBox="0 0 463.99896 463.99896" xmlns="http://www.w3.org/2000/svg" version="1.1">
 <metadata>
  <rdf:RDF xmlns:dc="http://purl.org/dc/elements/1.1/" xmlns:cc="http://creativecommons.org/ns#" xmlns:rdf="http://www.w3.org/1999/02/22-rdf-syntax-ns#">
   <cc:Work>
    <dc:type rdf:resource="http://purl.org/dc/dcmitype/StillImage"/>
    <dc:date>2025-02-10T11:28:21.522473</dc:date>
    <dc:format>image/svg+xml</dc:format>
    <dc:creator>
     <cc:Agent>
      <dc:title>Matplotlib v3.8.4, https://matplotlib.org/</dc:title>
     </cc:Agent>
    </dc:creator>
   </cc:Work>
  </rdf:RDF>
 </metadata>
 <defs>
  <style type="text/css">*{stroke-linejoin: round; stroke-linecap: butt}</style>
 </defs>
 <g id="figure_1">
  <g id="patch_1">
   <path d="M 0 463.99896 
L 463.99896 463.99896 
L 463.99896 0 
L 0 0 
L 0 463.99896 
z
" style="fill: none"/>
  </g>
  <g id="axes_1">
   <g id="patch_2">
    <path d="M 81.762344 394.59896 
L 443.99896 394.59896 
L 443.99896 20 
L 81.762344 20 
L 81.762344 394.59896 
z
" style="fill: none"/>
   </g>
   <g id="matplotlib.axis_1">
    <g id="xtick_1">
     <g id="line2d_1">
      <defs>
       <path id="m6a910b0e7b" d="M 0 0 
L 0 5 
" style="stroke: #000000; stroke-width: 0.75"/>
      </defs>
      <g>
       <use xlink:href="#m6a910b0e7b" x="106.622111" y="394.59896" style="stroke: #000000; stroke-width: 0.75"/>
      </g>
     </g>
     <g id="text_1">
      <text style="font: 14.5px &quot;Suisse Int&apos;l Mono&quot;; text-anchor: middle" x="106.622111" y="415.11146" transform="rotate(-0 106.622111 415.11146)">500</text>
     </g>
    </g>
    <g id="xtick_2">
     <g id="line2d_2">
      <g>
       <use xlink:href="#m6a910b0e7b" x="159.711511" y="394.59896" style="stroke: #000000; stroke-width: 0.75"/>
      </g>
     </g>
     <g id="text_2">
      <text style="font: 14.5px &quot;Suisse Int&apos;l Mono&quot;; text-anchor: middle" x="159.711511" y="415.11146" transform="rotate(-0 159.711511 415.11146)">1000</text>
     </g>
    </g>
    <g id="xtick_3">
     <g id="line2d_3">
      <g>
       <use xlink:href="#m6a910b0e7b" x="212.800911" y="394.59896" style="stroke: #000000; stroke-width: 0.75"/>
      </g>
     </g>
     <g id="text_3">
      <text style="font: 14.5px &quot;Suisse Int&apos;l Mono&quot;; text-anchor: middle" x="212.800911" y="415.11146" transform="rotate(-0 212.800911 415.11146)">1500</text>
     </g>
    </g>
    <g id="xtick_4">
     <g id="line2d_4">
      <g>
       <use xlink:href="#m6a910b0e7b" x="265.89031" y="394.59896" style="stroke: #000000; stroke-width: 0.75"/>
      </g>
     </g>
     <g id="text_4">
      <text style="font: 14.5px &quot;Suisse Int&apos;l Mono&quot;; text-anchor: middle" x="265.89031" y="415.11146" transform="rotate(-0 265.89031 415.11146)">2000</text>
     </g>
    </g>
    <g id="xtick_5">
     <g id="line2d_5">
      <g>
       <use xlink:href="#m6a910b0e7b" x="318.97971" y="394.59896" style="stroke: #000000; stroke-width: 0.75"/>
      </g>
     </g>
     <g id="text_5">
      <text style="font: 14.5px &quot;Suisse Int&apos;l Mono&quot;; text-anchor: middle" x="318.97971" y="415.11146" transform="rotate(-0 318.97971 415.11146)">2500</text>
     </g>
    </g>
    <g id="xtick_6">
     <g id="line2d_6">
      <g>
       <use xlink:href="#m6a910b0e7b" x="372.069109" y="394.59896" style="stroke: #000000; stroke-width: 0.75"/>
      </g>
     </g>
     <g id="text_6">
      <text style="font: 14.5px &quot;Suisse Int&apos;l Mono&quot;; text-anchor: middle" x="372.069109" y="415.11146" transform="rotate(-0 372.069109 415.11146)">3000</text>
     </g>
    </g>
    <g id="xtick_7">
     <g id="line2d_7">
      <g>
       <use xlink:href="#m6a910b0e7b" x="425.158509" y="394.59896" style="stroke: #000000; stroke-width: 0.75"/>
      </g>
     </g>
     <g id="text_7">
      <text style="font: 14.5px &quot;Suisse Int&apos;l Mono&quot;; text-anchor: middle" x="425.158509" y="415.11146" transform="rotate(-0 425.158509 415.11146)">3500</text>
     </g>
    </g>
    <g id="text_8">
     <!-- Raman shift (cm$^{-1}$) -->
     <g transform="translate(196.430652 441.14896)">
      <text>
       <tspan style="font: 500 15px &quot;Suisse Int&apos;l&quot;" x="0 10.184982 18.719971 32.324951 40.85994 49.694931 53.144928 61.034912 69.869904 73.664886 78.509872 83.609863 87.05986 90.929855 99.389847 129.02681" y="-0.6015625">Raman shift (cm)</tspan>
       <tspan style="font: 10.5px 'DejaVu Sans'" x="113.138382 121.936234" y="-6.34375">−1</tspan>
      </text>
     </g>
    </g>
   </g>
   <g id="matplotlib.axis_2">
    <g id="ytick_1">
     <g id="line2d_8">
      <defs>
       <path id="mb3d107f5e9" d="M 0 0 
L -5 0 
" style="stroke: #000000; stroke-width: 0.75"/>
      </defs>
      <g>
       <use xlink:href="#mb3d107f5e9" x="81.762344" y="380.724924" style="stroke: #000000; stroke-width: 0.75"/>
      </g>
     </g>
     <g id="text_9">
      <text style="font: 14.5px &quot;Suisse Int&apos;l Mono&quot;; text-anchor: end" x="71.762344" y="385.981174" transform="rotate(-0 71.762344 385.981174)">0.0</text>
     </g>
    </g>
    <g id="ytick_2">
     <g id="line2d_9">
      <g>
       <use xlink:href="#mb3d107f5e9" x="81.762344" y="322.916443" style="stroke: #000000; stroke-width: 0.75"/>
      </g>
     </g>
     <g id="text_10">
      <text style="font: 14.5px &quot;Suisse Int&apos;l Mono&quot;; text-anchor: end" x="71.762344" y="328.172693" transform="rotate(-0 71.762344 328.172693)">0.5</text>
     </g>
    </g>
    <g id="ytick_3">
     <g id="line2d_10">
      <g>
       <use xlink:href="#mb3d107f5e9" x="81.762344" y="265.107961" style="stroke: #000000; stroke-width: 0.75"/>
      </g>
     </g>
     <g id="text_11">
      <text style="font: 14.5px &quot;Suisse Int&apos;l Mono&quot;; text-anchor: end" x="71.762344" y="270.364211" transform="rotate(-0 71.762344 270.364211)">1.0</text>
     </g>
    </g>
    <g id="ytick_4">
     <g id="line2d_11">
      <g>
       <use xlink:href="#mb3d107f5e9" x="81.762344" y="207.29948" style="stroke: #000000; stroke-width: 0.75"/>
      </g>
     </g>
     <g id="text_12">
      <text style="font: 14.5px &quot;Suisse Int&apos;l Mono&quot;; text-anchor: end" x="71.762344" y="212.55573" transform="rotate(-0 71.762344 212.55573)">1.5</text>
     </g>
    </g>
    <g id="ytick_5">
     <g id="line2d_12">
      <g>
       <use xlink:href="#mb3d107f5e9" x="81.762344" y="149.490999" style="stroke: #000000; stroke-width: 0.75"/>
      </g>
     </g>
     <g id="text_13">
      <text style="font: 14.5px &quot;Suisse Int&apos;l Mono&quot;; text-anchor: end" x="71.762344" y="154.747249" transform="rotate(-0 71.762344 154.747249)">2.0</text>
     </g>
    </g>
    <g id="ytick_6">
     <g id="line2d_13">
      <g>
       <use xlink:href="#mb3d107f5e9" x="81.762344" y="91.682517" style="stroke: #000000; stroke-width: 0.75"/>
      </g>
     </g>
     <g id="text_14">
      <text style="font: 14.5px &quot;Suisse Int&apos;l Mono&quot;; text-anchor: end" x="71.762344" y="96.938767" transform="rotate(-0 71.762344 96.938767)">2.5</text>
     </g>
    </g>
    <g id="ytick_7">
     <g id="line2d_14">
      <g>
       <use xlink:href="#mb3d107f5e9" x="81.762344" y="33.874036" style="stroke: #000000; stroke-width: 0.75"/>
      </g>
     </g>
     <g id="text_15">
      <text style="font: 14.5px &quot;Suisse Int&apos;l Mono&quot;; text-anchor: end" x="71.762344" y="39.130286" transform="rotate(-0 71.762344 39.130286)">3.0</text>
     </g>
    </g>
    <g id="text_16">
     <text style="font: 500 15px &quot;Suisse Int&apos;l&quot;, sans-serif; text-anchor: middle" x="30.875" y="207.29948" transform="rotate(-90 30.875 207.29948)">Intensity (au)</text>
    </g>
   </g>
   <g id="line2d_15">
    <path d="M 95.178515 380.173052 
L 95.376295 379.876867 
L 95.771737 379.87702 
L 95.969397 380.167873 
L 96.364599 380.16821 
L 96.562139 379.850268 
L 96.957101 379.795936 
L 97.154522 379.851097 
L 97.351903 379.741725 
L 97.549244 379.851802 
L 97.943806 380.33535 
L 99.520462 380.257614 
L 99.717365 379.912736 
L 100.111051 379.914243 
L 100.307835 380.128974 
L 100.701283 380.130663 
L 101.094572 379.490674 
L 101.684208 379.493618 
L 101.880674 379.812817 
L 102.666143 379.872142 
L 102.862411 380.301203 
L 103.254828 380.358538 
L 103.450978 380.30497 
L 103.647087 379.955218 
L 104.039189 379.957945 
L 104.23518 380.228142 
L 104.627044 380.231052 
L 104.822917 379.755318 
L 105.410299 379.809373 
L 105.606014 380.721585 
L 105.997326 380.724924 
L 106.583999 379.342342 
L 106.974917 379.345987 
L 107.170318 379.803148 
L 107.561 379.88377 
L 107.756283 379.808932 
L 107.951526 379.591502 
L 108.14673 379.083372 
L 108.341894 379.06348 
L 108.732106 378.584944 
L 108.927152 378.587081 
L 109.317129 378.004497 
L 109.512058 377.759874 
L 110.096611 377.821568 
L 110.291384 378.037839 
L 110.680812 378.0426 
L 110.875467 377.534875 
L 111.070083 377.537327 
L 111.459199 377.383236 
L 111.653698 377.385773 
L 112.042579 376.403543 
L 113.208287 376.529368 
L 113.402435 376.608946 
L 113.596544 376.534957 
L 114.566507 376.949848 
L 114.95422 376.879024 
L 115.148018 376.958848 
L 115.535498 376.88819 
L 115.72918 376.43052 
L 116.116427 376.436822 
L 116.309992 377.454826 
L 116.697007 377.461293 
L 116.890456 377.332918 
L 117.083867 377.040006 
L 117.277239 376.401537 
L 117.470572 376.190962 
L 118.436657 376.180729 
L 118.822821 376.489495 
L 119.401776 376.204078 
L 119.594685 376.207732 
L 119.980385 376.050556 
L 120.558647 376.138634 
L 120.943963 377.539599 
L 121.136563 377.570896 
L 121.329124 377.733872 
L 121.521647 377.578719 
L 121.714132 377.582674 
L 121.906578 377.345296 
L 122.098986 376.07119 
L 122.291355 375.828382 
L 123.252626 375.739252 
L 123.636866 375.160722 
L 124.404886 375.260147 
L 124.596796 375.983094 
L 124.788667 376.069753 
L 124.9805 376.556879 
L 125.364051 376.565768 
L 125.555769 376.306951 
L 125.747449 376.574766 
L 125.93909 376.579306 
L 126.130694 376.424794 
L 126.513787 376.43401 
L 126.705276 375.478701 
L 127.08814 375.488077 
L 127.279514 375.810961 
L 128.044632 375.731395 
L 128.426963 375.362642 
L 129.000174 375.34454 
L 129.573042 375.255361 
L 130.336336 375.418405 
L 130.527064 375.423576 
L 130.908408 373.991317 
L 131.2896 373.705619 
L 131.480139 373.48601 
L 131.67064 373.491329 
L 131.861103 373.00298 
L 132.432267 372.635169 
L 133.00309 372.63509 
L 133.193289 371.483161 
L 133.573573 371.22545 
L 133.953707 371.236615 
L 134.33369 369.481544 
L 134.713522 369.492877 
L 134.903381 369.717993 
L 135.282987 369.729448 
L 135.472734 368.665538 
L 135.852114 368.48512 
L 136.231344 367.608123 
L 136.420903 366.664989 
L 136.610424 366.308817 
L 136.799907 366.243394 
L 136.989353 365.053464 
L 137.368133 364.977552 
L 137.557466 364.709228 
L 137.936021 364.721177 
L 138.125242 363.723332 
L 138.69268 362.633344 
L 138.881751 362.568086 
L 139.637662 360.798675 
L 140.015393 358.44119 
L 141.90181 353.834729 
L 142.090246 352.80966 
L 142.278646 352.563532 
L 142.655333 351.040015 
L 143.408261 348.541543 
L 143.5964 348.498385 
L 143.784502 348.25775 
L 143.972567 346.991329 
L 144.160595 346.876856 
L 144.536539 345.676973 
L 144.724456 345.024915 
L 144.912335 345.031109 
L 145.100177 344.872734 
L 145.287983 344.544305 
L 145.663482 344.485351 
L 146.038834 342.281557 
L 146.601583 340.402034 
L 146.976565 340.33201 
L 147.351399 340.547195 
L 147.53876 340.838538 
L 147.726085 340.910454 
L 148.662155 340.545824 
L 148.849258 340.184336 
L 149.223355 339.066378 
L 149.597304 338.749258 
L 149.971106 339.084868 
L 150.157951 339.090835 
L 150.531533 340.172408 
L 150.904967 340.184276 
L 151.091629 338.758489 
L 151.464843 338.66059 
L 151.651395 338.436089 
L 152.02439 337.416566 
L 152.210832 337.422422 
L 152.397237 337.280157 
L 152.583606 337.285989 
L 152.769938 336.282481 
L 152.956234 336.271831 
L 153.142493 335.855243 
L 153.328715 335.800683 
L 153.514901 335.521205 
L 153.887163 333.541469 
L 154.259279 333.410276 
L 154.817179 332.631907 
L 155.188929 332.643172 
L 155.560534 333.877631 
L 155.746282 334.168453 
L 156.117668 334.179561 
L 156.303307 333.971159 
L 156.488909 334.333231 
L 156.860004 334.344218 
L 157.416374 333.18121 
L 157.787106 332.232085 
L 157.972417 331.902862 
L 158.342931 329.302504 
L 158.898429 322.522005 
L 159.453601 319.230268 
L 159.638586 318.796765 
L 160.008448 318.807435 
L 160.562968 322.454825 
L 160.747736 322.866085 
L 161.117163 326.776929 
L 161.855585 329.557336 
L 162.0401 329.820405 
L 162.224579 329.825638 
L 162.593428 330.285855 
L 162.777799 332.046383 
L 163.146433 332.160906 
L 163.330696 332.16603 
L 163.514922 332.034 
L 164.25147 332.131048 
L 164.803503 332.239308 
L 164.987442 332.151024 
L 165.355213 331.46974 
L 165.9066 331.100453 
L 166.090324 330.573225 
L 166.457664 330.582892 
L 166.64128 331.262411 
L 167.008406 331.321338 
L 167.375388 331.281455 
L 167.558826 331.406851 
L 167.742228 331.027564 
L 168.108924 331.036904 
L 168.292218 330.580767 
L 169.02504 330.599151 
L 169.208156 330.263602 
L 169.391236 329.576964 
L 170.306104 329.566413 
L 170.671801 328.192879 
L 170.854597 328.164339 
L 171.585423 327.188743 
L 171.950623 325.749107 
L 172.13317 325.544923 
L 172.498157 324.533154 
L 173.045372 318.462556 
L 173.227706 317.863418 
L 173.774495 312.703408 
L 174.138844 306.853449 
L 174.685102 291.918322 
L 175.231042 277.021593 
L 175.776665 277.001474 
L 175.958468 278.41002 
L 176.321969 284.88044 
L 177.411627 312.185299 
L 178.137361 319.212795 
L 178.681293 319.949672 
L 179.043739 319.958201 
L 179.406044 318.567934 
L 179.768208 318.576463 
L 180.853861 320.181868 
L 181.034681 319.917344 
L 181.396215 320.446994 
L 181.576929 320.4732 
L 182.118864 321.769596 
L 182.299438 321.954881 
L 182.479978 321.959146 
L 182.660483 323.038563 
L 182.840953 323.174479 
L 183.021389 323.793117 
L 183.562485 323.805911 
L 183.742781 323.958284 
L 184.103268 323.966813 
L 184.283459 324.706131 
L 184.643737 324.714661 
L 184.823824 323.956444 
L 185.003876 324.651879 
L 185.183893 323.997886 
L 186.083458 324.046637 
L 186.263267 323.930221 
L 186.443041 323.336569 
L 186.982156 323.343877 
L 187.161791 321.532449 
L 188.059449 321.597656 
L 188.41827 321.211231 
L 188.776953 318.882948 
L 188.956242 318.717163 
L 189.314717 318.725692 
L 189.493903 319.700886 
L 189.673054 319.727092 
L 189.852171 320.087913 
L 190.031253 320.108634 
L 190.210301 320.332318 
L 190.389315 320.117163 
L 190.568293 320.340847 
L 190.747238 320.345112 
L 190.926148 321.111857 
L 191.283864 321.224611 
L 191.462671 321.228875 
L 191.641443 320.596825 
L 192.177553 320.587677 
L 192.356188 320.866215 
L 192.891886 320.791242 
L 193.248846 320.163456 
L 193.427275 320.096409 
L 193.605669 319.88674 
L 193.962355 319.895269 
L 194.140647 320.552306 
L 194.497127 320.988702 
L 194.675316 321.530543 
L 195.031591 321.539073 
L 195.921679 318.099061 
L 196.099595 318.103325 
L 196.277476 318.39832 
L 196.633135 318.406849 
L 196.810914 317.862566 
L 197.344045 317.908273 
L 198.05441 318.912717 
L 198.409388 318.921247 
L 198.586826 317.570599 
L 198.941599 317.579128 
L 199.118935 318.088056 
L 199.650739 318.10085 
L 200.005105 317.82962 
L 200.182238 317.142715 
L 201.244318 317.064079 
L 201.421213 317.644318 
L 201.951695 318.117892 
L 202.128454 318.122157 
L 202.30518 316.711169 
L 202.481872 314.246969 
L 202.835154 314.255498 
L 203.011744 315.943804 
L 203.364824 316.978117 
L 203.717769 316.986647 
L 203.89419 316.68921 
L 204.070578 315.969392 
L 204.775793 315.74509 
L 204.952013 315.299545 
L 205.656554 314.976504 
L 205.832605 314.157948 
L 206.008623 313.90988 
L 206.536474 311.816251 
L 207.942601 311.817456 
L 208.118216 312.079538 
L 208.469345 312.088067 
L 208.64486 311.302423 
L 209.346584 311.319482 
L 210.222986 309.113702 
L 210.748427 306.427642 
L 210.923507 305.982097 
L 211.273568 302.600602 
L 211.973289 291.048793 
L 213.021872 268.156063 
L 213.371134 265.229863 
L 213.720263 265.112226 
L 213.894778 265.116491 
L 214.069259 267.073585 
L 215.115453 290.363075 
L 215.638102 298.412091 
L 215.812252 299.151409 
L 216.334505 305.70289 
L 216.508523 305.997885 
L 216.682508 306.715261 
L 216.85646 306.774381 
L 217.378118 307.456403 
L 217.551938 307.504551 
L 217.725725 307.777604 
L 217.899479 307.831238 
L 218.0732 308.027494 
L 218.246888 308.498024 
L 218.420543 308.502289 
L 218.594165 308.950877 
L 219.288325 308.984392 
L 219.461783 309.20259 
L 219.981959 309.22087 
L 220.155285 308.627218 
L 220.675067 308.640011 
L 221.194553 309.684075 
L 221.540713 309.692604 
L 221.713744 309.049583 
L 222.232641 308.650966 
L 222.405541 308.65523 
L 222.578408 308.824059 
L 222.751243 308.828324 
L 222.924045 309.002638 
L 223.096814 308.836853 
L 223.442254 309.070287 
L 223.614926 309.727323 
L 224.132743 309.729146 
L 224.82271 309.433533 
L 224.99512 310.178336 
L 225.339843 310.186866 
L 225.512156 309.456077 
L 225.684435 309.284806 
L 226.37323 309.225068 
L 226.545347 309.481664 
L 226.717432 309.485929 
L 226.889484 310.400783 
L 227.405447 310.424547 
L 227.749259 311.755076 
L 228.092942 311.763606 
L 228.264735 310.774999 
L 228.779919 310.705511 
L 229.123213 310.357484 
L 229.466377 310.366014 
L 229.637911 310.836544 
L 230.152318 310.76157 
L 230.495095 309.651062 
L 230.837743 309.659591 
L 231.009018 310.152063 
L 231.693797 310.169122 
L 232.035993 309.135411 
L 232.207043 310.247741 
L 232.37806 310.252006 
L 232.549046 310.771905 
L 232.89092 310.780435 
L 233.061809 308.453372 
L 233.40349 308.461901 
L 233.574283 309.239618 
L 233.915771 309.248147 
L 234.086467 309.043964 
L 234.257131 308.48871 
L 234.768931 308.501504 
L 235.10997 308.943386 
L 235.621289 308.923267 
L 235.962008 308.761746 
L 236.643062 308.751378 
L 236.813246 308.947634 
L 236.983397 308.951898 
L 237.663685 308.096766 
L 237.833677 308.282052 
L 238.173565 308.372863 
L 238.343462 309.435825 
L 238.683159 309.444354 
L 238.85296 308.625797 
L 239.022729 308.421614 
L 239.362171 308.430143 
L 239.531845 308.966499 
L 239.871096 308.975028 
L 240.040674 308.540455 
L 240.210221 308.544719 
L 240.549218 308.410626 
L 240.888088 308.419155 
L 241.057476 308.182059 
L 241.396156 308.190588 
L 241.565448 308.507525 
L 241.903938 308.516054 
L 242.073135 307.702983 
L 242.411435 307.711512 
L 242.580537 308.14913 
L 243.087654 308.266148 
L 243.425574 308.170453 
L 243.594487 307.554859 
L 243.932217 307.656641 
L 244.101035 307.732217 
L 244.607299 307.569475 
L 244.775991 307.107475 
L 245.113279 306.956925 
L 245.618976 306.733844 
L 246.461174 306.73871 
L 246.629519 306.430303 
L 246.797833 306.74724 
L 246.966115 306.438832 
L 247.638931 306.422978 
L 247.807056 307.321375 
L 248.983055 307.455451 
L 249.318773 305.851251 
L 249.654366 305.656818 
L 249.822116 305.05768 
L 249.989834 305.061944 
L 250.325176 304.521926 
L 250.660394 304.530455 
L 250.827956 304.781566 
L 251.162986 304.790096 
L 251.497892 304.22265 
L 251.832673 303.704574 
L 252.000016 303.939228 
L 252.167329 303.943493 
L 252.33461 304.233002 
L 252.50186 304.829698 
L 253.17055 304.846757 
L 253.337645 304.48898 
L 253.671741 304.612704 
L 253.838742 304.474347 
L 254.172652 304.894286 
L 254.33956 305.11797 
L 254.673284 305.126499 
L 254.840099 304.604158 
L 255.173636 304.612688 
L 255.50705 305.564719 
L 255.840339 305.589704 
L 256.006937 305.824359 
L 256.506547 305.299576 
L 256.673021 305.303841 
L 257.005878 305.169748 
L 257.837478 304.988108 
L 258.169902 305.128289 
L 258.336068 305.626247 
L 258.668308 305.634776 
L 258.834381 305.063066 
L 259.000424 303.992177 
L 259.332416 304.000706 
L 259.830175 306.180263 
L 260.16186 306.188792 
L 260.493422 304.463911 
L 260.824862 304.47244 
L 260.990535 304.986854 
L 261.32179 304.995384 
L 261.487372 304.242653 
L 261.818443 304.251182 
L 261.983933 303.690442 
L 262.31482 303.627661 
L 262.645585 303.63619 
L 262.810922 304.370023 
L 263.141503 304.378552 
L 263.306748 303.823298 
L 263.967421 303.790987 
L 264.132513 303.954331 
L 264.462606 303.96286 
L 264.627606 302.551872 
L 264.792576 302.172153 
L 265.122424 302.180683 
L 265.287303 302.393395 
L 266.111238 302.37632 
L 266.440599 303.854957 
L 266.605234 303.859221 
L 266.934413 303.017502 
L 267.26347 303.026031 
L 267.756828 305.05748 
L 268.249913 305.070274 
L 268.414214 304.85512 
L 268.742725 305.10501 
L 269.071115 304.905091 
L 269.399384 305.122068 
L 269.563473 305.773619 
L 269.89156 305.782149 
L 270.055558 305.276264 
L 270.711249 305.293322 
L 270.875097 305.495064 
L 271.038914 305.499329 
L 271.202701 305.783353 
L 271.366457 306.550098 
L 271.857546 306.694544 
L 272.348364 308.018366 
L 272.51191 308.022631 
L 272.838911 306.325177 
L 273.002367 306.120994 
L 273.329188 306.129523 
L 273.492553 307.055348 
L 273.819193 307.195528 
L 274.308929 306.77497 
L 274.472114 306.488504 
L 274.798394 306.497033 
L 275.124555 305.78148 
L 275.28759 305.385305 
L 275.450595 305.389569 
L 276.102316 305.055558 
L 276.427998 304.477141 
L 276.916295 304.462507 
L 277.079001 303.967594 
L 277.56694 303.980388 
L 277.729527 303.5513 
L 278.054611 303.312983 
L 278.379575 303.447678 
L 278.542013 303.451942 
L 278.704421 304.224174 
L 279.191465 304.236968 
L 279.840441 301.99401 
L 280.002611 301.948905 
L 280.164751 301.585643 
L 280.326861 301.578937 
L 280.488942 301.402181 
L 280.975006 299.281125 
L 281.298899 299.218343 
L 281.622675 299.226872 
L 282.431595 301.030975 
L 282.59329 301.161405 
L 282.754955 302.021404 
L 283.239774 302.335899 
L 283.401322 303.245267 
L 283.562839 303.375698 
L 283.724328 305.173713 
L 283.885786 305.572932 
L 284.047215 305.577197 
L 284.208615 306.009328 
L 284.369985 306.030049 
L 284.692637 306.345765 
L 284.853918 306.388428 
L 285.01517 306.546286 
L 285.176393 306.994874 
L 285.49875 307.030831 
L 285.659884 307.468448 
L 285.982065 307.476978 
L 286.143111 306.833956 
L 286.304127 307.655557 
L 286.947899 307.639702 
L 287.269609 307.74697 
L 287.43042 307.795119 
L 287.751954 309.26827 
L 287.912677 309.486468 
L 288.234035 309.494997 
L 288.39467 308.511876 
L 288.555275 308.39546 
L 288.715852 307.944431 
L 289.036917 307.95296 
L 289.518294 309.101247 
L 289.839067 309.000067 
L 289.999409 308.516124 
L 290.320006 308.524654 
L 290.480261 309.697325 
L 290.640486 309.844212 
L 290.800682 310.150177 
L 291.120987 310.158707 
L 291.281096 309.416947 
L 291.441176 309.251161 
L 291.601226 308.119933 
L 291.92124 308.128462 
L 292.081203 308.752585 
L 292.401042 308.761114 
L 292.880582 307.325743 
L 293.200129 307.334272 
L 293.35986 307.503101 
L 293.998491 307.596956 
L 294.158076 307.343403 
L 294.317632 306.426108 
L 294.477159 306.413916 
L 294.796126 305.424089 
L 294.955567 305.258304 
L 295.114978 304.664652 
L 295.433713 302.939771 
L 295.752333 302.641113 
L 295.911599 300.807744 
L 296.230046 300.799816 
L 296.548376 300.067806 
L 296.707498 300.022702 
L 297.025655 299.696617 
L 297.343697 298.350234 
L 297.820543 298.324629 
L 298.138296 302.068768 
L 298.297129 303.329206 
L 298.455934 303.333471 
L 298.932175 303.999036 
L 299.090864 304.376313 
L 299.408157 306.683257 
L 299.56676 306.693007 
L 299.725334 307.108682 
L 300.042397 307.117212 
L 300.200885 306.737493 
L 300.676177 306.838054 
L 300.83455 307.182419 
L 300.992895 307.241538 
L 301.151211 307.525562 
L 301.309498 307.529826 
L 301.467757 307.868705 
L 301.942361 307.881499 
L 302.100505 309.207763 
L 302.574766 309.220557 
L 302.732795 309.389386 
L 302.890796 309.810547 
L 303.680373 309.760559 
L 303.996004 310.740017 
L 304.784582 310.690029 
L 304.942212 312.762318 
L 305.257387 312.770848 
L 305.414932 310.608349 
L 305.729936 310.616879 
L 305.887395 311.295857 
L 306.044826 311.300121 
L 306.359602 311.52807 
L 306.516948 311.532334 
L 306.674265 311.958981 
L 307.146046 312.086969 
L 307.774691 312.136941 
L 307.931781 311.932757 
L 308.088843 311.937022 
L 308.245877 311.69444 
L 309.657905 311.634083 
L 309.814656 311.462813 
L 310.284739 311.475607 
L 310.441377 311.863855 
L 310.911121 311.799852 
L 311.224142 311.325659 
L 311.380611 310.814289 
L 311.693464 310.718594 
L 311.849848 309.993291 
L 312.162532 310.00182 
L 312.631347 310.442481 
L 312.787562 310.199899 
L 312.943749 310.45101 
L 313.25604 310.443083 
L 313.724264 311.284184 
L 313.880283 311.288449 
L 314.036274 311.023925 
L 314.348172 311.032454 
L 314.815808 310.348593 
L 314.97163 309.06377 
L 315.283192 309.0723 
L 315.43893 310.491817 
L 315.594641 310.819725 
L 315.750324 311.745549 
L 316.061606 311.754079 
L 316.372776 311.427994 
L 316.528319 311.432258 
L 316.683834 311.23356 
L 316.99478 311.24209 
L 317.305615 308.95769 
L 317.460991 308.918071 
L 317.616339 308.423157 
L 317.771659 308.427422 
L 318.082215 309.066781 
L 318.39266 309.07531 
L 318.547841 308.695592 
L 318.858119 308.704121 
L 319.013216 310.310144 
L 319.478341 310.372308 
L 319.788285 309.174032 
L 320.098119 309.182561 
L 320.562661 311.587023 
L 320.872217 311.869826 
L 321.026954 311.69307 
L 321.336343 311.701599 
L 321.645623 312.25319 
L 321.800221 313.074791 
L 322.263849 313.581278 
L 322.418336 313.936613 
L 322.881633 315.682817 
L 323.03601 315.687082 
L 323.190359 314.917894 
L 323.344681 314.922159 
L 323.498975 314.794772 
L 323.653241 314.930688 
L 323.80748 314.803301 
L 323.961692 315.164122 
L 324.115876 315.168386 
L 324.578262 315.729728 
L 324.886382 316.429427 
L 325.0404 316.647625 
L 325.963935 316.623844 
L 326.117761 315.772374 
L 326.425331 315.780903 
L 326.579075 317.370471 
L 326.88648 317.379 
L 327.040142 316.774377 
L 327.654514 316.791435 
L 327.961536 314.720969 
L 328.115006 314.412562 
L 328.421864 314.421091 
L 328.728612 315.663852 
L 329.648201 315.672984 
L 329.954512 315.198791 
L 330.107627 314.495429 
L 330.260714 314.499694 
L 330.566807 314.288804 
L 331.025743 313.774992 
L 331.178667 312.907066 
L 331.790091 312.74859 
L 331.942879 312.752854 
L 332.248373 311.911135 
L 332.553759 311.766071 
L 332.706411 310.920087 
L 332.859036 310.924351 
L 333.011634 310.517205 
L 333.164205 308.875827 
L 333.316748 308.841694 
L 333.774217 307.104621 
L 333.926652 307.108885 
L 334.07906 305.873432 
L 334.383795 305.783223 
L 334.688422 306.093454 
L 334.840694 306.536556 
L 335.145159 306.545086 
L 335.449515 305.681424 
L 335.753764 305.689953 
L 336.057904 306.406109 
L 336.513912 312.162196 
L 337.121545 312.217653 
L 337.273386 313.538432 
L 337.576988 313.93643 
L 338.183867 315.675928 
L 338.487145 316.084897 
L 338.790316 317.212463 
L 339.244871 317.236228 
L 339.850569 318.043195 
L 340.304561 318.280893 
L 340.909508 319.4883 
L 341.66509 319.515109 
L 341.816126 320.161174 
L 342.118119 320.169703 
L 342.570907 319.1238 
L 342.721783 319.128065 
L 342.872633 319.538255 
L 343.023455 319.136594 
L 343.174251 319.140859 
L 343.325021 319.551049 
L 343.475764 319.555313 
L 343.62648 320.431769 
L 343.777169 320.628025 
L 344.229078 320.706644 
L 344.379661 320.765764 
L 344.530218 321.230808 
L 344.680748 321.333812 
L 344.831251 321.738516 
L 345.132178 321.747045 
L 345.282601 320.906547 
L 345.432999 320.740762 
L 345.733713 320.749291 
L 346.334824 322.088349 
L 346.485035 322.092614 
L 346.785378 321.481284 
L 346.93551 321.485549 
L 347.085616 320.913838 
L 347.235695 320.918103 
L 347.385747 321.410575 
L 347.535773 321.41484 
L 347.685773 321.029636 
L 348.285507 321.046694 
L 348.585216 321.680568 
L 349.034581 322.198025 
L 349.184316 322.20229 
L 349.334026 322.085874 
L 349.483708 321.673242 
L 349.782995 321.681772 
L 350.082176 321.810981 
L 350.231727 321.815246 
L 350.381252 320.854067 
L 350.680223 320.862596 
L 350.979088 322.363175 
L 351.128481 322.839191 
L 351.427189 322.84772 
L 351.576504 322.994607 
L 351.725792 322.762996 
L 351.875054 322.767261 
L 352.322682 322.522237 
L 352.770075 322.573429 
L 352.919153 322.87391 
L 353.068205 322.900116 
L 353.217231 323.096372 
L 353.366231 323.928944 
L 353.515205 323.933209 
L 353.664152 324.206262 
L 354.259681 324.173951 
L 354.557288 323.365144 
L 354.854791 323.373673 
L 355.003503 323.52056 
L 355.152189 324.018518 
L 355.598091 324.003884 
L 355.746673 323.38829 
L 356.34074 323.405349 
L 356.637617 323.572957 
L 357.082737 323.585751 
L 357.231059 323.81492 
L 357.379354 323.819185 
L 357.824085 325.894517 
L 358.120442 325.903047 
L 358.268582 324.656623 
L 358.564783 324.665152 
L 358.860881 325.458104 
L 359.008891 325.462369 
L 359.156875 325.345953 
L 359.600672 324.645635 
L 359.748552 324.902232 
L 360.044236 324.910761 
L 360.192038 326.346735 
L 360.487567 326.355243 
L 360.782991 324.175025 
L 361.078313 324.183512 
L 361.225935 325.849855 
L 361.521101 325.858342 
L 361.668646 324.930054 
L 361.963657 324.938541 
L 362.111125 325.776577 
L 362.258566 325.780821 
L 362.553371 326.140378 
L 362.700736 326.418895 
L 362.848074 327.097852 
L 363.142674 327.232505 
L 363.289935 327.236728 
L 363.58438 326.532016 
L 363.878722 326.540416 
L 364.172962 326.274543 
L 364.614129 326.287144 
L 364.761133 326.58756 
L 365.055065 326.59596 
L 365.201992 325.947389 
L 365.49577 325.955789 
L 365.936245 327.773111 
L 366.376489 327.785583 
L 366.669857 327.201423 
L 366.963123 327.160261 
L 367.109718 325.880753 
L 367.402831 325.888938 
L 367.549349 325.673612 
L 367.842308 326.219374 
L 367.98875 326.366089 
L 368.135166 326.276929 
L 368.866864 326.747202 
L 369.013127 327.042025 
L 369.159364 327.046118 
L 369.451763 327.180426 
L 369.597925 327.069302 
L 369.744061 326.530311 
L 369.890171 326.430159 
L 370.036256 325.792429 
L 370.32835 325.800572 
L 370.474359 326.067946 
L 370.620342 326.724789 
L 370.912233 326.820699 
L 371.05814 326.808314 
L 371.204022 327.223795 
L 371.349879 326.849369 
L 371.49571 327.14417 
L 371.641516 326.857511 
L 371.787297 326.861583 
L 371.933052 326.717546 
L 372.224486 326.352676 
L 372.51582 326.174312 
L 372.807052 326.29765 
L 373.098183 327.002448 
L 373.825568 327.03926 
L 373.970969 327.498605 
L 374.261696 327.303743 
L 374.988072 327.943852 
L 375.278446 328.324901 
L 375.423595 328.328888 
L 375.568719 329.298297 
L 375.858892 329.30617 
L 376.148964 328.145556 
L 376.438935 328.153307 
L 376.583883 328.974508 
L 376.728806 328.978353 
L 377.163425 329.412148 
L 377.597817 330.701499 
L 377.742564 330.91914 
L 377.887287 330.922829 
L 378.031984 330.712567 
L 378.176656 330.705248 
L 378.321303 330.418152 
L 378.465925 330.416282 
L 378.610522 329.876816 
L 379.044163 329.865547 
L 379.18866 330.417613 
L 379.333132 330.421113 
L 379.766399 331.462771 
L 380.055118 331.568345 
L 380.19944 331.983147 
L 380.488009 332.02279 
L 380.632257 331.828653 
L 380.776479 331.831976 
L 380.920677 331.506152 
L 381.064849 330.719532 
L 381.497217 330.707341 
L 381.64129 330.825749 
L 381.929361 331.391638 
L 382.07336 332.398639 
L 382.217333 332.615714 
L 382.361281 332.618839 
L 382.649104 332.28494 
L 383.511976 332.347019 
L 383.799401 332.780816 
L 383.943076 332.811184 
L 384.086727 333.302315 
L 384.51753 333.310991 
L 384.661082 332.907926 
L 384.948111 332.842286 
L 385.091588 332.916409 
L 385.235041 333.270273 
L 385.521872 333.275814 
L 385.665251 332.795839 
L 385.808604 332.765657 
L 385.951933 332.071715 
L 386.238517 332.077091 
L 386.381772 332.40888 
L 386.525003 333.300172 
L 386.668208 333.385082 
L 386.811389 334.078864 
L 387.097677 334.084044 
L 387.240784 332.440969 
L 387.526925 332.446053 
L 387.812966 333.553652 
L 387.95595 334.505124 
L 388.384754 334.452154 
L 388.670501 334.248549 
L 388.813337 333.757255 
L 389.098936 333.756521 
L 389.241699 333.533968 
L 389.527151 333.70319 
L 389.955144 333.710059 
L 390.240351 333.599366 
L 390.382917 333.601593 
L 390.667976 335.509461 
L 391.095382 335.718932 
L 391.237801 335.518112 
L 391.380197 334.944266 
L 391.664913 334.94848 
L 391.807235 334.780515 
L 392.091805 335.409987 
L 392.802804 335.672394 
L 392.94493 335.94864 
L 393.655197 335.886996 
L 393.939133 336.362521 
L 394.081064 336.430214 
L 394.222971 336.196193 
L 394.364854 336.433911 
L 394.648547 336.437556 
L 394.932143 336.304014 
L 395.073904 336.305793 
L 395.357354 335.656536 
L 395.499042 335.658274 
L 395.782346 335.513602 
L 395.923962 335.515299 
L 396.20712 336.670602 
L 396.348663 337.061728 
L 396.631676 337.065008 
L 396.773147 336.501626 
L 397.338786 336.579296 
L 397.62146 337.492988 
L 397.904037 337.496046 
L 398.04529 337.354935 
L 398.186518 336.8408 
L 398.468902 336.761479 
L 398.610058 336.762939 
L 398.75119 337.422644 
L 399.033381 337.425506 
L 399.174441 336.67541 
L 399.456487 336.6782 
L 399.879376 337.581909 
L 400.020291 337.59422 
L 400.302048 338.068617 
L 400.442891 338.069922 
L 400.583709 337.901168 
L 400.865274 336.883427 
L 401.146743 336.885935 
L 401.568766 337.685 
L 401.849995 337.846467 
L 402.131127 337.84881 
L 402.271658 337.295932 
L 402.552647 337.128155 
L 402.693105 336.849515 
L 402.833539 336.850621 
L 402.97395 336.68715 
L 403.114337 336.852795 
L 403.254699 336.689299 
L 403.395038 337.068852 
L 403.535353 336.954702 
L 403.675644 337.328746 
L 403.956154 337.434997 
L 404.096373 337.507304 
L 404.376739 338.436309 
L 404.516887 338.557951 
L 404.79711 339.5582 
L 404.937186 339.559133 
L 405.077238 339.176072 
L 405.217266 339.149557 
L 405.357271 338.914584 
L 405.637208 338.916357 
L 405.77714 339.877186 
L 406.336634 339.880578 
L 406.476447 340.177617 
L 407.035464 340.180824 
L 407.31483 341.027134 
L 407.454478 341.417365 
L 407.733701 341.418865 
L 407.873277 341.030134 
L 408.012829 340.986981 
L 408.152358 340.258135 
L 408.431344 340.259551 
L 408.849646 341.803029 
L 409.128395 341.804363 
L 409.407049 341.262607 
L 409.685609 341.263878 
L 409.824853 341.769165 
L 410.242444 341.770993 
L 410.381594 340.921339 
L 411.493943 341.035498 
L 411.910685 341.333247 
L 412.049551 341.712241 
L 412.604783 341.812887 
L 412.743532 341.550043 
L 413.02096 341.550936 
L 413.159638 341.359379 
L 413.298293 341.612137 
L 413.436925 341.629012 
L 413.575533 342.243796 
L 413.852678 342.28848 
L 413.991216 342.634455 
L 414.26822 342.635215 
L 414.406688 342.449079 
L 414.683552 342.449798 
L 414.960322 343.459818 
L 415.236998 343.460487 
L 415.790071 342.606019 
L 416.066466 342.73278 
L 416.342769 342.80466 
L 416.480885 342.804935 
L 416.618977 342.552873 
L 417.033115 342.570096 
L 417.171115 342.899467 
L 417.447043 342.905418 
L 417.584973 343.141517 
L 417.722879 343.723194 
L 418.27427 343.822746 
L 418.549826 344.075451 
L 418.825288 344.799886 
L 419.100658 344.800221 
L 419.238308 343.91722 
L 419.513538 343.917522 
L 419.651119 345.086071 
L 419.788676 345.08621 
L 420.06372 345.492401 
L 420.201207 345.492528 
L 420.476113 345.624423 
L 420.61353 345.624539 
L 420.750925 345.399748 
L 421.574806 345.427771 
L 421.712039 345.636304 
L 421.986434 345.641951 
L 422.123598 345.976642 
L 422.397854 345.976785 
L 422.534948 346.382776 
L 422.809066 346.382902 
L 422.946091 345.708248 
L 423.220071 345.708354 
L 423.357026 346.235007 
L 424.041456 346.295542 
L 424.178273 347.101937 
L 424.315067 347.101965 
L 424.588586 347.387261 
L 424.998691 347.337954 
L 425.135347 347.091124 
L 425.545177 347.074706 
L 425.681741 346.762042 
L 425.818281 347.074719 
L 425.954799 347.074723 
L 426.364216 348.446089 
L 426.909783 348.446079 
L 427.046117 348.649036 
L 427.454983 350.11364 
L 427.727446 350.11363 
L 428.408203 349.203031 
L 428.680346 349.1372 
L 428.816383 349.175597 
L 428.952397 349.570549 
L 429.088388 349.175593 
L 429.224357 349.570545 
L 429.632126 348.659952 
L 429.903858 348.659948 
L 430.03969 348.923247 
L 430.311285 350.223297 
L 430.582789 350.744414 
L 430.582789 350.744414 
" clip-path="url(#p619b0bb119)" style="fill: none; stroke: #9e3f41; stroke-linecap: round"/>
   </g>
   <g id="line2d_16">
    <path d="M 95.178515 265.029449 
L 97.154522 265.034159 
L 97.746545 265.107961 
L 102.666143 264.969984 
L 104.23518 264.927639 
L 105.80169 264.79453 
L 106.583999 264.438626 
L 106.974917 264.159094 
L 108.732106 263.606393 
L 108.927152 263.578037 
L 109.317129 263.242573 
L 109.901799 263.210676 
L 111.264661 262.432978 
L 111.653698 262.395864 
L 112.042579 262.219869 
L 113.208287 262.034564 
L 113.790614 262.072561 
L 114.372592 262.039432 
L 115.148018 262.014145 
L 116.116427 261.951412 
L 116.503519 262.082095 
L 117.277239 261.986271 
L 118.822821 261.880047 
L 119.20883 262.001551 
L 122.098986 261.958243 
L 122.483686 261.835197 
L 123.828929 261.816187 
L 124.212939 261.695626 
L 125.555769 261.606118 
L 127.279514 261.046331 
L 127.85341 260.952856 
L 129.191168 260.363125 
L 129.763923 260.20488 
L 130.145569 259.997695 
L 130.717755 259.633804 
L 131.2896 259.103732 
L 131.67064 258.952114 
L 133.763659 257.280904 
L 134.33369 256.360911 
L 134.903381 255.376075 
L 135.282987 255.102071 
L 136.231344 253.662323 
L 137.178762 251.775539 
L 137.557466 250.941437 
L 137.746762 250.587729 
L 138.125242 249.618581 
L 139.637662 245.860977 
L 140.204203 243.904194 
L 141.14769 241.554251 
L 142.278646 238.054952 
L 142.843621 236.683699 
L 143.408261 234.870704 
L 143.972567 233.458241 
L 144.536539 231.995581 
L 144.912335 231.433422 
L 146.038834 228.484221 
L 146.789093 227.244889 
L 147.164 227.04678 
L 147.53876 226.847697 
L 148.100624 226.436251 
L 148.662155 226.314778 
L 149.410347 225.631512 
L 150.157951 225.470685 
L 150.34476 225.210075 
L 150.718268 225.148912 
L 152.02439 224.023496 
L 152.210832 223.9203 
L 152.769938 222.810481 
L 153.887163 220.064992 
L 154.445282 218.614029 
L 155.003072 218.529594 
L 155.188929 218.529716 
L 155.37475 218.69115 
L 155.560534 219.28925 
L 155.746282 219.356139 
L 155.931994 219.659879 
L 156.117668 219.678033 
L 156.488909 220.126151 
L 156.860004 220.126394 
L 157.416374 219.292415 
L 157.601758 218.738907 
L 158.342931 213.418018 
L 159.26858 206.501178 
L 159.453601 205.63138 
L 159.823535 205.631623 
L 160.193324 206.880457 
L 161.486446 214.336302 
L 162.0401 216.166666 
L 162.409022 216.695196 
L 162.593428 216.798636 
L 162.962134 217.29354 
L 163.330696 217.406848 
L 163.883268 217.436941 
L 164.25147 217.523932 
L 164.619528 217.463257 
L 164.803503 217.40782 
L 164.987442 217.191558 
L 165.539044 217.034996 
L 165.9066 216.942155 
L 166.457664 216.851385 
L 166.64128 216.851507 
L 167.191915 216.431289 
L 168.108924 216.081491 
L 168.475477 215.964283 
L 168.841888 215.789568 
L 169.391236 215.225093 
L 169.75729 214.891014 
L 170.48897 213.878787 
L 170.854597 213.677755 
L 172.315681 209.405641 
L 172.680597 207.423345 
L 173.227706 203.755425 
L 173.774495 196.967003 
L 174.138844 191.087368 
L 175.412952 164.221097 
L 175.776665 164.22134 
L 175.958468 165.597251 
L 176.321969 172.025641 
L 177.411627 197.596166 
L 177.774565 202.20869 
L 178.137361 204.452693 
L 178.318707 204.963558 
L 178.681293 205.022283 
L 178.862533 205.022404 
L 179.406044 204.608034 
L 180.130233 204.522746 
L 180.673006 205.017771 
L 180.853861 205.041773 
L 181.396215 206.045104 
L 181.576929 206.148056 
L 181.938254 206.555724 
L 182.299438 206.638329 
L 182.479978 206.886999 
L 182.840953 207.604134 
L 183.562485 207.847321 
L 183.923042 208.765731 
L 184.463615 208.763172 
L 184.643737 208.498175 
L 185.003876 208.357574 
L 185.183893 208.215389 
L 185.543823 208.176157 
L 185.903615 208.057487 
L 186.622781 207.271877 
L 186.982156 206.983609 
L 187.161791 206.372106 
L 187.879987 205.839431 
L 188.238877 205.184676 
L 189.135497 203.234909 
L 189.493903 202.71125 
L 190.031253 202.675064 
L 190.389315 203.033509 
L 191.105023 204.649073 
L 191.820181 204.674414 
L 192.177553 204.932466 
L 193.070383 204.827318 
L 194.497127 204.573894 
L 195.031591 204.296469 
L 195.387729 204.099335 
L 195.74373 204.022577 
L 196.633135 203.298982 
L 196.988658 202.878642 
L 197.521687 202.222059 
L 198.586826 202.113135 
L 199.473505 201.866656 
L 199.650739 201.637235 
L 199.827939 201.610065 
L 200.005105 201.161338 
L 201.06739 200.963715 
L 201.598074 200.766216 
L 201.951695 200.766459 
L 202.30518 200.451874 
L 203.89419 200.411543 
L 204.070578 200.160679 
L 204.246933 200.123275 
L 204.775793 199.477413 
L 205.128198 199.280279 
L 205.304351 199.126886 
L 205.656554 198.235765 
L 206.536474 196.477039 
L 206.888207 196.203879 
L 207.239806 196.041347 
L 208.293797 196.081552 
L 208.64486 196.081795 
L 208.820341 195.686188 
L 209.171203 194.724402 
L 209.521931 194.609143 
L 209.697245 194.257885 
L 210.222986 192.506226 
L 210.398166 192.066758 
L 210.923507 189.517307 
L 211.623495 182.026248 
L 212.148136 172.137305 
L 213.021872 152.956789 
L 213.371134 149.490999 
L 213.720263 149.491242 
L 214.069259 153.601308 
L 215.638102 182.507134 
L 216.160454 186.955055 
L 216.682508 189.9458 
L 217.378118 191.565263 
L 217.551938 191.646772 
L 217.899479 192.17579 
L 218.0732 192.571152 
L 218.594165 192.691405 
L 218.941311 192.644862 
L 219.114834 192.432987 
L 219.461783 192.43323 
L 219.635208 192.7628 
L 219.8086 192.762921 
L 220.155285 192.895724 
L 221.021424 192.987466 
L 221.367649 193.056425 
L 221.540713 193.243202 
L 227.577369 193.397072 
L 228.092942 193.356987 
L 228.608223 193.341269 
L 229.637911 192.890224 
L 230.495095 192.618403 
L 230.837743 193.080167 
L 231.522651 192.997804 
L 231.864911 192.87231 
L 232.035993 192.615598 
L 233.061809 192.571979 
L 233.40349 192.452821 
L 234.086467 192.410908 
L 235.10997 191.95499 
L 235.791664 191.985692 
L 236.132319 191.910883 
L 236.472846 191.568032 
L 236.813246 191.490786 
L 236.983397 191.235536 
L 237.493661 191.291459 
L 237.833677 191.435957 
L 238.343462 191.385638 
L 238.513326 191.270744 
L 238.683159 190.890246 
L 239.531845 190.808004 
L 239.871096 190.621104 
L 241.734709 190.607333 
L 242.073135 190.407763 
L 242.580537 190.289701 
L 243.425574 190.099755 
L 244.269821 190.122294 
L 244.775991 189.985713 
L 244.944651 189.783097 
L 245.281876 189.706826 
L 245.787478 189.499579 
L 246.124389 189.486664 
L 246.461174 189.076071 
L 246.966115 188.975554 
L 247.302586 188.843238 
L 247.807056 188.86066 
L 247.97515 189.085937 
L 248.311244 189.08618 
L 249.15093 188.259267 
L 250.492801 188.311412 
L 250.660394 187.690649 
L 251.832673 187.603289 
L 253.003424 187.334636 
L 253.17055 187.003846 
L 253.671741 187.090472 
L 254.005713 187.272009 
L 254.172652 187.510445 
L 254.506437 187.510688 
L 254.673284 187.18331 
L 255.006883 187.183553 
L 255.340358 187.473282 
L 255.67371 187.473526 
L 255.840339 187.322081 
L 258.003706 187.323661 
L 258.336068 187.438919 
L 258.668308 187.364597 
L 259.000424 186.766862 
L 259.996033 186.560955 
L 260.16186 186.342256 
L 260.659157 186.4513 
L 260.990535 186.623577 
L 261.487372 186.5562 
L 261.983933 186.505393 
L 263.306748 186.806086 
L 263.802299 186.723601 
L 264.462606 186.770385 
L 265.287303 185.643752 
L 266.934413 185.740488 
L 267.098957 185.790319 
L 267.26347 186.057996 
L 267.756828 186.142672 
L 268.085582 186.588353 
L 268.414214 186.652927 
L 269.071115 186.719205 
L 269.235265 186.789992 
L 269.399384 187.251634 
L 270.055558 187.255532 
L 270.383464 187.781626 
L 270.875097 188.291271 
L 271.69388 188.44247 
L 271.857546 188.634607 
L 272.51191 188.717943 
L 272.838911 188.970633 
L 273.329188 188.95784 
L 273.655888 188.711971 
L 273.819193 188.709656 
L 274.145714 188.49449 
L 274.472114 188.367535 
L 275.124555 187.743238 
L 275.28759 187.480191 
L 275.61357 187.371755 
L 276.753559 186.343322 
L 277.404324 186.077715 
L 277.56694 186.081735 
L 277.729527 186.266563 
L 278.054611 186.266806 
L 278.379575 185.923467 
L 279.029147 185.885452 
L 279.353754 185.469498 
L 279.516013 185.369226 
L 281.136967 181.505268 
L 281.298899 181.251967 
L 281.622675 181.25221 
L 282.431595 182.459497 
L 282.916591 184.232841 
L 283.239774 185.128346 
L 283.562839 186.288482 
L 283.885786 186.74586 
L 284.208615 187.397203 
L 284.692637 188.85182 
L 284.853918 188.92212 
L 285.176393 189.173835 
L 285.659884 189.501699 
L 285.982065 189.558962 
L 286.143111 189.803246 
L 286.626072 189.929347 
L 287.108769 190.256236 
L 287.591202 190.2605 
L 287.751954 190.598355 
L 288.234035 190.641119 
L 288.39467 190.438503 
L 288.715852 190.438746 
L 289.036917 190.661221 
L 290.480261 190.841659 
L 290.96085 190.89417 
L 291.761248 190.633071 
L 292.081203 190.625516 
L 292.720764 190.092354 
L 293.04037 189.396661 
L 293.35986 189.360841 
L 293.519561 188.988627 
L 293.679233 188.915646 
L 293.998491 188.154161 
L 294.317632 187.969211 
L 294.636657 187.463097 
L 295.27436 185.781738 
L 296.707498 181.962982 
L 297.025655 181.72881 
L 297.502674 181.766213 
L 297.661623 181.849184 
L 297.979434 182.553648 
L 298.455934 184.162755 
L 298.773456 185.088963 
L 299.249525 187.269245 
L 300.200885 189.275419 
L 300.359344 189.296984 
L 300.517775 189.479862 
L 300.676177 189.94053 
L 301.309498 190.297756 
L 301.625987 190.444691 
L 302.574766 190.573594 
L 303.048769 190.84395 
L 303.364628 191.393924 
L 303.680373 191.474093 
L 304.469236 191.565835 
L 305.572448 192.541873 
L 306.044826 192.578302 
L 306.674265 192.397493 
L 306.831554 192.443426 
L 307.146046 192.84622 
L 307.617572 192.853895 
L 307.774691 193.119622 
L 308.088843 193.228544 
L 308.402882 193.309688 
L 308.716807 193.251936 
L 309.344319 193.252422 
L 310.441377 192.605585 
L 311.224142 192.622275 
L 311.693464 191.765878 
L 312.162532 191.765268 
L 312.631347 191.969832 
L 315.43893 191.936443 
L 315.750324 192.292452 
L 316.683834 192.353613 
L 316.99478 192.041464 
L 317.305615 191.859926 
L 317.616339 191.353325 
L 317.926951 191.223933 
L 318.39266 190.258857 
L 318.547841 190.254592 
L 319.168285 189.518205 
L 319.323327 189.518327 
L 319.788285 190.012377 
L 319.943216 190.057335 
L 320.562661 191.890257 
L 320.717453 191.929366 
L 320.872217 192.352508 
L 321.026954 192.395516 
L 321.336343 192.819266 
L 321.645623 193.893629 
L 322.263849 194.873689 
L 322.572796 195.012339 
L 323.03601 195.662829 
L 323.344681 195.748358 
L 323.653241 195.802697 
L 324.424161 196.065987 
L 324.886382 196.743768 
L 325.348355 196.879128 
L 325.963935 196.778733 
L 326.117761 196.700391 
L 327.040142 197.075405 
L 327.500962 197.022649 
L 327.961536 196.673096 
L 328.268449 196.544679 
L 329.188529 195.835826 
L 329.495004 195.913558 
L 329.80137 196.032227 
L 330.107627 195.978862 
L 330.260714 195.854709 
L 330.566807 195.337386 
L 331.025743 195.142811 
L 331.484433 193.897021 
L 331.637275 193.895193 
L 332.095639 192.782938 
L 332.248373 192.719704 
L 333.469265 189.215654 
L 334.231441 187.55586 
L 334.536122 187.483001 
L 334.840694 187.502251 
L 335.145159 187.992281 
L 335.449515 188.998414 
L 335.601653 189.011207 
L 335.753764 189.251105 
L 337.576988 195.80206 
L 337.880481 196.422213 
L 338.183867 196.781146 
L 338.487145 197.332582 
L 338.790316 197.798731 
L 339.09338 198.24295 
L 339.396336 198.396709 
L 340.001926 198.798771 
L 340.607088 199.045856 
L 340.909508 199.509569 
L 342.721783 200.358042 
L 342.872633 200.358164 
L 343.174251 200.747312 
L 343.777169 200.818951 
L 344.078468 200.971735 
L 344.530218 201.140723 
L 345.132178 201.14462 
L 345.583369 201.707387 
L 347.385747 201.667908 
L 347.535773 201.834216 
L 347.835746 201.866137 
L 348.285507 202.025377 
L 348.435375 202.025499 
L 348.735031 201.811795 
L 349.184316 201.760988 
L 349.483708 201.899639 
L 349.932599 201.900003 
L 350.082176 202.212516 
L 350.53075 202.245046 
L 350.829669 202.433894 
L 350.979088 202.681589 
L 351.427189 202.773088 
L 351.576504 202.809761 
L 352.024289 203.222424 
L 352.322682 203.160286 
L 352.471839 203.374354 
L 352.770075 203.458909 
L 352.919153 203.560399 
L 353.068205 203.813943 
L 354.259681 203.917258 
L 355.300849 204.277286 
L 355.746673 204.237201 
L 356.043758 204.106834 
L 356.192262 204.106955 
L 356.489191 204.237321 
L 356.786016 204.353066 
L 357.527624 204.572981 
L 358.712845 204.646569 
L 359.008891 204.810561 
L 361.373531 205.287672 
L 361.963657 205.395375 
L 362.111125 205.774168 
L 362.700736 205.876998 
L 362.995387 206.189632 
L 363.43717 206.124204 
L 363.731564 206.029901 
L 364.025855 206.103734 
L 365.055065 206.220574 
L 365.348894 206.333883 
L 365.789445 206.233853 
L 366.229767 206.234218 
L 366.523186 206.341678 
L 367.549349 206.429764 
L 367.842308 206.117616 
L 368.135166 206.117859 
L 368.281556 206.462537 
L 369.305577 206.573042 
L 369.451763 206.179384 
L 370.036256 206.213985 
L 370.620342 206.549281 
L 371.641516 206.520403 
L 371.933052 206.375416 
L 373.680141 206.321804 
L 373.970969 206.244558 
L 374.116345 206.24468 
L 375.423595 208.259016 
L 376.728806 209.375167 
L 377.018577 209.436816 
L 377.453045 210.077072 
L 378.031984 210.186724 
L 378.321303 210.595854 
L 379.044163 210.682235 
L 379.47758 211.215761 
L 379.910771 211.237082 
L 380.343737 211.453342 
L 381.929361 211.711513 
L 382.361281 212.195816 
L 383.080651 212.10334 
L 383.368226 212.467146 
L 383.655701 212.530744 
L 384.230353 212.367968 
L 384.51753 212.579721 
L 384.661082 212.591052 
L 384.948111 212.745785 
L 386.525003 212.984949 
L 386.811389 213.117751 
L 386.954546 213.117872 
L 387.240784 213.000177 
L 387.526925 213.060364 
L 387.669958 213.117505 
L 387.95595 213.456457 
L 388.52764 213.56416 
L 389.098936 213.602172 
L 390.240351 214.367309 
L 391.095382 214.44504 
L 391.380197 214.630963 
L 391.664913 214.779361 
L 392.091805 215.168143 
L 392.518478 215.279624 
L 392.802804 215.279867 
L 393.22911 215.387448 
L 393.797177 215.693503 
L 394.222971 215.655854 
L 394.364854 215.66621 
L 394.506713 215.897823 
L 395.073904 216.032818 
L 395.782346 216.251758 
L 396.20712 216.211185 
L 396.490182 216.127604 
L 397.197412 216.109205 
L 397.338786 216.131258 
L 397.762761 216.629694 
L 398.327722 216.635541 
L 398.610058 216.546112 
L 399.456487 216.463991 
L 399.738437 216.764442 
L 400.161181 216.698527 
L 400.302048 216.510531 
L 400.583709 216.510775 
L 400.865274 216.811225 
L 401.146743 216.885058 
L 401.428116 216.990082 
L 402.412164 217.05575 
L 402.552647 217.251299 
L 403.114337 217.326837 
L 403.395038 217.508374 
L 403.675644 217.529086 
L 403.956154 217.665787 
L 404.516887 217.875346 
L 404.657011 217.982685 
L 404.937186 218.285572 
L 405.077238 218.303726 
L 405.357271 218.52815 
L 405.637208 218.542039 
L 405.917049 218.745507 
L 406.476447 218.933135 
L 406.616237 218.949827 
L 406.895746 219.183511 
L 407.175159 219.346041 
L 407.31483 219.353473 
L 407.594101 219.595929 
L 408.152358 219.679265 
L 408.989032 220.057203 
L 409.407049 220.153575 
L 409.685609 220.239105 
L 409.964074 220.469864 
L 410.242444 220.621673 
L 411.215997 220.813078 
L 411.354982 221.085628 
L 412.049551 221.189554 
L 412.188395 221.213068 
L 412.46601 221.373162 
L 412.882258 221.285316 
L 413.436925 221.251201 
L 413.575533 221.280563 
L 413.714117 221.479036 
L 413.991216 221.998795 
L 414.821948 221.986853 
L 415.098672 222.12794 
L 415.92828 222.175455 
L 416.618977 222.436795 
L 417.033115 222.545838 
L 417.171115 222.548884 
L 417.447043 222.733833 
L 418.825288 223.134675 
L 418.962985 223.483739 
L 419.100658 223.483861 
L 419.375935 223.667348 
L 419.788676 223.749587 
L 420.201207 223.749952 
L 420.61353 224.205988 
L 421.712039 225.000854 
L 421.986434 225.16972 
L 423.083092 225.249643 
L 423.357026 225.495511 
L 424.178273 225.835923 
L 426.091294 226.771387 
L 426.364216 227.027489 
L 426.773425 227.10583 
L 427.046117 227.28493 
L 427.863643 227.179904 
L 427.999817 227.573805 
L 428.135969 227.589522 
L 428.544286 227.931519 
L 429.088388 228.007057 
L 429.632126 228.128406 
L 430.03969 228.517675 
L 430.311285 228.647036 
L 430.582789 228.78456 
L 430.582789 228.78456 
" clip-path="url(#p619b0bb119)" style="fill: none; stroke: #c85152; stroke-linecap: round"/>
   </g>
   <g id="line2d_17">
    <path d="M 95.178515 149.463754 
L 105.214544 149.313657 
L 106.192923 148.998175 
L 112.042579 146.522052 
L 113.014099 146.389506 
L 114.760383 146.286004 
L 119.787554 146.138251 
L 120.943963 146.147586 
L 122.291355 146.053743 
L 125.555769 145.605392 
L 127.470851 145.055269 
L 128.426963 144.613735 
L 129.763923 143.986283 
L 133.193289 140.985901 
L 134.33369 139.485911 
L 135.662443 137.228928 
L 136.989353 134.279414 
L 139.070785 128.51079 
L 144.724456 109.990042 
L 146.226454 106.257013 
L 147.164 104.734184 
L 148.100624 104.02913 
L 148.475015 103.747698 
L 150.157951 102.517353 
L 151.278255 101.662373 
L 151.837911 101.181286 
L 152.02439 101.117559 
L 152.769938 100.060714 
L 154.631248 96.402095 
L 155.37475 96.47761 
L 156.303307 97.381951 
L 156.860004 97.3709 
L 157.416374 96.455877 
L 157.787106 95.110969 
L 158.342931 91.945593 
L 159.083523 86.756778 
L 159.453601 85.455706 
L 160.008448 85.483702 
L 160.378164 86.895652 
L 161.301823 91.223226 
L 162.0401 92.932448 
L 162.593428 93.508574 
L 163.146433 93.788164 
L 163.699113 93.737698 
L 166.274012 92.511773 
L 166.824861 92.411209 
L 167.742228 91.805614 
L 169.208156 90.95395 
L 170.671801 89.464274 
L 172.13317 86.474977 
L 172.863002 83.461737 
L 173.227706 81.256324 
L 173.774495 76.287793 
L 174.320965 68.41653 
L 175.231042 52.342107 
L 175.412952 50.699927 
L 175.776665 50.699927 
L 175.958468 51.693781 
L 176.321969 56.664523 
L 177.411627 76.107661 
L 177.774565 79.268617 
L 178.137361 80.907849 
L 178.500018 81.385621 
L 178.862533 81.385621 
L 179.768208 80.717772 
L 180.311192 80.780394 
L 182.660483 82.316116 
L 183.562485 83.179936 
L 183.923042 83.265765 
L 184.463615 83.184356 
L 186.083458 82.273017 
L 187.341392 81.07914 
L 187.879987 80.513328 
L 188.238877 80.049923 
L 189.135497 78.18304 
L 189.493903 77.690165 
L 189.852171 77.607651 
L 190.031253 77.607651 
L 190.389315 77.918553 
L 190.926148 78.656391 
L 191.283864 79.097326 
L 192.356188 79.143004 
L 192.891886 79.015917 
L 193.248846 78.962872 
L 193.78403 78.62287 
L 196.099595 77.717424 
L 197.166369 76.664632 
L 197.87687 76.387988 
L 198.409388 76.228117 
L 198.941599 76.029567 
L 199.296237 75.913532 
L 200.182238 75.338143 
L 201.244318 74.696816 
L 201.951695 74.618722 
L 202.481872 74.518895 
L 203.364824 74.29677 
L 203.89419 73.951978 
L 204.246933 73.652865 
L 204.775793 73.321703 
L 205.480469 72.575023 
L 206.184607 71.458135 
L 207.239806 70.490067 
L 207.766953 70.332774 
L 208.118216 70.217844 
L 208.995789 69.779856 
L 209.346584 69.421803 
L 209.872525 68.7278 
L 210.398166 67.418256 
L 210.748427 66.111659 
L 211.098554 64.174786 
L 211.448548 61.419034 
L 211.798408 57.343423 
L 212.32295 48.3829 
L 213.021872 36.774556 
L 213.371134 33.874036 
L 213.720263 33.874036 
L 214.069259 37.043464 
L 214.766854 47.977696 
L 215.463919 57.413413 
L 215.98637 61.705623 
L 216.508523 64.273877 
L 217.030379 65.628362 
L 217.378118 66.189016 
L 218.0732 66.63253 
L 220.501839 66.856497 
L 220.848261 66.997213 
L 222.059708 67.096672 
L 222.405541 67.13093 
L 223.096814 67.160031 
L 225.339843 67.093356 
L 227.233492 67.009 
L 228.264735 66.95043 
L 228.779919 66.809346 
L 229.637911 66.716517 
L 230.666435 66.334889 
L 232.207043 66.234693 
L 233.745043 65.874799 
L 234.086467 65.7956 
L 235.10997 65.425023 
L 235.791664 65.323722 
L 236.132319 65.105649 
L 236.983397 64.872104 
L 237.663685 64.712602 
L 240.379735 64.179943 
L 240.718669 64.032965 
L 241.226832 64.025597 
L 241.565448 63.891144 
L 242.411435 63.827416 
L 243.087654 63.808998 
L 243.425574 63.514673 
L 244.101035 63.468627 
L 244.607299 63.295126 
L 244.944651 63.241344 
L 246.966115 62.525608 
L 247.470774 62.337741 
L 247.97515 62.21618 
L 249.15093 61.845603 
L 249.822116 61.733987 
L 249.989834 61.733987 
L 250.660394 61.385512 
L 251.330455 61.272424 
L 251.832673 61.168913 
L 252.33461 60.905899 
L 253.838742 60.683037 
L 254.33956 60.818227 
L 255.006883 60.812702 
L 256.006937 60.743081 
L 256.839465 60.882692 
L 257.338611 60.931684 
L 257.837478 60.732766 
L 259.000424 60.58763 
L 259.332416 60.372135 
L 259.996033 60.26494 
L 260.327656 60.140432 
L 261.818443 60.210054 
L 262.31482 60.374345 
L 263.967421 60.391659 
L 264.297575 60.242102 
L 264.627606 60.16806 
L 264.792576 60.099912 
L 265.122424 59.743701 
L 266.275934 59.724178 
L 267.098957 59.957723 
L 267.427953 60.197898 
L 268.906935 60.834804 
L 269.399384 61.26432 
L 269.727532 61.360095 
L 270.711249 61.901963 
L 271.202701 62.211022 
L 271.857546 62.348055 
L 272.675426 62.506821 
L 274.145714 62.413624 
L 274.961489 61.994791 
L 275.450595 61.684995 
L 275.776516 61.530649 
L 276.265172 61.020829 
L 277.404324 60.796862 
L 277.892084 60.930948 
L 278.704421 60.894479 
L 279.029147 60.73424 
L 279.840441 59.810376 
L 280.488942 58.587766 
L 280.975006 57.893763 
L 281.136967 57.536816 
L 281.784518 57.643642 
L 282.26987 58.364168 
L 282.59329 59.020966 
L 283.724328 61.741355 
L 284.369985 62.774255 
L 285.337586 63.906247 
L 285.820989 64.100008 
L 286.626072 64.335762 
L 286.947899 64.584042 
L 287.591202 64.708181 
L 287.912677 64.923676 
L 288.715852 64.977457 
L 289.036917 65.190005 
L 289.357864 65.314513 
L 290.640486 65.224263 
L 291.601226 65.097177 
L 292.081203 64.995876 
L 293.04037 64.327658 
L 293.35986 64.283823 
L 293.838877 63.767372 
L 294.636657 62.741102 
L 295.593038 60.815649 
L 295.911599 60.216684 
L 296.548376 58.943609 
L 297.025655 58.560507 
L 297.343697 58.560507 
L 297.661623 58.872882 
L 298.138296 59.689551 
L 299.725334 63.729799 
L 300.359344 64.624562 
L 300.676177 64.882419 
L 301.625987 65.281728 
L 302.100505 65.405131 
L 302.890796 65.87001 
L 303.364628 66.002991 
L 303.680373 66.225484 
L 305.572448 66.965165 
L 307.146046 67.537607 
L 307.617572 67.598756 
L 307.931781 67.679796 
L 308.559859 67.860665 
L 309.814656 67.759732 
L 310.128073 67.517715 
L 311.067646 67.440358 
L 311.380611 67.286749 
L 313.880283 67.20534 
L 314.348172 67.157821 
L 315.127425 67.233336 
L 315.43893 67.383629 
L 316.217205 67.69711 
L 316.99478 67.664325 
L 317.771659 67.068307 
L 319.013216 65.981625 
L 319.478341 66.050142 
L 320.407841 67.161873 
L 320.872217 68.072844 
L 321.181662 68.608818 
L 321.645623 69.333763 
L 321.800221 69.432117 
L 322.418336 70.389134 
L 322.727228 70.586579 
L 323.653241 71.301211 
L 324.115876 71.479132 
L 324.732336 71.846394 
L 325.6562 72.059678 
L 326.732791 72.221759 
L 327.347383 72.243125 
L 328.268449 72.211445 
L 328.728612 72.021368 
L 329.188529 71.882862 
L 329.80137 71.806242 
L 330.107627 71.720044 
L 330.413774 71.560541 
L 330.719813 71.41872 
L 331.025743 71.108187 
L 332.095639 69.750018 
L 332.859036 68.187406 
L 333.774217 66.303946 
L 334.231441 65.643833 
L 334.840694 65.715296 
L 335.297351 66.412983 
L 335.753764 67.340162 
L 336.513912 69.645402 
L 337.273386 71.779719 
L 338.032187 73.315072 
L 338.487145 73.873885 
L 339.850569 74.817641 
L 340.909508 75.573529 
L 341.211821 75.777604 
L 341.816126 75.923846 
L 342.570907 76.283004 
L 342.721783 76.316894 
L 343.174251 76.688944 
L 343.777169 76.888967 
L 344.680748 77.232653 
L 345.132178 77.328429 
L 345.432999 77.50635 
L 346.184586 77.589233 
L 348.585216 77.936602 
L 349.184316 77.958336 
L 349.334026 78.174199 
L 349.782995 78.2033 
L 350.231727 78.430214 
L 350.53075 78.565773 
L 351.277848 78.944822 
L 352.173499 79.363287 
L 352.62097 79.485217 
L 354.110838 80.106283 
L 354.557288 80.176273 
L 354.854791 80.349037 
L 355.598091 80.415343 
L 356.34074 80.707826 
L 357.527624 81.053723 
L 358.712845 81.334787 
L 359.008891 81.449717 
L 359.748552 81.641636 
L 360.044236 81.777932 
L 360.782991 81.92049 
L 361.225935 82.193081 
L 361.668646 82.260124 
L 362.258566 82.660907 
L 362.848074 82.895557 
L 363.878722 83.022643 
L 364.614129 83.277922 
L 365.055065 83.254714 
L 365.49577 83.457685 
L 366.669857 83.546461 
L 367.109718 83.714436 
L 371.05814 84.325188 
L 371.49571 84.495374 
L 372.807052 84.528159 
L 373.825568 84.590413 
L 374.697597 85.277048 
L 375.278446 85.929058 
L 376.148964 86.917017 
L 376.438935 87.109305 
L 376.583883 87.146878 
L 377.163425 87.643068 
L 379.622002 89.121693 
L 379.910771 89.187999 
L 381.497217 89.847376 
L 381.929361 89.889738 
L 382.361281 90.07429 
L 382.792978 90.237476 
L 383.368226 90.357932 
L 384.230353 90.750979 
L 384.948111 90.82981 
L 385.378469 91.015098 
L 385.665251 91.085457 
L 386.095238 91.228014 
L 387.812966 91.694735 
L 388.384754 91.875972 
L 390.382917 92.709954 
L 390.810469 92.945709 
L 391.380197 93.197304 
L 391.949532 93.448898 
L 392.94493 93.843051 
L 394.081064 94.152847 
L 394.364854 94.33482 
L 394.790357 94.519741 
L 395.073904 94.643143 
L 395.782346 94.704292 
L 396.773147 95.08371 
L 397.480135 95.210428 
L 400.161181 95.85728 
L 401.849995 96.222332 
L 402.412164 96.408726 
L 403.535353 96.785565 
L 403.815911 96.891286 
L 404.096373 96.955382 
L 404.516887 97.275493 
L 404.79711 97.328169 
L 405.357271 97.750318 
L 405.497251 97.788259 
L 405.77714 98.023277 
L 407.035464 98.574354 
L 407.31483 98.653185 
L 407.873277 99.039233 
L 408.431344 99.254359 
L 408.710235 99.27683 
L 409.128395 99.59473 
L 409.546341 99.679823 
L 412.46601 100.903906 
L 413.02096 101.03615 
L 413.436925 101.301006 
L 414.406688 101.695526 
L 414.821948 101.790565 
L 415.236998 101.983589 
L 415.790071 102.262075 
L 417.171115 102.747582 
L 417.447043 102.843726 
L 417.998621 103.080586 
L 418.27427 103.131789 
L 419.100658 103.645292 
L 420.06372 104.206315 
L 420.61353 104.439491 
L 423.083092 105.824919 
L 424.041456 106.290903 
L 424.451838 106.538813 
L 424.998691 106.716366 
L 425.27198 106.846031 
L 425.818281 107.003692 
L 426.364216 107.421789 
L 426.909783 107.582028 
L 427.454983 107.888878 
L 427.591226 107.915769 
L 427.999817 108.236248 
L 428.952397 108.628559 
L 429.088388 108.64403 
L 429.496226 108.928777 
L 430.03969 109.056969 
L 430.582789 109.363819 
L 430.582789 109.363819 
" clip-path="url(#p619b0bb119)" style="fill: none; stroke: #f28360; stroke-linecap: round"/>
   </g>
   <g id="patch_3">
    <path d="M 81.762344 394.59896 
L 81.762344 20 
" style="fill: none; stroke: #000000; stroke-width: 0.75; stroke-linejoin: miter; stroke-linecap: square"/>
   </g>
   <g id="patch_4">
    <path d="M 81.762344 394.59896 
L 443.99896 394.59896 
" style="fill: none; stroke: #000000; stroke-width: 0.75; stroke-linejoin: miter; stroke-linecap: square"/>
   </g>
  </g>
 </g>
 <defs>
  <clipPath id="p619b0bb119">
   <rect x="81.762344" y="20" width="362.236616" height="374.59896"/>
  </clipPath>
 </defs>
</svg>
