<?xml version="1.0" encoding="utf-8" standalone="no"?>
<!DOCTYPE svg PUBLIC "-//W3C//DTD SVG 1.1//EN"
  "http://www.w3.org/Graphics/SVG/1.1/DTD/svg11.dtd">
<svg xmlns:xlink="http://www.w3.org/1999/xlink" width="653.99976pt" height="373.99896pt" viewBox="0 0 653.99976 373.99896" xmlns="http://www.w3.org/2000/svg" version="1.1">
 <metadata>
  <rdf:RDF xmlns:dc="http://purl.org/dc/elements/1.1/" xmlns:cc="http://creativecommons.org/ns#" xmlns:rdf="http://www.w3.org/1999/02/22-rdf-syntax-ns#">
   <cc:Work>
    <dc:type rdf:resource="http://purl.org/dc/dcmitype/StillImage"/>
    <dc:date>2025-02-10T11:28:18.520075</dc:date>
    <dc:format>image/svg+xml</dc:format>
    <dc:creator>
     <cc:Agent>
      <dc:title>Matplotlib v3.8.4, https://matplotlib.org/</dc:title>
     </cc:Agent>
    </dc:creator>
   </cc:Work>
  </rdf:RDF>
 </metadata>
 <defs>
  <style type="text/css">*{stroke-linejoin: round; stroke-linecap: butt}</style>
 </defs>
 <g id="figure_1">
  <g id="patch_1">
   <path d="M 0 373.99896 
L 653.99976 373.99896 
L 653.99976 0 
L 0 0 
L 0 373.99896 
z
" style="fill: none"/>
  </g>
  <g id="axes_1">
   <g id="patch_2">
    <path d="M 72.39625 307.44896 
L 633.99976 307.44896 
L 633.99976 20 
L 72.39625 20 
L 72.39625 307.44896 
z
" style="fill: none"/>
   </g>
   <g id="matplotlib.axis_1">
    <g id="xtick_1">
     <g id="line2d_1">
      <defs>
       <path id="mae2ad89790" d="M 0 0 
L 0 5 
" style="stroke: #000000; stroke-width: 0.75"/>
      </defs>
      <g>
       <use xlink:href="#mae2ad89790" x="93.19638" y="307.44896" style="stroke: #000000; stroke-width: 0.75"/>
      </g>
     </g>
     <g id="text_1">
      <text style="font: 14.5px &quot;Suisse Int&apos;l Mono&quot;; text-anchor: middle" x="93.19638" y="327.96146" transform="rotate(-0 93.19638 327.96146)">0</text>
     </g>
    </g>
    <g id="xtick_2">
     <g id="line2d_2">
      <g>
       <use xlink:href="#mae2ad89790" x="156.704349" y="307.44896" style="stroke: #000000; stroke-width: 0.75"/>
      </g>
     </g>
     <g id="text_2">
      <text style="font: 14.5px &quot;Suisse Int&apos;l Mono&quot;; text-anchor: middle" x="156.704349" y="327.96146" transform="rotate(-0 156.704349 327.96146)">250</text>
     </g>
    </g>
    <g id="xtick_3">
     <g id="line2d_3">
      <g>
       <use xlink:href="#mae2ad89790" x="220.212318" y="307.44896" style="stroke: #000000; stroke-width: 0.75"/>
      </g>
     </g>
     <g id="text_3">
      <text style="font: 14.5px &quot;Suisse Int&apos;l Mono&quot;; text-anchor: middle" x="220.212318" y="327.96146" transform="rotate(-0 220.212318 327.96146)">500</text>
     </g>
    </g>
    <g id="xtick_4">
     <g id="line2d_4">
      <g>
       <use xlink:href="#mae2ad89790" x="283.720287" y="307.44896" style="stroke: #000000; stroke-width: 0.75"/>
      </g>
     </g>
     <g id="text_4">
      <text style="font: 14.5px &quot;Suisse Int&apos;l Mono&quot;; text-anchor: middle" x="283.720287" y="327.96146" transform="rotate(-0 283.720287 327.96146)">750</text>
     </g>
    </g>
    <g id="xtick_5">
     <g id="line2d_5">
      <g>
       <use xlink:href="#mae2ad89790" x="347.228256" y="307.44896" style="stroke: #000000; stroke-width: 0.75"/>
      </g>
     </g>
     <g id="text_5">
      <text style="font: 14.5px &quot;Suisse Int&apos;l Mono&quot;; text-anchor: middle" x="347.228256" y="327.96146" transform="rotate(-0 347.228256 327.96146)">1000</text>
     </g>
    </g>
    <g id="xtick_6">
     <g id="line2d_6">
      <g>
       <use xlink:href="#mae2ad89790" x="410.736225" y="307.44896" style="stroke: #000000; stroke-width: 0.75"/>
      </g>
     </g>
     <g id="text_6">
      <text style="font: 14.5px &quot;Suisse Int&apos;l Mono&quot;; text-anchor: middle" x="410.736225" y="327.96146" transform="rotate(-0 410.736225 327.96146)">1250</text>
     </g>
    </g>
    <g id="xtick_7">
     <g id="line2d_7">
      <g>
       <use xlink:href="#mae2ad89790" x="474.244194" y="307.44896" style="stroke: #000000; stroke-width: 0.75"/>
      </g>
     </g>
     <g id="text_7">
      <text style="font: 14.5px &quot;Suisse Int&apos;l Mono&quot;; text-anchor: middle" x="474.244194" y="327.96146" transform="rotate(-0 474.244194 327.96146)">1500</text>
     </g>
    </g>
    <g id="xtick_8">
     <g id="line2d_8">
      <g>
       <use xlink:href="#mae2ad89790" x="537.752163" y="307.44896" style="stroke: #000000; stroke-width: 0.75"/>
      </g>
     </g>
     <g id="text_8">
      <text style="font: 14.5px &quot;Suisse Int&apos;l Mono&quot;; text-anchor: middle" x="537.752163" y="327.96146" transform="rotate(-0 537.752163 327.96146)">1750</text>
     </g>
    </g>
    <g id="xtick_9">
     <g id="line2d_9">
      <g>
       <use xlink:href="#mae2ad89790" x="601.260132" y="307.44896" style="stroke: #000000; stroke-width: 0.75"/>
      </g>
     </g>
     <g id="text_9">
      <text style="font: 14.5px &quot;Suisse Int&apos;l Mono&quot;; text-anchor: middle" x="601.260132" y="327.96146" transform="rotate(-0 601.260132 327.96146)">2000</text>
     </g>
    </g>
    <g id="text_10">
     <text style="font: 500 15px &quot;Suisse Int&apos;l&quot;, sans-serif; text-anchor: middle" x="353.198005" y="351.37396" transform="rotate(-0 353.198005 351.37396)">Pixels #</text>
    </g>
   </g>
   <g id="matplotlib.axis_2">
    <g id="ytick_1">
     <g id="line2d_10">
      <defs>
       <path id="mbd056ef4d0" d="M 0 0 
L -5 0 
" style="stroke: #000000; stroke-width: 0.75"/>
      </defs>
      <g>
       <use xlink:href="#mbd056ef4d0" x="72.39625" y="301.796169" style="stroke: #000000; stroke-width: 0.75"/>
      </g>
     </g>
     <g id="text_11">
      <text style="font: 14.5px &quot;Suisse Int&apos;l Mono&quot;; text-anchor: end" x="62.39625" y="307.052419" transform="rotate(-0 62.39625 307.052419)">0</text>
     </g>
    </g>
    <g id="ytick_2">
     <g id="line2d_11">
      <g>
       <use xlink:href="#mbd056ef4d0" x="72.39625" y="269.823658" style="stroke: #000000; stroke-width: 0.75"/>
      </g>
     </g>
     <g id="text_12">
      <text style="font: 14.5px &quot;Suisse Int&apos;l Mono&quot;; text-anchor: end" x="62.39625" y="275.079908" transform="rotate(-0 62.39625 275.079908)">5</text>
     </g>
    </g>
    <g id="ytick_3">
     <g id="line2d_12">
      <g>
       <use xlink:href="#mbd056ef4d0" x="72.39625" y="237.851147" style="stroke: #000000; stroke-width: 0.75"/>
      </g>
     </g>
     <g id="text_13">
      <text style="font: 14.5px &quot;Suisse Int&apos;l Mono&quot;; text-anchor: end" x="62.39625" y="243.107397" transform="rotate(-0 62.39625 243.107397)">10</text>
     </g>
    </g>
    <g id="ytick_4">
     <g id="line2d_13">
      <g>
       <use xlink:href="#mbd056ef4d0" x="72.39625" y="205.878637" style="stroke: #000000; stroke-width: 0.75"/>
      </g>
     </g>
     <g id="text_14">
      <text style="font: 14.5px &quot;Suisse Int&apos;l Mono&quot;; text-anchor: end" x="62.39625" y="211.134887" transform="rotate(-0 62.39625 211.134887)">15</text>
     </g>
    </g>
    <g id="ytick_5">
     <g id="line2d_14">
      <g>
       <use xlink:href="#mbd056ef4d0" x="72.39625" y="173.906126" style="stroke: #000000; stroke-width: 0.75"/>
      </g>
     </g>
     <g id="text_15">
      <text style="font: 14.5px &quot;Suisse Int&apos;l Mono&quot;; text-anchor: end" x="62.39625" y="179.162376" transform="rotate(-0 62.39625 179.162376)">20</text>
     </g>
    </g>
    <g id="ytick_6">
     <g id="line2d_15">
      <g>
       <use xlink:href="#mbd056ef4d0" x="72.39625" y="141.933615" style="stroke: #000000; stroke-width: 0.75"/>
      </g>
     </g>
     <g id="text_16">
      <text style="font: 14.5px &quot;Suisse Int&apos;l Mono&quot;; text-anchor: end" x="62.39625" y="147.189865" transform="rotate(-0 62.39625 147.189865)">25</text>
     </g>
    </g>
    <g id="ytick_7">
     <g id="line2d_16">
      <g>
       <use xlink:href="#mbd056ef4d0" x="72.39625" y="109.961105" style="stroke: #000000; stroke-width: 0.75"/>
      </g>
     </g>
     <g id="text_17">
      <text style="font: 14.5px &quot;Suisse Int&apos;l Mono&quot;; text-anchor: end" x="62.39625" y="115.217355" transform="rotate(-0 62.39625 115.217355)">30</text>
     </g>
    </g>
    <g id="ytick_8">
     <g id="line2d_17">
      <g>
       <use xlink:href="#mbd056ef4d0" x="72.39625" y="77.988594" style="stroke: #000000; stroke-width: 0.75"/>
      </g>
     </g>
     <g id="text_18">
      <text style="font: 14.5px &quot;Suisse Int&apos;l Mono&quot;; text-anchor: end" x="62.39625" y="83.244844" transform="rotate(-0 62.39625 83.244844)">35</text>
     </g>
    </g>
    <g id="ytick_9">
     <g id="line2d_18">
      <g>
       <use xlink:href="#mbd056ef4d0" x="72.39625" y="46.016083" style="stroke: #000000; stroke-width: 0.75"/>
      </g>
     </g>
     <g id="text_19">
      <text style="font: 14.5px &quot;Suisse Int&apos;l Mono&quot;; text-anchor: end" x="62.39625" y="51.272333" transform="rotate(-0 62.39625 51.272333)">40</text>
     </g>
    </g>
    <g id="text_20">
     <text style="font: 500 15px &quot;Suisse Int&apos;l&quot;, sans-serif; text-anchor: middle" x="30.875" y="163.72448" transform="rotate(-90 30.875 163.72448)">Intensity (au)</text>
    </g>
   </g>
   <g id="line2d_19">
    <path d="M 93.19638 296.751489 
L 99.547177 296.759776 
L 102.849591 296.74198 
L 103.103623 296.551827 
L 103.357655 296.751079 
L 105.643942 296.745861 
L 109.962484 296.765595 
L 111.740707 296.753695 
L 113.264898 296.767078 
L 115.805217 296.751744 
L 126.728588 296.741014 
L 127.490683 296.764233 
L 136.381799 296.758676 
L 138.414054 296.788903 
L 140.192277 296.716357 
L 141.208405 296.76798 
L 156.196285 296.76993 
L 156.450317 296.662848 
L 156.704349 296.774784 
L 157.974508 296.774439 
L 163.309178 296.766023 
L 166.35756 296.784881 
L 166.611592 296.580557 
L 166.865624 296.776792 
L 169.151911 296.704169 
L 169.405943 296.761426 
L 169.659975 296.544038 
L 169.914007 296.754468 
L 171.438198 296.765358 
L 171.946262 296.786256 
L 172.200293 296.548853 
L 172.454325 296.776849 
L 173.978517 296.765563 
L 179.567218 296.774554 
L 180.583345 296.774419 
L 190.998652 296.772188 
L 191.252684 296.667593 
L 191.760748 296.774841 
L 193.538971 296.782125 
L 196.333322 296.773236 
L 253.744526 296.771017 
L 255.776781 296.782208 
L 257.300972 296.769016 
L 259.079195 296.774336 
L 263.651769 296.768504 
L 263.905801 296.271479 
L 264.159832 296.777278 
L 274.829171 296.767558 
L 275.083203 296.633024 
L 275.337235 296.783563 
L 276.099331 296.762628 
L 277.36949 296.776721 
L 278.893681 296.775916 
L 283.466255 296.773025 
L 284.736414 296.763152 
L 284.990446 296.68654 
L 285.49851 296.770001 
L 291.849307 296.757864 
L 292.103339 296.413686 
L 292.357371 296.776076 
L 295.151721 296.754481 
L 295.405753 296.144676 
L 295.659785 296.790815 
L 295.913817 296.697097 
L 296.421881 296.76658 
L 298.962199 296.786671 
L 299.216231 296.613188 
L 299.724295 296.778934 
L 308.361379 296.719791 
L 308.615411 296.647719 
L 308.869443 296.788327 
L 311.663793 296.768421 
L 312.171857 296.760467 
L 312.425889 296.647847 
L 312.679921 296.781594 
L 314.204112 296.760831 
L 314.966208 296.741763 
L 315.22024 296.638415 
L 315.474271 296.781127 
L 317.252495 296.772539 
L 323.34926 296.74904 
L 323.603291 296.388147 
L 323.857323 296.779509 
L 326.397642 296.765614 
L 327.921833 296.778621 
L 330.20812 296.76108 
L 330.462152 296.405489 
L 330.716184 296.769112 
L 331.47828 296.780027 
L 332.240375 296.763804 
L 333.510535 296.779202 
L 336.812949 296.773511 
L 339.6073 296.776741 
L 339.861332 296.59685 
L 340.115363 296.762199 
L 346.720192 296.772079 
L 347.228256 296.771312 
L 358.405658 296.699859 
L 358.913722 296.77855 
L 360.945977 296.778019 
L 367.550806 296.765486 
L 368.566933 296.707674 
L 368.820965 296.636918 
L 369.074997 296.777495 
L 370.091125 296.690472 
L 370.599189 296.770065 
L 380.2524 296.783838 
L 382.030623 296.745158 
L 394.224153 296.785258 
L 394.478185 296.680209 
L 394.986249 296.77032 
L 397.272535 296.772917 
L 398.288663 296.775123 
L 402.607205 296.779452 
L 403.3693 296.750331 
L 403.623332 296.515928 
L 403.877364 296.780206 
L 406.925747 296.773703 
L 409.212034 296.784599 
L 409.974129 296.748413 
L 411.244289 296.77793 
L 418.611213 296.778269 
L 419.881372 296.76704 
L 420.135404 296.668104 
L 420.643468 296.780999 
L 423.945882 296.75115 
L 424.707978 296.772475 
L 428.010392 296.747102 
L 429.02652 296.771235 
L 429.280552 296.68982 
L 429.788616 296.779912 
L 431.312807 296.771957 
L 433.345062 296.766126 
L 433.599094 296.665943 
L 434.107157 296.779126 
L 436.139412 296.726825 
L 437.15554 296.771836 
L 443.760369 296.752358 
L 445.538592 296.742319 
L 446.554719 296.777335 
L 446.808751 296.696528 
L 447.316815 296.776753 
L 448.586974 296.765218 
L 449.857134 296.793449 
L 451.381325 296.761157 
L 454.175676 296.785674 
L 454.429708 296.726972 
L 454.937771 296.771887 
L 460.526473 296.760486 
L 460.780504 296.677306 
L 461.288568 296.779132 
L 463.320823 296.775142 
L 464.082919 296.766516 
L 464.336951 296.687403 
L 464.845014 296.769975 
L 466.877269 296.773294 
L 467.131301 296.696374 
L 467.639365 296.773166 
L 472.465971 296.763638 
L 474.498226 296.789625 
L 476.276449 296.749519 
L 477.038545 296.777917 
L 481.357086 296.76101 
L 484.151437 296.763498 
L 484.659501 296.775679 
L 489.486106 296.780731 
L 490.502234 296.696585 
L 491.010298 296.779202 
L 493.804648 296.774528 
L 498.377222 296.777297 
L 498.885286 296.703594 
L 499.647381 296.779925 
L 503.965923 296.784062 
L 511.58688 296.768863 
L 513.111071 296.764207 
L 514.889294 296.779222 
L 515.397358 296.759917 
L 524.034442 296.771145 
L 525.050569 296.751342 
L 526.066697 296.789063 
L 527.336856 296.771024 
L 543.086832 296.766343 
L 544.611024 296.777578 
L 546.389247 296.722502 
L 547.151342 296.764195 
L 554.772299 296.729434 
L 555.280362 296.765307 
L 567.21986 296.77181 
L 569.252115 296.780002 
L 570.268243 296.751444 
L 571.792434 296.785904 
L 573.316625 296.761579 
L 575.094849 296.761733 
L 576.61904 296.766452 
L 578.143231 296.773358 
L 581.191614 296.665003 
L 581.445646 296.787087 
L 581.953709 296.764789 
L 582.207741 296.637628 
L 582.461773 296.782713 
L 587.796442 296.775283 
L 588.050474 296.670202 
L 588.558538 296.764591 
L 592.87708 296.766701 
L 593.385144 296.756534 
L 595.417399 296.765844 
L 602.784323 296.752071 
L 604.816578 296.766465 
L 607.356897 296.751904 
L 611.929471 296.756911 
L 613.19963 296.746379 
L 613.19963 296.746379 
" clip-path="url(#p6540f854b5)" style="fill: none; stroke: #5088c5; stroke-linecap: round"/>
   </g>
   <g id="line2d_20">
    <path d="M 93.19638 253.467545 
L 98.022986 253.479439 
L 100.563304 253.469975 
L 102.087496 253.454244 
L 102.849591 253.441263 
L 103.103623 253.292463 
L 103.357655 253.472533 
L 105.897974 253.463516 
L 106.660069 253.470358 
L 106.914101 253.403472 
L 107.422165 253.461406 
L 110.216516 253.46665 
L 112.248771 253.464412 
L 114.535058 253.476945 
L 119.361663 253.46601 
L 121.139886 253.507191 
L 122.156014 253.471445 
L 123.934237 253.452006 
L 130.285034 253.446251 
L 131.809225 253.474643 
L 134.857608 253.45271 
L 136.127767 253.472213 
L 138.414054 253.490373 
L 156.450317 253.347328 
L 156.704349 253.480973 
L 157.466445 253.470167 
L 158.482572 253.429625 
L 158.990636 253.47362 
L 161.276923 253.434421 
L 162.29305 253.466586 
L 162.801114 253.447338 
L 163.817242 253.474003 
L 164.833369 253.457378 
L 165.595465 253.468056 
L 167.373688 253.423934 
L 167.881752 253.443821 
L 168.135783 253.37054 
L 168.389815 253.471829 
L 169.405943 253.449384 
L 169.659975 253.235808 
L 169.914007 253.441136 
L 171.438198 253.4451 
L 171.946262 253.483915 
L 172.200293 253.23146 
L 172.454325 253.457122 
L 176.010772 253.457186 
L 178.043027 253.479567 
L 179.313186 253.426428 
L 180.075282 253.463516 
L 180.329313 253.404559 
L 180.837377 253.496576 
L 181.345441 253.449512 
L 184.139792 253.439345 
L 184.901887 253.261002 
L 186.172047 253.298794 
L 195.825258 253.450727 
L 196.07929 253.396566 
L 196.587353 253.458593 
L 197.349449 253.470486 
L 201.159927 253.390555 
L 201.922023 253.376679 
L 213.353457 253.38512 
L 214.369585 253.378725 
L 215.893776 253.374697 
L 216.655872 253.428858 
L 219.19619 253.455779 
L 220.46635 253.459616 
L 220.720382 253.24572 
L 220.974414 253.430265 
L 221.736509 253.464859 
L 223.2607 253.424254 
L 226.563115 253.408332 
L 227.071179 253.128444 
L 227.579242 253.062709 
L 229.103434 253.040072 
L 230.373593 253.449193 
L 233.930039 253.29841 
L 234.184071 252.865311 
L 234.692135 251.63098 
L 235.708262 251.639996 
L 236.470358 251.685781 
L 236.72439 251.886312 
L 237.232454 253.139123 
L 237.486486 253.348159 
L 238.248581 253.439857 
L 240.280836 253.421377 
L 241.296964 253.464412 
L 243.837282 253.42451 
L 246.885665 253.395607 
L 247.647761 253.435444 
L 249.680016 253.430201 
L 250.696143 253.433078 
L 251.712271 253.412744 
L 252.474366 253.409163 
L 252.98243 253.173909 
L 253.236462 252.940702 
L 253.490494 253.077097 
L 255.268717 253.157156 
L 255.776781 253.383137 
L 259.587259 253.342277 
L 259.841291 253.179217 
L 260.349354 252.403819 
L 260.857418 252.289678 
L 261.873546 252.303809 
L 262.381609 252.263652 
L 263.143705 253.265095 
L 263.651769 253.312798 
L 263.905801 252.809487 
L 264.159832 253.330766 
L 268.478374 253.221804 
L 269.494502 253.142065 
L 270.256598 253.048769 
L 271.526757 252.849324 
L 272.034821 252.811405 
L 273.30498 252.383677 
L 273.813044 251.969185 
L 274.067076 251.515559 
L 274.321108 250.632926 
L 274.575139 244.560707 
L 274.829171 200.388317 
L 275.337235 51.373397 
L 275.591267 33.575579 
L 275.845299 31.356048 
L 276.099331 30.646258 
L 276.353363 31.056785 
L 276.861426 32.217387 
L 277.115458 34.880058 
L 277.36949 54.692144 
L 278.131586 238.487912 
L 278.385618 247.090308 
L 278.639649 249.906574 
L 279.147713 251.655727 
L 279.655777 252.304129 
L 280.417873 252.652693 
L 281.179968 252.890057 
L 281.942064 252.980348 
L 283.974319 253.090141 
L 284.736414 252.843505 
L 284.990446 252.750657 
L 285.49851 252.834042 
L 286.768669 252.933732 
L 287.530765 253.195459 
L 288.038829 253.081892 
L 288.292861 251.429489 
L 289.054956 237.036488 
L 289.308988 236.554982 
L 289.56302 236.402153 
L 290.579148 236.600383 
L 290.833179 237.165017 
L 291.087211 240.339952 
L 291.595275 251.326729 
L 291.849307 252.676353 
L 292.103339 252.685561 
L 292.357371 253.201214 
L 294.897689 253.360949 
L 295.151721 253.32629 
L 295.405753 252.103342 
L 295.659785 253.376231 
L 295.913817 253.269699 
L 296.167849 253.387997 
L 297.69204 253.309345 
L 297.946072 253.184141 
L 298.454136 252.748931 
L 299.216231 252.485094 
L 299.470263 252.602177 
L 299.978327 252.44257 
L 300.232359 252.284178 
L 300.486391 252.357715 
L 301.248486 252.945306 
L 302.010582 252.999851 
L 302.518646 253.130299 
L 303.02671 253.360821 
L 303.534773 253.2172 
L 304.550901 253.23325 
L 305.312996 253.186059 
L 307.345251 253.288371 
L 308.615411 253.261514 
L 308.869443 253.415749 
L 310.393634 253.413959 
L 313.442016 253.261514 
L 313.95008 253.318169 
L 316.998463 253.003752 
L 317.252495 251.419897 
L 317.506526 245.284373 
L 318.01459 225.908136 
L 318.268622 223.167452 
L 318.522654 222.366861 
L 318.776686 222.445513 
L 319.030718 222.385405 
L 319.28475 222.443595 
L 319.792813 223.272962 
L 320.046845 226.908236 
L 320.808941 251.293414 
L 321.062973 252.553834 
L 321.317005 252.95413 
L 321.825068 253.190599 
L 322.587164 253.319065 
L 323.34926 253.281849 
L 323.603291 252.955473 
L 323.857323 253.346049 
L 325.381515 253.366064 
L 325.889578 253.325139 
L 326.905706 253.258253 
L 327.921833 252.957008 
L 329.700056 253.069999 
L 330.20812 253.298154 
L 330.462152 252.935586 
L 330.716184 253.335882 
L 330.970216 253.34087 
L 331.224248 253.10536 
L 331.47828 252.253613 
L 332.494407 245.209173 
L 333.002471 244.997387 
L 333.764566 245.144205 
L 334.018598 245.614265 
L 334.27263 246.846549 
L 334.780694 251.80248 
L 335.034726 252.911607 
L 335.54279 253.265031 
L 336.050853 253.364913 
L 337.321013 253.358071 
L 338.083108 253.037131 
L 339.099236 253.057657 
L 339.861332 252.797081 
L 340.369395 253.104465 
L 342.40165 253.435381 
L 346.212128 253.335498 
L 346.720192 253.411337 
L 347.228256 253.420801 
L 352.562925 253.394711 
L 352.816957 253.327825 
L 353.325021 253.407564 
L 356.373403 253.232227 
L 356.627435 252.397233 
L 356.881467 250.486556 
L 357.389531 244.849546 
L 357.643563 244.014105 
L 358.151627 243.748221 
L 358.65969 243.769067 
L 358.913722 243.836338 
L 359.167754 244.276919 
L 359.421786 245.451077 
L 360.183882 252.687352 
L 360.437913 253.109581 
L 360.945977 253.320599 
L 364.502423 253.383137 
L 365.772583 253.346817 
L 367.804838 253.404879 
L 368.820965 253.264392 
L 369.074997 253.40603 
L 370.091125 253.308578 
L 370.345157 253.418435 
L 371.361284 253.323285 
L 371.869348 253.351357 
L 373.647571 253.290545 
L 374.91773 253.258892 
L 376.695954 253.087839 
L 376.949985 251.813543 
L 377.204017 247.825164 
L 377.966113 223.349056 
L 378.220145 221.217129 
L 378.474177 220.580237 
L 378.98224 220.682549 
L 379.490304 221.071974 
L 379.744336 223.614428 
L 379.998368 229.179563 
L 380.506432 248.191633 
L 380.760464 251.614098 
L 381.014495 252.584912 
L 381.522559 253.042566 
L 382.030623 253.149674 
L 383.554814 253.232035 
L 386.603197 252.915571 
L 386.857229 252.529024 
L 387.11126 248.827374 
L 387.365292 240.346474 
L 387.873356 208.068114 
L 388.127388 200.241244 
L 388.38142 197.497363 
L 388.635452 196.863028 
L 388.889484 196.607888 
L 389.143515 196.832974 
L 389.397547 196.893082 
L 389.651579 198.743012 
L 389.905611 204.24612 
L 390.159643 215.498526 
L 390.667707 246.964912 
L 390.921739 250.917545 
L 391.17577 252.20284 
L 391.429802 252.688503 
L 391.937866 253.07019 
L 394.224153 253.280186 
L 394.478185 253.211253 
L 395.24028 253.333452 
L 397.018504 253.328912 
L 399.050759 253.305508 
L 399.812854 253.274879 
L 400.828982 253.3472 
L 401.845109 253.279802 
L 402.353173 252.87535 
L 402.861237 251.951408 
L 403.623332 251.434413 
L 403.877364 251.661034 
L 404.893492 251.944119 
L 405.655587 253.046275 
L 406.925747 253.101779 
L 407.941874 252.90988 
L 408.195906 252.780967 
L 408.449938 252.311291 
L 408.70397 248.203783 
L 408.958002 238.441488 
L 409.720097 177.831711 
L 409.974129 172.262739 
L 410.228161 170.030418 
L 410.482193 169.531647 
L 410.990257 169.755455 
L 411.244289 171.305482 
L 411.498321 178.17062 
L 411.752352 191.107337 
L 412.260416 238.396726 
L 412.514448 248.164904 
L 412.76848 250.931038 
L 413.022512 252.056918 
L 413.276544 252.516554 
L 414.038639 252.934755 
L 417.341054 253.158115 
L 417.849117 253.101587 
L 418.103149 252.353175 
L 418.357181 250.09534 
L 418.611213 245.861348 
L 419.119277 232.493834 
L 419.373309 229.826687 
L 419.627341 229.047197 
L 420.135404 228.489596 
L 420.389436 228.678874 
L 420.643468 229.020979 
L 420.8975 230.545429 
L 421.151532 233.470274 
L 421.913627 251.084953 
L 422.167659 252.451203 
L 422.675723 253.092635 
L 423.183787 253.233058 
L 424.453946 253.19904 
L 426.232169 253.252306 
L 427.248297 253.259084 
L 428.010392 253.054332 
L 429.02652 253.083683 
L 429.280552 252.989428 
L 429.788616 253.161888 
L 430.804743 253.334603 
L 434.869253 253.376423 
L 435.885381 253.400147 
L 436.901508 253.381283 
L 437.917636 253.384416 
L 438.679731 253.305252 
L 441.728114 253.267972 
L 442.490209 253.017564 
L 442.744241 252.841523 
L 442.998273 251.894625 
L 443.252305 250.099177 
L 443.506337 246.602599 
L 444.014401 238.012992 
L 444.268433 236.883659 
L 444.522464 236.310712 
L 445.030528 236.148931 
L 445.28456 236.287052 
L 445.538592 236.663049 
L 445.792624 238.022456 
L 446.046656 240.510621 
L 446.808751 252.043553 
L 447.062783 252.78442 
L 447.316815 253.062965 
L 448.078911 253.252817 
L 449.603102 253.340614 
L 451.381325 253.399379 
L 453.159548 253.372523 
L 454.175676 253.4036 
L 454.429708 253.346113 
L 454.937771 253.393369 
L 457.224058 253.354042 
L 458.240186 253.274303 
L 464.082919 253.168986 
L 464.336951 253.0308 
L 464.845014 253.032207 
L 465.099046 252.988788 
L 465.353078 252.694705 
L 465.60711 251.392529 
L 465.861142 247.69785 
L 466.115174 240.855093 
L 466.877269 206.385081 
L 467.131301 203.437855 
L 467.639365 201.500321 
L 467.893397 201.42039 
L 468.147429 202.068153 
L 468.401461 204.679668 
L 468.655493 209.484497 
L 468.909524 218.702171 
L 469.417588 245.577369 
L 469.67162 250.233973 
L 469.925652 251.746017 
L 470.179684 252.472113 
L 470.687748 252.971331 
L 471.449843 253.15658 
L 476.022417 253.353787 
L 478.308704 253.340678 
L 479.324831 253.301927 
L 482.881278 253.231844 
L 483.13531 253.024406 
L 483.389341 252.21013 
L 483.643373 250.601657 
L 483.897405 247.543806 
L 484.405469 237.065263 
L 484.659501 234.778589 
L 484.913533 233.826448 
L 485.421596 233.192113 
L 485.675628 233.218331 
L 485.92966 233.696639 
L 486.183692 234.852126 
L 486.437724 236.98725 
L 487.453851 252.235516 
L 487.961915 252.975488 
L 488.724011 253.153063 
L 490.502234 253.122817 
L 490.756266 253.261962 
L 494.05868 253.26906 
L 496.598999 252.471921 
L 496.853031 251.910739 
L 497.107063 249.956132 
L 497.361095 246.073646 
L 497.615126 239.020702 
L 498.12319 214.266305 
L 498.377222 208.076427 
L 498.885286 204.750647 
L 499.139318 204.345235 
L 499.39335 204.50254 
L 499.647381 205.454042 
L 499.901413 207.969639 
L 500.155445 213.126165 
L 500.663509 236.631716 
L 500.917541 246.730553 
L 501.171573 250.438469 
L 501.425605 251.830808 
L 501.679636 252.52167 
L 502.1877 253.023319 
L 502.695764 253.205882 
L 515.397358 253.239837 
L 516.413485 253.152296 
L 518.191708 252.959182 
L 518.953804 252.698414 
L 519.207836 252.311675 
L 519.461868 250.328356 
L 519.7159 245.763641 
L 519.969932 237.680414 
L 520.477995 200.911388 
L 520.732027 184.989717 
L 520.986059 178.631663 
L 521.494123 174.642133 
L 521.748155 173.455953 
L 522.002187 174.397224 
L 522.256218 177.543958 
L 522.51025 183.25297 
L 522.764282 193.932428 
L 523.526378 245.335209 
L 523.78041 249.398851 
L 524.034442 251.0494 
L 524.288473 251.899293 
L 524.796537 252.583889 
L 525.304601 252.788449 
L 526.828792 252.665482 
L 527.082824 252.535738 
L 527.336856 252.572762 
L 527.84492 252.248433 
L 528.098952 251.649076 
L 528.352983 248.909544 
L 528.607015 242.258494 
L 528.861047 230.88114 
L 529.115079 210.039539 
L 529.623143 151.96595 
L 529.877175 140.399574 
L 530.131207 135.746934 
L 530.385238 133.317663 
L 530.63927 132.617465 
L 530.893302 133.383526 
L 531.147334 136.633852 
L 531.401366 145.30096 
L 531.655398 160.238517 
L 532.417493 238.991543 
L 532.671525 246.380518 
L 532.925557 249.56012 
L 533.433621 251.882348 
L 533.687653 252.359058 
L 534.195717 252.70743 
L 536.482003 253.167131 
L 539.530386 253.240348 
L 540.546513 253.278395 
L 544.611024 253.372906 
L 546.643279 253.361908 
L 547.151342 253.379429 
L 550.199725 253.289394 
L 550.96182 253.310688 
L 551.469884 253.337289 
L 558.836809 253.38269 
L 559.344872 253.396886 
L 561.885191 253.371372 
L 562.139223 253.250707 
L 562.393255 253.382498 
L 563.15535 253.373482 
L 565.695669 253.383137 
L 566.965829 253.341701 
L 567.981956 253.361012 
L 568.998084 253.350014 
L 569.760179 253.351932 
L 571.538402 253.292527 
L 572.046466 253.281976 
L 573.062594 253.2454 
L 575.856944 252.809103 
L 576.110976 252.614071 
L 576.365008 252.232894 
L 576.61904 250.756276 
L 576.873072 247.22504 
L 577.127104 241.011438 
L 577.381135 230.351675 
L 578.143231 177.44868 
L 578.397263 171.338094 
L 578.651295 168.451616 
L 578.905327 167.668929 
L 579.159359 167.649745 
L 579.413391 169.594953 
L 579.667422 173.913799 
L 579.921454 182.076381 
L 580.175486 195.297015 
L 580.68355 235.660391 
L 580.937582 245.431318 
L 581.191614 249.405182 
L 581.445646 251.292327 
L 581.699677 252.139279 
L 581.953709 252.574681 
L 582.207741 252.707366 
L 582.461773 252.983609 
L 583.223869 253.123904 
L 586.780315 253.263944 
L 587.034347 253.189832 
L 587.288379 253.24508 
L 588.050474 253.078759 
L 588.304506 253.123776 
L 588.558538 253.019738 
L 588.81257 252.724951 
L 589.066602 251.851334 
L 589.320634 250.249064 
L 589.574666 247.512665 
L 590.590793 230.219949 
L 591.098857 228.877103 
L 591.352889 228.723635 
L 591.606921 229.425751 
L 591.860952 230.457185 
L 592.114984 232.530282 
L 592.369016 235.957735 
L 593.131112 250.623526 
L 593.385144 252.025073 
L 593.639176 252.664651 
L 594.147239 253.142129 
L 594.655303 253.274495 
L 595.925462 253.343811 
L 596.94159 253.371819 
L 597.957717 253.358902 
L 603.038355 253.419202 
L 604.054482 253.416005 
L 607.356897 253.383521 
L 609.13512 253.426876 
L 610.151247 253.385887 
L 610.913343 253.409547 
L 612.183502 253.380708 
L 612.691566 253.406797 
L 613.19963 253.3848 
L 613.19963 253.3848 
" clip-path="url(#p6540f854b5)" style="fill: none; stroke: #f28360; stroke-linecap: round"/>
   </g>
   <g id="patch_3">
    <path d="M 72.39625 307.44896 
L 72.39625 20 
" style="fill: none; stroke: #000000; stroke-width: 0.75; stroke-linejoin: miter; stroke-linecap: square"/>
   </g>
   <g id="patch_4">
    <path d="M 72.39625 307.44896 
L 633.99976 307.44896 
" style="fill: none; stroke: #000000; stroke-width: 0.75; stroke-linejoin: miter; stroke-linecap: square"/>
   </g>
  </g>
 </g>
 <defs>
  <clipPath id="p6540f854b5">
   <rect x="72.39625" y="20" width="561.60351" height="287.44896"/>
  </clipPath>
 </defs>
</svg>
