<?xml version="1.0" encoding="utf-8" standalone="no"?>
<!DOCTYPE svg PUBLIC "-//W3C//DTD SVG 1.1//EN"
  "http://www.w3.org/Graphics/SVG/1.1/DTD/svg11.dtd">
<svg xmlns:xlink="http://www.w3.org/1999/xlink" width="453.99888pt" height="453.99888pt" viewBox="0 0 453.99888 453.99888" xmlns="http://www.w3.org/2000/svg" version="1.1">
 <metadata>
  <rdf:RDF xmlns:dc="http://purl.org/dc/elements/1.1/" xmlns:cc="http://creativecommons.org/ns#" xmlns:rdf="http://www.w3.org/1999/02/22-rdf-syntax-ns#">
   <cc:Work>
    <dc:type rdf:resource="http://purl.org/dc/dcmitype/StillImage"/>
    <dc:date>2025-02-10T11:28:18.920602</dc:date>
    <dc:format>image/svg+xml</dc:format>
    <dc:creator>
     <cc:Agent>
      <dc:title>Matplotlib v3.8.4, https://matplotlib.org/</dc:title>
     </cc:Agent>
    </dc:creator>
   </cc:Work>
  </rdf:RDF>
 </metadata>
 <defs>
  <style type="text/css">*{stroke-linejoin: round; stroke-linecap: butt}</style>
 </defs>
 <g id="figure_1">
  <g id="patch_1">
   <path d="M 0 453.99888 
L 453.99888 453.99888 
L 453.99888 0 
L 0 0 
L 0 453.99888 
z
" style="fill: none"/>
  </g>
  <g id="axes_1">
   <g id="patch_2">
    <path d="M 39.366094 387.44888 
L 433.99888 387.44888 
L 433.99888 20 
L 39.366094 20 
L 39.366094 387.44888 
z
" style="fill: none"/>
   </g>
   <g id="matplotlib.axis_1">
    <g id="xtick_1">
     <g id="line2d_1">
      <defs>
       <path id="m20636467bf" d="M 0 0 
L 0 5 
" style="stroke: #000000; stroke-width: 0.75"/>
      </defs>
      <g>
       <use xlink:href="#m20636467bf" x="53.982123" y="387.44888" style="stroke: #000000; stroke-width: 0.75"/>
      </g>
     </g>
     <g id="text_1">
      <text style="font: 14.5px &quot;Suisse Int&apos;l Mono&quot;; text-anchor: middle" x="53.982123" y="407.96138" transform="rotate(-0 53.982123 407.96138)">0</text>
     </g>
    </g>
    <g id="xtick_2">
     <g id="line2d_2">
      <g>
       <use xlink:href="#m20636467bf" x="98.608494" y="387.44888" style="stroke: #000000; stroke-width: 0.75"/>
      </g>
     </g>
     <g id="text_2">
      <text style="font: 14.5px &quot;Suisse Int&apos;l Mono&quot;; text-anchor: middle" x="98.608494" y="407.96138" transform="rotate(-0 98.608494 407.96138)">250</text>
     </g>
    </g>
    <g id="xtick_3">
     <g id="line2d_3">
      <g>
       <use xlink:href="#m20636467bf" x="143.234865" y="387.44888" style="stroke: #000000; stroke-width: 0.75"/>
      </g>
     </g>
     <g id="text_3">
      <text style="font: 14.5px &quot;Suisse Int&apos;l Mono&quot;; text-anchor: middle" x="143.234865" y="407.96138" transform="rotate(-0 143.234865 407.96138)">500</text>
     </g>
    </g>
    <g id="xtick_4">
     <g id="line2d_4">
      <g>
       <use xlink:href="#m20636467bf" x="187.861237" y="387.44888" style="stroke: #000000; stroke-width: 0.75"/>
      </g>
     </g>
     <g id="text_4">
      <text style="font: 14.5px &quot;Suisse Int&apos;l Mono&quot;; text-anchor: middle" x="187.861237" y="407.96138" transform="rotate(-0 187.861237 407.96138)">750</text>
     </g>
    </g>
    <g id="xtick_5">
     <g id="line2d_5">
      <g>
       <use xlink:href="#m20636467bf" x="232.487608" y="387.44888" style="stroke: #000000; stroke-width: 0.75"/>
      </g>
     </g>
     <g id="text_5">
      <text style="font: 14.5px &quot;Suisse Int&apos;l Mono&quot;; text-anchor: middle" x="232.487608" y="407.96138" transform="rotate(-0 232.487608 407.96138)">1000</text>
     </g>
    </g>
    <g id="xtick_6">
     <g id="line2d_6">
      <g>
       <use xlink:href="#m20636467bf" x="277.113979" y="387.44888" style="stroke: #000000; stroke-width: 0.75"/>
      </g>
     </g>
     <g id="text_6">
      <text style="font: 14.5px &quot;Suisse Int&apos;l Mono&quot;; text-anchor: middle" x="277.113979" y="407.96138" transform="rotate(-0 277.113979 407.96138)">1250</text>
     </g>
    </g>
    <g id="xtick_7">
     <g id="line2d_7">
      <g>
       <use xlink:href="#m20636467bf" x="321.740351" y="387.44888" style="stroke: #000000; stroke-width: 0.75"/>
      </g>
     </g>
     <g id="text_7">
      <text style="font: 14.5px &quot;Suisse Int&apos;l Mono&quot;; text-anchor: middle" x="321.740351" y="407.96138" transform="rotate(-0 321.740351 407.96138)">1500</text>
     </g>
    </g>
    <g id="xtick_8">
     <g id="line2d_8">
      <g>
       <use xlink:href="#m20636467bf" x="366.366722" y="387.44888" style="stroke: #000000; stroke-width: 0.75"/>
      </g>
     </g>
     <g id="text_8">
      <text style="font: 14.5px &quot;Suisse Int&apos;l Mono&quot;; text-anchor: middle" x="366.366722" y="407.96138" transform="rotate(-0 366.366722 407.96138)">1750</text>
     </g>
    </g>
    <g id="xtick_9">
     <g id="line2d_9">
      <g>
       <use xlink:href="#m20636467bf" x="410.993093" y="387.44888" style="stroke: #000000; stroke-width: 0.75"/>
      </g>
     </g>
     <g id="text_9">
      <text style="font: 14.5px &quot;Suisse Int&apos;l Mono&quot;; text-anchor: middle" x="410.993093" y="407.96138" transform="rotate(-0 410.993093 407.96138)">2000</text>
     </g>
    </g>
    <g id="text_10">
     <text style="font: 500 15px &quot;Suisse Int&apos;l&quot;, sans-serif; text-anchor: middle" x="236.682487" y="431.37388" transform="rotate(-0 236.682487 431.37388)">Pixels #</text>
    </g>
   </g>
   <g id="matplotlib.axis_2">
    <g id="ytick_1">
     <g id="line2d_10">
      <defs>
       <path id="m75fdc4767b" d="M 0 0 
L -5 0 
" style="stroke: #000000; stroke-width: 0.75"/>
      </defs>
      <g>
       <use xlink:href="#m75fdc4767b" x="39.366094" y="373.839662" style="stroke: #000000; stroke-width: 0.75"/>
      </g>
     </g>
     <g id="text_11">
      <text style="font: 14.5px &quot;Suisse Int&apos;l Mono&quot;; text-anchor: end" x="29.366094" y="379.095912" transform="rotate(-0 29.366094 379.095912)">0</text>
     </g>
    </g>
    <g id="ytick_2">
     <g id="line2d_11">
      <g>
       <use xlink:href="#m75fdc4767b" x="39.366094" y="317.134588" style="stroke: #000000; stroke-width: 0.75"/>
      </g>
     </g>
     <g id="text_12">
      <text style="font: 14.5px &quot;Suisse Int&apos;l Mono&quot;; text-anchor: end" x="29.366094" y="322.390838" transform="rotate(-0 29.366094 322.390838)">1</text>
     </g>
    </g>
    <g id="ytick_3">
     <g id="line2d_12">
      <g>
       <use xlink:href="#m75fdc4767b" x="39.366094" y="260.429514" style="stroke: #000000; stroke-width: 0.75"/>
      </g>
     </g>
     <g id="text_13">
      <text style="font: 14.5px &quot;Suisse Int&apos;l Mono&quot;; text-anchor: end" x="29.366094" y="265.685764" transform="rotate(-0 29.366094 265.685764)">2</text>
     </g>
    </g>
    <g id="ytick_4">
     <g id="line2d_13">
      <g>
       <use xlink:href="#m75fdc4767b" x="39.366094" y="203.72444" style="stroke: #000000; stroke-width: 0.75"/>
      </g>
     </g>
     <g id="text_14">
      <text style="font: 14.5px &quot;Suisse Int&apos;l Mono&quot;; text-anchor: end" x="29.366094" y="208.98069" transform="rotate(-0 29.366094 208.98069)">3</text>
     </g>
    </g>
    <g id="ytick_5">
     <g id="line2d_14">
      <g>
       <use xlink:href="#m75fdc4767b" x="39.366094" y="147.019366" style="stroke: #000000; stroke-width: 0.75"/>
      </g>
     </g>
     <g id="text_15">
      <text style="font: 14.5px &quot;Suisse Int&apos;l Mono&quot;; text-anchor: end" x="29.366094" y="152.275616" transform="rotate(-0 29.366094 152.275616)">4</text>
     </g>
    </g>
    <g id="ytick_6">
     <g id="line2d_15">
      <g>
       <use xlink:href="#m75fdc4767b" x="39.366094" y="90.314292" style="stroke: #000000; stroke-width: 0.75"/>
      </g>
     </g>
     <g id="text_16">
      <text style="font: 14.5px &quot;Suisse Int&apos;l Mono&quot;; text-anchor: end" x="29.366094" y="95.570542" transform="rotate(-0 29.366094 95.570542)">5</text>
     </g>
    </g>
    <g id="ytick_7">
     <g id="line2d_16">
      <g>
       <use xlink:href="#m75fdc4767b" x="39.366094" y="33.609218" style="stroke: #000000; stroke-width: 0.75"/>
      </g>
     </g>
     <g id="text_17">
      <text style="font: 14.5px &quot;Suisse Int&apos;l Mono&quot;; text-anchor: end" x="29.366094" y="38.865468" transform="rotate(-0 29.366094 38.865468)">6</text>
     </g>
    </g>
   </g>
   <g id="line2d_17">
    <path d="M 53.982123 372.018531 
L 54.160628 372.01853 
L 54.517639 371.887217 
L 54.696145 371.887215 
L 54.87465 372.176748 
L 55.053156 371.887211 
L 55.767178 371.922928 
L 58.44476 371.973882 
L 58.623265 371.921441 
L 59.158782 372.022099 
L 61.122342 371.989474 
L 61.300848 372.215423 
L 62.01487 372.129511 
L 62.193375 371.958277 
L 62.728892 371.995801 
L 62.907397 372.00042 
L 63.085903 372.160478 
L 64.692452 372.243776 
L 64.870957 372.361141 
L 65.049463 372.123547 
L 65.406474 372.260833 
L 65.584979 372.219044 
L 65.763485 371.998151 
L 65.94199 372.16516 
L 66.299001 372.033788 
L 70.047617 371.988479 
L 70.761638 372.140499 
L 73.08221 372.19602 
L 73.260715 372.339808 
L 73.617726 372.339704 
L 73.974737 372.215711 
L 77.544847 372.227033 
L 77.901858 372.49509 
L 78.61588 372.414547 
L 78.972891 372.287273 
L 80.400935 372.208279 
L 80.757946 372.138065 
L 81.471968 372.21571 
L 82.007484 372.313842 
L 82.18599 372.215395 
L 82.721506 372.271761 
L 84.14955 372.38013 
L 84.328055 372.503931 
L 84.685066 372.412349 
L 85.042077 372.412173 
L 85.399088 372.36606 
L 85.934605 372.222879 
L 88.255176 372.234188 
L 88.433681 372.050811 
L 89.147703 372.050414 
L 89.326209 372.214569 
L 90.040231 372.199314 
L 90.397242 372.090531 
L 90.754253 372.270351 
L 93.074824 372.376571 
L 93.431835 372.408823 
L 93.788846 372.27125 
L 94.681373 372.286903 
L 95.038384 372.398489 
L 95.21689 372.398369 
L 95.573901 372.272849 
L 96.287923 372.284424 
L 96.466428 372.413756 
L 97.001945 372.161432 
L 97.358956 372.182988 
L 97.537461 372.395371 
L 98.251483 372.393465 
L 98.429989 372.173401 
L 98.965505 372.216626 
L 99.501022 372.30114 
L 99.858033 372.479976 
L 100.215044 372.250494 
L 100.393549 372.360791 
L 100.75056 372.259833 
L 101.107571 372.431703 
L 101.643087 372.420617 
L 102.000098 372.25562 
L 102.71412 372.37152 
L 102.892626 372.371378 
L 103.071131 372.111397 
L 103.249637 372.347893 
L 103.606648 371.923513 
L 104.32067 371.826889 
L 104.856186 370.91238 
L 105.391703 366.831555 
L 105.570208 364.841326 
L 105.748714 364.682958 
L 106.28423 364.790171 
L 106.641241 365.718804 
L 106.998252 368.612929 
L 107.355263 369.656169 
L 107.533768 369.66252 
L 107.890779 371.547451 
L 108.069285 371.863288 
L 109.497329 372.244453 
L 109.675834 372.448 
L 109.85434 372.271068 
L 110.746867 372.250366 
L 110.925373 372.528613 
L 113.78146 372.581339 
L 113.959966 372.363101 
L 114.673988 372.356893 
L 114.852493 372.55857 
L 116.459043 372.532048 
L 116.994559 372.332498 
L 117.173065 372.430236 
L 117.35157 372.270918 
L 117.887087 372.323311 
L 118.065592 372.150999 
L 118.422603 372.150659 
L 118.601108 372.333303 
L 118.779614 372.150316 
L 118.958119 372.148752 
L 119.136625 372.297522 
L 119.31513 372.297349 
L 119.493636 372.1306 
L 119.672141 372.297 
L 119.850647 372.296824 
L 120.207658 372.155416 
L 120.564669 372.242293 
L 121.278691 372.413718 
L 121.457196 372.32909 
L 121.635702 372.430989 
L 121.992713 372.395825 
L 122.171218 372.395643 
L 122.349724 372.507284 
L 122.528229 372.395277 
L 123.063746 372.682867 
L 123.956273 372.748296 
L 124.491789 372.924987 
L 125.562822 372.547107 
L 126.990866 372.538642 
L 127.347877 372.415767 
L 127.704888 372.445081 
L 127.883394 372.702408 
L 130.917987 372.60679 
L 131.096492 372.410325 
L 131.632009 372.409738 
L 131.810514 372.632724 
L 132.167525 372.806793 
L 132.346031 372.873412 
L 132.524536 372.806399 
L 132.703042 372.928233 
L 132.881547 372.806005 
L 133.060053 372.893967 
L 133.417064 372.763189 
L 134.131086 372.660317 
L 134.666602 372.752521 
L 135.023613 372.652827 
L 135.202119 372.458212 
L 137.701195 372.637275 
L 137.879701 372.637072 
L 138.058206 372.47911 
L 138.950734 372.55372 
L 139.129239 372.821241 
L 140.914294 372.652607 
L 141.271305 372.987199 
L 141.449811 372.986992 
L 141.628316 372.819746 
L 141.806822 372.81954 
L 141.985327 372.551606 
L 142.163833 372.551399 
L 142.342338 372.411064 
L 142.699349 372.584181 
L 143.413371 372.638558 
L 143.591876 372.885194 
L 143.948887 372.815639 
L 144.841415 372.775612 
L 145.555437 372.439763 
L 147.161986 372.348753 
L 147.340492 372.190778 
L 147.518997 372.34832 
L 147.876008 372.234669 
L 148.947041 372.027798 
L 149.304052 371.958218 
L 150.018074 371.951291 
L 150.196579 371.842027 
L 150.375085 371.950841 
L 150.910601 371.841124 
L 151.089107 371.378756 
L 151.624623 371.123342 
L 151.981634 370.456589 
L 152.16014 370.364027 
L 152.338645 369.890988 
L 152.695656 368.096258 
L 153.052667 368.040589 
L 153.231173 367.738764 
L 153.409678 366.836527 
L 153.766689 366.836074 
L 153.945195 367.278037 
L 154.1237 367.320034 
L 154.480711 368.362647 
L 155.016227 369.337289 
L 155.194733 369.380679 
L 155.373238 369.880641 
L 158.050821 370.144506 
L 158.407832 370.020166 
L 160.906908 369.936259 
L 161.263919 369.85507 
L 161.62093 369.854617 
L 161.799436 369.655336 
L 162.156447 370.092433 
L 162.334952 370.09731 
L 162.691963 370.318184 
L 163.048974 370.348354 
L 163.762996 371.018388 
L 164.834029 371.131173 
L 165.012535 371.459456 
L 165.19104 371.45923 
L 165.548051 371.698663 
L 166.083568 371.611216 
L 166.440578 371.576427 
L 166.619084 371.74556 
L 167.511611 371.74257 
L 167.690117 372.056469 
L 167.868622 371.77738 
L 168.225633 372.055785 
L 168.582644 371.932367 
L 168.76115 372.128872 
L 169.832183 372.09824 
L 170.010688 372.263187 
L 172.509765 372.204605 
L 172.68827 372.415014 
L 173.937809 372.343218 
L 174.116314 372.620439 
L 176.972402 372.668385 
L 177.507919 372.964118 
L 179.649984 372.854821 
L 181.078028 372.965546 
L 181.435039 372.819808 
L 181.613545 372.902611 
L 181.970556 372.819048 
L 182.327567 373.206442 
L 182.684578 373.251407 
L 182.863083 373.030292 
L 183.041589 373.21007 
L 183.220094 373.029787 
L 185.719171 373.004925 
L 185.897676 373.202801 
L 186.433193 373.149156 
L 186.611698 372.969804 
L 186.790204 372.969554 
L 186.968709 373.148408 
L 187.147215 373.148159 
L 187.32572 373.014279 
L 187.504226 373.254381 
L 187.861237 373.134637 
L 188.396753 373.133893 
L 188.575259 372.946655 
L 189.646292 373.055602 
L 190.003303 373.275971 
L 190.89583 373.224167 
L 191.074335 373.086115 
L 191.252841 373.197694 
L 191.609852 373.085383 
L 193.394907 373.014282 
L 193.751918 372.950231 
L 194.46594 373.004945 
L 194.822951 373.098655 
L 195.358467 373.143869 
L 196.250994 373.225728 
L 196.4295 372.968899 
L 196.608005 373.23221 
L 197.500533 373.255149 
L 197.857544 373.261172 
L 198.036049 373.44607 
L 198.214555 373.445835 
L 198.39306 373.260465 
L 198.571566 372.908056 
L 198.928577 372.907586 
L 199.107082 373.330052 
L 199.99961 373.22912 
L 200.892137 373.165783 
L 201.427654 373.204528 
L 201.606159 373.103146 
L 201.784665 373.213347 
L 202.141676 373.102455 
L 202.677192 373.15791 
L 203.034203 373.191324 
L 203.212708 372.91084 
L 203.391214 372.910612 
L 203.569719 373.247245 
L 204.283741 373.244942 
L 204.640752 373.115497 
L 205.354774 373.064946 
L 205.53328 372.904177 
L 205.890291 373.135724 
L 206.068796 373.064043 
L 206.425807 373.141545 
L 210.352928 373.237804 
L 211.06695 373.250383 
L 211.245455 373.08591 
L 211.423961 373.085692 
L 211.602466 373.368048 
L 212.137983 373.367398 
L 212.316488 373.213599 
L 212.494994 373.213383 
L 212.673499 373.332879 
L 212.852005 373.195785 
L 213.387521 373.24479 
L 213.566027 373.174513 
L 214.101543 373.26621 
L 214.280048 373.265998 
L 214.458554 373.43561 
L 214.637059 373.268824 
L 220.17073 373.227223 
L 220.52774 373.12846 
L 221.241762 373.329976 
L 221.598773 373.291537 
L 221.777279 373.123376 
L 222.13429 373.223673 
L 222.669806 373.311715 
L 223.205323 373.209522 
L 223.919345 373.12199 
L 224.09785 373.121799 
L 224.633367 373.465051 
L 225.525894 373.396369 
L 225.882905 373.276285 
L 226.061411 373.276099 
L 226.239916 373.460585 
L 226.953938 373.174489 
L 227.66796 373.021564 
L 228.917498 373.427676 
L 229.096004 373.176008 
L 229.274509 373.1749 
L 229.453015 373.343614 
L 229.810026 373.095945 
L 229.988531 373.095766 
L 230.167037 373.328513 
L 230.345542 373.328334 
L 230.702553 373.453258 
L 231.23807 373.43092 
L 231.595081 373.312249 
L 234.451168 373.40229 
L 234.808179 373.432113 
L 235.343696 373.267357 
L 235.879212 373.190763 
L 236.236223 373.112946 
L 236.77174 373.198755 
L 237.128751 373.328346 
L 237.664267 373.327857 
L 238.021278 373.102031 
L 239.092311 373.34977 
L 239.984838 373.004691 
L 240.341849 373.142647 
L 240.877366 373.240544 
L 241.591388 373.128099 
L 242.126904 373.092835 
L 242.662421 372.86223 
L 243.197937 373.079847 
L 243.733454 373.061291 
L 244.26897 372.991232 
L 244.804486 372.938342 
L 244.982992 372.660255 
L 246.23253 372.554317 
L 246.589541 372.428728 
L 247.482069 372.47945 
L 247.660574 372.028287 
L 247.83908 372.028129 
L 248.017585 372.380608 
L 248.731607 372.302018 
L 248.910113 372.088881 
L 249.088618 372.088719 
L 249.267124 371.944717 
L 249.80264 371.124343 
L 250.338156 370.284017 
L 251.052178 362.580081 
L 251.7662 343.777797 
L 251.944706 340.592292 
L 252.123211 339.788486 
L 252.480222 339.788158 
L 252.658728 341.003667 
L 253.37275 354.292354 
L 253.908266 363.091105 
L 254.265277 366.929426 
L 254.800794 369.52175 
L 255.33631 370.500293 
L 255.514816 370.500129 
L 256.228837 369.81647 
L 256.407343 369.324933 
L 256.942859 369.153227 
L 257.29987 369.1529 
L 258.013892 370.096479 
L 259.084925 371.849868 
L 259.441936 372.060654 
L 259.620442 372.633986 
L 260.155958 372.633482 
L 260.512969 372.502296 
L 261.048486 372.609434 
L 261.405497 372.82114 
L 262.298024 372.87643 
L 263.012046 372.867394 
L 263.369057 372.728316 
L 263.547562 372.875231 
L 264.44009 372.921237 
L 264.797101 373.058702 
L 266.225145 373.047593 
L 266.40365 373.215389 
L 266.760661 373.106011 
L 267.653189 372.893119 
L 268.0102 372.892782 
L 268.188705 373.059188 
L 270.152265 373.04806 
L 270.687782 372.755241 
L 271.223298 373.164451 
L 271.758815 372.912929 
L 271.93732 372.767532 
L 272.294331 372.7672 
L 272.651342 373.070322 
L 276.399957 372.998195 
L 276.756968 372.90043 
L 276.935474 372.900268 
L 277.113979 373.091272 
L 277.649496 373.028611 
L 278.185012 372.960847 
L 278.899034 373.015418 
L 279.07754 373.19436 
L 279.256045 373.004425 
L 279.434551 373.19404 
L 279.613056 373.19388 
L 279.970067 372.992186 
L 280.327078 373.04662 
L 280.684089 373.069037 
L 281.576616 373.157333 
L 282.469144 373.352819 
L 282.826155 373.131646 
L 283.183166 373.131337 
L 283.540177 373.014101 
L 284.075693 373.101334 
L 284.432704 373.18733 
L 285.146726 373.158416 
L 285.503737 373.03376 
L 285.860748 373.122545 
L 286.039254 373.023098 
L 286.396264 373.122092 
L 289.073847 373.198276 
L 289.430858 373.096833 
L 289.966374 373.116348 
L 290.14488 373.34681 
L 290.501891 372.998986 
L 290.680396 373.270744 
L 291.929935 373.239115 
L 292.286945 373.339983 
L 292.643956 373.195397 
L 294.786022 373.192329 
L 294.964528 373.423263 
L 295.143033 373.192055 
L 296.749583 373.291525 
L 297.106594 373.388698 
L 298.177626 373.244534 
L 298.713143 373.314207 
L 299.070154 373.432268 
L 299.248659 373.296653 
L 299.427165 373.385148 
L 299.962681 373.196385 
L 300.498198 373.163991 
L 300.855209 373.314539 
L 301.390725 373.338294 
L 302.104747 373.10998 
L 302.461758 373.19372 
L 303.711297 373.282425 
L 304.068308 373.371738 
L 305.496351 373.349921 
L 305.674857 373.168382 
L 307.281406 373.202157 
L 307.459912 373.048461 
L 307.638417 373.048349 
L 307.816923 373.237084 
L 308.352439 373.279436 
L 308.887956 372.791907 
L 309.601978 372.740424 
L 309.958989 372.519802 
L 310.315999 372.182716 
L 310.494505 371.779854 
L 312.27956 371.884928 
L 312.993582 372.522422 
L 313.172087 372.522296 
L 313.350593 372.778296 
L 313.529098 372.714601 
L 313.707604 372.965497 
L 314.421626 372.967309 
L 314.600131 372.70224 
L 314.778637 372.702113 
L 314.957142 372.909392 
L 315.135648 372.666594 
L 315.492659 373.188337 
L 315.671164 372.98637 
L 316.028175 373.264979 
L 316.20668 373.189685 
L 316.563691 372.933306 
L 316.920702 372.933054 
L 317.277713 373.156449 
L 317.456219 373.253299 
L 317.991735 373.031134 
L 318.884263 373.137698 
L 319.241274 373.276651 
L 319.419779 373.276529 
L 319.598285 373.153912 
L 319.955296 373.153669 
L 320.312307 373.017012 
L 322.632878 373.059994 
L 322.811383 372.585669 
L 323.3469 372.58531 
L 323.703911 372.373951 
L 324.060922 372.319884 
L 324.239427 371.894277 
L 325.488966 371.985272 
L 325.667471 371.765208 
L 326.559999 371.676389 
L 326.738504 371.519888 
L 326.91701 371.595847 
L 327.274021 371.499989 
L 327.631032 371.459342 
L 327.988043 371.343526 
L 328.345053 371.277356 
L 328.523559 370.862866 
L 328.702064 370.862725 
L 328.88057 370.987863 
L 329.416086 370.696514 
L 329.773097 370.658648 
L 330.130108 370.535406 
L 330.665625 370.711766 
L 331.022636 370.711484 
L 331.558152 370.391831 
L 332.272174 370.356467 
L 332.629185 370.429961 
L 333.164702 370.429538 
L 333.343207 370.156103 
L 333.878724 370.068448 
L 334.235734 369.923399 
L 334.592745 369.452624 
L 334.771251 368.872022 
L 334.949756 368.820842 
L 335.128262 367.638436 
L 335.306767 367.634119 
L 335.842284 364.373188 
L 336.020789 362.645586 
L 336.3778 355.407876 
L 337.270328 327.583117 
L 337.627339 318.22494 
L 337.805844 317.13487 
L 338.162855 317.134588 
L 338.519866 322.722688 
L 339.233888 343.109695 
L 339.94791 357.358484 
L 340.483426 363.425288 
L 340.840437 365.90971 
L 341.197448 367.200268 
L 341.554459 367.822207 
L 341.91147 368.408881 
L 342.089976 368.40874 
L 342.268481 368.102361 
L 342.625492 368.029695 
L 342.982503 367.664247 
L 343.339514 367.494606 
L 343.51802 367.34645 
L 343.875031 366.638109 
L 344.053536 366.32013 
L 344.232042 366.260597 
L 344.589053 365.359696 
L 344.946064 365.055032 
L 345.124569 364.444271 
L 345.303075 364.263171 
L 346.017097 364.301583 
L 346.374107 364.532835 
L 346.552613 364.773509 
L 346.731118 364.795176 
L 347.266635 365.842458 
L 347.623646 366.409181 
L 347.802151 367.069308 
L 348.159162 367.255553 
L 348.516173 367.96333 
L 349.408701 369.075754 
L 349.587206 369.075613 
L 350.122723 369.429684 
L 350.301228 369.811877 
L 350.836745 369.991021 
L 351.193756 370.311361 
L 351.550767 370.324999 
L 351.907778 370.608219 
L 352.264788 370.516994 
L 352.621799 370.617399 
L 352.800305 370.794041 
L 353.692832 370.849479 
L 353.871338 371.168568 
L 354.049843 371.189771 
L 354.406854 371.387614 
L 356.013404 371.323211 
L 356.191909 371.597751 
L 356.370415 371.597605 
L 356.54892 371.407219 
L 356.905931 371.462137 
L 357.262942 371.461839 
L 357.798459 371.593627 
L 357.976964 371.781857 
L 358.155469 371.805367 
L 358.51248 371.945649 
L 359.226502 371.914861 
L 359.405008 372.177789 
L 361.190063 372.219311 
L 361.547074 372.332656 
L 362.439601 372.437139 
L 362.796612 372.498974 
L 362.975118 372.374915 
L 363.510634 372.641198 
L 364.224656 372.59689 
L 364.760172 372.632558 
L 364.938678 372.80267 
L 365.474194 372.802145 
L 365.831205 372.516435 
L 366.009711 372.681442 
L 367.080744 372.772253 
L 367.61626 372.935976 
L 367.973271 372.83447 
L 368.330282 372.970994 
L 369.22281 373.047596 
L 369.401315 372.98246 
L 369.758326 373.10089 
L 370.293842 373.192696 
L 370.650853 373.310664 
L 371.18637 373.286476 
L 371.543381 373.169202 
L 372.078897 372.974268 
L 372.792919 373.134121 
L 372.971425 373.291245 
L 374.75648 373.395805 
L 375.291996 373.395305 
L 375.649007 373.326767 
L 376.184523 373.339266 
L 376.363029 373.462063 
L 376.72004 373.302587 
L 377.434062 373.355768 
L 377.791073 373.492328 
L 378.505095 373.468963 
L 378.862106 373.532219 
L 380.111644 373.415151 
L 380.468655 373.620865 
L 381.539688 373.512798 
L 381.718194 373.485277 
L 382.075204 373.742044 
L 382.25371 373.741901 
L 382.432215 373.459185 
L 383.503248 373.397563 
L 383.860259 373.338358 
L 384.21727 373.338083 
L 384.574281 373.474689 
L 384.931292 373.492051 
L 385.109798 373.671019 
L 386.002325 373.59612 
L 386.359336 373.528581 
L 386.894853 373.634917 
L 387.78738 373.704357 
L 389.572435 373.627999 
L 389.929446 373.506667 
L 390.464962 373.506328 
L 390.821973 373.645769 
L 391.000479 373.645659 
L 391.178984 373.458559 
L 391.535995 373.592901 
L 392.964039 373.570256 
L 393.32105 373.479109 
L 394.392083 373.545331 
L 394.749094 373.59757 
L 395.641621 373.573436 
L 395.998632 373.707812 
L 396.355643 373.707633 
L 396.534149 373.478329 
L 399.033226 373.531423 
L 399.390237 373.663965 
L 400.639775 373.59383 
L 401.175291 373.593611 
L 401.353797 373.409797 
L 401.889313 373.646688 
L 402.067819 373.534795 
L 402.42483 373.639058 
L 404.209885 373.561391 
L 404.566896 373.685158 
L 406.173445 373.583502 
L 406.708961 373.460851 
L 407.422983 373.50798 
L 407.601489 373.692604 
L 408.672522 373.650574 
L 409.029533 373.56929 
L 409.386544 373.569209 
L 409.565049 373.418371 
L 409.743555 373.526443 
L 410.279071 373.503131 
L 410.636082 373.503058 
L 410.993093 373.687196 
L 411.885621 373.625325 
L 412.064126 373.839662 
L 412.242631 373.625266 
L 412.599642 373.681355 
L 412.778148 373.505009 
L 413.670675 373.559174 
L 413.849181 373.657519 
L 414.384697 373.450049 
L 414.920214 373.507991 
L 415.277225 373.507956 
L 415.634236 373.562675 
L 415.812741 373.703251 
L 418.133312 373.476691 
L 418.490323 373.416363 
L 419.382851 373.701245 
L 419.382851 373.701245 
" clip-path="url(#p9cc43d858a)" style="fill: none; stroke: #000004; stroke-linecap: round"/>
   </g>
   <g id="line2d_18">
    <path d="M 53.982123 315.352338 
L 55.945683 315.375456 
L 56.302694 315.470773 
L 56.4812 315.308806 
L 56.659705 315.470761 
L 56.838211 315.308794 
L 57.016716 315.308788 
L 57.195222 315.488327 
L 58.801771 315.474356 
L 59.158782 315.278125 
L 61.122342 315.298785 
L 61.479353 315.470895 
L 63.442914 315.439203 
L 63.799925 315.343367 
L 65.049463 315.314498 
L 65.227968 315.57546 
L 65.584979 315.575406 
L 66.120496 315.535061 
L 66.477507 315.454482 
L 67.013023 315.436802 
L 67.191529 315.600582 
L 67.727045 315.534305 
L 68.084056 315.385691 
L 68.619573 315.458691 
L 69.155089 315.501607 
L 69.333595 315.501565 
L 69.690606 315.383944 
L 70.940144 315.464617 
L 71.118649 315.593677 
L 71.297155 315.453418 
L 71.832671 315.537029 
L 72.189682 315.529524 
L 73.260715 315.549569 
L 73.439221 315.749421 
L 73.617726 315.549458 
L 73.796232 315.695167 
L 74.153243 315.59834 
L 74.510254 315.598225 
L 76.295309 315.514781 
L 76.830825 315.50024 
L 77.187836 315.500108 
L 77.544847 315.596224 
L 77.723352 315.596155 
L 77.901858 315.779796 
L 78.61588 315.692517 
L 78.972891 315.473493 
L 80.757946 315.562042 
L 80.936451 315.638778 
L 81.114957 315.50589 
L 81.293462 315.745049 
L 87.005638 315.632063 
L 88.790692 315.453379 
L 90.218736 315.553424 
L 90.754253 315.568833 
L 91.111264 315.683376 
L 93.074824 315.742752 
L 93.431835 315.845248 
L 94.145857 315.801277 
L 94.502868 315.67008 
L 94.681373 315.681065 
L 94.859879 315.838741 
L 95.395395 315.838375 
L 95.752406 315.712724 
L 97.001945 315.758582 
L 97.18045 315.82509 
L 97.537461 315.807248 
L 98.429989 315.813539 
L 98.787 315.740625 
L 101.643087 315.630168 
L 102.535615 315.529042 
L 102.71412 315.644122 
L 102.892626 315.528753 
L 103.249637 315.638133 
L 103.428142 315.61346 
L 103.606648 315.448112 
L 103.963659 315.35434 
L 104.499175 315.207662 
L 104.677681 314.778083 
L 105.034692 312.980936 
L 105.748714 307.771655 
L 105.927219 307.771505 
L 106.105725 308.408558 
L 106.28423 308.408409 
L 106.819746 310.289952 
L 107.176757 312.596909 
L 107.712274 313.987478 
L 108.069285 315.431412 
L 109.318823 315.530298 
L 109.675834 315.650765 
L 110.746867 315.734507 
L 111.103878 315.809154 
L 111.460889 315.718135 
L 111.639395 315.94287 
L 111.996406 315.803723 
L 112.174911 315.923875 
L 112.531922 315.803236 
L 112.888933 315.919059 
L 113.959966 315.820429 
L 114.495482 315.881937 
L 115.209504 315.881264 
L 115.38801 315.995393 
L 115.745021 315.867335 
L 116.816054 315.781623 
L 117.173065 315.781276 
L 117.35157 315.66449 
L 117.708581 315.802039 
L 118.065592 315.618901 
L 118.601108 315.641043 
L 118.779614 315.505743 
L 118.958119 315.751282 
L 119.136625 315.572481 
L 122.706735 315.874184 
L 123.063746 315.928409 
L 123.599262 316.012985 
L 124.670295 316.018318 
L 125.027306 315.890678 
L 125.205811 316.017741 
L 125.562822 315.946555 
L 126.45535 316.093666 
L 126.633855 315.979635 
L 126.990866 316.108815 
L 127.347877 316.062612 
L 128.41891 316.240056 
L 128.954427 316.189952 
L 130.203965 316.149702 
L 131.453503 315.848456 
L 131.98902 316.214816 
L 132.346031 316.100119 
L 133.238558 316.09773 
L 133.595569 315.966371 
L 133.95258 315.965968 
L 134.309591 316.167785 
L 135.380624 316.134641 
L 135.916141 315.996134 
L 136.808668 316.090903 
L 136.987173 316.183248 
L 137.344184 316.058361 
L 138.236712 316.074458 
L 138.415217 316.253799 
L 138.593723 316.074048 
L 140.200272 316.040723 
L 140.557283 315.951923 
L 140.735789 316.220108 
L 140.914294 316.058401 
L 141.449811 316.164209 
L 141.985327 316.066869 
L 145.198426 316.048727 
L 145.376931 315.738012 
L 146.447964 315.769584 
L 146.62647 315.622677 
L 148.59003 315.635999 
L 148.947041 315.526344 
L 149.125546 315.353053 
L 150.375085 315.277434 
L 151.089107 314.963703 
L 151.446118 314.645801 
L 151.803129 314.468575 
L 151.981634 313.942203 
L 152.16014 313.902641 
L 152.338645 313.410512 
L 152.517151 312.271926 
L 152.695656 311.892244 
L 152.874162 311.117377 
L 153.052667 311.064858 
L 153.409678 310.588234 
L 153.945195 310.587549 
L 154.1237 310.818231 
L 154.837722 312.561411 
L 155.016227 312.993389 
L 155.194733 313.013521 
L 155.551744 313.428148 
L 156.08726 313.476977 
L 157.336799 313.57533 
L 157.872315 313.591304 
L 158.050821 313.362941 
L 158.407832 313.362484 
L 158.764843 313.27827 
L 160.192887 313.229241 
L 160.728403 313.015692 
L 161.085414 312.964796 
L 161.442425 313.105477 
L 163.048974 313.65594 
L 163.584491 314.19852 
L 163.762996 314.317217 
L 164.120007 314.31676 
L 164.477018 314.52963 
L 164.655524 314.529401 
L 165.012535 314.770035 
L 167.511611 315.225881 
L 168.047128 315.363551 
L 169.296666 315.404954 
L 169.653677 315.491014 
L 171.081721 315.441426 
L 171.260227 315.362052 
L 171.438732 315.679251 
L 172.866776 315.700406 
L 173.223787 315.829476 
L 173.402292 315.829225 
L 173.580798 315.699405 
L 173.937809 315.862252 
L 174.116314 315.688007 
L 174.473325 316.1049 
L 177.329413 316.123969 
L 177.86493 316.349486 
L 178.400446 316.365841 
L 178.578951 315.974101 
L 178.935962 315.97359 
L 179.114468 316.326872 
L 179.82849 316.349909 
L 180.006995 316.178437 
L 180.721017 316.135301 
L 180.899523 316.307187 
L 181.435039 316.227749 
L 181.613545 316.442208 
L 181.79205 316.234641 
L 182.506072 316.244256 
L 182.863083 316.414033 
L 183.577105 316.4454 
L 183.934116 316.390284 
L 185.540665 316.449999 
L 185.719171 316.370152 
L 186.076182 316.507544 
L 187.147215 316.479648 
L 188.753764 316.475532 
L 189.110775 316.344072 
L 189.467786 316.559211 
L 189.646292 316.465022 
L 189.824797 316.56889 
L 190.003303 316.464522 
L 190.360313 316.568141 
L 191.966863 316.482149 
L 192.145368 316.317627 
L 192.502379 316.317132 
L 192.680885 316.475607 
L 196.250994 316.375852 
L 196.4295 316.308049 
L 196.608005 316.545196 
L 197.857544 316.622174 
L 198.571566 316.76652 
L 198.750071 316.495574 
L 204.283741 316.55122 
L 204.640752 316.629888 
L 204.997763 316.327716 
L 205.53328 316.401527 
L 205.711785 316.606294 
L 206.068796 316.511896 
L 206.247302 316.441792 
L 206.425807 316.511437 
L 206.604313 316.441334 
L 207.139829 316.53875 
L 209.995917 316.61425 
L 210.709939 316.704048 
L 210.888444 316.42849 
L 211.245455 316.428043 
L 211.423961 316.638832 
L 215.351081 316.621981 
L 215.529587 316.218251 
L 215.886598 316.217822 
L 216.065103 316.52302 
L 217.136136 316.638816 
L 217.671653 316.587742 
L 218.028664 316.653031 
L 219.813719 316.645859 
L 219.992224 316.480452 
L 220.52774 316.479836 
L 220.706246 316.713319 
L 224.09785 316.6586 
L 224.454861 316.551312 
L 224.633367 316.815344 
L 225.7044 316.798443 
L 225.882905 316.585387 
L 226.061411 316.585195 
L 226.239916 316.797866 
L 226.775432 316.797293 
L 227.132443 316.556285 
L 227.310949 316.528332 
L 227.489454 316.367105 
L 227.66796 316.366916 
L 228.024971 316.657142 
L 228.381982 316.758568 
L 229.453015 316.784287 
L 229.810026 316.557634 
L 230.345542 316.59549 
L 230.524048 316.761433 
L 231.23807 316.655199 
L 232.130597 316.569152 
L 233.20163 316.609728 
L 233.558641 316.675084 
L 234.094157 316.674556 
L 234.272663 316.476325 
L 234.451168 316.627931 
L 237.842773 316.676966 
L 238.021278 316.484296 
L 238.199783 316.676631 
L 238.378289 316.692661 
L 238.556794 316.47963 
L 238.913805 316.582028 
L 239.627827 316.548975 
L 239.806333 316.536779 
L 239.984838 316.365861 
L 240.163344 316.53645 
L 240.520355 316.536122 
L 240.69886 316.771034 
L 241.234377 316.701596 
L 241.591388 316.491185 
L 242.30541 316.49054 
L 243.911959 316.571933 
L 244.26897 316.435568 
L 244.625981 316.378796 
L 245.161497 316.147874 
L 246.23253 316.033549 
L 246.411036 315.826542 
L 247.482069 315.722846 
L 247.660574 315.4964 
L 247.83908 315.496237 
L 248.017585 315.666828 
L 248.731607 315.666169 
L 248.910113 315.517461 
L 249.088618 315.517294 
L 250.159651 314.080377 
L 250.516662 312.155473 
L 250.873673 308.252787 
L 251.230684 300.599073 
L 251.944706 284.688224 
L 252.123211 283.063349 
L 252.480222 283.06301 
L 252.658728 284.331693 
L 254.086772 309.066949 
L 254.979299 313.751879 
L 255.871827 313.660796 
L 256.050332 313.577332 
L 256.407343 312.681577 
L 256.942859 312.399719 
L 257.29987 312.405858 
L 257.656881 312.669285 
L 258.727914 314.733509 
L 258.90642 314.90178 
L 259.084925 315.287078 
L 259.263431 315.319763 
L 259.620442 315.712292 
L 260.334464 315.939734 
L 260.512969 315.862281 
L 261.405497 316.1298 
L 263.904573 316.193972 
L 264.261584 316.317635 
L 264.975606 316.374311 
L 265.332617 316.431803 
L 265.868134 316.428499 
L 266.760661 316.331835 
L 267.653189 316.179181 
L 267.831694 316.394184 
L 268.36721 316.403841 
L 268.724221 316.506223 
L 269.081232 316.292087 
L 269.259738 316.388165 
L 269.616749 316.291566 
L 271.044793 316.378106 
L 271.580309 316.467825 
L 271.758815 316.219158 
L 272.294331 316.295922 
L 272.651342 316.46078 
L 273.008353 316.501622 
L 273.54387 316.351644 
L 274.614902 316.443174 
L 275.328924 316.560961 
L 275.50743 316.343765 
L 276.042946 316.34326 
L 276.221452 316.500427 
L 277.649496 316.391732 
L 278.185012 316.342645 
L 279.613056 316.653212 
L 279.970067 316.556632 
L 280.505583 316.520048 
L 280.684089 316.584669 
L 281.0411 316.492257 
L 282.290638 316.586914 
L 282.647649 316.524585 
L 283.00466 316.524266 
L 284.61121 316.514972 
L 284.789715 316.588391 
L 285.146726 316.447864 
L 287.467297 316.592535 
L 289.252352 316.744188 
L 289.609363 316.621262 
L 290.323385 316.620668 
L 290.501891 316.397013 
L 291.394418 316.574897 
L 291.751429 316.70695 
L 291.929935 316.706804 
L 292.10844 316.854275 
L 292.286945 316.854131 
L 292.643956 316.574807 
L 293.000967 316.473179 
L 293.357978 316.524721 
L 293.714989 316.656782 
L 294.250506 316.625352 
L 298.177626 316.659357 
L 298.534637 316.784034 
L 299.248659 316.746954 
L 299.60567 316.613424 
L 302.640264 316.626088 
L 302.818769 316.414952 
L 302.997275 316.58003 
L 303.532791 316.579661 
L 303.711297 316.723917 
L 306.210373 316.611658 
L 308.887956 316.426707 
L 309.423472 316.042292 
L 310.137494 315.669331 
L 310.315999 315.668292 
L 310.494505 315.328984 
L 310.67301 315.327017 
L 310.851516 315.08072 
L 312.27956 315.285224 
L 312.636571 315.683404 
L 312.815076 315.763335 
L 312.993582 316.052428 
L 313.350593 316.19378 
L 314.600131 316.455748 
L 315.135648 316.27074 
L 316.028175 316.594042 
L 316.920702 316.443959 
L 317.277713 316.443715 
L 317.634724 316.545275 
L 317.991735 316.424255 
L 318.348746 316.424013 
L 318.527252 316.608065 
L 318.884263 316.607825 
L 319.062768 316.430935 
L 319.598285 316.442146 
L 319.955296 316.546489 
L 320.312307 316.4699 
L 321.561845 316.472782 
L 322.097361 316.465956 
L 322.454372 316.338933 
L 322.632878 316.334653 
L 322.811383 316.025885 
L 323.3469 315.951037 
L 324.417933 315.326088 
L 325.667471 315.21464 
L 326.024482 315.047799 
L 327.988043 314.977389 
L 328.345053 314.758232 
L 328.702064 314.502976 
L 328.88057 314.502835 
L 329.237581 314.232309 
L 329.416086 314.232168 
L 330.130108 313.756362 
L 330.308614 313.957979 
L 331.379647 313.90623 
L 331.736658 313.832834 
L 331.915163 314.026584 
L 332.807691 313.95693 
L 332.986196 313.718474 
L 333.343207 313.683486 
L 334.057229 313.204904 
L 334.235734 313.159414 
L 334.41424 312.703929 
L 334.592745 312.635302 
L 334.771251 311.959087 
L 334.949756 311.921464 
L 335.485273 310.553623 
L 336.020789 306.220961 
L 336.3778 299.555269 
L 336.913317 282.636348 
L 337.448833 265.495771 
L 337.627339 261.408185 
L 337.805844 260.429796 
L 338.162855 260.429514 
L 338.519866 267.253364 
L 339.590899 295.209386 
L 340.483426 307.325714 
L 340.840437 309.521168 
L 341.197448 310.836938 
L 341.554459 311.380847 
L 341.732965 311.575522 
L 342.625492 311.591939 
L 343.875031 310.081933 
L 344.232042 309.373648 
L 344.410547 309.280032 
L 344.589053 308.513119 
L 344.946064 308.286554 
L 345.124569 307.911125 
L 345.303075 307.880442 
L 345.48158 307.6207 
L 346.195602 307.676591 
L 346.374107 308.010091 
L 346.552613 308.082138 
L 346.909624 308.482132 
L 347.088129 308.677733 
L 347.266635 309.460561 
L 347.44514 309.517337 
L 347.802151 310.011269 
L 347.980657 310.497475 
L 348.159162 310.57739 
L 348.337668 311.145039 
L 348.516173 311.270303 
L 348.694679 311.730132 
L 348.873184 311.767474 
L 350.479734 313.274297 
L 350.836745 313.37073 
L 351.907778 313.955721 
L 352.800305 314.069315 
L 352.97881 314.222343 
L 353.335821 314.303041 
L 353.514327 314.557411 
L 354.406854 314.611773 
L 354.763865 314.778543 
L 356.370415 314.914688 
L 356.727426 314.973163 
L 357.798459 315.054169 
L 358.155469 315.190373 
L 358.690986 315.230166 
L 359.405008 315.40075 
L 359.583513 315.40059 
L 360.11903 315.649063 
L 362.439601 315.733898 
L 363.153623 315.876667 
L 364.581667 315.928502 
L 365.117183 316.286608 
L 365.295689 316.286434 
L 365.6527 316.120421 
L 366.188216 316.134705 
L 366.902238 316.155289 
L 369.22281 316.415847 
L 369.401315 316.247695 
L 369.758326 316.415323 
L 370.829359 316.547087 
L 371.900392 316.629349 
L 372.078897 316.476009 
L 372.792919 316.585925 
L 373.14993 316.666105 
L 373.328436 316.665937 
L 373.506941 316.855033 
L 374.042458 316.794375 
L 374.399469 316.739902 
L 374.577974 316.793878 
L 374.75648 316.690521 
L 375.113491 316.854931 
L 376.006018 316.796278 
L 376.72004 316.636453 
L 377.255556 316.812747 
L 381.718194 316.884884 
L 382.075204 316.929023 
L 382.25371 317.113981 
L 382.432215 316.957895 
L 383.324743 316.860491 
L 384.21727 316.791325 
L 384.574281 316.87574 
L 385.288303 316.907604 
L 385.645314 316.999893 
L 386.359336 317.029924 
L 386.716347 316.957485 
L 396.355643 316.866635 
L 396.712654 316.86646 
L 397.069665 316.866288 
L 397.426676 316.902211 
L 403.674368 316.938043 
L 404.031379 317.134588 
L 404.209885 317.134528 
L 404.38839 316.928547 
L 407.779994 316.953931 
L 407.9585 317.122325 
L 408.672522 317.133256 
L 408.851027 316.992539 
L 409.208038 317.098891 
L 409.386544 316.891078 
L 410.457577 316.806173 
L 410.636082 316.97828 
L 411.885621 317.015539 
L 412.242631 316.866015 
L 412.599642 316.920565 
L 413.313664 316.901954 
L 413.49217 316.90193 
L 413.670675 317.039343 
L 413.849181 316.901885 
L 414.206192 317.011515 
L 415.634236 316.934559 
L 415.991247 317.066414 
L 416.526763 316.968275 
L 416.883774 316.899768 
L 417.419291 316.947405 
L 417.776302 317.066317 
L 418.133312 316.929333 
L 419.382851 316.982993 
L 419.382851 316.982993 
" clip-path="url(#p9cc43d858a)" style="fill: none; stroke: #180f3d; stroke-linecap: round"/>
   </g>
   <g id="line2d_19">
    <path d="M 53.982123 258.707276 
L 54.339134 258.619377 
L 55.231661 258.634556 
L 55.767178 258.645593 
L 56.4812 258.724276 
L 56.659705 258.762929 
L 57.016716 258.677782 
L 57.552233 258.749551 
L 58.087749 258.818091 
L 58.44476 258.725569 
L 58.980276 258.679049 
L 61.122342 258.587291 
L 61.300848 258.814153 
L 62.193375 258.771268 
L 62.550386 258.678269 
L 63.621419 258.734274 
L 64.156936 258.705662 
L 65.049463 258.780064 
L 69.155089 258.699982 
L 69.5121 258.623491 
L 69.690606 258.623442 
L 69.869111 258.814374 
L 70.047617 258.612758 
L 70.226122 258.762732 
L 71.118649 258.795145 
L 71.47566 258.915607 
L 72.903704 258.685507 
L 73.08221 258.895294 
L 75.224276 259.002658 
L 75.402781 258.788138 
L 75.581287 258.890232 
L 76.295309 258.84899 
L 76.652319 258.91143 
L 77.00933 258.841331 
L 78.437374 258.961283 
L 78.61588 258.808418 
L 78.794385 258.957901 
L 80.222429 258.883602 
L 80.57944 258.883428 
L 80.757946 258.705245 
L 81.114957 259.017079 
L 81.471968 259.016899 
L 81.828979 259.14051 
L 82.18599 259.057951 
L 82.364495 258.818097 
L 83.078517 258.88675 
L 83.614033 259.047069 
L 86.11311 259.035535 
L 86.470121 258.912914 
L 87.898165 258.81771 
L 88.076671 258.738445 
L 88.255176 258.506855 
L 88.433681 258.506743 
L 88.790692 259.021479 
L 88.969198 258.715335 
L 89.326209 258.797482 
L 90.754253 258.703581 
L 90.932758 258.980498 
L 91.289769 259.059409 
L 92.360802 258.968008 
L 92.896319 258.87697 
L 93.25333 259.071838 
L 94.502868 258.897434 
L 95.038384 259.058104 
L 95.573901 258.966582 
L 96.109417 258.939943 
L 97.715967 258.970903 
L 98.251483 258.806646 
L 98.429989 258.960207 
L 98.608494 258.831208 
L 98.787 259.019744 
L 101.464582 259.074575 
L 101.643087 258.807049 
L 101.821593 258.806895 
L 102.178604 258.982842 
L 103.428142 258.982204 
L 103.785153 258.899971 
L 104.142164 258.546219 
L 104.677681 257.930914 
L 104.856186 257.355508 
L 105.748714 251.372156 
L 106.105725 251.371834 
L 106.28423 251.577841 
L 106.641241 252.424279 
L 106.998252 255.053056 
L 107.355263 256.356009 
L 107.533768 256.355848 
L 107.890779 258.160415 
L 108.24779 258.71877 
L 108.783307 258.669502 
L 109.140318 258.975663 
L 109.497329 259.046662 
L 109.675834 258.805813 
L 109.85434 259.119039 
L 110.568362 258.862496 
L 110.746867 259.157312 
L 112.531922 259.217255 
L 112.710427 259.02794 
L 113.245944 259.200907 
L 113.78146 259.156199 
L 114.495482 259.123274 
L 114.673988 259.042561 
L 114.852493 259.145006 
L 115.030999 259.042203 
L 115.38801 259.193247 
L 116.459043 259.125428 
L 116.816054 258.992985 
L 117.35157 259.092754 
L 117.708581 258.989759 
L 118.065592 258.918975 
L 118.601108 258.981456 
L 120.743174 258.971322 
L 120.92168 259.164408 
L 121.457196 259.103072 
L 121.635702 258.996108 
L 121.814207 259.181369 
L 122.349724 259.136133 
L 123.063746 259.257744 
L 123.242251 259.437939 
L 123.420757 259.437738 
L 123.599262 259.184429 
L 123.777768 259.184227 
L 123.956273 259.330368 
L 125.384317 259.285948 
L 125.562822 259.206591 
L 125.919833 259.313409 
L 126.276844 259.348436 
L 126.633855 259.424879 
L 126.812361 259.238295 
L 126.990866 259.23809 
L 127.169372 259.380545 
L 128.240405 259.335592 
L 128.597416 259.251883 
L 129.132932 259.378276 
L 129.846954 259.395393 
L 130.02546 259.346865 
L 130.203965 259.151994 
L 130.38247 259.299968 
L 130.560976 259.228429 
L 131.096492 259.324903 
L 131.810514 259.24491 
L 131.98902 259.466974 
L 132.167525 259.466763 
L 132.346031 259.322051 
L 132.881547 259.408395 
L 133.238558 259.407972 
L 133.95258 259.37215 
L 134.666602 259.516262 
L 135.023613 259.434382 
L 135.380624 259.368609 
L 135.55913 259.110226 
L 136.094646 259.14502 
L 136.630162 259.385518 
L 137.52269 259.376158 
L 137.879701 259.311759 
L 138.058206 259.454664 
L 138.236712 259.454448 
L 138.593723 259.335285 
L 138.772228 259.256375 
L 138.950734 259.310921 
L 139.129239 259.218205 
L 139.664756 259.391966 
L 139.843261 259.391749 
L 140.021767 259.22586 
L 140.378778 259.312861 
L 141.628316 259.396462 
L 141.806822 259.387498 
L 141.985327 259.214705 
L 142.520843 259.265585 
L 143.234865 259.45568 
L 143.591876 259.202589 
L 143.948887 259.306149 
L 144.127393 259.509333 
L 144.484404 259.378651 
L 145.555437 259.162398 
L 146.983481 259.051983 
L 147.161986 258.926582 
L 147.340492 259.058429 
L 147.518997 258.944532 
L 147.876008 259.019084 
L 148.947041 258.929334 
L 149.125546 258.664487 
L 149.482557 258.664017 
L 149.661063 258.541368 
L 150.018074 258.654103 
L 150.375085 258.568029 
L 150.732096 258.47137 
L 151.089107 258.151055 
L 151.624623 257.670814 
L 151.803129 257.639281 
L 152.16014 256.941606 
L 153.052667 254.256548 
L 153.409678 253.768262 
L 153.766689 253.861664 
L 154.302205 254.697122 
L 154.659216 255.452746 
L 154.837722 255.81284 
L 155.016227 255.912924 
L 155.551744 256.703283 
L 156.08726 256.858572 
L 156.444271 256.732921 
L 156.622777 256.732682 
L 156.801282 256.86774 
L 157.158293 256.735186 
L 158.050821 256.782771 
L 158.229326 256.588789 
L 158.764843 256.60786 
L 158.943348 256.760406 
L 159.65737 256.69042 
L 160.014381 256.500802 
L 160.371392 256.475473 
L 160.549897 256.249278 
L 160.906908 256.248799 
L 161.085414 256.410089 
L 161.263919 256.215187 
L 161.62093 256.551572 
L 161.799436 256.551333 
L 162.156447 256.426142 
L 163.22748 257.234192 
L 163.405985 257.239015 
L 163.584491 257.619358 
L 163.762996 257.624181 
L 164.120007 257.748876 
L 164.477018 257.726768 
L 164.834029 257.905306 
L 165.726557 258.088189 
L 165.905062 258.308384 
L 166.262073 258.307906 
L 166.619084 258.175811 
L 167.1546 258.536348 
L 167.690117 258.583488 
L 167.868622 258.530323 
L 168.225633 258.601169 
L 168.76115 258.615622 
L 169.118161 258.552082 
L 169.296666 258.551835 
L 169.832183 258.829052 
L 170.903216 258.859763 
L 171.081721 258.682795 
L 171.438732 258.779388 
L 171.617238 258.933758 
L 171.795743 258.815692 
L 172.152754 258.954158 
L 173.937809 259.003098 
L 174.116314 259.260545 
L 174.830336 259.262251 
L 175.008842 259.407409 
L 175.365853 259.229704 
L 175.901369 259.181047 
L 176.079875 259.377285 
L 176.793897 259.390025 
L 176.972402 259.506188 
L 177.150908 259.389492 
L 177.329413 259.532346 
L 178.221941 259.553102 
L 178.400446 259.35219 
L 178.757457 259.351656 
L 178.935962 259.616922 
L 179.114468 259.30096 
L 179.292973 259.582793 
L 179.82849 259.620648 
L 180.185501 259.403821 
L 181.078028 259.572297 
L 181.970556 259.587529 
L 182.149061 259.733145 
L 182.327567 259.586996 
L 182.506072 259.760684 
L 182.684578 259.622359 
L 182.863083 259.701706 
L 183.041589 259.62965 
L 183.3986 259.659491 
L 184.469632 259.692875 
L 184.648138 259.785569 
L 185.005149 259.738561 
L 185.183654 259.703782 
L 185.36216 259.376319 
L 185.540665 259.376055 
L 185.719171 259.695627 
L 186.076182 259.763669 
L 186.968709 259.812055 
L 187.147215 259.585376 
L 187.504226 259.584852 
L 187.861237 259.721927 
L 188.039742 259.572102 
L 188.218248 259.571841 
L 188.575259 259.701093 
L 188.93227 259.60347 
L 189.467786 259.636742 
L 189.646292 259.878085 
L 189.824797 259.730102 
L 190.003303 259.879866 
L 190.181808 259.729582 
L 190.538819 259.88507 
L 191.074335 259.840117 
L 191.431346 259.667028 
L 192.145368 259.819706 
L 192.323874 259.740296 
L 193.216401 259.873396 
L 193.394907 259.873142 
L 193.573412 259.718262 
L 193.751918 259.718008 
L 194.108929 259.845436 
L 196.072489 259.671472 
L 196.250994 259.260266 
L 196.4295 259.941105 
L 196.608005 259.642188 
L 197.143522 259.774894 
L 197.857544 259.756869 
L 198.39306 260.080562 
L 198.928577 259.459937 
L 199.107082 259.886291 
L 200.892137 259.777074 
L 201.606159 259.710754 
L 201.784665 259.710511 
L 201.96317 259.886524 
L 202.320181 259.799063 
L 202.855697 259.615182 
L 203.212708 259.747237 
L 203.391214 259.746997 
L 203.569719 259.938658 
L 203.748225 259.810944 
L 203.92673 259.874672 
L 204.283741 259.84014 
L 204.640752 259.839663 
L 204.997763 259.599426 
L 205.354774 259.598951 
L 205.53328 259.762543 
L 208.389367 259.794676 
L 208.567873 259.591036 
L 208.746378 259.590804 
L 208.924884 259.822049 
L 209.638906 259.836768 
L 209.817411 259.51348 
L 209.995917 259.513248 
L 210.174422 259.834234 
L 210.709939 259.970681 
L 211.959477 259.759231 
L 212.137983 259.875894 
L 212.316488 259.752334 
L 212.673499 259.913409 
L 215.351081 259.976787 
L 215.708092 259.552507 
L 215.886598 259.552287 
L 216.065103 259.874204 
L 217.314642 259.926058 
L 217.671653 260.025028 
L 218.385675 259.93857 
L 218.921191 259.977966 
L 219.278202 259.869856 
L 219.813719 259.934568 
L 220.17073 259.851772 
L 220.52774 259.851352 
L 220.884751 259.977027 
L 221.420268 259.991589 
L 221.598773 259.753001 
L 221.955784 259.775137 
L 222.13429 259.932317 
L 222.848312 259.856944 
L 223.383828 259.753248 
L 223.562334 260.002931 
L 223.740839 260.002728 
L 223.919345 259.792216 
L 224.09785 259.792013 
L 224.454861 260.036894 
L 225.525894 260.003021 
L 226.061411 259.831695 
L 226.239916 259.831499 
L 226.775432 260.100125 
L 226.953938 260.0309 
L 227.132443 259.704887 
L 227.310949 259.922825 
L 227.66796 259.922438 
L 227.846465 259.76946 
L 228.024971 259.769267 
L 228.203476 259.97064 
L 228.917498 260.016353 
L 229.274509 260.085923 
L 229.810026 259.78899 
L 230.524048 259.981061 
L 230.702553 260.072913 
L 230.881059 259.846771 
L 231.059564 260.09279 
L 231.595081 259.755372 
L 231.773586 259.755188 
L 232.130597 259.893339 
L 232.309102 259.99716 
L 232.487608 259.834528 
L 232.844619 259.834164 
L 233.380135 260.144252 
L 233.737146 259.924378 
L 234.986685 259.897358 
L 235.16519 260.091384 
L 235.700707 259.943133 
L 236.593234 259.835956 
L 236.950245 259.945137 
L 237.664267 259.924661 
L 237.842773 259.726606 
L 238.378289 259.744962 
L 239.092311 259.848288 
L 239.449322 259.897651 
L 239.806333 259.834729 
L 240.341849 259.877945 
L 240.520355 259.720852 
L 240.69886 260.074576 
L 240.877366 259.781266 
L 241.234377 259.865151 
L 241.591388 259.881388 
L 241.769893 259.689323 
L 243.019432 259.775616 
L 243.554948 259.896621 
L 243.733454 259.656237 
L 245.161497 259.564291 
L 245.340003 259.494641 
L 245.518508 259.286472 
L 245.875519 259.249794 
L 246.054025 259.106052 
L 247.303563 259.042784 
L 247.482069 258.677223 
L 247.83908 258.742238 
L 248.017585 259.245525 
L 248.196091 258.87582 
L 249.088618 258.764065 
L 249.267124 258.481793 
L 249.445629 258.454929 
L 249.624135 258.070032 
L 249.80264 258.069858 
L 250.338156 256.684148 
L 250.695167 253.852215 
L 251.052178 248.881291 
L 251.944706 227.720614 
L 252.123211 225.84192 
L 252.301717 225.841746 
L 252.658728 228.117068 
L 253.194244 237.715314 
L 253.729761 247.655946 
L 254.265277 253.524764 
L 254.622288 255.825396 
L 255.157805 257.166347 
L 255.871827 257.089259 
L 256.050332 256.70022 
L 256.228837 256.66093 
L 256.585848 255.867205 
L 256.764354 255.781895 
L 256.942859 255.554845 
L 257.121365 255.554671 
L 257.835387 256.346434 
L 258.370903 257.546104 
L 258.549409 257.668342 
L 258.727914 258.120541 
L 258.90642 258.223452 
L 259.263431 258.641882 
L 259.441936 258.695089 
L 259.798947 259.107992 
L 259.977453 259.107814 
L 260.155958 259.225907 
L 260.86998 259.154783 
L 261.048486 259.423358 
L 262.476529 259.496011 
L 262.83354 259.624506 
L 263.190551 259.614482 
L 263.369057 259.426542 
L 263.904573 259.42278 
L 264.083079 259.670645 
L 264.44009 259.668445 
L 264.797101 259.53969 
L 265.154112 259.810386 
L 265.689628 259.519005 
L 265.868134 259.518826 
L 266.225145 259.719573 
L 267.653189 259.619207 
L 267.831694 259.375585 
L 268.0102 259.375408 
L 268.36721 259.631841 
L 268.724221 259.73411 
L 271.223298 259.691142 
L 271.758815 259.659783 
L 271.93732 259.393154 
L 272.115826 259.392979 
L 272.472837 259.788857 
L 273.365364 259.68352 
L 274.079386 259.643709 
L 274.436397 259.728498 
L 275.328924 259.78654 
L 275.50743 259.572837 
L 276.042946 259.61466 
L 276.221452 259.802708 
L 276.399957 259.570138 
L 278.006507 259.649594 
L 279.07754 259.727269 
L 279.434551 259.813448 
L 279.613056 259.813279 
L 279.970067 259.69007 
L 281.933627 259.751741 
L 282.290638 259.807094 
L 283.897188 259.716341 
L 284.254199 259.86604 
L 285.325232 259.753243 
L 286.217759 259.824692 
L 286.396264 259.923014 
L 286.753275 259.849065 
L 291.572924 259.92407 
L 292.10844 259.998177 
L 292.465451 259.87363 
L 292.643956 259.821941 
L 292.822462 259.894506 
L 293.000967 259.72869 
L 293.357978 259.8255 
L 294.250506 259.867116 
L 294.429011 259.938763 
L 294.964528 259.885413 
L 299.962681 259.970864 
L 300.141187 259.755822 
L 300.498198 259.743134 
L 300.855209 260.101366 
L 301.21222 260.031618 
L 301.569231 259.727632 
L 301.926242 259.727377 
L 302.104747 259.966091 
L 302.283253 259.696289 
L 302.461758 260.002653 
L 302.997275 259.80393 
L 303.17578 259.709005 
L 303.889802 259.970358 
L 305.853362 259.867778 
L 306.74589 259.773766 
L 307.102901 259.8421 
L 307.638417 259.769498 
L 307.816923 259.995338 
L 308.173934 259.854747 
L 308.530945 259.76892 
L 308.70945 259.466917 
L 309.066461 259.466688 
L 309.244967 259.653413 
L 309.780483 259.183668 
L 309.958989 259.17757 
L 310.315999 258.761321 
L 310.494505 258.294105 
L 310.67301 258.293987 
L 310.851516 258.442511 
L 312.27956 258.492598 
L 312.636571 259.039512 
L 312.815076 259.046744 
L 313.350593 259.343178 
L 313.707604 259.430812 
L 314.064615 259.546058 
L 314.421626 259.727571 
L 314.600131 259.622055 
L 314.778637 259.727309 
L 315.135648 259.695293 
L 315.314153 259.500959 
L 315.492659 259.500829 
L 315.671164 259.85919 
L 316.385186 259.774914 
L 316.742197 259.724494 
L 317.277713 259.780712 
L 317.81323 259.90182 
L 318.170241 259.58357 
L 318.705757 259.776472 
L 318.884263 259.659456 
L 319.241274 259.761367 
L 320.133801 259.676524 
L 320.490812 259.625653 
L 320.847823 259.753799 
L 322.097361 259.661354 
L 323.3469 259.16302 
L 323.525405 259.162896 
L 324.060922 258.795745 
L 324.774944 258.64107 
L 325.131955 258.540948 
L 326.202988 258.243776 
L 326.381493 258.355926 
L 326.559999 258.27019 
L 327.095515 258.299677 
L 327.274021 258.295851 
L 327.631032 258.172227 
L 327.988043 258.129597 
L 328.702064 257.617737 
L 329.416086 257.399022 
L 329.594592 257.117696 
L 330.130108 257.322046 
L 331.201141 257.285737 
L 331.915163 257.170566 
L 332.45068 257.276895 
L 332.629185 257.227508 
L 332.807691 256.951705 
L 333.521713 256.860464 
L 333.700218 256.686364 
L 334.235734 256.562595 
L 334.41424 255.928759 
L 334.592745 255.910206 
L 334.771251 255.238634 
L 334.949756 255.203513 
L 335.485273 253.670624 
L 335.842284 251.08081 
L 336.199295 246.815423 
L 336.734811 232.045918 
L 337.627339 205.303664 
L 337.805844 203.724586 
L 337.98435 203.72444 
L 338.162855 204.0202 
L 338.519866 210.412951 
L 339.412394 234.449177 
L 339.94791 244.676595 
L 340.483426 250.514204 
L 340.840437 252.790041 
L 341.018943 253.729156 
L 341.375954 254.348748 
L 341.554459 254.828587 
L 342.268481 254.892432 
L 343.161009 254.378585 
L 343.51802 253.815934 
L 343.696525 253.797381 
L 344.053536 253.059856 
L 344.589053 251.901566 
L 344.946064 251.599386 
L 345.48158 251.063281 
L 346.195602 250.994589 
L 347.623646 253.164168 
L 347.980657 253.762592 
L 348.159162 253.823192 
L 348.516173 254.740992 
L 349.230195 255.39987 
L 349.765712 256.028521 
L 349.944217 256.032517 
L 351.01525 256.858615 
L 351.372261 256.961408 
L 351.729272 257.066961 
L 352.086283 257.37224 
L 352.621799 257.336828 
L 352.97881 257.607132 
L 353.871338 257.650122 
L 354.228349 257.878549 
L 354.406854 257.878403 
L 354.763865 258.002365 
L 355.834898 258.116079 
L 356.191909 258.204144 
L 356.905931 258.12623 
L 357.084437 258.005507 
L 357.441448 258.186979 
L 357.619953 258.186826 
L 357.798459 258.481656 
L 358.869491 258.435606 
L 359.226502 258.618898 
L 360.11903 258.71701 
L 360.476041 258.867157 
L 360.833052 258.866817 
L 361.725579 259.044971 
L 363.510634 259.066223 
L 363.68914 259.276354 
L 363.867645 259.089336 
L 364.403161 259.170712 
L 365.117183 259.547351 
L 365.474194 259.299865 
L 365.6527 259.299684 
L 366.009711 259.41161 
L 366.188216 259.24944 
L 366.366722 259.249259 
L 366.902238 259.459483 
L 367.973271 259.541686 
L 368.687293 259.778419 
L 368.865799 259.778238 
L 369.044304 259.561765 
L 369.22281 259.561583 
L 369.401315 259.727993 
L 371.18637 259.801206 
L 371.364875 259.92252 
L 371.543381 259.817877 
L 371.721886 259.916641 
L 372.257403 259.709022 
L 372.614414 259.708669 
L 372.792919 259.868641 
L 373.506941 259.948474 
L 373.863952 260.064555 
L 374.042458 260.080488 
L 374.220963 259.915105 
L 375.470502 260.023895 
L 375.827513 259.98398 
L 376.184523 260.02 
L 376.72004 259.968878 
L 377.077051 260.128695 
L 377.434062 260.128367 
L 378.326589 259.956362 
L 378.6836 260.078453 
L 380.647161 260.153579 
L 381.004172 260.229205 
L 381.182677 260.075347 
L 381.539688 260.109559 
L 381.896699 260.209121 
L 382.25371 260.117244 
L 382.610721 260.256849 
L 382.967732 260.173721 
L 383.503248 260.204581 
L 383.681754 260.039687 
L 383.860259 260.299095 
L 384.21727 260.17824 
L 386.359336 260.275081 
L 386.894853 260.220844 
L 387.073358 260.220714 
L 387.251864 260.429514 
L 387.430369 260.429386 
L 387.78738 260.226186 
L 388.501402 260.154816 
L 388.679907 260.328647 
L 389.036918 260.22578 
L 390.107951 260.14269 
L 390.286457 260.11082 
L 390.464962 260.24048 
L 390.643468 260.070552 
L 391.000479 260.284314 
L 391.35749 260.219201 
L 391.535995 260.149139 
L 391.714501 260.218978 
L 391.893006 260.160423 
L 392.250017 260.188736 
L 393.142545 260.218113 
L 393.32105 260.331216 
L 393.678061 260.273024 
L 393.856567 260.27062 
L 394.213577 260.139261 
L 394.927599 260.290727 
L 395.820127 260.247907 
L 396.712654 260.162767 
L 396.89116 260.162677 
L 397.248171 260.292733 
L 398.140698 260.235233 
L 398.676215 260.046761 
L 398.85472 260.176913 
L 399.033226 260.129431 
L 399.390237 260.239255 
L 400.81828 260.334354 
L 401.175291 260.15657 
L 402.603335 260.245283 
L 404.209885 260.33582 
L 404.566896 260.378497 
L 404.745401 260.174571 
L 405.816434 260.17239 
L 406.173445 260.352678 
L 407.065972 260.2995 
L 407.244478 260.166455 
L 407.422983 260.299403 
L 407.9585 260.297423 
L 408.315511 260.251774 
L 408.494016 260.088822 
L 408.672522 260.088779 
L 408.851027 260.26223 
L 409.029533 260.262189 
L 409.386544 260.145678 
L 410.636082 260.200176 
L 411.171599 260.401178 
L 411.885621 260.190282 
L 413.313664 260.170731 
L 413.49217 260.384237 
L 414.027686 260.279703 
L 414.563203 260.163671 
L 414.920214 260.280983 
L 415.277225 260.207316 
L 415.812741 260.275837 
L 416.169752 260.368769 
L 416.348258 260.368756 
L 416.526763 260.223783 
L 417.954807 260.324956 
L 418.133312 260.090711 
L 418.668829 260.120611 
L 418.847334 260.33644 
L 419.382851 260.232432 
L 419.382851 260.232432 
" clip-path="url(#p9cc43d858a)" style="fill: none; stroke: #440f76; stroke-linecap: round"/>
   </g>
   <g id="line2d_20">
    <path d="M 53.982123 201.934811 
L 56.4812 201.893241 
L 56.659705 202.052843 
L 57.730738 202.131209 
L 57.909244 202.202138 
L 58.266255 202.084982 
L 61.657859 202.108016 
L 62.01487 202.107971 
L 62.371881 202.026254 
L 64.513946 202.130462 
L 65.406474 202.238571 
L 65.763485 202.069561 
L 66.299001 202.065718 
L 66.477507 201.950409 
L 67.727045 202.222215 
L 67.905551 202.222174 
L 68.084056 202.048991 
L 70.226122 202.050763 
L 70.404628 202.147783 
L 70.583133 202.034327 
L 72.368188 202.184515 
L 72.725199 202.098059 
L 73.617726 202.220958 
L 77.723352 202.250153 
L 78.080363 202.368537 
L 78.61588 202.3669 
L 78.972891 202.177265 
L 79.686913 202.128401 
L 80.222429 202.19115 
L 80.57944 202.057038 
L 81.114957 202.109975 
L 81.293462 202.29516 
L 86.470121 202.268526 
L 86.827132 202.163309 
L 88.255176 202.167108 
L 88.433681 201.970055 
L 89.147703 202.080681 
L 89.861725 202.153497 
L 90.932758 202.251731 
L 91.468275 202.339575 
L 93.074824 202.246994 
L 93.25333 202.421409 
L 97.715967 202.340624 
L 98.429989 202.280328 
L 101.464582 202.2648 
L 102.000098 202.213479 
L 102.71412 202.330008 
L 103.071131 202.274162 
L 103.606648 202.273694 
L 103.963659 202.165574 
L 104.142164 201.814467 
L 104.499175 201.683011 
L 104.677681 201.303435 
L 104.856186 200.63498 
L 105.391703 196.846403 
L 105.570208 194.93096 
L 105.748714 194.448713 
L 105.927219 194.448554 
L 106.105725 194.908549 
L 106.28423 194.908391 
L 106.641241 195.765378 
L 106.998252 198.200703 
L 107.355263 199.579914 
L 107.533768 199.631557 
L 107.890779 201.490523 
L 108.24779 201.941959 
L 108.604801 202.112914 
L 109.318823 202.294744 
L 109.497329 202.209645 
L 109.85434 202.294256 
L 111.460889 202.455172 
L 112.353416 202.451995 
L 112.710427 202.342916 
L 112.888933 202.342745 
L 113.245944 202.530476 
L 113.78146 202.54956 
L 114.138471 202.401739 
L 117.887087 202.352725 
L 118.244098 202.298221 
L 120.386163 202.389301 
L 121.992713 202.553701 
L 122.528229 202.553114 
L 123.420757 202.623067 
L 127.704888 202.602863 
L 128.061899 202.741529 
L 131.274998 202.637965 
L 131.632009 202.525545 
L 131.98902 202.745872 
L 135.380624 202.704088 
L 135.737635 202.593994 
L 136.094646 202.619238 
L 136.630162 202.801543 
L 137.344184 202.745156 
L 137.701195 202.685461 
L 138.236712 202.694622 
L 138.415217 202.849348 
L 138.593723 202.694195 
L 145.198426 202.635286 
L 145.733942 202.521218 
L 146.269459 202.454282 
L 146.62647 202.327831 
L 146.804975 202.381276 
L 147.161986 202.332291 
L 147.876008 202.291716 
L 148.768535 202.227101 
L 149.839568 201.969966 
L 150.375085 201.969265 
L 150.55359 201.736619 
L 150.910601 201.615742 
L 151.446118 201.249619 
L 151.624623 201.151379 
L 152.338645 199.758775 
L 152.874162 197.813382 
L 153.409678 197.219515 
L 153.766689 197.219044 
L 154.1237 197.662859 
L 154.480711 198.364752 
L 154.837722 199.112848 
L 155.016227 199.219017 
L 155.373238 199.730502 
L 155.730249 199.914839 
L 155.908755 199.914603 
L 156.08726 200.134644 
L 156.444271 200.134173 
L 156.622777 200.035466 
L 157.158293 200.034759 
L 158.050821 199.970112 
L 158.586337 199.914803 
L 159.65737 199.975458 
L 159.835876 199.824949 
L 160.728403 199.7141 
L 161.442425 199.646421 
L 161.799436 199.64595 
L 161.977941 199.792721 
L 162.156447 199.792485 
L 163.405985 200.586538 
L 163.584491 200.898516 
L 165.369546 201.328779 
L 165.548051 201.516152 
L 167.333106 201.833477 
L 167.690117 201.923074 
L 169.118161 202.008886 
L 169.832183 202.185245 
L 172.152754 202.229109 
L 172.509765 202.348535 
L 172.866776 202.373687 
L 174.830336 202.630773 
L 175.365853 202.672455 
L 176.972402 202.725157 
L 177.150908 202.8831 
L 177.329413 202.786232 
L 177.86493 202.85731 
L 178.935962 202.605114 
L 179.114468 202.936664 
L 182.149061 202.960168 
L 182.327567 203.113443 
L 183.041589 203.077384 
L 184.291127 203.100742 
L 184.648138 203.134286 
L 185.183654 203.023829 
L 189.289281 202.984714 
L 189.467786 203.16273 
L 190.003303 203.209092 
L 190.181808 203.273705 
L 190.538819 203.208322 
L 193.037896 203.169761 
L 193.573412 203.211473 
L 194.46594 203.115015 
L 194.822951 203.075313 
L 195.715478 203.14267 
L 195.893984 203.286628 
L 196.072489 202.945232 
L 196.250994 202.944983 
L 196.4295 203.149612 
L 197.857544 203.219973 
L 198.214555 203.286218 
L 199.107082 203.04652 
L 199.464093 203.151036 
L 204.640752 203.136627 
L 204.997763 202.914015 
L 205.354774 202.913545 
L 205.711785 203.230889 
L 208.032357 203.139195 
L 208.210862 203.103495 
L 208.389367 202.941791 
L 208.567873 203.103034 
L 209.995917 203.205266 
L 210.531433 203.331052 
L 210.709939 203.330824 
L 210.888444 203.174256 
L 211.423961 203.165642 
L 211.780972 203.268327 
L 215.351081 203.323628 
L 215.529587 203.025197 
L 215.886598 203.024763 
L 216.065103 203.216355 
L 220.17073 203.240417 
L 220.52774 203.099064 
L 221.063257 203.336457 
L 223.562334 203.298155 
L 223.740839 203.132749 
L 224.09785 203.193488 
L 224.454861 203.300429 
L 224.811872 203.433974 
L 224.990378 203.360041 
L 225.168883 203.433582 
L 225.525894 203.355722 
L 225.7044 203.355528 
L 226.061411 203.236602 
L 226.418421 203.359888 
L 226.953938 203.359314 
L 227.132443 203.200916 
L 230.345542 203.154592 
L 230.524048 203.364417 
L 231.23807 203.345481 
L 231.416575 203.224894 
L 233.380135 203.328847 
L 234.451168 203.26945 
L 237.842773 203.216251 
L 238.021278 203.15028 
L 238.378289 203.212481 
L 238.556794 203.149777 
L 239.092311 203.295818 
L 239.806333 203.189219 
L 240.69886 203.158999 
L 241.055871 203.23661 
L 241.769893 203.245764 
L 241.948399 203.102331 
L 244.447475 203.080973 
L 244.625981 202.888541 
L 245.340003 202.773108 
L 245.875519 202.580827 
L 247.482069 202.345116 
L 247.660574 202.10461 
L 247.83908 202.104447 
L 248.196091 202.217524 
L 249.088618 202.10749 
L 249.445629 201.80194 
L 249.981146 200.987062 
L 250.159651 200.703146 
L 250.338156 200.093483 
L 250.873673 194.91601 
L 251.230684 187.532209 
L 251.944706 170.785853 
L 252.123211 169.707635 
L 252.480222 169.707296 
L 252.658728 171.263061 
L 253.015739 177.159784 
L 253.729761 190.72664 
L 254.265277 196.772065 
L 254.622288 199.2083 
L 255.157805 200.412311 
L 255.514816 200.469841 
L 255.871827 200.291226 
L 256.228837 199.954872 
L 256.407343 199.337741 
L 256.942859 198.873811 
L 257.29987 198.873471 
L 257.835387 199.779735 
L 258.192398 200.33942 
L 258.727914 201.552298 
L 258.90642 201.578263 
L 259.441936 202.187244 
L 259.620442 202.342478 
L 259.798947 202.342305 
L 260.155958 202.491765 
L 260.86998 202.661874 
L 261.048486 202.561361 
L 261.405497 202.751885 
L 262.476529 202.791897 
L 262.83354 202.865281 
L 263.547562 202.801573 
L 265.689628 203.059874 
L 267.296178 203.022834 
L 267.653189 202.80081 
L 268.0102 202.963337 
L 268.36721 203.006391 
L 268.724221 203.120849 
L 270.152265 203.042933 
L 270.687782 202.991083 
L 271.580309 203.071431 
L 271.758815 202.868251 
L 271.93732 202.86808 
L 272.115826 203.032184 
L 272.651342 203.092342 
L 272.829848 203.160775 
L 273.186859 203.082032 
L 276.221452 202.990505 
L 276.935474 202.952972 
L 278.720529 202.97932 
L 279.07754 203.177333 
L 280.327078 203.049252 
L 280.684089 203.159066 
L 281.755122 203.136631 
L 283.361671 203.104865 
L 283.718682 203.017279 
L 283.897188 203.017122 
L 284.075693 203.201306 
L 284.789715 203.205347 
L 285.146726 203.100964 
L 285.860748 203.20815 
L 291.394418 203.253936 
L 291.751429 203.315718 
L 292.286945 203.242488 
L 292.643956 203.179669 
L 293.357978 203.222508 
L 293.714989 203.292698 
L 294.429011 203.259474 
L 299.962681 203.245579 
L 300.319692 203.108589 
L 300.498198 203.364676 
L 301.926242 203.179817 
L 304.068308 203.220381 
L 304.246813 203.343469 
L 304.603824 203.236364 
L 304.782329 203.422923 
L 305.317846 203.360041 
L 305.853362 203.229027 
L 306.210373 203.298338 
L 306.567384 203.215976 
L 308.352439 203.176605 
L 308.530945 203.034157 
L 308.70945 203.036382 
L 308.887956 202.8846 
L 309.423472 202.785338 
L 309.958989 202.389262 
L 310.315999 202.283572 
L 310.494505 201.73697 
L 311.922549 201.746313 
L 312.458065 202.156168 
L 312.636571 202.203182 
L 313.172087 202.6695 
L 313.529098 202.775191 
L 313.886109 202.795944 
L 314.064615 202.982495 
L 317.81323 203.146993 
L 317.991735 202.983532 
L 318.348746 202.983291 
L 318.527252 203.164246 
L 320.490812 203.079407 
L 321.204834 203.002404 
L 321.561845 203.11931 
L 321.918856 203.008007 
L 322.454372 202.938125 
L 322.811383 202.717151 
L 323.882416 202.432243 
L 324.239427 202.022723 
L 324.953449 201.948509 
L 325.31046 201.74619 
L 326.559999 201.634697 
L 327.988043 201.490803 
L 329.237581 200.734243 
L 329.416086 200.734101 
L 329.594592 200.539818 
L 332.629185 200.490737 
L 332.986196 200.372382 
L 333.164702 200.37224 
L 333.521713 200.058342 
L 333.700218 200.12307 
L 334.235734 199.840765 
L 334.771251 198.507014 
L 334.949756 198.458336 
L 335.128262 197.844967 
L 335.306767 197.637149 
L 335.485273 197.030781 
L 335.842284 194.575255 
L 336.199295 190.007035 
L 336.556306 180.967016 
L 337.627339 147.529881 
L 337.805844 147.01965 
L 338.162855 147.019366 
L 338.519866 153.434167 
L 339.769405 184.837502 
L 340.126415 190.069717 
L 340.661932 195.129116 
L 341.018943 196.931645 
L 341.197448 197.44766 
L 341.375954 197.479253 
L 341.554459 198.06387 
L 341.91147 198.197059 
L 342.446987 198.175166 
L 342.625492 197.898745 
L 342.803998 197.837467 
L 343.161009 197.528703 
L 343.696525 197.030789 
L 343.875031 196.472955 
L 344.053536 196.288939 
L 344.767558 194.970913 
L 344.946064 194.848032 
L 345.124569 194.512342 
L 345.303075 194.459465 
L 345.48158 194.252114 
L 346.017097 194.251688 
L 346.374107 194.356876 
L 346.731118 194.953018 
L 346.909624 195.102683 
L 347.980657 197.053519 
L 348.159162 197.067844 
L 348.516173 197.943533 
L 349.944217 199.4974 
L 350.301228 199.643189 
L 350.658239 199.878116 
L 350.836745 199.979245 
L 351.01525 200.244182 
L 351.372261 200.305034 
L 352.086283 200.620881 
L 352.621799 200.620455 
L 353.157316 200.924777 
L 355.299382 201.404696 
L 356.013404 201.497457 
L 356.54892 201.556285 
L 357.619953 201.647779 
L 357.976964 201.786541 
L 358.869491 201.811881 
L 360.833052 202.240815 
L 361.190063 202.181673 
L 361.547074 202.356805 
L 361.904085 202.372328 
L 362.439601 202.562216 
L 362.618107 202.490173 
L 362.796612 202.567468 
L 362.975118 202.489823 
L 363.153623 202.567118 
L 363.332129 202.489473 
L 363.510634 202.566767 
L 363.867645 202.482877 
L 364.581667 202.576439 
L 364.760172 202.80167 
L 366.009711 202.767284 
L 366.545227 202.577271 
L 367.259249 202.894832 
L 368.151777 202.884598 
L 368.330282 203.071093 
L 369.22281 202.970325 
L 369.758326 203.042125 
L 370.293842 203.155928 
L 373.328436 203.19961 
L 373.506941 203.342244 
L 376.898545 203.357252 
L 377.077051 203.511562 
L 377.255556 203.356926 
L 377.612567 203.399071 
L 381.182677 203.503292 
L 383.324743 203.510406 
L 383.860259 203.482913 
L 384.395776 203.573497 
L 384.931292 203.526881 
L 385.109798 203.628949 
L 385.288303 203.526609 
L 385.645314 203.588408 
L 398.319204 203.566288 
L 398.497709 203.455133 
L 398.676215 203.566122 
L 399.033226 203.565958 
L 400.282764 203.66668 
L 401.175291 203.633641 
L 401.532302 203.52756 
L 403.674368 203.516953 
L 404.031379 203.70117 
L 405.459423 203.612496 
L 405.637929 203.495769 
L 405.994939 203.58853 
L 411.171599 203.688071 
L 411.52861 203.688006 
L 411.885621 203.621675 
L 412.242631 203.398072 
L 413.313664 203.615852 
L 417.776302 203.697124 
L 418.133312 203.425967 
L 418.668829 203.434355 
L 418.847334 203.607493 
L 419.382851 203.670958 
L 419.382851 203.670958 
" clip-path="url(#p9cc43d858a)" style="fill: none; stroke: #721f81; stroke-linecap: round"/>
   </g>
   <g id="line2d_21">
    <path d="M 53.982123 145.248959 
L 57.016716 145.337251 
L 57.909244 145.421294 
L 58.266255 145.306978 
L 61.122342 145.261427 
L 61.300848 145.434749 
L 68.441067 145.331064 
L 69.869111 145.305194 
L 70.404628 145.485472 
L 72.368188 145.384759 
L 72.903704 145.438901 
L 73.796232 145.619495 
L 74.331748 145.437468 
L 74.688759 145.576671 
L 75.759792 145.482754 
L 75.938298 145.423174 
L 76.295309 145.533556 
L 76.473814 145.422964 
L 76.830825 145.509726 
L 78.080363 145.59233 
L 78.437374 145.655465 
L 78.972891 145.448828 
L 79.865418 145.437085 
L 80.400935 145.488785 
L 81.650473 145.575546 
L 82.007484 145.627791 
L 82.721506 145.582552 
L 84.14955 145.609182 
L 84.685066 145.572518 
L 86.291616 145.665119 
L 88.076671 145.380189 
L 89.147703 145.44895 
L 89.861725 145.556654 
L 90.218736 145.546504 
L 90.397242 145.394303 
L 90.754253 145.394067 
L 90.932758 145.63341 
L 92.003791 145.58687 
L 92.896319 145.516819 
L 93.431835 145.719061 
L 96.109417 145.663727 
L 96.287923 145.596524 
L 96.466428 145.730053 
L 96.823439 145.58242 
L 97.001945 145.586533 
L 97.18045 145.702112 
L 97.358956 145.576339 
L 97.715967 145.692723 
L 98.072978 145.575782 
L 99.144011 145.587211 
L 99.501022 145.716809 
L 101.643087 145.665447 
L 102.000098 145.559819 
L 102.357109 145.680425 
L 102.535615 145.55936 
L 102.71412 145.727821 
L 102.892626 145.538742 
L 103.963659 145.310147 
L 104.499175 144.999833 
L 104.856186 143.957597 
L 105.391703 139.973175 
L 105.570208 138.196654 
L 105.748714 137.593826 
L 105.927219 137.593667 
L 106.105725 138.184841 
L 106.28423 138.184682 
L 106.641241 138.91314 
L 106.998252 141.489278 
L 107.176757 142.520174 
L 107.533768 142.995945 
L 107.890779 144.795604 
L 108.24779 145.255789 
L 109.497329 145.523398 
L 110.925373 145.698712 
L 111.639395 145.798637 
L 112.353416 145.712464 
L 112.710427 145.680947 
L 113.245944 145.870767 
L 113.78146 145.870243 
L 114.138471 145.709306 
L 117.887087 145.613415 
L 118.422603 145.569403 
L 120.207658 145.676133 
L 121.457196 145.768289 
L 121.814207 145.744752 
L 121.992713 145.900418 
L 122.171218 145.787338 
L 122.528229 145.899824 
L 123.956273 145.932237 
L 124.313284 146.030077 
L 124.8488 145.99169 
L 125.027306 145.845544 
L 125.205811 145.991287 
L 125.384317 145.845141 
L 125.562822 145.844939 
L 125.919833 145.97442 
L 128.41891 146.074994 
L 128.597416 146.090374 
L 128.775921 145.970201 
L 129.132932 146.089756 
L 130.203965 146.002083 
L 130.739481 145.962732 
L 130.917987 145.962524 
L 131.274998 145.846392 
L 131.632009 145.92296 
L 132.167525 146.070637 
L 135.380624 146.034723 
L 135.55913 145.872035 
L 136.273152 145.974147 
L 136.808668 146.079776 
L 138.058206 146.029628 
L 138.236712 145.969902 
L 138.415217 146.04384 
L 138.772228 145.904079 
L 139.129239 146.010862 
L 140.378778 145.94464 
L 140.735789 145.958375 
L 141.628316 146.051746 
L 141.985327 146.010218 
L 142.342338 145.916263 
L 143.591876 146.014857 
L 144.127393 146.02931 
L 145.01992 145.999868 
L 145.555437 145.835785 
L 146.447964 145.777994 
L 146.62647 145.608682 
L 146.804975 145.73976 
L 146.983481 145.579422 
L 147.161986 145.641541 
L 147.518997 145.625502 
L 148.233019 145.6005 
L 148.947041 145.509839 
L 149.125546 145.203077 
L 150.55359 145.107216 
L 150.910601 144.883342 
L 151.089107 144.612944 
L 151.446118 144.472197 
L 151.624623 144.313265 
L 151.803129 144.305945 
L 152.338645 142.994575 
L 152.695656 141.712724 
L 152.874162 141.010634 
L 153.409678 140.359555 
L 153.766689 140.359084 
L 153.945195 140.489679 
L 154.837722 142.339961 
L 155.730249 143.252233 
L 156.08726 143.348586 
L 156.265766 143.439034 
L 156.622777 143.347879 
L 156.979788 143.414004 
L 158.407832 143.292626 
L 158.586337 143.108661 
L 158.764843 143.292155 
L 159.121854 143.291684 
L 159.478865 143.169829 
L 160.549897 143.030501 
L 160.728403 142.852676 
L 160.906908 142.852441 
L 161.263919 143.067344 
L 162.156447 143.097811 
L 162.870469 143.517226 
L 163.048974 143.631762 
L 163.405985 144.034172 
L 163.941502 144.225697 
L 164.477018 144.409664 
L 165.012535 144.590325 
L 165.369546 144.664006 
L 165.548051 144.859308 
L 166.797589 145.059336 
L 167.868622 145.232197 
L 169.296666 145.323311 
L 169.653677 145.453649 
L 172.152754 145.545059 
L 173.223787 145.724877 
L 174.116314 145.67351 
L 174.29482 145.920267 
L 175.544358 145.969913 
L 176.25838 145.984446 
L 178.043435 146.239213 
L 178.400446 146.205151 
L 178.578951 145.964008 
L 178.935962 145.966313 
L 179.114468 146.265021 
L 182.149061 146.254852 
L 182.327567 146.383055 
L 182.863083 146.344948 
L 183.220094 146.344419 
L 183.934116 146.259765 
L 184.291127 146.357006 
L 184.826643 146.441706 
L 185.36216 146.422971 
L 185.540665 146.244176 
L 185.719171 146.243914 
L 185.897676 146.422186 
L 188.396753 146.329274 
L 188.575259 146.260058 
L 188.93227 146.326136 
L 189.646292 146.410117 
L 189.824797 146.563832 
L 190.003303 146.409601 
L 190.717324 146.51815 
L 191.074335 146.517638 
L 191.252841 146.310039 
L 191.966863 146.309019 
L 192.145368 146.44479 
L 192.680885 146.416161 
L 193.751918 146.55303 
L 193.930423 146.382274 
L 194.287434 146.552275 
L 194.46594 146.540688 
L 194.644445 146.332148 
L 194.822951 146.406995 
L 195.179962 146.355484 
L 195.536973 146.405994 
L 195.715478 146.354735 
L 195.893984 146.484371 
L 196.072489 146.286696 
L 196.4295 146.302729 
L 196.608005 146.460705 
L 197.857544 146.477863 
L 198.214555 146.598754 
L 198.750071 146.50639 
L 202.498686 146.394552 
L 202.677192 146.354638 
L 203.034203 146.492075 
L 204.640752 146.430897 
L 205.354774 146.186714 
L 205.53328 146.483089 
L 206.068796 146.482382 
L 206.247302 146.482148 
L 206.425807 146.618411 
L 206.604313 146.476484 
L 206.961324 146.589844 
L 208.032357 146.451479 
L 208.210862 146.451247 
L 208.389367 146.260674 
L 208.567873 146.515018 
L 209.103389 146.486457 
L 209.4604 146.485995 
L 209.638906 146.457899 
L 209.817411 146.56819 
L 210.174422 146.514831 
L 210.888444 146.538474 
L 211.423961 146.511341 
L 212.137983 146.545857 
L 213.03051 146.617465 
L 213.566027 146.659302 
L 215.351081 146.550348 
L 215.529587 146.238877 
L 215.886598 146.23844 
L 216.065103 146.5712 
L 220.17073 146.602659 
L 220.349235 146.444226 
L 220.52774 146.444018 
L 220.884751 146.570181 
L 224.454861 146.642623 
L 224.811872 146.743299 
L 224.990378 146.642026 
L 225.168883 146.752348 
L 225.525894 146.613094 
L 227.310949 146.536995 
L 227.846465 146.491073 
L 228.203476 146.628602 
L 229.453015 146.608846 
L 229.810026 146.477639 
L 229.988531 146.477451 
L 230.167037 146.608093 
L 230.345542 146.587596 
L 230.702553 146.693492 
L 231.059564 146.691231 
L 231.23807 146.691046 
L 231.416575 146.425895 
L 231.773586 146.526129 
L 231.952092 146.354969 
L 232.309102 146.614845 
L 235.879212 146.553175 
L 236.236223 146.432388 
L 236.593234 146.55248 
L 237.307256 146.587212 
L 238.378289 146.482279 
L 238.7353 146.48194 
L 239.449322 146.507243 
L 241.055871 146.483544 
L 241.412882 146.483214 
L 243.376443 146.437022 
L 243.554948 146.366014 
L 243.911959 146.436539 
L 244.26897 146.299246 
L 244.982992 146.198002 
L 245.340003 146.159896 
L 245.518508 145.988287 
L 246.23253 145.973946 
L 246.411036 145.800446 
L 246.589541 145.838541 
L 246.946552 145.703135 
L 247.482069 145.68753 
L 247.660574 145.470574 
L 249.088618 145.40217 
L 249.445629 145.023981 
L 249.624135 144.661075 
L 249.80264 144.641539 
L 249.981146 144.143078 
L 250.159651 144.06592 
L 250.338156 143.25479 
L 250.695167 140.393658 
L 251.052178 135.112876 
L 251.944706 114.243896 
L 252.123211 113.077588 
L 252.480222 113.077244 
L 252.658728 114.460471 
L 253.194244 124.373292 
L 253.729761 133.922907 
L 254.265277 140.254666 
L 254.622288 142.481741 
L 255.157805 143.55715 
L 255.33631 143.802107 
L 255.514816 143.801935 
L 255.693321 143.556634 
L 256.050332 143.465134 
L 256.764354 142.419222 
L 256.942859 142.264604 
L 257.29987 142.26426 
L 257.478376 142.512524 
L 257.656881 142.54258 
L 257.835387 142.847993 
L 258.370903 144.167587 
L 258.549409 144.22976 
L 258.90642 144.911906 
L 259.620442 145.602203 
L 259.977453 145.672227 
L 260.334464 145.848991 
L 261.048486 145.848283 
L 261.584002 146.127356 
L 262.476529 146.131187 
L 262.655035 146.321822 
L 262.83354 146.321643 
L 263.012046 146.124983 
L 263.369057 146.131238 
L 264.975606 146.226929 
L 265.332617 146.336149 
L 265.511123 146.23962 
L 266.046639 146.41762 
L 266.582156 146.412837 
L 266.939167 146.28307 
L 267.474683 146.293876 
L 267.653189 146.159563 
L 268.902727 146.402041 
L 269.259738 146.330371 
L 278.899034 146.360296 
L 279.07754 146.441366 
L 279.434551 146.441031 
L 283.361671 146.484651 
L 283.718682 146.361056 
L 284.075693 146.445278 
L 284.432704 146.538948 
L 284.789715 146.443694 
L 285.146726 146.387644 
L 285.682243 146.434872 
L 286.217759 146.4344 
L 286.57477 146.548385 
L 290.323385 146.554154 
L 290.501891 146.417979 
L 290.680396 146.528823 
L 291.215913 146.493427 
L 292.465451 146.582139 
L 293.000967 146.534946 
L 293.357978 146.573387 
L 293.714989 146.651031 
L 294.072 146.568091 
L 294.607517 146.567665 
L 294.786022 146.362069 
L 294.964528 146.590055 
L 299.962681 146.520144 
L 300.319692 146.455179 
L 300.498198 146.634057 
L 301.569231 146.522301 
L 302.104747 146.360867 
L 302.283253 146.609178 
L 303.354286 146.507833 
L 304.068308 146.589998 
L 305.13934 146.655874 
L 306.031868 146.597665 
L 306.74589 146.479596 
L 308.530945 146.434063 
L 310.315999 145.506267 
L 310.494505 145.131138 
L 312.27956 145.237158 
L 312.993582 145.951737 
L 313.350593 145.998244 
L 313.707604 146.117013 
L 313.886109 146.13389 
L 314.24312 146.323033 
L 316.028175 146.423318 
L 316.385186 146.387644 
L 322.097361 146.394145 
L 322.275867 146.240526 
L 322.632878 146.200144 
L 322.989889 146.034127 
L 323.882416 145.712835 
L 324.239427 145.470771 
L 324.953449 145.206263 
L 326.559999 144.998712 
L 327.095515 144.941158 
L 327.988043 144.705248 
L 328.523559 144.406793 
L 328.88057 144.275678 
L 329.059075 144.247669 
L 329.237581 144.044433 
L 329.416086 144.044291 
L 329.594592 143.805632 
L 330.130108 143.875107 
L 330.84413 144.020009 
L 331.201141 143.852054 
L 333.343207 143.551373 
L 333.700218 143.439623 
L 334.235734 143.175174 
L 334.41424 142.583698 
L 334.592745 142.507041 
L 334.771251 141.863139 
L 334.949756 141.786482 
L 335.485273 140.212314 
L 335.663778 139.231182 
L 336.020789 135.988482 
L 336.3778 129.059393 
L 337.091822 105.908496 
L 337.627339 91.444959 
L 337.805844 90.314577 
L 338.162855 90.314292 
L 338.519866 96.827177 
L 339.769405 128.137099 
L 340.304921 135.611939 
L 340.840437 139.39189 
L 341.197448 140.58797 
L 341.732965 141.424005 
L 342.089976 141.543688 
L 343.51802 140.480321 
L 345.124569 137.708463 
L 345.660086 137.356637 
L 346.017097 137.387052 
L 346.195602 137.655183 
L 346.374107 137.657874 
L 346.731118 138.238532 
L 346.909624 138.257755 
L 347.980657 140.205656 
L 348.159162 140.277305 
L 348.516173 141.112066 
L 348.873184 141.692252 
L 349.230195 141.966852 
L 349.408701 142.369119 
L 349.587206 142.372755 
L 349.765712 142.620576 
L 349.944217 142.62988 
L 351.01525 143.428648 
L 351.372261 143.494015 
L 351.729272 143.731303 
L 351.907778 143.873798 
L 352.621799 143.933212 
L 352.800305 144.141359 
L 354.228349 144.488786 
L 354.763865 144.582349 
L 356.013404 144.73815 
L 356.370415 144.863022 
L 357.619953 144.907787 
L 357.976964 145.002412 
L 358.869491 145.108834 
L 359.226502 145.279489 
L 359.762019 145.428249 
L 361.011557 145.581526 
L 362.261096 145.657787 
L 362.796612 145.859888 
L 364.04615 145.773172 
L 365.117183 146.111697 
L 365.6527 146.022368 
L 366.545227 145.990773 
L 367.794766 146.139237 
L 368.687293 146.431171 
L 369.401315 146.251449 
L 369.936832 146.405831 
L 371.364875 146.511627 
L 371.900392 146.5111 
L 372.257403 146.396923 
L 372.971425 146.468962 
L 373.863952 146.652299 
L 376.72004 146.589627 
L 376.898545 146.806254 
L 377.434062 146.805765 
L 377.791073 146.704368 
L 377.969578 146.64564 
L 378.326589 146.787958 
L 378.505095 146.69806 
L 378.862106 146.787483 
L 381.896699 146.851487 
L 382.25371 146.894175 
L 386.894853 146.906658 
L 387.251864 147.017395 
L 387.430369 147.017268 
L 387.608875 146.867892 
L 388.322896 146.940604 
L 388.858413 146.989361 
L 390.464962 146.813554 
L 391.000479 146.871311 
L 393.32105 146.88362 
L 393.499556 147.002541 
L 393.678061 146.799819 
L 395.463116 146.894726 
L 395.820127 146.984279 
L 396.177138 146.88255 
L 396.712654 146.795847 
L 397.069665 146.878796 
L 398.676215 146.794896 
L 398.85472 146.725383 
L 399.747248 146.96633 
L 401.175291 146.988866 
L 401.353797 146.723355 
L 401.532302 146.874894 
L 404.566896 146.949338 
L 404.745401 147.011151 
L 405.102412 146.913266 
L 409.743555 146.809043 
L 410.100566 146.741897 
L 410.279071 146.913781 
L 412.064126 146.820869 
L 412.242631 146.760384 
L 412.599642 146.823144 
L 412.956653 146.823089 
L 413.49217 146.946757 
L 418.133312 146.858988 
L 418.490323 146.760738 
L 418.668829 146.760734 
L 418.847334 146.941626 
L 419.382851 147.009634 
L 419.382851 147.009634 
" clip-path="url(#p9cc43d858a)" style="fill: none; stroke: #9e2f7f; stroke-linecap: round"/>
   </g>
   <g id="line2d_22">
    <path d="M 53.982123 88.493499 
L 57.016716 88.546588 
L 57.730738 88.749749 
L 58.44476 88.652317 
L 59.337287 88.600063 
L 59.694298 88.521276 
L 60.051309 88.562724 
L 60.40832 88.649374 
L 60.586826 88.579455 
L 60.943837 88.608314 
L 61.479353 88.652532 
L 61.836364 88.728453 
L 63.264408 88.627138 
L 65.584979 88.760488 
L 65.94199 88.715678 
L 71.47566 88.74268 
L 72.368188 88.728882 
L 73.260715 88.808738 
L 73.617726 88.938169 
L 73.796232 88.938106 
L 74.153243 88.823339 
L 74.331748 88.755702 
L 74.867265 88.85011 
L 76.652319 88.778123 
L 76.830825 88.862402 
L 77.187836 88.813323 
L 77.544847 88.813175 
L 77.723352 88.813099 
L 77.901858 88.955161 
L 78.794385 88.869492 
L 79.151396 88.752827 
L 80.222429 88.83482 
L 80.57944 88.748902 
L 81.114957 88.748642 
L 81.293462 88.91772 
L 86.470121 88.929394 
L 86.827132 88.802894 
L 88.255176 88.712562 
L 88.612187 88.611682 
L 89.147703 88.659815 
L 89.504714 88.772835 
L 90.575747 88.774942 
L 90.754253 88.774825 
L 91.111264 88.968454 
L 97.894472 88.853574 
L 98.965505 88.822442 
L 99.144011 88.822301 
L 99.322516 88.974548 
L 100.036538 88.98376 
L 100.215044 88.856857 
L 100.393549 88.982538 
L 100.75056 88.856419 
L 101.107571 88.974494 
L 103.606648 88.857726 
L 103.963659 88.630459 
L 104.32067 88.335617 
L 104.499175 88.307963 
L 104.677681 87.937783 
L 104.856186 87.256764 
L 105.391703 83.283441 
L 105.570208 81.529636 
L 105.748714 81.061125 
L 105.927219 81.060967 
L 106.105725 81.529163 
L 106.28423 81.576073 
L 106.641241 82.34423 
L 106.998252 84.831547 
L 107.176757 85.823087 
L 107.533768 86.270154 
L 108.069285 88.502864 
L 108.783307 88.762735 
L 109.497329 88.79098 
L 109.85434 88.92114 
L 110.925373 89.012887 
L 111.282384 89.085718 
L 113.067438 89.113379 
L 113.78146 89.116416 
L 114.138471 88.945504 
L 114.495482 89.052806 
L 117.530076 88.953765 
L 118.422603 88.840998 
L 124.8488 89.279975 
L 125.027306 89.149288 
L 125.384317 89.220188 
L 125.919833 89.219583 
L 126.633855 89.25419 
L 126.812361 89.344395 
L 127.169372 89.253579 
L 128.240405 89.339963 
L 128.41891 89.404536 
L 128.775921 89.261522 
L 129.311438 89.303313 
L 130.917987 89.261375 
L 131.274998 89.141658 
L 131.632009 89.194833 
L 131.98902 89.381756 
L 135.380624 89.301799 
L 135.737635 89.168559 
L 136.273152 89.243417 
L 136.630162 89.360428 
L 138.415217 89.338253 
L 138.772228 89.241357 
L 138.950734 89.400988 
L 139.664756 89.30599 
L 140.557283 89.242929 
L 140.735789 89.307024 
L 140.914294 89.242496 
L 141.449811 89.386778 
L 142.877854 89.270393 
L 144.484404 89.294519 
L 145.198426 89.260085 
L 145.555437 89.088148 
L 146.804975 88.981735 
L 150.55359 88.42514 
L 151.089107 88.07678 
L 151.446118 87.835841 
L 151.981634 87.243751 
L 152.338645 86.378807 
L 152.517151 85.411107 
L 152.695656 85.118209 
L 153.052667 84.235556 
L 153.409678 83.645099 
L 153.766689 83.644628 
L 154.302205 84.611387 
L 155.373238 86.469408 
L 155.908755 86.715228 
L 156.08726 86.669789 
L 156.265766 86.744117 
L 156.622777 86.632267 
L 157.336799 86.69983 
L 158.407832 86.633641 
L 158.764843 86.63317 
L 159.478865 86.656928 
L 160.014381 86.474938 
L 160.549897 86.3526 
L 160.906908 86.215584 
L 161.442425 86.273131 
L 162.156447 86.32252 
L 162.513458 86.74147 
L 164.477018 87.808871 
L 165.369546 87.939578 
L 165.726557 88.100818 
L 166.083568 88.196814 
L 166.619084 88.209156 
L 166.976095 88.341968 
L 169.296666 88.63106 
L 169.475172 88.800914 
L 172.509765 88.859099 
L 172.68827 89.008902 
L 173.045281 89.008387 
L 176.25838 89.269324 
L 176.972402 89.340505 
L 177.329413 89.487242 
L 178.400446 89.491253 
L 178.757457 89.351851 
L 178.935962 89.264907 
L 179.114468 89.564762 
L 179.471479 89.593128 
L 179.82849 89.509182 
L 180.721017 89.413261 
L 181.256534 89.512665 
L 182.149061 89.49783 
L 182.327567 89.709141 
L 182.863083 89.653359 
L 183.220094 89.652832 
L 183.577105 89.544655 
L 183.934116 89.535741 
L 184.112622 89.700451 
L 186.968709 89.721441 
L 187.147215 89.558074 
L 187.32572 89.557814 
L 187.504226 89.688042 
L 187.682731 89.577801 
L 188.218248 89.608714 
L 188.575259 89.608197 
L 189.289281 89.645844 
L 189.646292 89.645795 
L 189.824797 89.830083 
L 190.003303 89.680232 
L 190.181808 89.829569 
L 190.538819 89.774066 
L 191.788357 89.671621 
L 192.680885 89.675013 
L 193.751918 89.790005 
L 193.930423 89.608471 
L 194.287434 89.789252 
L 194.822951 89.716733 
L 195.715478 89.740651 
L 195.893984 89.845258 
L 196.072489 89.675843 
L 197.679038 89.742589 
L 198.571566 89.86579 
L 199.107082 89.69589 
L 199.464093 89.806316 
L 200.892137 89.772218 
L 201.427654 89.719299 
L 204.819258 89.610381 
L 205.176269 89.488744 
L 205.354774 89.488508 
L 205.711785 89.793282 
L 208.210862 89.75786 
L 208.389367 89.569821 
L 208.567873 89.717785 
L 209.638906 89.684709 
L 209.817411 89.853179 
L 210.531433 89.898396 
L 215.351081 89.835961 
L 215.529587 89.590149 
L 215.886598 89.589713 
L 216.065103 89.876566 
L 224.454861 89.911056 
L 224.811872 89.991747 
L 224.990378 89.919315 
L 225.168883 89.991352 
L 225.7044 89.847694 
L 226.239916 89.847109 
L 226.596927 89.947382 
L 226.953938 89.946996 
L 227.132443 89.766918 
L 230.345542 89.825476 
L 230.524048 89.980475 
L 231.23807 89.983462 
L 231.416575 89.804324 
L 231.773586 89.842638 
L 231.952092 89.770221 
L 232.309102 89.861196 
L 233.20163 89.861221 
L 234.986685 89.87202 
L 235.343696 90.000756 
L 235.522201 89.827221 
L 235.700707 89.89928 
L 236.236223 89.785514 
L 236.950245 89.896202 
L 237.307256 89.829683 
L 239.806333 89.750421 
L 240.163344 89.750087 
L 244.447475 89.655766 
L 246.411036 89.118544 
L 246.768047 89.047385 
L 247.303563 88.972799 
L 247.482069 88.972635 
L 247.660574 88.795382 
L 249.088618 88.72275 
L 249.445629 88.415301 
L 249.624135 88.050701 
L 249.80264 87.964781 
L 250.338156 86.529848 
L 250.873673 81.486495 
L 251.230684 74.211526 
L 251.944706 57.770466 
L 252.123211 56.418827 
L 252.480222 56.418485 
L 252.658728 57.938016 
L 253.015739 63.776482 
L 253.729761 77.458712 
L 254.265277 83.525824 
L 254.622288 85.793152 
L 255.157805 87.004766 
L 255.33631 87.152324 
L 255.514816 87.152153 
L 256.228837 86.46455 
L 256.585848 85.758183 
L 257.29987 85.613497 
L 257.835387 86.187124 
L 258.192398 87.020032 
L 258.370903 87.459321 
L 258.549409 87.583578 
L 258.90642 88.279941 
L 259.263431 88.549423 
L 259.620442 88.898126 
L 259.798947 88.89795 
L 259.977453 89.08465 
L 261.584002 89.36686 
L 261.941013 89.444328 
L 264.083079 89.473872 
L 264.261584 89.580413 
L 264.44009 89.503806 
L 264.797101 89.579877 
L 266.225145 89.678182 
L 266.582156 89.677828 
L 266.939167 89.558638 
L 267.296178 89.61747 
L 267.474683 89.617293 
L 267.653189 89.400882 
L 268.0102 89.531482 
L 268.36721 89.615945 
L 268.724221 89.687826 
L 269.259738 89.613202 
L 269.795254 89.555822 
L 271.580309 89.681771 
L 271.758815 89.440663 
L 272.294331 89.524959 
L 273.008353 89.666404 
L 277.649496 89.598124 
L 278.185012 89.541698 
L 278.720529 89.593855 
L 279.434551 89.746975 
L 287.110286 89.833255 
L 287.645803 89.875665 
L 288.359825 89.838236 
L 294.786022 89.744876 
L 295.143033 89.863897 
L 296.214066 89.782439 
L 296.571077 89.865581 
L 297.463605 89.82249 
L 297.820616 89.925677 
L 298.177626 89.861564 
L 298.713143 89.938058 
L 299.427165 89.890929 
L 299.784176 89.809114 
L 300.319692 89.710861 
L 300.498198 89.984288 
L 301.747736 89.756912 
L 302.283253 89.828303 
L 302.640264 89.966463 
L 302.997275 89.860428 
L 304.782329 89.85595 
L 304.960835 90.018939 
L 305.13934 89.855712 
L 306.74589 89.823439 
L 307.102901 89.77987 
L 308.530945 89.693217 
L 309.244967 89.436457 
L 309.423472 89.436345 
L 309.780483 89.08707 
L 310.315999 88.792205 
L 310.494505 88.403427 
L 312.101054 88.438709 
L 312.27956 88.535052 
L 312.636571 88.980322 
L 312.815076 89.024935 
L 312.993582 89.268074 
L 314.957142 89.58638 
L 315.492659 89.586003 
L 315.84967 89.74653 
L 317.81323 89.758678 
L 318.170241 89.629345 
L 322.454372 89.553308 
L 323.3469 89.096484 
L 323.703911 89.062693 
L 324.060922 88.702684 
L 325.667471 88.39633 
L 326.381493 88.31053 
L 327.274021 88.162126 
L 327.809537 88.069437 
L 330.130108 87.081499 
L 330.308614 87.247263 
L 331.022636 87.22899 
L 331.379647 87.131309 
L 333.164702 87.022249 
L 333.521713 86.669653 
L 333.878724 86.669371 
L 334.057229 86.597463 
L 334.235734 86.381087 
L 334.41424 85.903738 
L 334.592745 85.809926 
L 334.771251 85.157818 
L 334.949756 84.986181 
L 335.485273 83.628698 
L 335.663778 82.604703 
L 336.199295 76.644306 
L 336.556306 67.672607 
L 337.627339 34.8707 
L 337.805844 33.6095 
L 338.162855 33.609218 
L 338.519866 40.56387 
L 339.94791 74.580591 
L 340.483426 80.367248 
L 340.840437 82.63184 
L 341.197448 84.007259 
L 341.375954 84.24945 
L 341.554459 84.716731 
L 342.089976 84.823494 
L 342.446987 84.748182 
L 342.982503 84.282202 
L 343.161009 84.243381 
L 343.339514 83.865761 
L 343.51802 83.854901 
L 344.410547 82.280901 
L 345.48158 80.738916 
L 346.017097 80.820514 
L 346.909624 81.692671 
L 347.44514 82.667635 
L 348.159162 83.693255 
L 348.516173 84.478689 
L 348.694679 84.600646 
L 349.05169 85.165651 
L 349.408701 85.623936 
L 350.122723 86.203105 
L 350.301228 86.23046 
L 351.01525 86.829668 
L 351.550767 86.967188 
L 351.729272 87.158583 
L 352.621799 87.174655 
L 352.800305 87.431293 
L 353.157316 87.513031 
L 355.299382 87.9508 
L 355.477887 87.974425 
L 355.656393 88.137856 
L 357.619953 88.222906 
L 358.333975 88.406363 
L 358.869491 88.41474 
L 359.226502 88.540711 
L 359.583513 88.637319 
L 360.11903 88.700671 
L 361.190063 88.810578 
L 361.368568 88.953011 
L 362.261096 89.003416 
L 362.796612 89.119868 
L 363.153623 89.119519 
L 363.68914 89.164198 
L 364.403161 89.134599 
L 364.581667 89.323161 
L 365.474194 89.348369 
L 365.831205 89.259001 
L 366.723733 89.309835 
L 367.259249 89.417879 
L 367.973271 89.512228 
L 368.330282 89.604607 
L 369.22281 89.610236 
L 369.401315 89.51825 
L 370.115337 89.767323 
L 370.829359 89.774535 
L 371.900392 89.73806 
L 372.257403 89.64637 
L 372.792919 89.739052 
L 373.14993 89.826317 
L 373.328436 89.826144 
L 373.506941 89.979294 
L 376.898545 90.018047 
L 377.077051 90.108292 
L 377.434062 90.017559 
L 377.791073 89.974829 
L 377.969578 89.873541 
L 378.326589 90.03866 
L 378.6836 90.043935 
L 379.576128 90.151736 
L 380.468655 90.058695 
L 381.896699 90.105033 
L 382.075204 90.253082 
L 382.610721 90.176218 
L 383.146237 90.067204 
L 384.574281 90.108022 
L 385.466809 90.238757 
L 386.359336 90.205004 
L 386.537842 90.11493 
L 387.073358 90.267864 
L 390.286457 90.161287 
L 390.643468 90.18203 
L 398.319204 90.07947 
L 399.033226 90.119213 
L 399.747248 90.2312 
L 405.459423 90.175428 
L 405.637929 90.111061 
L 405.994939 90.180388 
L 410.814588 90.216928 
L 411.171599 90.314258 
L 411.885621 90.216264 
L 412.242631 90.04331 
L 412.599642 90.123409 
L 412.956653 90.123354 
L 415.098719 90.227941 
L 415.45573 90.125381 
L 415.812741 90.267487 
L 416.526763 90.166772 
L 417.240785 90.15508 
L 417.597796 90.221705 
L 417.954807 90.210973 
L 418.311818 90.094923 
L 419.02584 90.185784 
L 419.382851 90.211879 
L 419.382851 90.211879 
" clip-path="url(#p9cc43d858a)" style="fill: none; stroke: #cd4071; stroke-linecap: round"/>
   </g>
   <g id="patch_3">
    <path d="M 39.366094 387.44888 
L 39.366094 20 
" style="fill: none; stroke: #000000; stroke-width: 0.75; stroke-linejoin: miter; stroke-linecap: square"/>
   </g>
   <g id="patch_4">
    <path d="M 39.366094 387.44888 
L 433.99888 387.44888 
" style="fill: none; stroke: #000000; stroke-width: 0.75; stroke-linejoin: miter; stroke-linecap: square"/>
   </g>
  </g>
 </g>
 <defs>
  <clipPath id="p9cc43d858a">
   <rect x="39.366094" y="20" width="394.632786" height="367.44888"/>
  </clipPath>
 </defs>
</svg>
