<?xml version="1.0" encoding="utf-8" standalone="no"?>
<!DOCTYPE svg PUBLIC "-//W3C//DTD SVG 1.1//EN"
  "http://www.w3.org/Graphics/SVG/1.1/DTD/svg11.dtd">
<svg xmlns:xlink="http://www.w3.org/1999/xlink" width="463.998828pt" height="463.99896pt" viewBox="0 0 463.998828 463.99896" xmlns="http://www.w3.org/2000/svg" version="1.1">
 <metadata>
  <rdf:RDF xmlns:dc="http://purl.org/dc/elements/1.1/" xmlns:cc="http://creativecommons.org/ns#" xmlns:rdf="http://www.w3.org/1999/02/22-rdf-syntax-ns#">
   <cc:Work>
    <dc:type rdf:resource="http://purl.org/dc/dcmitype/StillImage"/>
    <dc:date>2025-02-07T20:39:48.974587</dc:date>
    <dc:format>image/svg+xml</dc:format>
    <dc:creator>
     <cc:Agent>
      <dc:title>Matplotlib v3.8.4, https://matplotlib.org/</dc:title>
     </cc:Agent>
    </dc:creator>
   </cc:Work>
  </rdf:RDF>
 </metadata>
 <defs>
  <style type="text/css">*{stroke-linejoin: round; stroke-linecap: butt}</style>
 </defs>
 <g id="figure_1">
  <g id="patch_1">
   <path d="M 0 463.99896 
L 463.998828 463.99896 
L 463.998828 -0 
L 0 -0 
L 0 463.99896 
z
" style="fill: none"/>
  </g>
  <g id="axes_1">
   <g id="patch_2">
    <path d="M 81.762344 397.163022 
L 430.956908 397.163022 
L 430.956908 20 
L 81.762344 20 
L 81.762344 397.163022 
z
" style="fill: none"/>
   </g>
   <g id="matplotlib.axis_1">
    <g id="xtick_1">
     <g id="line2d_1">
      <defs>
       <path id="m3e962eece9" d="M 0 0 
L 0 5 
" style="stroke: #000000; stroke-width: 0.75"/>
      </defs>
      <g>
       <use xlink:href="#m3e962eece9" x="85.093516" y="397.163022" style="stroke: #000000; stroke-width: 0.75"/>
      </g>
     </g>
     <g id="text_1">
      <text style="font: 14.5px &quot;Suisse Int&apos;l Mono&quot;; text-anchor: middle" x="85.093516" y="417.675522" transform="rotate(-0 85.093516 417.675522)">540</text>
     </g>
    </g>
    <g id="xtick_2">
     <g id="line2d_2">
      <g>
       <use xlink:href="#m3e962eece9" x="142.569545" y="397.163022" style="stroke: #000000; stroke-width: 0.75"/>
      </g>
     </g>
     <g id="text_2">
      <text style="font: 14.5px &quot;Suisse Int&apos;l Mono&quot;; text-anchor: middle" x="142.569545" y="417.675522" transform="rotate(-0 142.569545 417.675522)">560</text>
     </g>
    </g>
    <g id="xtick_3">
     <g id="line2d_3">
      <g>
       <use xlink:href="#m3e962eece9" x="200.045573" y="397.163022" style="stroke: #000000; stroke-width: 0.75"/>
      </g>
     </g>
     <g id="text_3">
      <text style="font: 14.5px &quot;Suisse Int&apos;l Mono&quot;; text-anchor: middle" x="200.045573" y="417.675522" transform="rotate(-0 200.045573 417.675522)">580</text>
     </g>
    </g>
    <g id="xtick_4">
     <g id="line2d_4">
      <g>
       <use xlink:href="#m3e962eece9" x="257.521602" y="397.163022" style="stroke: #000000; stroke-width: 0.75"/>
      </g>
     </g>
     <g id="text_4">
      <text style="font: 14.5px &quot;Suisse Int&apos;l Mono&quot;; text-anchor: middle" x="257.521602" y="417.675522" transform="rotate(-0 257.521602 417.675522)">600</text>
     </g>
    </g>
    <g id="xtick_5">
     <g id="line2d_5">
      <g>
       <use xlink:href="#m3e962eece9" x="314.99763" y="397.163022" style="stroke: #000000; stroke-width: 0.75"/>
      </g>
     </g>
     <g id="text_5">
      <text style="font: 14.5px &quot;Suisse Int&apos;l Mono&quot;; text-anchor: middle" x="314.99763" y="417.675522" transform="rotate(-0 314.99763 417.675522)">620</text>
     </g>
    </g>
    <g id="xtick_6">
     <g id="line2d_6">
      <g>
       <use xlink:href="#m3e962eece9" x="372.473659" y="397.163022" style="stroke: #000000; stroke-width: 0.75"/>
      </g>
     </g>
     <g id="text_6">
      <text style="font: 14.5px &quot;Suisse Int&apos;l Mono&quot;; text-anchor: middle" x="372.473659" y="417.675522" transform="rotate(-0 372.473659 417.675522)">640</text>
     </g>
    </g>
    <g id="xtick_7">
     <g id="line2d_7">
      <g>
       <use xlink:href="#m3e962eece9" x="429.949687" y="397.163022" style="stroke: #000000; stroke-width: 0.75"/>
      </g>
     </g>
     <g id="text_7">
      <text style="font: 14.5px &quot;Suisse Int&apos;l Mono&quot;; text-anchor: middle" x="429.949687" y="417.675522" transform="rotate(-0 429.949687 417.675522)">660</text>
     </g>
    </g>
    <g id="text_8">
     <text style="font: 500 15px &quot;Suisse Int&apos;l&quot;, sans-serif; text-anchor: middle" x="256.359626" y="441.088022" transform="rotate(-0 256.359626 441.088022)">Wavelength (nm)</text>
    </g>
   </g>
   <g id="matplotlib.axis_2">
    <g id="ytick_1">
     <g id="line2d_8">
      <defs>
       <path id="m0633eddcd7" d="M 0 0 
L -5 0 
" style="stroke: #000000; stroke-width: 0.75"/>
      </defs>
      <g>
       <use xlink:href="#m0633eddcd7" x="81.762344" y="383.012315" style="stroke: #000000; stroke-width: 0.75"/>
      </g>
     </g>
     <g id="text_9">
      <text style="font: 14.5px &quot;Suisse Int&apos;l Mono&quot;; text-anchor: end" x="71.762344" y="388.268565" transform="rotate(-0 71.762344 388.268565)">0.0</text>
     </g>
    </g>
    <g id="ytick_2">
     <g id="line2d_9">
      <g>
       <use xlink:href="#m0633eddcd7" x="81.762344" y="306.559162" style="stroke: #000000; stroke-width: 0.75"/>
      </g>
     </g>
     <g id="text_10">
      <text style="font: 14.5px &quot;Suisse Int&apos;l Mono&quot;; text-anchor: end" x="71.762344" y="311.815412" transform="rotate(-0 71.762344 311.815412)">0.5</text>
     </g>
    </g>
    <g id="ytick_3">
     <g id="line2d_10">
      <g>
       <use xlink:href="#m0633eddcd7" x="81.762344" y="230.10601" style="stroke: #000000; stroke-width: 0.75"/>
      </g>
     </g>
     <g id="text_11">
      <text style="font: 14.5px &quot;Suisse Int&apos;l Mono&quot;; text-anchor: end" x="71.762344" y="235.36226" transform="rotate(-0 71.762344 235.36226)">1.0</text>
     </g>
    </g>
    <g id="ytick_4">
     <g id="line2d_11">
      <g>
       <use xlink:href="#m0633eddcd7" x="81.762344" y="153.652858" style="stroke: #000000; stroke-width: 0.75"/>
      </g>
     </g>
     <g id="text_12">
      <text style="font: 14.5px &quot;Suisse Int&apos;l Mono&quot;; text-anchor: end" x="71.762344" y="158.909108" transform="rotate(-0 71.762344 158.909108)">1.5</text>
     </g>
    </g>
    <g id="ytick_5">
     <g id="line2d_12">
      <g>
       <use xlink:href="#m0633eddcd7" x="81.762344" y="77.199705" style="stroke: #000000; stroke-width: 0.75"/>
      </g>
     </g>
     <g id="text_13">
      <text style="font: 14.5px &quot;Suisse Int&apos;l Mono&quot;; text-anchor: end" x="71.762344" y="82.455955" transform="rotate(-0 71.762344 82.455955)">2.0</text>
     </g>
    </g>
    <g id="text_14">
     <text style="font: 500 15px &quot;Suisse Int&apos;l&quot;, sans-serif; text-anchor: middle" x="30.875" y="208.581511" transform="rotate(-90 30.875 208.581511)">Intensity (au)</text>
    </g>
   </g>
   <g id="line2d_13">
    <path d="M 94.695476 382.932917 
L 95.01138 382.797893 
L 95.169333 382.521089 
L 95.327285 382.593799 
L 95.485237 382.321659 
L 95.643189 382.455027 
L 95.801142 382.284613 
L 96.117046 382.532675 
L 96.274998 382.393053 
L 96.432951 382.45315 
L 96.748855 382.983984 
L 97.06476 382.774717 
L 97.222712 382.403164 
L 98.012473 383.142684 
L 98.170426 382.989507 
L 98.328378 383.194022 
L 98.48633 382.84927 
L 98.644283 382.837013 
L 98.802235 382.557836 
L 98.960187 382.712164 
L 99.118139 382.377454 
L 99.749948 382.270982 
L 99.907901 382.578823 
L 100.065853 382.476486 
L 100.223805 382.524404 
L 100.381758 382.396863 
L 100.855614 382.648389 
L 101.013567 382.38598 
L 101.171519 382.810928 
L 101.803328 382.23863 
L 102.277185 382.543288 
L 102.435137 382.128731 
L 102.593089 382.145813 
L 103.066946 382.96047 
L 103.540803 382.756427 
L 104.01466 382.432899 
L 104.330564 382.677462 
L 104.646469 383.194015 
L 104.804421 383.067556 
L 104.962373 382.783452 
L 105.43623 383.063228 
L 105.752135 382.687585 
L 105.910087 382.436296 
L 106.068039 382.472919 
L 106.383944 382.700616 
L 106.541896 382.774095 
L 106.699848 382.477525 
L 106.857801 382.461871 
L 107.015753 382.707997 
L 107.173705 382.572875 
L 107.331658 382.715869 
L 107.48961 382.438414 
L 107.647562 382.796054 
L 107.963467 382.320459 
L 108.121419 382.13492 
L 108.91118 382.551566 
L 109.069132 382.949774 
L 109.227085 382.705417 
L 109.542989 382.756128 
L 109.858894 382.015871 
L 110.016846 382.481723 
L 110.174798 382.447334 
L 110.332751 382.722791 
L 110.490703 382.513405 
L 110.96456 382.88664 
L 111.280464 382.158924 
L 111.438417 382.136174 
L 112.070226 382.92782 
L 112.38613 382.346114 
L 112.702035 382.547417 
L 112.859987 382.39911 
L 113.175892 382.711918 
L 113.491796 382.226757 
L 113.649748 382.264623 
L 113.807701 382.584334 
L 114.123605 382.656778 
L 114.43951 382.263032 
L 114.597462 382.395137 
L 114.913367 382.234223 
L 115.071319 382.382182 
L 115.229271 382.23522 
L 115.545176 382.658976 
L 115.703128 382.601599 
L 116.176985 382.94461 
L 116.334937 382.939481 
L 116.492889 382.618898 
L 116.650842 382.683289 
L 116.966746 381.99964 
L 117.124698 382.087353 
L 117.440603 382.44522 
L 117.598555 382.086813 
L 117.756507 382.221641 
L 117.91446 382.146476 
L 118.230364 382.251735 
L 118.388317 382.057635 
L 118.546269 382.494359 
L 118.704221 382.397241 
L 119.178078 382.960282 
L 119.651935 382.540076 
L 119.809887 382.424264 
L 119.967839 382.653295 
L 120.125792 382.438547 
L 120.283744 382.460849 
L 120.441696 382.236293 
L 120.599648 382.561435 
L 121.231457 382.513838 
L 122.021219 382.176245 
L 122.337123 382.719113 
L 122.495076 382.607895 
L 122.968932 382.655462 
L 123.126885 382.274509 
L 123.284837 382.569247 
L 123.600742 382.586141 
L 123.916646 382.409828 
L 124.074598 382.730676 
L 124.232551 382.494818 
L 124.706407 382.368647 
L 124.86436 382.010044 
L 125.496169 382.637666 
L 125.654121 382.420898 
L 125.970026 382.458185 
L 126.127978 382.420126 
L 126.443882 382.248799 
L 126.601835 382.314787 
L 126.759787 382.250577 
L 126.917739 382.410663 
L 127.075691 382.326378 
L 127.233644 382.46141 
L 127.549548 382.360015 
L 127.707501 382.450236 
L 127.865453 382.226404 
L 128.181357 382.48335 
L 128.33931 382.304767 
L 128.497262 382.410363 
L 128.655214 382.268636 
L 128.813166 382.515148 
L 128.971119 382.324881 
L 129.129071 382.362796 
L 129.444976 382.626202 
L 129.602928 382.75183 
L 129.76088 382.462145 
L 130.076785 382.428729 
L 130.234737 382.270155 
L 130.392689 382.524087 
L 130.708594 382.459834 
L 130.866546 382.574227 
L 131.182451 382.549144 
L 131.340403 382.277143 
L 131.498355 382.406915 
L 131.656307 382.263693 
L 132.130164 382.663214 
L 132.288116 382.584835 
L 132.604021 382.319335 
L 132.761973 382.216209 
L 132.919926 382.403329 
L 133.077878 382.323992 
L 133.23583 382.427573 
L 133.393782 382.30063 
L 133.709687 382.440572 
L 133.867639 382.123225 
L 134.183544 382.25474 
L 134.341496 382.041905 
L 134.499448 382.284041 
L 134.657401 382.120661 
L 134.815353 382.218127 
L 134.973305 382.1336 
L 135.447162 382.97239 
L 135.921019 382.37622 
L 136.078971 382.218861 
L 136.394876 382.177115 
L 136.552828 382.431785 
L 136.868732 382.187488 
L 137.184637 382.180689 
L 137.500541 382.674576 
L 137.974398 382.54812 
L 138.132351 382.239972 
L 138.290303 382.40826 
L 138.448255 382.37822 
L 138.76416 382.848231 
L 138.922112 382.427132 
L 139.080064 382.412938 
L 139.395969 382.489998 
L 139.869825 382.771673 
L 140.18573 383.193849 
L 140.343682 382.967446 
L 140.501635 383.021338 
L 140.817539 382.1823 
L 140.975491 381.890867 
L 141.449348 382.733771 
L 141.765253 382.565702 
L 141.923205 382.637286 
L 142.23911 382.249869 
L 142.397062 382.32237 
L 142.555014 382.167146 
L 142.712966 382.325968 
L 143.028871 382.116292 
L 143.344775 382.173515 
L 143.818632 382.255114 
L 143.976585 382.084448 
L 144.450441 383.082937 
L 144.924298 382.389346 
L 145.08225 382.691355 
L 145.556107 382.370554 
L 146.029964 382.750137 
L 146.503821 382.663972 
L 146.661773 382.795143 
L 146.977678 382.605764 
L 147.13563 382.782653 
L 147.451535 382.688438 
L 147.767439 382.766859 
L 147.925391 382.370687 
L 148.241296 382.373008 
L 148.399248 382.791104 
L 148.715153 382.743466 
L 148.873105 382.272594 
L 149.031057 382.338354 
L 149.346962 382.838507 
L 149.504914 382.385352 
L 150.294675 382.527367 
L 150.452628 382.362569 
L 150.768532 382.77305 
L 151.558294 382.367528 
L 151.874198 382.595028 
L 152.821912 382.006303 
L 153.137816 382.381198 
L 153.453721 382.065447 
L 153.927578 382.931207 
L 154.08553 382.899774 
L 154.243482 382.41383 
L 154.559387 382.447539 
L 154.717339 382.625146 
L 154.875291 382.512499 
L 155.033244 382.883753 
L 155.191196 382.643239 
L 155.349148 382.842763 
L 155.5071 382.378722 
L 155.823005 382.85848 
L 155.980957 382.8508 
L 156.296862 382.415921 
L 156.454814 382.501093 
L 156.612766 382.367399 
L 156.928671 382.843823 
L 157.086623 382.81698 
L 157.244575 382.919857 
L 157.402528 382.766079 
L 157.56048 382.830219 
L 157.718432 382.407649 
L 158.034337 382.199931 
L 158.192289 382.358786 
L 158.666146 381.946379 
L 158.824098 382.304475 
L 159.455907 382.251048 
L 159.613859 382.465869 
L 159.771812 382.074523 
L 160.087716 382.496685 
L 160.245669 383.121205 
L 160.403621 383.063494 
L 160.719525 382.779083 
L 161.03543 382.514316 
L 161.193382 382.549264 
L 161.351334 382.444135 
L 161.667239 382.797978 
L 162.141096 382.086116 
L 162.457 382.725651 
L 162.614953 382.770563 
L 162.930857 382.532333 
L 163.246762 382.707069 
L 163.404714 382.548515 
L 163.562666 382.927061 
L 163.720619 382.772235 
L 163.878571 382.799862 
L 164.036523 382.6273 
L 164.194475 382.241013 
L 164.51038 382.758229 
L 164.826284 382.657603 
L 165.142189 382.166859 
L 165.773998 382.859652 
L 165.93195 382.912452 
L 166.089903 382.435614 
L 166.405807 382.364814 
L 166.563759 382.64626 
L 166.879664 382.253469 
L 167.037616 382.189129 
L 167.195569 382.386105 
L 167.353521 381.989047 
L 167.511473 382.06236 
L 167.669425 381.910751 
L 167.827378 382.384906 
L 167.98533 382.266425 
L 168.143282 382.664512 
L 168.459187 382.674395 
L 168.617139 382.310924 
L 169.090996 382.365163 
L 169.248948 382.582651 
L 169.4069 382.345164 
L 169.722805 382.698583 
L 169.880757 382.921527 
L 170.038709 382.648565 
L 170.196662 382.824043 
L 170.354614 382.518882 
L 170.670518 382.633712 
L 170.986423 382.435424 
L 171.302328 382.870361 
L 171.46028 382.763514 
L 171.618232 382.866652 
L 171.776184 382.715472 
L 171.934137 383.041663 
L 172.092089 382.741155 
L 172.250041 383.047746 
L 172.407993 382.791567 
L 172.565946 382.830772 
L 172.723898 382.229745 
L 173.039803 382.687993 
L 173.197755 382.833122 
L 173.355707 382.750062 
L 173.513659 382.979651 
L 173.671612 382.909188 
L 173.829564 383.193625 
L 173.987516 382.720669 
L 174.303421 382.939528 
L 174.461373 383.193618 
L 174.619325 383.129921 
L 174.93523 382.797338 
L 175.093182 383.178026 
L 175.251134 383.193612 
L 175.724991 382.455735 
L 176.040896 382.70356 
L 176.198848 383.02976 
L 176.3568 382.922917 
L 176.514753 382.640618 
L 176.672705 382.594904 
L 177.146562 382.102646 
L 177.462466 382.479253 
L 177.620418 382.583796 
L 177.778371 382.506814 
L 177.936323 382.557691 
L 178.094275 382.478374 
L 178.568132 382.933385 
L 178.726084 382.881599 
L 178.884037 382.29691 
L 179.041989 382.548439 
L 179.199941 382.326328 
L 179.357893 382.373935 
L 179.515846 382.280617 
L 179.83175 382.711342 
L 179.989703 382.687552 
L 180.147655 382.826152 
L 180.463559 382.148138 
L 180.621512 382.025885 
L 180.937416 382.538737 
L 181.095368 382.300755 
L 181.569225 382.759479 
L 182.043082 382.268586 
L 182.358987 382.656372 
L 182.516939 382.656842 
L 182.674891 383.049755 
L 182.832843 382.853769 
L 182.990796 383.193551 
L 183.464653 382.762704 
L 183.622605 382.762254 
L 183.780557 382.939063 
L 184.096462 382.556922 
L 184.412366 381.954991 
L 184.570318 382.005404 
L 184.728271 382.245275 
L 184.886223 382.03577 
L 185.202128 381.249987 
L 185.518032 381.778249 
L 185.675984 381.772197 
L 185.991889 382.103543 
L 186.149841 382.541733 
L 186.465746 382.771814 
L 186.939602 382.591264 
L 187.097555 382.235231 
L 187.255507 382.80921 
L 187.413459 382.709419 
L 187.571412 382.976349 
L 187.729364 382.715974 
L 188.361173 382.999776 
L 188.992982 381.402248 
L 189.308887 380.101273 
L 189.466839 380.118076 
L 189.624791 379.628575 
L 189.940696 379.769032 
L 190.098648 379.558112 
L 190.2566 379.749442 
L 190.572505 380.768116 
L 191.362266 382.669179 
L 191.520218 382.31686 
L 191.678171 382.497441 
L 191.836123 382.259447 
L 192.152027 383.043848 
L 192.467932 382.361129 
L 192.625884 382.502041 
L 192.783837 382.833808 
L 192.941789 382.891656 
L 193.099741 382.740913 
L 193.257693 382.755361 
L 193.573598 382.948045 
L 193.73155 382.61671 
L 194.047455 382.453807 
L 194.205407 382.332455 
L 194.837216 382.94971 
L 194.995168 382.934746 
L 195.153121 382.672929 
L 195.311073 382.903417 
L 195.469025 382.803055 
L 195.626977 382.95701 
L 195.78493 382.797848 
L 196.100834 383.175282 
L 196.416739 383.103597 
L 196.574691 383.095255 
L 196.732643 382.775238 
L 196.890596 382.736467 
L 197.048548 383.19342 
L 197.2065 382.976704 
L 197.364452 383.104054 
L 197.838309 382.887394 
L 197.996262 382.929343 
L 198.312166 382.292742 
L 198.470118 382.210092 
L 198.628071 382.262299 
L 198.786023 382.43863 
L 199.101927 382.336781 
L 199.25988 382.789359 
L 199.417832 382.810759 
L 199.575784 382.947884 
L 199.733737 382.717295 
L 199.891689 383.099868 
L 200.049641 382.715751 
L 200.365546 382.691333 
L 200.839402 381.868863 
L 201.155307 382.319453 
L 201.313259 382.127567 
L 201.471211 382.139594 
L 201.629164 382.341076 
L 201.787116 382.347498 
L 201.945068 382.093065 
L 202.576877 382.582086 
L 202.73483 382.371504 
L 202.892782 382.527231 
L 203.050734 382.272314 
L 203.366639 382.727952 
L 203.840496 382.69953 
L 204.1564 383.012352 
L 204.630257 382.26947 
L 204.946161 381.68212 
L 205.104114 381.436499 
L 205.262066 381.50214 
L 205.420018 381.321847 
L 205.735923 380.530554 
L 206.051827 380.852648 
L 206.367732 380.406189 
L 206.841589 381.696816 
L 206.999541 381.799286 
L 207.315446 382.947764 
L 207.473398 382.894834 
L 207.947255 382.233458 
L 208.105207 382.691022 
L 208.263159 382.421559 
L 208.421111 382.789523 
L 208.737016 382.860948 
L 209.052921 382.500254 
L 209.210873 382.417897 
L 209.368825 382.144681 
L 209.526777 382.159379 
L 209.68473 382.424661 
L 209.842682 382.296186 
L 210.158586 382.530426 
L 210.316539 382.545568 
L 210.474491 382.187863 
L 210.632443 382.146603 
L 210.948348 381.617831 
L 211.422205 382.134516 
L 211.580157 382.220565 
L 211.896061 381.744025 
L 212.054014 381.949524 
L 212.527871 381.341084 
L 212.685823 381.517169 
L 212.843775 381.037622 
L 213.001727 381.219778 
L 213.15968 380.555903 
L 213.317632 380.398331 
L 213.475584 379.766184 
L 213.633536 378.543743 
L 213.791489 374.108892 
L 213.949441 354.708949 
L 214.265346 229.820581 
L 214.58125 114.319742 
L 214.897155 56.134302 
L 215.213059 33.969001 
L 215.371011 34.465945 
L 215.528964 46.392635 
L 215.686916 79.229262 
L 216.318725 319.78497 
L 216.63463 365.292941 
L 216.950534 377.248361 
L 217.266439 379.784721 
L 217.740295 381.014067 
L 218.0562 381.723031 
L 218.214152 381.819687 
L 218.372105 381.702154 
L 218.530057 382.101187 
L 218.688009 381.861387 
L 218.845961 381.890369 
L 219.161866 382.322101 
L 219.47777 381.997398 
L 219.793675 382.157519 
L 219.951627 382.465995 
L 220.267532 381.712418 
L 221.215245 381.474033 
L 222.162959 382.239734 
L 222.320911 381.146847 
L 222.478864 378.362375 
L 223.110673 360.292987 
L 223.58453 355.630257 
L 223.742482 355.593711 
L 223.900434 355.959155 
L 224.058386 357.805038 
L 225.0061 380.19545 
L 225.322005 382.178051 
L 225.479957 382.058973 
L 225.795861 382.325712 
L 226.111766 382.940088 
L 226.901527 382.897558 
L 227.05948 383.193109 
L 227.217432 382.831997 
L 227.849241 383.173501 
L 228.007193 382.932188 
L 228.323098 382.013588 
L 228.48105 381.726941 
L 228.796955 382.114912 
L 228.954907 381.695722 
L 229.112859 381.769304 
L 229.586716 381.167334 
L 229.744668 381.180712 
L 230.060573 380.717005 
L 230.218525 380.798962 
L 230.53443 381.508841 
L 230.850334 381.437079 
L 231.008286 381.516222 
L 231.482143 382.475526 
L 231.798048 382.716379 
L 231.956 382.490321 
L 232.113952 382.50878 
L 232.271904 382.365777 
L 232.903714 382.675955 
L 233.37757 382.332288 
L 233.535523 382.61297 
L 233.693475 382.342548 
L 233.851427 382.444967 
L 234.009379 382.34673 
L 234.167332 382.586802 
L 234.325284 382.483891 
L 234.483236 382.164456 
L 234.799141 382.184005 
L 235.115045 382.959966 
L 235.43095 382.799837 
L 235.588902 383.086545 
L 235.904807 383.022525 
L 236.062759 382.517802 
L 236.378664 382.63482 
L 236.536616 382.936443 
L 236.694568 382.628165 
L 236.85252 383.044109 
L 237.326377 383.022196 
L 237.484329 382.878627 
L 237.642282 382.962775 
L 237.800234 382.586813 
L 237.958186 382.690554 
L 238.116139 383.082676 
L 238.274091 383.064618 
L 238.432043 382.800637 
L 238.9059 383.060485 
L 239.063852 382.73163 
L 239.221804 382.735485 
L 239.379757 382.621279 
L 239.695661 382.757768 
L 240.169518 381.990468 
L 240.32747 380.900498 
L 240.485423 376.687301 
L 241.275184 342.346647 
L 241.749041 335.406225 
L 241.906993 335.435276 
L 242.064945 338.214499 
L 242.38085 353.487695 
L 242.696754 368.523933 
L 243.170611 379.002016 
L 243.486516 381.852802 
L 243.644468 382.798719 
L 243.80242 382.796885 
L 243.960373 383.126363 
L 244.434229 382.756858 
L 244.592182 382.858137 
L 244.908086 382.525449 
L 245.066039 382.74478 
L 245.223991 382.695322 
L 245.381943 382.940778 
L 245.539895 382.811985 
L 245.8558 383.192922 
L 246.645561 382.70552 
L 246.961466 382.168837 
L 247.119418 382.40353 
L 247.27737 382.267708 
L 247.435323 382.444532 
L 247.593275 382.193444 
L 247.909179 382.376751 
L 248.067132 382.671155 
L 248.225084 382.631909 
L 248.383036 382.783516 
L 248.540988 382.692 
L 248.698941 383.021391 
L 249.014845 382.597091 
L 249.33075 379.931032 
L 250.278463 369.915064 
L 250.436416 369.214538 
L 250.594368 369.138848 
L 250.910273 371.030418 
L 251.542082 379.362308 
L 251.857986 381.354628 
L 252.173891 382.407587 
L 252.647748 382.920964 
L 252.8057 382.730905 
L 252.963652 382.764362 
L 253.437509 382.449872 
L 253.753413 382.571823 
L 254.069318 382.099724 
L 254.22727 382.223215 
L 254.385223 382.122715 
L 254.543175 382.42399 
L 254.701127 382.343547 
L 255.017032 383.167261 
L 255.174984 383.192837 
L 255.332936 383.077342 
L 255.490888 382.525995 
L 255.806793 382.481753 
L 255.964745 382.924402 
L 256.122698 382.244312 
L 256.596554 382.763295 
L 256.912459 382.602818 
L 257.070411 382.338951 
L 257.228363 382.625716 
L 257.544268 382.567874 
L 257.70222 382.408056 
L 258.018125 382.809835 
L 258.176077 382.763401 
L 258.334029 382.568571 
L 258.649934 383.016055 
L 258.965838 382.995953 
L 259.123791 382.60372 
L 259.281743 382.691188 
L 259.439695 382.42887 
L 259.597648 382.847647 
L 259.7556 382.860444 
L 259.913552 383.011829 
L 260.071504 382.839364 
L 260.229457 383.105536 
L 260.387409 382.952195 
L 260.545361 383.1283 
L 260.703313 382.606774 
L 260.861266 382.557484 
L 261.17717 382.72768 
L 261.335123 382.746511 
L 261.493075 382.603414 
L 262.124884 382.798614 
L 262.282836 383.169738 
L 262.598741 382.345923 
L 262.756693 382.418381 
L 263.072597 383.09946 
L 263.23055 383.089781 
L 263.388502 382.556994 
L 263.546454 382.858558 
L 263.704407 382.587549 
L 263.862359 382.822377 
L 264.020311 382.542029 
L 264.336216 382.419034 
L 264.494168 382.782173 
L 264.65212 382.747732 
L 264.810072 382.210715 
L 265.915738 368.055236 
L 266.231643 367.05671 
L 266.547547 368.279898 
L 267.337309 379.394056 
L 267.653213 381.621853 
L 268.12707 382.593446 
L 268.285022 382.687252 
L 268.442975 382.558934 
L 268.600927 382.631267 
L 268.758879 382.374585 
L 268.916832 382.624441 
L 269.074784 382.471842 
L 269.232736 382.552093 
L 269.548641 383.192741 
L 269.706593 383.19274 
L 270.022497 382.827775 
L 270.18045 382.682622 
L 270.338402 382.296678 
L 270.496354 382.341439 
L 270.812259 383.031984 
L 271.128163 382.66184 
L 271.286116 382.59179 
L 271.759972 383.058245 
L 272.075877 382.983907 
L 272.233829 382.748643 
L 272.391782 382.992617 
L 272.549734 382.950069 
L 272.865638 382.258326 
L 273.023591 382.307695 
L 273.181543 382.67064 
L 273.339495 382.705534 
L 273.497447 382.62563 
L 273.6554 382.82384 
L 273.971304 382.644883 
L 274.129257 382.470236 
L 274.603113 382.869289 
L 274.919018 382.319306 
L 275.07697 382.114771 
L 275.392875 382.76963 
L 275.550827 382.903133 
L 275.708779 382.674319 
L 275.866732 382.724084 
L 276.340588 382.185063 
L 276.498541 382.24648 
L 276.656493 382.754934 
L 277.288302 382.334652 
L 277.446254 381.048387 
L 277.604206 377.334659 
L 278.709872 336.08914 
L 279.025777 332.977035 
L 279.183729 334.39784 
L 279.499634 348.607421 
L 279.973491 369.686148 
L 280.289395 376.863935 
L 280.6053 380.097198 
L 281.079156 382.249889 
L 281.237109 382.320525 
L 281.710966 382.780198 
L 281.868918 382.72436 
L 282.184822 382.261753 
L 282.500727 382.738938 
L 282.974584 381.945572 
L 283.290488 382.250775 
L 283.448441 382.240624 
L 283.606393 381.425047 
L 283.764345 378.577242 
L 284.08025 358.150732 
L 284.554106 321.166975 
L 284.870011 307.670545 
L 285.185916 300.211009 
L 285.343868 299.562838 
L 285.50182 303.730451 
L 286.449534 369.443 
L 286.923391 379.333985 
L 287.081343 381.106765 
L 287.239295 381.514152 
L 287.397247 381.547301 
L 288.029056 382.605187 
L 288.818818 383.192625 
L 288.97677 382.727818 
L 289.608579 382.566721 
L 289.766531 382.865337 
L 290.082436 382.249293 
L 290.714245 382.496411 
L 290.872197 382.297564 
L 291.03015 382.569553 
L 291.346054 382.644547 
L 291.819911 381.760036 
L 292.135816 382.590019 
L 292.45172 382.34765 
L 292.609672 381.853383 
L 293.083529 382.466707 
L 293.399434 382.177166 
L 293.715338 381.15872 
L 293.87329 380.939284 
L 294.031243 380.480916 
L 294.189195 380.637109 
L 294.5051 380.287335 
L 294.821004 380.226385 
L 294.978956 381.061054 
L 295.136909 381.29237 
L 295.294861 381.244616 
L 295.452813 381.401727 
L 295.768718 382.372483 
L 295.92667 382.439983 
L 296.084622 382.034773 
L 296.400527 382.47494 
L 296.558479 382.448167 
L 296.716431 382.012613 
L 296.874384 381.961099 
L 297.032336 381.542333 
L 297.190288 379.073155 
L 297.34824 369.253924 
L 298.295954 277.871486 
L 298.611859 266.10672 
L 298.769811 263.768171 
L 298.927763 268.578602 
L 299.40162 324.402551 
L 299.717525 353.030433 
L 300.191381 372.600113 
L 300.507286 378.206773 
L 300.82319 380.932832 
L 300.981143 381.829451 
L 301.297047 382.261487 
L 301.455 382.050062 
L 301.612952 382.196311 
L 301.770904 382.175969 
L 302.086809 382.710646 
L 302.560665 382.556999 
L 302.87657 382.058514 
L 303.034522 381.433391 
L 303.192475 379.209552 
L 303.508379 368.441231 
L 303.982236 353.686076 
L 304.29814 348.418453 
L 304.614045 346.104215 
L 304.771997 346.653147 
L 305.087902 356.851997 
L 305.561759 372.305149 
L 305.877663 377.007307 
L 306.35152 381.023145 
L 306.667425 382.434068 
L 306.825377 382.54386 
L 306.983329 382.257472 
L 307.141281 382.409257 
L 307.299234 382.36832 
L 307.615138 382.791344 
L 307.77309 382.722871 
L 307.931043 382.814453 
L 308.246947 382.762429 
L 308.562852 382.330553 
L 308.878756 382.5907 
L 309.352613 382.545772 
L 309.510565 382.820732 
L 309.984422 382.338551 
L 310.142374 382.772165 
L 310.774184 382.947105 
L 310.932136 382.676555 
L 311.090088 382.753186 
L 311.24804 383.091601 
L 311.563945 383.192525 
L 312.037802 382.610096 
L 312.353706 383.114302 
L 312.669611 382.97501 
L 312.827563 382.809937 
L 313.143468 383.192519 
L 313.775277 382.567201 
L 314.249134 382.730542 
L 314.72299 383.192514 
L 314.880943 382.681948 
L 315.196847 382.635959 
L 315.354799 382.873116 
L 315.670704 382.514481 
L 315.828656 382.654574 
L 315.986609 382.999524 
L 316.144561 382.83816 
L 316.302513 383.020239 
L 316.618418 382.646639 
L 316.77637 382.645328 
L 316.934322 383.077061 
L 317.092274 383.071553 
L 317.250227 382.918122 
L 317.724084 383.115325 
L 318.039988 382.340428 
L 318.19794 382.188401 
L 318.355893 382.302359 
L 318.513845 381.584295 
L 318.829749 375.494388 
L 319.303606 363.506272 
L 319.777463 357.863875 
L 319.935415 357.027324 
L 320.093368 356.813714 
L 320.25132 358.134977 
L 320.567224 365.924329 
L 320.883129 373.772045 
L 321.356986 379.411274 
L 321.830843 381.565188 
L 322.146747 382.778241 
L 322.620604 382.253195 
L 322.936509 382.882029 
L 323.094461 382.879833 
L 323.252413 382.57479 
L 323.410365 382.583797 
L 323.72627 382.83607 
L 323.884222 382.793751 
L 324.042174 382.904494 
L 324.200127 382.655924 
L 324.358079 382.935127 
L 324.516031 382.585301 
L 324.673983 382.556991 
L 325.14784 382.898226 
L 325.305793 382.536941 
L 325.463745 382.632768 
L 325.621697 382.503211 
L 325.779649 382.633574 
L 325.937602 382.592215 
L 326.885315 383.192468 
L 327.043268 383.192467 
L 327.675077 382.610935 
L 327.990981 382.819527 
L 328.148933 382.763302 
L 328.306886 382.942499 
L 328.464838 382.743487 
L 328.62279 382.931791 
L 329.254599 382.618201 
L 329.412552 382.605768 
L 329.570504 382.890214 
L 329.728456 382.722022 
L 329.886408 382.850149 
L 330.044361 382.625965 
L 330.518218 383.00804 
L 330.992074 382.75691 
L 331.465931 382.577668 
L 331.781836 382.826524 
L 332.09774 382.367966 
L 332.413645 382.081144 
L 332.571597 380.606409 
L 332.729549 376.213777 
L 333.045454 355.705537 
L 333.519311 325.691403 
L 333.835215 314.86594 
L 334.15112 309.892354 
L 334.309072 311.434872 
L 334.624977 328.5827 
L 335.098833 359.178178 
L 335.414738 370.410061 
L 335.730643 376.47573 
L 336.204499 381.015423 
L 336.362452 381.725107 
L 336.678356 381.979747 
L 337.152213 382.704246 
L 337.468118 382.65187 
L 337.62607 382.394699 
L 337.941974 382.484199 
L 338.415831 382.816793 
L 338.573783 382.548898 
L 338.731736 382.610453 
L 338.889688 382.406027 
L 339.04764 382.590314 
L 339.363545 383.15302 
L 339.521497 383.192387 
L 339.995354 382.831933 
L 340.311258 382.497386 
L 340.469211 382.528387 
L 340.785115 382.812967 
L 341.10102 382.149467 
L 341.574877 382.780477 
L 341.732829 383.048836 
L 341.890781 383.092744 
L 342.206686 382.617797 
L 342.364638 383.144218 
L 342.52259 383.192373 
L 342.680542 383.118177 
L 343.628256 381.504163 
L 343.786208 379.166868 
L 344.733922 355.968472 
L 345.049827 352.945819 
L 345.207779 352.165691 
L 345.365731 353.663255 
L 345.681636 362.169891 
L 346.155492 373.532067 
L 346.629349 379.169018 
L 347.103206 381.537628 
L 347.419111 382.37459 
L 347.577063 382.791911 
L 347.892967 382.572415 
L 348.05092 382.201641 
L 348.366824 382.643856 
L 348.682729 383.192361 
L 348.998633 382.826933 
L 349.156586 382.772498 
L 349.314538 383.023714 
L 349.47249 383.050476 
L 349.946347 382.707992 
L 350.262252 382.824988 
L 350.420204 382.354784 
L 350.578156 382.436616 
L 350.736108 382.708372 
L 351.052013 382.641053 
L 351.367917 382.11083 
L 351.52587 382.234664 
L 351.841774 381.8757 
L 351.999727 381.012127 
L 352.157679 378.946959 
L 352.473583 364.943906 
L 353.105392 326.267784 
L 353.579249 315.482078 
L 353.737202 314.131304 
L 353.895154 316.853341 
L 355.00082 371.597023 
L 355.316724 376.959508 
L 355.790581 381.218055 
L 355.948533 381.919576 
L 356.106486 381.937547 
L 356.264438 382.111851 
L 356.42239 382.083538 
L 356.738295 382.394155 
L 356.896247 382.340174 
L 357.054199 382.49758 
L 357.212151 382.355402 
L 357.370104 382.510005 
L 357.686008 382.420696 
L 358.001913 382.317851 
L 358.317817 382.637775 
L 358.633722 382.42899 
L 358.791674 382.628378 
L 359.107579 382.518045 
L 359.265531 382.319849 
L 359.739388 382.714999 
L 359.89734 382.406205 
L 360.213245 382.680358 
L 360.371197 382.552147 
L 360.687101 382.823489 
L 360.845054 382.629476 
L 361.160958 383.114526 
L 361.318911 383.192341 
L 361.476863 382.901478 
L 361.634815 382.211418 
L 361.95072 382.514935 
L 362.108672 382.837943 
L 362.424576 382.474592 
L 362.582529 382.517142 
L 363.214338 382.00089 
L 363.530242 382.537672 
L 363.688195 382.680066 
L 364.162051 382.186083 
L 364.320004 382.07368 
L 364.477956 382.431647 
L 364.635908 382.319239 
L 364.793861 382.500811 
L 364.951813 382.114013 
L 365.109765 382.373972 
L 365.267717 382.049694 
L 365.741574 381.860801 
L 365.899526 381.360595 
L 366.057479 379.005012 
L 366.215431 373.045565 
L 366.531336 343.612233 
L 367.005192 295.22916 
L 367.479049 272.869059 
L 367.637001 268.817654 
L 367.794954 270.855895 
L 368.110858 297.70777 
L 368.742667 354.920416 
L 369.216524 370.232606 
L 369.690381 379.068219 
L 370.006285 381.383511 
L 370.164238 381.376416 
L 370.32219 381.202729 
L 370.638095 381.760629 
L 371.111951 381.033263 
L 371.269904 381.267866 
L 371.427856 380.462325 
L 371.585808 377.479903 
L 371.74376 369.447964 
L 372.059665 326.292835 
L 372.533522 252.504839 
L 372.849426 227.415972 
L 373.165331 214.658999 
L 373.323283 216.55045 
L 373.639188 253.469677 
L 374.270997 340.635903 
L 374.744854 365.007026 
L 375.21871 377.138887 
L 375.534615 380.515517 
L 376.008472 381.918002 
L 376.166424 381.956959 
L 376.324376 381.865253 
L 376.798233 382.387599 
L 376.956185 382.32201 
L 377.114138 382.475737 
L 377.27209 382.434405 
L 377.430042 382.87184 
L 377.745947 382.473241 
L 377.903899 382.46269 
L 378.061851 382.189418 
L 378.219804 382.406565 
L 378.377756 382.259744 
L 378.535708 382.308908 
L 378.69366 381.965157 
L 379.167517 382.491059 
L 379.483422 382.255694 
L 379.641374 382.302497 
L 379.957279 382.70034 
L 380.115231 382.589406 
L 380.273183 382.960507 
L 380.589088 383.108664 
L 380.904992 382.605376 
L 381.062945 382.385224 
L 381.220897 382.396987 
L 381.852706 383.100565 
L 382.326563 382.264567 
L 382.642467 382.702402 
L 383.116324 382.885485 
L 383.274276 382.685341 
L 383.748133 383.033567 
L 383.906085 382.785345 
L 384.22199 382.747596 
L 384.379942 382.484429 
L 384.853799 382.839576 
L 385.011751 382.568927 
L 385.327656 382.608121 
L 385.485608 382.776105 
L 385.801513 382.535294 
L 386.433322 382.338279 
L 386.591274 382.502971 
L 386.749226 382.36341 
L 386.907179 382.529963 
L 387.065131 382.332532 
L 387.223083 382.960118 
L 387.538988 383.005283 
L 387.69694 382.655248 
L 387.854892 382.579594 
L 388.486701 383.192302 
L 389.276463 382.542548 
L 389.434415 382.708589 
L 389.592367 383.173276 
L 389.908272 383.048502 
L 390.224176 382.614803 
L 390.382129 382.648768 
L 390.540081 382.920716 
L 390.698033 382.590231 
L 390.855985 382.584056 
L 391.013938 382.300696 
L 391.17189 382.812019 
L 391.329842 382.667229 
L 391.487794 383.192298 
L 391.645747 382.973531 
L 391.803699 382.975714 
L 391.961651 382.561185 
L 392.277556 382.851579 
L 392.435508 382.997934 
L 392.59346 382.546517 
L 392.909365 382.821935 
L 393.225269 382.979738 
L 393.383222 382.658022 
L 393.541174 382.625153 
L 393.857079 382.418942 
L 394.015031 382.392125 
L 394.488888 382.780162 
L 394.64684 382.679603 
L 394.962744 382.209691 
L 395.278649 382.591855 
L 395.436601 382.428286 
L 395.910458 382.458339 
L 396.06841 382.808534 
L 396.226363 382.571227 
L 396.384315 382.694633 
L 396.542267 382.33133 
L 397.016124 382.457487 
L 397.332029 382.862948 
L 397.647933 382.278665 
L 397.963838 382.310817 
L 398.12179 382.16637 
L 398.279742 382.233778 
L 398.437694 382.534507 
L 398.595647 382.432528 
L 398.753599 382.6208 
L 398.911551 382.564555 
L 399.069504 382.686566 
L 399.227456 382.589261 
L 399.385408 382.259569 
L 399.701313 382.306685 
L 399.859265 382.62236 
L 400.017217 382.456463 
L 400.175169 382.616748 
L 400.333122 382.506848 
L 400.491074 382.747394 
L 400.649026 382.308513 
L 400.806978 382.600856 
L 400.964931 382.131643 
L 401.122883 382.235463 
L 401.438788 381.79261 
L 401.59674 379.483441 
L 401.754692 374.009977 
L 401.912644 363.669978 
L 402.860358 268.459044 
L 403.176263 258.55041 
L 403.334215 260.029931 
L 403.492167 267.988245 
L 404.439881 358.197918 
L 404.913738 372.918406 
L 405.229642 378.108551 
L 405.545547 380.502222 
L 406.335308 382.568674 
L 406.49326 382.365986 
L 406.651213 382.50397 
L 407.125069 382.224183 
L 407.440974 382.43179 
L 407.598926 382.256814 
L 408.072783 382.841248 
L 408.230735 382.576316 
L 408.704592 382.399041 
L 408.862544 382.133747 
L 409.020497 382.12233 
L 409.178449 381.494979 
L 409.336401 380.07902 
L 409.810258 366.453784 
L 410.284115 351.271564 
L 410.600019 347.390495 
L 410.757972 346.55945 
L 410.915924 346.326726 
L 411.073876 348.261144 
L 412.179542 376.91583 
L 412.811351 381.270295 
L 413.127256 382.345222 
L 413.601113 382.093582 
L 414.074969 382.664084 
L 414.232922 382.390579 
L 414.548826 382.371401 
L 414.706778 382.603803 
L 414.864731 382.606149 
L 415.022683 383.015905 
L 415.180635 383.115836 
L 415.49654 382.948036 
L 415.654492 382.517452 
L 415.812444 382.690254 
L 415.970397 382.637711 
L 416.128349 382.828752 
L 416.286301 382.419724 
L 416.602206 383.000731 
L 416.91811 382.726495 
L 417.076062 382.316166 
L 417.234015 382.501316 
L 417.549919 383.175544 
L 417.707872 383.192277 
L 418.023776 382.776793 
L 418.023776 382.776793 
" clip-path="url(#p2bbcb01cf7)" style="fill: none; stroke: #5088c5; stroke-linecap: round"/>
   </g>
   <g id="line2d_14">
    <defs>
     <path id="mc599379c91" d="M 0 2 
C 0.530406 2 1.03916 1.789267 1.414214 1.414214 
C 1.789267 1.03916 2 0.530406 2 0 
C 2 -0.530406 1.789267 -1.03916 1.414214 -1.414214 
C 1.03916 -1.789267 0.530406 -2 0 -2 
C -0.530406 -2 -1.03916 -1.789267 -1.414214 -1.414214 
C -1.789267 -1.03916 -2 -0.530406 -2 0 
C -2 0.530406 -1.789267 1.03916 -1.414214 1.414214 
C -1.03916 1.789267 -0.530406 2 0 2 
z
"/>
    </defs>
    <g clip-path="url(#p2bbcb01cf7)">
     <use xlink:href="#mc599379c91" x="215.175987" y="33.969001" style="fill: #f28360"/>
     <use xlink:href="#mc599379c91" x="223.624424" y="355.630257" style="fill: #f28360"/>
     <use xlink:href="#mc599379c91" x="241.695605" y="335.406225" style="fill: #f28360"/>
     <use xlink:href="#mc599379c91" x="278.885074" y="333.973068" style="fill: #f28360"/>
     <use xlink:href="#mc599379c91" x="285.145273" y="300.211009" style="fill: #f28360"/>
     <use xlink:href="#mc599379c91" x="298.605928" y="266.10672" style="fill: #f28360"/>
     <use xlink:href="#mc599379c91" x="304.493909" y="347.069207" style="fill: #f28360"/>
     <use xlink:href="#mc599379c91" x="319.911521" y="357.027324" style="fill: #f28360"/>
     <use xlink:href="#mc599379c91" x="334.063403" y="311.882584" style="fill: #f28360"/>
     <use xlink:href="#mc599379c91" x="345.071403" y="352.945819" style="fill: #f28360"/>
     <use xlink:href="#mc599379c91" x="353.59341" y="315.482078" style="fill: #f28360"/>
     <use xlink:href="#mc599379c91" x="367.569754" y="268.817654" style="fill: #f28360"/>
     <use xlink:href="#mc599379c91" x="373.105529" y="214.658999" style="fill: #f28360"/>
     <use xlink:href="#mc599379c91" x="403.155695" y="258.55041" style="fill: #f28360"/>
     <use xlink:href="#mc599379c91" x="410.755073" y="346.55945" style="fill: #f28360"/>
    </g>
   </g>
   <g id="patch_3">
    <path d="M 81.762344 397.163022 
L 81.762344 20 
" style="fill: none; stroke: #000000; stroke-width: 0.75; stroke-linejoin: miter; stroke-linecap: square"/>
   </g>
   <g id="patch_4">
    <path d="M 81.762344 397.163022 
L 430.956908 397.163022 
" style="fill: none; stroke: #000000; stroke-width: 0.75; stroke-linejoin: miter; stroke-linecap: square"/>
   </g>
  </g>
 </g>
 <defs>
  <clipPath id="p2bbcb01cf7">
   <rect x="81.762344" y="20" width="349.194564" height="377.163023"/>
  </clipPath>
 </defs>
</svg>
