<?xml version="1.0" encoding="utf-8" standalone="no"?>
<!DOCTYPE svg PUBLIC "-//W3C//DTD SVG 1.1//EN"
  "http://www.w3.org/Graphics/SVG/1.1/DTD/svg11.dtd">
<svg xmlns:xlink="http://www.w3.org/1999/xlink" width="463.998827pt" height="463.99896pt" viewBox="0 0 463.998827 463.99896" xmlns="http://www.w3.org/2000/svg" version="1.1">
 <metadata>
  <rdf:RDF xmlns:dc="http://purl.org/dc/elements/1.1/" xmlns:cc="http://creativecommons.org/ns#" xmlns:rdf="http://www.w3.org/1999/02/22-rdf-syntax-ns#">
   <cc:Work>
    <dc:type rdf:resource="http://purl.org/dc/dcmitype/StillImage"/>
    <dc:date>2025-02-07T20:39:13.289630</dc:date>
    <dc:format>image/svg+xml</dc:format>
    <dc:creator>
     <cc:Agent>
      <dc:title>Matplotlib v3.8.4, https://matplotlib.org/</dc:title>
     </cc:Agent>
    </dc:creator>
   </cc:Work>
  </rdf:RDF>
 </metadata>
 <defs>
  <style type="text/css">*{stroke-linejoin: round; stroke-linecap: butt}</style>
 </defs>
 <g id="figure_1">
  <g id="patch_1">
   <path d="M 0 463.99896 
L 463.998827 463.99896 
L 463.998827 0 
L 0 0 
L 0 463.99896 
z
" style="fill: none"/>
  </g>
  <g id="axes_1">
   <g id="patch_2">
    <path d="M 81.762344 397.163023 
L 430.961144 397.163023 
L 430.961144 20 
L 81.762344 20 
L 81.762344 397.163023 
z
" style="fill: none"/>
   </g>
   <g id="matplotlib.axis_1">
    <g id="xtick_1">
     <g id="line2d_1">
      <defs>
       <path id="m2e29766097" d="M 0 0 
L 0 5 
" style="stroke: #000000; stroke-width: 0.75"/>
      </defs>
      <g>
       <use xlink:href="#m2e29766097" x="85.095606" y="397.163023" style="stroke: #000000; stroke-width: 0.75"/>
      </g>
     </g>
     <g id="text_1">
      <text style="font: 14.5px &quot;Suisse Int&apos;l Mono&quot;; text-anchor: middle" x="85.095606" y="417.675522" transform="rotate(-0 85.095606 417.675522)">540</text>
     </g>
    </g>
    <g id="xtick_2">
     <g id="line2d_2">
      <g>
       <use xlink:href="#m2e29766097" x="142.571286" y="397.163023" style="stroke: #000000; stroke-width: 0.75"/>
      </g>
     </g>
     <g id="text_2">
      <text style="font: 14.5px &quot;Suisse Int&apos;l Mono&quot;; text-anchor: middle" x="142.571286" y="417.675522" transform="rotate(-0 142.571286 417.675522)">560</text>
     </g>
    </g>
    <g id="xtick_3">
     <g id="line2d_3">
      <g>
       <use xlink:href="#m2e29766097" x="200.046966" y="397.163023" style="stroke: #000000; stroke-width: 0.75"/>
      </g>
     </g>
     <g id="text_3">
      <text style="font: 14.5px &quot;Suisse Int&apos;l Mono&quot;; text-anchor: middle" x="200.046966" y="417.675522" transform="rotate(-0 200.046966 417.675522)">580</text>
     </g>
    </g>
    <g id="xtick_4">
     <g id="line2d_4">
      <g>
       <use xlink:href="#m2e29766097" x="257.522646" y="397.163023" style="stroke: #000000; stroke-width: 0.75"/>
      </g>
     </g>
     <g id="text_4">
      <text style="font: 14.5px &quot;Suisse Int&apos;l Mono&quot;; text-anchor: middle" x="257.522646" y="417.675522" transform="rotate(-0 257.522646 417.675522)">600</text>
     </g>
    </g>
    <g id="xtick_5">
     <g id="line2d_5">
      <g>
       <use xlink:href="#m2e29766097" x="314.998326" y="397.163023" style="stroke: #000000; stroke-width: 0.75"/>
      </g>
     </g>
     <g id="text_5">
      <text style="font: 14.5px &quot;Suisse Int&apos;l Mono&quot;; text-anchor: middle" x="314.998326" y="417.675522" transform="rotate(-0 314.998326 417.675522)">620</text>
     </g>
    </g>
    <g id="xtick_6">
     <g id="line2d_6">
      <g>
       <use xlink:href="#m2e29766097" x="372.474006" y="397.163023" style="stroke: #000000; stroke-width: 0.75"/>
      </g>
     </g>
     <g id="text_6">
      <text style="font: 14.5px &quot;Suisse Int&apos;l Mono&quot;; text-anchor: middle" x="372.474006" y="417.675522" transform="rotate(-0 372.474006 417.675522)">640</text>
     </g>
    </g>
    <g id="xtick_7">
     <g id="line2d_7">
      <g>
       <use xlink:href="#m2e29766097" x="429.949686" y="397.163023" style="stroke: #000000; stroke-width: 0.75"/>
      </g>
     </g>
     <g id="text_7">
      <text style="font: 14.5px &quot;Suisse Int&apos;l Mono&quot;; text-anchor: middle" x="429.949686" y="417.675522" transform="rotate(-0 429.949686 417.675522)">660</text>
     </g>
    </g>
    <g id="text_8">
     <text style="font: 500 15px &quot;Suisse Int&apos;l&quot;, sans-serif; text-anchor: middle" x="256.361744" y="441.088023" transform="rotate(-0 256.361744 441.088023)">Wavelength (nm)</text>
    </g>
   </g>
   <g id="matplotlib.axis_2">
    <g id="ytick_1">
     <g id="line2d_8">
      <defs>
       <path id="m0eb20f08c3" d="M 0 0 
L -5 0 
" style="stroke: #000000; stroke-width: 0.75"/>
      </defs>
      <g>
       <use xlink:href="#m0eb20f08c3" x="81.762344" y="379.21646" style="stroke: #000000; stroke-width: 0.75"/>
      </g>
     </g>
     <g id="text_9">
      <text style="font: 14.5px &quot;Suisse Int&apos;l Mono&quot;; text-anchor: end" x="71.762344" y="384.47271" transform="rotate(-0 71.762344 384.47271)">0.0</text>
     </g>
    </g>
    <g id="ytick_2">
     <g id="line2d_9">
      <g>
       <use xlink:href="#m0eb20f08c3" x="81.762344" y="303.473175" style="stroke: #000000; stroke-width: 0.75"/>
      </g>
     </g>
     <g id="text_10">
      <text style="font: 14.5px &quot;Suisse Int&apos;l Mono&quot;; text-anchor: end" x="71.762344" y="308.729425" transform="rotate(-0 71.762344 308.729425)">0.5</text>
     </g>
    </g>
    <g id="ytick_3">
     <g id="line2d_10">
      <g>
       <use xlink:href="#m0eb20f08c3" x="81.762344" y="227.729891" style="stroke: #000000; stroke-width: 0.75"/>
      </g>
     </g>
     <g id="text_11">
      <text style="font: 14.5px &quot;Suisse Int&apos;l Mono&quot;; text-anchor: end" x="71.762344" y="232.986141" transform="rotate(-0 71.762344 232.986141)">1.0</text>
     </g>
    </g>
    <g id="ytick_4">
     <g id="line2d_11">
      <g>
       <use xlink:href="#m0eb20f08c3" x="81.762344" y="151.986607" style="stroke: #000000; stroke-width: 0.75"/>
      </g>
     </g>
     <g id="text_12">
      <text style="font: 14.5px &quot;Suisse Int&apos;l Mono&quot;; text-anchor: end" x="71.762344" y="157.242857" transform="rotate(-0 71.762344 157.242857)">1.5</text>
     </g>
    </g>
    <g id="ytick_5">
     <g id="line2d_12">
      <g>
       <use xlink:href="#m0eb20f08c3" x="81.762344" y="76.243323" style="stroke: #000000; stroke-width: 0.75"/>
      </g>
     </g>
     <g id="text_13">
      <text style="font: 14.5px &quot;Suisse Int&apos;l Mono&quot;; text-anchor: end" x="71.762344" y="81.499573" transform="rotate(-0 71.762344 81.499573)">2.0</text>
     </g>
    </g>
    <g id="text_14">
     <text style="font: 500 15px &quot;Suisse Int&apos;l&quot;, sans-serif; text-anchor: middle" x="30.875" y="208.581511" transform="rotate(-90 30.875 208.581511)">Intensity (au)</text>
    </g>
   </g>
   <g id="line2d_13">
    <path d="M 94.695633 378.496884 
L 95.011541 378.363574 
L 95.327449 378.089377 
L 95.801312 377.97726 
L 96.433129 378.022665 
L 96.749037 378.486187 
L 96.906991 378.486172 
L 97.380854 378.107407 
L 98.170625 378.707192 
L 98.644487 378.404149 
L 99.434258 377.910169 
L 99.750167 377.910106 
L 100.066075 378.096367 
L 100.381983 378.079632 
L 100.855846 378.096178 
L 101.171754 378.211225 
L 101.487663 378.109641 
L 101.645617 377.814197 
L 101.961525 377.880757 
L 102.277434 378.013965 
L 102.435388 377.723059 
L 102.593342 377.723005 
L 102.90925 378.237949 
L 103.067205 378.496934 
L 103.383113 378.407441 
L 104.172884 378.087499 
L 104.804701 378.644707 
L 105.120609 378.471877 
L 105.436517 378.471739 
L 106.068334 378.05032 
L 106.384243 378.275886 
L 106.542197 378.27581 
L 106.700151 378.054562 
L 107.016059 378.149841 
L 107.174013 378.283068 
L 107.331968 378.149679 
L 107.489922 378.291994 
L 107.80583 378.208508 
L 108.121739 377.809926 
L 108.437647 377.891551 
L 109.069464 378.283531 
L 109.543326 378.290817 
L 109.70128 377.801417 
L 109.859235 377.801318 
L 110.175143 378.063187 
L 110.333097 378.094896 
L 110.649006 378.240113 
L 110.964914 378.368663 
L 111.280822 377.745837 
L 111.438777 377.745726 
L 111.596731 377.966785 
L 111.754685 378.413557 
L 112.070593 378.50725 
L 112.386502 378.023775 
L 112.860364 378.132489 
L 113.176273 378.186781 
L 113.650135 377.853137 
L 113.808089 378.171131 
L 114.123998 378.192082 
L 114.439906 377.984284 
L 114.755814 377.923422 
L 115.229677 377.973003 
L 116.019448 378.508559 
L 116.335356 378.526449 
L 116.967173 377.685112 
L 117.125127 377.684961 
L 117.283081 377.957486 
L 117.441036 377.957333 
L 117.756944 377.744942 
L 118.072852 377.805221 
L 118.388761 377.848831 
L 118.862623 378.167976 
L 119.336486 378.376527 
L 119.49444 378.138524 
L 120.442165 378.060231 
L 120.758074 378.167432 
L 121.231936 378.115387 
L 122.021707 377.819067 
L 122.337615 378.212555 
L 122.811478 378.254397 
L 124.706928 377.980848 
L 124.864883 377.803402 
L 125.022837 377.803194 
L 125.338745 378.223907 
L 125.496699 378.223696 
L 125.812608 378.074813 
L 126.128516 378.036511 
L 126.444424 377.880045 
L 126.918287 377.947551 
L 127.076241 378.030645 
L 127.39215 377.981718 
L 129.129646 377.989754 
L 129.445554 378.252857 
L 129.603508 378.252615 
L 129.919417 378.09155 
L 130.235325 378.059244 
L 130.867142 378.155195 
L 131.18305 378.154689 
L 131.498958 377.913314 
L 131.814867 378.020354 
L 132.288729 378.222563 
L 132.604638 377.961479 
L 134.342134 377.903957 
L 134.500088 377.7734 
L 134.658042 377.87007 
L 134.815996 377.787986 
L 135.131905 378.04646 
L 135.605767 378.383414 
L 135.763721 378.280115 
L 136.07963 377.87961 
L 137.185309 377.844211 
L 137.501218 378.276858 
L 137.97508 378.21232 
L 138.290988 378.046586 
L 138.448943 378.07506 
L 138.606897 378.339852 
L 138.764851 378.339541 
L 138.922805 378.096851 
L 139.396668 378.183772 
L 139.87053 378.443378 
L 140.186439 378.639673 
L 140.502347 378.639033 
L 140.818255 377.864293 
L 141.134164 377.895458 
L 141.608026 378.259559 
L 141.923935 378.248296 
L 142.239843 378.011313 
L 142.397797 377.938267 
L 142.555752 378.010645 
L 142.87166 377.890298 
L 143.819385 377.941267 
L 143.977339 377.95304 
L 144.135293 378.09206 
L 144.451202 378.526128 
L 144.609156 378.525778 
L 144.925064 378.373588 
L 145.398927 378.137723 
L 145.714835 378.209724 
L 145.872789 378.45629 
L 147.76824 378.435272 
L 147.926194 378.107693 
L 148.242102 378.106954 
L 148.400056 378.512567 
L 148.715965 378.466376 
L 148.873919 378.067593 
L 149.031873 378.067218 
L 149.189827 378.424351 
L 149.347782 378.423974 
L 149.505736 378.16001 
L 149.66369 378.159632 
L 149.979598 378.277032 
L 150.453461 378.263766 
L 150.769369 378.422058 
L 150.927323 378.421672 
L 151.401186 378.172071 
L 151.875049 378.27997 
L 152.348911 378.168205 
L 152.822774 377.954934 
L 153.138682 378.05866 
L 153.45459 378.039678 
L 153.612545 378.124107 
L 153.928453 378.659559 
L 154.086407 378.659153 
L 154.244361 378.178534 
L 154.718224 378.281833 
L 155.192087 378.612355 
L 155.350041 378.411979 
L 155.823903 378.624332 
L 155.981857 378.623917 
L 156.45572 378.195473 
L 156.613674 378.281402 
L 156.929583 378.600198 
L 157.403445 378.617111 
L 157.561399 378.551548 
L 157.877308 378.112904 
L 158.035262 378.112478 
L 158.35117 377.985889 
L 158.667079 377.909286 
L 158.825033 378.099727 
L 159.930712 378.033046 
L 160.088666 378.305281 
L 160.246621 378.869884 
L 160.404575 378.869441 
L 160.720483 378.591334 
L 161.036391 378.36776 
L 161.3523 378.366868 
L 161.668208 378.426567 
L 161.826162 378.417029 
L 161.984117 378.225706 
L 162.142071 378.225255 
L 162.615933 378.552623 
L 163.089796 378.419466 
L 163.24775 378.419009 
L 163.563659 378.610482 
L 163.879567 378.609565 
L 164.195475 378.372326 
L 164.353429 378.371865 
L 164.511384 378.594088 
L 164.827292 378.5053 
L 164.985246 378.210952 
L 165.301155 378.238804 
L 165.932971 378.7126 
L 166.090926 378.301602 
L 166.722742 378.255783 
L 167.038651 378.121526 
L 167.670467 377.937829 
L 168.14433 378.539298 
L 168.460238 378.551963 
L 168.618193 378.19397 
L 169.250009 378.251097 
L 170.03978 378.716731 
L 170.355689 378.450641 
L 170.987505 378.369882 
L 171.14546 378.675386 
L 171.93523 378.651678 
L 172.093185 378.946575 
L 172.251139 378.703694 
L 172.567047 378.702689 
L 172.725001 378.467381 
L 172.882956 378.466877 
L 173.356818 378.750155 
L 173.672727 378.899114 
L 174.146589 378.73247 
L 174.620452 379.100571 
L 174.778406 378.881921 
L 174.93636 378.881412 
L 175.094314 379.108132 
L 175.252268 379.107622 
L 175.726131 378.538016 
L 176.042039 378.646062 
L 176.199994 378.86672 
L 176.357948 378.866207 
L 176.515902 378.588473 
L 176.673856 378.544027 
L 176.989764 378.259717 
L 177.305673 378.29504 
L 177.621581 378.466697 
L 178.727261 378.844789 
L 179.043169 378.299903 
L 179.674986 378.567442 
L 179.990894 378.686058 
L 180.148848 378.662805 
L 180.464757 378.133055 
L 180.780665 378.241059 
L 180.938619 378.290515 
L 181.096573 378.488427 
L 181.254528 378.487891 
L 181.412482 378.681256 
L 181.72839 378.593834 
L 182.044298 378.494289 
L 182.202253 378.505868 
L 182.834069 379.044509 
L 183.307932 378.870186 
L 183.62384 378.767603 
L 183.939749 378.786208 
L 184.571565 378.02659 
L 184.887474 378.058818 
L 185.045428 377.621985 
L 185.361336 377.614819 
L 185.519291 377.805135 
L 185.677245 377.807608 
L 185.993153 378.135214 
L 186.151107 378.570934 
L 186.467016 378.728871 
L 186.782924 378.626249 
L 187.098832 378.62512 
L 187.414741 378.843645 
L 187.572695 378.755216 
L 187.888603 378.855579 
L 188.362466 379.015967 
L 188.994283 377.462469 
L 189.310191 376.194894 
L 189.468145 376.174623 
L 189.626099 375.733216 
L 190.257916 375.835384 
L 190.573825 376.846115 
L 191.205641 378.375221 
L 191.363596 378.388246 
L 191.52155 378.56942 
L 191.679504 378.387026 
L 191.837458 378.568198 
L 191.995412 378.929639 
L 192.153366 378.929027 
L 192.469275 378.580898 
L 192.627229 378.580284 
L 192.785183 378.909911 
L 193.574954 378.990153 
L 193.732908 378.703227 
L 194.364725 378.61744 
L 194.522679 378.689534 
L 194.680633 379.041879 
L 195.154496 379.000632 
L 195.31245 378.901546 
L 195.470404 378.999392 
L 195.628359 378.900304 
L 196.102221 379.275642 
L 196.576084 379.198035 
L 196.734038 378.882322 
L 196.891992 378.8817 
L 197.2079 379.213727 
L 197.681763 379.002809 
L 197.997671 379.001563 
L 198.31358 378.417094 
L 198.629488 378.390091 
L 198.945397 378.478216 
L 199.103351 378.477589 
L 199.261305 378.916271 
L 199.735167 379.076476 
L 199.893122 378.851647 
L 200.366984 378.828549 
L 200.682893 378.201647 
L 201.472664 378.290883 
L 201.630618 378.491723 
L 201.788572 378.491085 
L 202.10448 378.323172 
L 202.262435 378.345254 
L 202.420389 378.66122 
L 202.736297 378.688719 
L 202.894251 378.53053 
L 203.368114 378.89065 
L 203.841976 378.919012 
L 204.157885 379.057088 
L 204.315839 378.867084 
L 204.473793 378.446819 
L 204.631747 378.4083 
L 204.789702 378.237987 
L 205.10561 377.692851 
L 205.421518 377.514306 
L 205.737427 376.93583 
L 206.369243 376.872583 
L 206.527198 377.074906 
L 206.843106 377.899164 
L 207.00106 378.001501 
L 207.316969 379.090853 
L 207.474923 379.090177 
L 207.948785 378.521588 
L 208.106739 378.62998 
L 208.422648 378.99522 
L 208.738556 379.009011 
L 209.054465 378.713768 
L 209.212419 378.634314 
L 209.370373 378.380651 
L 209.528327 378.379969 
L 210.00219 378.717249 
L 210.318098 378.752236 
L 210.476052 378.416766 
L 210.634006 378.376693 
L 210.949915 378.066286 
L 211.107869 378.065596 
L 211.423777 378.371733 
L 211.581732 378.37104 
L 211.739686 378.158266 
L 211.89764 378.157572 
L 212.055594 377.990242 
L 212.213548 377.989546 
L 212.371503 377.775252 
L 212.529457 377.773038 
L 213.003319 377.298294 
L 213.477182 376.04489 
L 213.635136 374.835314 
L 213.79309 370.443 
L 213.951044 351.224696 
L 214.266953 227.498119 
L 214.582861 113.074333 
L 214.89877 55.430743 
L 215.214678 33.969719 
L 215.372632 33.969001 
L 215.530586 45.78575 
L 215.68854 78.319802 
L 216.320357 316.647718 
L 216.636266 361.736258 
L 216.952174 373.584101 
L 217.268082 376.098841 
L 217.741945 377.322168 
L 218.057853 378.026618 
L 218.373762 378.123602 
L 219.479441 378.348643 
L 219.637395 378.347894 
L 219.953304 378.473643 
L 220.58512 377.911645 
L 221.374891 377.956328 
L 221.532845 378.084329 
L 221.848754 378.508477 
L 222.164662 378.57966 
L 222.322616 377.497279 
L 222.480571 374.74097 
L 223.112387 356.8458 
L 223.58625 352.230715 
L 223.744204 352.229942 
L 223.902158 352.55941 
L 224.060112 354.39011 
L 225.007838 376.582795 
L 225.323746 378.433915 
L 225.797608 378.701212 
L 226.113517 379.298016 
L 227.37715 379.320527 
L 227.693059 379.591636 
L 227.851013 379.590853 
L 228.008967 379.324969 
L 228.324875 378.417514 
L 228.798738 378.393952 
L 229.272601 377.925012 
L 230.220326 377.234016 
L 230.536234 377.865628 
L 231.010097 377.954107 
L 231.483959 378.909078 
L 231.799868 379.049857 
L 232.115776 378.928564 
L 232.589639 378.901896 
L 232.747593 379.12377 
L 233.063501 379.019137 
L 233.379409 378.878147 
L 233.537364 378.803107 
L 233.695318 378.905305 
L 233.853272 378.810571 
L 234.16918 378.949827 
L 234.327135 378.949013 
L 234.485089 378.634622 
L 234.800997 378.657231 
L 235.116906 379.385765 
L 235.432814 379.384134 
L 235.590768 379.559043 
L 235.906676 379.499849 
L 236.064631 379.076387 
L 236.538493 379.120905 
L 236.854402 379.531319 
L 237.486218 379.46141 
L 237.960081 379.19387 
L 238.118035 379.568744 
L 238.275989 379.567931 
L 238.433943 379.397454 
L 238.591898 379.396642 
L 238.749852 379.56398 
L 238.907806 379.563169 
L 239.06576 379.25484 
L 239.697577 379.256141 
L 240.17144 378.526572 
L 240.329394 377.44869 
L 240.487348 373.275936 
L 241.277119 339.263103 
L 241.750981 332.425569 
L 241.908936 332.42475 
L 242.06689 335.179471 
L 242.382798 350.314369 
L 242.698707 365.214463 
L 243.172569 375.600946 
L 243.488478 378.429054 
L 243.646432 379.368954 
L 243.804386 379.368121 
L 243.96234 379.539984 
L 244.436203 379.431449 
L 244.910065 379.238084 
L 245.541882 379.53016 
L 246.015745 379.700366 
L 246.489607 379.503978 
L 246.647561 379.313792 
L 246.805515 378.947882 
L 247.911195 379.002676 
L 248.069149 379.260889 
L 248.85892 379.444585 
L 249.016874 379.236219 
L 249.332782 376.598694 
L 250.280508 366.687945 
L 250.438462 365.994808 
L 250.596416 365.993964 
L 250.75437 366.623305 
L 250.912324 367.801027 
L 251.544141 376.062743 
L 251.860049 378.040955 
L 252.175958 379.089034 
L 252.491866 379.537227 
L 252.807775 379.452187 
L 253.123683 379.34897 
L 253.439591 379.186674 
L 253.7555 379.184953 
L 254.229362 378.835467 
L 254.703225 379.134341 
L 255.019133 379.877932 
L 255.335042 379.824706 
L 255.492996 379.249712 
L 256.282767 379.160582 
L 256.598675 379.455777 
L 257.388446 379.348471 
L 257.704354 379.317972 
L 258.178217 379.521419 
L 258.494125 379.592418 
L 258.810034 379.7634 
L 258.967988 379.724672 
L 259.283896 379.374543 
L 260.073667 379.78989 
L 260.231621 379.739046 
L 260.389576 379.886651 
L 260.54753 379.737343 
L 260.705484 379.400191 
L 260.863438 379.39934 
L 261.179347 379.526403 
L 261.969117 379.611532 
L 262.285026 379.609836 
L 262.44298 379.52567 
L 262.600934 379.243058 
L 262.758888 379.242211 
L 263.074797 379.916147 
L 263.232751 379.9153 
L 263.548659 379.424308 
L 263.706614 379.659783 
L 264.022522 379.383904 
L 264.33843 379.364038 
L 264.496384 379.596483 
L 264.654339 379.59564 
L 264.812293 379.066109 
L 265.917972 365.058267 
L 266.075926 364.512065 
L 266.233881 364.511215 
L 266.391835 364.701238 
L 266.549789 365.291186 
L 267.33956 376.313627 
L 267.655468 378.525118 
L 268.129331 379.495065 
L 269.23501 379.469321 
L 269.550918 380.111413 
L 269.708873 380.110551 
L 270.024781 379.754351 
L 270.182735 379.612609 
L 270.340689 379.279994 
L 270.498644 379.279134 
L 270.656598 379.806963 
L 270.972506 379.740107 
L 271.288415 379.606599 
L 271.446369 379.722386 
L 271.604323 379.994206 
L 272.552048 379.914855 
L 272.867956 379.285999 
L 273.025911 379.285148 
L 273.183865 379.647865 
L 273.499773 379.684036 
L 273.815682 379.77626 
L 274.13159 379.560967 
L 274.763407 379.477291 
L 275.079315 379.325627 
L 275.395223 379.781424 
L 275.869086 379.691028 
L 276.500903 379.281671 
L 276.658857 379.717109 
L 276.816811 379.716267 
L 277.290674 379.381986 
L 277.448628 378.110172 
L 277.606582 374.432751 
L 278.712261 333.589072 
L 278.870216 331.49468 
L 279.02817 331.493833 
L 279.186124 331.921693 
L 279.502032 346.003705 
L 279.975895 366.895706 
L 280.291803 374.010851 
L 280.607712 377.220658 
L 281.081574 379.360103 
L 281.239528 379.433472 
L 281.555437 379.802897 
L 281.871345 379.843598 
L 282.029299 379.657928 
L 282.661116 379.601486 
L 282.977024 379.299835 
L 283.450887 379.391194 
L 283.608841 378.585947 
L 283.766795 375.767443 
L 284.082704 355.536211 
L 284.556566 318.904186 
L 284.872475 305.538325 
L 285.188383 298.154669 
L 285.346337 298.153811 
L 285.504291 301.646234 
L 286.452017 366.765163 
L 286.925879 376.572855 
L 287.083833 378.332264 
L 287.241788 378.738897 
L 287.399742 378.774387 
L 288.031558 379.834354 
L 288.821329 380.40265 
L 288.979284 379.973081 
L 290.242917 379.596586 
L 290.558825 379.775143 
L 290.71678 379.713694 
L 291.348596 379.889033 
L 291.664505 379.273808 
L 291.822459 379.272957 
L 292.138367 379.772674 
L 292.296322 379.771824 
L 292.454276 379.658874 
L 292.61223 379.356566 
L 292.770184 379.355716 
L 293.086092 379.614574 
L 293.402001 379.508352 
L 293.717909 378.505329 
L 294.349726 377.821751 
L 294.665634 377.656436 
L 294.823589 377.664668 
L 294.981543 378.431846 
L 295.297451 378.663416 
L 295.455405 378.7792 
L 295.771314 379.746992 
L 296.561085 379.836617 
L 296.719039 379.408567 
L 296.876993 379.360749 
L 297.034947 378.947848 
L 297.192901 376.505027 
L 297.350856 366.780244 
L 298.298581 276.266402 
L 298.614489 264.616879 
L 298.772443 264.616019 
L 298.930397 267.072271 
L 299.40426 322.386525 
L 299.720168 350.755209 
L 300.194031 370.151999 
L 300.509939 375.712859 
L 300.825848 378.419699 
L 300.983802 379.311083 
L 301.141756 379.523808 
L 301.29971 379.5396 
L 301.457664 379.687186 
L 301.773573 379.685445 
L 302.089481 380.147256 
L 302.40539 380.145521 
L 302.563344 380.062853 
L 302.879252 379.574851 
L 303.037206 378.958951 
L 303.19516 376.758502 
L 303.511069 366.096651 
L 303.984931 351.487695 
L 304.30084 346.274809 
L 304.616748 344.537025 
L 304.774702 344.536151 
L 305.090611 354.646132 
L 305.564473 369.964862 
L 305.880382 374.630409 
L 306.354244 378.617903 
L 306.670153 380.021918 
L 307.301969 380.006248 
L 307.617878 380.331688 
L 307.933786 380.366278 
L 308.249694 380.364516 
L 308.407649 380.054605 
L 308.723557 380.148285 
L 309.039465 380.210157 
L 309.355374 380.185686 
L 309.671282 380.259685 
L 309.829236 379.995228 
L 309.987191 379.994358 
L 310.145145 380.426741 
L 310.934916 380.428474 
L 311.09287 380.427612 
L 311.250824 380.766082 
L 311.566732 380.779514 
L 312.040595 380.613346 
L 312.514458 380.788036 
L 312.830366 380.677273 
L 313.304228 380.748974 
L 313.778091 380.325327 
L 314.251954 380.47128 
L 314.725816 380.777821 
L 314.88377 380.449782 
L 315.831495 380.428178 
L 316.147404 380.77193 
L 316.621266 380.439244 
L 316.779221 380.438432 
L 316.937175 380.867843 
L 317.726946 380.888049 
L 318.042854 380.162341 
L 318.358763 380.015316 
L 318.516717 379.423721 
L 318.832625 373.395988 
L 319.306488 361.529143 
L 319.78035 355.948991 
L 319.938304 355.124098 
L 320.096259 355.123292 
L 320.254213 356.228339 
L 320.570121 363.951028 
L 320.88603 371.732796 
L 321.359892 377.329287 
L 321.833755 379.473378 
L 322.149663 380.445788 
L 322.307617 380.444966 
L 322.623526 380.329709 
L 322.939434 380.799195 
L 323.097388 380.798378 
L 323.255342 380.514284 
L 323.413297 380.51347 
L 323.571251 380.717165 
L 324.203067 380.84421 
L 324.518976 380.538115 
L 324.834884 380.601652 
L 324.992838 380.782637 
L 325.150793 380.781839 
L 325.466701 380.503029 
L 325.782609 380.572642 
L 326.098518 380.689222 
L 326.888289 381.297307 
L 327.204197 381.20486 
L 327.520105 380.839745 
L 328.309876 380.787429 
L 328.467831 380.96542 
L 329.099647 380.668501 
L 329.415556 380.666992 
L 329.731464 380.912412 
L 329.889418 380.77987 
L 330.837143 380.972343 
L 331.311006 380.673222 
L 331.46896 380.67249 
L 331.626914 380.839909 
L 331.784868 380.839179 
L 332.258731 380.308311 
L 332.416685 380.200032 
L 332.574639 378.742008 
L 332.732594 374.39362 
L 333.048502 354.080844 
L 333.522365 324.355479 
L 333.838273 313.636347 
L 333.996227 310.68466 
L 334.154181 310.24765 
L 334.312135 310.246922 
L 334.628044 327.240743 
L 335.101906 357.561624 
L 335.417815 368.695945 
L 335.733723 374.711527 
L 336.207586 379.217541 
L 336.36554 379.924239 
L 336.681448 380.18331 
L 337.155311 380.894591 
L 337.471219 380.864336 
L 337.629173 380.628798 
L 337.945082 380.706108 
L 338.418944 380.999323 
L 338.734853 380.782765 
L 339.050761 380.83283 
L 339.366669 381.396441 
L 339.682578 381.504086 
L 340.314395 380.798364 
L 340.472349 380.797662 
L 340.630303 380.998438 
L 340.788257 380.99774 
L 341.104166 380.605512 
L 341.420074 380.691988 
L 341.735982 381.334426 
L 342.367799 381.44076 
L 342.683707 381.593922 
L 342.999616 380.765459 
L 343.315524 380.444483 
L 343.473478 380.27415 
L 343.631433 379.840232 
L 343.789387 377.52788 
L 344.737112 354.561511 
L 345.05302 351.572849 
L 345.210974 351.572176 
L 345.368929 352.289549 
L 345.684837 360.722974 
L 346.1587 371.988524 
L 346.632562 377.582384 
L 347.106425 379.937444 
L 347.422333 380.772272 
L 347.580287 381.074558 
L 347.896196 380.976239 
L 348.05415 380.807407 
L 348.212104 380.806728 
L 348.685967 381.451547 
L 349.001875 381.248728 
L 349.159829 381.24806 
L 349.317783 381.450386 
L 349.633692 381.339991 
L 350.265508 381.235871 
L 350.423463 380.891346 
L 350.581417 380.890696 
L 350.739371 381.162724 
L 351.055279 381.102355 
L 351.213234 380.703304 
L 351.371188 380.702663 
L 351.84505 380.358391 
L 352.003004 379.506401 
L 352.160959 377.462213 
L 352.476867 363.595367 
L 353.108684 325.287899 
L 353.582546 314.61071 
L 353.740501 314.610066 
L 353.898455 315.974316 
L 355.004134 370.230785 
L 355.320042 375.5497 
L 355.793905 379.777242 
L 355.951859 380.47494 
L 356.109813 380.49398 
L 356.583676 380.817724 
L 356.899584 380.955797 
L 357.057539 380.927885 
L 357.373447 381.070514 
L 357.689355 381.001069 
L 358.005264 380.904364 
L 358.321172 381.068222 
L 358.63708 381.066967 
L 358.952989 381.205088 
L 359.268897 381.090234 
L 359.426851 381.089617 
L 359.584806 381.252607 
L 360.690485 381.358945 
L 361.322302 381.751945 
L 361.480256 381.548364 
L 361.63821 380.993337 
L 361.796164 380.992752 
L 362.112073 381.326373 
L 362.270027 381.325794 
L 363.059798 380.689715 
L 363.217752 380.689147 
L 363.53366 381.227308 
L 363.849569 381.16862 
L 364.323431 380.889729 
L 364.63934 381.140091 
L 364.797294 381.031986 
L 364.955248 381.096577 
L 365.271156 380.777365 
L 365.745019 380.600016 
L 365.902973 380.107146 
L 366.060927 377.776745 
L 366.218881 371.875804 
L 366.53479 342.721121 
L 367.008652 294.796706 
L 367.482515 272.65379 
L 367.640469 270.667255 
L 367.798423 270.666708 
L 368.114332 297.275746 
L 368.746148 353.968924 
L 369.220011 369.149268 
L 369.693874 377.912625 
L 370.009782 380.209561 
L 370.32569 380.208449 
L 370.483644 380.469967 
L 370.799553 380.361306 
L 370.957507 379.982039 
L 371.273415 379.887018 
L 371.43137 379.328999 
L 371.589324 376.377492 
L 371.747278 368.423896 
L 372.063186 325.676314 
L 372.537049 252.58239 
L 372.852957 227.732946 
L 373.168866 216.979327 
L 373.32682 216.978775 
L 373.642728 253.561679 
L 374.274545 339.932571 
L 374.748408 364.086965 
L 375.22227 376.116368 
L 375.538178 379.467644 
L 376.012041 380.867214 
L 376.327949 380.910032 
L 376.485904 381.030667 
L 376.643858 381.304306 
L 377.11772 381.407188 
L 377.749537 381.455018 
L 378.065445 381.400931 
L 378.2234 381.258003 
L 378.539308 381.256949 
L 378.855216 381.199854 
L 379.329079 381.378569 
L 379.644987 381.329069 
L 379.960896 381.623451 
L 380.11885 381.728987 
L 380.434758 382.08398 
L 380.592712 382.083483 
L 381.066575 381.457886 
L 381.224529 381.457399 
L 381.698392 382.043723 
L 381.856346 382.043246 
L 382.330209 381.608582 
L 383.119979 381.935004 
L 383.593842 381.963951 
L 384.225659 381.874326 
L 384.541567 381.743182 
L 386.121109 381.660234 
L 386.279063 381.546215 
L 386.437017 381.663973 
L 386.594972 381.554503 
L 386.752926 381.687415 
L 386.91088 381.553713 
L 387.068834 381.721471 
L 387.226788 382.155848 
L 387.542697 382.170226 
L 387.700651 381.865358 
L 388.174513 381.964213 
L 388.490422 382.278569 
L 388.80633 382.252092 
L 389.280193 381.931391 
L 389.438147 381.961339 
L 389.596101 382.353342 
L 389.91201 382.310242 
L 390.227918 381.92631 
L 391.175643 381.968291 
L 391.649506 382.285475 
L 391.80746 382.279109 
L 391.965414 382.104596 
L 392.913139 382.160401 
L 393.071093 382.319178 
L 393.229047 382.318898 
L 393.387002 382.011104 
L 393.544956 381.982047 
L 393.860864 381.78609 
L 394.018818 381.785823 
L 394.492681 382.075895 
L 394.650635 382.065036 
L 394.808589 381.710305 
L 395.124498 381.793125 
L 395.756314 381.87851 
L 395.914269 381.878275 
L 396.230177 382.126253 
L 396.70404 381.845334 
L 397.019948 381.90701 
L 397.177902 382.209771 
L 397.335856 382.209562 
L 397.651765 381.791049 
L 398.283582 381.719061 
L 398.59949 382.021655 
L 399.231307 382.096673 
L 399.389261 381.81322 
L 399.705169 381.829543 
L 400.021078 382.14582 
L 400.179032 382.045679 
L 400.336986 382.150047 
L 400.49494 382.045367 
L 400.652894 382.151255 
L 400.810849 381.857222 
L 401.126757 381.690297 
L 401.442665 381.36735 
L 401.600619 379.084311 
L 401.758574 373.6655 
L 401.916528 363.424865 
L 402.864253 269.123621 
L 403.180161 260.785515 
L 403.338116 260.785373 
L 403.49607 268.674651 
L 404.443795 358.073594 
L 404.917657 372.673442 
L 405.233566 377.823683 
L 405.549474 380.204744 
L 406.339245 382.141511 
L 406.497199 382.221657 
L 407.129016 381.992377 
L 407.444924 382.120889 
L 407.760833 382.241839 
L 407.918787 382.588628 
L 408.076741 382.588516 
L 408.234695 382.338455 
L 408.708558 382.176057 
L 408.866512 381.916919 
L 409.024466 381.909251 
L 409.18242 381.29261 
L 409.340375 379.8943 
L 409.814237 366.407173 
L 410.2881 351.379409 
L 410.604008 347.542057 
L 410.761962 346.722416 
L 410.919917 346.722317 
L 411.077871 348.415838 
L 412.18355 376.832492 
L 412.815367 381.161522 
L 413.131275 382.158083 
L 413.763092 382.23342 
L 414.236954 382.307375 
L 414.552863 382.307208 
L 414.710817 382.531329 
L 414.868771 382.537313 
L 415.026725 382.94777 
L 415.500588 382.891525 
L 415.816496 382.596015 
L 416.764221 382.883588 
L 417.238084 382.492674 
L 417.553992 383.194022 
L 418.027855 383.106136 
L 418.027855 383.106136 
" clip-path="url(#pf35899d10e)" style="fill: none; stroke: #5088c5; stroke-linecap: round"/>
   </g>
   <g id="line2d_14">
    <defs>
     <path id="m3e59ab1467" d="M 0 2 
C 0.530406 2 1.03916 1.789267 1.414214 1.414214 
C 1.789267 1.03916 2 0.530406 2 0 
C 2 -0.530406 1.789267 -1.03916 1.414214 -1.414214 
C 1.03916 -1.789267 0.530406 -2 0 -2 
C -0.530406 -2 -1.03916 -1.789267 -1.414214 -1.414214 
C -1.789267 -1.03916 -2 -0.530406 -2 0 
C -2 0.530406 -1.789267 1.03916 -1.414214 1.414214 
C -1.03916 1.789267 -0.530406 2 0 2 
z
"/>
    </defs>
    <g clip-path="url(#pf35899d10e)">
     <use xlink:href="#m3e59ab1467" x="215.177508" y="33.969719" style="fill: #f28360"/>
     <use xlink:href="#m3e59ab1467" x="223.625647" y="352.230715" style="fill: #f28360"/>
     <use xlink:href="#m3e59ab1467" x="241.696953" y="332.425569" style="fill: #f28360"/>
     <use xlink:href="#m3e59ab1467" x="278.886044" y="331.49468" style="fill: #f28360"/>
     <use xlink:href="#m3e59ab1467" x="285.146808" y="298.154669" style="fill: #f28360"/>
     <use xlink:href="#m3e59ab1467" x="298.607232" y="264.616879" style="fill: #f28360"/>
     <use xlink:href="#m3e59ab1467" x="304.493641" y="344.940854" style="fill: #f28360"/>
     <use xlink:href="#m3e59ab1467" x="319.910669" y="355.124098" style="fill: #f28360"/>
     <use xlink:href="#m3e59ab1467" x="334.06415" y="310.68466" style="fill: #f28360"/>
     <use xlink:href="#m3e59ab1467" x="345.069742" y="351.572849" style="fill: #f28360"/>
     <use xlink:href="#m3e59ab1467" x="353.594097" y="314.61071" style="fill: #f28360"/>
     <use xlink:href="#m3e59ab1467" x="367.571357" y="270.667255" style="fill: #f28360"/>
     <use xlink:href="#m3e59ab1467" x="373.107859" y="216.979327" style="fill: #f28360"/>
     <use xlink:href="#m3e59ab1467" x="403.157944" y="260.785515" style="fill: #f28360"/>
     <use xlink:href="#m3e59ab1467" x="410.752588" y="346.722416" style="fill: #f28360"/>
    </g>
   </g>
   <g id="patch_3">
    <path d="M 81.762344 397.163023 
L 81.762344 20 
" style="fill: none; stroke: #000000; stroke-width: 0.75; stroke-linejoin: miter; stroke-linecap: square"/>
   </g>
   <g id="patch_4">
    <path d="M 81.762344 397.163023 
L 430.961144 397.163023 
" style="fill: none; stroke: #000000; stroke-width: 0.75; stroke-linejoin: miter; stroke-linecap: square"/>
   </g>
  </g>
 </g>
 <defs>
  <clipPath id="pf35899d10e">
   <rect x="81.762344" y="20" width="349.1988" height="377.163023"/>
  </clipPath>
 </defs>
</svg>
