<?xml version="1.0" encoding="utf-8" standalone="no"?>
<!DOCTYPE svg PUBLIC "-//W3C//DTD SVG 1.1//EN"
  "http://www.w3.org/Graphics/SVG/1.1/DTD/svg11.dtd">
<svg xmlns:xlink="http://www.w3.org/1999/xlink" width="463.970916pt" height="463.99896pt" viewBox="0 0 463.970916 463.99896" xmlns="http://www.w3.org/2000/svg" version="1.1">
 <metadata>
  <rdf:RDF xmlns:dc="http://purl.org/dc/elements/1.1/" xmlns:cc="http://creativecommons.org/ns#" xmlns:rdf="http://www.w3.org/1999/02/22-rdf-syntax-ns#">
   <cc:Work>
    <dc:type rdf:resource="http://purl.org/dc/dcmitype/StillImage"/>
    <dc:date>2025-02-06T14:48:44.235690</dc:date>
    <dc:format>image/svg+xml</dc:format>
    <dc:creator>
     <cc:Agent>
      <dc:title>Matplotlib v3.8.4, https://matplotlib.org/</dc:title>
     </cc:Agent>
    </dc:creator>
   </cc:Work>
  </rdf:RDF>
 </metadata>
 <defs>
  <style type="text/css">*{stroke-linejoin: round; stroke-linecap: butt}</style>
 </defs>
 <g id="figure_1">
  <g id="patch_1">
   <path d="M 0 463.99896 
L 463.970916 463.99896 
L 463.970916 -0 
L 0 -0 
L 0 463.99896 
z
" style="fill: none"/>
  </g>
  <g id="axes_1">
   <g id="patch_2">
    <path d="M 91.128438 397.284897 
L 443.970916 397.284897 
L 443.970916 20 
L 91.128438 20 
L 91.128438 397.284897 
z
" style="fill: none"/>
   </g>
   <g id="matplotlib.axis_1">
    <g id="xtick_1">
     <g id="line2d_1">
      <defs>
       <path id="mbed9446b25" d="M 0 0 
L 0 5 
" style="stroke: #000000; stroke-width: 0.75"/>
      </defs>
      <g>
       <use xlink:href="#mbed9446b25" x="114.910267" y="397.284897" style="stroke: #000000; stroke-width: 0.75"/>
      </g>
     </g>
     <g id="text_1">
      <text style="font: 14.5px &quot;Suisse Int&apos;l Mono&quot;; text-anchor: middle" x="114.910267" y="417.797397" transform="rotate(-0 114.910267 417.797397)">500</text>
     </g>
    </g>
    <g id="xtick_2">
     <g id="line2d_2">
      <g>
       <use xlink:href="#mbed9446b25" x="166.627589" y="397.284897" style="stroke: #000000; stroke-width: 0.75"/>
      </g>
     </g>
     <g id="text_2">
      <text style="font: 14.5px &quot;Suisse Int&apos;l Mono&quot;; text-anchor: middle" x="166.627589" y="417.797397" transform="rotate(-0 166.627589 417.797397)">1000</text>
     </g>
    </g>
    <g id="xtick_3">
     <g id="line2d_3">
      <g>
       <use xlink:href="#mbed9446b25" x="218.344912" y="397.284897" style="stroke: #000000; stroke-width: 0.75"/>
      </g>
     </g>
     <g id="text_3">
      <text style="font: 14.5px &quot;Suisse Int&apos;l Mono&quot;; text-anchor: middle" x="218.344912" y="417.797397" transform="rotate(-0 218.344912 417.797397)">1500</text>
     </g>
    </g>
    <g id="xtick_4">
     <g id="line2d_4">
      <g>
       <use xlink:href="#mbed9446b25" x="270.062234" y="397.284897" style="stroke: #000000; stroke-width: 0.75"/>
      </g>
     </g>
     <g id="text_4">
      <text style="font: 14.5px &quot;Suisse Int&apos;l Mono&quot;; text-anchor: middle" x="270.062234" y="417.797397" transform="rotate(-0 270.062234 417.797397)">2000</text>
     </g>
    </g>
    <g id="xtick_5">
     <g id="line2d_5">
      <g>
       <use xlink:href="#mbed9446b25" x="321.779556" y="397.284897" style="stroke: #000000; stroke-width: 0.75"/>
      </g>
     </g>
     <g id="text_5">
      <text style="font: 14.5px &quot;Suisse Int&apos;l Mono&quot;; text-anchor: middle" x="321.779556" y="417.797397" transform="rotate(-0 321.779556 417.797397)">2500</text>
     </g>
    </g>
    <g id="xtick_6">
     <g id="line2d_6">
      <g>
       <use xlink:href="#mbed9446b25" x="373.496878" y="397.284897" style="stroke: #000000; stroke-width: 0.75"/>
      </g>
     </g>
     <g id="text_6">
      <text style="font: 14.5px &quot;Suisse Int&apos;l Mono&quot;; text-anchor: middle" x="373.496878" y="417.797397" transform="rotate(-0 373.496878 417.797397)">3000</text>
     </g>
    </g>
    <g id="xtick_7">
     <g id="line2d_7">
      <g>
       <use xlink:href="#mbed9446b25" x="425.2142" y="397.284897" style="stroke: #000000; stroke-width: 0.75"/>
      </g>
     </g>
     <g id="text_7">
      <text style="font: 14.5px &quot;Suisse Int&apos;l Mono&quot;; text-anchor: middle" x="425.2142" y="417.797397" transform="rotate(-0 425.2142 417.797397)">3500</text>
     </g>
    </g>
    <g id="text_8">
     <text style="font: 500 15px &quot;Suisse Int&apos;l&quot;, sans-serif; text-anchor: middle" x="267.549677" y="441.209897" transform="rotate(-0 267.549677 441.209897)">Raman shift (cm-1)</text>
    </g>
   </g>
   <g id="matplotlib.axis_2">
    <g id="ytick_1">
     <g id="line2d_8">
      <defs>
       <path id="mb5e6527412" d="M 0 0 
L -5 0 
" style="stroke: #000000; stroke-width: 0.75"/>
      </defs>
      <g>
       <use xlink:href="#mb5e6527412" x="91.128438" y="383.279451" style="stroke: #000000; stroke-width: 0.75"/>
      </g>
     </g>
     <g id="text_9">
      <text style="font: 14.5px &quot;Suisse Int&apos;l Mono&quot;; text-anchor: end" x="81.128438" y="388.535701" transform="rotate(-0 81.128438 388.535701)">0.00</text>
     </g>
    </g>
    <g id="ytick_2">
     <g id="line2d_9">
      <g>
       <use xlink:href="#mb5e6527412" x="91.128438" y="303.393201" style="stroke: #000000; stroke-width: 0.75"/>
      </g>
     </g>
     <g id="text_10">
      <text style="font: 14.5px &quot;Suisse Int&apos;l Mono&quot;; text-anchor: end" x="81.128438" y="308.649451" transform="rotate(-0 81.128438 308.649451)">0.01</text>
     </g>
    </g>
    <g id="ytick_3">
     <g id="line2d_10">
      <g>
       <use xlink:href="#mb5e6527412" x="91.128438" y="223.506952" style="stroke: #000000; stroke-width: 0.75"/>
      </g>
     </g>
     <g id="text_11">
      <text style="font: 14.5px &quot;Suisse Int&apos;l Mono&quot;; text-anchor: end" x="81.128438" y="228.763202" transform="rotate(-0 81.128438 228.763202)">0.02</text>
     </g>
    </g>
    <g id="ytick_4">
     <g id="line2d_11">
      <g>
       <use xlink:href="#mb5e6527412" x="91.128438" y="143.620702" style="stroke: #000000; stroke-width: 0.75"/>
      </g>
     </g>
     <g id="text_12">
      <text style="font: 14.5px &quot;Suisse Int&apos;l Mono&quot;; text-anchor: end" x="81.128438" y="148.876952" transform="rotate(-0 81.128438 148.876952)">0.03</text>
     </g>
    </g>
    <g id="ytick_5">
     <g id="line2d_12">
      <g>
       <use xlink:href="#mb5e6527412" x="91.128438" y="63.734452" style="stroke: #000000; stroke-width: 0.75"/>
      </g>
     </g>
     <g id="text_13">
      <text style="font: 14.5px &quot;Suisse Int&apos;l Mono&quot;; text-anchor: end" x="81.128438" y="68.990702" transform="rotate(-0 81.128438 68.990702)">0.04</text>
     </g>
    </g>
    <g id="text_14">
     <text style="font: 500 15px &quot;Suisse Int&apos;l&quot;, sans-serif; text-anchor: middle" x="30.875" y="208.642449" transform="rotate(-90 30.875 208.642449)">Intensity (au)</text>
    </g>
   </g>
   <g id="line2d_13">
    <path d="M 104.196677 370.497309 
L 104.389309 383.311383 
L 104.774455 383.311383 
L 104.96697 382.921307 
L 105.159445 380.803322 
L 105.351882 383.311382 
L 105.928959 367.775503 
L 106.313483 375.47152 
L 106.505686 373.166147 
L 106.697851 382.798517 
L 106.889977 382.059954 
L 107.082064 383.311379 
L 107.274112 381.263479 
L 107.658092 374.046729 
L 107.850024 383.16548 
L 108.041918 381.608225 
L 108.233772 383.311375 
L 108.425588 376.210781 
L 108.617365 383.311373 
L 108.809103 363.730374 
L 109.000803 363.439348 
L 109.192464 371.673622 
L 109.384086 374.558314 
L 109.57567 383.31137 
L 109.958721 371.150524 
L 110.341618 367.428143 
L 110.533008 383.311366 
L 110.72436 372.126891 
L 110.915673 383.311365 
L 111.106948 377.84351 
L 111.298184 381.27007 
L 111.489382 380.032288 
L 111.680541 383.311363 
L 111.871662 382.177704 
L 112.062744 383.311361 
L 112.253787 383.140703 
L 112.444792 367.204455 
L 112.635759 373.406024 
L 112.826687 365.776247 
L 113.017577 378.710317 
L 113.208428 380.772564 
L 113.399241 372.378284 
L 113.590016 378.157646 
L 113.780752 376.304157 
L 113.971449 383.311354 
L 114.162109 380.15945 
L 114.35273 380.476701 
L 114.543312 383.311352 
L 114.733856 383.311352 
L 114.924362 373.766702 
L 115.11483 372.037084 
L 115.49565 364.515952 
L 115.686003 365.686125 
L 116.066593 380.874521 
L 116.256831 383.311347 
L 116.447031 379.962179 
L 116.637192 383.311346 
L 116.827316 379.215553 
L 117.017401 379.246029 
L 117.397456 372.16162 
L 117.587426 374.458109 
L 117.967253 363.061376 
L 118.157109 379.097709 
L 118.346927 379.808472 
L 118.536706 383.31134 
L 118.726448 378.252551 
L 118.916152 383.311339 
L 119.105817 373.49955 
L 119.485034 375.736356 
L 119.674585 372.682791 
L 119.864099 380.720162 
L 120.053574 383.311336 
L 120.43241 373.166261 
L 120.621772 361.239882 
L 121.00038 381.965434 
L 121.189628 383.311333 
L 121.378837 383.311333 
L 121.568009 378.435387 
L 121.757142 377.837071 
L 121.946238 377.713646 
L 122.135296 376.980346 
L 122.324316 375.06012 
L 122.513298 379.037384 
L 122.702242 378.600206 
L 122.891148 371.482094 
L 123.080017 376.777497 
L 123.268847 378.928186 
L 123.45764 383.311329 
L 123.646395 383.311328 
L 123.835112 378.057497 
L 124.023792 377.048789 
L 124.212433 365.173793 
L 124.401037 367.841115 
L 124.589603 366.597765 
L 124.778132 380.049267 
L 124.966623 380.615333 
L 125.155076 383.311326 
L 125.720208 371.735008 
L 125.908511 378.043969 
L 126.285002 373.344236 
L 126.473191 379.504528 
L 126.661343 377.243819 
L 126.849457 383.130951 
L 127.037534 361.711519 
L 127.225572 377.519617 
L 127.413574 371.871052 
L 127.601538 383.311321 
L 127.789464 378.106252 
L 127.977352 380.300424 
L 128.165203 375.705422 
L 128.353017 375.118186 
L 128.540793 376.056825 
L 128.728532 368.311717 
L 128.916233 373.52741 
L 129.103896 383.311318 
L 129.666662 383.311317 
L 129.854176 382.116714 
L 130.041652 381.970434 
L 130.229091 380.181573 
L 130.603857 359.112492 
L 130.791184 359.63359 
L 131.35294 383.311314 
L 131.540117 382.81153 
L 131.727257 362.568449 
L 132.101426 380.983938 
L 132.288454 383.311311 
L 132.475445 377.794766 
L 132.662398 379.636894 
L 132.849315 383.311309 
L 133.036194 382.823714 
L 133.40984 374.074539 
L 133.596608 381.131673 
L 133.783338 383.311304 
L 133.970031 382.945607 
L 134.156687 383.311302 
L 134.343306 380.434492 
L 134.902939 358.312891 
L 135.275843 377.071482 
L 135.462239 379.116329 
L 135.648597 376.318184 
L 136.021204 383.311288 
L 136.207452 381.519374 
L 136.393662 378.459082 
L 136.579836 367.337069 
L 136.952072 377.890663 
L 137.138135 377.998852 
L 137.32416 376.733133 
L 137.510149 383.311277 
L 137.696101 382.482368 
L 137.882015 383.311274 
L 138.253734 376.347811 
L 138.439538 378.117378 
L 138.625305 383.311269 
L 138.811035 373.571536 
L 138.996728 374.553896 
L 139.182384 371.997056 
L 139.368004 382.513399 
L 139.553587 367.076939 
L 139.739132 367.534846 
L 139.924641 365.027455 
L 140.110113 366.664163 
L 140.295549 369.918248 
L 140.480947 381.205391 
L 140.666309 383.311255 
L 140.851634 377.534152 
L 141.036922 378.700818 
L 141.222173 383.311252 
L 141.407388 383.31125 
L 141.592566 380.836709 
L 141.962811 361.874331 
L 142.33291 379.120476 
L 142.517905 383.311244 
L 142.887783 367.406927 
L 143.072668 369.531182 
L 143.257516 383.311239 
L 143.442327 382.884593 
L 143.627101 375.876375 
L 143.811839 374.269869 
L 143.996541 376.272288 
L 144.181205 371.7179 
L 144.365834 383.31123 
L 144.550425 374.494503 
L 144.73498 371.11092 
L 144.919499 362.00085 
L 145.103981 361.698958 
L 145.472835 383.311222 
L 146.025843 368.556387 
L 146.210106 377.212923 
L 146.394333 378.845533 
L 146.578523 378.170709 
L 146.762677 376.685454 
L 146.946794 381.347183 
L 147.130875 380.486974 
L 147.314919 383.311207 
L 147.682899 378.41393 
L 147.866835 379.8416 
L 148.234596 369.549196 
L 148.602213 380.03555 
L 148.785966 383.311196 
L 148.969684 379.439899 
L 149.153365 381.198729 
L 149.33701 377.604877 
L 149.520618 377.397459 
L 149.70419 364.945101 
L 149.887726 376.663206 
L 150.071226 373.628654 
L 150.25469 381.275604 
L 150.438117 372.924773 
L 150.621508 383.311183 
L 150.804863 376.096438 
L 151.171465 380.730102 
L 151.354711 372.012545 
L 151.537921 370.382146 
L 151.721096 365.741632 
L 151.904234 379.219256 
L 152.087336 380.533407 
L 152.270401 379.568316 
L 152.636425 383.311168 
L 152.819382 380.373414 
L 153.002304 382.238461 
L 153.185189 364.889714 
L 153.368038 372.342062 
L 153.550852 375.06043 
L 153.733629 371.670296 
L 153.91637 382.590624 
L 154.099076 366.277971 
L 154.281745 366.389251 
L 154.464378 369.182952 
L 154.646976 380.070488 
L 154.829537 383.311152 
L 155.012062 380.729946 
L 155.194552 383.31115 
L 155.377005 369.625595 
L 155.559423 380.419736 
L 155.741805 371.404979 
L 155.924151 383.311145 
L 156.106461 377.923223 
L 156.470973 380.573503 
L 156.653175 368.561422 
L 156.835342 368.722951 
L 157.017472 367.329254 
L 157.199567 372.19856 
L 157.381626 364.693245 
L 158.109505 309.160474 
L 158.473229 329.325438 
L 158.655038 330.056875 
L 158.836811 339.608474 
L 159.018548 340.559119 
L 159.381915 383.311122 
L 161.015303 383.311112 
L 161.377887 376.554627 
L 161.559125 377.822373 
L 161.740328 375.264726 
L 161.921495 383.311108 
L 162.102627 383.311107 
L 162.283723 380.387701 
L 162.464783 373.024393 
L 162.645808 383.311105 
L 163.007752 381.994602 
L 163.188671 383.311102 
L 163.369554 382.689419 
L 163.911991 366.353084 
L 164.092732 381.715368 
L 164.273438 383.311095 
L 164.454109 377.386825 
L 164.634744 377.357106 
L 164.815344 364.230979 
L 164.995908 372.721208 
L 165.176437 366.60192 
L 165.53739 383.311085 
L 165.717813 383.311084 
L 165.8982 378.078581 
L 166.078553 383.311081 
L 166.25887 382.51874 
L 166.619398 373.822828 
L 166.79961 362.507339 
L 166.979786 375.190878 
L 167.340032 376.289143 
L 167.520103 383.207521 
L 167.700138 383.31107 
L 167.880138 378.154755 
L 168.060102 366.886215 
L 168.419926 383.311065 
L 168.599785 376.160374 
L 168.77961 363.362587 
L 169.498554 383.311058 
L 169.678203 373.273429 
L 170.216938 383.311053 
L 170.396446 364.224469 
L 170.575919 375.01023 
L 170.755357 367.236498 
L 170.93476 383.311048 
L 171.114128 372.340189 
L 171.293461 370.089952 
L 171.472759 365.327132 
L 171.652022 370.844475 
L 171.83125 370.463496 
L 172.010443 372.907535 
L 172.368724 383.311039 
L 172.547812 380.361094 
L 172.726865 374.729336 
L 172.905884 373.183456 
L 173.084867 366.425798 
L 173.263816 366.831139 
L 173.621608 383.311031 
L 173.979261 383.311029 
L 174.158035 377.676268 
L 174.336775 382.611126 
L 174.515479 359.85874 
L 174.694149 375.099118 
L 174.872784 364.71031 
L 175.051384 383.311023 
L 175.40848 383.311021 
L 175.586976 367.863656 
L 175.943863 372.202596 
L 176.122255 383.311017 
L 176.300611 378.349745 
L 176.657221 359.830688 
L 176.835474 363.864783 
L 177.013692 382.945952 
L 177.191875 383.311012 
L 177.370024 381.667662 
L 177.548138 369.965532 
L 177.726217 383.311008 
L 178.082272 383.311006 
L 178.260248 372.347496 
L 178.616095 383.311003 
L 178.793967 383.311001 
L 179.149607 372.938409 
L 179.327375 379.753656 
L 179.505108 378.860742 
L 179.860472 372.17621 
L 180.038102 381.627647 
L 180.215697 379.658674 
L 180.393258 357.640105 
L 180.925734 383.310989 
L 181.103157 383.310988 
L 181.280546 383.07938 
L 181.4579 378.983588 
L 181.63522 380.681025 
L 181.812505 378.729819 
L 181.989756 365.567847 
L 182.521303 382.904079 
L 182.698416 383.310977 
L 182.875495 377.796268 
L 183.05254 368.541285 
L 183.22955 373.181316 
L 183.406527 371.313255 
L 183.583468 383.31097 
L 183.760376 380.958326 
L 183.937249 383.310967 
L 184.114088 361.977422 
L 184.290893 369.873058 
L 184.467663 366.61226 
L 184.644399 383.310961 
L 184.821101 382.595948 
L 184.997769 383.310958 
L 185.351001 368.887333 
L 185.527566 368.716695 
L 185.704097 370.864435 
L 185.880594 374.664623 
L 186.057056 381.30515 
L 186.233485 378.164604 
L 186.409879 383.310947 
L 186.762565 370.396293 
L 187.115114 383.310941 
L 187.291338 383.31094 
L 187.819804 370.103342 
L 187.995891 379.656139 
L 188.347963 367.423634 
L 188.523949 362.621031 
L 188.6999 375.136889 
L 188.875817 366.055658 
L 189.0517 383.310927 
L 189.227549 377.457509 
L 189.403364 383.310925 
L 189.579145 380.799811 
L 189.754892 380.863807 
L 190.106285 374.666748 
L 190.28193 381.002397 
L 190.457541 371.090797 
L 190.633119 382.246783 
L 190.808662 383.310915 
L 191.159648 378.481948 
L 191.335089 383.310911 
L 191.510498 371.140879 
L 191.685872 383.310909 
L 192.036518 383.310906 
L 192.38703 371.809361 
L 192.562235 371.934302 
L 192.737406 371.649427 
L 192.912544 383.310901 
L 193.087647 383.3109 
L 193.262717 381.27519 
L 193.437753 373.730699 
L 193.612756 383.310897 
L 193.787724 373.31433 
L 193.962659 372.134968 
L 194.13756 372.011623 
L 194.312428 383.310893 
L 194.487262 381.579933 
L 194.836828 371.9267 
L 195.011561 379.85906 
L 195.360925 383.310887 
L 195.535557 371.614181 
L 195.710155 383.310885 
L 195.88472 381.76328 
L 196.059251 383.310884 
L 196.233748 374.890393 
L 196.408212 380.455092 
L 196.582642 375.616349 
L 196.757038 383.31088 
L 196.931401 373.95604 
L 197.105731 378.518231 
L 197.280027 377.69402 
L 197.454289 383.308401 
L 197.628518 383.310876 
L 197.802713 380.32436 
L 197.976875 364.045427 
L 198.151003 362.68712 
L 198.499159 377.019383 
L 198.673187 383.271064 
L 198.847182 383.310871 
L 199.368964 366.311714 
L 199.542825 371.990667 
L 199.716652 371.471485 
L 199.890446 383.310866 
L 200.064207 375.491448 
L 200.237934 373.494362 
L 200.411627 373.71317 
L 200.585288 377.163489 
L 200.758915 374.754486 
L 200.932508 370.547436 
L 201.106069 383.310861 
L 201.279596 382.884215 
L 201.453089 383.310859 
L 201.62655 366.158721 
L 201.799977 367.789518 
L 201.973371 366.14386 
L 202.146731 368.473662 
L 202.666613 383.067055 
L 202.839841 383.140193 
L 203.013035 375.437724 
L 203.186196 375.864874 
L 203.359324 381.883112 
L 203.532419 372.503514 
L 203.70548 377.303086 
L 203.878508 360.832849 
L 204.051504 360.708704 
L 204.224466 349.180158 
L 204.57029 375.591668 
L 204.743153 366.279886 
L 205.088778 327.003728 
L 205.261542 335.546683 
L 205.434272 334.906872 
L 205.606969 330.471427 
L 205.779633 340.534297 
L 205.952263 344.078848 
L 206.124861 371.842674 
L 206.297426 368.853409 
L 206.469958 370.439629 
L 206.814922 383.310819 
L 206.987355 383.310817 
L 207.159755 382.164968 
L 207.332121 377.103126 
L 207.676756 383.310812 
L 208.021258 383.310809 
L 208.19346 376.804472 
L 208.365629 383.310807 
L 208.537765 381.384804 
L 208.709868 382.055248 
L 208.881938 383.310803 
L 209.053976 380.397422 
L 209.397952 371.922376 
L 209.56989 373.598468 
L 209.913669 383.310796 
L 210.085509 378.865117 
L 210.257317 381.853093 
L 210.600833 368.05132 
L 210.772542 379.662913 
L 210.944218 379.944798 
L 211.115861 375.983477 
L 211.287472 381.93898 
L 211.459049 383.310786 
L 211.630594 383.310785 
L 211.802107 382.652531 
L 211.973586 377.500279 
L 212.145033 367.816762 
L 212.316447 379.503288 
L 212.487828 370.42816 
L 212.659177 372.128697 
L 212.830493 379.96739 
L 213.001776 377.374496 
L 213.173027 383.31077 
L 213.344245 369.913125 
L 213.51543 368.319473 
L 213.686583 374.652613 
L 213.857703 366.482086 
L 214.028791 380.716927 
L 214.199845 380.546648 
L 214.370868 383.310758 
L 214.541857 376.31479 
L 214.712814 383.310755 
L 214.883739 383.310753 
L 215.22549 378.486739 
L 215.396317 382.582404 
L 215.567111 383.310747 
L 216.079298 383.310742 
L 216.249963 379.970721 
L 216.420594 370.906322 
L 216.591193 377.513193 
L 216.76176 368.227573 
L 216.932294 382.160573 
L 217.102796 383.205025 
L 217.273266 383.310732 
L 217.443703 381.214076 
L 217.614107 382.767772 
L 217.784479 377.507846 
L 217.954819 383.310725 
L 218.295401 361.570157 
L 218.465643 375.811285 
L 218.806031 379.081281 
L 218.976177 376.568641 
L 219.14629 383.310711 
L 219.31637 383.310709 
L 219.486419 380.555798 
L 219.656435 368.423743 
L 219.826419 364.791633 
L 219.99637 365.672377 
L 220.166289 383.310699 
L 220.336176 379.09796 
L 220.506031 383.310696 
L 220.675853 368.413266 
L 220.845643 374.89156 
L 221.015401 372.020846 
L 221.185127 383.310688 
L 221.524481 383.310685 
L 221.69411 369.32284 
L 221.863707 375.880964 
L 222.033272 365.846906 
L 222.202804 374.343526 
L 222.372304 375.606941 
L 222.711208 357.472982 
L 222.880612 364.834419 
L 223.049984 379.716434 
L 223.219323 383.310667 
L 223.557906 381.323589 
L 223.727149 383.310662 
L 224.065539 383.310658 
L 224.234686 366.997485 
L 224.403801 371.040367 
L 224.572884 370.22209 
L 224.741935 383.310652 
L 224.910953 382.957144 
L 225.07994 378.056058 
L 225.248895 365.447282 
L 225.417818 369.704178 
L 225.586708 383.310642 
L 225.755567 377.471762 
L 225.924394 383.310638 
L 226.093189 379.132562 
L 226.430682 383.310633 
L 226.599381 382.408579 
L 226.768048 380.50087 
L 226.936683 381.337014 
L 227.105287 375.47293 
L 227.273858 377.122747 
L 227.442397 383.310622 
L 227.610905 383.037935 
L 227.77938 377.326922 
L 227.947824 383.310616 
L 228.116236 374.835482 
L 228.284616 375.493734 
L 228.452964 365.716302 
L 228.62128 383.310608 
L 228.789565 383.115568 
L 228.957818 381.850866 
L 229.294228 383.310599 
L 229.798604 360.536701 
L 230.134696 383.310589 
L 230.302695 377.67887 
L 230.470662 381.463822 
L 230.638597 376.781895 
L 230.8065 378.456412 
L 231.31002 364.684136 
L 231.477796 381.771795 
L 231.645541 381.237154 
L 231.813254 380.130919 
L 231.980936 364.432566 
L 232.148586 367.126248 
L 232.316204 383.000862 
L 232.483791 383.310559 
L 232.651346 379.43418 
L 232.818869 366.913422 
L 232.986361 369.077459 
L 233.153821 380.333685 
L 233.32125 383.310547 
L 233.488647 383.310545 
L 233.656012 381.984894 
L 233.990649 383.310538 
L 234.157919 380.092414 
L 234.325159 379.507301 
L 234.492367 362.689574 
L 234.659543 363.235434 
L 234.826688 354.489166 
L 235.160883 383.310523 
L 235.494952 383.310518 
L 235.661939 378.041451 
L 235.828895 383.310514 
L 236.162713 355.912562 
L 236.663204 383.310503 
L 236.996707 373.683807 
L 237.163412 369.972289 
L 237.496727 383.310493 
L 237.663338 383.310491 
L 237.829917 364.708736 
L 237.996465 365.8277 
L 238.162982 379.332269 
L 238.329467 383.310483 
L 238.495921 376.983945 
L 238.662344 377.940844 
L 238.828735 374.011398 
L 238.995095 375.188519 
L 239.161424 377.775514 
L 239.327722 366.306363 
L 239.493988 373.956668 
L 239.660223 368.599893 
L 239.826427 383.310465 
L 239.9926 376.145872 
L 240.158741 383.310461 
L 240.324851 373.956738 
L 240.49093 379.344057 
L 240.656978 367.361405 
L 240.822995 371.959655 
L 240.98898 373.405674 
L 241.154934 383.310449 
L 241.320857 382.481539 
L 241.486749 382.518105 
L 241.65261 363.716743 
L 241.984239 373.114478 
L 242.150006 383.310438 
L 242.315742 382.274295 
L 242.481448 370.746404 
L 242.978377 364.486512 
L 243.143958 374.93627 
L 243.309508 373.463166 
L 243.475027 383.310423 
L 243.640515 377.325199 
L 243.805971 383.310419 
L 243.971397 380.028299 
L 244.136792 383.310415 
L 244.302156 374.814111 
L 244.467488 360.322025 
L 244.63279 365.629825 
L 244.798061 367.070173 
L 244.963301 378.457189 
L 245.12851 372.284584 
L 245.293688 381.376405 
L 245.458835 381.312598 
L 245.623951 383.310399 
L 245.789036 378.032185 
L 245.95409 377.62605 
L 246.119114 378.891566 
L 246.284106 383.310392 
L 246.449068 383.261631 
L 246.613998 372.168893 
L 246.778898 383.310387 
L 246.943767 375.6735 
L 247.108605 382.296595 
L 247.438189 365.215585 
L 247.767649 381.424438 
L 247.932333 383.310375 
L 248.096987 383.310373 
L 248.261609 381.518459 
L 248.590761 362.784715 
L 248.919791 377.912419 
L 249.084259 371.100469 
L 249.413104 367.217036 
L 249.577481 369.69918 
L 249.741826 382.392688 
L 249.906141 383.310355 
L 250.070425 379.458359 
L 250.234679 382.414396 
L 250.398902 381.481874 
L 250.563094 377.863129 
L 250.727256 362.833025 
L 250.891387 367.947341 
L 251.055487 369.461104 
L 251.219556 380.025172 
L 251.383595 378.955134 
L 251.547604 383.310339 
L 251.711581 379.385262 
L 251.875529 378.258465 
L 252.203331 383.310333 
L 252.367186 382.399141 
L 252.531011 383.31033 
L 252.694806 375.549451 
L 252.858569 381.817069 
L 253.022302 383.310325 
L 253.513319 376.064973 
L 253.67693 383.310319 
L 253.84051 378.91194 
L 254.004061 383.310316 
L 254.16758 368.738663 
L 254.331069 375.535783 
L 254.494528 377.275888 
L 254.657956 381.869242 
L 254.821354 382.335377 
L 254.984721 382.092146 
L 255.148058 380.214842 
L 255.311365 380.369053 
L 255.474641 383.310303 
L 255.637886 376.594257 
L 255.801102 383.3103 
L 256.127441 376.817167 
L 256.290565 383.310296 
L 256.453659 379.178506 
L 256.616722 381.958682 
L 256.942758 370.315674 
L 257.10573 377.410267 
L 257.268672 374.753193 
L 257.431584 375.660963 
L 257.594465 366.991841 
L 257.920137 383.310283 
L 258.082928 379.056019 
L 258.245688 382.9263 
L 258.408418 374.524868 
L 258.571118 374.348638 
L 258.733788 370.694719 
L 259.221615 383.31027 
L 259.384163 383.310269 
L 259.871628 359.633098 
L 260.358821 383.132998 
L 260.521159 377.590993 
L 260.683466 366.478383 
L 261.170207 383.310251 
L 261.332394 375.143078 
L 261.49455 380.07384 
L 261.656677 375.557493 
L 261.818773 383.310244 
L 261.98084 377.948733 
L 262.142876 383.310241 
L 262.304882 375.654117 
L 262.466859 379.273234 
L 262.628805 372.05682 
L 262.790721 375.669354 
L 262.952607 374.647288 
L 263.114463 383.310231 
L 263.438085 372.492511 
L 263.761587 362.66586 
L 263.923293 376.626308 
L 264.08497 365.545756 
L 264.408232 383.310218 
L 264.569818 383.151749 
L 264.731375 375.816501 
L 264.892901 383.310213 
L 265.054398 376.683559 
L 265.215864 382.360738 
L 265.377301 363.233356 
L 265.861432 383.310203 
L 266.022749 381.725522 
L 266.184036 378.053325 
L 266.345294 371.250251 
L 266.506521 371.505486 
L 266.667719 373.593071 
L 266.828887 380.562586 
L 266.990025 370.993889 
L 267.151133 383.31019 
L 267.312212 383.310189 
L 267.473261 380.961987 
L 267.634279 376.039442 
L 267.795269 383.310184 
L 267.956228 380.299286 
L 268.278058 361.886764 
L 268.438928 379.349426 
L 268.599768 383.310176 
L 268.760579 383.310175 
L 268.92136 380.872205 
L 269.082111 382.045477 
L 269.242832 370.739989 
L 269.403524 343.227483 
L 269.564186 348.524019 
L 269.885422 383.310164 
L 270.045995 383.115126 
L 270.367052 372.114262 
L 270.687991 381.891624 
L 270.848416 374.233319 
L 271.008811 374.64593 
L 271.329513 383.31015 
L 271.489819 383.18825 
L 271.650096 373.502033 
L 271.810344 380.924806 
L 271.970562 372.486196 
L 272.290909 383.31014 
L 272.611137 383.310137 
L 272.771207 377.672323 
L 272.931248 381.286615 
L 273.091259 380.65274 
L 273.411193 356.764328 
L 273.571115 368.671531 
L 273.731009 368.148195 
L 273.890872 380.740288 
L 274.050707 382.372458 
L 274.210511 381.195053 
L 274.370287 383.31012 
L 274.689749 374.448255 
L 275.009094 383.310113 
L 275.168722 383.163834 
L 275.328321 383.31011 
L 275.48789 374.428116 
L 275.64743 372.297069 
L 275.806941 354.512071 
L 275.966422 380.125247 
L 276.125874 383.310102 
L 276.285297 383.310101 
L 276.44469 371.041009 
L 276.763389 377.026795 
L 276.922694 375.830217 
L 277.081971 372.161088 
L 277.241217 373.063082 
L 277.400435 375.023569 
L 277.559623 383.310088 
L 277.718782 377.769792 
L 277.877912 383.310085 
L 278.196083 371.908637 
L 278.514138 370.021561 
L 278.673121 374.702414 
L 278.832075 371.33345 
L 279.149896 383.310074 
L 279.308763 383.310072 
L 279.467601 368.450669 
L 279.785188 379.756727 
L 279.943938 383.310066 
L 280.102659 383.310065 
L 280.26135 379.372742 
L 280.578646 352.918935 
L 280.895826 377.703993 
L 281.054372 382.947154 
L 281.212889 380.899256 
L 281.529836 383.310052 
L 281.688265 382.066685 
L 281.846666 383.310048 
L 282.005038 360.379338 
L 282.16338 361.042712 
L 282.321694 363.254281 
L 282.479978 381.560733 
L 282.638234 362.952947 
L 283.112826 383.310035 
L 283.429076 383.310032 
L 283.587158 377.983064 
L 283.74521 383.310029 
L 283.903234 365.684005 
L 284.061229 380.378369 
L 284.219194 380.274747 
L 284.377131 381.594426 
L 284.535039 380.798909 
L 284.692918 383.31002 
L 285.008589 371.039569 
L 285.166381 373.154556 
L 285.324145 373.260723 
L 285.481879 375.577072 
L 285.639585 367.993341 
L 285.797261 371.378439 
L 286.112528 383.310007 
L 286.270118 378.897273 
L 286.42768 383.310004 
L 286.585212 381.457145 
L 286.742716 383.310001 
L 286.900191 378.775369 
L 287.057637 383.309998 
L 287.215054 376.508058 
L 287.372443 360.849018 
L 287.529802 367.879566 
L 287.687133 358.710221 
L 287.844436 381.591351 
L 288.31617 349.889096 
L 288.630515 383.309985 
L 288.787645 383.309983 
L 288.944746 364.323737 
L 289.258862 358.637671 
L 289.572864 383.309977 
L 290.043651 374.112589 
L 290.200523 358.110973 
L 290.357366 371.537374 
L 290.51418 369.680097 
L 290.670966 362.038257 
L 290.827723 373.744707 
L 290.984452 373.299979 
L 291.141152 383.309964 
L 291.454466 378.056131 
L 291.611081 366.247536 
L 291.767666 371.533128 
L 291.924224 369.204922 
L 292.080752 383.309957 
L 292.237252 379.323872 
L 292.393724 381.554614 
L 292.550167 380.11297 
L 292.706581 359.222011 
L 292.862967 367.987449 
L 293.019325 356.295855 
L 293.175654 373.957505 
L 293.488226 383.309946 
L 293.64447 379.494522 
L 293.956872 369.335281 
L 294.11303 378.642244 
L 294.26916 380.38437 
L 294.425261 365.524943 
L 294.581334 365.012951 
L 294.893395 348.130028 
L 295.205342 304.051989 
L 295.361272 272.049157 
L 295.828895 121.433215 
L 295.984712 93.197419 
L 296.140501 90.673013 
L 296.296262 113.726585 
L 297.074641 345.665361 
L 297.230232 383.309918 
L 298.939867 383.309907 
L 299.095118 379.860178 
L 299.250342 383.309905 
L 299.405538 379.378678 
L 299.560705 383.309904 
L 299.870956 367.611855 
L 300.026038 367.332572 
L 300.181093 356.104079 
L 300.33612 370.017707 
L 300.646089 363.147168 
L 300.955945 368.356629 
L 301.110831 383.2692 
L 301.265689 380.793575 
L 301.420519 383.309895 
L 301.575321 381.775239 
L 301.730095 383.309893 
L 302.348909 383.309891 
L 302.503543 378.78745 
L 302.658148 370.585688 
L 302.812725 373.230561 
L 302.967275 383.309888 
L 303.27629 376.470362 
L 303.430755 377.412916 
L 303.893984 383.309885 
L 304.202663 376.67498 
L 304.356961 361.446136 
L 304.819686 383.309882 
L 305.12803 375.910258 
L 305.282161 364.985333 
L 305.436263 363.70188 
L 305.898403 383.309879 
L 306.052394 383.309879 
L 306.360292 381.554537 
L 306.668079 366.415214 
L 307.12955 383.309876 
L 307.437059 368.994419 
L 307.744456 383.309875 
L 307.898114 381.261975 
L 308.051743 383.309874 
L 308.358919 360.224345 
L 308.665983 383.029253 
L 308.819474 383.309873 
L 308.972937 375.15788 
L 309.126372 377.376456 
L 309.27978 381.730584 
L 309.43316 365.695032 
L 309.586512 362.520432 
L 309.739836 376.086683 
L 309.893133 375.018156 
L 310.046402 379.360292 
L 310.199644 373.808837 
L 310.352858 383.309868 
L 310.506044 378.482685 
L 310.659203 378.738672 
L 310.812334 383.309866 
L 310.965437 381.688614 
L 311.118513 376.45815 
L 311.271561 363.710572 
L 311.577575 383.13019 
L 311.73054 383.309864 
L 312.189271 376.305204 
L 312.342126 365.053936 
L 312.494954 363.767927 
L 312.800526 383.30986 
L 312.953271 383.309859 
L 313.258679 378.330556 
L 313.563977 361.178091 
L 313.716584 366.69096 
L 313.869164 383.309856 
L 314.021717 383.309856 
L 314.32674 370.986921 
L 314.47921 383.309854 
L 314.631653 383.309854 
L 314.784068 382.541893 
L 314.936456 373.015551 
L 315.088817 379.041371 
L 315.24115 371.184398 
L 315.393456 372.138319 
L 315.545734 370.485073 
L 315.850208 383.287757 
L 316.002405 381.095548 
L 316.154573 372.863046 
L 316.306715 371.164024 
L 316.458829 382.114104 
L 316.610916 372.148861 
L 316.762975 372.846747 
L 316.915007 383.309848 
L 317.21899 383.309848 
L 317.522863 370.509594 
L 317.674758 367.257983 
L 317.826627 378.579798 
L 318.130282 383.309846 
L 318.282068 365.114155 
L 318.433827 371.070953 
L 318.585559 358.720458 
L 318.737264 383.309845 
L 319.040592 364.183399 
L 319.343811 383.309844 
L 319.49538 383.309844 
L 319.646921 380.298947 
L 319.798435 380.405611 
L 319.949922 376.272488 
L 320.101382 380.709594 
L 320.252815 375.208898 
L 320.404221 383.309843 
L 320.555599 383.309843 
L 320.706951 380.286756 
L 321.160842 364.181799 
L 321.312085 364.163505 
L 321.4633 370.048166 
L 321.614489 381.810042 
L 321.76565 383.309842 
L 322.218972 383.309842 
L 322.370026 380.64026 
L 322.672051 383.309842 
L 322.823023 382.310274 
L 322.973968 377.833544 
L 323.124886 383.309843 
L 323.275777 372.430534 
L 323.426641 377.042982 
L 323.577478 371.994834 
L 323.728288 383.309843 
L 324.029827 375.386685 
L 324.180556 372.647985 
L 324.331258 380.715114 
L 324.481933 378.975016 
L 324.632581 382.001019 
L 324.783202 378.630459 
L 324.933797 383.309844 
L 325.084364 382.566263 
L 325.234904 375.836701 
L 325.385418 374.303788 
L 325.535904 381.609234 
L 325.836797 383.309845 
L 326.137581 375.598106 
L 326.287934 363.991593 
L 326.588557 383.309846 
L 326.738829 383.309846 
L 326.889073 380.323331 
L 327.039291 381.069956 
L 327.189482 380.506239 
L 327.339646 368.554058 
L 327.489784 376.587204 
L 327.639894 372.833485 
L 327.789978 383.309848 
L 327.940035 379.334365 
L 328.090065 367.414961 
L 328.240068 375.2673 
L 328.390045 373.09767 
L 328.539995 383.309849 
L 328.839814 372.062265 
L 328.989684 379.898659 
L 329.139526 374.076038 
L 329.289343 381.901919 
L 329.439132 368.723181 
L 329.73863 383.309851 
L 330.038022 379.490938 
L 330.48691 383.309853 
L 330.636486 383.309854 
L 330.786035 382.834449 
L 331.234522 365.723615 
L 331.383965 365.833379 
L 331.981469 383.309854 
L 332.130779 377.830512 
L 332.280061 383.309854 
L 332.429318 373.931288 
L 332.578548 383.309854 
L 332.876927 372.900915 
L 333.026078 379.085749 
L 333.175201 379.839811 
L 333.324298 383.309854 
L 333.473369 383.053868 
L 333.77143 377.498337 
L 333.920421 377.555096 
L 334.069385 363.463633 
L 334.218323 368.124756 
L 334.367235 380.434188 
L 334.51612 383.309853 
L 334.664978 383.309853 
L 334.81381 378.726468 
L 334.962616 379.966781 
L 335.111395 373.309053 
L 335.260147 381.761426 
L 335.557573 372.006907 
L 335.706247 377.081282 
L 335.854893 375.460661 
L 336.152108 383.309853 
L 336.300676 383.309853 
L 336.597732 378.869695 
L 336.894683 364.764499 
L 337.043118 362.719491 
L 337.191528 379.931551 
L 337.339911 369.537064 
L 337.488268 368.467706 
L 337.636598 383.309853 
L 337.784902 383.309853 
L 337.93318 380.957211 
L 338.377855 360.061596 
L 338.526028 360.997144 
L 338.674174 372.932549 
L 338.822294 370.283921 
L 339.118455 383.309853 
L 339.266497 383.309853 
L 339.414511 381.603275 
L 339.5625 373.475696 
L 339.710463 355.77514 
L 339.858399 356.561381 
L 340.006309 362.787715 
L 340.30205 382.838703 
L 340.449882 375.458505 
L 340.597687 383.309853 
L 340.745466 375.586051 
L 340.893219 383.309853 
L 341.040945 382.421454 
L 341.33632 383.309852 
L 341.483968 383.309851 
L 341.63159 374.837914 
L 341.779186 354.254423 
L 341.926756 357.594706 
L 342.074299 379.140858 
L 342.221817 382.382913 
L 342.516773 379.786282 
L 342.664212 366.23576 
L 342.959013 383.309847 
L 343.253708 366.442024 
L 343.401017 365.924361 
L 343.5483 381.220868 
L 343.695556 383.309845 
L 344.13717 375.490242 
L 344.284323 368.481038 
L 344.431449 383.309843 
L 344.57855 383.309843 
L 345.019695 365.312588 
L 345.166692 370.258665 
L 345.313662 361.513197 
L 345.607526 382.352811 
L 345.754418 356.763799 
L 346.048126 352.504823 
L 346.34173 383.309839 
L 346.488493 382.980712 
L 346.928626 367.664355 
L 347.221919 375.348843 
L 347.368527 378.078229 
L 347.515109 378.438906 
L 347.808195 383.309833 
L 348.101177 383.309832 
L 348.24763 378.397315 
L 348.394056 377.763321 
L 348.540457 367.27698 
L 348.686832 370.179726 
L 348.833182 383.30983 
L 348.979505 382.675957 
L 349.125803 383.17574 
L 349.272074 370.065965 
L 349.564541 381.904115 
L 349.710735 380.785698 
L 349.856904 368.896026 
L 350.003047 371.09098 
L 350.149164 383.30982 
L 350.441322 378.945848 
L 350.587362 383.309817 
L 350.733376 379.194212 
L 350.879365 379.766628 
L 351.025328 370.770229 
L 351.171265 378.50777 
L 351.317176 368.332258 
L 351.608922 383.309809 
L 351.754757 383.309808 
L 351.900566 379.372485 
L 352.046349 371.925456 
L 352.192106 376.53351 
L 352.337838 372.102482 
L 352.629225 383.261169 
L 352.77488 381.85095 
L 352.920509 383.3098 
L 353.066113 377.534854 
L 353.211691 383.309798 
L 353.50277 379.57056 
L 353.648272 370.443395 
L 353.793748 371.332848 
L 354.230021 383.30979 
L 354.520743 378.30871 
L 354.666065 375.065926 
L 354.811362 379.594421 
L 354.956634 379.679746 
L 355.101879 374.777134 
L 355.2471 383.309784 
L 355.392295 382.432112 
L 355.537464 376.062909 
L 355.682608 378.731476 
L 355.827726 376.651069 
L 355.972819 376.862991 
L 356.262928 365.666819 
L 356.842842 381.277874 
L 356.987756 383.309772 
L 357.132646 381.335015 
L 357.27751 370.19828 
L 357.422348 372.753521 
L 357.567161 369.504067 
L 357.856711 383.291165 
L 358.001448 374.063092 
L 358.146159 380.309341 
L 358.290846 379.31828 
L 358.435506 383.309763 
L 358.724752 374.001336 
L 358.869337 381.523568 
L 359.15843 383.309759 
L 359.736313 361.051928 
L 359.88072 379.626192 
L 360.025103 383.309754 
L 360.313791 383.260993 
L 360.746635 359.822873 
L 360.890865 357.330022 
L 361.179251 369.380701 
L 361.323406 382.417729 
L 361.467535 375.127077 
L 361.755719 356.283587 
L 362.043802 380.436937 
L 362.187805 383.309742 
L 362.331784 383.309741 
L 362.475737 382.639298 
L 362.619665 370.034482 
L 362.763568 368.266837 
L 362.907446 369.247999 
L 363.051299 383.309735 
L 363.195126 370.643529 
L 363.338928 370.601348 
L 363.482706 365.398275 
L 363.626458 377.659223 
L 363.770185 365.691854 
L 363.913886 376.270526 
L 364.057563 370.742899 
L 364.201215 383.309724 
L 364.344841 380.103792 
L 364.632019 359.425808 
L 364.775571 356.560367 
L 364.919097 383.309717 
L 365.206074 371.397157 
L 365.492951 355.413194 
L 365.636352 356.411771 
L 365.779728 362.495267 
L 365.923079 355.610509 
L 366.066405 369.551457 
L 366.352982 331.385479 
L 366.78266 270.726009 
L 367.49829 33.973515 
L 367.641342 37.075497 
L 367.784368 43.451217 
L 367.927369 66.945762 
L 368.784854 383.309683 
L 371.209535 383.309665 
L 371.49432 366.949838 
L 371.779007 381.368938 
L 371.921313 375.715379 
L 372.20585 347.360368 
L 372.348082 344.484462 
L 372.490289 355.30825 
L 372.632471 351.097924 
L 372.774629 376.125574 
L 372.916762 362.578615 
L 373.05887 360.186181 
L 373.200954 344.521525 
L 373.485047 340.744342 
L 373.627056 344.10923 
L 373.911001 366.915395 
L 374.052937 362.687175 
L 374.194848 367.917486 
L 374.336734 351.504616 
L 374.478596 349.840585 
L 374.620433 368.987241 
L 374.762245 370.481912 
L 374.904033 377.227921 
L 375.045796 360.955635 
L 375.329249 383.309643 
L 375.612603 383.309642 
L 375.754243 379.012712 
L 375.895859 383.089207 
L 376.03745 383.30964 
L 376.320558 383.309638 
L 376.462076 381.599249 
L 376.603569 383.309637 
L 377.310665 383.309633 
L 377.452011 383.102406 
L 377.593333 375.075996 
L 377.73463 382.545352 
L 377.875902 383.309631 
L 378.158373 383.309629 
L 378.299572 382.492911 
L 378.440747 383.309628 
L 378.581897 376.65396 
L 378.723023 380.375556 
L 378.864124 378.217245 
L 379.005201 372.148238 
L 379.146253 383.309625 
L 379.287281 380.498275 
L 379.428284 383.157568 
L 379.710218 383.309622 
L 379.851149 382.712318 
L 379.992055 378.73741 
L 380.132936 379.319596 
L 380.273793 383.309618 
L 380.414626 374.474517 
L 380.555435 383.309615 
L 380.696219 372.049248 
L 380.836979 383.309613 
L 381.118425 378.707619 
L 381.259112 370.648997 
L 381.540413 383.309607 
L 381.681027 380.423659 
L 381.821616 383.309605 
L 381.962181 381.505501 
L 382.102722 383.309603 
L 382.243239 362.759184 
L 382.5242 368.734833 
L 382.805063 383.309598 
L 382.945459 380.006148 
L 383.226177 367.736888 
L 383.366499 359.443177 
L 383.787322 383.30959 
L 383.927548 383.309589 
L 384.067749 382.736665 
L 384.207927 376.123667 
L 384.628314 383.309582 
L 384.768395 378.210985 
L 385.048484 383.309578 
L 385.188492 364.470322 
L 385.328476 383.309575 
L 385.468436 377.209564 
L 385.608372 383.309572 
L 385.748283 378.653042 
L 385.888171 379.040385 
L 386.028034 378.071291 
L 386.167874 372.555759 
L 386.44748 380.765627 
L 386.587247 374.284414 
L 386.72699 383.309562 
L 387.006404 383.309559 
L 387.285721 367.943197 
L 387.425344 377.694726 
L 387.564943 377.780059 
L 387.844068 372.604954 
L 387.983594 383.30955 
L 388.123097 375.100438 
L 388.40203 371.08008 
L 388.54146 383.309545 
L 388.680867 370.886274 
L 388.820249 371.537665 
L 388.959608 365.524066 
L 389.098942 373.318327 
L 389.238253 373.437117 
L 389.516802 383.309537 
L 389.656041 383.309536 
L 389.795255 377.848478 
L 390.073613 365.22712 
L 390.212756 380.272352 
L 390.49097 381.685609 
L 390.630041 362.306873 
L 390.769089 366.169053 
L 390.908112 376.945148 
L 391.047112 378.535921 
L 391.186087 383.309523 
L 391.463967 383.309521 
L 391.602871 381.749221 
L 391.741751 383.309519 
L 391.880607 378.19917 
L 392.01944 383.309517 
L 392.158248 380.464958 
L 392.297033 383.309515 
L 392.435794 383.309514 
L 392.574531 381.468846 
L 392.713245 377.282134 
L 392.9906 363.345696 
L 393.129242 381.304021 
L 393.26786 383.309508 
L 393.545025 379.503222 
L 393.683571 383.309505 
L 393.822094 383.309504 
L 394.099069 374.036626 
L 394.237521 374.19472 
L 394.375949 365.649607 
L 394.514353 380.560878 
L 394.652734 364.384127 
L 394.79109 383.309498 
L 395.067733 370.648565 
L 395.482519 383.309494 
L 395.620733 375.219333 
L 395.758924 383.309493 
L 396.035235 381.490154 
L 396.173355 381.859978 
L 396.449524 375.533497 
L 396.587573 383.309488 
L 396.725598 370.943735 
L 396.8636 378.72102 
L 397.001578 369.818136 
L 397.277463 383.309485 
L 397.41537 379.299785 
L 397.553254 383.309483 
L 397.82895 383.309482 
L 397.966763 375.081677 
L 398.242318 377.795603 
L 398.38006 369.981897 
L 398.517778 381.60493 
L 398.655473 381.972278 
L 398.793145 383.309478 
L 398.930793 383.309477 
L 399.206018 377.332379 
L 399.481149 355.852411 
L 399.618679 361.953483 
L 399.893669 383.309473 
L 400.031129 383.309473 
L 400.168565 381.444424 
L 400.443367 355.830039 
L 400.718076 364.228879 
L 400.855395 383.30947 
L 400.99269 383.309469 
L 401.129962 380.773975 
L 401.404436 372.755056 
L 401.541638 383.309468 
L 401.678816 382.834063 
L 401.815971 383.309466 
L 401.953102 377.458333 
L 402.09021 362.843646 
L 402.227295 363.71824 
L 402.364356 368.326238 
L 402.501394 383.309462 
L 402.7754 371.500356 
L 402.912368 373.316169 
L 403.049312 383.309459 
L 403.186233 383.309458 
L 403.323131 377.053014 
L 403.460005 379.019645 
L 403.596856 377.917542 
L 403.733684 367.264941 
L 403.870488 372.361284 
L 404.00727 357.144151 
L 404.144027 375.346871 
L 404.280762 374.357959 
L 404.417473 383.309452 
L 404.554161 368.865857 
L 404.690825 377.394129 
L 404.827466 367.579608 
L 404.964084 383.309449 
L 405.100679 380.883662 
L 405.237251 382.26563 
L 405.373799 370.396474 
L 405.510324 372.71621 
L 405.783304 383.309445 
L 405.919759 376.14181 
L 406.056191 380.962897 
L 406.1926 374.507976 
L 406.328985 379.794951 
L 406.465347 377.760767 
L 406.601687 383.309441 
L 406.738002 382.578049 
L 406.874295 375.812675 
L 407.010565 383.074785 
L 407.146811 377.267841 
L 407.283034 376.220779 
L 407.419234 361.383457 
L 407.555411 367.307102 
L 407.691565 368.076965 
L 407.827695 370.944082 
L 407.963802 366.631981 
L 408.235948 383.309432 
L 408.371986 383.309431 
L 408.508 379.896267 
L 408.643992 381.160969 
L 408.779961 363.292651 
L 408.915906 364.736115 
L 409.051829 364.397397 
L 409.187728 368.063456 
L 409.323604 354.18266 
L 409.595287 382.065236 
L 409.731094 383.309424 
L 410.002639 369.775334 
L 410.138377 361.473794 
L 410.681097 383.309419 
L 410.81672 380.213195 
L 410.952319 383.260658 
L 411.22345 353.047067 
L 411.494488 375.907506 
L 411.629972 383.309414 
L 411.765434 372.95264 
L 412.171681 383.309411 
L 412.30705 383.065614 
L 412.442397 382.364699 
L 412.577721 383.309409 
L 412.8483 372.737261 
L 412.983555 371.586818 
L 413.253996 383.309405 
L 413.524346 371.958765 
L 413.929698 362.205131 
L 414.06477 370.050759 
L 414.199819 370.973604 
L 414.334845 382.39065 
L 414.469848 376.386319 
L 414.604828 383.309397 
L 414.739786 382.090412 
L 414.87472 383.309395 
L 415.009632 373.207059 
L 415.279387 383.309393 
L 415.41423 375.212761 
L 415.549051 376.437105 
L 415.683848 365.753828 
L 415.818623 376.103403 
L 415.953375 368.451186 
L 416.088104 382.066406 
L 416.22281 383.309388 
L 416.357494 383.309387 
L 416.492155 380.237545 
L 416.626793 373.80436 
L 416.761408 377.654813 
L 416.896001 374.70979 
L 417.03057 367.337966 
L 417.165117 369.541947 
L 417.299642 364.284792 
L 417.434143 383.309382 
L 417.568622 371.544693 
L 417.703078 370.672175 
L 417.837511 358.74284 
L 417.971922 362.613968 
L 418.10631 376.759617 
L 418.240675 366.845541 
L 418.375018 375.558342 
L 418.509338 370.292552 
L 418.643635 383.309376 
L 418.777909 375.002724 
L 418.912161 383.309375 
L 419.04639 377.395324 
L 419.180596 383.309374 
L 419.448941 375.940601 
L 419.58308 383.309372 
L 419.717196 383.309372 
L 419.985359 369.827368 
L 420.119407 370.060795 
L 420.253433 377.546296 
L 420.387435 360.951285 
L 420.521415 366.217147 
L 420.655373 365.380897 
L 420.789308 377.586741 
L 420.92322 376.749764 
L 421.05711 373.900604 
L 421.324822 361.539804 
L 421.458644 371.291678 
L 421.592443 370.820668 
L 421.72622 383.309365 
L 421.993706 376.852925 
L 422.127415 380.54633 
L 422.261102 376.615095 
L 422.394766 383.309363 
L 422.528408 380.322847 
L 422.929198 343.494613 
L 423.463269 383.309359 
L 423.596731 383.309359 
L 423.73017 379.250138 
L 423.863587 383.309358 
L 423.996981 373.615401 
L 424.130353 374.526903 
L 424.263703 359.332538 
L 424.39703 365.797732 
L 424.530334 363.280516 
L 424.663616 368.667805 
L 424.796876 383.309356 
L 424.930113 366.798226 
L 425.063328 371.47229 
L 425.19652 345.988896 
L 425.32969 359.135376 
L 425.462838 360.360432 
L 425.729066 380.954683 
L 425.862146 377.546727 
L 425.995205 383.309354 
L 426.261254 383.309353 
L 426.394245 377.336322 
L 426.527213 381.694197 
L 426.66016 380.336042 
L 426.793083 383.309353 
L 426.925985 372.346642 
L 427.058864 378.316078 
L 427.191721 361.27289 
L 427.324556 372.182316 
L 427.457368 368.414321 
L 427.590158 369.395084 
L 427.722926 362.58598 
L 428.253774 383.309351 
L 428.38643 381.712481 
L 428.519064 372.432918 
L 428.651676 379.63976 
L 428.784266 363.591826 
L 429.049378 383.30935 
L 429.181901 378.743612 
L 429.314401 383.30935 
L 429.44688 375.710498 
L 429.579336 383.30935 
L 429.844181 379.944949 
L 430.108938 322.077019 
L 430.241283 322.625518 
L 430.638185 372.80287 
L 430.902676 382.452442 
L 430.902676 382.452442 
" clip-path="url(#p670bc2ee6a)" style="fill: none; stroke: #5088c5; stroke-linecap: round"/>
   </g>
   <g id="line2d_14">
    <defs>
     <path id="mf870272772" d="M 0 2 
C 0.530406 2 1.03916 1.789267 1.414214 1.414214 
C 1.789267 1.03916 2 0.530406 2 0 
C 2 -0.530406 1.789267 -1.03916 1.414214 -1.414214 
C 1.03916 -1.789267 0.530406 -2 0 -2 
C -0.530406 -2 -1.03916 -1.789267 -1.414214 -1.414214 
C -1.789267 -1.03916 -2 -0.530406 -2 0 
C -2 0.530406 -1.789267 1.03916 -1.414214 1.414214 
C -1.03916 1.789267 -0.530406 2 0 2 
z
"/>
    </defs>
    <g clip-path="url(#p670bc2ee6a)">
     <use xlink:href="#mf870272772" x="158.21444" y="323.038791" style="fill: #f28360"/>
     <use xlink:href="#mf870272772" x="205.315768" y="335.546683" style="fill: #f28360"/>
     <use xlink:href="#mf870272772" x="296.062948" y="90.673013" style="fill: #f28360"/>
     <use xlink:href="#mf870272772" x="367.579693" y="37.075497" style="fill: #f28360"/>
     <use xlink:href="#mf870272772" x="373.200687" y="344.521525" style="fill: #f28360"/>
    </g>
   </g>
   <g id="patch_3">
    <path d="M 91.128438 397.284897 
L 91.128438 20 
" style="fill: none; stroke: #000000; stroke-width: 0.75; stroke-linejoin: miter; stroke-linecap: square"/>
   </g>
   <g id="patch_4">
    <path d="M 91.128438 397.284897 
L 443.970916 397.284897 
" style="fill: none; stroke: #000000; stroke-width: 0.75; stroke-linejoin: miter; stroke-linecap: square"/>
   </g>
  </g>
 </g>
 <defs>
  <clipPath id="p670bc2ee6a">
   <rect x="91.128438" y="20" width="352.842478" height="377.284897"/>
  </clipPath>
 </defs>
</svg>
