<?xml version="1.0" encoding="utf-8" standalone="no"?>
<!DOCTYPE svg PUBLIC "-//W3C//DTD SVG 1.1//EN"
  "http://www.w3.org/Graphics/SVG/1.1/DTD/svg11.dtd">
<svg xmlns:xlink="http://www.w3.org/1999/xlink" width="463.953397pt" height="463.99896pt" viewBox="0 0 463.953397 463.99896" xmlns="http://www.w3.org/2000/svg" version="1.1">
 <metadata>
  <rdf:RDF xmlns:dc="http://purl.org/dc/elements/1.1/" xmlns:cc="http://creativecommons.org/ns#" xmlns:rdf="http://www.w3.org/1999/02/22-rdf-syntax-ns#">
   <cc:Work>
    <dc:type rdf:resource="http://purl.org/dc/dcmitype/StillImage"/>
    <dc:date>2025-01-29T10:24:04.525358</dc:date>
    <dc:format>image/svg+xml</dc:format>
    <dc:creator>
     <cc:Agent>
      <dc:title>Matplotlib v3.8.4, https://matplotlib.org/</dc:title>
     </cc:Agent>
    </dc:creator>
   </cc:Work>
  </rdf:RDF>
 </metadata>
 <defs>
  <style type="text/css">*{stroke-linejoin: round; stroke-linecap: butt}</style>
 </defs>
 <g id="figure_1">
  <g id="patch_1">
   <path d="M 0 463.99896 
L 463.953397 463.99896 
L 463.953397 0 
L 0 0 
L 0 463.99896 
z
" style="fill: none"/>
  </g>
  <g id="axes_1">
   <g id="patch_2">
    <path d="M 91.128438 397.284897 
L 443.043182 397.284897 
L 443.043182 20 
L 91.128438 20 
L 91.128438 397.284897 
z
" style="fill: none"/>
   </g>
   <g id="matplotlib.axis_1">
    <g id="xtick_1">
     <g id="line2d_1">
      <defs>
       <path id="mcc8807e6fa" d="M 0 0 
L 0 5 
" style="stroke: #000000; stroke-width: 0.75"/>
      </defs>
      <g>
       <use xlink:href="#mcc8807e6fa" x="115.258811" y="397.284897" style="stroke: #000000; stroke-width: 0.75"/>
      </g>
     </g>
     <g id="text_1">
      <text style="font: 14.5px &quot;Suisse Int&apos;l Mono&quot;; text-anchor: middle" x="115.258811" y="417.797397" transform="rotate(-0 115.258811 417.797397)">500</text>
     </g>
    </g>
    <g id="xtick_2">
     <g id="line2d_2">
      <g>
       <use xlink:href="#mcc8807e6fa" x="166.91921" y="397.284897" style="stroke: #000000; stroke-width: 0.75"/>
      </g>
     </g>
     <g id="text_2">
      <text style="font: 14.5px &quot;Suisse Int&apos;l Mono&quot;; text-anchor: middle" x="166.91921" y="417.797397" transform="rotate(-0 166.91921 417.797397)">1000</text>
     </g>
    </g>
    <g id="xtick_3">
     <g id="line2d_3">
      <g>
       <use xlink:href="#mcc8807e6fa" x="218.57961" y="397.284897" style="stroke: #000000; stroke-width: 0.75"/>
      </g>
     </g>
     <g id="text_3">
      <text style="font: 14.5px &quot;Suisse Int&apos;l Mono&quot;; text-anchor: middle" x="218.57961" y="417.797397" transform="rotate(-0 218.57961 417.797397)">1500</text>
     </g>
    </g>
    <g id="xtick_4">
     <g id="line2d_4">
      <g>
       <use xlink:href="#mcc8807e6fa" x="270.24001" y="397.284897" style="stroke: #000000; stroke-width: 0.75"/>
      </g>
     </g>
     <g id="text_4">
      <text style="font: 14.5px &quot;Suisse Int&apos;l Mono&quot;; text-anchor: middle" x="270.24001" y="417.797397" transform="rotate(-0 270.24001 417.797397)">2000</text>
     </g>
    </g>
    <g id="xtick_5">
     <g id="line2d_5">
      <g>
       <use xlink:href="#mcc8807e6fa" x="321.90041" y="397.284897" style="stroke: #000000; stroke-width: 0.75"/>
      </g>
     </g>
     <g id="text_5">
      <text style="font: 14.5px &quot;Suisse Int&apos;l Mono&quot;; text-anchor: middle" x="321.90041" y="417.797397" transform="rotate(-0 321.90041 417.797397)">2500</text>
     </g>
    </g>
    <g id="xtick_6">
     <g id="line2d_6">
      <g>
       <use xlink:href="#mcc8807e6fa" x="373.56081" y="397.284897" style="stroke: #000000; stroke-width: 0.75"/>
      </g>
     </g>
     <g id="text_6">
      <text style="font: 14.5px &quot;Suisse Int&apos;l Mono&quot;; text-anchor: middle" x="373.56081" y="417.797397" transform="rotate(-0 373.56081 417.797397)">3000</text>
     </g>
    </g>
    <g id="xtick_7">
     <g id="line2d_7">
      <g>
       <use xlink:href="#mcc8807e6fa" x="425.221209" y="397.284897" style="stroke: #000000; stroke-width: 0.75"/>
      </g>
     </g>
     <g id="text_7">
      <text style="font: 14.5px &quot;Suisse Int&apos;l Mono&quot;; text-anchor: middle" x="425.221209" y="417.797397" transform="rotate(-0 425.221209 417.797397)">3500</text>
     </g>
    </g>
    <g id="text_8">
     <text style="font: 500 15px &quot;Suisse Int&apos;l&quot;, sans-serif; text-anchor: middle" x="267.08581" y="441.209898" transform="rotate(-0 267.08581 441.209898)">Raman shift (cm-1)</text>
    </g>
   </g>
   <g id="matplotlib.axis_2">
    <g id="ytick_1">
     <g id="line2d_8">
      <defs>
       <path id="m373513c241" d="M 0 0 
L -5 0 
" style="stroke: #000000; stroke-width: 0.75"/>
      </defs>
      <g>
       <use xlink:href="#m373513c241" x="91.128438" y="360.383715" style="stroke: #000000; stroke-width: 0.75"/>
      </g>
     </g>
     <g id="text_9">
      <text style="font: 14.5px &quot;Suisse Int&apos;l Mono&quot;; text-anchor: end" x="81.128438" y="365.639965" transform="rotate(-0 81.128438 365.639965)">0.00</text>
     </g>
    </g>
    <g id="ytick_2">
     <g id="line2d_9">
      <g>
       <use xlink:href="#m373513c241" x="91.128438" y="282.906284" style="stroke: #000000; stroke-width: 0.75"/>
      </g>
     </g>
     <g id="text_10">
      <text style="font: 14.5px &quot;Suisse Int&apos;l Mono&quot;; text-anchor: end" x="81.128438" y="288.162534" transform="rotate(-0 81.128438 288.162534)">0.05</text>
     </g>
    </g>
    <g id="ytick_3">
     <g id="line2d_10">
      <g>
       <use xlink:href="#m373513c241" x="91.128438" y="205.428853" style="stroke: #000000; stroke-width: 0.75"/>
      </g>
     </g>
     <g id="text_11">
      <text style="font: 14.5px &quot;Suisse Int&apos;l Mono&quot;; text-anchor: end" x="81.128438" y="210.685103" transform="rotate(-0 81.128438 210.685103)">0.10</text>
     </g>
    </g>
    <g id="ytick_4">
     <g id="line2d_11">
      <g>
       <use xlink:href="#m373513c241" x="91.128438" y="127.951421" style="stroke: #000000; stroke-width: 0.75"/>
      </g>
     </g>
     <g id="text_12">
      <text style="font: 14.5px &quot;Suisse Int&apos;l Mono&quot;; text-anchor: end" x="81.128438" y="133.207671" transform="rotate(-0 81.128438 133.207671)">0.15</text>
     </g>
    </g>
    <g id="ytick_5">
     <g id="line2d_12">
      <g>
       <use xlink:href="#m373513c241" x="91.128438" y="50.47399" style="stroke: #000000; stroke-width: 0.75"/>
      </g>
     </g>
     <g id="text_13">
      <text style="font: 14.5px &quot;Suisse Int&apos;l Mono&quot;; text-anchor: end" x="81.128438" y="55.73024" transform="rotate(-0 81.128438 55.73024)">0.20</text>
     </g>
    </g>
    <g id="text_14">
     <text style="font: 500 15px &quot;Suisse Int&apos;l&quot;, sans-serif; text-anchor: middle" x="30.875" y="208.642449" transform="rotate(-90 30.875 208.642449)">Intensity (AU)</text>
    </g>
   </g>
   <g id="line2d_13">
    <path d="M 104.162317 373.980301 
L 104.354443 373.980315 
L 104.546529 374.956558 
L 104.738577 375.282005 
L 105.122557 375.282133 
L 105.314488 375.14276 
L 105.506381 374.724483 
L 105.89005 372.229954 
L 106.081826 372.230094 
L 106.465262 372.881221 
L 106.656922 374.616893 
L 106.848544 374.66357 
L 107.040126 375.903415 
L 107.23167 375.903636 
L 107.423176 374.555765 
L 107.614642 374.556016 
L 107.80607 376.105829 
L 107.997459 376.400524 
L 108.18881 376.106406 
L 108.380122 376.64906 
L 108.571395 375.192813 
L 108.76263 371.923609 
L 108.953826 371.923964 
L 109.144984 373.086492 
L 109.527183 373.412668 
L 109.718225 373.413073 
L 109.909229 371.972411 
L 110.100194 371.538967 
L 110.29112 371.539408 
L 110.482008 371.880761 
L 110.672857 374.097079 
L 110.863668 373.291791 
L 111.054441 374.160028 
L 111.245175 374.083055 
L 111.43587 374.16105 
L 111.817146 375.370775 
L 112.198268 375.294434 
L 112.388772 372.180432 
L 112.579237 371.313288 
L 112.960052 372.585156 
L 113.150402 372.585794 
L 113.530987 372.354673 
L 113.721223 372.401833 
L 113.911419 374.478914 
L 114.291698 375.224111 
L 114.48178 377.812586 
L 114.671824 377.813333 
L 115.051797 374.095959 
L 115.431617 372.145125 
L 115.62147 372.145942 
L 116.001061 375.122746 
L 116.190799 375.805405 
L 116.380499 377.092402 
L 116.570161 375.807166 
L 116.759785 375.560143 
L 116.949371 374.98773 
L 117.328428 372.618802 
L 117.5179 372.55778 
L 117.707333 370.931726 
L 117.896729 370.932708 
L 118.086086 373.072078 
L 118.275406 373.274525 
L 118.65393 374.810629 
L 118.843136 373.866451 
L 119.032303 372.271476 
L 119.221433 372.257052 
L 119.410524 372.118677 
L 119.599577 372.119772 
L 119.788593 372.368807 
L 119.977571 372.369927 
L 120.355412 370.373282 
L 120.544276 370.374435 
L 120.733102 370.515056 
L 121.110641 374.189844 
L 121.299353 374.191042 
L 121.676665 372.721409 
L 122.619282 371.426093 
L 122.996065 371.444189 
L 123.1844 372.142802 
L 123.372697 373.616202 
L 123.749177 373.572412 
L 124.313616 370.229526 
L 124.501687 370.494349 
L 124.68972 372.851074 
L 124.877716 372.97646 
L 125.065674 373.75267 
L 125.253594 373.754118 
L 125.441477 372.329996 
L 125.629322 372.207506 
L 125.81713 371.294758 
L 126.192633 371.220285 
L 126.380328 370.524506 
L 126.567985 371.223332 
L 126.755605 370.527574 
L 126.943188 370.668583 
L 127.130733 369.647441 
L 127.50571 371.448066 
L 127.693143 371.57362 
L 127.880538 371.451258 
L 128.067896 370.740079 
L 128.442499 370.743335 
L 128.629744 371.194348 
L 128.816952 372.048254 
L 129.191256 377.490518 
L 129.378352 377.802126 
L 129.752432 377.821072 
L 129.939416 377.450931 
L 130.126363 376.244051 
L 130.500144 370.731239 
L 130.686979 370.733046 
L 130.873777 371.385674 
L 131.060537 373.308943 
L 131.24726 373.558713 
L 131.433946 373.560567 
L 131.620594 371.160635 
L 131.807205 371.162514 
L 131.99378 372.96188 
L 132.553279 372.998615 
L 132.739704 374.178212 
L 132.926092 374.180166 
L 133.112444 373.391863 
L 133.298758 373.393844 
L 133.671274 377.008294 
L 133.857477 377.149778 
L 134.229771 376.843969 
L 134.601917 372.369937 
L 134.787935 372.062128 
L 134.973915 372.06424 
L 135.159858 372.639697 
L 135.345765 372.641834 
L 135.531634 372.396055 
L 135.717467 372.398215 
L 135.903262 373.268135 
L 136.089021 373.270321 
L 136.460427 371.198334 
L 136.646074 371.200555 
L 136.831685 372.024047 
L 137.202796 372.369446 
L 137.388296 374.665046 
L 137.573759 374.992732 
L 137.944575 374.873375 
L 138.129928 374.8757 
L 138.315244 375.063985 
L 138.500523 375.066339 
L 138.685765 374.015015 
L 138.870971 373.800461 
L 139.056139 373.802857 
L 139.241271 372.736077 
L 139.426366 370.088771 
L 139.611425 369.440392 
L 139.796446 368.311662 
L 140.166379 368.332062 
L 140.351291 370.333444 
L 140.905805 370.418374 
L 141.09057 371.861958 
L 141.45999 371.990965 
L 141.644644 368.630984 
L 141.829263 368.633531 
L 142.013844 368.868518 
L 142.198389 369.90928 
L 142.382898 369.911853 
L 142.751805 367.251804 
L 142.936204 367.254402 
L 143.120566 369.89124 
L 143.304892 369.893854 
L 143.489181 367.711615 
L 143.673434 367.140913 
L 144.041829 367.1307 
L 144.225973 365.723263 
L 144.410079 365.338532 
L 144.962181 362.898242 
L 145.330066 368.017099 
L 145.513954 368.019782 
L 145.697806 365.465718 
L 145.881622 365.468414 
L 146.065401 365.997962 
L 146.249143 366.000669 
L 146.43285 365.476535 
L 146.61652 365.479253 
L 146.800153 365.265038 
L 146.983751 365.655153 
L 147.167312 365.270499 
L 147.350836 365.257741 
L 147.534325 364.1758 
L 147.717777 364.039087 
L 147.901193 362.461297 
L 148.084573 362.18513 
L 148.267916 362.187884 
L 148.451223 362.376586 
L 148.634494 362.379343 
L 148.817729 361.374897 
L 149.000928 361.253693 
L 149.550306 358.379816 
L 149.73336 357.344377 
L 149.916378 358.38533 
L 150.09936 357.349886 
L 150.282305 358.173897 
L 150.465215 356.332682 
L 150.830925 356.090238 
L 151.013726 356.092974 
L 151.196491 353.972824 
L 151.37922 353.262756 
L 151.561913 353.265474 
L 151.74457 354.585301 
L 151.927191 355.021879 
L 152.109776 355.024579 
L 152.657315 356.582196 
L 152.839755 356.1665 
L 153.02216 353.24053 
L 153.204529 353.088246 
L 153.56916 353.093565 
L 154.115836 349.816439 
L 154.297989 350.082481 
L 154.480107 352.254458 
L 154.662189 352.737418 
L 154.844235 353.638749 
L 155.026245 352.742597 
L 155.208219 353.721391 
L 155.390157 352.112432 
L 155.57206 353.726526 
L 155.753927 354.147461 
L 155.935758 354.150011 
L 156.117553 353.982105 
L 156.299313 353.023923 
L 156.662724 347.574562 
L 157.025993 343.333796 
L 157.389119 332.058009 
L 157.93354 311.239231 
L 158.114942 309.939905 
L 158.47764 306.395875 
L 158.658935 306.398013 
L 158.840195 306.818475 
L 159.383761 324.272349 
L 159.74596 333.914323 
L 159.927006 342.252744 
L 160.108017 344.083042 
L 160.288992 347.524854 
L 160.469932 348.502872 
L 160.650836 350.813489 
L 160.831705 350.815269 
L 161.012538 349.964788 
L 161.193335 349.966548 
L 161.374097 350.805054 
L 161.554824 350.915263 
L 161.735515 354.248523 
L 161.916171 354.250248 
L 162.096792 353.399715 
L 162.277376 353.401426 
L 162.457926 355.417544 
L 162.63844 355.574198 
L 162.818919 355.978776 
L 162.999362 357.731456 
L 163.17977 357.733143 
L 163.54048 354.792366 
L 163.720782 354.794041 
L 163.901048 357.135529 
L 164.08128 357.137195 
L 164.801852 354.416614 
L 165.161926 356.91467 
L 165.34191 358.961709 
L 165.521859 359.071811 
L 165.701773 360.638487 
L 166.061495 360.610762 
L 166.421077 357.623397 
L 166.600814 357.346107 
L 167.139817 357.36647 
L 167.319414 358.576734 
L 167.498976 358.578349 
L 167.857995 357.094005 
L 168.216874 357.097216 
L 168.39626 356.649447 
L 168.575612 354.822576 
L 168.754929 354.824168 
L 168.93421 355.228636 
L 169.113457 356.252918 
L 169.292668 356.254494 
L 169.471844 355.605256 
L 169.650986 355.606823 
L 169.830092 356.584602 
L 170.009164 356.58616 
L 170.367202 353.893051 
L 170.546168 355.52162 
L 170.7251 354.670907 
L 170.903997 354.67244 
L 171.261686 353.172426 
L 171.440478 352.879525 
L 171.797957 353.331899 
L 172.155297 356.046586 
L 172.333914 356.048068 
L 172.512497 353.97315 
L 172.691045 353.478765 
L 172.869558 352.41104 
L 173.048037 352.412496 
L 173.404889 356.258267 
L 173.583263 357.06547 
L 173.761602 357.066905 
L 173.939907 357.331759 
L 174.118177 356.29499 
L 174.296412 356.993711 
L 174.474612 355.554051 
L 174.652777 356.996547 
L 174.830908 361.15075 
L 175.187066 361.153577 
L 175.365093 359.527966 
L 175.543085 359.52938 
L 175.721042 360.119621 
L 175.898965 362.274907 
L 176.076853 362.276321 
L 176.254707 359.380082 
L 176.432526 358.65321 
L 176.61031 358.654624 
L 176.78806 362.14252 
L 177.321102 362.038298 
L 177.498714 362.969447 
L 177.676291 363.2033 
L 177.853833 363.204725 
L 178.031341 362.896242 
L 178.208814 362.897672 
L 178.386253 364.04577 
L 178.563658 364.047206 
L 178.741027 362.220178 
L 178.918363 362.08216 
L 179.095664 361.572252 
L 179.27293 361.573696 
L 179.450162 360.335503 
L 179.62736 360.336948 
L 179.804523 361.020195 
L 179.981652 361.021641 
L 180.158747 359.767953 
L 180.335807 359.769399 
L 180.86678 367.397524 
L 181.043703 367.398984 
L 181.220591 366.067839 
L 181.397445 365.929852 
L 181.574264 365.203042 
L 181.75105 363.097139 
L 181.927801 363.098624 
L 182.104517 363.425518 
L 182.2812 364.682143 
L 182.457848 364.683639 
L 182.811041 362.222859 
L 182.987586 361.728508 
L 183.164098 362.22587 
L 183.340574 363.544494 
L 183.517017 363.669969 
L 183.693426 363.547519 
L 183.8698 361.286696 
L 184.04614 361.040286 
L 184.222446 361.289733 
L 184.398718 364.607287 
L 184.574955 364.686288 
L 184.751159 365.106195 
L 184.927328 365.107728 
L 185.103463 362.258096 
L 185.455631 362.338655 
L 185.807663 362.853095 
L 185.983628 363.567436 
L 186.159558 363.135114 
L 186.511317 363.138225 
L 186.687146 363.63564 
L 186.86294 366.472877 
L 187.038701 366.474446 
L 187.39012 362.882648 
L 187.565778 362.88423 
L 187.916993 361.136411 
L 188.09255 359.696918 
L 188.268073 359.698505 
L 188.443561 359.142253 
L 188.969824 362.881421 
L 189.145177 364.246612 
L 189.320496 364.248205 
L 189.495782 363.908901 
L 189.671033 363.011763 
L 189.846251 363.013365 
L 190.021434 362.519115 
L 190.196584 363.620902 
L 190.3717 363.808459 
L 190.896846 363.766825 
L 191.071827 363.659981 
L 191.246774 365.505571 
L 191.421687 365.894591 
L 191.771412 366.006342 
L 192.121003 363.995232 
L 192.470458 363.99855 
L 192.645136 366.185078 
L 193.168965 366.128125 
L 193.343508 364.93666 
L 193.518017 364.938353 
L 193.692492 364.754104 
L 193.866933 364.755805 
L 194.041341 366.988861 
L 194.215716 366.990573 
L 194.390056 365.34977 
L 194.564364 365.351494 
L 194.738637 366.468897 
L 194.912877 366.811533 
L 195.087083 366.813274 
L 195.261256 367.651778 
L 195.435396 367.529569 
L 195.609501 367.763763 
L 195.957612 367.441904 
L 196.131618 366.467472 
L 196.305589 367.445478 
L 196.479528 366.471059 
L 196.653433 366.953222 
L 196.827304 366.800076 
L 197.001142 366.956847 
L 197.174946 367.733444 
L 197.348717 367.735274 
L 197.522455 367.39621 
L 197.696159 363.26076 
L 197.869829 363.262607 
L 198.390641 365.623483 
L 198.564178 365.625346 
L 199.08459 361.633127 
L 199.257994 360.999688 
L 199.431364 361.63688 
L 199.604701 361.003443 
L 199.778005 360.912349 
L 199.951276 360.201436 
L 200.644025 360.100483 
L 200.817129 362.504161 
L 200.9902 362.676492 
L 201.163238 362.507924 
L 201.336242 358.062604 
L 201.509214 357.925027 
L 201.682152 357.05916 
L 201.855057 357.061036 
L 202.027929 357.357324 
L 202.200767 358.180455 
L 202.546345 358.122206 
L 202.719084 355.768756 
L 203.064463 355.168145 
L 203.237103 352.241347 
L 203.409709 351.654359 
L 203.754823 344.870986 
L 204.099805 340.442863 
L 204.272246 340.351655 
L 204.61703 327.602333 
L 204.789372 321.235374 
L 204.961681 319.532518 
L 205.306201 312.593709 
L 205.478411 312.254322 
L 205.650588 312.255789 
L 205.822732 315.697205 
L 205.994843 316.008488 
L 206.166922 317.311438 
L 206.51098 324.736308 
L 206.682959 329.246705 
L 207.026819 329.249032 
L 207.542363 337.387433 
L 207.714145 337.791358 
L 207.885895 339.605349 
L 208.400946 340.057652 
L 208.572564 340.058589 
L 208.744149 339.331218 
L 209.087221 337.024159 
L 209.258707 337.025009 
L 209.430161 337.366736 
L 209.772971 337.275348 
L 209.944327 336.997186 
L 210.11565 335.153958 
L 210.28694 335.154666 
L 210.458198 336.193547 
L 210.800615 336.256824 
L 210.971775 336.815273 
L 211.142901 337.792076 
L 211.485057 337.731201 
L 211.656086 335.980731 
L 211.827082 335.764289 
L 211.998046 333.796833 
L 212.339875 333.859677 
L 212.681574 335.115567 
L 212.852374 334.387619 
L 213.023142 332.698925 
L 213.193878 332.699211 
L 213.364581 332.823433 
L 213.535251 333.830871 
L 213.705889 335.876479 
L 213.876494 336.55846 
L 214.388115 340.649671 
L 214.55859 342.509222 
L 214.729033 343.113621 
L 214.899443 343.191156 
L 215.410479 349.497899 
L 215.580759 350.210694 
L 215.751007 350.210687 
L 215.921223 349.544364 
L 216.091406 349.544335 
L 216.261557 348.986458 
L 216.431675 349.993614 
L 216.941836 355.866197 
L 217.111825 356.671882 
L 217.621598 357.120988 
L 217.961285 357.120796 
L 218.640272 358.375511 
L 218.809938 359.986931 
L 219.149173 360.079681 
L 219.318742 357.36786 
L 219.488279 357.367745 
L 219.657784 357.569069 
L 219.827256 360.637055 
L 219.996697 361.597655 
L 220.166105 360.636816 
L 220.335481 362.217237 
L 220.504825 362.21712 
L 220.674136 362.54241 
L 221.012663 368.368493 
L 221.181878 368.368394 
L 221.351062 364.9438 
L 221.520213 364.416867 
L 221.858418 362.541751 
L 222.027473 362.541673 
L 222.196496 359.829888 
L 222.365486 359.179001 
L 222.534445 359.178924 
L 222.872266 363.099127 
L 223.209958 363.160963 
L 223.547523 364.663892 
L 223.716257 364.663831 
L 223.88496 363.06774 
L 224.222269 363.176104 
L 224.390875 367.142901 
L 224.55945 367.142859 
L 224.896503 364.570545 
L 225.064982 364.570519 
L 225.401843 367.933004 
L 225.570226 367.220204 
L 225.738577 367.963986 
L 225.906897 367.963993 
L 226.075184 368.382386 
L 226.24344 368.382408 
L 226.748015 367.18937 
L 226.916143 367.189422 
L 227.08424 368.522093 
L 227.420337 368.522235 
L 227.588338 367.732049 
L 227.756307 368.243491 
L 227.924245 367.732239 
L 228.09215 368.243696 
L 228.260024 371.637321 
L 228.427866 371.637446 
L 228.595677 371.312177 
L 228.931202 371.312483 
L 229.266601 368.26022 
L 229.434253 368.260406 
L 229.937019 371.871467 
L 230.4395 370.307133 
L 230.774329 367.394504 
L 230.941696 367.394776 
L 231.109031 368.929108 
L 231.276335 368.929396 
L 231.443608 368.681765 
L 231.610848 366.714143 
L 231.778058 366.714454 
L 231.945235 370.046301 
L 232.112381 370.58897 
L 232.279496 370.589307 
L 232.446579 369.628935 
L 232.613631 369.629291 
L 232.947639 374.697059 
L 233.114596 374.712947 
L 233.281522 375.023263 
L 233.615279 375.024121 
L 233.948909 373.274046 
L 234.115678 369.633084 
L 234.44912 369.525598 
L 234.782437 373.477968 
L 235.115628 373.556517 
L 235.282176 374.703738 
L 235.448693 373.247733 
L 235.615179 370.273182 
L 235.948056 370.150413 
L 236.114448 372.955708 
L 236.280808 372.956333 
L 236.613435 371.501043 
L 236.779702 371.501703 
L 237.112141 373.409003 
L 237.278314 373.4097 
L 237.444455 370.047889 
L 237.610565 370.048608 
L 237.776644 372.683569 
L 237.942692 372.684311 
L 238.108708 372.499118 
L 238.274693 372.081506 
L 238.440647 370.982104 
L 238.772462 370.98369 
L 239.104151 369.404779 
L 239.435716 371.219416 
L 239.601452 373.823507 
L 239.767157 371.221127 
L 239.93283 371.919297 
L 240.264084 370.26306 
L 240.595213 370.26488 
L 240.760731 372.094272 
L 240.926218 372.095209 
L 241.091674 371.786247 
L 241.257099 369.044506 
L 241.422493 369.045474 
L 241.587856 369.697261 
L 241.753187 371.960589 
L 241.918488 371.961587 
L 242.083758 368.538094 
L 242.414204 367.672389 
L 242.579381 367.673422 
L 242.744526 369.998785 
L 242.909641 370.371726 
L 243.239777 375.766287 
L 243.404799 374.899628 
L 243.56979 375.938928 
L 243.73475 374.901848 
L 244.229445 370.024202 
L 244.394281 370.14933 
L 244.559087 370.553387 
L 244.888605 372.291262 
L 245.547271 372.451119 
L 245.711861 372.932735 
L 245.87642 374.220128 
L 246.040947 374.22141 
L 246.205445 374.098742 
L 246.369911 372.318071 
L 246.534346 373.559031 
L 246.863125 371.919191 
L 247.027468 371.92055 
L 247.356063 374.851949 
L 247.520314 376.914245 
L 247.684534 377.349532 
L 247.848724 377.350962 
L 248.177011 372.348828 
L 248.505175 372.351785 
L 248.833217 370.216412 
L 248.997192 369.970001 
L 249.161136 369.971528 
L 249.32505 372.39036 
L 249.488932 372.391908 
L 249.652785 372.951306 
L 249.816607 372.348555 
L 249.980398 372.241671 
L 250.144158 370.864169 
L 250.307888 367.999111 
L 250.635256 368.002348 
L 250.798895 369.33659 
L 250.962502 369.710121 
L 251.12608 369.479337 
L 251.453142 369.48266 
L 251.943508 371.223211 
L 252.106902 371.007981 
L 252.270266 371.567536 
L 252.760174 371.479782 
L 252.923415 371.125148 
L 253.086627 371.126921 
L 253.249808 370.849786 
L 253.412958 371.564372 
L 253.576078 370.853385 
L 253.739168 369.631057 
L 254.065256 369.712193 
L 254.228255 370.426829 
L 254.554161 370.399555 
L 254.717068 370.12251 
L 255.042792 370.126286 
L 255.205609 371.135395 
L 255.368395 370.20758 
L 255.693876 370.211436 
L 255.856571 369.438605 
L 256.019236 369.53353 
L 256.181871 369.380536 
L 256.344476 367.538543 
L 256.50705 367.525025 
L 256.669594 366.829713 
L 256.832107 367.219091 
L 256.994591 366.833702 
L 257.157044 367.223093 
L 257.644222 370.39023 
L 257.806555 369.80344 
L 257.968857 368.612335 
L 258.131129 368.381959 
L 258.293371 368.616455 
L 258.455582 369.16087 
L 258.779915 371.876752 
L 258.942037 371.878855 
L 259.266189 367.18796 
L 259.42822 366.477298 
L 259.59022 366.479434 
L 259.752191 368.279053 
L 259.914132 368.281203 
L 260.237923 367.479761 
L 260.399773 367.481934 
L 260.885145 371.160929 
L 261.046875 370.682778 
L 261.208575 371.165356 
L 261.370245 370.919658 
L 261.531886 372.146042 
L 261.693496 370.92415 
L 261.855076 370.817944 
L 262.178147 370.032229 
L 262.339637 369.600648 
L 262.823929 370.723257 
L 263.14664 366.745589 
L 263.307951 366.747935 
L 263.469232 366.471369 
L 263.630483 368.658591 
L 263.791704 368.908886 
L 263.952896 371.328557 
L 264.275189 371.333341 
L 264.436291 369.801696 
L 264.597362 370.749339 
L 264.919417 368.770782 
L 265.080399 368.773228 
L 265.241352 369.627934 
L 265.402275 371.241928 
L 265.563168 371.244403 
L 265.884864 368.026321 
L 266.367186 368.018355 
L 266.688585 369.541972 
L 267.170461 369.44116 
L 267.331027 370.001567 
L 267.491563 370.004147 
L 267.65207 367.295027 
L 267.812546 367.297623 
L 267.972994 370.228873 
L 268.293799 371.473749 
L 268.454157 371.476384 
L 268.614486 371.045156 
L 269.095294 363.708284 
L 269.255504 366.143747 
L 269.415684 371.895249 
L 269.575835 371.897937 
L 269.735956 369.76226 
L 269.896048 369.764969 
L 270.216143 369.92537 
L 270.376146 368.967387 
L 270.53612 368.970133 
L 271.015863 371.209777 
L 271.175719 370.933645 
L 271.335545 369.650316 
L 271.814846 373.17624 
L 272.134233 373.22842 
L 272.453502 372.056506 
L 272.613092 371.39309 
L 272.932185 367.230613 
L 273.091687 366.613709 
L 273.25116 367.23645 
L 273.410603 368.680458 
L 273.729401 368.732826 
L 274.207379 367.842972 
L 274.685093 370.3467 
L 274.844272 370.287723 
L 275.003422 368.865153 
L 275.162542 368.666734 
L 275.321634 368.871207 
L 275.639728 374.037294 
L 275.798732 374.040358 
L 275.957706 370.959834 
L 276.275567 370.966022 
L 276.434453 370.535258 
L 276.59331 369.484685 
L 276.752138 369.487813 
L 277.069707 370.067432 
L 277.228447 371.728606 
L 277.387158 370.073757 
L 277.54584 369.596575 
L 277.863117 367.387103 
L 278.021712 367.328323 
L 278.180277 366.851172 
L 278.49732 367.926798 
L 278.655798 368.78228 
L 278.814247 368.785518 
L 278.972667 368.3239 
L 279.131058 368.327155 
L 279.289419 369.337624 
L 279.447752 371.432786 
L 279.606055 371.436068 
L 279.76433 370.556119 
L 279.922575 367.336362 
L 280.080791 367.339673 
L 280.238979 367.761369 
L 280.555266 370.960098 
L 280.713366 371.102902 
L 280.871437 371.9895 
L 281.029479 374.193227 
L 281.187493 374.274085 
L 281.345477 374.200002 
L 281.503432 368.346117 
L 281.661358 368.179083 
L 281.819255 368.182508 
L 281.977124 368.030985 
L 282.134963 368.328839 
L 282.292773 368.332287 
L 282.450555 369.141508 
L 282.608307 371.019926 
L 282.923726 371.166347 
L 283.081392 372.208041 
L 283.239029 370.925424 
L 283.396637 371.114889 
L 283.554216 370.932473 
L 284.02678 370.958621 
L 284.184244 370.543815 
L 284.499085 367.358918 
L 284.813811 367.242155 
L 284.97113 367.044325 
L 285.285683 367.14454 
L 285.757297 372.842304 
L 285.914444 372.660022 
L 286.071562 372.849643 
L 286.228652 372.667385 
L 286.385712 373.662796 
L 286.699748 371.469876 
L 286.856722 368.513974 
L 287.013668 367.75844 
L 287.170586 368.521471 
L 287.327474 367.84343 
L 287.484334 367.847197 
L 287.641165 365.790073 
L 287.797968 365.793853 
L 288.268203 372.452803 
L 288.424891 366.940228 
L 288.581551 366.51018 
L 288.738181 366.51401 
L 288.894784 369.245053 
L 289.051357 369.9307 
L 289.207902 369.934556 
L 289.833796 364.170242 
L 290.302917 364.274891 
L 290.459233 364.542214 
L 290.615521 366.823954 
L 290.77178 366.827864 
L 291.240388 362.733324 
L 291.396533 363.604998 
L 291.708739 363.891781 
L 291.864799 363.709773 
L 292.02083 362.722002 
L 292.332808 358.143223 
L 292.644673 359.902091 
L 292.800562 360.262425 
L 292.956423 361.118615 
L 293.112256 361.122553 
L 293.26806 358.197846 
L 293.735303 356.443163 
L 294.357896 332.62674 
L 294.669022 302.650649 
L 295.1355 225.850537 
L 295.601723 155.216423 
L 295.757074 143.985081 
L 295.912397 143.8173 
L 296.067691 143.819752 
L 296.378196 159.644907 
L 297.619086 317.64767 
L 298.393726 344.134049 
L 298.54857 345.467513 
L 298.703385 345.065468 
L 298.858173 346.274938 
L 299.012932 345.067098 
L 299.477041 339.367081 
L 299.786307 336.253933 
L 299.940898 336.254621 
L 300.095461 335.96087 
L 300.249996 335.961508 
L 300.404502 337.031311 
L 300.558981 340.781809 
L 300.713432 341.789587 
L 300.867854 345.989417 
L 301.022249 346.036442 
L 301.485265 355.676176 
L 301.639548 358.279919 
L 301.793803 358.280417 
L 302.102228 358.157443 
L 302.256399 359.397574 
L 302.410542 363.070495 
L 302.718744 363.071484 
L 303.026835 365.4278 
L 303.180838 368.5429 
L 303.334814 368.543416 
L 303.796573 365.75582 
L 303.950437 365.756363 
L 304.258082 369.04251 
L 304.411862 369.043074 
L 304.71934 365.294319 
L 304.873037 365.294903 
L 305.026706 366.876032 
L 305.180347 369.743293 
L 305.487547 370.519288 
L 305.641105 370.519913 
L 305.794635 369.838747 
L 305.948138 367.917952 
L 306.101612 367.577703 
L 306.255059 367.578363 
L 306.408479 368.570741 
L 306.56187 368.571416 
L 306.715234 367.859306 
L 306.86857 367.859997 
L 307.328412 372.448785 
L 307.481638 371.659245 
L 307.634835 369.83152 
L 307.788005 369.832271 
L 307.941148 370.204923 
L 308.094262 371.972179 
L 308.247349 371.972961 
L 308.400409 370.145287 
L 308.706445 370.146904 
L 308.859421 367.017639 
L 309.01237 367.018468 
L 309.165291 368.165971 
L 309.318185 368.306274 
L 309.471051 368.167666 
L 309.929484 370.277659 
L 310.082239 370.278546 
L 310.234968 371.100705 
L 310.387668 371.101613 
L 310.540342 369.73893 
L 310.692987 369.476435 
L 310.845605 369.477372 
L 310.998196 371.043363 
L 311.303295 370.967811 
L 311.608283 369.110319 
L 311.760736 366.895461 
L 311.913162 366.896465 
L 312.217931 370.694887 
L 312.52259 370.603982 
L 312.979373 368.592743 
L 313.131579 368.779764 
L 313.283758 373.33652 
L 313.435909 373.337616 
L 313.588033 372.424492 
L 313.74013 372.425613 
L 313.892199 374.472151 
L 314.196256 374.458964 
L 314.500202 371.765113 
L 314.652135 370.650637 
L 314.80404 370.43491 
L 314.955918 370.436129 
L 315.107768 371.336097 
L 315.259592 371.337338 
L 315.411387 371.090661 
L 315.563156 369.464897 
L 315.714897 369.466169 
L 316.018298 370.925315 
L 316.169958 370.926616 
L 316.32159 374.429907 
L 316.473195 374.880601 
L 316.624773 374.881941 
L 316.927846 371.723582 
L 317.079342 371.72496 
L 317.230811 372.85752 
L 317.533667 372.891327 
L 317.836415 369.330228 
L 317.987748 370.214916 
L 318.441583 370.219311 
L 318.592808 371.382958 
L 318.744005 373.848236 
L 318.895175 374.48506 
L 319.046318 374.486583 
L 319.197433 374.255688 
L 319.348522 374.25724 
L 319.499583 373.933399 
L 319.801625 375.935489 
L 319.952606 375.937098 
L 320.103559 375.597822 
L 320.405384 371.479314 
L 320.556256 370.721699 
L 320.707101 370.723373 
L 320.857919 371.63929 
L 321.159474 375.346116 
L 321.460921 376.356786 
L 321.611603 376.559983 
L 321.762259 377.135087 
L 322.214065 377.063025 
L 322.364613 376.816936 
L 322.816095 374.37426 
L 322.966535 374.933996 
L 323.116949 374.006181 
L 323.267335 374.008108 
L 323.417695 373.374734 
L 323.568027 373.376688 
L 323.868611 374.093428 
L 324.018863 373.785512 
L 324.469458 375.217161 
L 324.619602 373.5457 
L 324.769719 373.547764 
L 324.91981 374.959931 
L 325.219911 375.057102 
L 325.669861 374.16477 
L 325.969694 377.097759 
L 326.419242 377.011421 
L 326.569038 376.533306 
L 326.86855 374.507935 
L 327.018265 375.470946 
L 327.317617 375.491068 
L 327.616861 374.457556 
L 327.915998 375.252569 
L 328.215029 375.257372 
L 328.364504 374.655471 
L 328.513953 375.742593 
L 328.663375 374.660362 
L 328.81277 376.057423 
L 328.962139 376.059906 
L 329.111481 377.085107 
L 329.410085 377.090155 
L 329.559347 377.4491 
L 329.857792 379.034789 
L 330.15613 379.101995 
L 330.603438 374.058436 
L 330.752487 374.061122 
L 330.90151 374.544183 
L 331.199476 376.610527 
L 331.348419 377.031651 
L 331.497336 378.69243 
L 331.646226 377.037194 
L 331.79509 378.295126 
L 331.943927 376.577942 
L 332.241522 376.583622 
L 332.539011 376.790808 
L 332.687716 377.227578 
L 332.836394 377.230492 
L 333.133672 375.407901 
L 333.282271 375.34888 
L 333.430843 373.89528 
L 333.579389 373.898269 
L 333.876402 377.778163 
L 334.024869 378.091109 
L 334.17331 378.094163 
L 334.321724 377.880298 
L 334.470111 377.883388 
L 334.618473 376.569378 
L 334.915116 376.575641 
L 335.211654 377.031337 
L 335.804414 381.367446 
L 336.396753 376.437566 
L 336.544772 376.936759 
L 336.840732 376.943482 
L 336.988672 380.479839 
L 337.284473 380.59514 
L 337.58017 376.449261 
L 337.727979 374.236886 
L 337.875762 374.24038 
L 338.023518 376.072356 
L 338.171249 376.230834 
L 338.614282 381.912856 
L 338.761908 381.916455 
L 339.05708 374.609844 
L 339.204627 374.613496 
L 339.352148 375.360947 
L 339.499643 378.029852 
L 339.647112 378.033551 
L 339.794554 378.966997 
L 339.94197 378.521364 
L 340.236725 380.992674 
L 340.384063 381.089441 
L 340.82592 382.356085 
L 340.973154 380.639966 
L 341.120361 376.599544 
L 341.267543 376.603461 
L 341.414698 380.481265 
L 341.561828 380.485218 
L 342.003059 379.195575 
L 342.297084 379.203655 
L 342.737926 376.426724 
L 342.884821 379.297507 
L 343.03169 379.549572 
L 343.178533 379.553728 
L 343.325351 379.186011 
L 343.618907 379.178923 
L 343.765647 382.452702 
L 343.91236 382.456956 
L 344.352345 376.008223 
L 344.498955 375.981561 
L 344.645539 374.095456 
L 344.938629 374.104186 
L 345.085135 369.211998 
L 345.231616 368.038736 
L 345.37807 368.043138 
L 345.670902 373.088002 
L 345.817278 373.092435 
L 346.109955 369.8008 
L 346.402528 369.685778 
L 346.548775 370.139632 
L 346.987364 373.577652 
L 347.279627 376.84078 
L 347.42572 377.511648 
L 347.571787 377.516228 
L 348.009834 375.841058 
L 348.155799 378.402457 
L 348.44765 378.365313 
L 348.593537 377.641723 
L 348.739398 377.646439 
L 348.885234 378.270991 
L 349.031044 378.275741 
L 349.176828 377.273303 
L 349.322586 377.278088 
L 349.468319 380.722888 
L 349.759708 380.732553 
L 350.342177 379.016629 
L 350.48773 377.626975 
L 350.633258 378.437698 
L 350.77876 378.442673 
L 350.924236 380.307125 
L 351.069687 380.312139 
L 351.505886 377.367656 
L 351.651234 378.224995 
L 351.796557 378.369559 
L 352.087126 379.108111 
L 352.232372 378.834352 
L 352.377593 379.397368 
L 352.522788 378.364368 
L 352.667958 378.369583 
L 352.813102 377.832475 
L 352.95822 375.916285 
L 353.103313 375.921552 
L 353.393423 377.078798 
L 353.68343 377.166922 
L 353.828396 376.83137 
L 353.973336 376.836735 
L 354.118251 377.477431 
L 354.26314 377.48283 
L 354.408003 377.6432 
L 354.552842 379.508091 
L 354.697654 379.513543 
L 354.842442 377.47361 
L 354.987204 377.463603 
L 355.421337 373.900709 
L 355.565997 372.093287 
L 355.855242 372.135413 
L 356.144385 372.828398 
L 356.288918 372.834008 
L 356.433426 372.421252 
L 356.577909 369.870131 
L 356.722366 369.627847 
L 356.866799 369.881428 
L 357.011205 370.692856 
L 357.155587 370.698529 
L 357.444273 369.702699 
L 357.588579 370.049302 
L 357.877114 369.378934 
L 358.021343 369.384664 
L 358.309727 369.628584 
L 358.453881 369.57236 
L 358.88619 366.397613 
L 359.030243 366.403402 
L 359.318273 369.80851 
L 359.606202 369.959602 
L 360.037906 361.857477 
L 360.181757 360.654672 
L 360.61316 360.765177 
L 360.75691 360.507598 
L 360.900635 357.383354 
L 361.044336 357.389196 
L 361.33166 361.755105 
L 361.475285 363.713376 
L 361.618885 364.122102 
L 361.762459 364.127949 
L 361.906009 360.32191 
L 362.049533 359.707941 
L 362.193032 359.713791 
L 362.336506 359.363245 
L 362.623379 357.376021 
L 362.766778 357.381864 
L 362.910152 355.667705 
L 363.053501 356.169396 
L 363.196824 354.594688 
L 363.340123 356.181052 
L 363.483397 355.954441 
L 363.626645 355.960258 
L 363.913068 351.230257 
L 364.056241 351.236053 
L 364.19939 354.062018 
L 364.342513 354.067799 
L 365.343679 330.802677 
L 365.629502 309.786531 
L 365.915225 280.511087 
L 366.200849 226.008663 
L 366.771797 92.395067 
L 367.199746 33.973515 
L 367.342347 33.976858 
L 367.484922 35.823837 
L 367.769998 69.221685 
L 368.766983 245.632312 
L 369.19389 301.263206 
L 369.904907 330.861928 
L 370.331221 336.828689 
L 370.473276 336.828972 
L 370.899292 331.731654 
L 371.041249 331.73183 
L 371.18318 328.803331 
L 371.466969 319.041369 
L 371.608827 316.097264 
L 371.750659 315.709869 
L 371.892468 314.50117 
L 372.17601 309.139488 
L 372.317744 305.869743 
L 372.601139 296.649366 
L 372.884435 291.473055 
L 373.167633 290.619711 
L 373.592246 282.916285 
L 373.733734 282.915411 
L 374.016637 285.671631 
L 374.299442 287.947192 
L 375.006024 305.264274 
L 375.711994 318.768106 
L 375.994211 327.364504 
L 376.27633 332.954647 
L 376.417353 333.820489 
L 376.558351 335.476573 
L 376.840274 335.472633 
L 377.403828 344.513842 
L 377.544655 344.837163 
L 377.685458 344.509658 
L 377.826237 345.437272 
L 378.248427 345.446331 
L 378.389108 348.031901 
L 378.529765 348.215659 
L 379.092149 353.475269 
L 379.232684 353.287091 
L 379.373195 353.284851 
L 379.513681 353.406568 
L 379.654143 355.108817 
L 379.794581 353.944396 
L 380.075384 356.992471 
L 380.496407 356.954649 
L 380.776967 360.374581 
L 380.917211 360.821665 
L 381.197626 363.544302 
L 381.337797 362.844726 
L 381.477944 358.968577 
L 381.618067 358.966299 
L 381.758165 359.47537 
L 381.89824 361.25507 
L 382.178316 361.312493 
L 382.458295 358.022892 
L 382.598248 358.020609 
L 382.878083 359.65856 
L 383.017964 364.64582 
L 383.15782 364.937951 
L 383.297653 364.935673 
L 383.437461 364.530517 
L 383.577246 364.528247 
L 383.717006 365.781116 
L 383.856742 365.778856 
L 384.136142 365.603902 
L 384.275806 365.601658 
L 384.415446 366.389689 
L 384.555062 366.139528 
L 384.694653 367.392435 
L 385.113284 366.967417 
L 385.39225 366.854555 
L 385.81052 368.087654 
L 386.089246 371.49234 
L 386.228574 371.490195 
L 386.507156 370.928102 
L 386.785642 370.923888 
L 386.92485 370.441436 
L 387.064033 370.439355 
L 387.342328 370.605673 
L 387.481439 370.247227 
L 387.620527 370.245186 
L 387.89863 369.032485 
L 388.176637 368.997477 
L 388.454549 369.954215 
L 388.871237 374.596967 
L 389.287711 370.422905 
L 389.426487 372.079018 
L 389.56524 372.077125 
L 389.703969 371.811821 
L 389.842675 368.58689 
L 389.981356 368.585028 
L 390.258647 371.509979 
L 390.535843 373.582724 
L 390.812944 375.314621 
L 390.951458 375.01843 
L 391.228416 376.688434 
L 391.36686 376.950127 
L 391.643675 378.837167 
L 391.782047 378.83549 
L 392.05872 375.655615 
L 392.19702 375.653988 
L 392.335297 378.79796 
L 392.61178 379.306144 
L 392.749986 379.304589 
L 392.888168 380.573683 
L 393.026327 380.572167 
L 393.302572 377.625051 
L 393.44066 377.375663 
L 393.578723 377.374219 
L 393.716763 375.451353 
L 393.85478 377.975706 
L 393.992772 376.858637 
L 394.130741 376.85726 
L 394.406608 376.668609 
L 394.544506 377.194128 
L 394.682381 377.270294 
L 394.820232 379.453863 
L 395.095862 379.482322 
L 395.371399 379.045993 
L 395.509132 378.254524 
L 395.646841 378.253342 
L 395.784526 377.554881 
L 395.922188 377.724185 
L 396.059827 376.297471 
L 396.197442 377.365546 
L 396.335033 377.364449 
L 396.885163 379.157715 
L 397.022637 379.156709 
L 397.160087 377.528695 
L 397.434916 377.526772 
L 397.572296 377.913223 
L 397.984294 381.443495 
L 398.121579 381.442636 
L 398.670487 376.201919 
L 398.807655 376.449079 
L 399.081922 382.490833 
L 399.219019 383.311383 
L 399.356094 383.310695 
L 399.630173 377.839477 
L 399.767177 377.838848 
L 399.904158 378.194633 
L 400.041116 381.773497 
L 400.31496 381.818861 
L 400.451848 380.904098 
L 400.588712 380.903589 
L 400.725552 382.994992 
L 400.86237 383.180472 
L 400.999164 382.994083 
L 401.135934 381.537088 
L 401.272681 378.54606 
L 401.409405 378.545679 
L 401.546106 379.211622 
L 401.682783 380.776322 
L 401.819437 380.775999 
L 401.956067 380.264345 
L 402.092675 380.264062 
L 402.229259 382.960013 
L 402.365819 382.959772 
L 402.502357 381.131087 
L 402.638871 380.898457 
L 402.775362 380.061524 
L 402.911829 377.768035 
L 403.048273 377.411499 
L 403.184695 377.53534 
L 403.321092 377.070369 
L 403.457467 377.535145 
L 403.593818 377.070209 
L 403.730146 378.07736 
L 403.866451 376.419306 
L 404.275226 380.122718 
L 404.411438 380.091763 
L 404.547627 379.239566 
L 404.683792 379.239641 
L 404.819935 380.835769 
L 404.956054 380.944351 
L 405.09215 381.858719 
L 405.228223 380.944641 
L 405.364273 381.859051 
L 405.500299 381.657807 
L 405.636303 382.153882 
L 405.772283 383.223311 
L 405.90824 383.223575 
L 406.451837 379.319986 
L 406.587678 376.066302 
L 406.723497 375.648308 
L 406.859292 375.881139 
L 406.995064 375.633626 
L 407.130813 375.881983 
L 407.402242 378.920007 
L 407.537922 379.400848 
L 407.673579 379.401348 
L 407.809213 378.565111 
L 407.944823 373.777543 
L 408.080411 373.251248 
L 408.351517 371.966261 
L 408.487036 371.037119 
L 408.622531 371.037717 
L 408.758004 372.711838 
L 408.893453 372.712458 
L 409.164283 368.777881 
L 409.299664 367.321956 
L 409.435021 367.322614 
L 409.570356 367.509225 
L 409.840956 368.982648 
L 410.111464 368.968539 
L 410.246684 365.110869 
L 410.38188 365.11158 
L 411.192579 370.182995 
L 411.327616 372.492583 
L 411.462629 372.586329 
L 411.59762 372.974501 
L 411.732587 372.975298 
L 412.002454 370.590624 
L 412.137353 370.591455 
L 412.272229 371.243107 
L 412.407082 371.243959 
L 412.67672 367.30984 
L 412.946266 364.25899 
L 413.081005 364.259878 
L 413.350415 364.618061 
L 413.754358 369.006 
L 413.888961 369.223857 
L 414.02354 369.007849 
L 414.158097 367.939599 
L 414.427141 367.941497 
L 414.56163 366.857774 
L 414.696095 366.858741 
L 414.830538 366.642778 
L 414.964958 365.280155 
L 415.368082 368.707631 
L 415.502411 369.018548 
L 415.636717 369.019564 
L 415.771001 366.835724 
L 415.905262 366.805764 
L 416.0395 365.598153 
L 416.307908 362.826549 
L 416.442078 362.827597 
L 416.710351 360.272942 
L 416.844453 359.127327 
L 416.978532 355.843333 
L 417.112589 355.844378 
L 417.246623 355.721454 
L 417.380635 356.357805 
L 417.514623 355.150188 
L 417.64859 356.359862 
L 417.782533 355.880525 
L 417.916454 357.57055 
L 418.050353 356.703818 
L 418.184228 357.712036 
L 418.451912 357.5436 
L 418.58572 357.544603 
L 418.719505 360.241818 
L 418.853268 360.242818 
L 419.120726 355.4877 
L 419.388094 354.637426 
L 419.521744 350.718049 
L 419.788976 350.673495 
L 419.922558 349.791204 
L 420.056118 349.792145 
L 420.456662 346.463369 
L 420.590132 347.719394 
L 420.723579 347.813246 
L 420.857004 350.773749 
L 421.123786 350.775451 
L 421.65708 354.466676 
L 421.923592 345.604864 
L 422.190015 345.683891 
L 422.323193 346.598877 
L 422.456348 351.620154 
L 422.855679 354.58196 
L 423.254808 350.462265 
L 423.520783 346.651729 
L 423.653736 345.691665 
L 423.919576 345.692933 
L 424.052463 343.400213 
L 424.185327 343.338826 
L 424.318169 340.038866 
L 424.583785 340.039961 
L 425.51274 355.321842 
L 425.645359 354.655978 
L 425.910529 354.656845 
L 426.043081 352.007541 
L 426.17561 351.651562 
L 426.440602 347.79399 
L 426.97032 346.292383 
L 427.102693 347.129468 
L 427.367374 350.585583 
L 427.499681 350.585879 
L 427.631966 349.749408 
L 427.764229 348.200135 
L 427.896469 349.145623 
L 428.028688 349.145875 
L 428.293058 351.021299 
L 428.425209 350.463683 
L 428.689446 352.943374 
L 428.821531 352.943569 
L 428.953595 351.642136 
L 429.217654 335.077802 
L 429.349651 335.077939 
L 429.481625 335.852825 
L 429.613578 338.099758 
L 430.009302 338.998625 
L 430.009302 338.998625 
" clip-path="url(#pb678abaca0)" style="fill: none; stroke: #5088c5; stroke-width: 2; stroke-linecap: round"/>
   </g>
   <g id="line2d_14">
    <defs>
     <path id="mc7ea220c23" d="M 0 3 
C 0.795609 3 1.55874 2.683901 2.12132 2.12132 
C 2.683901 1.55874 3 0.795609 3 0 
C 3 -0.795609 2.683901 -1.55874 2.12132 -2.12132 
C 1.55874 -2.683901 0.795609 -3 0 -3 
C -0.795609 -3 -1.55874 -2.683901 -2.12132 -2.12132 
C -2.683901 -1.55874 -3 -0.795609 -3 0 
C -3 0.795609 -2.683901 1.55874 -2.12132 2.12132 
C -1.55874 2.683901 -0.795609 3 0 3 
z
"/>
    </defs>
    <g clip-path="url(#pb678abaca0)">
     <use xlink:href="#mc7ea220c23" x="158.488627" y="306.395875" style="fill: #f28360"/>
     <use xlink:href="#mc7ea220c23" x="205.705322" y="312.255789" style="fill: #f28360"/>
     <use xlink:href="#mc7ea220c23" x="296.002824" y="143.819752" style="fill: #f28360"/>
     <use xlink:href="#mc7ea220c23" x="367.366072" y="33.976858" style="fill: #f28360"/>
     <use xlink:href="#mc7ea220c23" x="373.644473" y="282.916285" style="fill: #f28360"/>
    </g>
   </g>
   <g id="patch_3">
    <path d="M 91.128438 397.284897 
L 91.128438 20 
" style="fill: none; stroke: #000000; stroke-width: 0.75; stroke-linejoin: miter; stroke-linecap: square"/>
   </g>
   <g id="patch_4">
    <path d="M 91.128438 397.284897 
L 443.043182 397.284897 
" style="fill: none; stroke: #000000; stroke-width: 0.75; stroke-linejoin: miter; stroke-linecap: square"/>
   </g>
  </g>
 </g>
 <defs>
  <clipPath id="pb678abaca0">
   <rect x="91.128438" y="20" width="351.914744" height="377.284898"/>
  </clipPath>
 </defs>
</svg>
