<?xml version="1.0" encoding="utf-8" standalone="no"?>
<!DOCTYPE svg PUBLIC "-//W3C//DTD SVG 1.1//EN"
  "http://www.w3.org/Graphics/SVG/1.1/DTD/svg11.dtd">
<svg xmlns:xlink="http://www.w3.org/1999/xlink" width="653.99976pt" height="373.99896pt" viewBox="0 0 653.99976 373.99896" xmlns="http://www.w3.org/2000/svg" version="1.1">
 <metadata>
  <rdf:RDF xmlns:dc="http://purl.org/dc/elements/1.1/" xmlns:cc="http://creativecommons.org/ns#" xmlns:rdf="http://www.w3.org/1999/02/22-rdf-syntax-ns#">
   <cc:Work>
    <dc:type rdf:resource="http://purl.org/dc/dcmitype/StillImage"/>
    <dc:date>2025-02-10T11:28:18.357831</dc:date>
    <dc:format>image/svg+xml</dc:format>
    <dc:creator>
     <cc:Agent>
      <dc:title>Matplotlib v3.8.4, https://matplotlib.org/</dc:title>
     </cc:Agent>
    </dc:creator>
   </cc:Work>
  </rdf:RDF>
 </metadata>
 <defs>
  <style type="text/css">*{stroke-linejoin: round; stroke-linecap: butt}</style>
 </defs>
 <g id="figure_1">
  <g id="patch_1">
   <path d="M 0 373.99896 
L 653.99976 373.99896 
L 653.99976 0 
L 0 0 
L 0 373.99896 
z
" style="fill: none"/>
  </g>
  <g id="axes_1">
   <g id="patch_2">
    <path d="M 81.762344 304.59896 
L 633.99976 304.59896 
L 633.99976 20 
L 81.762344 20 
L 81.762344 304.59896 
z
" style="fill: none"/>
   </g>
   <g id="matplotlib.axis_1">
    <g id="xtick_1">
     <g id="line2d_1">
      <defs>
       <path id="maf051b747e" d="M 0 0 
L 0 5 
" style="stroke: #000000; stroke-width: 0.75"/>
      </defs>
      <g>
       <use xlink:href="#maf051b747e" x="117.147287" y="304.59896" style="stroke: #000000; stroke-width: 0.75"/>
      </g>
     </g>
     <g id="text_1">
      <text style="font: 14.5px &quot;Suisse Int&apos;l Mono&quot;; text-anchor: middle" x="117.147287" y="325.11146" transform="rotate(-0 117.147287 325.11146)">500</text>
     </g>
    </g>
    <g id="xtick_2">
     <g id="line2d_2">
      <g>
       <use xlink:href="#maf051b747e" x="198.269918" y="304.59896" style="stroke: #000000; stroke-width: 0.75"/>
      </g>
     </g>
     <g id="text_2">
      <text style="font: 14.5px &quot;Suisse Int&apos;l Mono&quot;; text-anchor: middle" x="198.269918" y="325.11146" transform="rotate(-0 198.269918 325.11146)">1000</text>
     </g>
    </g>
    <g id="xtick_3">
     <g id="line2d_3">
      <g>
       <use xlink:href="#maf051b747e" x="279.392548" y="304.59896" style="stroke: #000000; stroke-width: 0.75"/>
      </g>
     </g>
     <g id="text_3">
      <text style="font: 14.5px &quot;Suisse Int&apos;l Mono&quot;; text-anchor: middle" x="279.392548" y="325.11146" transform="rotate(-0 279.392548 325.11146)">1500</text>
     </g>
    </g>
    <g id="xtick_4">
     <g id="line2d_4">
      <g>
       <use xlink:href="#maf051b747e" x="360.515178" y="304.59896" style="stroke: #000000; stroke-width: 0.75"/>
      </g>
     </g>
     <g id="text_4">
      <text style="font: 14.5px &quot;Suisse Int&apos;l Mono&quot;; text-anchor: middle" x="360.515178" y="325.11146" transform="rotate(-0 360.515178 325.11146)">2000</text>
     </g>
    </g>
    <g id="xtick_5">
     <g id="line2d_5">
      <g>
       <use xlink:href="#maf051b747e" x="441.637808" y="304.59896" style="stroke: #000000; stroke-width: 0.75"/>
      </g>
     </g>
     <g id="text_5">
      <text style="font: 14.5px &quot;Suisse Int&apos;l Mono&quot;; text-anchor: middle" x="441.637808" y="325.11146" transform="rotate(-0 441.637808 325.11146)">2500</text>
     </g>
    </g>
    <g id="xtick_6">
     <g id="line2d_6">
      <g>
       <use xlink:href="#maf051b747e" x="522.760438" y="304.59896" style="stroke: #000000; stroke-width: 0.75"/>
      </g>
     </g>
     <g id="text_6">
      <text style="font: 14.5px &quot;Suisse Int&apos;l Mono&quot;; text-anchor: middle" x="522.760438" y="325.11146" transform="rotate(-0 522.760438 325.11146)">3000</text>
     </g>
    </g>
    <g id="xtick_7">
     <g id="line2d_7">
      <g>
       <use xlink:href="#maf051b747e" x="603.883068" y="304.59896" style="stroke: #000000; stroke-width: 0.75"/>
      </g>
     </g>
     <g id="text_7">
      <text style="font: 14.5px &quot;Suisse Int&apos;l Mono&quot;; text-anchor: middle" x="603.883068" y="325.11146" transform="rotate(-0 603.883068 325.11146)">3500</text>
     </g>
    </g>
    <g id="text_8">
     <!-- Raman shift (cm$^{-1}$) -->
     <g transform="translate(291.431052 351.14896)">
      <text>
       <tspan style="font: 500 15px &quot;Suisse Int&apos;l&quot;" x="0 10.184982 18.719971 32.324951 40.85994 49.694931 53.144928 61.034912 69.869904 73.664886 78.509872 83.609863 87.05986 90.929855 99.389847 129.02681" y="-0.6015625">Raman shift (cm)</tspan>
       <tspan style="font: 10.5px 'DejaVu Sans'" x="113.138382 121.936234" y="-6.34375">−1</tspan>
      </text>
     </g>
    </g>
   </g>
   <g id="matplotlib.axis_2">
    <g id="ytick_1">
     <g id="line2d_8">
      <defs>
       <path id="m4baae4bb91" d="M 0 0 
L -5 0 
" style="stroke: #000000; stroke-width: 0.75"/>
      </defs>
      <g>
       <use xlink:href="#m4baae4bb91" x="81.762344" y="289.987692" style="stroke: #000000; stroke-width: 0.75"/>
      </g>
     </g>
     <g id="text_9">
      <text style="font: 14.5px &quot;Suisse Int&apos;l Mono&quot;; text-anchor: end" x="71.762344" y="295.243942" transform="rotate(-0 71.762344 295.243942)">0.0</text>
     </g>
    </g>
    <g id="ytick_2">
     <g id="line2d_9">
      <g>
       <use xlink:href="#m4baae4bb91" x="81.762344" y="228.963788" style="stroke: #000000; stroke-width: 0.75"/>
      </g>
     </g>
     <g id="text_10">
      <text style="font: 14.5px &quot;Suisse Int&apos;l Mono&quot;; text-anchor: end" x="71.762344" y="234.220038" transform="rotate(-0 71.762344 234.220038)">0.2</text>
     </g>
    </g>
    <g id="ytick_3">
     <g id="line2d_10">
      <g>
       <use xlink:href="#m4baae4bb91" x="81.762344" y="167.939884" style="stroke: #000000; stroke-width: 0.75"/>
      </g>
     </g>
     <g id="text_11">
      <text style="font: 14.5px &quot;Suisse Int&apos;l Mono&quot;; text-anchor: end" x="71.762344" y="173.196134" transform="rotate(-0 71.762344 173.196134)">0.4</text>
     </g>
    </g>
    <g id="ytick_4">
     <g id="line2d_11">
      <g>
       <use xlink:href="#m4baae4bb91" x="81.762344" y="106.91598" style="stroke: #000000; stroke-width: 0.75"/>
      </g>
     </g>
     <g id="text_12">
      <text style="font: 14.5px &quot;Suisse Int&apos;l Mono&quot;; text-anchor: end" x="71.762344" y="112.17223" transform="rotate(-0 71.762344 112.17223)">0.6</text>
     </g>
    </g>
    <g id="ytick_5">
     <g id="line2d_12">
      <g>
       <use xlink:href="#m4baae4bb91" x="81.762344" y="45.892076" style="stroke: #000000; stroke-width: 0.75"/>
      </g>
     </g>
     <g id="text_13">
      <text style="font: 14.5px &quot;Suisse Int&apos;l Mono&quot;; text-anchor: end" x="71.762344" y="51.148326" transform="rotate(-0 71.762344 51.148326)">0.8</text>
     </g>
    </g>
    <g id="text_14">
     <text style="font: 500 15px &quot;Suisse Int&apos;l&quot;, sans-serif; text-anchor: middle" x="30.875" y="162.29948" transform="rotate(-90 30.875 162.29948)">Intensity (au)</text>
    </g>
   </g>
   <g id="line2d_13">
    <path d="M 102.215581 287.950822 
L 102.517012 287.557216 
L 102.818382 287.950816 
L 103.11969 287.505335 
L 103.420938 288.133872 
L 103.722125 287.505315 
L 104.023252 287.914162 
L 104.324317 287.785996 
L 105.227148 287.862217 
L 105.527971 287.987292 
L 105.828732 287.987266 
L 106.129433 287.68822 
L 107.031172 287.620996 
L 107.331631 287.544679 
L 107.632028 287.620919 
L 107.932365 288.133477 
L 108.532858 288.133387 
L 108.833013 286.949476 
L 109.133108 287.892244 
L 109.433143 287.150751 
L 109.733117 287.892136 
L 110.03303 287.715109 
L 110.332884 287.89812 
L 111.23208 287.812494 
L 111.831243 287.318061 
L 112.430164 287.317911 
L 112.729534 287.601593 
L 113.028844 286.994324 
L 113.328094 287.601427 
L 113.627283 286.994153 
L 113.926413 287.747708 
L 114.225482 287.421138 
L 114.52449 288.208252 
L 114.823439 288.568197 
L 115.122327 288.568099 
L 115.719924 286.981277 
L 116.018632 287.676845 
L 116.31728 286.981066 
L 116.615868 287.279973 
L 116.914396 287.160864 
L 117.80962 287.413759 
L 118.107908 286.431151 
L 118.406136 286.431024 
L 118.704304 287.34015 
L 119.002412 287.635983 
L 119.30046 287.373445 
L 119.598449 287.373307 
L 119.896377 287.135173 
L 120.492055 287.241675 
L 120.789804 288.190448 
L 121.385123 288.190145 
L 121.682692 287.201403 
L 121.980202 286.926638 
L 122.277653 286.926478 
L 122.575043 287.676909 
L 123.169645 287.676575 
L 123.466857 286.837327 
L 123.764009 286.837153 
L 124.358134 288.020661 
L 124.952021 288.020297 
L 125.248875 287.769914 
L 125.54567 288.270123 
L 125.842405 287.635286 
L 126.13908 287.333026 
L 126.435696 286.362552 
L 126.732253 286.362355 
L 127.02875 287.60399 
L 127.325188 287.603787 
L 127.917885 287.060259 
L 128.806487 287.648498 
L 129.102568 287.324852 
L 129.694554 287.205409 
L 129.990458 287.794063 
L 130.286302 287.793834 
L 130.582088 287.189465 
L 130.877814 287.189231 
L 131.469089 287.936297 
L 131.764638 288.091667 
L 132.060128 287.935812 
L 132.355558 287.181922 
L 132.946242 287.181422 
L 133.241495 286.729591 
L 133.831825 286.729074 
L 134.126901 287.836394 
L 135.011776 288.299372 
L 135.306616 287.948214 
L 135.89612 287.993433 
L 136.190784 288.145716 
L 137.66322 288.147353 
L 137.957531 287.890764 
L 138.545976 287.890181 
L 138.840111 287.728173 
L 139.134187 287.25494 
L 139.428204 287.254641 
L 139.722162 287.827963 
L 140.016062 287.827658 
L 140.309903 287.336109 
L 140.89741 287.423972 
L 141.191076 288.101023 
L 141.778231 288.100388 
L 142.071721 288.35942 
L 142.365152 289.289712 
L 142.658525 289.28939 
L 142.951839 288.526268 
L 143.245095 288.297103 
L 143.538292 286.673541 
L 143.831431 286.673211 
L 144.417534 287.990659 
L 145.003403 287.983879 
L 145.29625 287.629599 
L 145.589039 287.629255 
L 145.88177 288.153714 
L 146.174442 288.153366 
L 146.467056 287.588545 
L 146.759612 287.588192 
L 147.344548 288.203822 
L 147.929252 288.203102 
L 148.221517 288.376658 
L 148.805872 288.375929 
L 149.389995 288.057868 
L 149.973885 288.057125 
L 150.265743 288.425944 
L 151.140969 288.604832 
L 151.432595 288.528171 
L 151.724164 287.859577 
L 152.015674 287.859193 
L 152.307126 287.697093 
L 152.59852 288.810391 
L 152.889857 287.65665 
L 153.181135 289.129985 
L 153.763519 289.129198 
L 154.054624 288.121909 
L 154.345672 288.121512 
L 154.636661 288.435387 
L 154.927593 289.130659 
L 155.218467 289.130259 
L 155.509283 288.223652 
L 155.800042 288.223249 
L 156.090743 288.677471 
L 156.381386 288.677065 
L 156.962499 286.699073 
L 158.124035 286.798089 
L 158.414275 287.075322 
L 158.704457 287.074893 
L 158.994582 287.25143 
L 159.574659 287.250557 
L 159.864611 287.591851 
L 160.154506 287.591408 
L 160.444344 288.109666 
L 160.734124 288.347213 
L 161.313512 288.346314 
L 161.60312 288.190251 
L 161.89267 288.513224 
L 162.182163 287.896427 
L 162.471599 288.411622 
L 162.760978 287.300528 
L 163.050299 288.346627 
L 163.339563 288.062402 
L 163.91792 288.06147 
L 164.207012 288.677343 
L 164.496047 288.676872 
L 164.785025 288.447561 
L 165.073946 287.525627 
L 165.651616 287.494162 
L 165.940365 287.991026 
L 166.229057 288.014953 
L 166.517693 288.234154 
L 166.806271 288.840856 
L 167.094792 288.840369 
L 167.383256 288.586631 
L 167.960013 288.58565 
L 168.248306 289.02758 
L 168.824721 289.04795 
L 169.112843 288.418908 
L 169.688917 288.341632 
L 170.264763 288.471831 
L 170.840382 288.470823 
L 171.128106 288.027893 
L 171.415774 288.027384 
L 171.703384 288.423529 
L 171.990938 288.423017 
L 172.278435 287.998387 
L 172.853259 287.997354 
L 173.140586 288.298903 
L 173.71507 288.267347 
L 174.002227 287.946446 
L 174.289327 287.94592 
L 174.576371 287.73791 
L 175.150289 287.025916 
L 175.437163 287.02538 
L 175.72398 286.866178 
L 176.297445 286.86509 
L 176.584093 288.014841 
L 176.870685 288.529942 
L 177.15722 288.013738 
L 177.443698 287.854521 
L 177.73012 287.853965 
L 178.016486 289.031168 
L 178.302795 289.030608 
L 178.589048 288.111638 
L 179.447469 287.905515 
L 179.733496 288.264987 
L 180.305383 288.230282 
L 180.591242 287.082459 
L 181.44848 287.150898 
L 181.734114 286.842142 
L 182.019692 286.841553 
L 182.305213 285.068217 
L 182.876088 283.367519 
L 183.161441 281.343985 
L 183.731979 272.497387 
L 184.302293 258.640726 
L 184.587366 253.13883 
L 184.872383 250.712538 
L 185.157344 250.711946 
L 185.442248 250.848658 
L 186.296627 258.966114 
L 186.581308 264.857381 
L 186.865934 265.772148 
L 187.150503 275.230261 
L 188.003876 284.342407 
L 188.288222 284.341815 
L 188.572512 285.601367 
L 188.856746 286.09812 
L 189.140925 287.238672 
L 189.425048 286.490531 
L 189.709115 287.237472 
L 189.993126 286.489325 
L 190.560982 288.660558 
L 191.128615 289.400774 
L 192.263214 288.330397 
L 192.546725 288.616591 
L 192.83018 288.289493 
L 193.113579 288.355999 
L 193.396923 287.488836 
L 193.963445 288.90639 
L 194.529745 288.905133 
L 195.095823 289.160172 
L 195.378779 289.15954 
L 195.661679 289.326723 
L 195.944525 289.326089 
L 196.227314 288.962363 
L 196.510049 288.961728 
L 196.792728 289.626252 
L 197.35792 289.624979 
L 197.640434 288.708983 
L 197.922892 288.708345 
L 198.487642 290.028232 
L 198.769934 290.027592 
L 199.334353 290.139206 
L 199.61648 289.336102 
L 199.898552 289.335461 
L 200.180568 289.69181 
L 200.462529 289.691168 
L 200.744436 288.878909 
L 201.308083 288.987465 
L 201.589824 289.172943 
L 201.87151 288.986174 
L 202.716238 289.017794 
L 202.997704 289.004939 
L 203.279116 288.424561 
L 203.560472 288.423909 
L 203.841773 288.017446 
L 204.123019 288.358524 
L 204.685347 288.357208 
L 204.966429 288.667769 
L 205.247456 289.402445 
L 205.528428 289.401783 
L 205.809346 288.491863 
L 206.090208 288.491199 
L 206.371016 288.929905 
L 207.21311 288.842466 
L 207.774233 289.262189 
L 208.615507 288.897078 
L 208.895823 289.235085 
L 209.176084 289.234409 
L 209.45629 288.919459 
L 209.736441 288.165136 
L 210.296581 289.890752 
L 210.576569 290.082297 
L 211.136381 290.080935 
L 211.416206 290.27248 
L 211.695976 289.78666 
L 211.975691 290.353502 
L 212.255353 289.300159 
L 212.534959 289.528318 
L 212.814512 289.298798 
L 213.094009 289.526955 
L 213.373453 289.559836 
L 213.652842 289.733071 
L 214.211457 289.389971 
L 214.490683 289.389287 
L 214.769855 290.471777 
L 215.048973 290.471093 
L 215.328036 289.701508 
L 215.607045 289.700824 
L 216.164901 290.70635 
L 216.722539 290.613448 
L 217.001277 290.612766 
L 217.279961 290.947716 
L 217.558591 290.947036 
L 217.837166 290.11338 
L 218.115688 290.112701 
L 218.394155 290.514779 
L 218.672569 290.53851 
L 218.950928 290.745313 
L 219.507484 290.743959 
L 219.785682 291.292498 
L 220.063825 291.291824 
L 220.341914 290.214079 
L 220.619949 290.213405 
L 221.175858 290.932143 
L 221.453731 290.641608 
L 221.731551 290.930801 
L 222.009316 291.66852 
L 222.564686 291.770927 
L 222.84229 291.327839 
L 223.674779 291.286188 
L 223.952168 290.6997 
L 224.229503 291.144516 
L 224.506785 291.143859 
L 224.784012 291.780903 
L 225.061186 291.780248 
L 225.338306 290.66591 
L 225.892386 290.753091 
L 226.169345 291.274195 
L 226.44625 291.551205 
L 226.723102 291.272899 
L 226.999901 290.301972 
L 227.276645 289.837545 
L 227.553336 289.836899 
L 227.829974 290.171884 
L 228.106558 291.321539 
L 228.383089 290.835754 
L 228.659566 291.210407 
L 229.212359 291.126741 
L 229.488676 290.775213 
L 230.041148 290.773935 
L 230.317305 291.255385 
L 230.593407 290.613998 
L 230.869457 290.99171 
L 231.145453 290.991075 
L 231.421396 291.268099 
L 232.248904 291.339434 
L 232.524633 290.966559 
L 232.800309 290.965931 
L 233.075932 291.218553 
L 233.351502 291.217928 
L 233.627018 290.588757 
L 233.902482 290.337935 
L 234.728552 290.308605 
L 235.003802 290.893812 
L 235.279 290.893191 
L 235.829235 291.377091 
L 236.379258 291.375856 
L 236.65419 290.630749 
L 236.929068 290.880332 
L 237.203894 290.879718 
L 237.478667 291.162866 
L 237.753387 292.06846 
L 238.028053 292.06785 
L 238.302667 290.541645 
L 238.577228 290.541038 
L 238.851736 290.290233 
L 239.126191 291.748098 
L 239.400593 291.076231 
L 239.949238 291.075025 
L 240.223481 291.559564 
L 240.497672 291.558964 
L 240.77181 290.676571 
L 241.045894 290.675973 
L 241.319926 290.873704 
L 241.593906 290.873109 
L 241.867832 290.625367 
L 242.141706 290.624773 
L 242.689295 291.059907 
L 242.963011 290.989138 
L 243.236674 291.427919 
L 243.783841 290.493076 
L 244.604198 290.546236 
L 244.877545 290.753131 
L 245.424081 290.75196 
L 245.69727 290.254032 
L 245.970407 290.253448 
L 246.243491 289.599909 
L 246.516523 289.599325 
L 246.789502 291.539301 
L 247.062428 291.538718 
L 247.608124 290.838833 
L 247.880894 290.838254 
L 248.153611 290.990236 
L 248.698887 290.900598 
L 248.971447 290.182992 
L 249.516409 290.181841 
L 249.788812 290.468079 
L 250.061162 289.253129 
L 250.33346 289.42037 
L 250.605706 288.647842 
L 250.877899 289.419217 
L 251.15004 288.646688 
L 251.422129 289.381447 
L 251.694166 288.642478 
L 252.238083 288.723698 
L 252.509963 288.723114 
L 253.053566 288.120858 
L 253.596961 288.119681 
L 253.868581 288.366236 
L 254.140148 288.365642 
L 254.411663 288.685423 
L 254.683127 286.283536 
L 254.954538 286.282936 
L 255.225897 286.053493 
L 255.497204 285.40298 
L 256.039662 285.334639 
L 256.581912 284.213635 
L 257.394898 277.456466 
L 257.665789 275.948568 
L 257.936629 272.378062 
L 258.207417 271.758062 
L 258.478152 269.728409 
L 258.748836 269.184689 
L 259.019468 268.015474 
L 259.560577 267.446736 
L 259.831054 267.787862 
L 260.101479 270.045139 
L 260.371852 271.362648 
L 260.642174 274.541386 
L 261.182662 275.574526 
L 261.452828 278.533578 
L 261.722943 278.688581 
L 261.993006 280.268492 
L 262.263017 280.676745 
L 262.802885 280.706042 
L 263.072742 281.071578 
L 263.342547 281.07097 
L 263.6123 280.698117 
L 263.882002 280.697509 
L 264.151652 280.992867 
L 264.421251 280.99226 
L 264.690798 281.952779 
L 264.960294 280.661515 
L 265.499131 280.6603 
L 265.768472 279.863331 
L 266.037762 279.862723 
L 266.576188 279.745562 
L 266.845323 279.744955 
L 267.114408 280.800061 
L 267.383441 279.896299 
L 267.921352 279.895084 
L 268.190231 280.346053 
L 268.727835 280.262456 
L 268.99656 278.516565 
L 269.533856 278.515349 
L 269.802428 278.981575 
L 270.070948 278.980967 
L 270.339417 278.782032 
L 270.607834 278.781424 
L 270.876201 279.27511 
L 271.41278 279.273895 
L 271.680993 279.059704 
L 272.217266 281.288912 
L 272.485326 281.288305 
L 272.753334 281.013089 
L 273.021292 281.012482 
L 273.289198 281.74111 
L 273.557054 283.168462 
L 273.824858 283.167854 
L 274.092612 282.465472 
L 274.360314 282.464864 
L 274.627966 283.870857 
L 275.163116 284.50124 
L 275.430615 284.65014 
L 275.698063 285.323847 
L 276.767345 285.852312 
L 277.034538 286.431419 
L 277.301681 286.430795 
L 277.568773 285.905362 
L 277.835814 285.904731 
L 278.102804 286.86217 
L 278.369744 286.861532 
L 278.90347 286.619201 
L 279.170257 286.719242 
L 279.436994 287.868891 
L 280.236899 288.153736 
L 280.503433 287.915083 
L 281.036349 288.331771 
L 281.835343 288.409102 
L 282.101573 288.628118 
L 282.367753 288.627446 
L 282.633882 288.278937 
L 282.899961 288.278263 
L 283.431966 288.658308 
L 283.96377 288.769843 
L 284.229596 288.799674 
L 284.495372 289.369564 
L 285.026772 289.368197 
L 285.292397 289.864858 
L 285.557971 290.056398 
L 285.823495 290.394397 
L 286.088968 290.393712 
L 286.354391 289.340366 
L 286.619764 289.339682 
L 286.885087 290.379455 
L 287.150359 290.37877 
L 287.415581 289.569519 
L 287.680752 288.384971 
L 288.210945 290.400438 
L 288.475966 290.54926 
L 288.740937 290.548574 
L 289.005857 289.75763 
L 289.270727 289.756944 
L 289.800318 291.040127 
L 290.065037 290.334616 
L 290.329707 290.523107 
L 290.858896 290.616328 
L 291.123416 290.911611 
L 291.387885 290.91093 
L 291.652305 290.004045 
L 291.916674 290.003365 
L 292.180993 291.052296 
L 292.973651 291.007544 
L 293.237771 291.772718 
L 293.50184 291.976474 
L 294.029829 291.944619 
L 294.293749 291.339814 
L 294.557618 291.339147 
L 294.821438 290.966236 
L 295.085208 291.340868 
L 295.348928 291.340205 
L 295.612599 291.489051 
L 295.876219 291.833176 
L 296.13979 291.832517 
L 296.403311 292.405485 
L 296.666782 291.199608 
L 296.930203 292.404177 
L 297.193575 292.571342 
L 297.983391 292.551098 
L 298.509687 290.9693 
L 299.035784 290.968025 
L 299.298758 292.584523 
L 299.561682 291.119316 
L 299.824557 292.583258 
L 300.087382 293.131844 
L 300.350158 293.131218 
L 300.612884 291.788069 
L 300.87556 291.61658 
L 301.400765 291.874695 
L 301.663292 292.322604 
L 301.925771 292.321991 
L 302.1882 291.662321 
L 302.450579 291.661712 
L 302.712909 293.119575 
L 302.97519 293.11897 
L 303.237421 292.175549 
L 303.499602 292.17495 
L 303.761735 291.652598 
L 304.023818 292.74433 
L 304.285851 291.987041 
L 304.547835 292.743146 
L 305.071656 292.830457 
L 305.333492 292.558319 
L 305.857016 292.563264 
L 306.118704 292.825092 
L 306.380343 292.607885 
L 306.903474 292.606749 
L 307.164965 293.390342 
L 307.6878 293.389224 
L 307.949144 293.126267 
L 308.471684 293.094657 
L 308.73288 292.663894 
L 308.994027 292.663352 
L 309.255125 293.349332 
L 309.777174 293.348264 
L 310.038124 293.012103 
L 310.299026 293.420437 
L 310.820683 293.419396 
L 311.081437 292.878818 
L 311.342143 291.685288 
L 311.863407 291.684267 
L 312.123966 292.217719 
L 312.905348 292.130775 
L 313.165711 292.603211 
L 313.426025 292.602715 
L 313.686291 292.254385 
L 314.206675 292.253404 
L 314.726863 292.560603 
L 314.986884 294.058258 
L 315.246856 292.992913 
L 315.50678 293.114486 
L 315.766655 292.991966 
L 316.026481 293.113545 
L 316.286258 292.756089 
L 316.545986 293.201101 
L 316.805666 293.066389 
L 317.065297 293.065932 
L 317.32488 291.820591 
L 317.584413 291.820139 
L 317.843899 293.027962 
L 318.103335 293.314328 
L 318.362723 293.313884 
L 318.622062 292.276038 
L 318.881353 292.2756 
L 319.140595 292.711485 
L 319.399788 292.711052 
L 319.658933 293.183557 
L 319.918029 293.18313 
L 320.177077 293.411546 
L 320.436076 293.411125 
L 320.695027 292.287869 
L 320.953929 292.287454 
L 321.212783 293.107813 
L 321.471588 293.107404 
L 321.730345 292.377762 
L 322.247714 292.30983 
L 322.506325 292.309431 
L 323.28187 292.711006 
L 323.798658 292.710231 
L 324.056979 292.423035 
L 324.315252 292.422654 
L 324.573477 289.715866 
L 324.831653 293.675938 
L 325.089782 292.656464 
L 325.347862 292.656091 
L 325.605893 292.39637 
L 326.121812 292.447508 
L 326.379699 292.798033 
L 326.637538 292.797673 
L 327.153071 293.065467 
L 327.410766 293.614331 
L 327.668412 293.613984 
L 327.92601 292.79592 
L 328.18356 290.488876 
L 328.441062 290.488535 
L 328.955921 292.965428 
L 329.213279 293.459387 
L 329.470588 292.964762 
L 329.985064 292.692552 
L 330.242229 292.850891 
L 330.756416 292.740411 
L 331.013438 292.282417 
L 331.270412 292.123443 
L 331.784215 292.122825 
L 332.041045 291.884526 
L 332.297827 292.290031 
L 332.811247 292.322993 
L 333.067886 292.112163 
L 333.581019 292.059706 
L 333.837514 293.478221 
L 334.093961 292.333735 
L 334.35036 292.809437 
L 334.863015 292.808876 
L 335.119271 293.220511 
L 335.37548 293.079883 
L 336.399835 293.112384 
L 336.655805 292.828366 
L 336.911727 291.555763 
L 337.167602 291.50669 
L 337.423429 291.082322 
L 337.679208 291.082072 
L 337.934939 292.25043 
L 338.190623 292.726169 
L 338.701849 292.725683 
L 338.95739 292.267765 
L 339.723729 292.3647 
L 339.97908 293.200498 
L 340.48964 293.300737 
L 341.00001 292.690061 
L 341.255124 292.528134 
L 341.510191 292.527922 
L 341.76521 293.205078 
L 342.020181 293.204872 
L 342.275106 292.152007 
L 342.529983 292.151806 
L 342.784812 292.349936 
L 343.29433 292.349546 
L 343.549017 292.025928 
L 343.803658 292.025738 
L 344.058251 291.140704 
L 344.312796 291.140518 
L 344.567295 292.906975 
L 345.330507 293.345811 
L 345.584817 292.286874 
L 346.093294 292.368918 
L 346.347462 292.432828 
L 346.601583 292.847628 
L 347.109684 292.847311 
L 347.363663 292.39558 
L 347.617596 292.395428 
L 347.871481 292.7065 
L 348.632855 292.706068 
L 348.886552 293.047663 
L 349.393805 293.053498 
L 349.647361 292.635355 
L 349.90087 292.635228 
L 350.154332 292.985991 
L 350.661115 293.095595 
L 351.420938 293.415635 
L 351.674119 293.150076 
L 351.927253 292.634323 
L 352.180339 291.050653 
L 352.686372 291.050458 
L 352.939319 293.027537 
L 353.445071 292.963279 
L 353.697877 292.899117 
L 354.708632 293.109331 
L 354.961204 292.29459 
L 355.21373 293.359388 
L 355.466208 292.294454 
L 355.71864 292.572049 
L 355.971026 292.279073 
L 356.223364 292.571929 
L 356.727902 292.663354 
L 357.736417 292.641808 
L 357.98843 292.528873 
L 358.240395 293.099408 
L 358.492315 292.5288 
L 358.744188 292.370106 
L 359.247793 292.370048 
L 359.499527 292.583607 
L 360.002854 292.632383 
L 360.254448 293.135813 
L 360.505995 292.632352 
L 360.757496 291.222688 
L 361.008951 291.222678 
L 361.260359 292.540785 
L 361.511721 292.714697 
L 361.763036 292.714693 
L 362.014305 292.452289 
L 362.265528 292.452291 
L 362.516704 292.702492 
L 362.767834 292.702499 
L 363.018918 292.09532 
L 363.269955 292.095332 
L 363.520946 291.976349 
L 363.771891 292.202153 
L 364.02279 291.976382 
L 364.273642 291.546183 
L 364.524448 291.546204 
L 364.775208 293.019954 
L 365.52721 292.96512 
L 365.777785 293.715748 
L 366.278797 293.715829 
L 366.779624 292.291016 
L 367.029969 292.028665 
L 367.280267 292.028718 
L 367.530519 292.703087 
L 367.780725 292.797732 
L 368.030886 292.703206 
L 368.531068 291.479806 
L 368.78109 291.90704 
L 369.031066 291.592836 
L 369.780718 291.681536 
L 370.03051 292.203366 
L 370.280256 292.203444 
L 370.779611 291.477421 
L 371.029219 291.865006 
L 371.278782 292.933009 
L 371.528298 292.933097 
L 371.777769 292.268027 
L 372.276573 291.834946 
L 372.525906 291.645869 
L 372.775194 291.645968 
L 373.024435 292.573632 
L 373.522781 292.57384 
L 373.771886 291.53044 
L 374.020944 293.040891 
L 374.518924 292.952635 
L 374.767845 291.665149 
L 375.016721 291.66527 
L 375.265551 292.235965 
L 375.514335 292.23609 
L 375.763074 292.568796 
L 376.011767 292.330932 
L 376.509016 292.331198 
L 376.757572 292.578481 
L 377.006083 292.578619 
L 377.254547 292.893034 
L 377.502967 292.20971 
L 377.75134 292.209857 
L 377.999669 291.935398 
L 378.247951 291.935549 
L 378.74438 292.112825 
L 379.240627 292.165011 
L 379.488682 292.406217 
L 379.736692 293.156974 
L 379.984656 292.458417 
L 380.232575 292.458586 
L 380.480448 292.333659 
L 380.728276 292.333833 
L 380.976058 292.111272 
L 381.223796 292.11145 
L 381.471487 291.34273 
L 381.719134 291.342912 
L 381.966735 292.475088 
L 382.214291 292.475274 
L 382.956686 292.033422 
L 383.20406 292.299071 
L 383.698673 292.357441 
L 383.945912 291.991499 
L 384.193105 291.991703 
L 384.440254 292.30008 
L 384.687357 292.300288 
L 384.934414 291.99538 
L 385.181427 291.980336 
L 385.428394 291.593049 
L 385.675317 291.593265 
L 385.922194 291.382951 
L 386.909251 291.301453 
L 387.155902 292.14991 
L 387.402509 292.589509 
L 388.142058 291.143937 
L 389.127493 291.135727 
L 389.373739 291.535672 
L 389.61994 291.535913 
L 389.866097 290.928967 
L 390.358274 290.813508 
L 390.604296 290.722217 
L 390.850273 290.890278 
L 391.096204 291.287179 
L 391.342091 291.287427 
L 391.587933 289.630876 
L 392.079482 289.631373 
L 392.32519 289.302091 
L 392.570852 288.77143 
L 392.81647 288.722857 
L 393.062043 288.036583 
L 393.798494 288.131892 
L 394.043888 287.732422 
L 394.289237 287.732657 
L 394.534541 288.434664 
L 395.025016 288.493097 
L 395.515312 288.249455 
L 396.00543 288.249902 
L 396.250421 287.630731 
L 396.495369 287.469236 
L 396.740271 284.915601 
L 396.985129 284.915812 
L 397.229942 282.740516 
L 397.474711 284.232757 
L 397.964115 280.925673 
L 398.20875 278.802247 
L 398.453341 277.938964 
L 398.942388 266.192275 
L 399.186845 256.956513 
L 399.675626 228.324509 
L 400.164229 183.594399 
L 400.652654 142.51657 
L 400.8968 131.489756 
L 401.140901 130.82175 
L 401.384959 130.821956 
L 401.628971 136.119037 
L 401.87294 144.537491 
L 402.604579 189.891074 
L 403.33582 237.478132 
L 403.579478 249.753296 
L 403.823092 255.306677 
L 404.310187 270.032157 
L 404.553669 273.349012 
L 404.797106 274.697846 
L 405.040499 278.307616 
L 405.283847 278.716682 
L 405.527152 279.449175 
L 406.013629 277.801941 
L 406.256801 277.802147 
L 406.499929 277.637589 
L 406.743012 275.074791 
L 407.229048 274.187305 
L 407.471999 271.975394 
L 407.95777 272.064291 
L 408.200589 273.037828 
L 408.443365 273.038034 
L 408.686096 275.421223 
L 409.171427 276.663471 
L 409.414026 279.678258 
L 410.383984 283.993472 
L 410.626363 284.588661 
L 411.110991 287.087986 
L 411.595443 287.655893 
L 411.837603 288.556184 
L 412.079719 288.364146 
L 412.321791 288.556556 
L 412.56382 288.364515 
L 412.805805 289.093933 
L 413.047746 289.094114 
L 413.289643 289.835735 
L 414.015072 289.74474 
L 414.498472 289.714588 
L 414.740107 289.39134 
L 415.464749 289.361362 
L 415.947625 290.286228 
L 416.430326 290.375067 
L 416.671612 289.142562 
L 416.912853 289.142739 
L 417.395206 290.500873 
L 417.636317 290.501049 
L 417.877384 290.12898 
L 418.359388 290.004235 
L 418.600325 289.528426 
L 419.082068 289.528779 
L 419.322874 289.983583 
L 420.285664 289.962927 
L 420.526253 290.188891 
L 420.766798 290.73218 
L 421.0073 290.540131 
L 421.247759 290.540308 
L 421.488174 290.183496 
L 421.728546 290.183674 
L 421.968874 291.007675 
L 422.209159 291.007854 
L 422.449401 290.776143 
L 422.6896 290.776324 
L 422.929755 289.812328 
L 423.169867 290.270189 
L 423.409935 289.812691 
L 423.64996 290.270552 
L 423.889942 289.983922 
L 424.129881 289.984104 
L 424.369776 289.755446 
L 424.849437 289.737502 
L 425.089203 290.524892 
L 425.328926 290.525073 
L 425.568605 290.802914 
L 426.047834 289.646878 
L 426.526891 289.696062 
L 426.766354 289.882368 
L 427.005775 289.88255 
L 427.723777 290.221779 
L 428.441392 290.274198 
L 428.680511 290.506272 
L 428.919587 290.997698 
L 429.397609 290.998069 
L 429.636556 289.039389 
L 429.87546 288.624612 
L 430.114321 288.624797 
L 430.591914 290.776256 
L 431.546584 290.715973 
L 431.785145 290.548344 
L 432.262137 289.868303 
L 432.500569 289.868491 
L 433.215607 290.161969 
L 433.453867 290.168259 
L 433.692085 290.772584 
L 433.93026 290.598855 
L 434.168392 290.678375 
L 434.406481 290.599235 
L 434.644528 290.678757 
L 434.882532 290.123631 
L 435.120493 290.73101 
L 435.358411 290.124015 
L 435.596287 290.658166 
L 436.309658 289.084329 
L 436.547363 289.084521 
L 436.785025 289.865819 
L 437.260222 289.866201 
L 437.497756 290.055565 
L 437.735248 290.055756 
L 437.972698 289.256534 
L 438.210104 289.256724 
L 438.447468 289.479651 
L 438.922069 290.389285 
L 439.396499 290.389664 
L 439.87076 290.893492 
L 440.107826 290.893684 
L 440.34485 290.710805 
L 440.581832 290.317394 
L 440.818771 290.317588 
L 441.055667 290.830382 
L 441.529333 290.931462 
L 441.766102 290.495338 
L 442.239514 290.495733 
L 442.476156 290.041303 
L 442.949313 290.041699 
L 443.422301 290.603516 
L 443.658732 290.603715 
L 443.89512 290.741219 
L 444.131466 290.649884 
L 444.367769 290.781286 
L 445.076426 290.296754 
L 445.312561 288.801872 
L 445.548653 288.802075 
L 446.256677 290.904951 
L 446.728482 290.853486 
L 446.964321 290.057328 
L 447.200118 290.057532 
L 447.435873 289.746514 
L 447.671586 289.975557 
L 448.142885 289.975964 
L 448.378472 289.628332 
L 448.849518 289.628738 
L 449.084979 290.864675 
L 449.320397 289.928161 
L 449.555773 289.986337 
L 449.791107 289.928568 
L 450.026399 289.986744 
L 450.26165 290.673466 
L 450.496858 290.67367 
L 450.732024 289.917178 
L 450.967148 289.917383 
L 451.20223 290.170837 
L 451.437271 290.171042 
L 451.672269 290.323806 
L 451.907225 290.720667 
L 452.377013 290.705824 
L 452.611843 290.342939 
L 452.846632 290.68488 
L 453.081379 290.07485 
L 453.316084 290.685297 
L 453.550748 290.450565 
L 453.785369 290.450774 
L 454.019949 290.243503 
L 454.957849 290.207732 
L 455.19222 290.406271 
L 455.426549 290.406483 
L 455.660836 289.909351 
L 455.895082 289.909563 
L 456.129286 290.849543 
L 456.363448 290.849756 
L 456.597568 290.21227 
L 456.831647 290.212484 
L 457.065684 289.727558 
L 457.299679 289.535547 
L 457.767545 289.535974 
L 458.001415 289.679592 
L 458.235244 290.329709 
L 458.469031 290.329922 
L 458.702776 291.013603 
L 458.93648 289.479065 
L 459.170143 290.586863 
L 459.403763 289.763254 
L 459.637343 290.587291 
L 459.87088 290.871267 
L 460.104377 290.871482 
L 460.337831 289.434585 
L 460.571244 289.434801 
L 460.804616 289.090231 
L 461.037946 290.237695 
L 461.271235 289.398831 
L 461.504482 289.844519 
L 462.437057 289.903346 
L 462.670097 290.391751 
L 463.136053 290.392179 
L 463.601843 290.612294 
L 463.834676 290.61251 
L 464.300218 290.435974 
L 465.463351 290.507242 
L 465.695854 290.705789 
L 465.928315 290.471067 
L 466.857749 290.258369 
L 467.554391 290.048503 
L 467.786523 290.777961 
L 468.018614 290.778184 
L 468.250663 290.573978 
L 468.482671 289.921246 
L 468.714639 289.921471 
L 468.946565 289.72947 
L 469.410294 289.729918 
L 469.642096 290.111541 
L 469.873858 289.342864 
L 470.105579 290.572718 
L 470.337259 290.100007 
L 470.568897 290.100231 
L 470.800495 289.725158 
L 471.726475 289.634515 
L 471.957868 289.921549 
L 472.189219 290.443526 
L 472.6518 290.443972 
L 472.883029 289.699704 
L 473.114216 290.288808 
L 473.345363 290.289032 
L 473.57647 290.661502 
L 473.807535 290.661727 
L 474.269543 289.734614 
L 474.731387 289.716758 
L 474.962248 289.042668 
L 475.193068 289.680592 
L 475.423847 289.177369 
L 475.885284 289.177813 
L 476.115941 289.059038 
L 476.346557 288.34833 
L 477.038161 288.181165 
L 477.268614 286.918183 
L 477.499026 286.573609 
L 477.729398 285.89645 
L 477.959729 285.765452 
L 478.19002 283.370462 
L 478.42027 283.370661 
L 478.650479 283.251863 
L 478.880647 282.830997 
L 479.110775 281.568001 
L 479.340862 282.831394 
L 479.570909 281.894876 
L 479.800915 282.966044 
L 480.260805 282.966442 
L 480.490689 281.81634 
L 480.720533 281.816538 
L 480.950336 284.50484 
L 481.639502 285.875392 
L 481.869143 285.884726 
L 482.098744 286.260199 
L 482.328304 286.406828 
L 482.557823 286.26054 
L 482.787302 287.160807 
L 483.016741 287.160969 
L 483.246139 288.399914 
L 483.475497 288.567887 
L 483.704814 288.400228 
L 483.934091 289.297434 
L 484.163328 288.305949 
L 484.392524 288.696654 
L 484.621679 288.437454 
L 484.850795 288.696955 
L 485.07987 289.371417 
L 485.537899 289.371712 
L 485.766853 288.197148 
L 485.995767 289.332337 
L 486.22464 287.910624 
L 486.453473 287.910766 
L 486.682266 287.639349 
L 486.911018 287.639486 
L 487.139731 288.921123 
L 487.368403 288.921257 
L 487.597034 289.427889 
L 488.054177 289.449511 
L 488.282688 288.555642 
L 488.73959 288.497928 
L 489.424641 289.081083 
L 489.652911 289.105616 
L 490.56559 288.267021 
L 490.79366 288.52649 
L 491.021689 289.027001 
L 491.249679 288.621307 
L 491.477628 289.054689 
L 491.705537 288.621532 
L 491.933406 288.700974 
L 492.161235 287.913875 
L 492.389025 288.133668 
L 492.844483 288.133877 
L 493.072152 287.847167 
L 493.52737 287.847364 
L 493.982429 286.99932 
L 494.437328 286.920165 
L 494.664717 286.340522 
L 495.346646 286.432287 
L 495.573876 285.019652 
L 495.801066 284.903771 
L 496.028217 284.525482 
L 496.482398 284.525584 
L 496.936419 283.222803 
L 497.163371 283.22284 
L 497.390282 283.036753 
L 497.617154 282.39909 
L 497.843985 282.188594 
L 498.070778 281.151224 
L 498.29753 281.935418 
L 498.524242 281.935454 
L 498.750915 282.631163 
L 499.204142 282.631236 
L 499.65721 282.19804 
L 499.883684 282.05467 
L 500.110119 281.560413 
L 500.789185 281.218789 
L 501.015461 279.909863 
L 501.467895 279.754325 
L 501.694052 278.509474 
L 502.372287 277.874934 
L 502.598286 277.874971 
L 502.824246 277.701089 
L 503.050166 277.301419 
L 503.276046 277.701162 
L 503.727689 275.806443 
L 503.953451 275.80648 
L 504.179173 276.737131 
L 504.404857 276.737167 
L 504.856104 275.895111 
L 505.307195 276.978358 
L 505.983534 276.868624 
L 506.208902 277.128013 
L 506.659519 277.128086 
L 507.109979 274.751278 
L 507.33515 274.751314 
L 507.560282 274.92832 
L 507.785374 274.928357 
L 508.235441 274.01002 
L 508.460416 274.010056 
L 508.685351 271.27012 
L 508.910247 271.270156 
L 509.135103 270.611134 
L 509.359921 268.884194 
L 509.584699 265.695732 
L 510.034138 263.553866 
L 510.48342 256.975562 
L 510.932545 240.746328 
L 511.381514 214.738013 
L 511.830326 169.33325 
L 512.727481 53.888375 
L 513.175824 30.540702 
L 513.399937 30.540739 
L 513.624011 31.67582 
L 513.848046 35.581386 
L 514.295999 72.75417 
L 515.862605 210.387739 
L 516.533423 237.873015 
L 516.980441 252.482211 
L 517.650676 263.021149 
L 517.87401 265.379759 
L 518.320561 265.379832 
L 518.543779 266.487453 
L 518.990097 266.505833 
L 519.213198 266.383822 
L 519.659284 264.821683 
L 520.105215 264.760732 
L 520.996612 257.676003 
L 521.219364 257.511275 
L 521.442078 254.98187 
L 521.887389 253.355656 
L 522.109987 252.724095 
L 522.777548 249.294662 
L 523.222396 249.294735 
L 523.444762 249.47174 
L 523.66709 249.499238 
L 524.778148 253.462923 
L 525.222302 256.941359 
L 525.444321 257.359409 
L 525.666301 259.833965 
L 525.888243 260.532725 
L 526.332012 263.532123 
L 526.553839 263.614542 
L 526.775627 265.89077 
L 526.997377 266.397305 
L 527.440761 268.755952 
L 527.883991 269.601206 
L 528.105549 270.586778 
L 528.327068 273.02472 
L 528.548549 273.482436 
L 528.769992 273.531291 
L 529.212762 273.784614 
L 529.43409 274.263688 
L 529.655379 274.361362 
L 529.87663 275.050969 
L 530.319017 275.051042 
L 530.540153 276.741441 
L 530.761251 276.741477 
L 530.982311 277.739255 
L 531.64526 277.721057 
L 532.087035 278.166605 
L 532.307865 277.956109 
L 532.528657 278.166678 
L 532.749411 279.179711 
L 532.970127 279.179748 
L 533.190804 278.856357 
L 533.632045 278.85643 
L 533.852608 279.68029 
L 534.073133 279.549125 
L 534.29362 279.893946 
L 534.514069 279.549198 
L 534.734479 280.061835 
L 535.175186 280.077164 
L 535.395483 280.922382 
L 535.615741 281.206179 
L 535.835962 281.035349 
L 536.056144 281.206253 
L 536.276288 281.728043 
L 536.936493 281.633566 
L 537.156486 282.39335 
L 537.37644 281.633639 
L 537.596356 281.960153 
L 537.816235 281.96019 
L 538.036075 282.695565 
L 538.255878 282.76883 
L 538.475643 282.695638 
L 538.695369 282.17392 
L 538.915058 282.000038 
L 539.134709 281.667494 
L 539.573897 281.667567 
L 539.793435 283.037591 
L 540.012934 283.437334 
L 540.232396 283.553309 
L 540.671205 283.385534 
L 541.329136 283.406904 
L 541.767568 284.700586 
L 542.205849 284.795126 
L 542.424933 285.365668 
L 542.643979 285.365633 
L 542.862987 284.831633 
L 543.30089 284.718643 
L 543.519785 284.797918 
L 543.738643 285.386737 
L 543.957462 285.572794 
L 544.176244 285.572724 
L 544.394989 286.277475 
L 544.832365 286.277315 
L 545.050996 285.798191 
L 545.26959 285.798101 
L 545.488146 285.108437 
L 545.925146 285.108234 
L 546.14359 285.867873 
L 546.361995 286.075241 
L 546.580364 286.511445 
L 547.016988 286.511201 
L 547.235244 286.846705 
L 547.453462 286.370588 
L 547.671642 284.936392 
L 547.889786 284.936253 
L 548.107891 285.634833 
L 548.32596 285.723169 
L 548.54399 287.044184 
L 548.761984 287.587141 
L 548.979939 287.586983 
L 549.197858 287.321368 
L 549.415739 286.84827 
L 549.633582 286.848104 
L 549.851388 286.140057 
L 550.504582 286.215805 
L 550.722238 286.703812 
L 550.939858 286.715829 
L 551.374984 287.173122 
L 551.592491 287.172925 
L 551.809961 288.00265 
L 552.027393 288.002449 
L 552.244788 288.295159 
L 552.462146 288.069165 
L 552.679467 288.294746 
L 552.89675 289.005466 
L 553.331204 289.005044 
L 553.548376 288.592921 
L 553.76551 287.817704 
L 554.633675 287.905313 
L 555.067534 288.447976 
L 555.501244 289.018093 
L 555.718043 288.917174 
L 555.934806 289.905531 
L 556.151531 289.401853 
L 557.01806 289.342951 
L 557.2346 289.242028 
L 557.451102 288.39051 
L 557.667568 288.173639 
L 557.883996 288.173401 
L 558.100387 288.841373 
L 558.316742 290.037201 
L 558.749339 290.036719 
L 558.965582 289.1974 
L 559.181789 290.774626 
L 559.397958 290.063457 
L 559.830185 289.97144 
L 560.046243 289.739308 
L 560.478249 288.429863 
L 560.910107 289.49119 
L 561.341817 289.496802 
L 561.557617 289.94203 
L 562.420447 289.947148 
L 562.636063 289.089516 
L 563.067183 289.08902 
L 563.282688 290.107871 
L 563.498156 289.814707 
L 563.713587 290.107373 
L 564.144339 289.591223 
L 564.574944 289.358832 
L 564.790192 288.495093 
L 565.005402 288.494841 
L 565.220576 290.377175 
L 565.865877 290.400826 
L 566.510848 290.699088 
L 566.725765 290.247261 
L 567.155489 290.246762 
L 567.370296 290.429584 
L 567.585066 290.2127 
L 568.014497 290.755316 
L 568.229158 290.755069 
L 568.443781 290.056098 
L 568.872919 289.967121 
L 569.087434 290.763236 
L 569.301911 290.76299 
L 569.516352 290.524752 
L 569.730757 290.524507 
L 569.945125 291.082632 
L 570.159456 291.082389 
L 570.373751 290.484113 
L 570.802231 290.483631 
L 571.016416 290.114196 
L 571.230565 290.113956 
L 571.444678 289.414992 
L 571.658754 290.192806 
L 571.872793 290.265794 
L 572.086796 290.802565 
L 572.300763 290.356851 
L 572.514693 290.802086 
L 572.728587 290.39909 
L 572.942445 291.634587 
L 573.156266 290.398617 
L 573.583799 290.276098 
L 573.79751 290.809822 
L 574.438428 290.735893 
L 574.651995 290.58005 
L 575.292476 290.594613 
L 575.719282 291.698688 
L 575.932631 291.249936 
L 576.145944 291.249711 
L 576.35922 291.008442 
L 576.998831 291.04439 
L 577.211962 290.617003 
L 577.425057 290.827316 
L 577.851139 290.854341 
L 578.277076 291.436686 
L 578.702868 290.883993 
L 579.341285 290.843693 
L 579.554019 291.026555 
L 579.766716 290.126244 
L 580.192002 291.782627 
L 580.404591 291.782422 
L 580.829661 290.909373 
L 581.042142 291.183779 
L 581.254587 290.908971 
L 581.466996 291.189481 
L 581.679369 290.743808 
L 581.891706 291.079242 
L 582.104006 290.850206 
L 582.316271 291.030031 
L 582.740693 290.935056 
L 583.16497 290.895006 
L 583.377055 291.083989 
L 583.589104 290.894625 
L 583.801117 291.08361 
L 584.013094 290.622692 
L 584.225036 291.067979 
L 584.64881 291.067608 
L 584.860644 291.265752 
L 585.072441 290.765173 
L 585.707619 290.847012 
L 585.919273 291.200771 
L 586.130892 291.200593 
L 586.554021 290.348956 
L 586.765532 289.506651 
L 587.188446 289.506297 
L 587.39985 290.744905 
L 587.611218 290.744729 
L 587.82255 290.259413 
L 588.033846 290.259237 
L 588.245106 291.061526 
L 588.66752 290.963541 
L 588.878673 290.545355 
L 589.089791 290.963197 
L 589.300873 290.56332 
L 589.511919 291.194747 
L 589.72293 290.562981 
L 589.933905 291.588014 
L 590.144844 290.474161 
L 590.355748 291.972132 
L 590.566615 290.571469 
L 590.777448 291.511074 
L 590.988244 291.398017 
L 591.409731 291.55636 
L 592.041694 291.485714 
L 592.252277 290.783786 
L 592.462824 291.518972 
L 592.673336 290.783483 
L 593.094254 290.697751 
L 593.725363 291.74692 
L 593.935662 291.746776 
L 594.145926 290.873992 
L 594.986624 290.803253 
L 595.19671 291.157054 
L 595.406761 291.156917 
L 595.616776 291.928733 
L 595.826756 291.937753 
L 596.0367 292.306816 
L 596.246609 292.306686 
L 596.456483 291.141002 
L 597.085891 291.244368 
L 597.295623 291.027611 
L 597.714981 291.027368 
L 597.924607 291.372034 
L 598.134198 292.091998 
L 598.553274 292.088717 
L 598.762759 291.328858 
L 599.809654 291.279499 
L 600.018927 291.666897 
L 600.646535 291.770336 
L 600.855668 291.407147 
L 601.064765 291.407052 
L 601.273827 291.736487 
L 601.482854 291.736394 
L 601.691845 290.601259 
L 601.900802 290.601169 
L 602.109723 290.829919 
L 602.527461 290.829743 
L 602.736277 290.259083 
L 602.945057 291.525242 
L 603.153803 291.448877 
L 603.362514 291.915626 
L 603.571189 291.915545 
L 603.77983 292.629445 
L 603.988435 292.629367 
L 604.197005 291.662064 
L 604.405541 291.481971 
L 604.614041 291.66192 
L 604.822506 291.256041 
L 605.030936 291.979106 
L 605.447691 290.493042 
L 605.656017 289.897994 
L 605.864307 289.89793 
L 606.280782 291.798695 
L 606.488967 290.962605 
L 606.905233 292.704717 
L 607.113313 292.70466 
L 607.321359 291.892988 
L 607.529369 291.859373 
L 607.737345 291.499282 
L 608.361062 291.52355 
L 608.776699 292.097088 
L 608.984466 292.097048 
L 609.192197 291.526436 
L 609.399894 291.526399 
L 609.815182 292.167082 
L 610.022775 292.167051 
L 610.230332 292.304326 
L 610.437854 291.852723 
L 610.852795 291.629939 
L 611.060213 291.480409 
L 611.267597 291.120348 
L 611.889538 292.050912 
L 612.096783 291.007391 
L 612.303993 291.007379 
L 612.718308 291.260608 
L 612.925414 291.944067 
L 613.132485 292.1729 
L 613.339521 291.97762 
L 613.546522 292.249174 
L 613.546522 292.249174 
" clip-path="url(#p307719428e)" style="fill: none; stroke: #5088c5; stroke-linecap: round"/>
   </g>
   <g id="patch_3">
    <path d="M 81.762344 304.59896 
L 81.762344 20 
" style="fill: none; stroke: #000000; stroke-width: 0.75; stroke-linejoin: miter; stroke-linecap: square"/>
   </g>
   <g id="patch_4">
    <path d="M 81.762344 304.59896 
L 633.99976 304.59896 
" style="fill: none; stroke: #000000; stroke-width: 0.75; stroke-linejoin: miter; stroke-linecap: square"/>
   </g>
  </g>
 </g>
 <defs>
  <clipPath id="p307719428e">
   <rect x="81.762344" y="20" width="552.237416" height="284.59896"/>
  </clipPath>
 </defs>
</svg>
