<?xml version="1.0" encoding="utf-8" standalone="no"?>
<!DOCTYPE svg PUBLIC "-//W3C//DTD SVG 1.1//EN"
  "http://www.w3.org/Graphics/SVG/1.1/DTD/svg11.dtd">
<svg xmlns:xlink="http://www.w3.org/1999/xlink" width="463.928659pt" height="463.99896pt" viewBox="0 0 463.928659 463.99896" xmlns="http://www.w3.org/2000/svg" version="1.1">
 <metadata>
  <rdf:RDF xmlns:dc="http://purl.org/dc/elements/1.1/" xmlns:cc="http://creativecommons.org/ns#" xmlns:rdf="http://www.w3.org/1999/02/22-rdf-syntax-ns#">
   <cc:Work>
    <dc:type rdf:resource="http://purl.org/dc/dcmitype/StillImage"/>
    <dc:date>2025-02-06T14:55:31.388612</dc:date>
    <dc:format>image/svg+xml</dc:format>
    <dc:creator>
     <cc:Agent>
      <dc:title>Matplotlib v3.8.4, https://matplotlib.org/</dc:title>
     </cc:Agent>
    </dc:creator>
   </cc:Work>
  </rdf:RDF>
 </metadata>
 <defs>
  <style type="text/css">*{stroke-linejoin: round; stroke-linecap: butt}</style>
 </defs>
 <g id="figure_1">
  <g id="patch_1">
   <path d="M 0 463.99896 
L 463.928659 463.99896 
L 463.928659 0 
L 0 0 
L 0 463.99896 
z
" style="fill: none"/>
  </g>
  <g id="axes_1">
   <g id="patch_2">
    <path d="M 81.762344 397.284897 
L 443.592319 397.284897 
L 443.592319 20 
L 81.762344 20 
L 81.762344 397.284897 
z
" style="fill: none"/>
   </g>
   <g id="matplotlib.axis_1">
    <g id="xtick_1">
     <g id="line2d_1">
      <defs>
       <path id="m6fb8262f82" d="M 0 0 
L 0 5 
" style="stroke: #000000; stroke-width: 0.75"/>
      </defs>
      <g>
       <use xlink:href="#m6fb8262f82" x="106.748461" y="397.284897" style="stroke: #000000; stroke-width: 0.75"/>
      </g>
     </g>
     <g id="text_1">
      <text style="font: 14.5px &quot;Suisse Int&apos;l Mono&quot;; text-anchor: middle" x="106.748461" y="417.797397" transform="rotate(-0 106.748461 417.797397)">500</text>
     </g>
    </g>
    <g id="xtick_2">
     <g id="line2d_2">
      <g>
       <use xlink:href="#m6fb8262f82" x="159.823129" y="397.284897" style="stroke: #000000; stroke-width: 0.75"/>
      </g>
     </g>
     <g id="text_2">
      <text style="font: 14.5px &quot;Suisse Int&apos;l Mono&quot;; text-anchor: middle" x="159.823129" y="417.797397" transform="rotate(-0 159.823129 417.797397)">1000</text>
     </g>
    </g>
    <g id="xtick_3">
     <g id="line2d_3">
      <g>
       <use xlink:href="#m6fb8262f82" x="212.897798" y="397.284897" style="stroke: #000000; stroke-width: 0.75"/>
      </g>
     </g>
     <g id="text_3">
      <text style="font: 14.5px &quot;Suisse Int&apos;l Mono&quot;; text-anchor: middle" x="212.897798" y="417.797397" transform="rotate(-0 212.897798 417.797397)">1500</text>
     </g>
    </g>
    <g id="xtick_4">
     <g id="line2d_4">
      <g>
       <use xlink:href="#m6fb8262f82" x="265.972466" y="397.284897" style="stroke: #000000; stroke-width: 0.75"/>
      </g>
     </g>
     <g id="text_4">
      <text style="font: 14.5px &quot;Suisse Int&apos;l Mono&quot;; text-anchor: middle" x="265.972466" y="417.797397" transform="rotate(-0 265.972466 417.797397)">2000</text>
     </g>
    </g>
    <g id="xtick_5">
     <g id="line2d_5">
      <g>
       <use xlink:href="#m6fb8262f82" x="319.047134" y="397.284897" style="stroke: #000000; stroke-width: 0.75"/>
      </g>
     </g>
     <g id="text_5">
      <text style="font: 14.5px &quot;Suisse Int&apos;l Mono&quot;; text-anchor: middle" x="319.047134" y="417.797397" transform="rotate(-0 319.047134 417.797397)">2500</text>
     </g>
    </g>
    <g id="xtick_6">
     <g id="line2d_6">
      <g>
       <use xlink:href="#m6fb8262f82" x="372.121803" y="397.284897" style="stroke: #000000; stroke-width: 0.75"/>
      </g>
     </g>
     <g id="text_6">
      <text style="font: 14.5px &quot;Suisse Int&apos;l Mono&quot;; text-anchor: middle" x="372.121803" y="417.797397" transform="rotate(-0 372.121803 417.797397)">3000</text>
     </g>
    </g>
    <g id="xtick_7">
     <g id="line2d_7">
      <g>
       <use xlink:href="#m6fb8262f82" x="425.196471" y="397.284897" style="stroke: #000000; stroke-width: 0.75"/>
      </g>
     </g>
     <g id="text_7">
      <text style="font: 14.5px &quot;Suisse Int&apos;l Mono&quot;; text-anchor: middle" x="425.196471" y="417.797397" transform="rotate(-0 425.196471 417.797397)">3500</text>
     </g>
    </g>
    <g id="text_8">
     <text style="font: 500 15px &quot;Suisse Int&apos;l&quot;, sans-serif; text-anchor: middle" x="262.677332" y="441.209898" transform="rotate(-0 262.677332 441.209898)">Raman shift (cm-1)</text>
    </g>
   </g>
   <g id="matplotlib.axis_2">
    <g id="ytick_1">
     <g id="line2d_8">
      <defs>
       <path id="md65d2727e7" d="M 0 0 
L -5 0 
" style="stroke: #000000; stroke-width: 0.75"/>
      </defs>
      <g>
       <use xlink:href="#md65d2727e7" x="81.762344" y="379.018232" style="stroke: #000000; stroke-width: 0.75"/>
      </g>
     </g>
     <g id="text_9">
      <text style="font: 14.5px &quot;Suisse Int&apos;l Mono&quot;; text-anchor: end" x="71.762344" y="384.274482" transform="rotate(-0 71.762344 384.274482)">0.0</text>
     </g>
    </g>
    <g id="ytick_2">
     <g id="line2d_9">
      <g>
       <use xlink:href="#md65d2727e7" x="81.762344" y="328.920669" style="stroke: #000000; stroke-width: 0.75"/>
      </g>
     </g>
     <g id="text_10">
      <text style="font: 14.5px &quot;Suisse Int&apos;l Mono&quot;; text-anchor: end" x="71.762344" y="334.176919" transform="rotate(-0 71.762344 334.176919)">0.1</text>
     </g>
    </g>
    <g id="ytick_3">
     <g id="line2d_10">
      <g>
       <use xlink:href="#md65d2727e7" x="81.762344" y="278.823107" style="stroke: #000000; stroke-width: 0.75"/>
      </g>
     </g>
     <g id="text_11">
      <text style="font: 14.5px &quot;Suisse Int&apos;l Mono&quot;; text-anchor: end" x="71.762344" y="284.079357" transform="rotate(-0 71.762344 284.079357)">0.2</text>
     </g>
    </g>
    <g id="ytick_4">
     <g id="line2d_11">
      <g>
       <use xlink:href="#md65d2727e7" x="81.762344" y="228.725545" style="stroke: #000000; stroke-width: 0.75"/>
      </g>
     </g>
     <g id="text_12">
      <text style="font: 14.5px &quot;Suisse Int&apos;l Mono&quot;; text-anchor: end" x="71.762344" y="233.981795" transform="rotate(-0 71.762344 233.981795)">0.3</text>
     </g>
    </g>
    <g id="ytick_5">
     <g id="line2d_12">
      <g>
       <use xlink:href="#md65d2727e7" x="81.762344" y="178.627982" style="stroke: #000000; stroke-width: 0.75"/>
      </g>
     </g>
     <g id="text_13">
      <text style="font: 14.5px &quot;Suisse Int&apos;l Mono&quot;; text-anchor: end" x="71.762344" y="183.884232" transform="rotate(-0 71.762344 183.884232)">0.4</text>
     </g>
    </g>
    <g id="ytick_6">
     <g id="line2d_13">
      <g>
       <use xlink:href="#md65d2727e7" x="81.762344" y="128.53042" style="stroke: #000000; stroke-width: 0.75"/>
      </g>
     </g>
     <g id="text_14">
      <text style="font: 14.5px &quot;Suisse Int&apos;l Mono&quot;; text-anchor: end" x="71.762344" y="133.78667" transform="rotate(-0 71.762344 133.78667)">0.5</text>
     </g>
    </g>
    <g id="ytick_7">
     <g id="line2d_14">
      <g>
       <use xlink:href="#md65d2727e7" x="81.762344" y="78.432858" style="stroke: #000000; stroke-width: 0.75"/>
      </g>
     </g>
     <g id="text_15">
      <text style="font: 14.5px &quot;Suisse Int&apos;l Mono&quot;; text-anchor: end" x="71.762344" y="83.689108" transform="rotate(-0 71.762344 83.689108)">0.6</text>
     </g>
    </g>
    <g id="ytick_8">
     <g id="line2d_15">
      <g>
       <use xlink:href="#md65d2727e7" x="81.762344" y="28.335295" style="stroke: #000000; stroke-width: 0.75"/>
      </g>
     </g>
     <g id="text_16">
      <text style="font: 14.5px &quot;Suisse Int&apos;l Mono&quot;; text-anchor: end" x="71.762344" y="33.591545" transform="rotate(-0 71.762344 33.591545)">0.7</text>
     </g>
    </g>
    <g id="text_17">
     <text style="font: 500 15px &quot;Suisse Int&apos;l&quot;, sans-serif; text-anchor: middle" x="30.875" y="208.642449" transform="rotate(-90 30.875 208.642449)">Intensity (au)</text>
    </g>
   </g>
   <g id="line2d_16">
    <path d="M 95.163454 377.714278 
L 95.36104 377.714277 
L 95.558586 378.976733 
L 95.756092 379.232227 
L 96.150983 379.167096 
L 96.743021 378.285372 
L 96.940287 378.285368 
L 97.3347 378.831423 
L 97.728952 378.831413 
L 97.926019 378.38554 
L 98.320032 378.385527 
L 98.516979 378.771271 
L 98.910754 378.821354 
L 99.107581 379.202088 
L 99.501117 379.172014 
L 99.697825 378.615924 
L 99.894494 378.615916 
L 100.091122 378.18006 
L 100.287711 378.180051 
L 100.484261 378.670997 
L 100.68077 378.670987 
L 100.87724 377.919513 
L 101.466411 377.929495 
L 101.858994 378.255098 
L 102.055226 378.08475 
L 102.251418 378.460464 
L 102.643684 378.41033 
L 102.839758 377.723974 
L 103.035792 377.723954 
L 103.427741 379.026446 
L 103.623656 379.026424 
L 103.819532 378.570514 
L 104.406923 378.46524 
L 104.60264 377.793908 
L 104.798319 377.793883 
L 105.77612 379.186456 
L 105.971562 379.186428 
L 106.166964 378.404877 
L 106.362327 378.404849 
L 106.948181 379.051018 
L 107.143387 379.050989 
L 107.338553 379.191232 
L 107.533681 379.191203 
L 107.728769 378.800413 
L 107.923817 378.775334 
L 108.118827 378.489749 
L 108.313797 378.489718 
L 108.70362 378.950554 
L 108.898473 378.669976 
L 109.093286 378.644896 
L 109.28806 378.198996 
L 109.677491 378.113764 
L 109.872148 378.439363 
L 110.066766 379.155723 
L 110.261344 378.810015 
L 110.455883 379.01037 
L 110.844845 378.910104 
L 111.039267 377.256849 
L 111.23365 377.256812 
L 111.427994 377.462173 
L 111.622299 378.839816 
L 111.816565 379.190458 
L 112.010792 378.839734 
L 112.20498 379.100201 
L 112.593238 379.10012 
L 112.981341 378.303487 
L 113.175334 378.303446 
L 113.369288 378.669116 
L 113.563203 378.669073 
L 113.75708 378.027782 
L 114.338475 378.077744 
L 114.532196 378.6438 
L 115.113125 378.578531 
L 115.30669 379.03437 
L 115.500217 379.034321 
L 115.887154 378.538259 
L 116.080564 378.538209 
L 116.467268 379.960881 
L 116.660562 379.960833 
L 117.047034 378.763407 
L 117.433351 378.708205 
L 117.819513 379.229124 
L 118.012536 379.229077 
L 118.205521 378.312244 
L 118.398466 378.066718 
L 118.784242 378.03155 
L 119.169864 378.462287 
L 119.362617 379.103484 
L 119.555331 378.462183 
L 119.748007 378.507218 
L 120.133243 378.061242 
L 120.325803 377.379861 
L 120.518324 377.379804 
L 120.903252 380.165112 
L 121.095658 380.450611 
L 121.288026 380.450555 
L 121.480355 379.899427 
L 121.864899 379.894311 
L 122.057113 378.85223 
L 122.249288 378.581652 
L 122.441426 377.990448 
L 122.633524 377.990394 
L 123.017607 378.882022 
L 123.209591 378.441108 
L 123.785312 378.686417 
L 123.977143 378.68636 
L 124.360689 378.555991 
L 124.552405 378.741294 
L 124.744082 379.282289 
L 125.127322 379.232075 
L 125.51041 378.886286 
L 125.893344 378.941277 
L 126.084754 379.33198 
L 126.276126 380.213639 
L 126.46746 380.213583 
L 126.658755 379.857834 
L 126.850013 378.946004 
L 127.423556 378.7204 
L 127.614661 378.835569 
L 127.996757 380.107937 
L 128.187748 380.107883 
L 128.378701 378.845371 
L 128.569616 378.629899 
L 128.760493 378.629845 
L 128.951331 379.336167 
L 129.142132 379.336114 
L 129.332895 378.850114 
L 129.52362 378.850061 
L 129.714307 380.463149 
L 129.904956 380.463097 
L 130.28614 379.811729 
L 130.476675 379.566202 
L 130.667172 379.566153 
L 130.857632 379.285559 
L 131.048053 379.285512 
L 131.61909 377.817511 
L 131.999593 377.21624 
L 132.379944 377.216132 
L 132.570063 377.376388 
L 132.760144 377.827208 
L 132.950187 377.376271 
L 133.140193 377.827088 
L 133.330161 377.852075 
L 133.709983 378.563333 
L 134.279434 378.457934 
L 134.469176 378.042058 
L 135.227766 377.91153 
L 135.41732 378.903391 
L 135.985754 379.003372 
L 136.175157 378.953203 
L 136.932394 377.184467 
L 137.310788 377.720357 
L 137.499928 377.855541 
L 137.878096 377.695066 
L 138.067124 377.694983 
L 138.256115 378.185855 
L 138.822862 378.165558 
L 139.200506 378.776572 
L 139.389272 378.84662 
L 139.578001 378.776395 
L 139.766692 378.856462 
L 140.332542 378.52555 
L 140.521084 378.52546 
L 140.709588 378.264862 
L 140.898056 377.64857 
L 141.274879 377.693471 
L 141.463234 377.988951 
L 142.028077 377.983649 
L 142.216284 377.773139 
L 142.404453 377.918321 
L 142.592586 377.772936 
L 142.968738 377.156528 
L 143.532689 377.186261 
L 143.720598 377.000788 
L 143.90847 377.000674 
L 144.096305 377.351241 
L 144.284103 377.456328 
L 144.471864 378.267789 
L 145.034924 378.497875 
L 145.222537 377.360538 
L 145.410113 377.185073 
L 145.597651 377.184948 
L 145.972617 377.565434 
L 146.534789 377.519951 
L 146.722106 377.078958 
L 147.471003 377.153546 
L 147.84523 376.687349 
L 148.032289 376.702229 
L 148.406295 375.795159 
L 148.780153 375.769793 
L 148.967027 375.55421 
L 149.527429 371.636071 
L 149.714155 368.665114 
L 150.087499 357.022098 
L 150.647239 327.003124 
L 151.020215 318.821849 
L 151.206648 318.821678 
L 151.393044 320.740243 
L 151.952013 338.464246 
L 152.882896 369.839493 
L 153.068962 373.55656 
L 153.254992 374.919042 
L 153.440986 374.918867 
L 153.998747 375.66978 
L 154.184595 377.177527 
L 154.370406 377.177334 
L 154.55618 376.846496 
L 154.741918 376.816242 
L 154.927619 376.615653 
L 155.113284 376.615452 
L 155.298913 376.890786 
L 155.484505 377.767288 
L 155.670061 377.78211 
L 155.85558 378.598493 
L 156.041063 378.598285 
L 156.411919 378.417515 
L 156.597293 378.417306 
L 156.78263 378.211695 
L 156.967931 377.835752 
L 157.153195 377.83554 
L 157.338424 377.985619 
L 157.89389 377.994992 
L 158.26402 378.52058 
L 158.44903 378.575469 
L 158.634004 378.750591 
L 159.003844 378.675005 
L 159.188709 378.519482 
L 159.558331 377.07122 
L 159.743088 377.070997 
L 159.927809 377.241103 
L 160.112493 378.37308 
L 160.297141 378.372852 
L 160.481754 377.81153 
L 160.66633 377.8113 
L 161.219841 378.126218 
L 161.404272 376.97374 
L 161.773027 376.88309 
L 161.95735 377.063201 
L 162.141637 377.062959 
L 162.325888 376.376378 
L 162.510103 376.376131 
L 162.878425 377.40263 
L 163.062532 377.402377 
L 163.430638 376.455021 
L 163.614637 376.239342 
L 163.7986 376.454499 
L 164.166419 377.440889 
L 164.350274 377.160074 
L 164.534093 377.159804 
L 164.717877 376.693624 
L 165.085336 376.632956 
L 165.269011 376.808018 
L 165.452651 377.35881 
L 166.003356 377.768755 
L 166.186852 378.204317 
L 166.370313 378.204029 
L 166.92048 377.827427 
L 167.287079 377.736666 
L 167.470325 377.095122 
L 167.653535 377.736074 
L 167.83671 377.800903 
L 168.019849 378.321618 
L 168.202952 378.431533 
L 168.386019 378.967277 
L 168.752046 378.966675 
L 168.935007 379.146726 
L 169.117931 379.146426 
L 169.30082 379.000842 
L 169.483674 378.584732 
L 169.849273 378.564091 
L 170.03202 379.094823 
L 170.397406 379.169367 
L 170.580046 380.291251 
L 170.76265 380.29095 
L 171.127751 378.351577 
L 171.857528 378.390455 
L 172.222204 379.677359 
L 172.404488 379.677057 
L 172.586737 378.820089 
L 172.768951 378.609378 
L 172.951129 378.609077 
L 173.133271 379.14482 
L 173.679487 379.048731 
L 173.861488 379.960205 
L 174.225384 380.064811 
L 174.407279 379.884161 
L 174.589138 379.883864 
L 174.770963 379.62807 
L 174.952752 379.627774 
L 175.134505 379.286816 
L 175.316223 379.286521 
L 175.497906 379.917455 
L 175.679554 379.917162 
L 176.042744 379.160103 
L 176.224285 379.159811 
L 176.405792 379.655485 
L 176.7687 379.574746 
L 176.950101 378.291958 
L 177.131466 378.291667 
L 177.494092 379.042547 
L 177.856577 379.177227 
L 178.037767 379.176935 
L 178.400041 379.036079 
L 178.581126 379.201109 
L 179.124169 379.110061 
L 179.305113 378.568716 
L 179.486022 378.778835 
L 180.570739 378.737005 
L 180.751403 378.491234 
L 180.932032 378.490941 
L 181.112626 378.941525 
L 181.654197 378.975712 
L 181.834651 378.72994 
L 182.01507 378.779744 
L 182.195454 378.488883 
L 182.736397 379.374725 
L 183.096851 379.374135 
L 183.457166 378.777386 
L 183.637271 378.481516 
L 183.817341 378.481221 
L 184.177377 378.620902 
L 184.537274 378.480036 
L 184.897032 379.451334 
L 185.076858 379.741603 
L 185.436407 379.741011 
L 185.61613 379.600443 
L 185.795818 378.778549 
L 186.155089 378.853106 
L 186.334673 378.983065 
L 186.693736 379.628734 
L 186.873216 379.62844 
L 187.052661 378.74643 
L 187.232071 378.681009 
L 187.411447 378.745842 
L 187.590788 379.031104 
L 189.024272 379.048789 
L 189.561258 379.548883 
L 189.919076 379.848883 
L 190.455546 379.827971 
L 190.6343 380.463921 
L 190.813019 380.463633 
L 190.991705 380.137713 
L 191.348972 377.351718 
L 191.706101 377.341122 
L 191.884615 377.99711 
L 192.063094 378.152121 
L 192.241538 377.996526 
L 192.419948 378.427072 
L 192.598324 377.96588 
L 192.776666 376.703127 
L 193.133246 376.762647 
L 193.311484 377.88453 
L 193.489688 377.884227 
L 193.845994 377.162213 
L 194.024096 376.811222 
L 194.558194 376.805276 
L 194.914089 376.423899 
L 195.269847 375.276019 
L 195.447675 375.425983 
L 195.803228 375.224924 
L 196.336301 375.30405 
L 196.513924 374.983075 
L 196.691513 373.935681 
L 197.046588 371.179594 
L 197.401527 371.028582 
L 197.578945 370.807792 
L 198.110996 367.13957 
L 198.81992 355.515495 
L 199.351257 351.371347 
L 199.528301 351.370987 
L 200.05923 354.741472 
L 200.236138 355.697976 
L 200.766661 361.573339 
L 201.650187 367.032173 
L 202.179896 367.156337 
L 202.356399 366.965606 
L 202.532867 366.143646 
L 202.709302 366.143286 
L 203.06207 366.999234 
L 203.238403 366.998874 
L 203.414703 367.344187 
L 203.590969 367.108368 
L 204.295695 367.086889 
L 204.471793 366.144695 
L 204.647857 366.144334 
L 204.823887 366.960565 
L 204.999883 366.965214 
L 205.175846 367.25542 
L 205.52767 367.184563 
L 205.703532 366.107106 
L 205.879361 366.096726 
L 206.055155 365.450107 
L 206.406644 365.449387 
L 206.582338 365.278695 
L 206.757998 365.278335 
L 206.933625 364.937312 
L 207.109218 365.493035 
L 207.460304 365.752822 
L 207.811256 367.600702 
L 207.986682 367.800732 
L 208.162074 367.599981 
L 208.337433 367.749914 
L 208.512758 367.749554 
L 208.863309 368.344995 
L 209.038534 369.2514 
L 209.213725 369.331196 
L 209.7391 370.677741 
L 209.914158 370.702429 
L 210.264173 371.818885 
L 210.439131 372.099071 
L 210.614056 372.168847 
L 210.963805 373.35043 
L 211.31342 373.499997 
L 211.837594 374.871542 
L 212.536027 375.020272 
L 212.710552 375.410632 
L 213.059503 375.505005 
L 213.233928 375.259115 
L 213.40832 374.742695 
L 213.582679 374.591982 
L 213.757005 374.591558 
L 213.931298 375.788462 
L 214.105557 375.78803 
L 214.453977 375.291191 
L 214.628137 375.521197 
L 214.802264 375.5458 
L 214.976358 375.820888 
L 215.150419 377.097923 
L 215.324447 377.332928 
L 215.498441 377.332472 
L 215.672403 376.625639 
L 216.194089 376.02308 
L 216.889208 376.757623 
L 217.062906 377.328257 
L 217.23657 377.327777 
L 217.410201 377.001661 
L 217.583799 377.001177 
L 217.930897 377.185564 
L 218.104397 377.185074 
L 218.277863 377.415031 
L 218.451297 376.903543 
L 218.624698 377.414043 
L 218.971401 377.473165 
L 219.317972 376.93111 
L 219.491208 376.930606 
L 219.664411 377.711622 
L 219.837582 377.746183 
L 220.183825 377.945555 
L 220.356897 379.167425 
L 220.702943 379.05619 
L 220.875916 378.965504 
L 221.048857 378.40891 
L 221.221765 378.408399 
L 221.567483 378.833205 
L 221.91307 378.902317 
L 222.085815 378.556132 
L 222.258527 378.901292 
L 222.431206 378.494989 
L 222.603852 379.235919 
L 222.776465 379.165269 
L 222.949046 379.234893 
L 223.121595 379.795472 
L 223.466593 379.704273 
L 223.811461 378.686271 
L 223.983846 378.68576 
L 224.156199 379.827474 
L 224.328518 379.826963 
L 224.500806 379.200234 
L 224.67306 379.199724 
L 224.845282 380.281322 
L 225.017472 380.646526 
L 225.189629 380.64602 
L 225.533845 379.036879 
L 225.877931 379.035871 
L 226.049925 379.496264 
L 226.393816 379.600462 
L 226.737577 380.626459 
L 226.909409 380.625959 
L 227.081208 380.43509 
L 227.252975 380.434594 
L 227.42471 380.679576 
L 227.596412 380.719161 
L 227.768081 381.540269 
L 227.939719 381.785258 
L 228.111323 381.539293 
L 228.625944 380.160164 
L 228.968862 380.124138 
L 229.140272 380.484363 
L 229.311651 380.483888 
L 229.482997 379.767019 
L 229.825591 379.650848 
L 229.99684 380.306655 
L 230.168057 380.306184 
L 230.339241 379.664466 
L 230.681513 379.738675 
L 230.852601 380.670022 
L 231.023656 380.874956 
L 231.194679 380.874492 
L 231.36567 379.696738 
L 231.707555 379.745913 
L 231.87845 380.547014 
L 232.561705 380.675444 
L 232.732438 380.554757 
L 233.073808 380.027833 
L 233.41505 380.302475 
L 233.585623 380.302029 
L 233.756164 379.77556 
L 234.097148 379.874869 
L 234.267593 380.600841 
L 234.438005 380.82584 
L 234.608385 380.825401 
L 234.778734 381.210715 
L 234.94905 380.749383 
L 235.289586 380.803626 
L 235.459806 381.058694 
L 235.629994 381.058267 
L 235.80015 380.637022 
L 235.970274 380.636598 
L 236.310427 381.071605 
L 236.480455 381.071187 
L 236.650451 380.629912 
L 236.820415 379.712712 
L 237.669758 379.695621 
L 238.009272 381.743792 
L 238.348658 381.687875 
L 238.687917 381.040818 
L 239.027049 379.832676 
L 239.70493 379.916271 
L 240.213008 381.498188 
L 240.382304 381.497804 
L 240.7208 380.475052 
L 241.059169 380.474297 
L 241.228306 380.834624 
L 241.397411 380.243099 
L 241.566485 380.833878 
L 241.904537 381.048558 
L 242.073516 381.048192 
L 242.242463 381.453617 
L 242.411378 381.543431 
L 242.580262 382.169291 
L 242.917934 382.163572 
L 243.25548 380.479595 
L 243.424206 380.479248 
L 243.761562 381.535618 
L 243.930193 381.420053 
L 244.098793 381.534939 
L 244.772875 381.197956 
L 245.109726 381.127167 
L 245.446452 380.830948 
L 245.614768 380.830629 
L 245.951305 381.120563 
L 246.119527 381.12025 
L 246.287717 380.759237 
L 246.455875 380.047542 
L 246.624002 380.047234 
L 247.128195 380.512224 
L 247.464167 380.576747 
L 247.632105 380.841964 
L 247.800013 381.437827 
L 248.471329 381.381552 
L 248.639079 381.215944 
L 248.974487 380.443875 
L 249.477363 381.139394 
L 249.644926 381.139119 
L 250.147427 380.086256 
L 250.314865 379.875577 
L 250.482272 379.875309 
L 250.649648 380.010305 
L 250.816992 380.551092 
L 250.984305 380.550828 
L 251.151587 380.300077 
L 251.318838 380.299815 
L 251.653246 380.870407 
L 251.820403 380.87015 
L 251.98753 380.504183 
L 252.488721 380.568552 
L 252.655723 381.675459 
L 252.822693 381.675212 
L 253.323419 380.767721 
L 254.157339 381.472927 
L 254.490691 381.352241 
L 254.65732 381.352018 
L 254.990485 380.474873 
L 255.323526 381.010486 
L 255.656443 381.150335 
L 256.654453 380.82849 
L 256.82068 381.845274 
L 256.986876 381.84508 
L 257.319175 381.02811 
L 257.65135 381.042768 
L 257.817392 381.683834 
L 257.983403 381.723733 
L 258.149383 382.630321 
L 258.48125 382.629977 
L 258.812994 381.34715 
L 258.97882 381.126559 
L 259.144616 381.34683 
L 259.31038 381.897746 
L 259.476114 381.977748 
L 259.641817 381.897441 
L 259.807489 381.461444 
L 259.97313 381.461299 
L 260.138741 381.997199 
L 260.304321 381.997059 
L 260.46987 381.460878 
L 260.635389 381.460743 
L 261.131761 381.695813 
L 261.462522 380.413068 
L 261.627856 380.412947 
L 261.79316 380.643276 
L 261.958434 380.643158 
L 262.123676 380.88351 
L 262.288889 380.512673 
L 262.45407 380.91334 
L 263.11449 380.672438 
L 263.279519 380.201417 
L 263.444517 380.201314 
L 263.609485 380.762305 
L 263.774422 381.90443 
L 264.104204 382.049522 
L 264.26905 381.708767 
L 264.598649 379.839953 
L 264.928127 379.744596 
L 265.422115 381.292362 
L 265.751288 381.387392 
L 265.915828 381.141839 
L 266.409269 381.171688 
L 267.066763 381.151399 
L 267.395329 381.572106 
L 267.723772 381.546955 
L 267.887949 381.366557 
L 268.380296 381.311322 
L 268.544352 380.930543 
L 268.708376 380.930507 
L 269.20027 381.601719 
L 269.364174 381.215941 
L 269.528047 381.215917 
L 269.855704 381.656733 
L 270.18324 381.571535 
L 270.510655 381.42623 
L 270.674317 381.70176 
L 271.165123 381.646647 
L 271.328664 381.902148 
L 271.492176 381.902154 
L 271.655657 381.741851 
L 271.819108 380.805038 
L 271.982529 380.609671 
L 272.14592 380.769999 
L 272.309281 380.770016 
L 272.635913 381.736938 
L 272.962424 381.736988 
L 273.125635 381.110798 
L 273.288815 381.110829 
L 273.451966 381.431487 
L 273.615086 381.431523 
L 273.941237 380.459708 
L 274.104267 380.459749 
L 274.267268 381.341509 
L 274.430238 381.341554 
L 274.593178 381.221367 
L 274.918969 380.214507 
L 275.08182 380.505125 
L 275.24464 381.386896 
L 275.570192 381.527284 
L 275.895623 380.856101 
L 276.058294 380.856166 
L 276.220935 381.54257 
L 276.871201 381.552883 
L 277.033692 382.309436 
L 277.358586 382.324634 
L 277.520989 380.215616 
L 277.845703 380.215799 
L 278.170299 381.308114 
L 278.494776 381.378447 
L 278.656969 381.834437 
L 278.819133 381.834542 
L 279.305446 380.442158 
L 279.467491 380.347086 
L 279.629506 380.487473 
L 279.791491 380.347315 
L 280.439136 380.843758 
L 280.76278 380.753831 
L 280.924557 380.378227 
L 281.248024 380.308349 
L 281.733001 381.586236 
L 282.217711 382.503443 
L 282.379222 382.443474 
L 282.540704 381.712201 
L 282.702156 381.647227 
L 282.863578 381.156428 
L 283.024971 380.164654 
L 283.347667 380.104858 
L 283.670246 380.200368 
L 283.831491 380.200532 
L 284.153893 380.761957 
L 284.31505 381.613784 
L 284.476177 381.613955 
L 284.798343 379.460108 
L 284.959381 379.460283 
L 285.442321 380.79842 
L 285.603242 380.758522 
L 285.764133 380.583362 
L 285.924995 379.641712 
L 286.085828 379.536691 
L 286.407406 378.259573 
L 286.889551 377.338325 
L 287.050208 376.982812 
L 287.210835 376.917863 
L 287.371433 376.026302 
L 287.532001 376.026474 
L 287.69254 376.50257 
L 287.85305 376.502737 
L 288.013531 375.946819 
L 288.173982 375.94698 
L 288.334404 376.573358 
L 288.494797 376.708777 
L 288.65516 376.573668 
L 288.815494 374.865492 
L 288.975799 374.865639 
L 289.296321 376.238594 
L 289.456539 376.238731 
L 289.776885 372.39651 
L 289.937015 371.915696 
L 290.257186 369.67157 
L 290.577241 363.424649 
L 290.737225 358.384957 
L 291.057104 336.352293 
L 291.376868 299.12504 
L 291.856294 197.717921 
L 292.175766 146.593604 
L 292.335458 146.343238 
L 292.495122 146.34336 
L 292.654756 153.342112 
L 292.973937 186.762441 
L 294.090157 340.482658 
L 294.408816 355.376908 
L 294.727359 363.03707 
L 294.886587 365.376748 
L 295.204956 365.482198 
L 295.364097 365.066511 
L 295.682293 363.874433 
L 296.318337 355.388396 
L 296.636186 354.126182 
L 296.795067 353.840748 
L 296.953919 353.840871 
L 298.382292 372.894075 
L 298.540856 373.139669 
L 299.016376 377.65378 
L 299.174825 377.769107 
L 299.333245 377.653984 
L 299.808334 377.919796 
L 299.966639 377.453985 
L 300.283164 377.454173 
L 300.441383 377.965259 
L 300.599574 379.312974 
L 300.757736 379.508446 
L 301.390097 379.453706 
L 301.548116 379.493877 
L 301.706106 379.794556 
L 301.864067 379.79465 
L 302.022 379.353887 
L 302.179904 379.353982 
L 302.33778 379.704761 
L 303.12673 379.805446 
L 303.44211 379.505062 
L 303.757376 379.515285 
L 304.072528 380.106643 
L 304.230061 380.106747 
L 304.387566 379.861375 
L 304.545042 379.861481 
L 304.859909 380.923765 
L 305.017299 381.024071 
L 305.331996 380.693654 
L 305.489301 380.222853 
L 305.646578 380.22297 
L 305.803827 379.952562 
L 305.961047 379.060945 
L 306.118239 379.061064 
L 306.589644 380.81985 
L 306.746722 380.850032 
L 306.903772 382.132655 
L 307.060793 382.132783 
L 307.217786 381.226149 
L 307.531687 381.17632 
L 308.315945 379.839421 
L 308.472711 379.839565 
L 308.62945 379.188442 
L 308.78616 379.188588 
L 309.25612 380.812189 
L 309.412717 380.616958 
L 309.569286 379.555042 
L 309.882338 379.390024 
L 310.038823 379.390177 
L 310.351706 381.224056 
L 310.508105 381.224213 
L 310.664477 381.394704 
L 310.977135 381.395029 
L 311.602113 380.208392 
L 312.070551 380.133765 
L 312.226641 379.833355 
L 312.382703 379.833531 
L 312.694742 380.404999 
L 313.474348 381.723482 
L 313.630186 381.372989 
L 313.941776 380.336357 
L 314.097529 380.336552 
L 314.253254 380.677412 
L 314.408951 380.677611 
L 314.875874 378.88973 
L 315.498047 379.83237 
L 315.65352 381.100041 
L 315.964383 381.606438 
L 316.119773 381.631697 
L 316.275134 381.777192 
L 316.430468 382.293412 
L 316.585774 382.29363 
L 316.896302 380.98152 
L 317.051524 380.981746 
L 317.361885 380.826902 
L 317.827217 380.712378 
L 317.982272 380.953083 
L 318.137299 380.953322 
L 318.602214 382.151384 
L 318.75713 381.941223 
L 319.221712 382.437954 
L 319.376517 382.373089 
L 319.840765 380.289833 
L 319.995459 380.285095 
L 320.304764 380.140358 
L 320.459374 380.285916 
L 320.923041 381.444003 
L 321.077541 381.419237 
L 321.540875 380.879045 
L 321.695264 380.879335 
L 322.158266 380.208911 
L 322.312545 380.399579 
L 322.466796 380.785628 
L 322.929384 380.721407 
L 323.083525 381.277795 
L 323.391724 381.363578 
L 323.545782 381.088354 
L 323.699813 381.088668 
L 324.161739 381.445316 
L 324.31566 381.44564 
L 324.469553 381.220526 
L 324.623418 380.459371 
L 324.777256 380.459701 
L 324.931066 381.061202 
L 325.238605 381.036821 
L 325.392333 380.866826 
L 325.699706 380.967701 
L 326.00697 381.023495 
L 326.160561 380.788383 
L 326.314124 380.788732 
L 326.46766 381.214911 
L 326.621168 381.215263 
L 327.541643 382.204351 
L 327.69496 382.204722 
L 327.84825 380.551877 
L 328.154746 380.482493 
L 328.307954 380.743379 
L 329.07358 380.655123 
L 329.37964 381.462474 
L 329.685591 381.408155 
L 329.991432 380.682539 
L 330.144312 380.682941 
L 330.297165 380.933832 
L 330.44999 380.934238 
L 330.908303 380.043727 
L 331.213709 381.28697 
L 331.366371 382.314385 
L 331.519006 382.314803 
L 331.671614 380.96259 
L 331.824195 380.963013 
L 331.976748 381.619716 
L 332.129275 381.620144 
L 332.434246 381.325432 
L 332.739109 381.331314 
L 333.348509 382.435236 
L 333.500791 382.500814 
L 333.653046 382.436142 
L 333.805274 381.304395 
L 334.109649 381.170056 
L 334.261796 381.220618 
L 334.413916 381.75212 
L 334.566009 381.787658 
L 334.718075 382.404331 
L 334.870114 382.404807 
L 335.326068 379.846266 
L 335.477999 379.846749 
L 335.78178 381.72137 
L 335.93363 381.952308 
L 336.237248 382.759868 
L 336.389017 382.760368 
L 336.692475 380.677319 
L 336.844163 380.677827 
L 337.147458 380.83415 
L 337.299066 380.834663 
L 337.6022 381.076164 
L 337.753727 381.637775 
L 337.905227 381.638297 
L 338.208146 381.373831 
L 338.359565 381.444497 
L 338.662323 382.076792 
L 339.116259 381.236772 
L 339.267517 381.17219 
L 339.418749 380.852112 
L 339.569953 379.965934 
L 339.721131 379.966484 
L 339.872282 380.327736 
L 340.023407 381.144878 
L 340.476619 381.0714 
L 340.627636 381.337477 
L 340.778627 381.338039 
L 341.080528 379.861292 
L 341.231438 379.801741 
L 341.684009 379.868573 
L 341.834812 379.773958 
L 341.985589 379.168348 
L 343.040281 371.322001 
L 343.341381 371.257949 
L 343.491891 371.639216 
L 343.642375 371.639735 
L 343.792832 370.422875 
L 344.093667 370.323702 
L 344.394395 372.814566 
L 344.695017 374.38862 
L 344.995533 376.603904 
L 345.145751 376.884932 
L 345.295942 376.92549 
L 345.596246 377.923386 
L 345.746358 378.054115 
L 345.896443 378.510477 
L 346.046502 379.447775 
L 346.196535 379.44825 
L 346.49652 378.176721 
L 346.7964 378.207726 
L 347.096174 378.844908 
L 347.246021 380.147916 
L 347.695404 380.194425 
L 347.994861 380.921794 
L 348.14455 380.922273 
L 348.443848 380.292008 
L 348.593457 380.117151 
L 348.743041 380.117637 
L 348.892598 380.533933 
L 349.042128 380.534421 
L 349.34111 380.289923 
L 349.490561 379.824508 
L 349.639987 379.825001 
L 350.088104 380.422647 
L 350.237424 380.067452 
L 350.535985 380.06845 
L 350.834441 379.828984 
L 351.132792 378.562521 
L 351.281928 378.563023 
L 351.431037 378.984343 
L 351.580121 380.162138 
L 351.729178 380.16264 
L 351.878209 379.42671 
L 352.325145 379.363096 
L 352.474071 379.088065 
L 352.771845 379.089076 
L 353.069514 378.238427 
L 353.961894 376.14234 
L 354.110533 376.077705 
L 354.556291 373.494124 
L 355.001815 372.824222 
L 355.447105 371.052116 
L 355.595483 371.05255 
L 355.89216 371.469204 
L 356.040459 371.259206 
L 356.188733 370.132414 
L 356.485202 370.233415 
L 356.781567 370.384514 
L 356.92971 369.337878 
L 357.225919 369.318646 
L 357.373985 369.880141 
L 357.522025 369.880545 
L 357.670038 369.750694 
L 357.965988 368.233544 
L 358.261834 366.425829 
L 358.557576 365.640103 
L 358.705408 365.605438 
L 358.853214 365.22009 
L 359.000994 364.138386 
L 359.148749 364.12376 
L 359.296477 363.412778 
L 359.44418 363.413181 
L 360.034732 365.979789 
L 360.329853 364.267258 
L 360.477375 364.267661 
L 360.624871 363.932411 
L 360.772341 363.932814 
L 361.214597 363.653477 
L 361.509305 362.892801 
L 361.65662 362.893204 
L 361.80391 363.119046 
L 361.951174 363.119449 
L 362.392811 362.664771 
L 362.687107 361.718733 
L 363.422397 350.118154 
L 363.863263 337.65509 
L 364.303898 303.980718 
L 364.597527 257.470947 
L 365.037777 139.332085 
L 365.477797 41.843439 
L 365.624419 33.973515 
L 365.771015 33.973918 
L 365.917586 41.574121 
L 366.210651 74.298655 
L 367.674444 309.771249 
L 368.259248 342.130878 
L 368.697583 351.455243 
L 368.843643 352.853369 
L 368.989679 352.853772 
L 369.135689 352.498482 
L 369.281673 352.498885 
L 369.427632 353.325898 
L 369.573566 353.326302 
L 370.157046 348.508529 
L 370.302853 348.473864 
L 370.59439 346.881567 
L 371.031506 340.004382 
L 371.613972 335.872945 
L 371.759525 335.43249 
L 371.905053 333.434 
L 372.341485 333.510356 
L 372.77769 335.745917 
L 373.358942 342.250193 
L 373.794617 347.206052 
L 373.939791 347.386806 
L 374.230064 350.458593 
L 374.375163 353.735377 
L 374.520237 353.971239 
L 374.665285 354.652969 
L 375.100279 358.10089 
L 375.39015 359.589594 
L 375.679919 359.670557 
L 375.824767 360.08677 
L 376.114386 362.898049 
L 376.259157 362.928511 
L 377.127262 366.457798 
L 377.271858 366.628533 
L 377.416429 366.618917 
L 377.560975 366.874818 
L 377.705496 367.71185 
L 377.849992 367.842507 
L 377.994463 367.712656 
L 378.13891 367.853333 
L 378.427727 369.056481 
L 378.572098 369.056884 
L 378.716444 369.232628 
L 378.860765 369.05268 
L 379.149332 369.053487 
L 379.437799 369.475113 
L 379.870312 371.750743 
L 380.014434 372.502594 
L 380.15853 372.502976 
L 380.302602 370.910248 
L 380.446648 370.910614 
L 380.59067 371.206548 
L 380.734666 371.246977 
L 380.878638 371.467749 
L 381.022585 372.324753 
L 381.166507 371.844145 
L 381.310404 371.844466 
L 381.598124 371.479375 
L 381.741946 371.479675 
L 382.029517 372.582398 
L 382.60436 372.618542 
L 382.891633 373.140056 
L 383.035232 373.480961 
L 383.322355 373.486436 
L 383.46588 373.70709 
L 383.60938 374.784407 
L 383.752855 374.884817 
L 383.896306 375.325886 
L 384.183132 375.356355 
L 384.613186 374.820899 
L 385.043018 374.956712 
L 385.186246 374.956888 
L 385.329449 375.102342 
L 385.615781 376.715815 
L 385.75891 376.856251 
L 386.045094 376.606081 
L 386.188149 376.601226 
L 386.331179 376.17054 
L 386.474185 376.17069 
L 386.617166 376.782028 
L 386.760122 376.782173 
L 386.903054 376.246272 
L 387.045961 376.226373 
L 387.188844 375.825729 
L 387.331702 375.825863 
L 387.617344 377.183767 
L 387.760128 378.817074 
L 387.902887 378.8172 
L 388.188333 377.20431 
L 388.616317 377.179626 
L 388.901516 376.588708 
L 389.044079 376.588821 
L 389.329132 376.974791 
L 389.471622 377.180298 
L 389.614087 377.180403 
L 389.756527 377.350837 
L 390.041335 377.351038 
L 390.183702 378.748858 
L 390.752925 378.88451 
L 390.89517 379.390592 
L 391.321757 379.405914 
L 391.463904 379.526246 
L 391.606026 379.406111 
L 392.174272 380.658952 
L 392.316273 380.659056 
L 392.600201 379.061154 
L 392.742128 379.06126 
L 393.167764 379.818052 
L 393.593181 379.843426 
L 393.87667 380.40975 
L 394.301722 380.640541 
L 394.443358 380.500385 
L 394.584969 380.745981 
L 394.868118 380.651039 
L 395.009656 380.646152 
L 395.29266 380.420966 
L 395.434125 380.526299 
L 395.858376 380.326302 
L 395.999745 380.84244 
L 396.141089 380.842576 
L 396.282409 380.962947 
L 396.423705 380.527238 
L 396.564977 381.023345 
L 396.706224 380.527521 
L 396.988647 381.554812 
L 397.129822 382.637068 
L 397.412099 382.612328 
L 397.69428 380.34323 
L 397.976364 380.443754 
L 398.540242 381.626732 
L 398.681152 381.626907 
L 398.822037 380.655192 
L 398.962898 380.655371 
L 399.103735 380.931088 
L 399.244548 381.537451 
L 399.526102 381.512775 
L 399.666843 380.756492 
L 399.80756 380.756684 
L 400.088921 381.328186 
L 400.229565 381.333394 
L 400.510782 381.704519 
L 400.651355 381.704725 
L 400.932428 381.529803 
L 401.072928 382.797485 
L 401.213405 382.797702 
L 401.353857 381.961293 
L 401.775071 382.002052 
L 402.05576 380.98053 
L 402.476614 381.086452 
L 402.757063 381.08694 
L 402.897252 381.077168 
L 403.037417 380.586461 
L 403.317676 381.168097 
L 403.597838 381.494243 
L 403.737884 382.000488 
L 403.877905 382.000751 
L 404.157877 381.850993 
L 404.437753 382.152124 
L 404.577655 382.152402 
L 404.717534 381.686775 
L 404.857388 381.687058 
L 405.137026 382.068375 
L 405.276809 383.311086 
L 405.416569 383.311383 
L 406.254625 380.938613 
L 406.394217 381.204448 
L 406.673332 381.240158 
L 406.812853 382.257463 
L 407.091825 382.438473 
L 407.231275 382.063076 
L 407.370702 381.086511 
L 407.510104 381.08685 
L 407.788839 381.41317 
L 407.928171 381.413517 
L 408.067479 380.552187 
L 408.206763 380.552538 
L 408.346023 381.334411 
L 408.48526 381.334765 
L 408.624473 381.204868 
L 409.041971 380.013627 
L 409.18109 380.01399 
L 409.459256 380.335343 
L 409.737328 380.321047 
L 409.876328 379.945684 
L 410.015305 378.438117 
L 410.154258 378.438486 
L 410.570976 379.226123 
L 410.709835 378.805671 
L 410.84867 379.1968 
L 410.987482 378.806407 
L 411.12627 378.962077 
L 411.403775 378.246418 
L 411.542493 377.856023 
L 411.819857 377.936909 
L 412.097127 379.425533 
L 412.235727 379.425897 
L 412.374303 378.549553 
L 412.512856 378.539897 
L 413.066831 376.90816 
L 413.343679 378.537042 
L 413.482067 379.028352 
L 413.758773 379.029061 
L 414.035386 378.884488 
L 414.173657 378.884842 
L 414.311904 377.56262 
L 414.58833 377.473149 
L 414.726507 377.473498 
L 414.864661 377.674237 
L 415.002792 377.674583 
L 415.140899 378.160875 
L 415.278983 378.16122 
L 415.417043 377.550373 
L 415.55508 377.550715 
L 415.693094 377.841622 
L 415.831084 377.841962 
L 416.106995 376.454934 
L 416.520685 376.501015 
L 416.658536 376.075512 
L 416.934166 376.136272 
L 417.071947 376.387077 
L 417.209704 376.387392 
L 417.485148 375.190681 
L 417.760499 375.191286 
L 418.448469 376.144592 
L 418.585993 377.337195 
L 418.723494 377.337475 
L 418.860972 376.911923 
L 419.135858 374.983715 
L 419.273266 374.808642 
L 419.548013 375.14482 
L 419.685351 375.145076 
L 420.234473 374.013854 
L 420.783225 374.059848 
L 421.194545 374.285915 
L 421.331606 374.311164 
L 421.468643 374.947598 
L 421.605657 374.94779 
L 421.879617 372.959285 
L 422.016562 372.95946 
L 422.290382 373.140144 
L 422.564111 372.874936 
L 422.70094 372.629604 
L 422.97453 372.700012 
L 423.111291 372.950626 
L 423.248028 372.925698 
L 423.384743 373.020997 
L 423.658102 373.672476 
L 423.93137 373.201748 
L 424.067969 373.136706 
L 424.477628 370.576946 
L 424.887081 369.725506 
L 425.023519 369.915949 
L 425.432697 371.30387 
L 425.705366 371.819997 
L 425.841667 372.711784 
L 425.977945 371.85015 
L 426.114199 372.210889 
L 426.38664 371.679907 
L 426.658989 370.046758 
L 426.931247 369.82135 
L 427.203412 369.866469 
L 427.339461 370.182099 
L 427.475487 370.197143 
L 427.61149 370.698134 
L 427.74747 370.69815 
L 427.883427 370.552882 
L 428.155273 369.926694 
L 428.291162 369.926709 
L 428.698691 370.628122 
L 429.106015 369.96688 
L 429.241744 368.719466 
L 429.37745 368.719482 
L 429.513133 369.260551 
L 429.784432 371.284523 
L 429.920047 371.284531 
L 430.055639 371.079131 
L 430.191209 371.079131 
L 430.191209 371.079131 
" clip-path="url(#pa973b57a3f)" style="fill: none; stroke: #5088c5; stroke-linecap: round"/>
   </g>
   <g id="line2d_17">
    <defs>
     <path id="m900afb6d45" d="M 0 2 
C 0.530406 2 1.03916 1.789267 1.414214 1.414214 
C 1.789267 1.03916 2 0.530406 2 0 
C 2 -0.530406 1.789267 -1.03916 1.414214 -1.414214 
C 1.03916 -1.789267 0.530406 -2 0 -2 
C -0.530406 -2 -1.03916 -1.789267 -1.414214 -1.414214 
C -1.789267 -1.03916 -2 -0.530406 -2 0 
C -2 0.530406 -1.789267 1.03916 -1.414214 1.414214 
C -1.03916 1.789267 -0.530406 2 0 2 
z
"/>
    </defs>
    <g clip-path="url(#pa973b57a3f)">
     <use xlink:href="#m900afb6d45" x="151.199859" y="318.821678" style="fill: #f28360"/>
     <use xlink:href="#m900afb6d45" x="199.60074" y="351.370987" style="fill: #f28360"/>
     <use xlink:href="#m900afb6d45" x="292.482798" y="146.34336" style="fill: #f28360"/>
     <use xlink:href="#m900afb6d45" x="365.810116" y="33.973918" style="fill: #f28360"/>
     <use xlink:href="#m900afb6d45" x="372.145096" y="333.36968" style="fill: #f28360"/>
    </g>
   </g>
   <g id="patch_3">
    <path d="M 81.762344 397.284897 
L 81.762344 20 
" style="fill: none; stroke: #000000; stroke-width: 0.75; stroke-linejoin: miter; stroke-linecap: square"/>
   </g>
   <g id="patch_4">
    <path d="M 81.762344 397.284897 
L 443.592319 397.284897 
" style="fill: none; stroke: #000000; stroke-width: 0.75; stroke-linejoin: miter; stroke-linecap: square"/>
   </g>
  </g>
 </g>
 <defs>
  <clipPath id="pa973b57a3f">
   <rect x="81.762344" y="20" width="361.829976" height="377.284897"/>
  </clipPath>
 </defs>
</svg>
