<?xml version="1.0" encoding="utf-8" standalone="no"?>
<!DOCTYPE svg PUBLIC "-//W3C//DTD SVG 1.1//EN"
  "http://www.w3.org/Graphics/SVG/1.1/DTD/svg11.dtd">
<svg xmlns:xlink="http://www.w3.org/1999/xlink" width="463.9987pt" height="463.99896pt" viewBox="0 0 463.9987 463.99896" xmlns="http://www.w3.org/2000/svg" version="1.1">
 <metadata>
  <rdf:RDF xmlns:dc="http://purl.org/dc/elements/1.1/" xmlns:cc="http://creativecommons.org/ns#" xmlns:rdf="http://www.w3.org/1999/02/22-rdf-syntax-ns#">
   <cc:Work>
    <dc:type rdf:resource="http://purl.org/dc/dcmitype/StillImage"/>
    <dc:date>2025-02-07T20:37:37.608916</dc:date>
    <dc:format>image/svg+xml</dc:format>
    <dc:creator>
     <cc:Agent>
      <dc:title>Matplotlib v3.8.4, https://matplotlib.org/</dc:title>
     </cc:Agent>
    </dc:creator>
   </cc:Work>
  </rdf:RDF>
 </metadata>
 <defs>
  <style type="text/css">*{stroke-linejoin: round; stroke-linecap: butt}</style>
 </defs>
 <g id="figure_1">
  <g id="patch_1">
   <path d="M 0 463.99896 
L 463.9987 463.99896 
L 463.9987 0 
L 0 0 
L 0 463.99896 
z
" style="fill: none"/>
  </g>
  <g id="axes_1">
   <g id="patch_2">
    <path d="M 81.762344 397.163023 
L 431.347171 397.163023 
L 431.347171 20 
L 81.762344 20 
L 81.762344 397.163023 
z
" style="fill: none"/>
   </g>
   <g id="matplotlib.axis_1">
    <g id="xtick_1">
     <g id="line2d_1">
      <defs>
       <path id="m5e58e6746f" d="M 0 0 
L 0 5 
" style="stroke: #000000; stroke-width: 0.75"/>
      </defs>
      <g>
       <use xlink:href="#m5e58e6746f" x="85.180233" y="397.163023" style="stroke: #000000; stroke-width: 0.75"/>
      </g>
     </g>
     <g id="text_1">
      <text style="font: 14.5px &quot;Suisse Int&apos;l Mono&quot;; text-anchor: middle" x="85.180233" y="417.675522" transform="rotate(-0 85.180233 417.675522)">540</text>
     </g>
    </g>
    <g id="xtick_2">
     <g id="line2d_2">
      <g>
       <use xlink:href="#m5e58e6746f" x="142.641787" y="397.163023" style="stroke: #000000; stroke-width: 0.75"/>
      </g>
     </g>
     <g id="text_2">
      <text style="font: 14.5px &quot;Suisse Int&apos;l Mono&quot;; text-anchor: middle" x="142.641787" y="417.675522" transform="rotate(-0 142.641787 417.675522)">560</text>
     </g>
    </g>
    <g id="xtick_3">
     <g id="line2d_3">
      <g>
       <use xlink:href="#m5e58e6746f" x="200.103341" y="397.163023" style="stroke: #000000; stroke-width: 0.75"/>
      </g>
     </g>
     <g id="text_3">
      <text style="font: 14.5px &quot;Suisse Int&apos;l Mono&quot;; text-anchor: middle" x="200.103341" y="417.675522" transform="rotate(-0 200.103341 417.675522)">580</text>
     </g>
    </g>
    <g id="xtick_4">
     <g id="line2d_4">
      <g>
       <use xlink:href="#m5e58e6746f" x="257.564896" y="397.163023" style="stroke: #000000; stroke-width: 0.75"/>
      </g>
     </g>
     <g id="text_4">
      <text style="font: 14.5px &quot;Suisse Int&apos;l Mono&quot;; text-anchor: middle" x="257.564896" y="417.675522" transform="rotate(-0 257.564896 417.675522)">600</text>
     </g>
    </g>
    <g id="xtick_5">
     <g id="line2d_5">
      <g>
       <use xlink:href="#m5e58e6746f" x="315.02645" y="397.163023" style="stroke: #000000; stroke-width: 0.75"/>
      </g>
     </g>
     <g id="text_5">
      <text style="font: 14.5px &quot;Suisse Int&apos;l Mono&quot;; text-anchor: middle" x="315.02645" y="417.675522" transform="rotate(-0 315.02645 417.675522)">620</text>
     </g>
    </g>
    <g id="xtick_6">
     <g id="line2d_6">
      <g>
       <use xlink:href="#m5e58e6746f" x="372.488005" y="397.163023" style="stroke: #000000; stroke-width: 0.75"/>
      </g>
     </g>
     <g id="text_6">
      <text style="font: 14.5px &quot;Suisse Int&apos;l Mono&quot;; text-anchor: middle" x="372.488005" y="417.675522" transform="rotate(-0 372.488005 417.675522)">640</text>
     </g>
    </g>
    <g id="xtick_7">
     <g id="line2d_7">
      <g>
       <use xlink:href="#m5e58e6746f" x="429.949559" y="397.163023" style="stroke: #000000; stroke-width: 0.75"/>
      </g>
     </g>
     <g id="text_7">
      <text style="font: 14.5px &quot;Suisse Int&apos;l Mono&quot;; text-anchor: middle" x="429.949559" y="417.675522" transform="rotate(-0 429.949559 417.675522)">660</text>
     </g>
    </g>
    <g id="text_8">
     <text style="font: 500 15px &quot;Suisse Int&apos;l&quot;, sans-serif; text-anchor: middle" x="256.554758" y="441.088023" transform="rotate(-0 256.554758 441.088023)">Wavelength (nm)</text>
    </g>
   </g>
   <g id="matplotlib.axis_2">
    <g id="ytick_1">
     <g id="line2d_8">
      <defs>
       <path id="m9c954d3ec2" d="M 0 0 
L -5 0 
" style="stroke: #000000; stroke-width: 0.75"/>
      </defs>
      <g>
       <use xlink:href="#m9c954d3ec2" x="81.762344" y="382.883542" style="stroke: #000000; stroke-width: 0.75"/>
      </g>
     </g>
     <g id="text_9">
      <text style="font: 14.5px &quot;Suisse Int&apos;l Mono&quot;; text-anchor: end" x="71.762344" y="388.139792" transform="rotate(-0 71.762344 388.139792)">0.0</text>
     </g>
    </g>
    <g id="ytick_2">
     <g id="line2d_9">
      <g>
       <use xlink:href="#m9c954d3ec2" x="81.762344" y="335.523683" style="stroke: #000000; stroke-width: 0.75"/>
      </g>
     </g>
     <g id="text_10">
      <text style="font: 14.5px &quot;Suisse Int&apos;l Mono&quot;; text-anchor: end" x="71.762344" y="340.779933" transform="rotate(-0 71.762344 340.779933)">0.2</text>
     </g>
    </g>
    <g id="ytick_3">
     <g id="line2d_10">
      <g>
       <use xlink:href="#m9c954d3ec2" x="81.762344" y="288.163825" style="stroke: #000000; stroke-width: 0.75"/>
      </g>
     </g>
     <g id="text_11">
      <text style="font: 14.5px &quot;Suisse Int&apos;l Mono&quot;; text-anchor: end" x="71.762344" y="293.420075" transform="rotate(-0 71.762344 293.420075)">0.4</text>
     </g>
    </g>
    <g id="ytick_4">
     <g id="line2d_11">
      <g>
       <use xlink:href="#m9c954d3ec2" x="81.762344" y="240.803966" style="stroke: #000000; stroke-width: 0.75"/>
      </g>
     </g>
     <g id="text_12">
      <text style="font: 14.5px &quot;Suisse Int&apos;l Mono&quot;; text-anchor: end" x="71.762344" y="246.060216" transform="rotate(-0 71.762344 246.060216)">0.6</text>
     </g>
    </g>
    <g id="ytick_5">
     <g id="line2d_12">
      <g>
       <use xlink:href="#m9c954d3ec2" x="81.762344" y="193.444107" style="stroke: #000000; stroke-width: 0.75"/>
      </g>
     </g>
     <g id="text_13">
      <text style="font: 14.5px &quot;Suisse Int&apos;l Mono&quot;; text-anchor: end" x="71.762344" y="198.700357" transform="rotate(-0 71.762344 198.700357)">0.8</text>
     </g>
    </g>
    <g id="ytick_6">
     <g id="line2d_13">
      <g>
       <use xlink:href="#m9c954d3ec2" x="81.762344" y="146.084248" style="stroke: #000000; stroke-width: 0.75"/>
      </g>
     </g>
     <g id="text_14">
      <text style="font: 14.5px &quot;Suisse Int&apos;l Mono&quot;; text-anchor: end" x="71.762344" y="151.340498" transform="rotate(-0 71.762344 151.340498)">1.0</text>
     </g>
    </g>
    <g id="ytick_7">
     <g id="line2d_14">
      <g>
       <use xlink:href="#m9c954d3ec2" x="81.762344" y="98.72439" style="stroke: #000000; stroke-width: 0.75"/>
      </g>
     </g>
     <g id="text_15">
      <text style="font: 14.5px &quot;Suisse Int&apos;l Mono&quot;; text-anchor: end" x="71.762344" y="103.98064" transform="rotate(-0 71.762344 103.98064)">1.2</text>
     </g>
    </g>
    <g id="ytick_8">
     <g id="line2d_15">
      <g>
       <use xlink:href="#m9c954d3ec2" x="81.762344" y="51.364531" style="stroke: #000000; stroke-width: 0.75"/>
      </g>
     </g>
     <g id="text_16">
      <text style="font: 14.5px &quot;Suisse Int&apos;l Mono&quot;; text-anchor: end" x="71.762344" y="56.620781" transform="rotate(-0 71.762344 56.620781)">1.4</text>
     </g>
    </g>
    <g id="text_17">
     <text style="font: 500 15px &quot;Suisse Int&apos;l&quot;, sans-serif; text-anchor: middle" x="30.875" y="208.581511" transform="rotate(-90 30.875 208.581511)">Intensity (au)</text>
    </g>
   </g>
   <g id="line2d_16">
    <path d="M 94.70993 382.357057 
L 94.868059 382.302309 
L 95.026188 382.412487 
L 95.184316 382.074612 
L 95.342445 382.509989 
L 95.500574 382.060101 
L 95.658703 382.087172 
L 95.816832 381.43855 
L 95.97496 381.463812 
L 96.291218 381.792565 
L 96.449347 382.204454 
L 96.607476 382.20623 
L 96.765604 382.348925 
L 96.923733 382.780689 
L 97.081862 382.338023 
L 97.239991 382.24766 
L 97.39812 381.783316 
L 97.556248 382.000082 
L 97.714377 381.886231 
L 97.872506 382.778689 
L 98.030635 382.827437 
L 98.188764 382.153518 
L 98.346892 382.332343 
L 98.505021 381.909552 
L 98.66315 382.287109 
L 98.979408 381.797436 
L 99.137536 381.936515 
L 99.295665 381.136129 
L 99.453794 381.786493 
L 99.770052 382.185694 
L 100.086309 381.683371 
L 100.244438 381.986852 
L 100.718824 381.560371 
L 101.193211 382.011926 
L 101.35134 381.84206 
L 101.509468 382.373181 
L 101.667597 381.758879 
L 101.825726 381.9377 
L 101.983855 380.971097 
L 102.141984 381.390203 
L 102.300112 380.963791 
L 102.458241 381.227523 
L 102.61637 381.211224 
L 103.090756 382.410728 
L 103.248885 382.16498 
L 103.565143 382.62921 
L 103.723272 382.323843 
L 103.8814 381.628238 
L 104.039529 381.796213 
L 104.197658 381.561306 
L 104.513916 383.011971 
L 104.672044 383.082388 
L 104.830173 382.657778 
L 104.988302 382.910668 
L 105.146431 382.827518 
L 105.462688 381.884354 
L 105.620817 381.810236 
L 105.778946 382.052285 
L 105.937075 381.93842 
L 106.095204 381.419863 
L 106.727719 382.743964 
L 106.885848 382.548799 
L 107.202105 381.499034 
L 107.360234 381.242441 
L 107.676492 381.638006 
L 107.83462 381.547625 
L 107.992749 381.746309 
L 108.150878 381.757102 
L 108.467136 382.598909 
L 108.625264 382.098415 
L 108.941522 382.535527 
L 109.415908 382.150548 
L 109.574037 382.311285 
L 109.732166 381.848723 
L 109.890295 382.038366 
L 110.048424 382.464683 
L 110.206552 382.218918 
L 110.364681 382.327261 
L 110.52281 382.226032 
L 110.680939 382.493359 
L 110.839068 382.303602 
L 111.155325 382.366718 
L 111.313454 381.736133 
L 111.471583 381.936615 
L 111.629712 381.941976 
L 111.945969 382.525406 
L 112.262227 382.310293 
L 112.420356 381.96516 
L 112.578484 381.907286 
L 112.894742 382.709323 
L 113.052871 382.714681 
L 113.211 382.958518 
L 113.527257 382.396519 
L 113.685386 381.44796 
L 114.001644 382.338516 
L 114.47603 381.877625 
L 114.634159 382.06726 
L 114.792288 382.012995 
L 114.950416 381.631724 
L 115.266674 381.898979 
L 115.582932 383.194022 
L 115.74106 383.135305 
L 115.899189 382.310639 
L 116.057318 382.350329 
L 116.215447 382.673664 
L 116.531704 381.992438 
L 116.689833 381.405213 
L 116.847962 381.963416 
L 117.006091 381.986845 
L 117.16422 382.304759 
L 117.322348 381.757282 
L 117.480477 381.777097 
L 117.638606 381.641539 
L 117.796735 381.742655 
L 117.954864 381.654071 
L 118.112992 381.77867 
L 118.271121 381.706344 
L 118.42925 382.280805 
L 118.587379 382.058526 
L 118.903636 382.228233 
L 119.061765 382.683454 
L 119.536152 381.736583 
L 119.69428 382.101467 
L 119.852409 381.871961 
L 120.010538 382.13748 
L 120.168667 381.998308 
L 120.326796 382.128327 
L 120.484924 381.884365 
L 120.643053 381.846366 
L 120.801182 382.603295 
L 121.275568 382.713318 
L 121.433697 382.449484 
L 121.591826 382.453035 
L 121.749955 381.970594 
L 121.908084 382.151198 
L 122.066213 381.822322 
L 122.224341 381.836714 
L 122.38247 382.398523 
L 122.698728 382.378524 
L 122.856857 382.627781 
L 123.173114 382.257289 
L 123.331243 382.629398 
L 123.647501 382.75393 
L 123.805629 382.132374 
L 124.121887 382.15212 
L 124.438145 381.839437 
L 124.596273 381.608122 
L 124.754402 382.151862 
L 124.912531 381.671226 
L 125.07066 382.233032 
L 125.228789 382.086628 
L 125.386917 382.175088 
L 125.545046 381.754073 
L 125.703175 381.896732 
L 126.019433 381.699677 
L 126.33569 382.702244 
L 126.493819 382.245093 
L 126.651948 382.553966 
L 127.126334 381.126503 
L 127.600721 381.980856 
L 127.758849 382.643834 
L 127.916978 382.255336 
L 128.075107 382.309468 
L 128.707622 381.823207 
L 129.02388 381.176289 
L 129.340137 382.326998 
L 129.498266 381.882492 
L 129.814524 382.070249 
L 129.972653 382.764655 
L 130.28891 381.591709 
L 130.605168 382.240165 
L 130.763297 382.897721 
L 131.079554 382.964429 
L 131.237683 383.04024 
L 131.395812 381.708659 
L 131.870198 381.975838 
L 132.028327 382.340715 
L 132.186456 382.201533 
L 132.344585 382.64229 
L 132.660842 381.995367 
L 132.818971 382.119956 
L 132.9771 381.794688 
L 133.135229 382.435985 
L 133.451486 381.545162 
L 133.609615 381.734793 
L 133.767744 381.64981 
L 134.084001 381.9008 
L 134.400259 381.617016 
L 134.716517 382.261858 
L 134.874645 382.92664 
L 135.032774 382.189453 
L 135.190903 382.135183 
L 135.349032 381.891215 
L 135.665289 382.004899 
L 135.823418 382.013864 
L 135.981547 381.533223 
L 136.297805 381.507792 
L 136.614062 382.365819 
L 136.772191 382.165953 
L 136.93032 382.180857 
L 137.246577 382.755239 
L 137.562835 382.330536 
L 137.720964 382.386474 
L 137.879093 381.562566 
L 138.037221 382.109918 
L 138.19535 381.884015 
L 138.353479 382.252505 
L 138.511608 382.250632 
L 138.669737 382.508915 
L 138.827865 382.147514 
L 138.985994 382.198032 
L 139.144123 381.973937 
L 139.302252 382.434568 
L 139.460381 382.156271 
L 139.618509 382.562701 
L 139.934767 382.011533 
L 140.092896 382.069276 
L 140.409153 382.849619 
L 140.567282 382.786314 
L 140.725411 382.072615 
L 140.88354 381.89007 
L 141.041669 381.252248 
L 141.357926 381.925991 
L 141.516055 381.785 
L 141.674184 382.180589 
L 141.832313 381.705365 
L 141.990441 382.236453 
L 142.14857 382.267097 
L 142.306699 382.594031 
L 142.464828 382.633708 
L 142.622957 382.391545 
L 142.939214 381.222491 
L 143.255472 381.702922 
L 143.413601 382.45081 
L 143.729858 382.974601 
L 144.046116 381.79471 
L 144.204245 382.038539 
L 144.362373 381.756629 
L 144.520502 382.645436 
L 144.678631 382.224413 
L 144.83676 382.175563 
L 144.994889 381.97134 
L 145.469275 382.869039 
L 145.627404 382.72263 
L 145.785533 382.419041 
L 145.943661 382.451491 
L 146.418048 382.008647 
L 146.576177 382.263315 
L 146.734305 382.290344 
L 146.892434 382.723873 
L 147.208692 382.282908 
L 147.366821 382.694756 
L 147.524949 381.979249 
L 147.841207 382.223008 
L 147.999336 382.016977 
L 148.157465 382.380046 
L 148.315593 382.04755 
L 148.631851 382.69239 
L 148.78998 381.855833 
L 148.948109 381.642578 
L 149.264366 382.305483 
L 149.422495 382.243988 
L 149.738753 381.253797 
L 149.896881 381.035121 
L 150.213139 382.225573 
L 150.529397 381.697889 
L 150.845654 383.193904 
L 151.003783 382.979813 
L 151.320041 381.912557 
L 151.794427 382.345598 
L 151.952556 382.365413 
L 152.426942 381.364351 
L 152.585071 381.338998 
L 153.059457 382.514965 
L 153.217586 382.072277 
L 153.375715 382.025246 
L 153.533844 381.699989 
L 153.691973 381.661994 
L 153.850101 382.28343 
L 154.166359 382.38991 
L 154.324488 381.786428 
L 154.482617 382.290431 
L 154.640745 382.219914 
L 154.798874 382.776311 
L 154.957003 382.537775 
L 155.115132 382.501584 
L 155.273261 382.210654 
L 155.431389 382.873643 
L 155.589518 381.988319 
L 155.747647 382.167118 
L 155.905776 381.702746 
L 156.063905 382.091117 
L 156.222033 381.92665 
L 156.538291 382.186689 
L 156.69642 381.998736 
L 156.854549 382.443115 
L 157.012677 382.495449 
L 157.170806 382.697736 
L 157.328935 382.312855 
L 157.487064 382.927062 
L 157.803321 382.858286 
L 157.96145 382.408364 
L 158.119579 382.552832 
L 158.277708 382.359456 
L 158.435837 381.893273 
L 158.752094 381.911213 
L 158.910223 382.115302 
L 159.068352 381.804492 
L 159.226481 381.925474 
L 159.384609 382.483671 
L 159.700867 382.261326 
L 159.858996 381.876443 
L 160.017125 382.573752 
L 160.175253 382.575496 
L 160.333382 382.860888 
L 160.491511 382.891538 
L 160.64964 382.41271 
L 160.807769 382.831794 
L 160.965898 382.732365 
L 161.124026 382.784696 
L 161.440284 382.264254 
L 161.756542 383.044111 
L 162.230928 381.82443 
L 162.389057 382.46754 
L 162.547186 382.115182 
L 162.863443 382.021113 
L 163.179701 381.603655 
L 163.495958 382.570099 
L 163.654087 382.185221 
L 163.812216 382.242975 
L 163.970345 382.647607 
L 164.128474 382.481334 
L 164.444731 382.385464 
L 164.60286 382.992444 
L 165.393504 381.713036 
L 165.709762 382.126646 
L 165.86789 382.771568 
L 166.026019 382.686598 
L 166.500406 382.193208 
L 166.658534 382.514737 
L 167.132921 381.461284 
L 167.29105 381.986965 
L 167.449178 381.800825 
L 167.607307 382.407807 
L 167.765436 382.293931 
L 168.081694 382.72742 
L 168.239822 382.391327 
L 168.397951 382.450892 
L 168.55608 382.033498 
L 168.714209 382.047897 
L 168.872338 381.693736 
L 169.188595 382.409065 
L 169.504853 381.794693 
L 169.662982 382.096353 
L 169.82111 381.729547 
L 169.979239 382.257039 
L 170.137368 382.135938 
L 170.295497 382.715825 
L 170.453626 382.567625 
L 170.611754 383.013819 
L 170.769883 382.403115 
L 170.928012 382.507849 
L 171.24427 382.298172 
L 171.402398 382.543826 
L 171.560527 382.187863 
L 171.718656 382.462426 
L 171.876785 382.25822 
L 172.034914 383.106586 
L 172.193042 383.043588 
L 172.351171 383.193739 
L 172.5093 382.575564 
L 172.825558 382.27737 
L 172.983686 382.60433 
L 173.141815 382.387484 
L 173.299944 382.522937 
L 173.458073 382.208531 
L 173.616202 382.390958 
L 173.77433 382.226507 
L 173.932459 382.564307 
L 174.090588 382.132467 
L 174.248717 382.426907 
L 174.406846 382.396151 
L 174.723103 383.100657 
L 174.881232 383.030153 
L 175.039361 382.600121 
L 175.355618 382.710239 
L 175.513747 382.240251 
L 175.988134 382.435236 
L 176.146262 382.563467 
L 176.46252 381.962407 
L 176.620649 381.888291 
L 176.778778 382.415793 
L 177.095035 382.011014 
L 177.253164 381.983872 
L 177.411293 382.522215 
L 177.569422 382.374025 
L 177.885679 382.373941 
L 178.043808 382.182393 
L 178.518194 382.975393 
L 178.676323 382.926572 
L 178.992581 381.457674 
L 179.308838 381.804472 
L 179.466967 382.54155 
L 180.099482 382.438411 
L 180.41574 382.956844 
L 180.890126 381.851051 
L 181.206384 382.149073 
L 181.364513 382.040635 
L 181.68077 382.736125 
L 181.997028 381.83091 
L 182.471414 383.193688 
L 182.629543 382.535364 
L 182.945801 382.040273 
L 183.10393 382.58224 
L 183.262058 382.260622 
L 183.420187 382.491844 
L 183.578316 381.989559 
L 184.052702 382.880151 
L 184.36896 382.547663 
L 184.527089 382.20256 
L 184.685218 382.625289 
L 184.843346 382.2296 
L 185.001475 382.240409 
L 185.159604 381.765228 
L 185.317733 381.743518 
L 185.475862 381.898863 
L 185.792119 381.374872 
L 185.950248 381.640421 
L 186.108377 381.495859 
L 186.582763 382.820059 
L 186.740892 382.652011 
L 186.899021 382.147924 
L 187.05715 382.299655 
L 187.215278 382.713353 
L 187.373407 382.608537 
L 187.531536 382.326672 
L 187.689665 382.373617 
L 187.847794 382.001418 
L 188.005922 382.227224 
L 188.164051 382.153122 
L 188.480309 382.716748 
L 188.796566 382.693208 
L 188.954695 382.134922 
L 189.270953 380.407699 
L 189.429082 379.820507 
L 189.58721 379.824106 
L 189.745339 379.254982 
L 189.903468 379.912573 
L 190.061597 379.824009 
L 190.219726 380.23592 
L 190.377854 379.845651 
L 190.535983 379.921497 
L 190.694112 381.215047 
L 191.01037 381.90514 
L 191.326627 382.091178 
L 191.484756 382.709031 
L 191.642885 382.161588 
L 191.801014 382.53735 
L 192.117271 381.930263 
L 192.2754 382.21027 
L 192.433529 382.210248 
L 192.591658 382.096403 
L 192.749786 381.828992 
L 192.907915 381.928335 
L 193.224173 382.540737 
L 193.54043 382.040619 
L 193.698559 382.474188 
L 193.856688 382.170641 
L 194.014817 382.725257 
L 194.172946 382.727037 
L 194.331074 382.445169 
L 194.489203 382.470434 
L 194.647332 382.269866 
L 195.121718 382.712411 
L 195.437976 382.464842 
L 195.596105 381.948109 
L 195.754234 382.392518 
L 195.912362 382.284091 
L 196.070491 382.939881 
L 196.22862 382.914559 
L 196.386749 383.193618 
L 196.703006 382.065348 
L 197.019264 382.822287 
L 197.177393 383.193613 
L 197.335522 383.067146 
L 197.49365 382.616259 
L 197.651779 382.587333 
L 197.809908 382.079644 
L 197.968037 382.256682 
L 198.284294 381.98565 
L 198.442423 382.007314 
L 198.600552 381.804951 
L 198.758681 382.70104 
L 198.91681 382.672116 
L 199.074938 382.093967 
L 199.233067 382.068657 
L 199.549325 382.88343 
L 199.707454 382.6359 
L 199.865583 381.812046 
L 200.18184 381.844533 
L 200.498098 382.803839 
L 200.656227 382.489463 
L 200.814355 381.622249 
L 200.972484 381.772184 
L 201.130613 382.310554 
L 201.446871 381.920283 
L 201.604999 381.347554 
L 201.921257 382.2364 
L 202.079386 382.129789 
L 202.237515 382.592279 
L 202.395643 382.174922 
L 202.553772 382.192972 
L 202.711901 382.048421 
L 202.87003 382.411545 
L 203.028159 382.194728 
L 203.186287 382.310338 
L 203.344416 382.584934 
L 203.502545 382.563237 
L 203.660674 382.87085 
L 203.818803 382.290895 
L 204.13506 382.148134 
L 204.293189 382.487769 
L 204.767575 381.792152 
L 205.083833 381.289865 
L 205.241962 381.302493 
L 205.400091 381.08929 
L 205.558219 380.612311 
L 205.716348 380.926654 
L 205.874477 380.680934 
L 206.032606 380.845316 
L 206.506992 379.47761 
L 206.665121 380.03404 
L 206.981379 382.200203 
L 207.139507 381.59495 
L 207.297636 381.591319 
L 207.772023 382.501816 
L 208.08828 382.039272 
L 208.246409 382.086226 
L 208.404538 381.916378 
L 208.562667 382.73297 
L 208.720795 382.640809 
L 208.878924 382.978634 
L 209.037053 382.44926 
L 209.353311 382.711184 
L 209.511439 382.060764 
L 209.669568 382.185402 
L 209.827697 381.946901 
L 209.985826 381.939652 
L 210.143955 382.197982 
L 210.618341 381.843807 
L 210.77647 382.467083 
L 210.934599 381.921449 
L 211.092727 382.100286 
L 211.250856 381.697375 
L 211.408985 382.15263 
L 211.725243 382.284468 
L 211.883371 382.391038 
L 212.199629 381.359384 
L 212.357758 381.386459 
L 212.515887 381.682727 
L 213.148402 381.736823 
L 213.306531 381.238156 
L 213.464659 381.561523 
L 213.939046 379.050183 
L 214.097175 373.935482 
L 214.255303 356.826377 
L 214.571561 85.470486 
L 214.887819 50.289213 
L 215.045947 43.059729 
L 215.204076 41.046934 
L 215.520334 33.969001 
L 215.678463 34.077927 
L 215.836591 54.935208 
L 216.310978 363.689468 
L 216.627235 377.035237 
L 216.785364 379.392904 
L 217.259751 380.740573 
L 217.576008 380.661219 
L 217.892266 381.257342 
L 218.050395 382.059466 
L 218.366652 382.253523 
L 218.524781 381.829262 
L 218.68291 381.780445 
L 218.841039 381.957461 
L 218.999167 381.675583 
L 219.315425 382.228346 
L 219.473554 382.208432 
L 219.631683 381.487536 
L 219.789811 381.315862 
L 219.94794 381.57779 
L 220.106069 382.067354 
L 220.264198 381.664427 
L 220.422327 381.807112 
L 220.580455 381.068145 
L 220.896713 382.175547 
L 221.054842 382.065297 
L 221.212971 381.561195 
L 221.371099 381.510566 
L 221.845486 382.059657 
L 222.161743 382.16616 
L 222.478001 382.731554 
L 222.63613 381.040472 
L 223.268645 357.080394 
L 223.584903 355.797412 
L 223.743031 355.530065 
L 224.059289 355.408821 
L 224.217418 356.56511 
L 224.849933 381.260179 
L 225.166191 381.816519 
L 225.482448 382.766712 
L 225.798706 382.631098 
L 225.956835 382.014966 
L 226.114963 382.231707 
L 226.273092 382.056403 
L 226.431221 382.728421 
L 226.58935 382.791595 
L 226.747479 383.167319 
L 227.063736 382.654105 
L 227.221865 382.177085 
L 227.379994 382.155341 
L 227.538123 382.444345 
L 227.696251 382.115468 
L 227.85438 382.621269 
L 228.012509 382.613979 
L 228.170638 382.787355 
L 228.486895 382.523451 
L 228.803153 381.574818 
L 228.961282 381.984862 
L 229.119411 381.625269 
L 229.277539 380.929636 
L 229.435668 381.579966 
L 229.910055 380.41806 
L 230.226312 380.548013 
L 230.54257 381.799882 
L 230.700699 382.105134 
L 231.016956 381.066154 
L 231.175085 381.313594 
L 231.333214 381.317132 
L 231.491343 381.707295 
L 231.649471 381.719865 
L 231.965729 382.384562 
L 232.123858 381.974372 
L 232.281987 381.920094 
L 232.598244 382.167449 
L 232.756373 382.611808 
L 232.914502 382.613533 
L 233.072631 382.114813 
L 233.230759 382.196031 
L 233.388888 382.06045 
L 233.547017 382.705345 
L 234.021403 382.065534 
L 234.49579 382.842143 
L 234.653919 382.132037 
L 234.970176 381.945776 
L 235.128305 382.44252 
L 235.286434 382.453271 
L 235.444563 383.121646 
L 235.602691 382.467544 
L 235.76082 382.465646 
L 235.918949 382.805207 
L 236.235207 382.534024 
L 236.393335 383.095803 
L 236.709593 382.616849 
L 236.867722 381.904929 
L 237.025851 382.506452 
L 237.183979 382.571398 
L 237.342108 382.303915 
L 237.500237 382.731997 
L 237.816495 382.157282 
L 237.974624 382.025298 
L 238.290881 383.000696 
L 238.765268 382.225333 
L 238.923396 382.286544 
L 239.081525 382.689326 
L 239.239654 382.636828 
L 239.397783 382.889652 
L 239.555912 382.909416 
L 240.030298 382.303849 
L 240.504684 382.75337 
L 240.662813 380.610559 
L 240.820942 373.475937 
L 241.1372 338.133662 
L 241.453457 332.731557 
L 241.611586 333.360257 
L 241.769715 331.889495 
L 241.927844 331.535241 
L 242.244101 333.75902 
L 242.40223 342.230276 
L 242.718488 376.247722 
L 242.876616 380.789555 
L 243.034745 381.114629 
L 243.351003 380.747636 
L 243.66726 382.539585 
L 243.825389 383.067004 
L 243.983518 382.947637 
L 244.141647 383.055909 
L 244.299776 382.577014 
L 244.457904 382.575081 
L 244.616033 382.139544 
L 244.774162 382.61818 
L 245.09042 381.920548 
L 245.406677 381.730582 
L 245.564806 382.229088 
L 245.722935 381.730317 
L 246.039192 382.515945 
L 246.197321 382.205064 
L 246.671708 382.576826 
L 246.829836 382.325561 
L 246.987965 381.709351 
L 247.304223 381.598863 
L 247.462352 381.987156 
L 247.778609 381.992289 
L 248.094867 381.52227 
L 248.252996 381.654012 
L 248.411124 382.159734 
L 248.569253 382.074674 
L 248.885511 382.72478 
L 249.04364 382.462666 
L 249.201768 382.565496 
L 249.518026 380.22558 
L 250.150541 369.213365 
L 250.466799 368.586128 
L 250.624928 368.616697 
L 250.783056 368.099834 
L 251.099314 369.992899 
L 251.5737 381.985064 
L 251.731829 382.59556 
L 251.889958 382.716447 
L 252.048087 382.667508 
L 252.206216 382.304207 
L 252.364344 382.376313 
L 252.522473 382.256912 
L 252.680602 382.321789 
L 252.838731 382.711866 
L 252.99686 382.659309 
L 253.154988 382.473058 
L 253.313117 382.053748 
L 253.471246 382.096941 
L 253.629375 382.255763 
L 253.787504 382.226689 
L 254.578148 381.046095 
L 254.894405 382.066517 
L 255.368792 382.66581 
L 255.52692 382.634922 
L 255.685049 381.980734 
L 256.317564 381.965571 
L 256.475693 382.666379 
L 256.633822 382.454819 
L 256.791951 382.600979 
L 257.108208 382.017066 
L 257.266337 381.96449 
L 257.424466 381.601169 
L 257.582595 381.602792 
L 257.898852 382.297991 
L 258.056981 382.151464 
L 258.373239 382.273947 
L 258.531368 382.03528 
L 258.689496 382.365713 
L 258.847625 382.428759 
L 259.005754 382.220802 
L 259.322012 382.482391 
L 259.48014 383.188605 
L 259.638269 382.733136 
L 259.796398 383.193058 
L 259.954527 382.647841 
L 260.112656 382.895162 
L 260.270784 382.58061 
L 260.428913 382.782764 
L 260.587042 382.417623 
L 260.745171 382.984723 
L 261.061428 382.079195 
L 261.377686 382.517822 
L 261.535815 382.985553 
L 261.693944 382.862502 
L 262.010201 382.009362 
L 262.16833 382.534903 
L 262.326459 382.397397 
L 262.484588 382.760336 
L 262.958974 382.009966 
L 263.117103 382.029638 
L 263.275232 382.627441 
L 263.43336 382.459218 
L 263.907747 382.881365 
L 264.065876 382.50176 
L 264.224004 382.591886 
L 264.382133 381.890694 
L 264.540262 381.827253 
L 264.85652 382.580215 
L 265.014648 382.294553 
L 265.172777 380.357597 
L 265.647164 367.392357 
L 265.805292 366.029931 
L 265.963421 365.684629 
L 266.279679 366.578519 
L 266.437808 365.66594 
L 266.595936 365.934919 
L 266.754065 366.693504 
L 267.38658 381.868596 
L 267.544709 381.340832 
L 267.702838 381.8519 
L 267.860967 381.853263 
L 268.019096 382.376976 
L 268.177224 381.988325 
L 268.335353 382.129025 
L 268.493482 382.002338 
L 268.80974 382.281926 
L 268.967868 382.287125 
L 269.284126 382.796157 
L 269.442255 382.449055 
L 269.758512 382.584105 
L 269.916641 382.910887 
L 270.07477 382.914274 
L 270.549156 382.185507 
L 270.707285 382.468926 
L 271.023543 382.24083 
L 271.3398 381.862777 
L 271.497929 381.994433 
L 271.656058 381.958069 
L 271.814187 382.70218 
L 271.972316 382.3912 
L 272.288573 382.589463 
L 272.446702 382.289321 
L 272.76296 382.623081 
L 272.921088 381.878499 
L 273.237346 382.152636 
L 273.553604 382.184678 
L 273.711732 382.175406 
L 273.869861 381.78854 
L 274.02799 381.849725 
L 274.186119 382.514336 
L 274.344248 382.597202 
L 274.502376 382.208527 
L 274.660505 381.427808 
L 274.976763 382.059653 
L 275.29302 381.898373 
L 275.451149 381.511502 
L 275.609278 382.004476 
L 275.767407 382.092758 
L 275.925536 381.873542 
L 276.558051 382.528372 
L 276.71618 382.571484 
L 276.874309 382.910887 
L 277.032437 382.822114 
L 277.190566 382.460531 
L 277.348695 382.4928 
L 277.506824 382.358858 
L 277.664953 382.412808 
L 277.823081 379.971761 
L 277.98121 373.276022 
L 278.297468 335.08993 
L 278.455597 329.25401 
L 278.613725 328.778752 
L 278.771854 329.051306 
L 278.929983 329.027624 
L 279.088112 328.44557 
L 279.246241 328.584332 
L 279.404369 328.305854 
L 279.562498 336.085183 
L 279.878756 374.223268 
L 280.036885 379.83271 
L 280.353142 381.861068 
L 280.6694 382.422425 
L 280.827529 381.941595 
L 280.985657 381.883634 
L 281.143786 382.483187 
L 281.460044 382.759088 
L 281.618173 382.4806 
L 281.776301 383.118092 
L 281.93443 382.39336 
L 282.092559 382.698424 
L 282.250688 381.756891 
L 282.408817 381.84877 
L 282.725074 382.840103 
L 282.883203 382.713373 
L 283.357589 381.514762 
L 283.515718 381.545212 
L 283.673847 381.931572 
L 283.831976 381.515774 
L 283.990105 380.507397 
L 284.148233 376.733004 
L 284.306362 359.975947 
L 284.464491 305.741424 
L 284.62262 294.006832 
L 284.938877 288.962293 
L 285.097006 287.964655 
L 285.413264 289.042798 
L 285.571393 288.991884 
L 285.729521 293.211882 
L 285.88765 310.839219 
L 286.203908 374.483832 
L 286.520165 380.342314 
L 286.994552 382.493224 
L 287.310809 381.676068 
L 287.468938 382.118426 
L 287.627067 381.890514 
L 287.785196 382.186532 
L 287.943325 381.543087 
L 288.417711 382.9623 
L 288.57584 382.794004 
L 288.733969 383.192731 
L 289.050226 382.433653 
L 289.208355 381.987133 
L 289.366484 382.60293 
L 289.524613 382.638787 
L 289.84087 381.930024 
L 289.998999 382.141126 
L 290.157128 381.745191 
L 290.315257 381.772014 
L 290.473385 382.187268 
L 290.631514 382.011744 
L 290.789643 382.416159 
L 291.105901 382.157249 
L 291.264029 382.534563 
L 291.580287 382.609885 
L 291.896545 381.83788 
L 292.054673 382.032719 
L 292.212802 382.447971 
L 292.52906 382.177611 
L 293.003446 382.352013 
L 293.319704 382.781433 
L 293.477833 382.600483 
L 293.79409 380.357852 
L 293.952219 379.788467 
L 294.110348 380.462064 
L 294.268477 380.420219 
L 294.584734 380.717754 
L 294.742863 380.491632 
L 294.900992 379.533824 
L 295.059121 380.019545 
L 295.375378 382.013519 
L 295.533507 381.94458 
L 295.691636 382.305626 
L 295.849765 381.873548 
L 296.007893 381.889523 
L 296.324151 382.673041 
L 296.640409 382.636333 
L 296.798537 383.192634 
L 297.431053 382.120007 
L 297.589181 377.351947 
L 297.74731 357.7367 
L 297.905439 273.537026 
L 298.063568 248.823229 
L 298.221697 242.136489 
L 298.379825 241.651996 
L 298.537954 240.54259 
L 298.696083 240.638018 
L 298.854212 239.4777 
L 299.012341 239.295126 
L 299.170469 245.923373 
L 299.328598 266.905684 
L 299.644856 368.916519 
L 299.961113 379.896851 
L 300.277371 381.056151 
L 300.4355 381.135359 
L 300.593629 381.716815 
L 300.751757 381.718336 
L 300.909886 381.553641 
L 301.068015 380.624737 
L 301.384273 381.111953 
L 301.70053 381.937022 
L 301.858659 382.028875 
L 302.174917 382.772644 
L 302.333045 383.1373 
L 302.965561 381.763082 
L 303.123689 381.695947 
L 303.281818 381.802252 
L 303.439947 380.869725 
L 303.598076 375.790902 
L 303.914333 345.805265 
L 304.072462 341.165417 
L 304.230591 340.812822 
L 304.546849 339.587382 
L 304.863106 340.110705 
L 305.021235 340.963181 
L 305.179364 347.470423 
L 305.495621 375.445983 
L 305.65375 380.865683 
L 305.811879 382.12825 
L 305.970008 381.983429 
L 306.128137 381.316482 
L 306.286265 381.26922 
L 306.444394 381.382751 
L 306.602523 381.917234 
L 306.760652 381.93682 
L 306.918781 382.35929 
L 307.235038 381.88175 
L 307.393167 382.165098 
L 307.709425 382.119316 
L 307.867553 382.563446 
L 308.025682 382.561329 
L 308.183811 381.73176 
L 308.34194 381.632085 
L 308.658197 382.514924 
L 308.816326 382.052108 
L 308.974455 381.981338 
L 309.132584 381.417352 
L 309.290713 381.751275 
L 309.448841 381.539586 
L 309.765099 382.731365 
L 310.081357 381.670463 
L 310.239485 381.740613 
L 310.397614 381.738499 
L 310.555743 381.951377 
L 310.713872 381.699944 
L 310.872001 381.889337 
L 311.188258 382.647519 
L 311.504516 382.881772 
L 311.662645 382.937472 
L 311.820773 382.628227 
L 312.137031 382.988946 
L 312.453289 381.868205 
L 312.611417 382.227425 
L 312.769546 382.133175 
L 312.927675 382.329794 
L 313.243933 383.192453 
L 313.56019 383.034989 
L 314.034577 381.852538 
L 314.192705 382.269578 
L 314.350834 382.187983 
L 314.508963 382.315958 
L 314.667092 382.232555 
L 314.825221 382.924212 
L 315.299607 381.655049 
L 315.457736 381.9113 
L 315.615865 382.469264 
L 315.773994 382.546656 
L 316.090251 381.929997 
L 316.406509 381.822819 
L 316.564638 382.304906 
L 316.880895 382.284451 
L 317.197153 382.450082 
L 317.51341 382.478408 
L 317.829668 382.89517 
L 317.987797 382.528494 
L 318.145926 382.60589 
L 318.304054 382.300278 
L 318.620312 382.633937 
L 318.778441 382.546931 
L 318.93657 379.632506 
L 319.410956 352.779319 
L 319.569085 352.863855 
L 319.727214 353.17785 
L 319.885342 353.025823 
L 320.043471 352.264985 
L 320.2016 352.640548 
L 320.359729 353.303347 
L 320.517858 355.767242 
L 320.992244 379.890787 
L 321.150373 381.684526 
L 321.624759 382.677357 
L 321.941017 381.712047 
L 322.099146 381.89605 
L 322.415403 382.818705 
L 322.731661 382.460439 
L 322.88979 382.098833 
L 323.364176 382.229904 
L 323.522305 381.506968 
L 324.312949 383.070194 
L 324.471078 382.988628 
L 324.629206 382.617997 
L 324.787335 381.947458 
L 325.103593 382.458217 
L 325.41985 382.81541 
L 325.577979 382.312894 
L 325.736108 382.661319 
L 325.894237 381.98356 
L 326.052366 382.462066 
L 326.210494 381.538602 
L 326.368623 382.363988 
L 326.526752 382.242684 
L 327.159267 382.639126 
L 327.317396 383.011044 
L 327.475525 382.533833 
L 327.633654 382.703406 
L 327.791782 382.470095 
L 327.949911 383.072136 
L 328.266169 382.55147 
L 328.424298 382.161946 
L 328.582426 382.58223 
L 328.740555 382.14477 
L 328.898684 382.373972 
L 329.056813 382.272554 
L 329.214942 382.36445 
L 329.37307 382.284714 
L 329.531199 382.521145 
L 329.689328 382.159572 
L 329.847457 382.921743 
L 330.005586 382.164514 
L 330.163714 382.583423 
L 330.321843 382.507307 
L 330.479972 382.816009 
L 330.638101 382.32617 
L 330.79623 382.441563 
L 330.954358 382.242598 
L 331.270616 382.43545 
L 331.586874 382.014039 
L 331.745002 382.109565 
L 331.903131 381.934093 
L 332.06126 382.30604 
L 332.219389 382.32569 
L 332.377518 382.159255 
L 332.535646 381.70556 
L 332.851904 381.802681 
L 333.010033 379.132216 
L 333.168162 368.93881 
L 333.484419 303.157669 
L 333.642548 294.901186 
L 333.958806 293.113823 
L 334.275063 293.590497 
L 334.433192 294.848137 
L 334.591321 298.728803 
L 334.74945 311.022947 
L 335.065707 369.728212 
L 335.381965 380.197438 
L 335.540094 381.243285 
L 335.698222 381.459886 
L 336.01448 382.239974 
L 336.330738 382.873724 
L 336.646995 382.811915 
L 336.805124 382.280567 
L 336.963253 382.390585 
L 337.121382 382.227798 
L 337.27951 382.261938 
L 337.753897 382.821453 
L 338.228283 382.007915 
L 338.386412 381.928245 
L 338.70267 381.964027 
L 338.860798 381.799448 
L 339.493314 382.732806 
L 339.651442 382.678438 
L 339.809571 383.075736 
L 340.125829 383.183806 
L 340.442086 382.357836 
L 340.758344 382.841703 
L 340.916473 382.749405 
L 341.23273 382.142055 
L 341.548988 382.159815 
L 342.181503 382.795162 
L 342.339632 382.233144 
L 342.497761 382.167959 
L 342.65589 382.955521 
L 342.814018 383.054745 
L 342.972147 382.626425 
L 343.130276 382.787079 
L 343.446534 381.607054 
L 343.604662 380.867993 
L 343.92092 382.428683 
L 344.079049 379.807079 
L 344.237178 371.324667 
L 344.553435 348.61476 
L 344.869693 346.569286 
L 345.027822 345.998125 
L 345.18595 345.895116 
L 345.502208 347.593202 
L 345.660337 351.625419 
L 346.292852 381.039335 
L 346.60911 381.846691 
L 346.767238 382.03809 
L 346.925367 382.827495 
L 347.399754 381.734149 
L 347.557882 382.315793 
L 347.716011 382.030238 
L 347.87414 382.362566 
L 348.190398 381.786045 
L 348.506655 381.513051 
L 348.664784 382.06399 
L 348.822913 383.192164 
L 348.981042 383.192164 
L 349.297299 382.842311 
L 349.613557 383.035562 
L 349.929814 382.058083 
L 350.087943 382.059854 
L 350.246072 382.258554 
L 350.404201 382.036301 
L 350.56233 382.03085 
L 350.720458 382.444548 
L 351.194845 381.891628 
L 351.352974 381.956644 
L 351.511102 381.230342 
L 351.669231 381.374853 
L 351.82736 381.969227 
L 352.301746 381.629521 
L 352.459875 380.272708 
L 352.618004 374.491372 
L 353.250519 297.503966 
L 353.408648 296.830035 
L 353.724906 298.443349 
L 354.041163 300.902272 
L 354.199292 309.962686 
L 354.673679 375.506647 
L 354.989936 381.09106 
L 355.464323 381.956474 
L 355.622451 381.95287 
L 355.938709 382.164269 
L 356.096838 381.728876 
L 356.254967 381.76141 
L 356.413095 382.149857 
L 356.571224 382.120968 
L 356.729353 381.976451 
L 356.887482 381.644044 
L 357.045611 381.710911 
L 357.361868 382.491432 
L 357.519997 382.361375 
L 357.678126 382.72996 
L 358.152512 382.104934 
L 358.310641 382.473522 
L 358.626899 381.904485 
L 358.943156 382.009339 
L 359.259414 382.658003 
L 359.575671 382.027553 
L 359.7338 382.193807 
L 360.208187 381.57786 
L 360.366315 382.271663 
L 360.524444 381.923023 
L 360.682573 382.204909 
L 360.840702 382.036937 
L 360.998831 382.259206 
L 361.156959 381.881662 
L 361.473217 382.490613 
L 361.631346 382.216053 
L 361.789475 382.604538 
L 362.105732 381.883794 
L 362.42199 382.120583 
L 362.580119 382.05741 
L 362.896376 382.277945 
L 363.212634 382.155219 
L 363.370763 382.278138 
L 363.845149 382.155487 
L 364.003278 381.658725 
L 364.161407 382.038193 
L 364.319535 381.875665 
L 364.477664 381.545119 
L 364.793922 381.406153 
L 365.110179 382.107291 
L 365.268308 381.928508 
L 365.426437 382.266432 
L 365.584566 381.804005 
L 365.742695 381.988367 
L 365.900823 381.646988 
L 366.058952 382.510656 
L 366.217081 382.599266 
L 366.37521 381.425018 
L 366.533339 375.598623 
L 366.691467 352.950262 
L 367.007725 255.58597 
L 367.165854 244.776792 
L 367.323983 244.847358 
L 367.482111 246.856363 
L 367.64024 246.742699 
L 367.956498 248.589259 
L 368.114627 256.744627 
L 368.272755 279.797748 
L 368.589013 364.272012 
L 368.905271 378.720083 
L 369.063399 380.552152 
L 369.221528 380.984031 
L 369.695915 380.745852 
L 369.854043 381.390934 
L 370.012172 381.47347 
L 370.32843 382.141989 
L 370.486559 381.70392 
L 370.802816 382.036975 
L 370.960945 382.425515 
L 371.277203 381.256817 
L 371.59346 380.778267 
L 371.751589 380.897618 
L 371.909718 379.510206 
L 372.067847 374.280019 
L 372.225975 339.579616 
L 372.542233 177.009086 
L 372.700362 156.69147 
L 372.858491 156.248892 
L 373.491006 164.346716 
L 373.649135 179.038691 
L 373.807263 212.42597 
L 374.123521 352.386666 
L 374.439779 376.046845 
L 374.756036 379.86817 
L 375.072294 381.604604 
L 375.230423 381.359017 
L 375.388551 381.556062 
L 375.54668 381.500175 
L 375.862938 381.910524 
L 376.179195 381.724678 
L 376.337324 381.609172 
L 376.495453 381.710465 
L 376.653582 381.242661 
L 376.811711 381.401768 
L 377.127968 382.381224 
L 377.286097 382.22236 
L 377.444226 382.426634 
L 377.602355 382.271383 
L 377.918612 382.806402 
L 378.076741 382.942027 
L 378.551127 382.476279 
L 378.709256 382.346323 
L 379.025514 381.609452 
L 379.4999 382.690212 
L 379.658029 382.173632 
L 379.816158 382.390556 
L 379.974287 382.063678 
L 380.132415 382.470302 
L 380.290544 381.912168 
L 380.606802 382.698319 
L 380.923059 381.997586 
L 381.239317 382.026747 
L 381.397446 381.804655 
L 381.555575 381.806586 
L 381.713703 382.081327 
L 381.871832 381.9857 
L 382.029961 382.137587 
L 382.18809 381.966082 
L 382.346219 382.058348 
L 382.504347 381.910329 
L 382.662476 381.57261 
L 382.820605 382.344184 
L 382.978734 382.349731 
L 383.136863 382.709384 
L 383.45312 382.442251 
L 383.769378 381.793915 
L 383.927507 382.097561 
L 384.085635 382.654141 
L 384.243764 382.587422 
L 384.401893 382.86939 
L 384.718151 382.013285 
L 384.876279 382.250086 
L 385.192537 382.924226 
L 385.350666 382.304668 
L 385.508795 382.335507 
L 385.666923 382.145934 
L 385.825052 382.382733 
L 386.299439 381.568308 
L 386.457567 381.819561 
L 386.615696 381.843174 
L 386.773825 381.566882 
L 386.931954 381.782002 
L 387.090083 381.265421 
L 387.248211 382.118293 
L 387.564469 381.71163 
L 388.038855 382.452738 
L 388.196984 382.56849 
L 388.513242 382.339294 
L 388.671371 381.86246 
L 388.987628 383.132793 
L 389.145757 383.129304 
L 389.303886 382.948762 
L 389.620143 382.107105 
L 390.09453 382.680189 
L 390.252659 382.66586 
L 390.410787 382.441956 
L 390.727045 382.700557 
L 390.885174 382.848826 
L 391.201431 382.1842 
L 391.35956 381.609785 
L 391.675818 382.256772 
L 391.833947 382.896428 
L 392.466462 381.979036 
L 392.624591 381.975519 
L 392.78272 382.091245 
L 392.940848 381.775174 
L 393.257106 383.101458 
L 393.415235 383.103361 
L 393.573364 382.986024 
L 393.731492 382.688021 
L 393.889621 382.966343 
L 394.04775 382.514772 
L 394.205879 382.666629 
L 394.364008 382.200603 
L 394.680265 381.998447 
L 394.838394 382.135848 
L 395.154652 381.035775 
L 395.31278 381.106329 
L 395.629038 381.926739 
L 395.787167 381.704612 
L 396.103424 381.748155 
L 396.261553 382.171005 
L 396.419682 381.667037 
L 396.577811 382.357271 
L 396.894068 382.267119 
L 397.052197 381.931169 
L 397.368455 382.518512 
L 397.526584 382.802245 
L 397.684712 382.032695 
L 397.842841 382.401341 
L 398.00097 382.347228 
L 398.159099 382.652642 
L 398.475356 381.576041 
L 398.633485 381.899518 
L 398.791614 381.926702 
L 398.949743 382.114678 
L 399.107872 381.834729 
L 399.266 381.82578 
L 399.424129 382.479874 
L 399.582258 382.646169 
L 400.056644 381.533508 
L 400.214773 382.039453 
L 400.372902 381.943779 
L 400.68916 382.578077 
L 400.847288 382.579961 
L 401.163546 382.943254 
L 401.321675 382.215245 
L 401.479804 382.303848 
L 401.637932 381.743857 
L 401.796061 382.322064 
L 401.95419 380.943655 
L 402.112319 374.600536 
L 402.270448 352.331646 
L 402.586705 243.077424 
L 402.744834 225.990224 
L 402.902963 224.741818 
L 403.21922 232.234147 
L 403.377349 231.930807 
L 403.535478 232.819751 
L 403.693607 242.919004 
L 403.851736 266.12936 
L 404.167993 354.823956 
L 404.484251 376.167954 
L 404.800508 380.296313 
L 404.958637 380.755277 
L 405.116766 381.788752 
L 405.274895 381.326308 
L 405.433024 381.398638 
L 405.90741 382.072713 
L 406.223668 381.397143 
L 406.856183 382.100173 
L 407.014312 381.242067 
L 407.488698 382.194349 
L 407.646827 382.20344 
L 407.804956 381.451924 
L 408.279342 382.189207 
L 408.437471 383.192031 
L 408.5956 382.834293 
L 408.911857 381.515539 
L 409.069986 381.949192 
L 409.228115 381.488546 
L 409.386244 381.698171 
L 409.544372 381.228491 
L 409.702501 379.402011 
L 409.86063 371.875511 
L 410.335016 337.108284 
L 410.493145 336.474135 
L 410.967532 338.992732 
L 411.12566 339.103081 
L 411.283789 341.992032 
L 411.441918 348.963877 
L 411.758176 371.751428 
L 412.074433 379.910395 
L 412.232562 381.164269 
L 412.54882 381.711775 
L 412.865077 382.450785 
L 413.339464 382.167265 
L 413.497592 382.539478 
L 413.655721 381.914413 
L 413.971979 382.008442 
L 414.130108 382.633587 
L 414.446365 381.907385 
L 414.604494 382.295857 
L 414.762623 382.192915 
L 414.920752 381.632887 
L 415.07888 381.660025 
L 415.395138 382.66641 
L 415.553267 382.594179 
L 415.711396 382.36477 
L 415.869524 382.666519 
L 416.343911 381.550105 
L 416.50204 381.891598 
L 416.660168 381.595338 
L 416.818297 381.739907 
L 417.134555 382.54213 
L 417.450812 381.413029 
L 417.608941 382.401306 
L 417.76707 382.48083 
L 417.925199 382.377882 
L 418.083328 382.526059 
L 418.399585 382.383392 
L 418.399585 382.383392 
" clip-path="url(#p52cc704121)" style="fill: none; stroke: #5088c5; stroke-linecap: round"/>
   </g>
   <g id="line2d_17">
    <defs>
     <path id="m5fad1736cd" d="M 0 2 
C 0.530406 2 1.03916 1.789267 1.414214 1.414214 
C 1.789267 1.03916 2 0.530406 2 0 
C 2 -0.530406 1.789267 -1.03916 1.414214 -1.414214 
C 1.03916 -1.789267 0.530406 -2 0 -2 
C -0.530406 -2 -1.03916 -1.789267 -1.414214 -1.414214 
C -1.789267 -1.03916 -2 -0.530406 -2 0 
C -2 0.530406 -1.789267 1.03916 -1.414214 1.414214 
C -1.03916 1.789267 -0.530406 2 0 2 
z
"/>
    </defs>
    <g clip-path="url(#p52cc704121)">
     <use xlink:href="#m5fad1736cd" x="215.235754" y="41.046934" style="fill: #f28360"/>
     <use xlink:href="#m5fad1736cd" x="223.683582" y="355.530065" style="fill: #f28360"/>
     <use xlink:href="#m5fad1736cd" x="241.744249" y="331.889495" style="fill: #f28360"/>
     <use xlink:href="#m5fad1736cd" x="278.915035" y="329.027624" style="fill: #f28360"/>
     <use xlink:href="#m5fad1736cd" x="285.17643" y="288.450328" style="fill: #f28360"/>
     <use xlink:href="#m5fad1736cd" x="298.64024" y="240.638018" style="fill: #f28360"/>
     <use xlink:href="#m5fad1736cd" x="304.531863" y="339.587382" style="fill: #f28360"/>
     <use xlink:href="#m5fad1736cd" x="319.936466" y="353.025823" style="fill: #f28360"/>
     <use xlink:href="#m5fad1736cd" x="334.083291" y="293.352278" style="fill: #f28360"/>
     <use xlink:href="#m5fad1736cd" x="345.088297" y="345.998125" style="fill: #f28360"/>
     <use xlink:href="#m5fad1736cd" x="353.602837" y="297.997219" style="fill: #f28360"/>
     <use xlink:href="#m5fad1736cd" x="367.576745" y="246.742699" style="fill: #f28360"/>
     <use xlink:href="#m5fad1736cd" x="373.115233" y="160.505595" style="fill: #f28360"/>
     <use xlink:href="#m5fad1736cd" x="403.169984" y="232.234147" style="fill: #f28360"/>
     <use xlink:href="#m5fad1736cd" x="410.776757" y="338.234027" style="fill: #f28360"/>
    </g>
   </g>
   <g id="patch_3">
    <path d="M 81.762344 397.163023 
L 81.762344 20 
" style="fill: none; stroke: #000000; stroke-width: 0.75; stroke-linejoin: miter; stroke-linecap: square"/>
   </g>
   <g id="patch_4">
    <path d="M 81.762344 397.163023 
L 431.347171 397.163023 
" style="fill: none; stroke: #000000; stroke-width: 0.75; stroke-linejoin: miter; stroke-linecap: square"/>
   </g>
  </g>
 </g>
 <defs>
  <clipPath id="p52cc704121">
   <rect x="81.762344" y="20" width="349.584828" height="377.163023"/>
  </clipPath>
 </defs>
</svg>
