<?xml version="1.0" encoding="utf-8" standalone="no"?>
<!DOCTYPE svg PUBLIC "-//W3C//DTD SVG 1.1//EN"
  "http://www.w3.org/Graphics/SVG/1.1/DTD/svg11.dtd">
<svg xmlns:xlink="http://www.w3.org/1999/xlink" width="463.928687pt" height="463.99896pt" viewBox="0 0 463.928687 463.99896" xmlns="http://www.w3.org/2000/svg" version="1.1">
 <metadata>
  <rdf:RDF xmlns:dc="http://purl.org/dc/elements/1.1/" xmlns:cc="http://creativecommons.org/ns#" xmlns:rdf="http://www.w3.org/1999/02/22-rdf-syntax-ns#">
   <cc:Work>
    <dc:type rdf:resource="http://purl.org/dc/dcmitype/StillImage"/>
    <dc:date>2025-02-06T14:45:12.689381</dc:date>
    <dc:format>image/svg+xml</dc:format>
    <dc:creator>
     <cc:Agent>
      <dc:title>Matplotlib v3.8.4, https://matplotlib.org/</dc:title>
     </cc:Agent>
    </dc:creator>
   </cc:Work>
  </rdf:RDF>
 </metadata>
 <defs>
  <style type="text/css">*{stroke-linejoin: round; stroke-linecap: butt}</style>
 </defs>
 <g id="figure_1">
  <g id="patch_1">
   <path d="M 0 463.99896 
L 463.928687 463.99896 
L 463.928687 0 
L 0 0 
L 0 463.99896 
z
" style="fill: none"/>
  </g>
  <g id="axes_1">
   <g id="patch_2">
    <path d="M 81.762344 397.284897 
L 443.589386 397.284897 
L 443.589386 20 
L 81.762344 20 
L 81.762344 397.284897 
z
" style="fill: none"/>
   </g>
   <g id="matplotlib.axis_1">
    <g id="xtick_1">
     <g id="line2d_1">
      <defs>
       <path id="m1cd8938a9d" d="M 0 0 
L 0 5 
" style="stroke: #000000; stroke-width: 0.75"/>
      </defs>
      <g>
       <use xlink:href="#m1cd8938a9d" x="106.746526" y="397.284897" style="stroke: #000000; stroke-width: 0.75"/>
      </g>
     </g>
     <g id="text_1">
      <text style="font: 14.5px &quot;Suisse Int&apos;l Mono&quot;; text-anchor: middle" x="106.746526" y="417.797397" transform="rotate(-0 106.746526 417.797397)">500</text>
     </g>
    </g>
    <g id="xtick_2">
     <g id="line2d_2">
      <g>
       <use xlink:href="#m1cd8938a9d" x="159.821522" y="397.284897" style="stroke: #000000; stroke-width: 0.75"/>
      </g>
     </g>
     <g id="text_2">
      <text style="font: 14.5px &quot;Suisse Int&apos;l Mono&quot;; text-anchor: middle" x="159.821522" y="417.797397" transform="rotate(-0 159.821522 417.797397)">1000</text>
     </g>
    </g>
    <g id="xtick_3">
     <g id="line2d_3">
      <g>
       <use xlink:href="#m1cd8938a9d" x="212.896518" y="397.284897" style="stroke: #000000; stroke-width: 0.75"/>
      </g>
     </g>
     <g id="text_3">
      <text style="font: 14.5px &quot;Suisse Int&apos;l Mono&quot;; text-anchor: middle" x="212.896518" y="417.797397" transform="rotate(-0 212.896518 417.797397)">1500</text>
     </g>
    </g>
    <g id="xtick_4">
     <g id="line2d_4">
      <g>
       <use xlink:href="#m1cd8938a9d" x="265.971513" y="397.284897" style="stroke: #000000; stroke-width: 0.75"/>
      </g>
     </g>
     <g id="text_4">
      <text style="font: 14.5px &quot;Suisse Int&apos;l Mono&quot;; text-anchor: middle" x="265.971513" y="417.797397" transform="rotate(-0 265.971513 417.797397)">2000</text>
     </g>
    </g>
    <g id="xtick_5">
     <g id="line2d_5">
      <g>
       <use xlink:href="#m1cd8938a9d" x="319.046509" y="397.284897" style="stroke: #000000; stroke-width: 0.75"/>
      </g>
     </g>
     <g id="text_5">
      <text style="font: 14.5px &quot;Suisse Int&apos;l Mono&quot;; text-anchor: middle" x="319.046509" y="417.797397" transform="rotate(-0 319.046509 417.797397)">2500</text>
     </g>
    </g>
    <g id="xtick_6">
     <g id="line2d_6">
      <g>
       <use xlink:href="#m1cd8938a9d" x="372.121504" y="397.284897" style="stroke: #000000; stroke-width: 0.75"/>
      </g>
     </g>
     <g id="text_6">
      <text style="font: 14.5px &quot;Suisse Int&apos;l Mono&quot;; text-anchor: middle" x="372.121504" y="417.797397" transform="rotate(-0 372.121504 417.797397)">3000</text>
     </g>
    </g>
    <g id="xtick_7">
     <g id="line2d_7">
      <g>
       <use xlink:href="#m1cd8938a9d" x="425.1965" y="397.284897" style="stroke: #000000; stroke-width: 0.75"/>
      </g>
     </g>
     <g id="text_7">
      <text style="font: 14.5px &quot;Suisse Int&apos;l Mono&quot;; text-anchor: middle" x="425.1965" y="417.797397" transform="rotate(-0 425.1965 417.797397)">3500</text>
     </g>
    </g>
    <g id="text_8">
     <text style="font: 500 15px &quot;Suisse Int&apos;l&quot;, sans-serif; text-anchor: middle" x="262.675865" y="441.209898" transform="rotate(-0 262.675865 441.209898)">Raman shift (cm-1)</text>
    </g>
   </g>
   <g id="matplotlib.axis_2">
    <g id="ytick_1">
     <g id="line2d_8">
      <defs>
       <path id="m5af1c0ac9c" d="M 0 0 
L -5 0 
" style="stroke: #000000; stroke-width: 0.75"/>
      </defs>
      <g>
       <use xlink:href="#m5af1c0ac9c" x="81.762344" y="382.981923" style="stroke: #000000; stroke-width: 0.75"/>
      </g>
     </g>
     <g id="text_9">
      <text style="font: 14.5px &quot;Suisse Int&apos;l Mono&quot;; text-anchor: end" x="71.762344" y="388.238173" transform="rotate(-0 71.762344 388.238173)">0.0</text>
     </g>
    </g>
    <g id="ytick_2">
     <g id="line2d_9">
      <g>
       <use xlink:href="#m5af1c0ac9c" x="81.762344" y="332.863941" style="stroke: #000000; stroke-width: 0.75"/>
      </g>
     </g>
     <g id="text_10">
      <text style="font: 14.5px &quot;Suisse Int&apos;l Mono&quot;; text-anchor: end" x="71.762344" y="338.120191" transform="rotate(-0 71.762344 338.120191)">0.1</text>
     </g>
    </g>
    <g id="ytick_3">
     <g id="line2d_10">
      <g>
       <use xlink:href="#m5af1c0ac9c" x="81.762344" y="282.745959" style="stroke: #000000; stroke-width: 0.75"/>
      </g>
     </g>
     <g id="text_11">
      <text style="font: 14.5px &quot;Suisse Int&apos;l Mono&quot;; text-anchor: end" x="71.762344" y="288.002209" transform="rotate(-0 71.762344 288.002209)">0.2</text>
     </g>
    </g>
    <g id="ytick_4">
     <g id="line2d_11">
      <g>
       <use xlink:href="#m5af1c0ac9c" x="81.762344" y="232.627977" style="stroke: #000000; stroke-width: 0.75"/>
      </g>
     </g>
     <g id="text_12">
      <text style="font: 14.5px &quot;Suisse Int&apos;l Mono&quot;; text-anchor: end" x="71.762344" y="237.884227" transform="rotate(-0 71.762344 237.884227)">0.3</text>
     </g>
    </g>
    <g id="ytick_5">
     <g id="line2d_12">
      <g>
       <use xlink:href="#m5af1c0ac9c" x="81.762344" y="182.509995" style="stroke: #000000; stroke-width: 0.75"/>
      </g>
     </g>
     <g id="text_13">
      <text style="font: 14.5px &quot;Suisse Int&apos;l Mono&quot;; text-anchor: end" x="71.762344" y="187.766245" transform="rotate(-0 71.762344 187.766245)">0.4</text>
     </g>
    </g>
    <g id="ytick_6">
     <g id="line2d_13">
      <g>
       <use xlink:href="#m5af1c0ac9c" x="81.762344" y="132.392013" style="stroke: #000000; stroke-width: 0.75"/>
      </g>
     </g>
     <g id="text_14">
      <text style="font: 14.5px &quot;Suisse Int&apos;l Mono&quot;; text-anchor: end" x="71.762344" y="137.648263" transform="rotate(-0 71.762344 137.648263)">0.5</text>
     </g>
    </g>
    <g id="ytick_7">
     <g id="line2d_14">
      <g>
       <use xlink:href="#m5af1c0ac9c" x="81.762344" y="82.274031" style="stroke: #000000; stroke-width: 0.75"/>
      </g>
     </g>
     <g id="text_15">
      <text style="font: 14.5px &quot;Suisse Int&apos;l Mono&quot;; text-anchor: end" x="71.762344" y="87.530281" transform="rotate(-0 71.762344 87.530281)">0.6</text>
     </g>
    </g>
    <g id="ytick_8">
     <g id="line2d_15">
      <g>
       <use xlink:href="#m5af1c0ac9c" x="81.762344" y="32.156049" style="stroke: #000000; stroke-width: 0.75"/>
      </g>
     </g>
     <g id="text_16">
      <text style="font: 14.5px &quot;Suisse Int&apos;l Mono&quot;; text-anchor: end" x="71.762344" y="37.412299" transform="rotate(-0 71.762344 37.412299)">0.7</text>
     </g>
    </g>
    <g id="text_17">
     <text style="font: 500 15px &quot;Suisse Int&apos;l&quot;, sans-serif; text-anchor: middle" x="30.875" y="208.642449" transform="rotate(-90 30.875 208.642449)">Intensity (au)</text>
    </g>
   </g>
   <g id="line2d_16">
    <path d="M 95.163345 378.731265 
L 95.36093 378.819883 
L 95.558474 380.083162 
L 95.755979 380.338493 
L 95.953443 381.049622 
L 96.150867 380.274067 
L 96.545596 379.602426 
L 96.742901 379.002764 
L 97.334575 380.41573 
L 97.53172 379.938427 
L 97.728825 379.973504 
L 97.92589 379.216302 
L 98.122915 379.491509 
L 98.319901 379.970141 
L 98.516846 379.257293 
L 98.713752 379.875107 
L 98.910618 379.923947 
L 99.107444 380.524942 
L 99.30423 380.307646 
L 99.500977 379.681973 
L 99.697684 380.275315 
L 99.894351 379.718469 
L 100.090978 378.808306 
L 100.484113 379.774736 
L 100.680621 379.89546 
L 100.87709 379.023533 
L 101.073518 379.000479 
L 101.269907 378.766352 
L 101.662567 379.359579 
L 101.858837 379.18816 
L 102.055067 379.561244 
L 102.251258 379.033451 
L 102.447409 379.732321 
L 102.643521 379.511958 
L 102.839593 378.826619 
L 103.035626 378.546605 
L 103.427572 380.42613 
L 103.623486 380.129286 
L 103.81936 378.966744 
L 104.210991 380.053979 
L 104.602463 378.840838 
L 104.79814 378.89272 
L 105.775934 380.288526 
L 105.971374 380.32205 
L 106.362137 378.552158 
L 106.752743 380.338358 
L 106.947986 380.153157 
L 107.143191 379.792062 
L 107.338356 380.293608 
L 107.533482 380.342418 
L 107.728568 379.900262 
L 107.923616 379.872592 
L 108.313593 379.352292 
L 108.508522 380.222445 
L 108.703413 379.768045 
L 108.898264 380.047804 
L 109.482582 379.112858 
L 109.677277 379.213665 
L 109.871932 380.545721 
L 110.066548 379.539167 
L 110.261125 380.25636 
L 110.455663 379.90596 
L 110.650162 380.109239 
L 110.844622 380.006617 
L 111.039042 378.249075 
L 111.427766 378.557741 
L 111.62207 380.562771 
L 111.816334 379.935525 
L 112.01056 380.29022 
L 112.204746 379.870983 
L 112.398894 380.198148 
L 112.593002 380.239295 
L 112.981102 379.119388 
L 113.56296 379.765905 
L 113.950671 378.794358 
L 114.144468 379.173516 
L 114.338226 379.144297 
L 114.531946 379.737584 
L 114.725626 379.862844 
L 114.919268 379.218762 
L 115.306434 380.362505 
L 115.886893 379.565143 
L 116.080302 379.635333 
L 116.467003 381.14615 
L 116.660296 381.05727 
L 117.046765 379.85933 
L 117.239941 379.764332 
L 117.433079 380.100653 
L 117.626178 379.803755 
L 117.819238 380.751876 
L 118.01226 380.321914 
L 118.205243 379.405567 
L 118.398188 379.160671 
L 118.591093 378.305503 
L 118.783961 379.409627 
L 118.976789 379.124962 
L 119.169579 380.20767 
L 119.362331 379.555926 
L 119.555044 380.195076 
L 119.747718 379.436264 
L 119.940354 379.599739 
L 120.132951 379.154471 
L 120.32551 378.357415 
L 120.51803 378.470416 
L 121.09536 381.793468 
L 121.287726 381.543971 
L 121.480054 380.815742 
L 121.672343 380.989917 
L 121.864594 380.986664 
L 122.056807 379.941825 
L 122.248981 379.670912 
L 122.441117 379.069626 
L 122.633214 379.08167 
L 122.825273 380.188836 
L 123.017294 379.529424 
L 123.209277 379.972782 
L 123.401221 379.412789 
L 123.593126 379.626723 
L 123.784994 380.219974 
L 123.976823 379.77622 
L 124.168614 379.64448 
L 124.360366 378.611869 
L 124.743757 380.373451 
L 124.935394 380.617966 
L 125.126994 380.080907 
L 125.318555 380.319308 
L 125.510078 379.796011 
L 126.084419 380.420952 
L 126.467121 381.806264 
L 126.849671 380.031621 
L 127.232069 379.806356 
L 127.423211 379.477301 
L 127.614314 379.922168 
L 127.996407 381.19734 
L 128.187397 381.21854 
L 128.378348 379.933535 
L 128.760137 379.504836 
L 128.950974 380.420787 
L 129.141774 380.602575 
L 129.332535 379.753476 
L 129.523259 379.935264 
L 129.713944 381.768916 
L 129.904592 381.548442 
L 130.285773 380.46663 
L 130.476307 380.89772 
L 130.85726 380.369582 
L 131.047681 379.811082 
L 131.238063 380.824908 
L 131.428407 379.376238 
L 131.618714 378.900328 
L 131.808982 377.910528 
L 131.999213 378.514424 
L 132.189406 378.300055 
L 132.379562 378.290622 
L 132.569679 379.561419 
L 132.759759 378.458412 
L 132.949801 378.909374 
L 133.139805 378.005201 
L 133.5197 379.341496 
L 133.899444 379.864097 
L 134.658481 379.066238 
L 134.848146 378.189585 
L 135.037773 378.990791 
L 135.227363 378.975244 
L 135.416915 380.047173 
L 135.606429 379.982681 
L 135.795906 380.080316 
L 135.985345 380.032643 
L 136.174747 380.252636 
L 136.742726 378.262005 
L 136.931978 378.555386 
L 137.121192 377.912733 
L 137.310368 378.93112 
L 137.499507 378.79932 
L 137.688609 379.290025 
L 137.877673 378.607604 
L 138.066699 378.769465 
L 138.255688 379.515596 
L 138.633554 378.991969 
L 138.822431 379.666211 
L 139.011271 379.239211 
L 139.200073 379.922624 
L 139.388837 379.850464 
L 139.577564 380.186681 
L 139.766254 379.785677 
L 139.954907 379.933766 
L 140.52064 379.337958 
L 140.709144 379.93571 
L 140.89761 378.641473 
L 141.27443 378.766327 
L 141.462784 379.081123 
L 141.83938 379.085143 
L 142.027623 378.830959 
L 142.215828 379.055508 
L 142.403996 378.847208 
L 142.592127 378.992219 
L 142.968277 378.015826 
L 143.156296 378.228125 
L 143.344278 378.787632 
L 143.532223 378.256592 
L 143.720131 378.071256 
L 143.908002 377.255736 
L 144.095835 378.420909 
L 144.283632 378.527676 
L 144.471391 379.338018 
L 144.659114 379.441727 
L 144.846799 380.496786 
L 145.409633 377.935486 
L 145.59717 378.251781 
L 145.78467 378.982601 
L 145.972133 378.532627 
L 146.346948 378.674261 
L 146.534301 378.14934 
L 146.721616 378.586469 
L 146.908894 378.008007 
L 147.28334 378.376003 
L 147.470508 378.221209 
L 147.657638 377.755914 
L 147.844732 378.006454 
L 148.031789 377.327054 
L 148.218809 377.76724 
L 148.405792 376.859904 
L 148.592738 376.833593 
L 148.779648 377.379327 
L 149.153356 375.437757 
L 149.340155 374.54726 
L 149.526918 372.69931 
L 149.713643 369.72566 
L 150.086984 358.080897 
L 150.646719 328.04489 
L 151.019692 319.863129 
L 151.206124 319.148447 
L 151.392519 321.780643 
L 151.951484 339.511032 
L 152.882359 370.899323 
L 153.068425 374.615721 
L 153.254453 375.981236 
L 153.440445 376.227115 
L 153.626401 375.793945 
L 153.81232 376.578241 
L 153.998203 376.730851 
L 154.184049 378.662287 
L 154.555631 377.907571 
L 154.741368 377.875094 
L 154.927068 377.281296 
L 155.298358 377.950572 
L 155.483949 378.829676 
L 155.669503 378.843098 
L 155.855021 379.703859 
L 156.411356 379.477988 
L 156.596728 379.272684 
L 156.782064 379.644003 
L 157.152627 378.539002 
L 157.337854 379.044918 
L 157.523044 379.095041 
L 157.708198 378.423235 
L 157.893316 379.326822 
L 158.078398 379.052686 
L 158.263443 379.580008 
L 158.448452 379.634717 
L 158.633425 379.808721 
L 158.818361 380.488993 
L 159.003261 379.734592 
L 159.188125 379.576695 
L 159.557745 378.025047 
L 159.927219 378.299644 
L 160.111902 379.432646 
L 160.296549 379.770301 
L 160.48116 378.870593 
L 160.665734 378.581151 
L 160.850273 378.986105 
L 161.034775 379.6786 
L 161.219241 379.182677 
L 161.403671 378.03061 
L 161.588065 377.872689 
L 162.141031 378.182067 
L 162.32528 377.430698 
L 162.509494 377.38905 
L 162.877813 378.729666 
L 163.061919 378.460096 
L 163.245988 377.800519 
L 163.430022 376.342537 
L 163.61402 377.509133 
L 163.797981 377.293124 
L 163.981907 378.496452 
L 164.165797 377.9623 
L 164.349651 378.556869 
L 164.717251 377.746993 
L 164.900997 376.859503 
L 165.084707 377.862465 
L 165.268381 377.684696 
L 165.45202 378.413863 
L 166.00272 378.821081 
L 166.369674 379.445872 
L 166.553098 379.012637 
L 166.736485 379.104017 
L 167.103153 378.801921 
L 167.286434 378.027603 
L 167.469678 378.787372 
L 167.652887 378.14919 
L 167.83606 379.373913 
L 168.019197 378.851959 
L 168.385365 380.480087 
L 168.568395 380.020841 
L 168.75139 378.922259 
L 168.934349 380.197466 
L 169.117272 380.204718 
L 169.300159 380.054425 
L 169.665828 379.490768 
L 169.848608 380.158755 
L 170.031353 379.61691 
L 170.214063 380.145715 
L 170.396737 380.221789 
L 170.579375 381.590285 
L 170.761978 381.340572 
L 171.127076 379.401878 
L 171.309573 379.317349 
L 171.492033 380.005219 
L 171.856848 378.933746 
L 172.22152 381.10788 
L 172.403803 380.729679 
L 172.768263 378.758855 
L 173.132581 380.469537 
L 173.496757 380.100097 
L 173.678792 379.871785 
L 174.042756 381.712468 
L 174.224685 381.112485 
L 174.406579 380.931585 
L 174.588437 380.353013 
L 174.77026 381.213699 
L 175.133799 380.246196 
L 175.315516 380.334479 
L 175.497198 381.0208 
L 175.678844 380.965304 
L 175.860455 380.486141 
L 176.042031 379.486944 
L 176.586547 381.37152 
L 176.767981 380.621625 
L 177.130745 378.669108 
L 177.312074 380.089582 
L 177.493368 379.88266 
L 177.674627 380.182005 
L 178.037039 380.352431 
L 178.218193 380.084325 
L 178.399311 379.349726 
L 178.580394 380.247098 
L 178.761442 380.251248 
L 178.942455 380.402223 
L 179.123432 379.560552 
L 179.304375 380.155087 
L 179.485283 379.611667 
L 179.846993 379.925852 
L 180.027795 379.803048 
L 180.208562 380.247685 
L 180.750654 379.432641 
L 180.931282 379.533137 
L 181.292432 380.151684 
L 181.653441 379.772992 
L 181.833894 380.286451 
L 182.014312 379.530421 
L 182.194694 379.820569 
L 182.375042 379.035481 
L 182.735633 380.441711 
L 182.915876 380.416783 
L 183.096084 380.602921 
L 183.276258 379.819356 
L 183.456396 379.977965 
L 183.6365 378.899205 
L 183.816569 379.521254 
L 184.176602 379.771168 
L 184.356566 379.39598 
L 184.536496 379.520934 
L 184.896251 380.88738 
L 185.076076 380.490777 
L 185.255867 380.783972 
L 185.435623 380.786568 
L 185.615344 380.639266 
L 185.974682 379.055298 
L 186.154299 379.889937 
L 186.333881 380.021006 
L 186.87242 381.061185 
L 187.051863 379.613802 
L 187.231272 379.786168 
L 187.410647 379.716865 
L 187.589986 380.536209 
L 187.769291 380.066177 
L 187.948562 380.010642 
L 188.127798 379.803679 
L 188.486166 380.416061 
L 188.665298 380.089798 
L 188.844396 379.275626 
L 189.023459 380.085783 
L 189.202488 380.210728 
L 189.381482 380.584974 
L 189.560441 379.455725 
L 189.739366 380.808856 
L 190.097113 381.031199 
L 190.275935 380.530571 
L 190.454722 380.861991 
L 190.812193 381.976033 
L 190.990877 381.172557 
L 191.348141 378.384834 
L 191.705268 378.376214 
L 191.88378 379.186366 
L 192.062257 379.031396 
L 192.240701 380.207099 
L 192.419109 378.998303 
L 192.597484 379.458196 
L 192.775824 377.669711 
L 193.132401 377.794154 
L 193.310638 379.229869 
L 193.66701 378.439663 
L 193.845144 377.842668 
L 194.023244 378.193945 
L 194.20131 377.818712 
L 194.379342 377.833546 
L 194.557339 377.987509 
L 194.735302 377.451698 
L 194.913231 377.555191 
L 195.091126 376.253126 
L 195.268986 376.679329 
L 195.446813 376.304096 
L 195.624605 376.451994 
L 195.802363 376.102772 
L 196.157776 376.332713 
L 196.335432 376.817054 
L 196.690641 374.962287 
L 197.045713 372.20665 
L 197.223198 372.054743 
L 197.400649 372.127664 
L 197.578066 371.831968 
L 198.110112 368.161177 
L 198.819031 356.53185 
L 199.350364 352.386943 
L 199.527407 351.168926 
L 199.704416 353.777767 
L 200.235239 356.715934 
L 200.765757 362.590764 
L 201.119266 365.062933 
L 201.29597 366.995683 
L 201.47264 366.701491 
L 201.649276 368.051569 
L 201.825878 368.08164 
L 202.002447 369.159427 
L 202.178981 368.173907 
L 202.355482 367.986766 
L 202.531949 367.160321 
L 202.708383 367.022146 
L 203.061148 368.015283 
L 203.23748 368.360446 
L 203.413778 367.830699 
L 203.590043 368.686714 
L 203.766274 368.123338 
L 203.942471 368.115169 
L 204.118634 368.657596 
L 204.294764 368.103391 
L 204.47086 367.160722 
L 204.646922 367.080633 
L 204.822951 367.98406 
L 204.998946 367.974337 
L 205.174908 368.954244 
L 205.350835 368.270033 
L 205.526729 368.199166 
L 205.878417 365.96195 
L 206.05421 367.110103 
L 206.22997 366.464132 
L 206.405696 366.489592 
L 206.757048 365.953179 
L 206.932673 366.507885 
L 207.108265 365.811445 
L 207.283823 366.676582 
L 207.459348 366.76479 
L 207.810298 368.814766 
L 207.985722 368.613893 
L 208.161113 368.925376 
L 208.33647 368.207486 
L 208.687085 369.059893 
L 208.862342 369.360651 
L 209.037565 370.343615 
L 209.212755 370.26508 
L 209.387912 370.877872 
L 209.563036 371.077693 
L 209.738126 371.693542 
L 209.913182 371.714442 
L 210.088205 372.833476 
L 210.263195 372.522444 
L 210.438152 373.112282 
L 210.613075 373.18365 
L 210.962821 374.361824 
L 211.312434 374.515235 
L 211.836604 376.092047 
L 212.011261 375.883506 
L 212.185884 375.892126 
L 212.360474 375.637677 
L 212.709555 376.424329 
L 212.884045 376.518601 
L 213.058503 376.909621 
L 213.581675 374.985392 
L 213.756 375.604299 
L 214.104549 377.360583 
L 214.278774 376.304697 
L 214.452966 376.532033 
L 214.627125 375.967103 
L 215.323429 378.343312 
L 215.497422 378.348885 
L 215.671382 377.63558 
L 216.193064 377.032862 
L 216.540687 377.499761 
L 216.714449 377.768443 
L 216.888178 377.685297 
L 217.235537 378.816836 
L 217.409167 377.87344 
L 217.929859 378.19174 
L 218.103357 378.815102 
L 218.276822 377.913585 
L 218.450255 378.423736 
L 218.623654 377.84798 
L 218.79702 378.482133 
L 218.970354 378.599349 
L 219.490157 377.479613 
L 219.663359 378.71644 
L 219.836529 378.75259 
L 220.009665 378.9524 
L 220.182769 378.924314 
L 220.355839 380.174893 
L 220.528877 380.376232 
L 220.874855 379.972863 
L 221.047794 379.007189 
L 221.393575 379.700466 
L 221.739225 379.930307 
L 221.912001 379.562667 
L 222.084744 379.907774 
L 222.257454 379.095051 
L 222.430132 380.454216 
L 222.602777 379.500776 
L 222.775389 380.24356 
L 222.947968 380.171109 
L 223.120515 380.903183 
L 223.465511 380.712173 
L 223.810376 379.6404 
L 223.98276 379.691841 
L 224.32743 381.285994 
L 224.499715 380.204077 
L 224.671969 380.099511 
L 225.016377 381.985796 
L 225.188533 381.653329 
L 225.532746 379.564436 
L 225.704804 380.03955 
L 225.87683 380.020635 
L 226.048823 381.26509 
L 226.220783 380.502835 
L 226.392711 380.607807 
L 226.736469 381.920523 
L 227.080098 381.442192 
L 227.251863 380.699824 
L 227.423596 381.727082 
L 227.595297 381.686752 
L 227.766965 382.792019 
L 227.938601 382.545208 
L 228.110205 382.972903 
L 228.281776 382.01946 
L 228.453314 381.798645 
L 228.624821 381.163339 
L 228.796295 381.129123 
L 228.967736 380.97255 
L 229.310522 381.656635 
L 229.481867 380.772017 
L 229.653179 380.568027 
L 229.824459 380.653117 
L 230.166922 381.695104 
L 230.509256 380.207296 
L 230.680374 380.740526 
L 231.022514 382.401962 
L 231.193536 381.876776 
L 231.364526 380.698492 
L 231.535483 380.353785 
L 231.706408 380.749361 
L 231.877301 381.59002 
L 232.048162 381.548156 
L 232.389786 381.677029 
L 232.560551 381.55869 
L 232.731283 381.81967 
L 232.901982 381.029875 
L 233.07265 381.226613 
L 233.243286 380.702955 
L 233.413889 381.759277 
L 233.925507 380.517142 
L 234.095982 380.874478 
L 234.266425 381.60195 
L 234.436836 381.827752 
L 234.607215 382.608755 
L 234.777562 381.751667 
L 234.947877 382.209946 
L 235.118159 381.577692 
L 235.28841 381.806551 
L 235.458629 382.445314 
L 235.969093 381.562611 
L 236.309243 382.330809 
L 236.649264 381.627628 
L 236.819227 380.709356 
L 236.989158 380.566545 
L 237.159057 380.780102 
L 237.328925 380.654116 
L 237.49876 380.693313 
L 237.668563 380.276717 
L 238.008074 382.742666 
L 238.177782 383.02811 
L 238.347458 382.687992 
L 238.517102 382.03738 
L 238.686714 382.399301 
L 239.025843 380.750884 
L 239.364845 380.911872 
L 239.534298 380.844001 
L 239.703719 380.912256 
L 240.381087 382.91056 
L 240.71958 381.356969 
L 240.888779 381.468055 
L 241.057947 382.167992 
L 241.227082 381.235952 
L 241.396186 381.827298 
L 241.565259 381.162923 
L 241.734299 382.372184 
L 241.903308 382.002999 
L 242.072286 382.040667 
L 242.241231 382.445249 
L 242.410145 382.5394 
L 242.579027 383.163573 
L 242.916697 383.156309 
L 243.254241 381.471183 
L 243.422965 381.394132 
L 243.591658 382.615632 
L 243.760319 381.972668 
L 243.928948 382.524246 
L 244.097546 382.412022 
L 244.266113 382.663819 
L 244.434648 382.011679 
L 244.603151 382.196173 
L 245.108472 382.238811 
L 245.445195 381.817052 
L 245.61351 381.582465 
L 245.950044 382.252772 
L 246.118264 382.109955 
L 246.286453 381.748423 
L 246.45461 381.032041 
L 246.622736 380.93205 
L 246.958893 381.496824 
L 247.462893 381.562402 
L 247.630831 381.827966 
L 247.798737 382.714503 
L 247.966611 382.421798 
L 248.134455 382.367695 
L 248.302267 382.572075 
L 248.637797 382.200789 
L 248.805515 381.424762 
L 248.973201 381.650553 
L 249.140857 381.315022 
L 249.476074 382.389119 
L 249.811166 381.718053 
L 250.146133 381.065339 
L 250.313569 380.855229 
L 250.480975 380.206145 
L 250.815692 381.529554 
L 250.983004 381.597809 
L 251.317534 381.079693 
L 251.651939 381.849423 
L 251.819095 382.00333 
L 251.98622 381.479671 
L 252.153314 381.339916 
L 252.487407 381.546787 
L 252.821377 383.044558 
L 253.155222 381.417553 
L 253.322098 381.901837 
L 253.488943 381.739138 
L 253.655757 381.945052 
L 253.82254 382.351332 
L 253.989292 382.44406 
L 254.156012 382.819747 
L 254.322702 382.218085 
L 254.655988 382.359185 
L 254.822585 381.235965 
L 254.989151 381.862488 
L 255.155686 381.442834 
L 255.488662 382.169743 
L 255.655104 382.074342 
L 255.987895 382.070145 
L 256.154244 382.461129 
L 256.486849 381.796191 
L 256.653106 381.609019 
L 256.819331 382.833585 
L 256.985526 382.811603 
L 257.317822 381.992181 
L 257.483924 381.863136 
L 257.649995 382.006341 
L 257.816035 382.648166 
L 257.982045 382.690423 
L 258.148023 383.311383 
L 258.479888 383.311379 
L 258.645774 382.835703 
L 258.81163 381.74326 
L 258.977454 382.250854 
L 259.143248 382.037209 
L 259.309011 383.232496 
L 259.474743 382.816807 
L 259.640445 382.912166 
L 259.806116 382.413555 
L 259.971756 382.42065 
L 260.302944 383.279116 
L 260.468492 382.14214 
L 260.799496 382.535639 
L 260.964952 383.299836 
L 261.461136 381.300638 
L 261.626469 381.367384 
L 261.957044 381.838891 
L 262.122285 381.465135 
L 262.287496 381.914256 
L 262.452676 381.367668 
L 262.617826 381.865734 
L 262.782945 381.820823 
L 262.948033 382.41066 
L 263.278118 381.150772 
L 263.443115 381.102807 
L 263.608081 381.714055 
L 263.937922 383.311338 
L 264.267641 382.658609 
L 264.597238 380.785397 
L 264.76199 380.098097 
L 265.585297 382.778095 
L 265.749867 381.870552 
L 265.914406 382.33344 
L 266.078915 382.086642 
L 266.736648 382.315405 
L 266.901005 381.990598 
L 267.065332 382.09406 
L 267.393894 382.513575 
L 267.55813 383.224247 
L 267.722335 382.486478 
L 267.88651 382.303922 
L 268.050655 381.500389 
L 268.21477 382.598022 
L 268.542908 381.864302 
L 268.706931 380.946054 
L 269.034888 382.835427 
L 269.198821 382.535101 
L 269.362723 381.841687 
L 269.690438 382.368279 
L 269.85425 383.279317 
L 270.018031 382.588965 
L 270.509195 382.348736 
L 270.672856 382.793277 
L 271.000087 382.573471 
L 271.163658 381.710288 
L 271.327198 382.951705 
L 271.654188 382.669191 
L 271.817638 381.434342 
L 271.981058 381.728994 
L 272.144447 381.531146 
L 272.307807 381.69273 
L 272.634436 382.711825 
L 272.960944 382.670975 
L 273.124154 381.870507 
L 273.287333 382.030561 
L 273.450482 382.534756 
L 273.613601 382.350674 
L 273.939749 381.375298 
L 274.102778 381.359463 
L 274.265777 382.402044 
L 274.591685 382.137892 
L 274.754594 381.130939 
L 274.917474 381.421004 
L 275.080323 381.035033 
L 275.405931 382.76535 
L 276.056789 381.394296 
L 276.219429 382.450645 
L 276.707169 382.461271 
L 276.869689 382.28178 
L 277.03218 383.214242 
L 277.357071 383.268234 
L 277.519472 381.08816 
L 277.844184 381.119208 
L 278.006495 382.412636 
L 278.168777 381.861481 
L 278.331029 382.208145 
L 278.493251 382.277972 
L 278.655443 383.300677 
L 279.303914 381.065477 
L 279.465958 381.583449 
L 279.627972 381.241838 
L 279.789956 381.383554 
L 279.95191 381.152067 
L 280.113835 382.52656 
L 280.27573 381.559386 
L 280.59943 381.824461 
L 280.761236 381.644981 
L 280.923013 381.266217 
L 281.084759 381.199839 
L 281.246476 380.985181 
L 281.731449 382.874063 
L 281.893048 382.472809 
L 282.054617 383.311115 
L 282.377666 383.311111 
L 282.539146 382.596127 
L 282.700596 382.531363 
L 282.862017 382.041403 
L 283.023409 381.045176 
L 283.18477 380.986537 
L 283.346103 380.533283 
L 283.507406 381.325046 
L 283.829923 380.774918 
L 284.152322 381.63958 
L 284.313477 382.934551 
L 284.474603 382.492009 
L 284.796766 380.334377 
L 284.957803 379.786295 
L 285.27979 381.672668 
L 285.440739 381.855692 
L 285.601659 381.454451 
L 285.762549 381.626765 
L 285.92341 380.509714 
L 286.084241 380.406725 
L 286.245043 379.124485 
L 286.405816 379.486466 
L 286.727273 378.523381 
L 287.209238 377.778493 
L 287.530402 376.608936 
L 287.69094 377.360955 
L 287.851449 377.501134 
L 288.172378 376.346863 
L 288.332798 377.56538 
L 288.49319 377.430261 
L 288.653552 377.879417 
L 288.813885 375.720783 
L 288.974188 375.302748 
L 289.294708 377.092759 
L 289.454924 377.196251 
L 289.775268 373.246049 
L 289.935396 372.765316 
L 290.255565 370.520478 
L 290.575617 364.26535 
L 290.735599 359.226687 
L 291.055476 337.180936 
L 291.375237 299.939764 
L 291.854659 198.487432 
L 292.174129 147.341528 
L 292.33382 141.819527 
L 292.653115 154.091413 
L 292.972293 187.525116 
L 294.088504 341.304114 
L 294.40716 356.201982 
L 294.7257 363.862262 
L 294.884927 366.203422 
L 295.203294 366.367605 
L 295.680626 364.697469 
L 296.316665 356.206725 
L 296.793391 353.888062 
L 296.952242 354.653813 
L 298.380603 373.711263 
L 298.539166 373.960197 
L 299.014682 378.594542 
L 299.17313 378.471691 
L 299.331548 378.584385 
L 299.489939 378.397298 
L 299.806633 378.873526 
L 299.964937 378.13431 
L 300.123213 378.26687 
L 300.281459 378.77723 
L 300.439677 378.262808 
L 300.597867 380.317999 
L 300.756027 380.126322 
L 300.914159 381.869469 
L 301.072263 380.29054 
L 301.230337 380.146279 
L 301.388383 380.304866 
L 301.546401 380.260024 
L 301.70439 380.808634 
L 301.86235 380.604727 
L 302.020281 380.162219 
L 302.178184 380.10362 
L 302.336059 380.551282 
L 302.493904 380.512564 
L 302.651722 380.700209 
L 303.125002 380.445104 
L 303.282705 380.712287 
L 303.598025 380.182121 
L 303.755643 380.316235 
L 304.070792 380.907193 
L 304.228324 381.105549 
L 304.385827 380.378556 
L 304.543302 380.659511 
L 304.700748 381.195887 
L 304.858166 382.163583 
L 305.015556 381.718023 
L 305.172917 381.820021 
L 305.330249 380.897253 
L 305.487553 381.487165 
L 306.116486 379.668212 
L 306.430781 381.028521 
L 306.587887 381.642911 
L 306.744964 381.608784 
L 306.902012 382.922156 
L 307.059032 383.028748 
L 307.216024 382.015743 
L 307.529923 382.019388 
L 308.15738 380.480354 
L 308.314173 380.905087 
L 308.470939 380.624716 
L 308.784384 379.779493 
L 309.254341 382.026458 
L 309.724043 380.192712 
L 309.880554 380.1693 
L 310.037037 379.748222 
L 310.349918 382.001774 
L 310.506316 382.255209 
L 310.662686 381.979434 
L 310.975341 382.532182 
L 311.287884 381.208232 
L 311.444113 380.981407 
L 311.600314 381.036004 
L 311.756487 380.853528 
L 311.912632 380.964723 
L 312.068748 380.900019 
L 312.380897 380.490677 
L 312.692934 381.171878 
L 312.84891 381.457414 
L 313.004858 381.510467 
L 313.160778 381.870954 
L 313.31667 382.528165 
L 313.472534 382.13614 
L 313.62837 382.485937 
L 313.784178 381.339888 
L 313.939958 381.099315 
L 314.095709 380.465657 
L 314.251433 381.659761 
L 314.407129 381.439075 
L 314.718436 379.647149 
L 314.874048 379.859317 
L 315.029632 379.471913 
L 315.340716 380.186828 
L 315.496216 380.588633 
L 315.651688 381.853078 
L 315.962548 382.382907 
L 316.117936 382.361044 
L 316.273297 382.530366 
L 316.428629 383.195248 
L 316.583934 383.046435 
L 317.04968 381.475817 
L 317.204873 382.079517 
L 317.360038 381.571274 
L 317.670285 381.457193 
L 317.825366 381.881947 
L 317.98042 381.314053 
L 318.290444 382.102387 
L 318.445414 383.030346 
L 318.600357 382.28962 
L 318.755272 382.894858 
L 318.910159 382.683339 
L 319.065018 383.310765 
L 319.374653 383.111796 
L 319.529429 382.052935 
L 319.684177 382.295686 
L 319.838897 381.024226 
L 319.99359 381.017665 
L 320.148255 380.079641 
L 320.302892 380.871479 
L 320.457502 381.016509 
L 320.612083 381.508672 
L 320.766637 382.49374 
L 320.921164 382.149157 
L 321.075663 382.173188 
L 321.230134 381.898966 
L 321.384577 381.352494 
L 321.693381 381.660567 
L 321.847741 381.392465 
L 322.002074 380.729749 
L 322.156379 381.123921 
L 322.310657 380.935346 
L 322.464907 381.535994 
L 322.927491 381.441353 
L 323.08163 381.999175 
L 323.389827 382.08087 
L 323.697913 381.462061 
L 323.851915 382.050475 
L 324.005889 381.967434 
L 324.159835 382.756215 
L 324.62151 381.115253 
L 324.775347 381.171399 
L 325.082938 382.291638 
L 325.390418 381.578006 
L 325.544118 381.539324 
L 325.697789 381.675007 
L 325.851434 382.736043 
L 326.15864 381.298957 
L 326.312202 381.495819 
L 326.619243 382.089915 
L 326.772723 381.821812 
L 326.926176 382.341404 
L 327.0796 382.365439 
L 327.232998 382.658663 
L 327.386368 382.577159 
L 327.539711 382.923919 
L 327.693026 382.900537 
L 327.846314 381.248235 
L 328.152809 381.17547 
L 328.306015 381.456464 
L 328.612345 381.431116 
L 328.765469 381.638692 
L 328.918566 380.960684 
L 329.53068 382.297263 
L 329.68364 382.096463 
L 329.989479 381.366025 
L 330.142358 381.102518 
L 330.295209 382.357806 
L 330.7536 380.357451 
L 331.059058 381.257471 
L 331.211746 381.9652 
L 331.364406 383.231199 
L 331.51704 382.993697 
L 331.669647 381.599894 
L 331.822226 381.637702 
L 331.974778 382.294962 
L 332.127303 382.424541 
L 332.584716 381.782404 
L 333.194219 382.666288 
L 333.346527 383.166011 
L 333.498808 383.104408 
L 333.651062 383.258465 
L 333.955489 381.128554 
L 334.107661 381.880648 
L 334.259807 381.829752 
L 334.411926 382.410543 
L 334.564017 382.44836 
L 334.868119 383.259689 
L 335.172113 381.031895 
L 335.32407 380.500744 
L 335.475999 380.426909 
L 335.779778 382.37619 
L 335.931626 382.602141 
L 336.235242 383.310602 
L 336.38701 383.068175 
L 336.842152 381.045712 
L 336.993812 381.661702 
L 337.297051 381.342765 
L 337.44863 381.669679 
L 337.600182 381.715165 
L 337.751708 382.633998 
L 338.054678 382.013751 
L 338.206123 382.080653 
L 338.357541 381.759061 
L 338.508932 382.716128 
L 338.660297 382.412893 
L 338.811634 382.710749 
L 338.962945 381.870655 
L 339.114228 381.806021 
L 339.265486 381.900448 
L 339.416716 381.484021 
L 339.719096 379.995014 
L 340.172465 382.255948 
L 340.474577 381.481222 
L 340.625593 382.239455 
L 340.776582 381.957626 
L 341.078481 380.421212 
L 341.22939 380.481994 
L 341.380272 379.969215 
L 341.681957 381.132376 
L 342.285006 378.11769 
L 342.887628 372.490589 
L 343.188779 371.238689 
L 343.489824 372.23819 
L 343.640306 372.323439 
L 343.941191 370.45975 
L 344.091594 370.919731 
L 344.39232 373.412046 
L 344.692939 374.98209 
L 344.993452 377.197553 
L 345.143669 377.516804 
L 345.293859 377.476658 
L 345.59416 378.644425 
L 345.744271 378.51556 
L 346.194444 380.172382 
L 346.494427 378.761408 
L 346.644379 378.673841 
L 346.794304 378.789703 
L 347.094075 379.426735 
L 347.243921 380.731019 
L 347.393741 381.004417 
L 347.693301 380.636563 
L 347.992755 381.49843 
L 348.142442 382.044073 
L 348.292103 381.073983 
L 348.591346 380.518002 
L 348.740928 380.693509 
L 348.890484 381.474697 
L 349.189516 380.862128 
L 349.338992 380.973399 
L 349.488443 380.157788 
L 350.08598 380.988348 
L 350.235299 380.399125 
L 350.384591 380.632774 
L 350.533857 381.33904 
L 350.683097 380.509687 
L 350.832311 380.388495 
L 351.130659 379.122874 
L 351.279793 378.990982 
L 351.428902 379.541246 
L 351.577984 381.370176 
L 351.87607 379.947028 
L 352.174051 380.013623 
L 352.323002 379.916919 
L 352.471927 379.547959 
L 352.620826 379.63785 
L 352.769698 380.025997 
L 352.918545 378.788287 
L 353.067365 379.087726 
L 353.662384 376.802808 
L 353.811074 377.287297 
L 353.959737 376.682773 
L 354.108374 376.621227 
L 354.554129 374.033732 
L 354.702662 373.641808 
L 354.851169 373.79592 
L 355.296533 372.239302 
L 355.444935 371.582806 
L 355.593311 371.576339 
L 355.741662 372.001138 
L 355.889986 371.788186 
L 356.038284 372.027949 
L 356.186557 370.657171 
L 356.334803 370.58951 
L 356.483023 370.758908 
L 356.631217 371.529421 
L 357.075644 369.795385 
L 357.223734 369.840941 
L 357.371799 370.400357 
L 357.519837 370.438245 
L 357.667849 370.271151 
L 357.963796 368.748564 
L 358.407522 366.151948 
L 358.555379 366.451352 
L 358.851015 365.733309 
L 358.998794 364.648554 
L 359.146547 364.632916 
L 359.294275 363.53894 
L 359.441976 363.920988 
L 360.032523 367.293623 
L 360.327642 364.770782 
L 360.475162 364.238177 
L 360.622657 365.239633 
L 360.770126 364.43173 
L 361.064986 364.152671 
L 361.212378 364.617264 
L 361.507083 363.389922 
L 361.654397 363.251896 
L 361.948948 364.204085 
L 362.096185 363.406857 
L 362.243396 363.421841 
L 362.390582 363.156867 
L 362.684875 362.206627 
L 363.420159 350.598846 
L 363.861021 338.129188 
L 364.301652 304.436218 
L 364.595278 257.90618 
L 365.035525 139.718954 
L 365.475541 42.189358 
L 365.622161 34.313316 
L 365.768757 33.973515 
L 365.915326 41.917214 
L 366.208389 74.654277 
L 367.672169 310.210786 
L 368.256968 342.581535 
L 368.695299 351.909089 
L 368.841358 353.433727 
L 368.987392 353.306527 
L 369.133401 352.769411 
L 369.279384 352.951138 
L 369.425342 353.775277 
L 369.571274 353.95545 
L 370.15475 348.954422 
L 370.300555 348.917484 
L 370.59209 347.323179 
L 371.029202 340.439972 
L 371.611663 336.30383 
L 371.757215 335.864545 
L 371.902742 333.865237 
L 372.048243 333.799231 
L 372.193719 333.93971 
L 372.33917 333.721896 
L 373.066045 338.415941 
L 373.647091 346.016178 
L 373.792289 347.632482 
L 373.937462 347.814158 
L 374.227733 350.883131 
L 374.37283 354.162048 
L 374.517902 354.397251 
L 374.66295 355.077551 
L 375.09794 358.527068 
L 375.387808 360.751803 
L 375.532704 360.012662 
L 375.677575 360.094955 
L 375.822421 360.509078 
L 376.112038 363.321146 
L 376.256808 363.348359 
L 376.401554 364.554798 
L 376.546274 363.983953 
L 376.690969 365.59725 
L 376.83564 365.911989 
L 377.124905 367.047711 
L 377.2695 366.877609 
L 377.41407 367.293387 
L 377.558615 367.033073 
L 377.703134 368.259408 
L 377.847629 368.12454 
L 377.992099 368.268026 
L 378.136544 368.079632 
L 378.569728 369.914097 
L 378.714073 369.289726 
L 378.858393 369.645813 
L 379.002687 369.461979 
L 379.146957 369.460174 
L 379.435422 369.883267 
L 379.867932 372.15832 
L 380.012052 372.909036 
L 380.156147 372.976042 
L 380.300217 371.31473 
L 380.444262 371.253285 
L 380.588283 371.607818 
L 380.732278 371.64731 
L 380.876249 372.72685 
L 381.020194 371.867025 
L 381.164115 372.955737 
L 381.451882 371.983947 
L 381.595728 371.391751 
L 382.027118 373.084082 
L 382.170864 372.978282 
L 382.314586 372.826573 
L 382.458283 373.015968 
L 382.601955 373.41646 
L 382.745603 372.994014 
L 383.032823 373.875988 
L 383.176396 373.881851 
L 383.319945 373.078609 
L 383.750441 375.716214 
L 383.89389 375.275426 
L 384.180714 376.342485 
L 384.324089 375.53769 
L 384.467439 373.859588 
L 384.610764 375.287899 
L 384.754065 375.209614 
L 384.897341 376.607303 
L 385.040592 375.345231 
L 385.183819 375.286842 
L 385.32702 375.491523 
L 385.61335 377.242292 
L 385.756478 377.102863 
L 385.899581 377.544602 
L 386.042659 376.993754 
L 386.185713 376.987388 
L 386.328742 376.554267 
L 386.471747 376.550958 
L 386.757682 377.475783 
L 386.900612 376.611397 
L 387.043518 376.627934 
L 387.186399 376.038847 
L 387.329256 376.209898 
L 387.614896 377.567592 
L 387.757678 379.442515 
L 387.900437 379.197547 
L 388.18588 377.586482 
L 388.328564 377.572498 
L 388.471224 377.84143 
L 388.899057 376.968872 
L 389.041619 376.240607 
L 389.184156 377.352272 
L 389.326669 377.263362 
L 389.611621 377.740082 
L 389.75406 377.378881 
L 389.896475 377.725846 
L 390.038865 377.675126 
L 390.181231 379.123314 
L 390.323572 379.318853 
L 390.608181 379.144019 
L 390.750449 379.260026 
L 390.892693 379.762999 
L 391.034912 379.819355 
L 391.177106 379.751825 
L 391.319276 379.901486 
L 391.461422 379.777363 
L 391.603543 380.09527 
L 391.74564 379.732545 
L 392.171784 381.129826 
L 392.313784 381.033243 
L 392.739635 378.138745 
L 392.881537 379.713907 
L 393.023414 379.889575 
L 393.165267 380.634221 
L 393.307096 380.185855 
L 393.59068 380.189997 
L 393.874167 380.894659 
L 394.015874 380.779727 
L 394.157557 381.010459 
L 394.299215 380.866469 
L 394.44085 381.112502 
L 394.582459 380.861445 
L 394.724045 381.180891 
L 394.865606 381.010895 
L 395.007143 381.016792 
L 395.148656 380.235001 
L 395.290145 380.890934 
L 395.431609 380.78365 
L 395.573049 380.950151 
L 395.714465 380.414604 
L 396.138566 381.32554 
L 396.279885 380.786941 
L 396.42118 381.635603 
L 396.56245 380.88746 
L 396.703697 381.384339 
L 396.844919 380.646907 
L 397.12729 382.997328 
L 397.26844 383.310133 
L 397.550666 381.794523 
L 397.832796 380.451233 
L 398.114829 381.19419 
L 398.25581 381.09917 
L 398.396766 381.894321 
L 398.537699 381.982843 
L 398.678607 382.212082 
L 398.960351 380.110167 
L 399.241998 381.893197 
L 399.382786 382.439041 
L 399.52355 381.868356 
L 399.664289 380.811282 
L 400.086363 381.68714 
L 400.227007 381.67931 
L 400.508221 382.146979 
L 400.648792 382.058089 
L 400.78934 381.54094 
L 400.929863 381.880313 
L 401.070362 383.232214 
L 401.210837 383.149445 
L 401.351288 382.312633 
L 401.491716 382.277279 
L 401.632119 382.599828 
L 401.772498 382.351878 
L 402.053185 381.328292 
L 402.193492 381.326592 
L 402.333776 381.199472 
L 402.474035 381.470024 
L 402.754482 381.507926 
L 402.89467 380.453929 
L 403.034834 381.420409 
L 403.174974 380.932329 
L 403.31509 381.611262 
L 403.455182 381.510148 
L 403.875314 382.710316 
L 404.015311 381.189831 
L 404.155284 382.191493 
L 404.295232 382.362635 
L 404.435157 383.157817 
L 404.714935 382.028726 
L 404.854789 381.734903 
L 404.994618 382.329723 
L 405.134424 382.40757 
L 405.274206 383.310079 
L 405.413964 383.310078 
L 405.553698 383.058092 
L 405.693409 383.070762 
L 406.112397 381.234923 
L 406.252013 381.53762 
L 406.391604 381.274405 
L 406.531172 381.570983 
L 406.670716 381.521898 
L 406.949733 383.310077 
L 407.36808 381.366728 
L 407.507481 381.415532 
L 407.786213 381.744106 
L 407.925544 381.800564 
L 408.064851 380.400934 
L 408.482629 381.731206 
L 408.621841 381.52918 
L 408.761029 380.648056 
L 408.900194 381.135839 
L 409.178452 380.009868 
L 409.317546 380.659778 
L 409.456616 380.511289 
L 409.595662 380.771181 
L 409.734685 380.642578 
L 409.873684 380.267725 
L 410.01266 378.757981 
L 410.151612 378.750213 
L 410.29054 378.976456 
L 410.429445 379.54531 
L 410.568326 379.038923 
L 410.707183 379.837202 
L 410.846017 379.122805 
L 410.984828 379.514237 
L 411.123615 379.035384 
L 411.262378 379.278457 
L 411.539834 378.132639 
L 411.817196 378.250166 
L 412.094463 379.921686 
L 412.233062 379.739562 
L 412.371637 378.85081 
L 412.510188 378.859876 
L 412.925702 377.048587 
L 413.064159 377.218287 
L 413.202593 378.844029 
L 413.341004 378.250467 
L 413.479391 379.600921 
L 413.617755 379.334679 
L 413.756095 379.392695 
L 413.894412 378.517716 
L 414.170975 379.320496 
L 414.447444 377.405327 
L 414.72382 377.987898 
L 414.861973 377.611512 
L 415.138208 378.616213 
L 415.276291 378.461634 
L 415.552386 377.60184 
L 415.828387 378.441361 
L 416.104296 376.754144 
L 416.242215 376.481803 
L 416.38011 377.826118 
L 416.793657 375.580531 
L 417.069239 376.955368 
L 417.206995 376.681523 
L 417.482436 375.167108 
L 417.620122 375.48671 
L 417.757785 375.480496 
L 418.308203 376.264792 
L 418.445749 376.434492 
L 418.720772 378.262044 
L 419.133132 375.09574 
L 419.270539 375.271554 
L 419.407922 375.064968 
L 419.545283 375.433535 
L 419.68262 375.473229 
L 420.231737 373.984675 
L 420.506157 374.3776 
L 420.780484 374.270397 
L 421.054718 374.570053 
L 421.191801 374.59441 
L 421.32886 374.384817 
L 421.465896 375.287141 
L 421.602909 375.230507 
L 421.876866 373.040101 
L 422.150731 373.636455 
L 422.424503 373.157577 
L 422.561354 373.313545 
L 422.834988 372.773473 
L 422.97177 373.232253 
L 423.108529 372.979859 
L 423.245266 373.302519 
L 423.381979 373.207595 
L 423.518669 373.950895 
L 423.655336 373.580673 
L 423.79198 373.987481 
L 423.928601 373.484196 
L 424.065199 373.416838 
L 424.474855 370.854706 
L 424.884304 370.005658 
L 425.020741 370.192197 
L 425.157155 370.933993 
L 425.293546 370.715278 
L 425.429914 371.770663 
L 425.56626 371.579462 
L 425.702582 372.988129 
L 425.838881 372.096429 
L 425.975158 373.032483 
L 426.111411 372.128555 
L 426.247642 372.489505 
L 426.383849 371.955698 
L 426.656196 370.183025 
L 426.792335 370.323706 
L 427.064544 369.730259 
L 427.336662 370.473609 
L 427.472687 370.459827 
L 427.608688 371.108353 
L 427.880623 370.828445 
L 428.016556 370.374225 
L 428.152466 369.485583 
L 428.424219 370.436923 
L 428.56006 370.903371 
L 428.695879 370.722846 
L 428.831676 371.64201 
L 429.238927 368.997334 
L 429.374632 368.700585 
L 429.917225 372.12645 
L 430.052816 371.353982 
L 430.188384 371.275898 
L 430.188384 371.275898 
" clip-path="url(#p13f800a8e8)" style="fill: none; stroke: #5088c5; stroke-linecap: round"/>
   </g>
   <g id="line2d_17">
    <defs>
     <path id="m3523bf0f49" d="M 0 2 
C 0.530406 2 1.03916 1.789267 1.414214 1.414214 
C 1.789267 1.03916 2 0.530406 2 0 
C 2 -0.530406 1.789267 -1.03916 1.414214 -1.414214 
C 1.03916 -1.789267 0.530406 -2 0 -2 
C -0.530406 -2 -1.03916 -1.789267 -1.414214 -1.414214 
C -1.789267 -1.03916 -2 -0.530406 -2 0 
C -2 0.530406 -1.789267 1.03916 -1.414214 1.414214 
C -1.03916 1.789267 -0.530406 2 0 2 
z
"/>
    </defs>
    <g clip-path="url(#p13f800a8e8)">
     <use xlink:href="#m3523bf0f49" x="151.200341" y="319.148447" style="fill: #f28360"/>
     <use xlink:href="#m3523bf0f49" x="199.59733" y="351.168926" style="fill: #f28360"/>
     <use xlink:href="#m3523bf0f49" x="292.480097" y="147.091436" style="fill: #f28360"/>
     <use xlink:href="#m3523bf0f49" x="365.814763" y="33.973515" style="fill: #f28360"/>
     <use xlink:href="#m3523bf0f49" x="372.141631" y="333.93971" style="fill: #f28360"/>
    </g>
   </g>
   <g id="patch_3">
    <path d="M 81.762344 397.284897 
L 81.762344 20 
" style="fill: none; stroke: #000000; stroke-width: 0.75; stroke-linejoin: miter; stroke-linecap: square"/>
   </g>
   <g id="patch_4">
    <path d="M 81.762344 397.284897 
L 443.589386 397.284897 
" style="fill: none; stroke: #000000; stroke-width: 0.75; stroke-linejoin: miter; stroke-linecap: square"/>
   </g>
  </g>
 </g>
 <defs>
  <clipPath id="p13f800a8e8">
   <rect x="81.762344" y="20" width="361.827042" height="377.284898"/>
  </clipPath>
 </defs>
</svg>
