<?xml version="1.0" encoding="utf-8" standalone="no"?>
<!DOCTYPE svg PUBLIC "-//W3C//DTD SVG 1.1//EN"
  "http://www.w3.org/Graphics/SVG/1.1/DTD/svg11.dtd">
<svg xmlns:xlink="http://www.w3.org/1999/xlink" width="463.998842pt" height="463.99896pt" viewBox="0 0 463.998842 463.99896" xmlns="http://www.w3.org/2000/svg" version="1.1">
 <metadata>
  <rdf:RDF xmlns:dc="http://purl.org/dc/elements/1.1/" xmlns:cc="http://creativecommons.org/ns#" xmlns:rdf="http://www.w3.org/1999/02/22-rdf-syntax-ns#">
   <cc:Work>
    <dc:type rdf:resource="http://purl.org/dc/dcmitype/StillImage"/>
    <dc:date>2025-02-07T20:36:43.646173</dc:date>
    <dc:format>image/svg+xml</dc:format>
    <dc:creator>
     <cc:Agent>
      <dc:title>Matplotlib v3.8.4, https://matplotlib.org/</dc:title>
     </cc:Agent>
    </dc:creator>
   </cc:Work>
  </rdf:RDF>
 </metadata>
 <defs>
  <style type="text/css">*{stroke-linejoin: round; stroke-linecap: butt}</style>
 </defs>
 <g id="figure_1">
  <g id="patch_1">
   <path d="M 0 463.99896 
L 463.998842 463.99896 
L 463.998842 0 
L 0 0 
L 0 463.99896 
z
" style="fill: none"/>
  </g>
  <g id="axes_1">
   <g id="patch_2">
    <path d="M 81.762344 397.163023 
L 430.900796 397.163023 
L 430.900796 20 
L 81.762344 20 
L 81.762344 397.163023 
z
" style="fill: none"/>
   </g>
   <g id="matplotlib.axis_1">
    <g id="xtick_1">
     <g id="line2d_1">
      <defs>
       <path id="mb7cd69f48d" d="M 0 0 
L 0 5 
" style="stroke: #000000; stroke-width: 0.75"/>
      </defs>
      <g>
       <use xlink:href="#mb7cd69f48d" x="85.141616" y="397.163023" style="stroke: #000000; stroke-width: 0.75"/>
      </g>
     </g>
     <g id="text_1">
      <text style="font: 14.5px &quot;Suisse Int&apos;l Mono&quot;; text-anchor: middle" x="85.141616" y="417.675522" transform="rotate(-0 85.141616 417.675522)">540</text>
     </g>
    </g>
    <g id="xtick_2">
     <g id="line2d_2">
      <g>
       <use xlink:href="#mb7cd69f48d" x="142.60963" y="397.163023" style="stroke: #000000; stroke-width: 0.75"/>
      </g>
     </g>
     <g id="text_2">
      <text style="font: 14.5px &quot;Suisse Int&apos;l Mono&quot;; text-anchor: middle" x="142.60963" y="417.675522" transform="rotate(-0 142.60963 417.675522)">560</text>
     </g>
    </g>
    <g id="xtick_3">
     <g id="line2d_3">
      <g>
       <use xlink:href="#mb7cd69f48d" x="200.077644" y="397.163023" style="stroke: #000000; stroke-width: 0.75"/>
      </g>
     </g>
     <g id="text_3">
      <text style="font: 14.5px &quot;Suisse Int&apos;l Mono&quot;; text-anchor: middle" x="200.077644" y="417.675522" transform="rotate(-0 200.077644 417.675522)">580</text>
     </g>
    </g>
    <g id="xtick_4">
     <g id="line2d_4">
      <g>
       <use xlink:href="#mb7cd69f48d" x="257.545659" y="397.163023" style="stroke: #000000; stroke-width: 0.75"/>
      </g>
     </g>
     <g id="text_4">
      <text style="font: 14.5px &quot;Suisse Int&apos;l Mono&quot;; text-anchor: middle" x="257.545659" y="417.675522" transform="rotate(-0 257.545659 417.675522)">600</text>
     </g>
    </g>
    <g id="xtick_5">
     <g id="line2d_5">
      <g>
       <use xlink:href="#mb7cd69f48d" x="315.013673" y="397.163023" style="stroke: #000000; stroke-width: 0.75"/>
      </g>
     </g>
     <g id="text_5">
      <text style="font: 14.5px &quot;Suisse Int&apos;l Mono&quot;; text-anchor: middle" x="315.013673" y="417.675522" transform="rotate(-0 315.013673 417.675522)">620</text>
     </g>
    </g>
    <g id="xtick_6">
     <g id="line2d_6">
      <g>
       <use xlink:href="#mb7cd69f48d" x="372.481687" y="397.163023" style="stroke: #000000; stroke-width: 0.75"/>
      </g>
     </g>
     <g id="text_6">
      <text style="font: 14.5px &quot;Suisse Int&apos;l Mono&quot;; text-anchor: middle" x="372.481687" y="417.675522" transform="rotate(-0 372.481687 417.675522)">640</text>
     </g>
    </g>
    <g id="xtick_7">
     <g id="line2d_7">
      <g>
       <use xlink:href="#mb7cd69f48d" x="429.949702" y="397.163023" style="stroke: #000000; stroke-width: 0.75"/>
      </g>
     </g>
     <g id="text_7">
      <text style="font: 14.5px &quot;Suisse Int&apos;l Mono&quot;; text-anchor: middle" x="429.949702" y="417.675522" transform="rotate(-0 429.949702 417.675522)">660</text>
     </g>
    </g>
    <g id="text_8">
     <text style="font: 500 15px &quot;Suisse Int&apos;l&quot;, sans-serif; text-anchor: middle" x="256.33157" y="441.088023" transform="rotate(-0 256.33157 441.088023)">Wavelength (nm)</text>
    </g>
   </g>
   <g id="matplotlib.axis_2">
    <g id="ytick_1">
     <g id="line2d_8">
      <defs>
       <path id="m33b767c800" d="M 0 0 
L -5 0 
" style="stroke: #000000; stroke-width: 0.75"/>
      </defs>
      <g>
       <use xlink:href="#m33b767c800" x="81.762344" y="383.060096" style="stroke: #000000; stroke-width: 0.75"/>
      </g>
     </g>
     <g id="text_9">
      <text style="font: 14.5px &quot;Suisse Int&apos;l Mono&quot;; text-anchor: end" x="71.762344" y="388.316346" transform="rotate(-0 71.762344 388.316346)">0</text>
     </g>
    </g>
    <g id="ytick_2">
     <g id="line2d_9">
      <g>
       <use xlink:href="#m33b767c800" x="81.762344" y="324.971866" style="stroke: #000000; stroke-width: 0.75"/>
      </g>
     </g>
     <g id="text_10">
      <text style="font: 14.5px &quot;Suisse Int&apos;l Mono&quot;; text-anchor: end" x="71.762344" y="330.228116" transform="rotate(-0 71.762344 330.228116)">20</text>
     </g>
    </g>
    <g id="ytick_3">
     <g id="line2d_10">
      <g>
       <use xlink:href="#m33b767c800" x="81.762344" y="266.883636" style="stroke: #000000; stroke-width: 0.75"/>
      </g>
     </g>
     <g id="text_11">
      <text style="font: 14.5px &quot;Suisse Int&apos;l Mono&quot;; text-anchor: end" x="71.762344" y="272.139886" transform="rotate(-0 71.762344 272.139886)">40</text>
     </g>
    </g>
    <g id="ytick_4">
     <g id="line2d_11">
      <g>
       <use xlink:href="#m33b767c800" x="81.762344" y="208.795407" style="stroke: #000000; stroke-width: 0.75"/>
      </g>
     </g>
     <g id="text_12">
      <text style="font: 14.5px &quot;Suisse Int&apos;l Mono&quot;; text-anchor: end" x="71.762344" y="214.051657" transform="rotate(-0 71.762344 214.051657)">60</text>
     </g>
    </g>
    <g id="ytick_5">
     <g id="line2d_12">
      <g>
       <use xlink:href="#m33b767c800" x="81.762344" y="150.707177" style="stroke: #000000; stroke-width: 0.75"/>
      </g>
     </g>
     <g id="text_13">
      <text style="font: 14.5px &quot;Suisse Int&apos;l Mono&quot;; text-anchor: end" x="71.762344" y="155.963427" transform="rotate(-0 71.762344 155.963427)">80</text>
     </g>
    </g>
    <g id="ytick_6">
     <g id="line2d_13">
      <g>
       <use xlink:href="#m33b767c800" x="81.762344" y="92.618948" style="stroke: #000000; stroke-width: 0.75"/>
      </g>
     </g>
     <g id="text_14">
      <text style="font: 14.5px &quot;Suisse Int&apos;l Mono&quot;; text-anchor: end" x="71.762344" y="97.875198" transform="rotate(-0 71.762344 97.875198)">100</text>
     </g>
    </g>
    <g id="ytick_7">
     <g id="line2d_14">
      <g>
       <use xlink:href="#m33b767c800" x="81.762344" y="34.530718" style="stroke: #000000; stroke-width: 0.75"/>
      </g>
     </g>
     <g id="text_15">
      <text style="font: 14.5px &quot;Suisse Int&apos;l Mono&quot;; text-anchor: end" x="71.762344" y="39.786968" transform="rotate(-0 71.762344 39.786968)">120</text>
     </g>
    </g>
    <g id="text_16">
     <text style="font: 500 15px &quot;Suisse Int&apos;l&quot;, sans-serif; text-anchor: middle" x="30.875" y="208.581511" transform="rotate(-90 30.875 208.581511)">Intensity (au)</text>
    </g>
   </g>
   <g id="line2d_15">
    <path d="M 94.693398 383.175837 
L 123.120238 383.171281 
L 127.06841 383.158892 
L 131.016582 383.017407 
L 131.490363 382.919807 
L 132.437924 382.958174 
L 133.227559 383.159047 
L 156.758665 383.089135 
L 157.706227 382.906753 
L 158.495861 382.257943 
L 159.443423 382.436781 
L 160.07513 382.851502 
L 160.864765 382.925104 
L 161.338545 383.002061 
L 161.970253 383.119452 
L 167.18184 383.081031 
L 168.287328 382.682252 
L 168.919036 382.735114 
L 169.866597 383.10373 
L 172.077574 383.111887 
L 175.709892 383.014385 
L 176.657454 382.646335 
L 177.447088 382.728808 
L 178.236722 383.070556 
L 179.658064 383.091433 
L 182.658675 383.079964 
L 183.92209 382.985213 
L 184.080017 382.839421 
L 184.869652 381.252411 
L 185.185506 381.173721 
L 185.659286 381.300643 
L 185.817213 381.518309 
L 186.290994 382.638976 
L 186.606848 382.958974 
L 187.080628 383.022493 
L 187.712336 382.962118 
L 188.50197 382.573378 
L 188.659897 382.113532 
L 188.975751 378.42515 
L 189.291605 375.31553 
L 189.607459 374.151227 
L 189.765385 374.05542 
L 190.081239 374.26258 
L 190.239166 374.58704 
L 190.397093 375.309696 
L 191.028801 381.832894 
L 191.344654 382.791048 
L 191.660508 382.951621 
L 193.239777 383.005986 
L 198.293437 382.924472 
L 200.030633 382.833989 
L 200.346487 382.450033 
L 200.820268 381.670615 
L 201.136122 381.450554 
L 201.609902 381.441648 
L 201.925756 381.705579 
L 202.399537 382.391436 
L 202.873317 382.615406 
L 204.452586 382.539809 
L 204.610513 382.371414 
L 204.76844 381.777262 
L 205.242221 378.866297 
L 205.558074 377.85673 
L 205.873928 377.572337 
L 206.189782 377.697117 
L 206.347709 378.041235 
L 207.29527 382.160873 
L 207.611124 382.2991 
L 208.558685 382.106965 
L 210.927589 381.304381 
L 211.87515 380.588842 
L 212.506858 379.708906 
L 212.822711 379.079149 
L 213.138565 378.050094 
L 213.454419 376.437193 
L 213.612346 374.732627 
L 213.770273 363.879454 
L 213.9282 304.342537 
L 214.244053 81.432796 
L 214.40198 40.294744 
L 214.559907 34.18099 
L 214.717834 33.969001 
L 215.823322 33.969228 
L 215.981249 36.740069 
L 216.139176 69.403113 
L 216.612957 326.797964 
L 216.928811 369.84954 
L 217.244664 376.174251 
L 217.560518 378.225208 
L 218.034299 379.719305 
L 218.508079 380.494067 
L 219.297714 381.230875 
L 219.613568 381.343835 
L 219.929421 381.112243 
L 220.561129 380.338464 
L 221.03491 380.228164 
L 221.350763 380.321519 
L 222.140398 381.077351 
L 222.298325 379.098085 
L 222.614179 355.305704 
L 223.087959 321.660809 
L 223.403813 310.341801 
L 223.719667 307.88212 
L 223.877594 308.560042 
L 224.035521 311.725302 
L 224.983082 375.972821 
L 225.298936 381.422636 
L 225.61479 382.219846 
L 226.08857 382.481747 
L 227.667839 382.718432 
L 228.14162 382.620244 
L 228.299547 382.355336 
L 229.089181 379.913614 
L 229.878816 378.535662 
L 230.036742 378.663053 
L 231.300158 381.571151 
L 231.616011 381.990874 
L 232.089792 382.13869 
L 233.669061 382.154349 
L 235.090403 382.596257 
L 235.72211 382.824702 
L 236.669672 382.836481 
L 237.77516 382.720343 
L 239.670283 382.311387 
L 239.986137 382.073547 
L 240.144063 381.81279 
L 240.30199 379.967299 
L 240.459917 366.778542 
L 241.091625 283.205675 
L 241.565405 253.368746 
L 241.723332 250.001402 
L 241.881259 249.167575 
L 242.039186 251.406616 
L 242.35504 295.436974 
L 242.828821 351.615934 
L 243.302601 377.882448 
L 243.618455 381.735413 
L 243.934309 382.319638 
L 244.408089 382.555741 
L 245.197724 382.691383 
L 246.145285 382.518635 
L 246.461139 382.22506 
L 246.93492 381.52934 
L 247.4087 381.256416 
L 247.882481 381.24335 
L 248.198335 381.610209 
L 248.672115 382.272941 
L 248.830042 382.299227 
L 248.987969 382.088978 
L 249.145896 380.861052 
L 250.251384 350.67342 
L 250.567238 348.277922 
L 250.725165 348.371184 
L 250.883092 349.943372 
L 251.672726 375.406208 
L 252.146507 381.673351 
L 252.462361 382.608661 
L 252.778215 382.668813 
L 254.357484 381.335322 
L 254.673337 381.546795 
L 255.305045 382.112927 
L 256.252606 382.842523 
L 256.726387 382.894601 
L 258.147729 382.764454 
L 260.200778 383.033653 
L 264.464804 382.767525 
L 264.622731 382.630114 
L 264.780658 381.189929 
L 265.886147 348.587102 
L 266.202 345.14862 
L 266.359927 344.729249 
L 266.517854 346.265417 
L 267.307489 373.747667 
L 267.781269 380.80285 
L 268.097123 382.44764 
L 268.412977 382.781553 
L 269.044684 382.880201 
L 274.730052 382.768279 
L 276.625175 382.318285 
L 276.941029 382.221953 
L 277.256883 381.88287 
L 277.414809 380.57721 
L 277.730663 349.652322 
L 278.362371 285.191596 
L 278.836152 260.011565 
L 278.994078 255.748488 
L 279.152005 255.056675 
L 279.309932 267.377207 
L 279.94164 343.10342 
L 280.41542 369.845843 
L 280.731274 378.979353 
L 281.047128 381.488801 
L 281.362982 381.949099 
L 281.836762 382.077732 
L 282.942251 381.894853 
L 283.258104 381.654694 
L 283.416031 381.412427 
L 283.573958 380.816285 
L 283.731885 374.133717 
L 284.837373 194.064109 
L 285.153227 170.443728 
L 285.311154 165.378162 
L 285.469081 168.849533 
L 286.416642 337.818137 
L 286.890423 371.491067 
L 287.206277 379.800073 
L 287.52213 381.54052 
L 287.837984 381.974824 
L 288.311765 382.234126 
L 289.417253 382.51906 
L 290.206888 382.545436 
L 291.944083 382.400881 
L 292.733718 382.526704 
L 292.891645 382.450888 
L 293.049572 382.067495 
L 294.15506 377.166805 
L 294.470914 376.416661 
L 294.628841 376.339422 
L 294.786767 376.652478 
L 295.576402 380.432283 
L 296.050183 381.315888 
L 296.366036 381.476626 
L 296.68189 381.23426 
L 296.839817 380.928937 
L 296.997744 380.262597 
L 297.155671 372.62439 
L 297.629451 237.518193 
L 298.103232 131.68614 
L 298.419086 94.423739 
L 298.73494 76.393189 
L 298.892867 74.914862 
L 299.050793 97.61576 
L 299.682501 281.481926 
L 300.156282 345.448158 
L 300.472135 368.927166 
L 300.787989 378.354835 
L 301.103843 380.533993 
L 301.419697 381.176689 
L 301.893477 381.602705 
L 302.367258 381.81513 
L 302.683112 381.819407 
L 302.841039 381.695087 
L 302.998966 380.7099 
L 303.156893 373.216711 
L 303.946527 315.327234 
L 304.420308 294.978981 
L 304.578235 290.860835 
L 304.736162 289.79871 
L 304.894088 296.207312 
L 305.525796 350.430133 
L 305.999577 370.123259 
L 306.31543 377.713423 
L 306.631284 381.140317 
L 306.947138 381.938543 
L 307.262992 382.109679 
L 308.526407 382.318477 
L 310.105676 381.841406 
L 311.527018 382.664129 
L 314.685556 382.964415 
L 315.633117 382.778278 
L 316.738605 382.527589 
L 317.686166 382.476388 
L 318.159947 381.97795 
L 318.317874 381.664376 
L 318.475801 379.136101 
L 319.739216 325.480735 
L 320.05507 320.169468 
L 320.212997 320.825009 
L 320.528851 338.019446 
L 321.002631 362.496419 
L 321.476412 374.747853 
L 321.792266 379.49982 
L 322.108119 381.770374 
L 322.423973 382.428254 
L 322.897754 382.701953 
L 324.003242 382.909781 
L 326.214219 382.939886 
L 327.477634 382.794849 
L 328.898976 382.684815 
L 330.162391 382.681449 
L 330.952025 382.444186 
L 332.057514 381.910666 
L 332.373367 381.399454 
L 332.531294 378.26183 
L 332.847148 339.296936 
L 333.478856 247.106023 
L 333.952636 204.798366 
L 334.26849 192.943452 
L 334.426417 202.292764 
L 335.216051 327.18629 
L 335.689832 359.710214 
L 336.005686 373.247698 
L 336.32154 379.48326 
L 336.637393 381.444893 
L 336.953247 382.030706 
L 337.584955 382.469143 
L 338.532516 382.69863 
L 339.638004 382.802047 
L 340.585566 382.757262 
L 342.164834 382.465634 
L 343.112396 382.5067 
L 343.270323 382.432675 
L 343.42825 382.153019 
L 343.586176 379.614717 
L 343.90203 364.092341 
L 344.533738 330.370418 
L 345.007519 315.602674 
L 345.165445 312.823162 
L 345.323372 312.557998 
L 345.481299 317.798727 
L 346.113007 358.460234 
L 346.586787 371.436882 
L 347.060568 379.431505 
L 347.376422 381.426186 
L 347.692276 382.022713 
L 348.48191 382.499808 
L 349.113618 382.601732 
L 350.061179 382.499435 
L 350.377033 382.323998 
L 351.00874 381.457242 
L 351.640448 380.370186 
L 351.798375 379.959715 
L 351.956302 378.774434 
L 352.114229 371.084026 
L 352.588009 307.23202 
L 353.06179 246.463626 
L 353.535571 212.852643 
L 353.693497 206.916615 
L 353.851424 207.121676 
L 354.009351 221.429688 
L 354.641059 322.057998 
L 355.114839 354.34172 
L 355.58862 374.541639 
L 355.904474 380.075433 
L 356.220328 381.732186 
L 356.536181 382.220261 
L 357.009962 382.457405 
L 357.64167 382.496738 
L 359.378866 382.559197 
L 360.484354 382.590657 
L 362.537403 382.539049 
L 364.274599 382.136656 
L 365.064234 381.763079 
L 365.380087 381.520375 
L 365.695941 381.04227 
L 365.853868 380.024428 
L 366.011795 373.142608 
L 366.327649 320.919856 
L 367.117283 161.892917 
L 367.591064 114.597508 
L 367.748991 110.461635 
L 367.906918 117.866441 
L 368.854479 317.044937 
L 369.486186 364.137682 
L 369.80204 375.983342 
L 370.117894 379.450676 
L 370.433748 380.332619 
L 370.749602 380.448872 
L 371.065455 380.115028 
L 371.223382 379.743069 
L 371.381309 378.162033 
L 371.539236 367.022463 
L 371.85509 277.994137 
L 372.486797 70.11673 
L 372.802651 47.378111 
L 373.118505 39.745336 
L 373.276432 37.363728 
L 373.434359 37.360832 
L 373.592286 43.442679 
L 373.750213 78.074891 
L 374.223993 245.597597 
L 374.697774 317.947386 
L 375.171555 363.864126 
L 375.487408 376.211088 
L 375.803262 379.770491 
L 376.119116 381.011855 
L 376.592897 381.744666 
L 377.066677 382.062988 
L 377.856312 382.206134 
L 378.803873 382.298026 
L 380.067288 382.621157 
L 381.172776 382.778089 
L 383.699607 382.959621 
L 386.06851 382.846111 
L 387.173998 383.019447 
L 391.438024 383.093793 
L 398.860588 382.774129 
L 400.439857 382.28094 
L 400.913638 381.972872 
L 401.229491 381.486734 
L 401.387418 380.302722 
L 401.545345 373.784149 
L 401.861199 327.658612 
L 402.80876 125.087534 
L 403.124614 94.912734 
L 403.282541 90.172735 
L 403.440468 93.884574 
L 403.756322 164.847481 
L 404.230102 291.923618 
L 404.545956 329.715532 
L 405.019737 361.201098 
L 405.335591 374.245683 
L 405.651444 379.873592 
L 405.967298 381.495563 
L 406.283152 382.042495 
L 406.756933 382.356435 
L 407.38864 382.505406 
L 408.178275 382.503988 
L 408.809982 382.3175 
L 408.967909 382.032752 
L 409.125836 380.469744 
L 409.44169 368.642808 
L 410.547178 304.159071 
L 410.863032 298.148103 
L 411.020959 298.832674 
L 411.178886 305.615928 
L 411.96852 362.973122 
L 412.442301 374.278837 
L 412.916081 380.385336 
L 413.231935 382.00173 
L 413.547789 382.547296 
L 414.02157 382.82194 
L 415.127058 383.003613 
L 417.969742 383.112148 
L 417.969742 383.112148 
" clip-path="url(#p2c95113135)" style="fill: none; stroke: #5088c5; stroke-linecap: round"/>
   </g>
   <g id="line2d_16">
    <defs>
     <path id="m7ea0529188" d="M 0 2 
C 0.530406 2 1.03916 1.789267 1.414214 1.414214 
C 1.789267 1.03916 2 0.530406 2 0 
C 2 -0.530406 1.789267 -1.03916 1.414214 -1.414214 
C 1.03916 -1.789267 0.530406 -2 0 -2 
C -0.530406 -2 -1.03916 -1.789267 -1.414214 -1.414214 
C -1.789267 -1.03916 -2 -0.530406 -2 0 
C -2 0.530406 -1.789267 1.03916 -1.414214 1.414214 
C -1.03916 1.789267 -0.530406 2 0 2 
z
"/>
    </defs>
    <g clip-path="url(#p2c95113135)">
     <use xlink:href="#m7ea0529188" x="215.271669" y="33.969131" style="fill: #f28360"/>
     <use xlink:href="#m7ea0529188" x="223.610306" y="308.452804" style="fill: #f28360"/>
     <use xlink:href="#m7ea0529188" x="241.694121" y="250.001402" style="fill: #f28360"/>
     <use xlink:href="#m7ea0529188" x="278.893364" y="260.011565" style="fill: #f28360"/>
     <use xlink:href="#m7ea0529188" x="285.159736" y="170.443728" style="fill: #f28360"/>
     <use xlink:href="#m7ea0529188" x="298.61165" y="83.416038" style="fill: #f28360"/>
     <use xlink:href="#m7ea0529188" x="304.522632" y="290.860835" style="fill: #f28360"/>
     <use xlink:href="#m7ea0529188" x="319.936531" y="321.928945" style="fill: #f28360"/>
     <use xlink:href="#m7ea0529188" x="334.088395" y="195.772628" style="fill: #f28360"/>
     <use xlink:href="#m7ea0529188" x="345.097289" y="312.823162" style="fill: #f28360"/>
     <use xlink:href="#m7ea0529188" x="353.604505" y="212.852643" style="fill: #f28360"/>
     <use xlink:href="#m7ea0529188" x="367.584729" y="114.597508" style="fill: #f28360"/>
     <use xlink:href="#m7ea0529188" x="373.101793" y="39.745336" style="fill: #f28360"/>
     <use xlink:href="#m7ea0529188" x="403.153783" y="94.912734" style="fill: #f28360"/>
     <use xlink:href="#m7ea0529188" x="410.75796" y="300.066175" style="fill: #f28360"/>
    </g>
   </g>
   <g id="patch_3">
    <path d="M 81.762344 397.163023 
L 81.762344 20 
" style="fill: none; stroke: #000000; stroke-width: 0.75; stroke-linejoin: miter; stroke-linecap: square"/>
   </g>
   <g id="patch_4">
    <path d="M 81.762344 397.163023 
L 430.900796 397.163023 
" style="fill: none; stroke: #000000; stroke-width: 0.75; stroke-linejoin: miter; stroke-linecap: square"/>
   </g>
  </g>
 </g>
 <defs>
  <clipPath id="p2c95113135">
   <rect x="81.762344" y="20" width="349.138452" height="377.163023"/>
  </clipPath>
 </defs>
</svg>
