<?xml version="1.0" encoding="utf-8" standalone="no"?>
<!DOCTYPE svg PUBLIC "-//W3C//DTD SVG 1.1//EN"
  "http://www.w3.org/Graphics/SVG/1.1/DTD/svg11.dtd">
<svg xmlns:xlink="http://www.w3.org/1999/xlink" width="463.9987pt" height="463.99896pt" viewBox="0 0 463.9987 463.99896" xmlns="http://www.w3.org/2000/svg" version="1.1">
 <metadata>
  <rdf:RDF xmlns:dc="http://purl.org/dc/elements/1.1/" xmlns:cc="http://creativecommons.org/ns#" xmlns:rdf="http://www.w3.org/1999/02/22-rdf-syntax-ns#">
   <cc:Work>
    <dc:type rdf:resource="http://purl.org/dc/dcmitype/StillImage"/>
    <dc:date>2025-01-28T13:21:53.923333</dc:date>
    <dc:format>image/svg+xml</dc:format>
    <dc:creator>
     <cc:Agent>
      <dc:title>Matplotlib v3.8.4, https://matplotlib.org/</dc:title>
     </cc:Agent>
    </dc:creator>
   </cc:Work>
  </rdf:RDF>
 </metadata>
 <defs>
  <style type="text/css">*{stroke-linejoin: round; stroke-linecap: butt}</style>
 </defs>
 <g id="figure_1">
  <g id="patch_1">
   <path d="M 0 463.99896 
L 463.9987 463.99896 
L 463.9987 -0 
L 0 -0 
L 0 463.99896 
z
" style="fill: none"/>
  </g>
  <g id="axes_1">
   <g id="patch_2">
    <path d="M 81.762344 397.163022 
L 431.346698 397.163022 
L 431.346698 20 
L 81.762344 20 
L 81.762344 397.163022 
z
" style="fill: none"/>
   </g>
   <g id="matplotlib.axis_1">
    <g id="xtick_1">
     <g id="line2d_1">
      <defs>
       <path id="m1ae21efaa3" d="M 0 0 
L 0 5 
" style="stroke: #000000; stroke-width: 0.75"/>
      </defs>
      <g>
       <use xlink:href="#m1ae21efaa3" x="85.17922" y="397.163022" style="stroke: #000000; stroke-width: 0.75"/>
      </g>
     </g>
     <g id="text_1">
      <text style="font: 14.5px &quot;Suisse Int&apos;l Mono&quot;; text-anchor: middle" x="85.17922" y="417.675522" transform="rotate(-0 85.17922 417.675522)">540</text>
     </g>
    </g>
    <g id="xtick_2">
     <g id="line2d_2">
      <g>
       <use xlink:href="#m1ae21efaa3" x="142.640943" y="397.163022" style="stroke: #000000; stroke-width: 0.75"/>
      </g>
     </g>
     <g id="text_2">
      <text style="font: 14.5px &quot;Suisse Int&apos;l Mono&quot;; text-anchor: middle" x="142.640943" y="417.675522" transform="rotate(-0 142.640943 417.675522)">560</text>
     </g>
    </g>
    <g id="xtick_3">
     <g id="line2d_3">
      <g>
       <use xlink:href="#m1ae21efaa3" x="200.102667" y="397.163022" style="stroke: #000000; stroke-width: 0.75"/>
      </g>
     </g>
     <g id="text_3">
      <text style="font: 14.5px &quot;Suisse Int&apos;l Mono&quot;; text-anchor: middle" x="200.102667" y="417.675522" transform="rotate(-0 200.102667 417.675522)">580</text>
     </g>
    </g>
    <g id="xtick_4">
     <g id="line2d_4">
      <g>
       <use xlink:href="#m1ae21efaa3" x="257.56439" y="397.163022" style="stroke: #000000; stroke-width: 0.75"/>
      </g>
     </g>
     <g id="text_4">
      <text style="font: 14.5px &quot;Suisse Int&apos;l Mono&quot;; text-anchor: middle" x="257.56439" y="417.675522" transform="rotate(-0 257.56439 417.675522)">600</text>
     </g>
    </g>
    <g id="xtick_5">
     <g id="line2d_5">
      <g>
       <use xlink:href="#m1ae21efaa3" x="315.026113" y="397.163022" style="stroke: #000000; stroke-width: 0.75"/>
      </g>
     </g>
     <g id="text_5">
      <text style="font: 14.5px &quot;Suisse Int&apos;l Mono&quot;; text-anchor: middle" x="315.026113" y="417.675522" transform="rotate(-0 315.026113 417.675522)">620</text>
     </g>
    </g>
    <g id="xtick_6">
     <g id="line2d_6">
      <g>
       <use xlink:href="#m1ae21efaa3" x="372.487836" y="397.163022" style="stroke: #000000; stroke-width: 0.75"/>
      </g>
     </g>
     <g id="text_6">
      <text style="font: 14.5px &quot;Suisse Int&apos;l Mono&quot;; text-anchor: middle" x="372.487836" y="417.675522" transform="rotate(-0 372.487836 417.675522)">640</text>
     </g>
    </g>
    <g id="xtick_7">
     <g id="line2d_7">
      <g>
       <use xlink:href="#m1ae21efaa3" x="429.94956" y="397.163022" style="stroke: #000000; stroke-width: 0.75"/>
      </g>
     </g>
     <g id="text_7">
      <text style="font: 14.5px &quot;Suisse Int&apos;l Mono&quot;; text-anchor: middle" x="429.94956" y="417.675522" transform="rotate(-0 429.94956 417.675522)">660</text>
     </g>
    </g>
    <g id="text_8">
     <text style="font: 500 15px &quot;Suisse Int&apos;l&quot;, sans-serif; text-anchor: middle" x="256.554521" y="441.088022" transform="rotate(-0 256.554521 441.088022)">Wavelength (nm)</text>
    </g>
   </g>
   <g id="matplotlib.axis_2">
    <g id="ytick_1">
     <g id="line2d_8">
      <defs>
       <path id="m197ffd9990" d="M 0 0 
L -5 0 
" style="stroke: #000000; stroke-width: 0.75"/>
      </defs>
      <g>
       <use xlink:href="#m197ffd9990" x="81.762344" y="381.597901" style="stroke: #000000; stroke-width: 0.75"/>
      </g>
     </g>
     <g id="text_9">
      <text style="font: 14.5px &quot;Suisse Int&apos;l Mono&quot;; text-anchor: end" x="71.762344" y="386.854151" transform="rotate(-0 71.762344 386.854151)">0.0</text>
     </g>
    </g>
    <g id="ytick_2">
     <g id="line2d_9">
      <g>
       <use xlink:href="#m197ffd9990" x="81.762344" y="334.287517" style="stroke: #000000; stroke-width: 0.75"/>
      </g>
     </g>
     <g id="text_10">
      <text style="font: 14.5px &quot;Suisse Int&apos;l Mono&quot;; text-anchor: end" x="71.762344" y="339.543767" transform="rotate(-0 71.762344 339.543767)">0.2</text>
     </g>
    </g>
    <g id="ytick_3">
     <g id="line2d_10">
      <g>
       <use xlink:href="#m197ffd9990" x="81.762344" y="286.977133" style="stroke: #000000; stroke-width: 0.75"/>
      </g>
     </g>
     <g id="text_11">
      <text style="font: 14.5px &quot;Suisse Int&apos;l Mono&quot;; text-anchor: end" x="71.762344" y="292.233383" transform="rotate(-0 71.762344 292.233383)">0.4</text>
     </g>
    </g>
    <g id="ytick_4">
     <g id="line2d_11">
      <g>
       <use xlink:href="#m197ffd9990" x="81.762344" y="239.666749" style="stroke: #000000; stroke-width: 0.75"/>
      </g>
     </g>
     <g id="text_12">
      <text style="font: 14.5px &quot;Suisse Int&apos;l Mono&quot;; text-anchor: end" x="71.762344" y="244.922999" transform="rotate(-0 71.762344 244.922999)">0.6</text>
     </g>
    </g>
    <g id="ytick_5">
     <g id="line2d_12">
      <g>
       <use xlink:href="#m197ffd9990" x="81.762344" y="192.356366" style="stroke: #000000; stroke-width: 0.75"/>
      </g>
     </g>
     <g id="text_13">
      <text style="font: 14.5px &quot;Suisse Int&apos;l Mono&quot;; text-anchor: end" x="71.762344" y="197.612616" transform="rotate(-0 71.762344 197.612616)">0.8</text>
     </g>
    </g>
    <g id="ytick_6">
     <g id="line2d_13">
      <g>
       <use xlink:href="#m197ffd9990" x="81.762344" y="145.045982" style="stroke: #000000; stroke-width: 0.75"/>
      </g>
     </g>
     <g id="text_14">
      <text style="font: 14.5px &quot;Suisse Int&apos;l Mono&quot;; text-anchor: end" x="71.762344" y="150.302232" transform="rotate(-0 71.762344 150.302232)">1.0</text>
     </g>
    </g>
    <g id="ytick_7">
     <g id="line2d_14">
      <g>
       <use xlink:href="#m197ffd9990" x="81.762344" y="97.735598" style="stroke: #000000; stroke-width: 0.75"/>
      </g>
     </g>
     <g id="text_15">
      <text style="font: 14.5px &quot;Suisse Int&apos;l Mono&quot;; text-anchor: end" x="71.762344" y="102.991848" transform="rotate(-0 71.762344 102.991848)">1.2</text>
     </g>
    </g>
    <g id="ytick_8">
     <g id="line2d_15">
      <g>
       <use xlink:href="#m197ffd9990" x="81.762344" y="50.425214" style="stroke: #000000; stroke-width: 0.75"/>
      </g>
     </g>
     <g id="text_16">
      <text style="font: 14.5px &quot;Suisse Int&apos;l Mono&quot;; text-anchor: end" x="71.762344" y="55.681464" transform="rotate(-0 71.762344 55.681464)">1.4</text>
     </g>
    </g>
    <g id="text_17">
     <text style="font: 500 15px &quot;Suisse Int&apos;l&quot;, sans-serif; text-anchor: middle" x="30.875" y="208.581511" transform="rotate(-90 30.875 208.581511)">Intensity (AU)</text>
    </g>
   </g>
   <g id="line2d_16">
    <path d="M 94.709912 381.834487 
L 95.184298 381.891261 
L 95.342427 381.552993 
L 95.658684 381.538801 
L 95.816813 380.942691 
L 95.974941 380.942691 
L 96.291198 381.271497 
L 96.449327 381.683096 
L 96.607455 381.68546 
L 96.923713 381.827389 
L 97.23997 381.725671 
L 97.556227 381.366111 
L 97.714356 381.479655 
L 97.872484 382.25791 
L 98.030613 382.25791 
L 98.34687 381.633414 
L 98.504999 381.765884 
L 98.663127 381.519871 
L 98.979384 381.41579 
L 99.295641 381.266763 
L 99.45377 381.266763 
L 99.770027 381.411059 
L 100.086284 381.328264 
L 100.402542 381.330626 
L 100.56067 381.165038 
L 100.876927 381.224171 
L 101.351313 381.491464 
L 101.509442 381.323509 
L 101.66757 381.418125 
L 101.825699 381.238342 
L 102.141956 380.45298 
L 102.300085 380.708449 
L 102.616342 380.708434 
L 102.77447 381.070349 
L 102.932599 381.718491 
L 103.090728 381.718482 
L 103.248856 381.891155 
L 103.723242 381.803605 
L 104.039499 381.108125 
L 104.197628 381.276068 
L 104.513885 382.491926 
L 104.830142 382.390194 
L 105.146399 382.307388 
L 105.462656 381.365901 
L 106.411428 381.391887 
L 106.727685 382.030564 
L 106.885814 382.030558 
L 107.202071 380.980256 
L 107.518328 380.918739 
L 108.467099 381.581031 
L 108.625228 381.900367 
L 109.099614 381.869588 
L 109.415871 381.718178 
L 109.890257 381.51945 
L 110.206514 381.810393 
L 110.364643 381.708667 
L 110.6809 381.786714 
L 111.155285 381.774865 
L 111.313414 381.42003 
L 111.629671 381.424747 
L 111.7878 381.817416 
L 112.104057 381.912022 
L 112.262186 381.79374 
L 112.420314 381.448367 
L 112.578443 381.448361 
L 112.8947 382.191121 
L 113.369086 382.247878 
L 113.843471 381.351335 
L 114.0016 381.668311 
L 114.159729 381.668307 
L 114.475986 381.526368 
L 114.792243 381.497974 
L 114.950372 381.247224 
L 115.1085 381.24722 
L 115.266629 381.38205 
L 115.582886 382.754041 
L 115.741014 382.754038 
L 115.899143 381.833849 
L 116.373529 381.831478 
L 116.531657 381.476649 
L 118.271072 381.263726 
L 118.587329 381.632738 
L 118.903586 381.713157 
L 119.219843 381.862176 
L 119.536101 381.587769 
L 119.694229 381.35831 
L 119.852358 381.587761 
L 120.010486 381.483674 
L 120.168615 381.613774 
L 120.484872 381.370117 
L 120.643001 381.370113 
L 120.801129 382.089226 
L 121.275515 382.19803 
L 121.433644 381.93782 
L 121.591772 381.935453 
L 121.908029 381.457615 
L 122.224287 381.322776 
L 122.382415 381.831361 
L 123.647444 382.134139 
L 123.805572 381.656305 
L 124.279958 381.526205 
L 124.438087 381.327502 
L 124.596215 381.327503 
L 124.754344 381.159552 
L 124.912472 381.639752 
L 125.070601 381.573518 
L 125.22873 381.663407 
L 125.544987 381.384276 
L 125.861244 381.235248 
L 126.019373 381.235247 
L 126.177501 381.694157 
L 126.33563 381.732004 
L 126.493758 382.041886 
L 127.126273 380.920627 
L 127.284401 380.920626 
L 127.44253 381.377168 
L 127.600658 381.469421 
L 127.916916 381.798223 
L 128.391301 381.61134 
L 128.865687 381.029415 
L 129.181944 381.095642 
L 129.498201 381.500137 
L 129.814459 381.559266 
L 130.130716 381.642049 
L 130.288844 381.3913 
L 130.446973 381.391295 
L 130.605102 381.731924 
L 130.76323 382.387168 
L 131.237616 382.455758 
L 131.395745 381.284824 
L 131.712002 381.391269 
L 131.87013 381.466963 
L 132.186387 381.831247 
L 132.502645 381.888016 
L 132.818902 381.488239 
L 132.97703 381.611244 
L 133.135159 381.360498 
L 133.293288 381.360496 
L 133.609545 381.142863 
L 133.925802 381.270594 
L 134.400188 381.180692 
L 134.874573 381.755498 
L 135.190831 381.62775 
L 135.348959 381.386463 
L 135.507088 381.386458 
L 135.823345 381.497627 
L 135.981474 381.062366 
L 136.297731 381.062353 
L 136.455859 381.559105 
L 136.772116 381.672636 
L 136.930245 381.672629 
L 137.088374 382.081857 
L 137.246502 382.081851 
L 137.562759 381.878405 
L 137.720888 381.823993 
L 138.037145 381.376899 
L 138.353402 381.743544 
L 138.827788 381.691488 
L 139.302174 381.648894 
L 139.460302 381.928021 
L 139.618431 381.648886 
L 140.092817 381.563715 
L 140.409074 382.280459 
L 140.567203 382.280456 
L 140.725331 381.566067 
L 141.199717 381.095321 
L 141.515974 381.419389 
L 141.674103 381.27982 
L 141.832231 381.674857 
L 142.148488 381.762373 
L 142.306617 382.08881 
L 142.464746 382.088807 
L 142.622874 381.885369 
L 142.939131 380.967542 
L 143.09726 380.967538 
L 143.255389 381.199355 
L 143.413517 381.944489 
L 143.571646 382.147919 
L 143.729774 382.147915 
L 143.887903 381.963402 
L 144.20416 381.291589 
L 144.520417 381.719741 
L 145.152932 381.804888 
L 145.31106 382.251968 
L 145.627317 382.218847 
L 145.785446 381.946812 
L 146.101703 381.840363 
L 146.259832 381.618004 
L 146.41796 381.618005 
L 146.892346 381.972834 
L 147.208603 381.972836 
L 147.52486 381.610915 
L 148.157375 381.544688 
L 148.473632 382.046182 
L 148.63176 382.046185 
L 148.789889 381.353091 
L 148.948018 381.353094 
L 149.106146 381.466641 
L 149.264275 381.741044 
L 149.422403 381.741047 
L 149.738661 380.752265 
L 149.896789 380.752266 
L 150.213046 381.450096 
L 150.529304 381.450095 
L 150.845561 382.552427 
L 151.003689 382.552429 
L 151.319946 381.608591 
L 151.478075 381.608594 
L 151.636204 381.845148 
L 151.952461 381.845154 
L 152.426847 380.863472 
L 152.584975 380.863475 
L 152.901232 381.724526 
L 153.059361 381.724527 
L 153.691875 381.199387 
L 153.850004 381.783671 
L 154.166261 381.868831 
L 154.482518 381.719806 
L 154.640647 381.790773 
L 154.798775 382.036789 
L 155.273161 382.001314 
L 155.43129 381.710358 
L 155.589418 381.667782 
L 155.747547 381.488007 
L 155.905675 381.592093 
L 156.063804 381.428875 
L 156.380061 381.566082 
L 156.53819 381.566085 
L 157.64509 382.420067 
L 157.803219 382.358571 
L 158.119476 381.909137 
L 158.277604 381.861835 
L 158.435733 381.395836 
L 159.226376 381.428993 
L 159.384504 381.892642 
L 159.542633 381.89265 
L 159.85889 381.762562 
L 160.017019 382.074819 
L 160.175147 382.077193 
L 160.333276 382.36343 
L 160.649533 382.335065 
L 160.807662 382.235725 
L 161.123919 382.23575 
L 161.282047 381.916418 
L 161.440176 381.916432 
L 161.756433 382.138819 
L 161.914562 382.138834 
L 162.07269 381.86445 
L 162.230819 381.864466 
L 162.388948 381.618468 
L 162.863333 381.526261 
L 163.021462 381.329939 
L 163.17959 381.329955 
L 163.337719 381.680068 
L 163.812105 381.748715 
L 163.970233 381.985283 
L 164.444619 381.985334 
L 164.602748 382.20771 
L 164.760876 382.207729 
L 165.551519 381.443763 
L 165.709648 381.633023 
L 165.867776 382.191305 
L 166.025905 382.191325 
L 166.342162 381.75138 
L 166.658419 381.69938 
L 166.816548 381.555105 
L 166.974677 381.160084 
L 167.132805 381.160105 
L 167.449062 381.493684 
L 167.765319 381.914786 
L 168.081577 381.99289 
L 168.397834 381.898312 
L 168.555962 381.555333 
L 168.87222 381.555377 
L 169.188477 381.697352 
L 169.504734 381.60514 
L 169.662863 381.302376 
L 169.820991 381.605184 
L 170.137248 381.763717 
L 170.453505 382.222672 
L 170.927891 381.910494 
L 171.402277 381.806485 
L 171.560406 381.969731 
L 171.718534 381.766322 
L 171.876663 381.969782 
L 172.034791 382.54936 
L 172.19292 382.613256 
L 172.351048 382.549415 
L 172.509177 382.083436 
L 172.825434 381.967585 
L 172.983563 381.894284 
L 173.141691 382.031514 
L 173.616077 381.733552 
L 173.774206 381.89917 
L 173.932334 381.733616 
L 174.090463 381.934717 
L 174.40672 381.934782 
L 174.722977 382.538056 
L 174.881106 382.53809 
L 175.039234 382.14545 
L 175.355492 382.145523 
L 175.51362 381.795463 
L 175.671749 381.795501 
L 175.988006 381.944604 
L 176.146135 381.944642 
L 176.462392 381.473981 
L 176.62052 381.47402 
L 176.778649 381.689321 
L 176.936777 381.689359 
L 177.094906 381.521446 
L 177.253035 381.521485 
L 177.411163 381.885813 
L 177.72742 381.885891 
L 178.201806 381.945149 
L 178.359935 382.36152 
L 178.676192 382.4373 
L 178.992449 381.105599 
L 179.150578 381.105641 
L 179.308706 381.316214 
L 179.466835 382.028277 
L 180.099349 382.026082 
L 180.257478 382.274506 
L 180.415606 382.27455 
L 180.573735 382.146857 
L 180.889992 381.508259 
L 181.206249 381.553295 
L 181.364378 381.662154 
L 181.522507 381.972083 
L 181.680635 381.972129 
L 181.838764 381.548748 
L 181.996892 381.548794 
L 182.155021 381.849261 
L 182.313149 382.667778 
L 182.471278 382.667825 
L 182.787535 381.866012 
L 183.103792 381.773856 
L 183.261921 382.005727 
L 183.42005 381.773956 
L 183.736307 381.755133 
L 184.052564 382.285111 
L 184.210692 382.285163 
L 184.368821 382.062857 
L 184.52695 382.06291 
L 184.685078 381.745984 
L 185.001335 381.746092 
L 185.159464 381.280138 
L 185.475721 381.258955 
L 185.63385 381.053208 
L 186.108236 381.157447 
L 186.582621 382.167677 
L 186.74075 382.167729 
L 186.898878 381.815319 
L 187.057007 381.815371 
L 187.215136 382.125307 
L 187.373264 382.125361 
L 187.689521 381.843972 
L 188.005779 381.669033 
L 188.163907 381.744785 
L 188.480164 382.161226 
L 188.796421 382.161339 
L 188.95455 381.652809 
L 189.270807 379.926093 
L 189.428936 379.34423 
L 190.219579 379.365757 
L 190.535836 379.441533 
L 190.693965 380.735509 
L 191.010222 381.423946 
L 191.484607 381.679526 
L 191.642736 382.055679 
L 191.800865 381.774218 
L 192.433379 381.729416 
L 192.907765 381.448028 
L 193.224022 381.8597 
L 193.540279 381.859773 
L 193.698408 381.689493 
L 194.014665 382.243098 
L 194.172793 382.243136 
L 194.330922 381.990065 
L 194.963436 381.983126 
L 195.279694 382.047077 
L 195.754079 381.803553 
L 195.912208 381.91241 
L 196.070336 382.432866 
L 196.386594 382.432954 
L 196.702851 381.862955 
L 196.860979 381.863 
L 197.177237 382.676832 
L 197.335365 382.67688 
L 197.493494 382.13759 
L 197.651622 382.106888 
L 197.96788 381.600767 
L 198.600394 381.527637 
L 198.758522 382.192397 
L 198.916651 382.192448 
L 199.07478 381.615312 
L 199.232908 381.615363 
L 199.391037 382.176043 
L 199.707294 382.157223 
L 199.865423 381.388482 
L 200.18168 381.388587 
L 200.497937 382.010823 
L 200.656065 382.010876 
L 200.814194 381.294177 
L 200.972323 381.29423 
L 201.130451 381.587607 
L 201.28858 381.58766 
L 201.604837 381.31573 
L 201.762966 381.315782 
L 202.079223 381.758238 
L 202.39548 381.715763 
L 202.869866 381.718286 
L 203.50238 382.10881 
L 203.660509 382.085209 
L 203.976766 381.692642 
L 204.134894 381.692697 
L 204.451152 381.827642 
L 204.60928 381.671573 
L 205.083666 380.827248 
L 205.241795 380.815475 
L 205.71618 380.205327 
L 205.874309 380.370963 
L 206.032437 380.205426 
L 206.348695 379.356297 
L 206.506823 379.35634 
L 206.664952 379.559815 
L 206.981209 381.118769 
L 207.297466 381.118843 
L 207.613723 381.868785 
L 207.92998 381.819182 
L 208.246238 381.56378 
L 208.404366 381.611127 
L 208.562495 382.164696 
L 208.720623 382.256989 
L 209.036881 382.145886 
L 209.353138 382.145965 
L 209.669395 381.585418 
L 209.985652 381.471954 
L 210.301909 381.65418 
L 210.618166 381.65426 
L 210.776295 381.448501 
L 210.934424 381.625955 
L 211.092552 381.448581 
L 211.408809 381.678117 
L 211.883195 381.810707 
L 212.199452 380.914257 
L 212.357581 380.914297 
L 212.515709 381.207661 
L 213.148224 381.148676 
L 213.306352 381.089575 
L 213.780738 380.058316 
L 213.938867 378.5799 
L 214.096995 373.470409 
L 214.255124 356.379563 
L 214.571381 85.307683 
L 214.887638 50.163224 
L 215.045767 42.941325 
L 215.203895 40.930663 
L 215.520153 33.969001 
L 215.678281 33.969031 
L 215.83641 54.80692 
L 216.310796 363.237595 
L 216.627053 376.569722 
L 216.785181 378.923439 
L 217.101439 379.940655 
L 217.259567 380.238729 
L 217.575824 380.238762 
L 217.892081 380.787591 
L 218.05021 381.587149 
L 218.366467 381.722009 
L 218.524596 381.357732 
L 218.840853 381.308081 
L 219.315239 381.736277 
L 219.473367 381.736289 
L 219.631496 381.014818 
L 219.947753 381.107096 
L 220.26401 381.336572 
L 220.422139 381.192285 
L 220.896525 381.594452 
L 221.054653 381.594461 
L 221.212782 381.090614 
L 221.37091 381.090623 
L 221.845296 381.587405 
L 222.161553 381.693869 
L 222.319682 382.025049 
L 222.47781 382.025057 
L 222.635939 380.570271 
L 223.268453 356.635978 
L 223.584711 355.353882 
L 223.742839 355.086585 
L 224.059096 355.074773 
L 224.217225 356.12034 
L 224.849739 380.790367 
L 225.165996 381.346271 
L 225.482254 382.268831 
L 225.798511 382.160026 
L 226.114768 381.587582 
L 226.272897 381.762636 
L 226.431025 382.257036 
L 226.905411 382.446299 
L 227.379797 381.708286 
L 227.537925 381.687006 
L 227.854182 382.143571 
L 228.328568 382.098661 
L 228.486697 382.053728 
L 228.644825 381.405589 
L 228.802954 381.405602 
L 228.961083 381.157235 
L 229.27734 381.112314 
L 229.435468 380.641586 
L 229.593597 380.641597 
L 229.751725 380.442902 
L 229.909854 380.0526 
L 230.226111 380.080997 
L 230.542368 381.332363 
L 230.700497 381.332366 
L 230.858626 381.185706 
L 231.016754 380.847439 
L 231.333011 380.849806 
L 231.49114 381.240117 
L 231.649268 381.251943 
L 231.807397 381.552363 
L 232.439911 381.55709 
L 232.59804 381.701385 
L 232.756169 382.143736 
L 232.914297 382.143736 
L 233.072426 381.72977 
L 233.230554 381.649342 
L 233.388683 381.72977 
L 233.546812 381.975784 
L 233.70494 381.975784 
L 233.863069 381.599668 
L 234.021197 381.599669 
L 234.337454 382.016002 
L 234.495583 382.016004 
L 234.81184 381.564194 
L 234.969969 381.564196 
L 235.128097 381.975798 
L 236.234997 382.134314 
L 236.393126 382.446568 
L 236.551255 382.446574 
L 236.867512 382.042086 
L 237.341898 382.105981 
L 237.500026 381.838687 
L 237.974412 381.694421 
L 238.132541 382.262156 
L 238.448798 382.226696 
L 238.765055 381.824582 
L 238.923183 381.824595 
L 239.081312 382.174705 
L 239.239441 382.22676 
L 239.397569 382.425478 
L 239.555698 382.425493 
L 240.030084 381.84126 
L 240.346341 382.106232 
L 240.504469 382.10625 
L 240.662598 380.149985 
L 240.820727 373.022692 
L 241.136984 337.719718 
L 241.295112 333.911249 
L 241.769498 331.481912 
L 241.927627 331.481929 
L 242.085755 332.061499 
L 242.243884 333.348358 
L 242.402012 341.812203 
L 242.71827 375.79292 
L 242.876398 380.332363 
L 243.034527 380.490862 
L 243.350784 380.490879 
L 243.82517 382.487397 
L 243.983298 382.596219 
L 244.141427 382.487414 
L 244.299555 382.118402 
L 244.615813 382.116058 
L 244.773941 381.784896 
L 244.93207 381.784908 
L 245.248327 381.380427 
L 245.564584 381.274001 
L 245.722713 381.612281 
L 245.880841 381.612291 
L 246.513356 382.120922 
L 246.671484 382.120934 
L 246.829613 381.870202 
L 246.987741 381.252814 
L 247.303999 381.144024 
L 247.462127 381.531981 
L 247.778384 381.536735 
L 248.094641 381.200854 
L 248.25277 381.200865 
L 248.410899 381.619572 
L 248.727156 381.915283 
L 249.043413 382.111643 
L 249.201542 382.007571 
L 249.517799 379.774545 
L 250.150313 368.774906 
L 250.624699 368.148058 
L 250.782827 368.178815 
L 250.940956 368.573862 
L 251.099085 369.553192 
L 251.57347 381.534558 
L 251.731599 382.144864 
L 252.047856 382.215834 
L 252.364113 381.853917 
L 252.680371 381.870483 
L 252.838499 382.208757 
L 252.996628 382.208762 
L 253.154756 382.021892 
L 253.312885 381.648146 
L 253.471013 381.648152 
L 253.787271 381.778268 
L 254.419785 380.869934 
L 254.577914 380.869939 
L 254.894171 381.619816 
L 255.368556 382.187554 
L 255.526685 382.187559 
L 255.684814 381.534681 
L 256.317328 381.572552 
L 256.633585 382.154481 
L 257.2661 381.520549 
L 257.424228 381.158631 
L 257.582357 381.158637 
L 257.898614 381.70745 
L 258.847385 381.922751 
L 259.163643 381.892014 
L 259.4799 382.289438 
L 259.638028 382.745992 
L 259.796157 382.289458 
L 259.954285 382.452689 
L 260.112414 382.204322 
L 260.270543 382.341534 
L 260.428671 382.138113 
L 260.5868 382.341561 
L 260.744928 381.977286 
L 261.219314 381.81411 
L 261.6937 382.422097 
L 261.851829 382.064921 
L 262.642471 382.055555 
L 262.8006 381.582471 
L 263.116857 381.591974 
L 263.433114 382.190492 
L 264.065629 382.155098 
L 264.223757 382.065233 
L 264.381886 381.454953 
L 264.540015 381.454977 
L 264.856272 381.85953 
L 265.0144 381.859554 
L 265.172529 379.924584 
L 265.646915 366.973424 
L 265.805043 365.613268 
L 265.963172 365.613285 
L 266.279429 365.757616 
L 266.437558 365.518716 
L 266.595686 365.518733 
L 266.753815 366.278082 
L 267.2282 380.303292 
L 267.544458 381.422204 
L 267.860715 381.422225 
L 268.176972 381.699011 
L 268.335101 381.573649 
L 268.809486 381.852811 
L 268.967615 381.857553 
L 269.125744 382.174543 
L 269.283872 382.174555 
L 269.600129 382.049207 
L 269.758258 382.155669 
L 269.916386 382.482124 
L 270.074515 382.482138 
L 270.390772 382.037452 
L 270.865158 381.985461 
L 271.339544 381.569183 
L 271.655801 381.569219 
L 271.813929 381.966644 
L 272.288315 382.018741 
L 272.762701 382.006973 
L 272.92083 381.680552 
L 273.711473 381.753988 
L 273.869601 381.429934 
L 274.02773 381.429955 
L 274.185858 382.092321 
L 274.343987 382.092343 
L 274.818373 381.314154 
L 274.976501 381.508148 
L 275.767144 381.586317 
L 276.399659 381.924672 
L 276.874044 382.404939 
L 277.032173 382.404963 
L 277.190301 382.078546 
L 277.664687 381.943788 
L 277.822816 379.55937 
L 277.980944 372.872072 
L 278.297202 334.725758 
L 278.45533 328.897142 
L 278.771587 328.670101 
L 278.929716 328.670125 
L 279.245973 328.090621 
L 279.404102 328.227845 
L 279.56223 335.721834 
L 279.878487 373.820935 
L 280.036616 379.424866 
L 280.352873 381.452143 
L 280.511002 381.728922 
L 280.66913 381.728935 
L 280.827259 381.53261 
L 280.985388 381.532623 
L 281.143516 382.07434 
L 281.617902 382.351149 
L 281.77603 382.072033 
L 281.934159 382.292042 
L 282.408545 381.442872 
L 282.724802 382.30632 
L 282.882931 382.306338 
L 283.357316 381.142559 
L 283.831702 381.111861 
L 283.989831 380.106532 
L 284.147959 376.335909 
L 284.306088 359.59514 
L 284.464216 305.417664 
L 284.622345 293.696527 
L 284.938602 288.657991 
L 285.096731 288.147049 
L 285.254859 288.147059 
L 285.412988 288.688773 
L 285.571117 288.738459 
L 285.729245 292.904148 
L 285.887374 310.513083 
L 286.203631 374.093528 
L 286.519888 379.945824 
L 286.836145 381.596951 
L 287.46866 381.492857 
L 287.626788 381.719943 
L 287.784917 381.49285 
L 288.101174 381.537789 
L 288.417431 382.398832 
L 288.57556 382.566782 
L 289.208074 382.039272 
L 289.366203 382.207225 
L 289.524331 382.207227 
L 290.156846 381.379307 
L 290.314974 381.37931 
L 290.631231 381.795647 
L 291.105617 381.824042 
L 291.263746 382.143391 
L 291.580003 382.193075 
L 291.738131 381.71288 
L 292.054389 381.644291 
L 292.212517 381.935255 
L 293.00316 381.963674 
L 293.319417 382.214434 
L 293.477546 382.214443 
L 293.793803 379.974314 
L 294.268189 380.078413 
L 294.584446 380.229809 
L 294.742575 380.109167 
L 294.900703 379.638427 
L 295.058832 379.638423 
L 295.375089 381.561577 
L 295.533217 381.63017 
L 296.007603 381.507142 
L 296.32386 382.230977 
L 296.640118 382.254621 
L 296.798246 382.576327 
L 296.956375 382.576323 
L 297.272632 382.171814 
L 297.430761 381.741288 
L 297.588889 376.977132 
L 297.747018 357.38353 
L 297.905146 273.272758 
L 298.063275 248.583829 
L 298.221403 241.905962 
L 298.379532 241.421025 
L 298.537661 240.408577 
L 298.695789 240.31395 
L 298.853918 239.24946 
L 299.012046 239.249455 
L 299.170175 245.690757 
L 299.328304 266.649252 
L 299.644561 368.555806 
L 299.960818 379.524702 
L 300.277075 380.683779 
L 300.435204 380.761826 
L 300.593332 381.343728 
L 300.751461 381.343711 
L 300.909589 381.180474 
L 301.067718 380.492091 
L 301.225847 380.492073 
L 301.383975 380.740433 
L 301.700232 381.565959 
L 301.858361 381.658194 
L 302.174618 382.400927 
L 302.490875 382.353579 
L 302.807132 381.393144 
L 303.281518 381.326857 
L 303.439647 380.503638 
L 303.597775 375.42958 
L 303.914033 345.47496 
L 304.072161 340.840882 
L 304.23029 340.488394 
L 304.388418 339.542161 
L 304.704676 339.608345 
L 304.862804 339.788099 
L 305.020933 340.63966 
L 305.179061 347.140082 
L 305.495318 375.08864 
L 305.653447 380.503282 
L 305.811576 381.619774 
L 305.969704 381.619741 
L 306.127833 380.952631 
L 306.44409 381.018798 
L 306.602219 381.55337 
L 307.709119 381.763658 
L 307.867247 382.19888 
L 308.025376 382.198846 
L 308.183504 381.370881 
L 308.341633 381.370848 
L 308.499762 381.680698 
L 308.974147 381.62146 
L 309.290405 381.181406 
L 309.448533 381.391904 
L 309.606662 382.073139 
L 309.76479 382.073106 
L 309.922919 381.9477 
L 310.081047 381.384674 
L 310.555433 381.382209 
L 310.87169 381.533535 
L 311.187948 382.290434 
L 311.504205 382.526921 
L 312.136719 382.44401 
L 312.452976 381.873866 
L 312.611105 381.779218 
L 312.927362 381.977869 
L 313.243619 382.791557 
L 313.559876 382.682697 
L 313.876134 381.734081 
L 314.192391 381.838122 
L 314.824905 382.084056 
L 314.983034 382.084037 
L 315.141162 381.558874 
L 315.457419 381.563567 
L 315.615548 382.121811 
L 315.773677 382.121793 
L 316.089934 381.58242 
L 316.406191 381.475937 
L 316.56432 381.937195 
L 316.880577 381.939526 
L 317.196834 382.102714 
L 317.513091 382.133435 
L 317.67122 382.353414 
L 317.987477 382.261131 
L 318.461863 382.116799 
L 318.77812 382.204302 
L 318.936248 379.292338 
L 319.410634 352.552474 
L 319.568763 352.552462 
L 319.726891 352.715671 
L 319.88502 352.715659 
L 320.043148 352.330067 
L 320.201277 352.330055 
L 320.359406 352.992388 
L 320.517534 355.454882 
L 320.99192 379.554748 
L 321.150049 381.345425 
L 321.466306 381.93203 
L 321.624434 381.932009 
L 322.09882 381.558194 
L 322.256949 382.277291 
L 322.573206 382.308003 
L 323.047592 381.763879 
L 323.363849 381.763843 
L 323.521977 381.510715 
L 323.680106 381.510698 
L 323.996363 382.305477 
L 324.31262 382.653177 
L 324.470749 382.653162 
L 324.945135 381.787343 
L 325.261392 382.310098 
L 325.577649 382.329001 
L 325.735778 381.98126 
L 325.893906 382.130278 
L 326.052035 381.652434 
L 326.210163 382.033274 
L 326.368292 381.912624 
L 326.684549 382.028519 
L 326.842678 382.037974 
L 327.000806 382.281615 
L 327.475192 382.373855 
L 327.633321 382.203533 
L 327.791449 382.373847 
L 328.423964 382.22718 
L 328.582092 381.839235 
L 328.740221 382.052132 
L 328.898349 381.952781 
L 329.056478 382.045038 
L 329.214606 381.964612 
L 329.372735 382.045041 
L 329.530864 381.964616 
L 329.688992 382.201171 
L 329.847121 381.846347 
L 330.005249 382.265047 
L 330.163378 382.189355 
L 330.321507 382.265057 
L 330.954021 382.033262 
L 331.270278 382.033278 
L 331.586535 381.794378 
L 331.744664 381.6974 
L 332.21905 381.990753 
L 332.377178 381.8441 
L 332.535307 381.389931 
L 332.851564 381.389951 
L 333.009693 378.821007 
L 333.167821 368.637454 
L 333.484078 302.92571 
L 333.642207 294.679517 
L 333.958464 293.132481 
L 334.116593 293.132488 
L 334.274721 293.371412 
L 334.43285 294.62751 
L 334.590978 298.502237 
L 334.749107 310.78402 
L 335.065364 369.429985 
L 335.381621 379.887955 
L 335.53975 380.933515 
L 335.697879 381.148778 
L 336.014136 381.929399 
L 336.330393 382.563359 
L 336.64665 382.50186 
L 336.962907 381.969626 
L 337.279164 381.953077 
L 337.595422 382.341033 
L 337.75355 382.34104 
L 338.069807 382.045365 
L 338.227936 381.700008 
L 338.86045 381.657463 
L 339.176707 381.860915 
L 339.96735 382.769327 
L 340.125479 382.769341 
L 340.283608 382.345927 
L 340.599865 382.334132 
L 340.916122 382.44298 
L 341.232379 381.83981 
L 341.548636 381.854042 
L 342.023022 382.244414 
L 342.181151 382.244436 
L 342.339279 381.929844 
L 342.497408 381.929866 
L 342.655536 382.651372 
L 342.813665 382.651396 
L 343.288051 382.022245 
L 343.446179 381.30552 
L 343.604308 381.305547 
L 343.762436 381.61309 
L 343.920565 381.613117 
L 344.078694 379.507831 
L 344.236822 371.034566 
L 344.553079 348.349285 
L 344.869337 346.305525 
L 345.027465 345.73546 
L 345.185594 345.735484 
L 345.501851 347.327527 
L 345.659979 351.35603 
L 346.292494 380.740604 
L 346.608751 381.547288 
L 347.083137 382.046475 
L 347.241265 381.795752 
L 347.557523 381.731926 
L 347.715651 382.015811 
L 347.87378 381.757992 
L 348.031908 381.758014 
L 348.348165 381.410329 
L 348.506294 381.410351 
L 348.664423 381.765201 
L 348.822551 383.193998 
L 349.138808 383.134909 
L 349.296937 382.775378 
L 349.613194 382.737587 
L 349.929451 381.763056 
L 350.561966 381.739528 
L 350.720094 381.902781 
L 350.878223 381.902813 
L 351.036351 381.595329 
L 351.352609 381.595394 
L 351.510737 381.079744 
L 351.668866 381.079776 
L 351.826994 381.567105 
L 352.143252 381.46072 
L 352.30138 381.333014 
L 352.459509 379.977603 
L 352.617637 374.2034 
L 353.250152 297.295729 
L 353.40828 297.295752 
L 353.724537 298.234907 
L 354.040795 300.690361 
L 354.198923 309.740859 
L 354.673309 375.218498 
L 354.989566 380.796421 
L 355.463952 381.657507 
L 355.62208 381.659885 
L 355.938338 381.79711 
L 356.096466 381.46595 
L 356.254595 381.465962 
L 356.412723 381.825533 
L 356.570852 381.825546 
L 357.045238 381.416349 
L 357.361495 382.064527 
L 357.677752 382.206485 
L 358.152138 382.173413 
L 358.310266 381.809139 
L 358.468395 381.794962 
L 358.784652 381.657796 
L 358.942781 381.712219 
L 359.100909 382.102547 
L 359.259038 382.102564 
L 359.417167 381.892051 
L 359.575295 381.892069 
L 360.049681 381.516007 
L 360.207809 381.516026 
L 360.365938 381.627224 
L 360.524067 381.908739 
L 360.682195 381.740806 
L 360.840324 381.908777 
L 360.998452 381.740844 
L 361.156581 381.963222 
L 361.472838 381.972724 
L 361.630967 382.192738 
L 361.947224 381.797739 
L 362.263481 381.700796 
L 362.895995 381.897223 
L 363.212253 381.864152 
L 363.52851 381.942261 
L 363.844767 381.857151 
L 364.319153 381.578094 
L 364.477281 381.249312 
L 364.793538 381.187857 
L 364.951667 381.625501 
L 365.109796 381.630256 
L 365.267924 381.810059 
L 365.426053 381.630304 
L 365.584181 381.691831 
L 365.74231 381.507345 
L 365.900439 381.691879 
L 366.058567 382.212317 
L 366.216696 382.212342 
L 366.374824 381.126594 
L 366.532953 375.307441 
L 366.691081 352.683634 
L 367.007339 255.420619 
L 367.165467 244.693008 
L 367.323596 244.693026 
L 367.481724 246.58546 
L 367.639853 246.699024 
L 367.95611 248.430621 
L 368.114239 256.577487 
L 368.272367 279.605835 
L 368.588625 363.991038 
L 368.904882 378.425466 
L 369.06301 380.25402 
L 369.221139 380.606489 
L 369.695525 380.63489 
L 369.853653 381.091438 
L 370.011782 381.174233 
L 370.16991 381.495946 
L 370.644296 381.529068 
L 370.802425 381.730139 
L 370.960553 381.73014 
L 371.593068 380.59233 
L 371.751196 380.474053 
L 371.909325 379.206133 
L 372.067453 373.980696 
L 372.225582 339.316366 
L 372.541839 176.916353 
L 372.699968 156.620186 
L 372.858096 156.620174 
L 373.490611 164.265484 
L 373.648739 178.943519 
L 373.806868 212.294962 
L 374.123125 352.108949 
L 374.439382 375.745193 
L 374.755639 379.560736 
L 374.913768 380.883038 
L 375.230025 381.24728 
L 375.546282 381.247229 
L 375.704411 381.467197 
L 376.336925 381.400858 
L 376.811311 381.090895 
L 376.96944 381.736654 
L 377.285697 382.070137 
L 377.443825 381.958931 
L 378.07634 382.493436 
L 378.550725 382.162195 
L 378.708854 382.032071 
L 378.866983 381.69378 
L 379.18324 381.741049 
L 379.341368 382.095856 
L 379.657626 382.076893 
L 379.815754 381.859246 
L 379.973883 382.076855 
L 380.132011 381.750395 
L 380.29014 382.048432 
L 380.764526 381.939566 
L 380.922654 381.681708 
L 381.238911 381.660385 
L 381.39704 381.492417 
L 381.555169 381.492401 
L 381.871426 381.766768 
L 382.029554 381.669765 
L 382.187683 381.74308 
L 382.662069 381.594004 
L 382.820197 382.026878 
L 382.978326 382.031594 
L 383.136455 382.298882 
L 383.294583 382.298868 
L 383.452712 382.123806 
L 383.61084 381.68144 
L 383.927097 381.780766 
L 384.085226 382.26805 
L 384.243355 382.336638 
L 384.559612 382.182857 
L 384.71774 381.932102 
L 384.875869 381.932092 
L 385.033998 382.39809 
L 385.192126 382.398081 
L 385.350255 382.017224 
L 385.82464 381.827961 
L 386.140898 381.719135 
L 386.299026 381.499135 
L 386.773412 381.461268 
L 386.931541 381.248364 
L 387.247798 381.605544 
L 387.722184 381.676488 
L 388.196569 382.130648 
L 388.670955 382.017087 
L 388.829084 382.293848 
L 388.987212 382.807163 
L 389.145341 382.80716 
L 389.303469 382.625014 
L 389.619727 382.019441 
L 389.777855 382.019442 
L 390.094112 382.343521 
L 390.252241 382.343524 
L 390.568498 382.2016 
L 390.726627 382.376653 
L 390.884755 382.376659 
L 391.042884 382.213444 
L 391.359141 381.617347 
L 391.51727 381.617354 
L 391.833527 382.3081 
L 391.991655 382.308108 
L 392.466041 381.655253 
L 392.782298 381.652906 
L 392.940427 381.76646 
L 393.414813 382.776569 
L 394.205456 382.189993 
L 394.521713 381.787889 
L 394.679841 381.787906 
L 394.83797 381.674379 
L 394.996099 381.366879 
L 395.154227 380.782613 
L 395.312356 380.78263 
L 395.470484 381.340908 
L 396.261127 381.423777 
L 396.577384 381.996262 
L 397.209899 382.050732 
L 397.526156 382.192698 
L 397.842413 382.020051 
L 398.15867 382.020089 
L 398.316799 381.57066 
L 399.26557 381.50691 
L 399.423699 382.152716 
L 399.581828 382.152736 
L 399.739956 381.949322 
L 399.898085 381.52828 
L 400.214342 381.615846 
L 400.37247 381.712854 
L 400.688728 382.249869 
L 400.846856 382.252256 
L 401.163113 382.372944 
L 401.321242 381.975561 
L 401.479371 381.888062 
L 401.637499 381.975611 
L 401.953756 380.617853 
L 402.111885 374.280652 
L 402.270013 352.035326 
L 402.586271 242.895035 
L 402.744399 225.825466 
L 402.902528 225.825483 
L 403.376914 232.063407 
L 403.535042 232.647708 
L 403.693171 242.736664 
L 403.851299 265.921134 
L 404.167557 354.524055 
L 404.483814 375.844513 
L 404.800071 379.969997 
L 405.274457 381.069979 
L 405.432585 381.069983 
L 405.748842 381.507611 
L 406.0651 381.405899 
L 406.381357 381.282898 
L 406.855743 381.770201 
L 407.013871 381.266348 
L 407.172 381.26635 
L 407.488257 381.864829 
L 407.646385 381.864831 
L 407.804514 381.453233 
L 407.962643 381.453235 
L 408.120771 381.576244 
L 408.2789 381.857743 
L 408.437028 382.503532 
L 408.595157 382.503535 
L 408.911414 381.618839 
L 409.069543 381.185953 
L 409.227671 381.368102 
L 409.543928 380.899736 
L 409.702057 379.073557 
L 409.860186 371.555937 
L 410.334571 336.825384 
L 410.4927 336.825384 
L 410.808957 337.949005 
L 410.967086 338.705971 
L 411.125214 338.817151 
L 411.283343 341.703084 
L 411.441472 348.667172 
L 411.757729 371.430563 
L 412.073986 379.582138 
L 412.232114 380.833491 
L 412.548372 381.379911 
L 412.864629 381.987834 
L 413.022757 381.987827 
L 413.339015 381.83642 
L 413.497143 381.836414 
L 413.655272 381.585662 
L 413.971529 381.67554 
L 414.129657 381.857678 
L 414.762172 381.860022 
L 414.9203 381.327775 
L 415.078429 381.32777 
L 415.394686 382.26214 
L 415.710943 382.262131 
L 416.027201 381.850525 
L 416.185329 381.325377 
L 416.817843 381.408158 
L 416.975972 381.907279 
L 417.134101 381.907275 
L 417.292229 381.609217 
L 417.450358 381.609213 
L 417.608486 382.068121 
L 418.399129 382.141444 
L 418.399129 382.141444 
" clip-path="url(#p1c54d2f1a9)" style="fill: none; stroke: #5088c5; stroke-width: 2; stroke-linecap: round"/>
   </g>
   <g id="line2d_17">
    <defs>
     <path id="me2ac75af6c" d="M 0 3 
C 0.795609 3 1.55874 2.683901 2.12132 2.12132 
C 2.683901 1.55874 3 0.795609 3 0 
C 3 -0.795609 2.683901 -1.55874 2.12132 -2.12132 
C 1.55874 -2.683901 0.795609 -3 0 -3 
C -0.795609 -3 -1.55874 -2.683901 -2.12132 -2.12132 
C -2.683901 -1.55874 -3 -0.795609 -3 0 
C -3 0.795609 -2.683901 1.55874 -2.12132 2.12132 
C -1.55874 2.683901 -0.795609 3 0 3 
z
"/>
    </defs>
    <g clip-path="url(#p1c54d2f1a9)">
     <use xlink:href="#me2ac75af6c" x="215.235557" y="40.930663" style="fill: #f28360"/>
     <use xlink:href="#me2ac75af6c" x="223.682525" y="355.086585" style="fill: #f28360"/>
     <use xlink:href="#me2ac75af6c" x="241.743989" y="331.481912" style="fill: #f28360"/>
     <use xlink:href="#me2ac75af6c" x="278.914883" y="328.670125" style="fill: #f28360"/>
     <use xlink:href="#me2ac75af6c" x="285.176195" y="288.147059" style="fill: #f28360"/>
     <use xlink:href="#me2ac75af6c" x="298.639758" y="240.31395" style="fill: #f28360"/>
     <use xlink:href="#me2ac75af6c" x="304.531588" y="339.542136" style="fill: #f28360"/>
     <use xlink:href="#me2ac75af6c" x="319.93529" y="352.715659" style="fill: #f28360"/>
     <use xlink:href="#me2ac75af6c" x="334.082928" y="293.132488" style="fill: #f28360"/>
     <use xlink:href="#me2ac75af6c" x="345.087352" y="345.73546" style="fill: #f28360"/>
     <use xlink:href="#me2ac75af6c" x="353.603104" y="297.787802" style="fill: #f28360"/>
     <use xlink:href="#me2ac75af6c" x="367.576389" y="246.699024" style="fill: #f28360"/>
     <use xlink:href="#me2ac75af6c" x="373.11492" y="160.428636" style="fill: #f28360"/>
     <use xlink:href="#me2ac75af6c" x="403.170397" y="231.758239" style="fill: #f28360"/>
     <use xlink:href="#me2ac75af6c" x="410.776918" y="337.949005" style="fill: #f28360"/>
    </g>
   </g>
   <g id="patch_3">
    <path d="M 81.762344 397.163022 
L 81.762344 20 
" style="fill: none; stroke: #000000; stroke-width: 0.75; stroke-linejoin: miter; stroke-linecap: square"/>
   </g>
   <g id="patch_4">
    <path d="M 81.762344 397.163022 
L 431.346698 397.163022 
" style="fill: none; stroke: #000000; stroke-width: 0.75; stroke-linejoin: miter; stroke-linecap: square"/>
   </g>
  </g>
 </g>
 <defs>
  <clipPath id="p1c54d2f1a9">
   <rect x="81.762344" y="20" width="349.584354" height="377.163022"/>
  </clipPath>
 </defs>
</svg>
