<?xml version="1.0" encoding="utf-8" standalone="no"?>
<!DOCTYPE svg PUBLIC "-//W3C//DTD SVG 1.1//EN"
  "http://www.w3.org/Graphics/SVG/1.1/DTD/svg11.dtd">
<svg xmlns:xlink="http://www.w3.org/1999/xlink" width="463.953517pt" height="463.99896pt" viewBox="0 0 463.953517 463.99896" xmlns="http://www.w3.org/2000/svg" version="1.1">
 <metadata>
  <rdf:RDF xmlns:dc="http://purl.org/dc/elements/1.1/" xmlns:cc="http://creativecommons.org/ns#" xmlns:rdf="http://www.w3.org/1999/02/22-rdf-syntax-ns#">
   <cc:Work>
    <dc:type rdf:resource="http://purl.org/dc/dcmitype/StillImage"/>
    <dc:date>2025-02-06T14:33:54.979904</dc:date>
    <dc:format>image/svg+xml</dc:format>
    <dc:creator>
     <cc:Agent>
      <dc:title>Matplotlib v3.8.4, https://matplotlib.org/</dc:title>
     </cc:Agent>
    </dc:creator>
   </cc:Work>
  </rdf:RDF>
 </metadata>
 <defs>
  <style type="text/css">*{stroke-linejoin: round; stroke-linecap: butt}</style>
 </defs>
 <g id="figure_1">
  <g id="patch_1">
   <path d="M 0 463.99896 
L 463.953517 463.99896 
L 463.953517 0 
L 0 0 
L 0 463.99896 
z
" style="fill: none"/>
  </g>
  <g id="axes_1">
   <g id="patch_2">
    <path d="M 91.128438 397.284897 
L 443.026462 397.284897 
L 443.026462 20 
L 91.128438 20 
L 91.128438 397.284897 
z
" style="fill: none"/>
   </g>
   <g id="matplotlib.axis_1">
    <g id="xtick_1">
     <g id="line2d_1">
      <defs>
       <path id="m73e168b1ce" d="M 0 0 
L 0 5 
" style="stroke: #000000; stroke-width: 0.75"/>
      </defs>
      <g>
       <use xlink:href="#m73e168b1ce" x="115.274616" y="397.284897" style="stroke: #000000; stroke-width: 0.75"/>
      </g>
     </g>
     <g id="text_1">
      <text style="font: 14.5px &quot;Suisse Int&apos;l Mono&quot;; text-anchor: middle" x="115.274616" y="417.797397" transform="rotate(-0 115.274616 417.797397)">500</text>
     </g>
    </g>
    <g id="xtick_2">
     <g id="line2d_2">
      <g>
       <use xlink:href="#m73e168b1ce" x="166.932401" y="397.284897" style="stroke: #000000; stroke-width: 0.75"/>
      </g>
     </g>
     <g id="text_2">
      <text style="font: 14.5px &quot;Suisse Int&apos;l Mono&quot;; text-anchor: middle" x="166.932401" y="417.797397" transform="rotate(-0 166.932401 417.797397)">1000</text>
     </g>
    </g>
    <g id="xtick_3">
     <g id="line2d_3">
      <g>
       <use xlink:href="#m73e168b1ce" x="218.590187" y="397.284897" style="stroke: #000000; stroke-width: 0.75"/>
      </g>
     </g>
     <g id="text_3">
      <text style="font: 14.5px &quot;Suisse Int&apos;l Mono&quot;; text-anchor: middle" x="218.590187" y="417.797397" transform="rotate(-0 218.590187 417.797397)">1500</text>
     </g>
    </g>
    <g id="xtick_4">
     <g id="line2d_4">
      <g>
       <use xlink:href="#m73e168b1ce" x="270.247973" y="397.284897" style="stroke: #000000; stroke-width: 0.75"/>
      </g>
     </g>
     <g id="text_4">
      <text style="font: 14.5px &quot;Suisse Int&apos;l Mono&quot;; text-anchor: middle" x="270.247973" y="417.797397" transform="rotate(-0 270.247973 417.797397)">2000</text>
     </g>
    </g>
    <g id="xtick_5">
     <g id="line2d_5">
      <g>
       <use xlink:href="#m73e168b1ce" x="321.905758" y="397.284897" style="stroke: #000000; stroke-width: 0.75"/>
      </g>
     </g>
     <g id="text_5">
      <text style="font: 14.5px &quot;Suisse Int&apos;l Mono&quot;; text-anchor: middle" x="321.905758" y="417.797397" transform="rotate(-0 321.905758 417.797397)">2500</text>
     </g>
    </g>
    <g id="xtick_6">
     <g id="line2d_6">
      <g>
       <use xlink:href="#m73e168b1ce" x="373.563544" y="397.284897" style="stroke: #000000; stroke-width: 0.75"/>
      </g>
     </g>
     <g id="text_6">
      <text style="font: 14.5px &quot;Suisse Int&apos;l Mono&quot;; text-anchor: middle" x="373.563544" y="417.797397" transform="rotate(-0 373.563544 417.797397)">3000</text>
     </g>
    </g>
    <g id="xtick_7">
     <g id="line2d_7">
      <g>
       <use xlink:href="#m73e168b1ce" x="425.22133" y="397.284897" style="stroke: #000000; stroke-width: 0.75"/>
      </g>
     </g>
     <g id="text_7">
      <text style="font: 14.5px &quot;Suisse Int&apos;l Mono&quot;; text-anchor: middle" x="425.22133" y="417.797397" transform="rotate(-0 425.22133 417.797397)">3500</text>
     </g>
    </g>
    <g id="text_8">
     <text style="font: 500 15px &quot;Suisse Int&apos;l&quot;, sans-serif; text-anchor: middle" x="267.07745" y="441.209898" transform="rotate(-0 267.07745 441.209898)">Raman shift (cm-1)</text>
    </g>
   </g>
   <g id="matplotlib.axis_2">
    <g id="ytick_1">
     <g id="line2d_8">
      <defs>
       <path id="mc41a07de0c" d="M 0 0 
L -5 0 
" style="stroke: #000000; stroke-width: 0.75"/>
      </defs>
      <g>
       <use xlink:href="#mc41a07de0c" x="91.128438" y="352.819933" style="stroke: #000000; stroke-width: 0.75"/>
      </g>
     </g>
     <g id="text_9">
      <text style="font: 14.5px &quot;Suisse Int&apos;l Mono&quot;; text-anchor: end" x="81.128438" y="358.076183" transform="rotate(-0 81.128438 358.076183)">0.00</text>
     </g>
    </g>
    <g id="ytick_2">
     <g id="line2d_9">
      <g>
       <use xlink:href="#mc41a07de0c" x="91.128438" y="280.405166" style="stroke: #000000; stroke-width: 0.75"/>
      </g>
     </g>
     <g id="text_10">
      <text style="font: 14.5px &quot;Suisse Int&apos;l Mono&quot;; text-anchor: end" x="81.128438" y="285.661416" transform="rotate(-0 81.128438 285.661416)">0.05</text>
     </g>
    </g>
    <g id="ytick_3">
     <g id="line2d_10">
      <g>
       <use xlink:href="#mc41a07de0c" x="91.128438" y="207.990399" style="stroke: #000000; stroke-width: 0.75"/>
      </g>
     </g>
     <g id="text_11">
      <text style="font: 14.5px &quot;Suisse Int&apos;l Mono&quot;; text-anchor: end" x="81.128438" y="213.246649" transform="rotate(-0 81.128438 213.246649)">0.10</text>
     </g>
    </g>
    <g id="ytick_4">
     <g id="line2d_11">
      <g>
       <use xlink:href="#mc41a07de0c" x="91.128438" y="135.575632" style="stroke: #000000; stroke-width: 0.75"/>
      </g>
     </g>
     <g id="text_12">
      <text style="font: 14.5px &quot;Suisse Int&apos;l Mono&quot;; text-anchor: end" x="81.128438" y="140.831882" transform="rotate(-0 81.128438 140.831882)">0.15</text>
     </g>
    </g>
    <g id="ytick_5">
     <g id="line2d_12">
      <g>
       <use xlink:href="#mc41a07de0c" x="91.128438" y="63.160865" style="stroke: #000000; stroke-width: 0.75"/>
      </g>
     </g>
     <g id="text_13">
      <text style="font: 14.5px &quot;Suisse Int&apos;l Mono&quot;; text-anchor: end" x="81.128438" y="68.417115" transform="rotate(-0 81.128438 68.417115)">0.20</text>
     </g>
    </g>
    <g id="text_14">
     <text style="font: 500 15px &quot;Suisse Int&apos;l&quot;, sans-serif; text-anchor: middle" x="30.875" y="208.642449" transform="rotate(-90 30.875 208.642449)">Intensity (au)</text>
    </g>
   </g>
   <g id="line2d_13">
    <path d="M 104.161698 378.280895 
L 104.353814 378.28092 
L 104.545891 378.440284 
L 104.737929 379.96107 
L 104.929929 378.556327 
L 105.12189 379.338536 
L 105.313811 378.918687 
L 105.505695 378.918869 
L 105.697539 378.745281 
L 106.272839 376.703961 
L 106.464528 376.704268 
L 106.656179 377.283918 
L 107.039364 379.32675 
L 107.230898 379.327158 
L 107.422394 378.704825 
L 107.613851 378.705285 
L 107.805269 379.038879 
L 107.996649 381.400112 
L 108.18799 381.400653 
L 108.379293 379.894995 
L 108.570557 379.895591 
L 108.952969 380.490666 
L 109.144117 380.491344 
L 109.335226 380.361704 
L 109.908324 376.757727 
L 110.099279 376.410945 
L 110.290196 376.411778 
L 110.481074 376.600912 
L 110.862715 377.457191 
L 111.053478 378.413995 
L 111.625537 375.998278 
L 111.816146 375.999304 
L 112.197249 379.709064 
L 112.387743 380.101205 
L 112.578199 380.102333 
L 112.768616 379.944177 
L 112.958995 378.743274 
L 113.149336 376.673421 
L 113.339638 376.674654 
L 113.910315 378.329553 
L 114.100464 379.446072 
L 114.290575 379.44743 
L 114.480648 379.941235 
L 114.670682 381.057834 
L 114.860678 381.059274 
L 115.240556 377.25322 
L 115.430437 377.254738 
L 115.810086 378.517866 
L 115.999853 379.79396 
L 116.189582 380.056274 
L 116.379273 380.057922 
L 116.568925 378.191296 
L 117.137654 376.950938 
L 117.327155 375.765111 
L 117.516617 375.462766 
L 117.706041 374.754921 
L 117.895427 374.756763 
L 118.084775 374.62828 
L 118.274085 374.644648 
L 118.463357 374.038272 
L 118.652591 374.648484 
L 118.841787 377.257366 
L 119.030945 377.259341 
L 119.598191 371.863263 
L 119.787197 371.865325 
L 119.976165 372.258445 
L 120.165096 372.260546 
L 120.353988 371.480586 
L 120.542843 371.482724 
L 120.731659 373.135937 
L 121.297882 374.634276 
L 121.486548 374.636517 
L 121.863765 375.698321 
L 122.052317 375.70063 
L 122.240831 375.384336 
L 122.429307 375.38669 
L 122.617746 374.737333 
L 122.806147 374.956975 
L 122.99451 374.959396 
L 123.371123 376.340184 
L 123.559373 376.342673 
L 123.747585 374.896889 
L 123.93576 374.68218 
L 124.123897 371.512969 
L 124.311996 371.515544 
L 124.500057 372.56091 
L 124.688081 378.67533 
L 124.876068 378.938662 
L 125.064016 378.680634 
L 125.251928 373.860502 
L 125.439801 372.197674 
L 125.627637 372.200406 
L 125.815435 373.651452 
L 126.190919 373.555636 
L 126.378605 372.935682 
L 126.566253 372.938516 
L 126.753864 372.448949 
L 126.941437 372.451822 
L 127.316471 374.137651 
L 127.503932 374.140586 
L 127.878741 371.974076 
L 128.06609 372.961912 
L 128.253401 372.573889 
L 128.440674 372.967964 
L 129.376481 377.255935 
L 129.563531 378.099117 
L 129.750543 379.709921 
L 129.937518 379.713144 
L 130.124455 379.412251 
L 130.311355 375.128574 
L 130.498218 375.088423 
L 130.685043 374.468977 
L 130.871832 372.401258 
L 131.058583 371.897717 
L 131.245296 371.901098 
L 131.431973 372.45485 
L 131.618612 372.588617 
L 131.805214 373.069994 
L 131.991779 374.652096 
L 132.178307 374.655578 
L 132.364797 374.021832 
L 132.551251 374.025357 
L 132.737667 376.128931 
L 133.110388 376.049195 
L 133.482961 375.4192 
L 133.669191 375.422862 
L 133.855385 376.03483 
L 134.041541 377.095793 
L 134.413743 377.10328 
L 134.599788 376.296015 
L 134.971768 373.421536 
L 135.157702 373.425382 
L 135.343599 374.892027 
L 135.529459 374.895915 
L 135.715282 373.784639 
L 136.27253 373.839945 
L 136.458206 375.219821 
L 137.015011 375.47815 
L 137.386029 372.155261 
L 137.571484 373.346989 
L 137.756901 372.829749 
L 138.127625 372.953965 
L 138.312931 372.958171 
L 138.498201 372.48446 
L 138.683434 372.474223 
L 138.868631 372.159864 
L 139.05379 372.164149 
L 139.238913 371.777414 
L 139.423999 370.463788 
L 139.609048 370.236402 
L 139.794061 370.443522 
L 139.979037 369.158915 
L 140.163976 368.743302 
L 140.348878 368.74771 
L 140.533744 369.259038 
L 140.718573 369.263478 
L 140.903365 366.979629 
L 141.088121 366.9841 
L 141.457522 367.413091 
L 141.642168 369.778327 
L 141.826777 369.782859 
L 142.01135 368.092902 
L 142.195885 367.967119 
L 142.380385 366.668232 
L 142.564848 364.225205 
L 142.749274 363.751872 
L 142.933664 363.756487 
L 143.118017 366.179766 
L 143.302333 366.184406 
L 143.670857 362.428155 
L 144.039235 362.321649 
L 144.223369 361.341501 
L 144.591528 357.976382 
L 144.959541 357.985813 
L 145.511287 362.055232 
L 145.69513 361.104105 
L 145.878936 360.891618 
L 146.062706 360.056371 
L 146.24644 356.353507 
L 146.430137 355.778964 
L 146.613798 355.62443 
L 146.797423 355.629212 
L 147.531558 353.186256 
L 147.715001 350.366869 
L 147.898408 350.357173 
L 148.265113 349.975698 
L 148.631674 347.334871 
L 148.814899 344.703742 
L 149.181242 344.713255 
L 149.730485 341.266034 
L 149.913494 340.459701 
L 150.096467 337.249186 
L 150.279403 337.080076 
L 150.462304 336.534393 
L 150.645168 336.539046 
L 150.827996 338.354052 
L 151.010788 338.358674 
L 151.193544 336.755674 
L 151.376265 336.311294 
L 151.558948 336.243454 
L 152.106784 332.839099 
L 152.289324 332.8436 
L 152.471828 335.686741 
L 152.654296 335.691206 
L 152.836728 334.117011 
L 153.019124 334.034542 
L 153.201484 332.909282 
L 153.383808 332.913672 
L 153.566096 331.310435 
L 153.930565 330.479099 
L 154.112745 328.644069 
L 154.29489 328.11248 
L 154.476999 328.116735 
L 154.659072 328.497523 
L 154.841109 330.847968 
L 155.568898 330.850092 
L 155.750756 330.738326 
L 156.114365 328.559526 
L 156.296115 328.346309 
L 156.47783 324.874403 
L 156.659509 324.472855 
L 157.204332 313.883073 
L 157.748833 284.407142 
L 158.293013 272.643263 
L 158.474336 268.779745 
L 158.655622 268.783091 
L 158.836873 270.466376 
L 159.199268 283.579733 
L 159.561521 302.152892 
L 159.923631 318.350645 
L 160.647425 329.499256 
L 160.828285 329.501996 
L 161.009109 327.752276 
L 161.189898 327.754968 
L 161.551369 329.4403 
L 161.732051 334.859544 
L 161.912698 334.862145 
L 162.273886 332.20243 
L 162.454427 332.204973 
L 162.634932 332.497156 
L 162.815402 335.063141 
L 162.995836 335.065626 
L 163.176235 334.763951 
L 163.356599 332.072571 
L 163.536928 332.074999 
L 163.897478 339.596451 
L 164.077701 339.598829 
L 164.257888 336.414943 
L 164.43804 336.417291 
L 164.618156 337.998265 
L 164.798238 338.000582 
L 164.978284 336.149066 
L 165.33827 335.299125 
L 165.51821 335.591035 
L 165.698115 335.40499 
L 165.877985 335.595485 
L 166.057819 336.654939 
L 166.237619 336.657122 
L 166.597112 334.329682 
L 166.776806 334.331812 
L 166.956465 333.711157 
L 167.136088 335.031199 
L 167.315677 337.365029 
L 167.49523 337.367089 
L 167.674748 335.602212 
L 167.854232 335.604239 
L 168.213093 336.679981 
L 168.39247 336.681958 
L 168.571813 334.033538 
L 168.930394 333.400153 
L 169.109631 333.66275 
L 169.288834 332.839106 
L 169.468002 333.666499 
L 169.647135 333.856623 
L 170.005295 337.118923 
L 170.184323 337.120716 
L 170.363315 334.254869 
L 170.721196 332.89697 
L 170.900084 333.709735 
L 171.078937 333.841783 
L 171.615287 336.685434 
L 171.794001 336.687065 
L 171.972679 335.298316 
L 172.151323 335.299913 
L 172.329932 334.953902 
L 172.508506 334.955464 
L 172.86555 332.568845 
L 173.044019 332.570349 
L 173.222454 332.861492 
L 173.400854 335.87541 
L 173.57922 336.152034 
L 173.935846 337.834901 
L 174.114107 337.836301 
L 174.292333 338.112862 
L 174.470525 337.476983 
L 174.648682 337.927309 
L 174.826804 337.537609 
L 175.004891 337.929974 
L 175.182944 339.843033 
L 175.360962 340.23537 
L 175.538946 340.077342 
L 175.716895 340.237926 
L 176.072688 341.167341 
L 176.250533 342.558939 
L 176.428343 342.603613 
L 176.78386 343.417078 
L 176.961567 343.418274 
L 177.139239 342.434619 
L 177.316876 342.435795 
L 177.494479 345.463897 
L 177.672047 345.465055 
L 178.204545 341.007728 
L 178.381975 341.530232 
L 178.736732 341.532434 
L 178.914059 342.692154 
L 179.091351 344.764291 
L 179.268609 344.765357 
L 179.445833 342.956045 
L 179.623022 342.30536 
L 179.800176 342.306398 
L 180.154382 343.77122 
L 180.331434 343.772229 
L 180.508451 344.236682 
L 180.862381 350.698057 
L 181.216175 350.656574 
L 181.39302 349.774093 
L 181.569831 349.77507 
L 181.746608 349.356038 
L 181.92335 346.86594 
L 182.100058 345.983445 
L 182.276732 345.839573 
L 182.453371 344.146017 
L 182.629977 344.146959 
L 182.806548 344.292722 
L 182.983084 346.799197 
L 183.159587 346.800116 
L 183.336055 346.627233 
L 183.865255 341.198817 
L 184.041586 341.836941 
L 184.394147 346.690451 
L 184.570376 348.429255 
L 184.922731 345.679179 
L 185.098858 345.491733 
L 185.27495 345.680836 
L 185.627033 348.579057 
L 185.803023 348.579865 
L 186.154902 343.570364 
L 186.33079 343.571152 
L 186.506644 344.426425 
L 186.85825 350.119762 
L 187.034001 350.120525 
L 187.385403 346.414405 
L 187.561053 346.415154 
L 187.912251 347.444922 
L 188.087799 347.011165 
L 188.263314 344.173231 
L 188.61424 344.073275 
L 188.965031 345.407098 
L 189.140375 348.695412 
L 189.490963 348.740216 
L 189.666206 348.711922 
L 189.841415 347.076016 
L 190.01659 346.569774 
L 190.191731 345.1511 
L 190.366839 345.151748 
L 190.541913 349.497274 
L 190.716953 349.497911 
L 190.891959 349.990965 
L 191.066931 348.818476 
L 191.24187 349.992222 
L 191.416775 349.543874 
L 191.591646 350.949341 
L 191.941287 347.894672 
L 192.116056 347.895283 
L 192.465495 349.011677 
L 192.814799 349.056317 
L 193.163968 351.229937 
L 193.338502 351.230523 
L 193.687469 349.551667 
L 194.210667 351.479629 
L 194.733564 349.873735 
L 194.907795 350.149477 
L 195.081993 349.932796 
L 195.256157 350.150601 
L 195.430288 352.280153 
L 195.604386 352.28071 
L 195.77845 351.716432 
L 195.95248 351.716988 
L 196.126477 353.918951 
L 196.30044 354.469859 
L 196.47437 354.470417 
L 196.648266 352.819919 
L 196.995958 351.981025 
L 197.169754 351.57606 
L 197.517246 351.577171 
L 197.690942 348.594237 
L 197.864604 347.552014 
L 198.038233 347.552558 
L 198.211828 347.85724 
L 198.385391 348.87158 
L 198.732415 348.858154 
L 198.905877 348.655915 
L 199.252701 348.656947 
L 199.599392 347.311047 
L 199.772687 345.457728 
L 199.945949 345.45822 
L 200.119178 346.704239 
L 200.292374 346.704717 
L 200.638665 346.575309 
L 200.811761 348.979939 
L 200.984823 349.530748 
L 201.157853 348.980848 
L 201.503812 343.637529 
L 201.676742 343.637961 
L 201.849638 343.870112 
L 202.195332 343.870931 
L 202.368129 342.611311 
L 202.540893 344.132407 
L 203.058986 340.136211 
L 203.231617 336.486849 
L 203.404216 336.284413 
L 203.749313 334.416714 
L 203.921812 333.099038 
L 204.783812 309.319008 
L 205.12838 305.061144 
L 205.300615 301.425915 
L 205.472817 300.513429 
L 205.817122 300.237977 
L 205.989225 300.295691 
L 206.333332 305.885522 
L 206.849245 316.862379 
L 207.021151 319.367447 
L 207.193023 319.381413 
L 207.364863 324.131272 
L 207.536669 324.26104 
L 207.708443 326.519774 
L 207.880184 326.51914 
L 208.051892 326.330202 
L 208.39521 325.300513 
L 208.56682 325.125977 
L 208.738397 325.299004 
L 208.909941 327.557549 
L 209.081452 327.831904 
L 209.252931 327.555881 
L 209.424376 327.627424 
L 209.595789 327.423766 
L 209.76717 325.989032 
L 209.938517 325.988083 
L 210.109832 326.175386 
L 210.965915 326.126658 
L 211.137034 324.793091 
L 211.30812 324.66158 
L 211.479173 324.790735 
L 211.821181 324.440676 
L 211.992137 323.208348 
L 212.333949 323.205707 
L 212.504807 322.85675 
L 212.675632 324.274684 
L 212.846424 321.564948 
L 213.187911 325.515856 
L 213.358606 325.717106 
L 213.529268 327.163863 
L 213.870494 327.16071 
L 214.38209 330.327561 
L 214.722992 330.454516 
L 214.893394 335.550787 
L 215.063763 336.345603 
L 215.2341 335.764522 
L 215.574677 335.876809 
L 215.915125 338.335268 
L 216.0853 338.579635 
L 216.255442 339.707447 
L 216.425552 342.037332 
L 216.935689 343.624782 
L 217.10567 343.782184 
L 217.445534 346.645963 
L 217.615418 347.078519 
L 217.785269 347.07658 
L 217.955088 347.248431 
L 218.124875 346.681646 
L 218.464352 347.532223 
L 218.8037 347.528284 
L 218.973325 348.67046 
L 219.31248 348.666492 
L 219.482009 348.056218 
L 219.651505 349.039064 
L 219.82097 348.573611 
L 219.990402 350.903364 
L 220.159802 349.844104 
L 220.32917 350.899352 
L 220.498505 350.375956 
L 220.667809 351.518097 
L 220.83708 351.516084 
L 221.006319 352.484427 
L 221.175526 352.685174 
L 221.344701 352.480397 
L 221.513844 351.609405 
L 222.02108 351.139896 
L 222.190095 352.180647 
L 222.359077 352.178625 
L 222.528028 350.800722 
L 222.696946 350.653867 
L 222.865832 350.79667 
L 223.541057 353.989284 
L 223.709783 353.987255 
L 223.878478 351.638989 
L 224.04714 351.506614 
L 224.21577 351.63493 
L 224.384369 353.124643 
L 224.889972 354.37857 
L 225.226881 359.124927 
L 225.395288 359.12291 
L 225.563663 358.469166 
L 225.732006 358.467161 
L 225.900317 360.767951 
L 226.068597 360.76596 
L 226.573243 355.937202 
L 226.741395 355.935231 
L 226.909515 356.816724 
L 227.24566 359.34732 
L 227.413685 359.403301 
L 227.581678 359.879294 
L 227.749639 359.920806 
L 228.253332 361.450231 
L 228.421166 361.448326 
L 228.756739 359.923829 
L 228.924478 359.878498 
L 229.092185 358.558674 
L 229.25986 358.556805 
L 229.427504 359.163225 
L 229.595116 361.116567 
L 229.762697 361.114718 
L 229.930246 360.924599 
L 230.265249 360.920942 
L 230.432702 360.716364 
L 230.934875 359.393011 
L 231.269498 359.461856 
L 231.436762 358.86628 
L 231.771196 358.862749 
L 231.938366 361.25068 
L 232.105504 361.524108 
L 232.439685 361.520637 
L 232.606729 361.83754 
L 232.773741 363.950338 
L 232.940722 363.948636 
L 233.107671 363.309695 
L 233.274588 363.308015 
L 233.441474 363.711868 
L 233.608329 363.710209 
L 233.775152 364.215464 
L 234.108704 362.126656 
L 234.275433 362.125038 
L 234.44213 362.804129 
L 234.608796 362.802531 
L 234.775431 363.1775 
L 234.942034 363.132473 
L 235.108606 363.84057 
L 235.441656 363.837469 
L 235.608133 363.256616 
L 236.107378 363.266559 
L 236.273731 362.062981 
L 236.606342 361.668983 
L 236.7726 361.667518 
L 236.938828 361.868822 
L 237.105023 363.141875 
L 237.271188 363.140437 
L 237.437322 363.457635 
L 237.603424 362.601725 
L 237.769495 363.454812 
L 237.935534 362.251331 
L 238.101543 362.047183 
L 238.433466 361.059597 
L 238.599381 361.058236 
L 238.765265 361.375509 
L 238.931117 362.561768 
L 239.262729 362.472212 
L 239.428488 362.036409 
L 239.594216 362.469593 
L 239.925578 365.899473 
L 240.091212 364.551288 
L 240.256816 365.896944 
L 240.422388 365.461209 
L 240.587929 365.459976 
L 240.753439 365.082199 
L 240.918918 364.110632 
L 241.084366 361.77768 
L 241.249783 361.776492 
L 241.415169 362.383597 
L 241.580524 364.598319 
L 241.745848 364.597161 
L 242.406832 360.609822 
L 242.572001 361.130098 
L 242.737139 362.055904 
L 243.067322 367.325525 
L 243.232367 367.324459 
L 243.397381 365.208896 
L 243.562364 365.207856 
L 243.727316 366.82892 
L 243.892237 366.827907 
L 244.057127 363.756522 
L 244.221986 363.755534 
L 244.386815 364.087664 
L 244.551613 364.086698 
L 244.716379 363.810568 
L 244.881115 363.809624 
L 245.04582 364.402492 
L 245.210494 365.487793 
L 245.375138 365.486884 
L 245.53975 363.704585 
L 245.704332 363.558871 
L 246.033403 362.427462 
L 246.197892 362.919028 
L 246.36235 362.425764 
L 246.526778 361.526986 
L 247.019876 361.524534 
L 247.184181 364.652052 
L 247.348455 364.651264 
L 247.512698 366.243612 
L 247.676911 366.575957 
L 247.841092 366.2421 
L 248.005243 363.286842 
L 248.169364 363.286117 
L 248.333453 365.42888 
L 248.497513 365.428177 
L 248.661541 365.065414 
L 248.825539 364.239209 
L 248.989506 364.021298 
L 249.153442 364.020644 
L 249.317348 364.686216 
L 249.481223 364.685585 
L 249.972665 361.903029 
L 250.136417 361.699677 
L 250.627492 363.493846 
L 250.954722 362.247219 
L 251.118292 360.161142 
L 251.281831 360.160617 
L 251.445339 361.666326 
L 251.772264 365.329508 
L 251.935681 365.329024 
L 252.425748 363.184165 
L 252.589043 363.183726 
L 252.915542 365.326358 
L 253.078745 365.325953 
L 253.241919 364.586931 
L 253.568174 364.586183 
L 253.731256 364.310651 
L 254.057328 361.703039 
L 254.220319 361.630298 
L 254.383279 361.702396 
L 254.54621 361.629673 
L 254.709109 361.180401 
L 254.871979 361.18011 
L 255.034818 361.541901 
L 255.197626 362.859576 
L 255.360405 362.94621 
L 255.523153 362.859058 
L 255.685871 360.628439 
L 255.848558 360.1213 
L 256.011215 360.121071 
L 256.499005 362.119079 
L 256.824047 361.307651 
L 257.148968 361.162474 
L 257.311384 362.900267 
L 257.473769 362.900115 
L 257.636124 361.031673 
L 257.798448 361.03154 
L 258.123007 362.204418 
L 258.285241 362.204311 
L 258.609619 362.348955 
L 258.933876 361.37845 
L 259.095959 361.074247 
L 259.258013 360.306598 
L 259.420036 360.306553 
L 259.582029 360.509277 
L 259.743992 362.218235 
L 259.905925 361.291306 
L 260.067828 362.218203 
L 260.229701 362.493376 
L 260.553356 362.4934 
L 260.715139 362.145836 
L 260.876892 363.623133 
L 261.038614 363.608696 
L 261.200307 364.217038 
L 261.523602 362.797856 
L 261.685205 361.581378 
L 262.00832 361.668481 
L 262.169832 362.56654 
L 262.331315 361.668722 
L 262.492768 362.5668 
L 262.654191 362.653842 
L 262.976947 363.725899 
L 263.6221 363.79908 
L 263.783313 364.349651 
L 264.105651 364.350124 
L 264.266775 364.118651 
L 264.427869 364.7272 
L 264.749967 364.727765 
L 265.071947 364.409753 
L 265.232892 364.482492 
L 265.393807 364.178686 
L 265.554692 362.223834 
L 265.715548 361.789702 
L 265.876373 362.224556 
L 266.03717 361.73251 
L 266.519379 361.704722 
L 266.680056 360.952018 
L 266.840704 362.357283 
L 267.001321 362.183916 
L 267.161909 362.358149 
L 267.322467 362.1848 
L 267.482996 364.039074 
L 267.643495 362.098826 
L 267.803964 362.620689 
L 267.964404 362.099789 
L 268.124813 362.621672 
L 268.445544 366.764819 
L 268.605865 366.765351 
L 269.08665 358.859322 
L 269.246853 358.85989 
L 269.567169 364.408019 
L 269.727283 365.393455 
L 270.367442 361.847626 
L 270.527408 364.180029 
L 270.687345 364.180688 
L 271.007129 363.805483 
L 271.166977 363.936522 
L 271.646344 365.821452 
L 271.806074 367.704976 
L 271.965774 367.79263 
L 272.125445 367.706502 
L 272.444699 365.144604 
L 272.604282 365.058517 
L 272.763835 360.975148 
L 272.923359 360.975979 
L 273.082854 361.194063 
L 273.242319 364.540473 
L 273.401755 364.541333 
L 273.720538 362.935479 
L 273.879886 362.936371 
L 274.039204 362.357956 
L 274.198493 360.736777 
L 274.357753 360.737697 
L 274.676184 364.780307 
L 274.835356 364.781258 
L 274.994498 361.88563 
L 275.153611 361.886601 
L 275.312695 362.133792 
L 275.471749 366.363805 
L 275.630774 366.553087 
L 275.78977 366.554104 
L 275.948737 363.209573 
L 276.266583 363.066836 
L 276.425462 362.503063 
L 276.584311 363.06897 
L 276.901923 365.214622 
L 277.060685 365.259177 
L 277.219418 366.737556 
L 277.378122 365.261427 
L 277.536796 365.219123 
L 277.695442 364.510616 
L 277.854058 362.904177 
L 278.012645 362.905356 
L 278.171203 364.007249 
L 278.329732 364.008449 
L 278.646702 365.488145 
L 279.121939 365.506374 
L 279.280293 366.738699 
L 279.596914 366.871636 
L 279.755181 365.975009 
L 279.913419 362.891469 
L 280.071627 362.892808 
L 280.229807 365.428674 
L 280.546079 365.431411 
L 280.704172 364.882446 
L 280.862236 366.650765 
L 281.02027 365.899065 
L 281.178276 367.334303 
L 281.336253 365.901931 
L 281.494201 365.888902 
L 281.652119 364.905528 
L 281.810009 364.863558 
L 281.96787 363.749862 
L 282.283505 360.696971 
L 282.441279 360.69849 
L 282.599024 362.915908 
L 282.75674 363.511245 
L 283.229715 363.429021 
L 283.387316 364.111299 
L 283.544887 364.11289 
L 283.70243 364.809673 
L 283.859944 364.203003 
L 284.017429 364.595668 
L 284.174886 364.206265 
L 284.332313 363.382385 
L 284.489712 363.340595 
L 284.961735 361.694575 
L 285.119018 361.88455 
L 285.905004 369.409856 
L 286.062115 368.991626 
L 286.533275 365.738382 
L 286.847238 362.237186 
L 287.004176 362.239041 
L 287.161086 362.70436 
L 287.317967 364.458671 
L 287.47482 364.460557 
L 287.631644 363.347267 
L 287.788439 363.059516 
L 287.945205 363.061434 
L 288.101943 365.033044 
L 288.415333 364.935556 
L 288.571985 363.300947 
L 288.728608 363.302923 
L 288.885203 365.086312 
L 289.041769 365.08831 
L 289.354815 364.15095 
L 289.511296 362.168819 
L 289.667748 362.619834 
L 289.824171 360.97083 
L 289.980566 361.233583 
L 290.136932 360.974959 
L 290.449579 357.039757 
L 290.605859 357.041844 
L 290.762111 358.521197 
L 290.918335 358.523295 
L 291.07453 358.308154 
L 291.230696 357.817842 
L 291.542944 357.822074 
L 291.699025 358.229721 
L 291.855078 357.218043 
L 292.011102 357.220176 
L 292.323065 355.993405 
L 292.479004 355.995549 
L 292.634915 356.345288 
L 292.946651 358.666868 
L 293.102476 358.66903 
L 293.414042 352.025691 
L 293.725494 347.74307 
L 293.881177 346.731423 
L 294.036832 343.518362 
L 294.503628 315.731945 
L 294.970168 252.939869 
L 295.591826 163.572057 
L 295.902485 145.514008 
L 296.057773 145.514797 
L 296.213032 151.627184 
L 296.523465 176.886026 
L 297.454088 301.539038 
L 297.91902 330.083079 
L 298.383697 343.666013 
L 298.538534 344.403928 
L 298.848122 342.505203 
L 299.002874 341.519619 
L 299.312294 337.723561 
L 299.621602 336.375063 
L 299.776213 334.259735 
L 299.930797 334.099588 
L 300.23988 332.779913 
L 300.394379 332.77902 
L 301.475091 350.325703 
L 301.629367 350.353691 
L 301.937834 354.928346 
L 302.092025 355.637034 
L 302.246189 355.693992 
L 302.554433 359.964527 
L 303.016589 359.961674 
L 303.170585 361.568345 
L 303.478493 361.638913 
L 303.786291 365.431637 
L 303.940147 365.43075 
L 304.247777 367.210419 
L 304.401551 367.209573 
L 304.555296 366.614941 
L 304.862704 364.962261 
L 305.016366 364.961468 
L 305.17 366.452432 
L 305.323606 366.451665 
L 305.630736 364.509455 
L 305.937754 364.508008 
L 306.244661 364.231432 
L 306.398074 364.230749 
L 306.704815 365.750128 
L 307.164718 368.702756 
L 307.317964 368.702156 
L 307.471182 366.847753 
L 307.624373 366.745802 
L 307.777535 366.846626 
L 307.930671 367.22264 
L 308.236858 368.394717 
L 308.38991 368.39422 
L 308.695931 367.480845 
L 308.848901 365.916233 
L 309.001842 365.915794 
L 309.154757 365.698124 
L 309.307643 365.914955 
L 309.460502 365.407652 
L 309.613333 365.914168 
L 309.766137 365.682066 
L 309.918913 367.187932 
L 310.224383 367.187252 
L 310.377076 366.202093 
L 310.682381 366.100116 
L 310.834992 366.070871 
L 310.987575 366.389231 
L 311.29266 366.388741 
L 311.597634 365.997266 
L 311.75008 365.316369 
L 311.902499 365.316184 
L 312.207253 368.719346 
L 312.359589 368.719204 
L 312.511898 365.402481 
L 312.664179 365.329952 
L 312.816433 364.822947 
L 312.96866 364.822857 
L 313.120859 365.329683 
L 313.27303 368.660697 
L 313.577291 369.095103 
L 313.881443 369.095086 
L 314.185485 367.806149 
L 314.337465 367.400673 
L 314.489418 367.400733 
L 314.793241 368.921609 
L 314.945112 368.921716 
L 315.096955 368.081827 
L 315.248771 368.081965 
L 315.40056 368.791783 
L 315.552322 368.965747 
L 315.704056 369.646632 
L 315.855763 369.646834 
L 316.007442 369.111184 
L 316.159095 369.111419 
L 316.31072 368.517869 
L 316.462318 369.213318 
L 316.613888 369.05429 
L 316.765432 369.213902 
L 316.916948 369.054906 
L 317.068437 370.040079 
L 317.219899 370.040429 
L 317.371333 370.822875 
L 317.522741 370.82326 
L 317.674121 370.17193 
L 317.825474 370.172351 
L 317.9768 370.737624 
L 318.128098 370.810494 
L 318.27937 370.738553 
L 318.430614 369.609374 
L 318.581831 369.609882 
L 318.884184 372.333746 
L 319.03532 372.33431 
L 319.186429 372.103166 
L 319.33751 372.103768 
L 319.790592 369.556686 
L 319.941566 369.731155 
L 320.092512 371.846357 
L 320.243431 371.847067 
L 320.394323 370.095358 
L 320.545188 369.907825 
L 320.696026 369.488582 
L 320.846837 369.793504 
L 320.997621 369.794301 
L 321.299107 370.520093 
L 321.44981 370.520941 
L 322.202919 372.393761 
L 322.503974 372.410186 
L 322.654461 371.614624 
L 322.955355 368.184219 
L 323.105761 368.185271 
L 323.406493 372.488859 
L 323.556818 373.199628 
L 323.707117 373.200753 
L 323.857389 370.942557 
L 324.007633 370.94372 
L 324.308042 371.945425 
L 324.458207 371.946644 
L 324.758454 371.789827 
L 325.058595 372.588961 
L 325.208625 374.082021 
L 325.358628 374.083357 
L 325.508605 371.419852 
L 325.658554 371.421228 
L 325.958373 374.885465 
L 326.108242 374.886903 
L 326.4079 373.673277 
L 326.557689 373.399603 
L 326.707451 373.401126 
L 327.006896 376.170479 
L 327.306233 374.203998 
L 327.605463 374.105905 
L 328.054108 374.053063 
L 328.353072 374.056563 
L 328.801317 370.180534 
L 328.950678 370.182372 
L 329.100013 372.892539 
L 329.249322 373.575112 
L 329.547859 373.578924 
L 329.697087 376.274691 
L 329.846289 376.493896 
L 329.995465 376.49588 
L 330.442831 370.679819 
L 330.591901 369.161177 
L 330.740943 369.163261 
L 331.187911 375.339359 
L 331.336848 374.907034 
L 331.634641 372.782432 
L 331.783497 373.827431 
L 331.932328 373.829679 
L 332.081132 374.222988 
L 332.229909 375.079772 
L 332.37866 375.082084 
L 332.527384 374.432686 
L 332.676082 374.435042 
L 332.973398 374.019814 
L 333.122017 372.153933 
L 333.270609 372.156373 
L 333.419174 372.49194 
L 333.716226 375.451442 
L 333.864713 376.916743 
L 334.013173 376.91929 
L 334.161606 376.052884 
L 334.310013 376.055479 
L 334.755076 376.700653 
L 334.903378 378.788887 
L 335.051653 376.706056 
L 335.199902 377.375011 
L 335.348125 377.377774 
L 335.644491 380.410313 
L 335.792635 380.413155 
L 336.088843 374.814015 
L 336.236908 374.816932 
L 336.384946 375.920574 
L 336.532958 375.923536 
L 336.680944 374.608571 
L 336.828904 374.350884 
L 336.976837 374.614605 
L 337.272625 377.792495 
L 337.42048 377.795594 
L 337.71611 372.616965 
L 337.863886 371.157352 
L 338.011636 371.160535 
L 338.602372 378.168738 
L 338.749991 378.172032 
L 339.04515 375.209688 
L 339.19269 375.213053 
L 339.340204 377.345435 
L 339.487692 377.348847 
L 339.782589 377.486091 
L 340.077382 378.651725 
L 340.224739 378.655262 
L 340.37207 378.166404 
L 340.519375 378.169993 
L 340.666654 379.346725 
L 340.813907 379.350366 
L 340.961134 379.107822 
L 341.108335 376.663896 
L 341.402658 376.671353 
L 341.54978 377.167538 
L 341.843947 377.204106 
L 341.990992 376.512762 
L 342.13801 376.516623 
L 342.285003 377.360519 
L 342.431969 379.493423 
L 342.57891 379.497359 
L 343.019575 378.104479 
L 343.313222 378.112584 
L 343.460006 377.566322 
L 343.606765 377.570437 
L 343.900204 377.462878 
L 344.340169 373.753395 
L 344.486772 373.134884 
L 344.633349 373.486752 
L 344.926425 373.495366 
L 345.365846 367.005585 
L 345.512268 367.212731 
L 345.658664 367.767483 
L 345.805034 367.771897 
L 345.951378 367.964604 
L 346.097696 367.273866 
L 346.682712 370.869087 
L 346.975065 370.878158 
L 347.267315 374.928047 
L 347.413401 373.585737 
L 347.559461 374.386925 
L 347.705496 373.59501 
L 347.851505 374.39624 
L 348.143445 376.462222 
L 348.581163 376.462019 
L 348.727018 376.032337 
L 349.01865 373.420605 
L 349.164427 373.425477 
L 349.601606 378.755471 
L 349.74728 379.079063 
L 350.184151 378.239625 
L 350.475269 376.511835 
L 350.62079 376.893509 
L 350.766285 378.07177 
L 350.911755 378.163835 
L 351.057199 378.675931 
L 351.202618 379.767371 
L 351.493378 378.242694 
L 352.074591 378.220584 
L 352.21983 377.849426 
L 352.365044 377.854849 
L 352.510233 377.063735 
L 352.655396 375.577463 
L 352.800533 375.582958 
L 352.945645 375.443647 
L 353.235792 375.758893 
L 353.380827 375.764479 
L 353.960713 376.10568 
L 354.105621 376.111382 
L 354.395361 376.253203 
L 354.540192 376.258975 
L 354.684998 377.307543 
L 354.829779 377.313363 
L 355.119264 373.400194 
L 355.263969 373.406081 
L 355.408648 372.644391 
L 355.553301 372.650319 
L 355.697929 372.424538 
L 355.98711 372.436491 
L 356.131662 372.123872 
L 356.276189 371.405749 
L 356.42069 369.775219 
L 356.565166 369.78128 
L 356.709617 371.148755 
L 356.854042 371.154851 
L 357.142817 367.271182 
L 357.43149 367.341419 
L 357.575789 369.6359 
L 357.720063 369.642091 
L 358.008534 366.613101 
L 358.296904 366.234548 
L 358.441051 366.240812 
L 358.585173 366.956754 
L 358.729269 366.963045 
L 358.873341 366.100373 
L 359.017387 366.106692 
L 359.305403 367.654562 
L 359.449374 367.660923 
L 359.881134 362.335876 
L 360.025003 362.211938 
L 360.168848 362.348702 
L 360.312667 362.224783 
L 360.456461 359.392561 
L 360.743974 358.985448 
L 361.031386 358.998365 
L 361.175054 359.294492 
L 361.605909 362.673985 
L 361.749477 362.680485 
L 362.18003 356.77651 
L 362.323497 356.638209 
L 362.466939 356.789571 
L 362.753749 358.540602 
L 362.897116 358.547149 
L 363.040458 357.380583 
L 363.183776 354.780208 
L 363.327068 354.786767 
L 363.470335 358.28372 
L 363.613577 358.290287 
L 363.756794 357.891336 
L 364.043153 353.009253 
L 364.186295 353.015832 
L 364.329412 353.341036 
L 364.472504 353.347616 
L 365.473449 323.210973 
L 365.902051 281.446907 
L 366.187661 227.351094 
L 366.901251 65.431117 
L 367.186513 38.154782 
L 367.329107 33.973515 
L 367.471675 33.977502 
L 367.756738 61.603522 
L 369.038294 281.4316 
L 369.465033 315.529143 
L 369.749402 326.872203 
L 369.891549 328.336393 
L 370.317843 338.666842 
L 370.459891 338.668178 
L 370.743914 332.196923 
L 371.027838 332.112571 
L 371.59539 321.660692 
L 371.879018 319.693237 
L 372.020795 319.621886 
L 372.304275 308.486516 
L 372.729311 300.682898 
L 373.154125 295.891267 
L 373.29568 290.200096 
L 373.578718 290.244617 
L 373.7202 292.489917 
L 373.861657 292.577196 
L 374.003089 293.460978 
L 374.144498 293.591587 
L 374.285881 295.662852 
L 374.42724 295.836793 
L 374.709885 305.641879 
L 375.27488 317.054153 
L 375.416067 317.271228 
L 375.698369 324.903303 
L 375.839483 328.060323 
L 375.980573 328.552455 
L 376.403695 337.371575 
L 376.544687 337.617419 
L 376.826597 340.310471 
L 376.967516 340.744552 
L 377.10841 343.800035 
L 377.390125 344.320555 
L 377.812515 348.026832 
L 378.093986 346.606569 
L 378.234685 346.606093 
L 378.37536 348.676673 
L 378.51601 352.644515 
L 378.656636 352.672995 
L 378.797238 353.932525 
L 378.937815 353.932039 
L 379.078368 352.801884 
L 379.218897 352.8014 
L 379.359401 356.725795 
L 379.640337 356.710355 
L 379.780769 356.0147 
L 379.921176 356.014231 
L 380.061559 359.533122 
L 380.201917 360.0106 
L 380.342252 360.010147 
L 380.482562 359.357969 
L 380.622848 359.35753 
L 380.763109 360.805393 
L 380.903347 360.891866 
L 381.04356 364.164597 
L 381.183749 364.164192 
L 381.464054 362.32408 
L 381.60417 361.961633 
L 381.744262 362.323342 
L 382.024374 362.36609 
L 382.164393 361.641606 
L 382.304389 361.626796 
L 382.44436 360.279563 
L 382.584307 360.279252 
L 382.72423 361.350687 
L 382.864128 361.350392 
L 383.004003 362.2046 
L 383.283679 365.361341 
L 383.563259 365.302916 
L 383.703013 364.448194 
L 383.842743 364.303148 
L 383.982449 363.781557 
L 384.12213 364.30275 
L 384.261788 364.143255 
L 384.401421 364.592056 
L 384.680615 367.67662 
L 384.959714 368.733631 
L 385.238716 368.733449 
L 385.378181 368.240961 
L 385.517621 368.24091 
L 385.9358 372.093319 
L 386.214466 370.876808 
L 386.353762 368.950631 
L 386.493035 368.950703 
L 386.632284 370.558399 
L 386.771509 370.601953 
L 387.049887 371.094639 
L 387.18904 370.935486 
L 387.467274 371.095173 
L 387.606355 371.703671 
L 387.745412 371.095621 
L 387.884445 368.474458 
L 388.301401 367.200805 
L 388.440339 369.141832 
L 388.718142 375.761217 
L 388.857008 375.761587 
L 388.99585 375.501288 
L 389.134668 374.15479 
L 389.273463 374.053847 
L 389.550979 372.968564 
L 389.689702 371.868359 
L 389.967076 371.869416 
L 390.105727 371.522382 
L 390.244354 371.522958 
L 390.521538 373.667643 
L 390.660094 373.943455 
L 390.937134 376.942761 
L 391.075619 377.435885 
L 391.214079 376.944192 
L 391.352516 377.640126 
L 391.629319 379.596905 
L 391.767685 379.597734 
L 392.044345 376.398739 
L 392.182639 376.399644 
L 392.32091 378.790259 
L 392.459157 378.791213 
L 392.873755 376.40454 
L 393.011907 378.491137 
L 393.28814 378.594699 
L 393.426222 377.495124 
L 393.702313 379.32231 
L 393.840323 379.526278 
L 393.978309 379.527511 
L 394.116272 377.834265 
L 394.254211 377.83555 
L 394.392126 376.012008 
L 394.530018 376.013341 
L 394.80573 380.882352 
L 394.943551 381.535495 
L 395.081349 381.536935 
L 395.356872 380.555059 
L 395.494599 380.165543 
L 395.632302 380.123646 
L 395.769981 378.025197 
L 395.907637 377.722659 
L 396.045269 377.724288 
L 396.733076 380.585962 
L 396.870567 381.804317 
L 397.008035 381.907515 
L 397.145479 381.80798 
L 397.420296 379.016546 
L 397.557669 379.800554 
L 397.832345 383.309368 
L 397.969648 383.311383 
L 398.106927 381.416161 
L 398.244183 381.302372 
L 398.381415 381.420338 
L 398.792972 380.398526 
L 399.067226 380.417466 
L 399.204317 382.099758 
L 399.341386 382.102058 
L 399.615452 377.283918 
L 399.75245 377.286297 
L 400.026376 380.41945 
L 400.163304 380.421907 
L 400.300208 379.989904 
L 400.437089 379.992417 
L 400.710782 382.705837 
L 400.847593 382.708435 
L 401.121144 381.019214 
L 401.257885 381.340524 
L 401.394603 380.981164 
L 401.531297 381.345979 
L 401.667968 380.754949 
L 401.804616 380.714298 
L 401.94124 380.470914 
L 402.214419 380.563547 
L 402.350974 381.739575 
L 402.487505 381.742513 
L 403.033397 377.684835 
L 403.169811 377.687907 
L 403.306203 378.183425 
L 403.442571 379.721741 
L 403.578916 379.72489 
L 403.715238 379.177714 
L 403.851537 379.180917 
L 403.987812 379.314493 
L 404.124064 380.519834 
L 404.260293 382.724526 
L 404.532682 382.760148 
L 404.668841 381.416606 
L 404.804977 381.420008 
L 404.94109 380.945501 
L 405.07718 379.558596 
L 405.213247 379.417251 
L 405.34929 378.189712 
L 405.485311 378.106352 
L 405.621308 377.878187 
L 405.757282 378.113501 
L 406.02916 379.192491 
L 406.165065 378.790634 
L 406.436805 375.684205 
L 406.57264 375.499664 
L 406.980008 372.976493 
L 407.25147 375.330401 
L 407.387167 375.334269 
L 407.522841 373.788484 
L 407.658491 370.924771 
L 407.794119 370.668007 
L 407.929723 369.354006 
L 408.065305 369.256589 
L 408.336399 365.962451 
L 408.607401 360.49592 
L 408.742867 359.080616 
L 408.87831 358.838436 
L 409.149128 352.589876 
L 409.284502 352.449085 
L 409.555182 347.692267 
L 409.82577 347.700322 
L 409.961029 348.051932 
L 410.096266 347.780771 
L 410.231479 347.784781 
L 410.36667 346.021865 
L 410.501837 346.025863 
L 410.772104 352.247031 
L 410.907203 353.829661 
L 411.177332 361.774305 
L 411.447369 363.780973 
L 411.582353 362.916021 
L 411.852254 362.924104 
L 412.122062 360.368743 
L 412.391779 358.175487 
L 412.661405 351.564948 
L 413.065672 343.452251 
L 413.200382 343.181141 
L 413.335069 343.185197 
L 413.604376 345.829179 
L 413.87359 351.514557 
L 414.008164 352.937913 
L 414.142714 352.941941 
L 414.411747 351.689979 
L 414.815125 351.716536 
L 415.08393 348.972817 
L 415.218299 348.976833 
L 415.352644 349.284988 
L 415.486967 349.288996 
L 415.621267 345.208809 
L 415.755545 345.212806 
L 415.8898 345.984393 
L 416.024032 345.988376 
L 416.158241 341.777813 
L 416.292428 341.477636 
L 416.560734 336.025455 
L 416.694852 332.669331 
L 416.828948 332.412539 
L 417.097072 325.989845 
L 417.2311 325.993675 
L 417.633049 330.291967 
L 418.168663 334.202688 
L 418.30251 334.307721 
L 418.436335 334.209975 
L 418.703916 333.666835 
L 419.506118 325.114059 
L 419.773338 320.240142 
L 419.906914 319.577296 
L 420.440994 311.233764 
L 420.574458 311.23695 
L 420.707899 311.891827 
L 420.841318 311.923896 
L 420.974714 313.027663 
L 421.374767 322.653305 
L 421.508074 322.656227 
L 421.641357 320.588056 
L 422.041074 301.42108 
L 422.174268 301.090694 
L 422.30744 301.426473 
L 422.440589 304.919484 
L 422.70682 316.757158 
L 422.972961 317.732469 
L 423.105999 317.734892 
L 423.239013 315.97036 
L 423.504976 307.864566 
L 423.637923 305.520591 
L 423.770848 305.233148 
L 424.16949 297.027666 
L 424.435139 289.239796 
L 424.56793 289.241681 
L 424.700699 291.662156 
L 424.833445 296.646053 
L 425.231551 320.518941 
L 425.496843 326.47458 
L 425.629455 327.823026 
L 425.762046 327.824533 
L 426.424663 317.157709 
L 426.55712 317.028685 
L 427.086724 305.186522 
L 427.351393 312.705348 
L 427.483694 313.169827 
L 427.74823 313.171758 
L 427.880464 311.174017 
L 428.012676 307.221035 
L 428.144867 307.221853 
L 428.40918 311.046856 
L 428.541304 311.699277 
L 428.805484 313.887457 
L 428.937542 312.990082 
L 429.069577 308.385031 
L 429.465549 282.041819 
L 429.597495 278.406895 
L 429.729419 278.407117 
L 429.993202 278.928726 
L 429.993202 278.928726 
" clip-path="url(#pdc878d0c0b)" style="fill: none; stroke: #5088c5; stroke-linecap: round"/>
   </g>
   <g id="line2d_14">
    <defs>
     <path id="m49e5711c3a" d="M 0 2 
C 0.530406 2 1.03916 1.789267 1.414214 1.414214 
C 1.789267 1.03916 2 0.530406 2 0 
C 2 -0.530406 1.789267 -1.03916 1.414214 -1.414214 
C 1.03916 -1.789267 0.530406 -2 0 -2 
C -0.530406 -2 -1.03916 -1.789267 -1.414214 -1.414214 
C -1.789267 -1.03916 -2 -0.530406 -2 0 
C -2 0.530406 -1.789267 1.03916 -1.414214 1.414214 
C -1.03916 1.789267 -0.530406 2 0 2 
z
"/>
    </defs>
    <g clip-path="url(#pdc878d0c0b)">
     <use xlink:href="#m49e5711c3a" x="158.475979" y="268.779745" style="fill: #f28360"/>
     <use xlink:href="#m49e5711c3a" x="205.75045" y="300.237977" style="fill: #f28360"/>
     <use xlink:href="#m49e5711c3a" x="296.008296" y="145.514797" style="fill: #f28360"/>
     <use xlink:href="#m49e5711c3a" x="367.376299" y="33.973515" style="fill: #f28360"/>
     <use xlink:href="#m49e5711c3a" x="373.633577" y="290.244617" style="fill: #f28360"/>
    </g>
   </g>
   <g id="patch_3">
    <path d="M 91.128438 397.284897 
L 91.128438 20 
" style="fill: none; stroke: #000000; stroke-width: 0.75; stroke-linejoin: miter; stroke-linecap: square"/>
   </g>
   <g id="patch_4">
    <path d="M 91.128438 397.284897 
L 443.026462 397.284897 
" style="fill: none; stroke: #000000; stroke-width: 0.75; stroke-linejoin: miter; stroke-linecap: square"/>
   </g>
  </g>
 </g>
 <defs>
  <clipPath id="pdc878d0c0b">
   <rect x="91.128438" y="20" width="351.898024" height="377.284898"/>
  </clipPath>
 </defs>
</svg>
