<?xml version="1.0" encoding="utf-8" standalone="no"?>
<!DOCTYPE svg PUBLIC "-//W3C//DTD SVG 1.1//EN"
  "http://www.w3.org/Graphics/SVG/1.1/DTD/svg11.dtd">
<svg xmlns:xlink="http://www.w3.org/1999/xlink" width="463.99896pt" height="463.99896pt" viewBox="0 0 463.99896 463.99896" xmlns="http://www.w3.org/2000/svg" version="1.1">
 <metadata>
  <rdf:RDF xmlns:dc="http://purl.org/dc/elements/1.1/" xmlns:cc="http://creativecommons.org/ns#" xmlns:rdf="http://www.w3.org/1999/02/22-rdf-syntax-ns#">
   <cc:Work>
    <dc:type rdf:resource="http://purl.org/dc/dcmitype/StillImage"/>
    <dc:date>2025-02-06T14:36:10.953651</dc:date>
    <dc:format>image/svg+xml</dc:format>
    <dc:creator>
     <cc:Agent>
      <dc:title>Matplotlib v3.8.4, https://matplotlib.org/</dc:title>
     </cc:Agent>
    </dc:creator>
   </cc:Work>
  </rdf:RDF>
 </metadata>
 <defs>
  <style type="text/css">*{stroke-linejoin: round; stroke-linecap: butt}</style>
 </defs>
 <g id="figure_1">
  <g id="patch_1">
   <path d="M 0 463.99896 
L 463.99896 463.99896 
L 463.99896 -0 
L 0 -0 
L 0 463.99896 
z
" style="fill: none"/>
  </g>
  <g id="axes_1">
   <g id="patch_2">
    <path d="M 91.128438 397.284897 
L 443.99896 397.284897 
L 443.99896 20 
L 91.128438 20 
L 91.128438 397.284897 
z
" style="fill: none"/>
   </g>
   <g id="matplotlib.axis_1">
    <g id="xtick_1">
     <g id="line2d_1">
      <defs>
       <path id="m3071296481" d="M 0 0 
L 0 5 
" style="stroke: #000000; stroke-width: 0.75"/>
      </defs>
      <g>
       <use xlink:href="#m3071296481" x="97.770159" y="397.284897" style="stroke: #000000; stroke-width: 0.75"/>
      </g>
     </g>
     <g id="text_1">
      <text style="font: 14.5px &quot;Suisse Int&apos;l Mono&quot;; text-anchor: middle" x="97.770159" y="417.797397" transform="rotate(-0 97.770159 417.797397)">500</text>
     </g>
    </g>
    <g id="xtick_2">
     <g id="line2d_2">
      <g>
       <use xlink:href="#m3071296481" x="158.120367" y="397.284897" style="stroke: #000000; stroke-width: 0.75"/>
      </g>
     </g>
     <g id="text_2">
      <text style="font: 14.5px &quot;Suisse Int&apos;l Mono&quot;; text-anchor: middle" x="158.120367" y="417.797397" transform="rotate(-0 158.120367 417.797397)">1000</text>
     </g>
    </g>
    <g id="xtick_3">
     <g id="line2d_3">
      <g>
       <use xlink:href="#m3071296481" x="218.470575" y="397.284897" style="stroke: #000000; stroke-width: 0.75"/>
      </g>
     </g>
     <g id="text_3">
      <text style="font: 14.5px &quot;Suisse Int&apos;l Mono&quot;; text-anchor: middle" x="218.470575" y="417.797397" transform="rotate(-0 218.470575 417.797397)">1500</text>
     </g>
    </g>
    <g id="xtick_4">
     <g id="line2d_4">
      <g>
       <use xlink:href="#m3071296481" x="278.820783" y="397.284897" style="stroke: #000000; stroke-width: 0.75"/>
      </g>
     </g>
     <g id="text_4">
      <text style="font: 14.5px &quot;Suisse Int&apos;l Mono&quot;; text-anchor: middle" x="278.820783" y="417.797397" transform="rotate(-0 278.820783 417.797397)">2000</text>
     </g>
    </g>
    <g id="xtick_5">
     <g id="line2d_5">
      <g>
       <use xlink:href="#m3071296481" x="339.170991" y="397.284897" style="stroke: #000000; stroke-width: 0.75"/>
      </g>
     </g>
     <g id="text_5">
      <text style="font: 14.5px &quot;Suisse Int&apos;l Mono&quot;; text-anchor: middle" x="339.170991" y="417.797397" transform="rotate(-0 339.170991 417.797397)">2500</text>
     </g>
    </g>
    <g id="xtick_6">
     <g id="line2d_6">
      <g>
       <use xlink:href="#m3071296481" x="399.521199" y="397.284897" style="stroke: #000000; stroke-width: 0.75"/>
      </g>
     </g>
     <g id="text_6">
      <text style="font: 14.5px &quot;Suisse Int&apos;l Mono&quot;; text-anchor: middle" x="399.521199" y="417.797397" transform="rotate(-0 399.521199 417.797397)">3000</text>
     </g>
    </g>
    <g id="text_7">
     <text style="font: 500 15px &quot;Suisse Int&apos;l&quot;, sans-serif; text-anchor: middle" x="267.563699" y="441.209897" transform="rotate(-0 267.563699 441.209897)">Raman shift (cm-1)</text>
    </g>
   </g>
   <g id="matplotlib.axis_2">
    <g id="ytick_1">
     <g id="line2d_7">
      <defs>
       <path id="m9791c9b427" d="M 0 0 
L -5 0 
" style="stroke: #000000; stroke-width: 0.75"/>
      </defs>
      <g>
       <use xlink:href="#m9791c9b427" x="91.128438" y="383.269462" style="stroke: #000000; stroke-width: 0.75"/>
      </g>
     </g>
     <g id="text_8">
      <text style="font: 14.5px &quot;Suisse Int&apos;l Mono&quot;; text-anchor: end" x="81.128438" y="388.525712" transform="rotate(-0 81.128438 388.525712)">0.00</text>
     </g>
    </g>
    <g id="ytick_2">
     <g id="line2d_8">
      <g>
       <use xlink:href="#m9791c9b427" x="91.128438" y="312.98144" style="stroke: #000000; stroke-width: 0.75"/>
      </g>
     </g>
     <g id="text_9">
      <text style="font: 14.5px &quot;Suisse Int&apos;l Mono&quot;; text-anchor: end" x="81.128438" y="318.23769" transform="rotate(-0 81.128438 318.23769)">0.01</text>
     </g>
    </g>
    <g id="ytick_3">
     <g id="line2d_9">
      <g>
       <use xlink:href="#m9791c9b427" x="91.128438" y="242.693418" style="stroke: #000000; stroke-width: 0.75"/>
      </g>
     </g>
     <g id="text_10">
      <text style="font: 14.5px &quot;Suisse Int&apos;l Mono&quot;; text-anchor: end" x="81.128438" y="247.949668" transform="rotate(-0 81.128438 247.949668)">0.02</text>
     </g>
    </g>
    <g id="ytick_4">
     <g id="line2d_10">
      <g>
       <use xlink:href="#m9791c9b427" x="91.128438" y="172.405396" style="stroke: #000000; stroke-width: 0.75"/>
      </g>
     </g>
     <g id="text_11">
      <text style="font: 14.5px &quot;Suisse Int&apos;l Mono&quot;; text-anchor: end" x="81.128438" y="177.661646" transform="rotate(-0 81.128438 177.661646)">0.03</text>
     </g>
    </g>
    <g id="ytick_5">
     <g id="line2d_11">
      <g>
       <use xlink:href="#m9791c9b427" x="91.128438" y="102.117375" style="stroke: #000000; stroke-width: 0.75"/>
      </g>
     </g>
     <g id="text_12">
      <text style="font: 14.5px &quot;Suisse Int&apos;l Mono&quot;; text-anchor: end" x="81.128438" y="107.373625" transform="rotate(-0 81.128438 107.373625)">0.04</text>
     </g>
    </g>
    <g id="ytick_6">
     <g id="line2d_12">
      <g>
       <use xlink:href="#m9791c9b427" x="91.128438" y="31.829353" style="stroke: #000000; stroke-width: 0.75"/>
      </g>
     </g>
     <g id="text_13">
      <text style="font: 14.5px &quot;Suisse Int&apos;l Mono&quot;; text-anchor: end" x="81.128438" y="37.085603" transform="rotate(-0 81.128438 37.085603)">0.05</text>
     </g>
    </g>
    <g id="text_14">
     <text style="font: 500 15px &quot;Suisse Int&apos;l&quot;, sans-serif; text-anchor: middle" x="30.875" y="208.642449" transform="rotate(-90 30.875 208.642449)">Intensity (au)</text>
    </g>
   </g>
   <g id="line2d_13">
    <path d="M 104.197716 378.899882 
L 104.390363 379.977552 
L 104.582971 383.311376 
L 104.775541 378.503774 
L 104.968071 383.311376 
L 105.160562 377.95098 
L 105.353015 382.297837 
L 105.545428 381.135934 
L 105.737803 377.561015 
L 105.930139 382.940685 
L 106.122435 374.617592 
L 106.314693 372.083708 
L 106.506913 374.530153 
L 106.699093 382.161984 
L 106.891234 376.820916 
L 107.083337 383.311375 
L 107.275401 383.311375 
L 107.467426 371.768957 
L 107.659412 377.490852 
L 107.85136 377.543863 
L 108.043268 383.311374 
L 108.235138 383.311374 
L 108.42697 375.578427 
L 109.002231 382.131597 
L 109.193908 383.150495 
L 109.385546 377.015641 
L 109.577145 383.311374 
L 109.960227 372.264345 
L 110.15171 372.422845 
L 110.343155 364.138909 
L 110.534561 375.443332 
L 110.725928 378.336914 
L 110.917257 383.311373 
L 111.108548 379.664781 
L 111.299799 383.311372 
L 111.682187 371.599631 
L 111.873323 371.127717 
L 112.25548 383.311372 
L 112.637483 383.311372 
L 113.019332 378.522544 
L 113.210198 369.74494 
L 113.401027 366.538682 
L 113.782568 377.824338 
L 114.354592 383.311372 
L 114.54519 379.015903 
L 114.73575 383.311373 
L 114.926272 381.219946 
L 115.307199 369.147775 
L 115.497606 368.183142 
L 116.258848 383.311374 
L 116.63924 373.57817 
L 116.829379 373.882096 
L 117.019479 372.219363 
L 117.209542 378.435516 
L 117.399566 373.568612 
L 117.589551 374.838858 
L 117.779499 374.107019 
L 117.969409 375.362223 
L 118.15928 381.779674 
L 118.349113 373.254566 
L 118.538909 375.645343 
L 118.728666 368.922365 
L 118.918385 383.311377 
L 119.108065 382.088696 
L 119.297708 378.291955 
L 119.67688 366.449985 
L 119.866408 367.997798 
L 120.055899 378.530036 
L 120.434766 373.232569 
L 120.624143 372.172274 
L 120.813481 383.31138 
L 121.002782 379.86125 
L 121.192045 383.31138 
L 121.381269 380.780218 
L 121.759605 382.910078 
L 121.948716 383.311381 
L 122.137789 383.311382 
L 122.326825 381.820573 
L 122.515822 379.119313 
L 122.704781 382.261314 
L 122.893703 376.013869 
L 123.460241 383.311382 
L 123.649011 382.238857 
L 123.837744 378.275871 
L 124.026438 378.400161 
L 124.215095 361.1644 
L 124.403714 356.324578 
L 124.592296 363.153903 
L 124.78084 383.311383 
L 124.969346 382.689318 
L 125.157814 383.311383 
L 125.534637 357.102173 
L 126.09959 378.031928 
L 126.287832 369.090567 
L 126.476036 381.916092 
L 126.852333 377.912605 
L 127.040424 366.615584 
L 127.228478 382.999731 
L 127.416495 383.311378 
L 127.604474 383.311377 
L 127.792415 375.068981 
L 127.980319 380.996559 
L 128.168185 374.078762 
L 128.356014 379.334148 
L 128.543805 376.387378 
L 128.731559 380.930198 
L 129.106954 383.311372 
L 129.482199 383.291708 
L 129.669766 382.767957 
L 129.857295 383.31137 
L 130.044786 383.311369 
L 130.23224 379.257218 
L 130.419657 366.547744 
L 130.607036 370.099327 
L 130.794378 371.033454 
L 130.981683 365.900811 
L 131.35618 370.243414 
L 131.543372 375.583616 
L 131.730528 375.781968 
L 132.104726 383.311359 
L 132.291769 382.077951 
L 132.665744 374.818736 
L 132.852676 383.311356 
L 133.03957 382.496232 
L 133.226427 381.013463 
L 133.413247 383.083386 
L 133.600029 372.558972 
L 133.973483 380.853646 
L 134.160154 383.31135 
L 134.346788 382.785811 
L 134.533384 383.311347 
L 134.719944 381.327171 
L 135.092952 369.85681 
L 135.2794 366.49908 
L 135.465811 383.31134 
L 135.652185 381.048311 
L 135.838522 363.734858 
L 136.024822 376.947677 
L 136.211084 377.287588 
L 136.39731 383.311334 
L 136.583499 372.246873 
L 136.76965 383.311331 
L 137.141843 383.311329 
L 137.327883 367.714134 
L 137.513887 378.927427 
L 137.699854 370.762734 
L 137.885783 377.778201 
L 138.071676 377.692175 
L 138.443351 383.11469 
L 138.814878 378.370547 
L 139.000586 382.553843 
L 139.371892 381.99775 
L 139.55749 376.037415 
L 139.74305 378.82122 
L 139.928574 374.01614 
L 140.114061 381.577443 
L 140.299512 369.551723 
L 140.670302 383.311304 
L 140.855642 380.91957 
L 141.040945 371.859485 
L 141.226211 352.672329 
L 141.411441 372.944096 
L 141.596634 373.98246 
L 141.78179 383.311296 
L 141.966909 380.973185 
L 142.151992 375.91622 
L 142.337038 379.889488 
L 142.522047 375.027426 
L 142.70702 365.447097 
L 142.891956 363.65461 
L 143.076855 367.787193 
L 143.261718 383.311286 
L 143.446544 381.305658 
L 143.631334 377.852125 
L 143.816086 370.423622 
L 144.185482 377.633315 
L 144.370125 376.946557 
L 144.554732 363.584522 
L 144.739302 371.946195 
L 145.108332 365.787345 
L 145.477217 383.311271 
L 145.661604 383.31127 
L 145.845955 377.219321 
L 146.214547 379.717411 
L 146.398789 365.274656 
L 146.582994 364.353038 
L 146.951294 375.45285 
L 147.13539 374.353333 
L 147.31945 380.569949 
L 147.503472 375.792759 
L 147.687459 380.511573 
L 147.871409 369.437033 
L 148.423042 379.543835 
L 148.790615 375.48742 
L 148.974347 364.197546 
L 149.341703 377.045069 
L 149.525326 375.258206 
L 149.708913 369.562696 
L 149.892464 378.860423 
L 150.075979 375.400466 
L 150.259457 363.283934 
L 150.4429 367.886533 
L 150.626305 366.879094 
L 150.809675 363.64015 
L 150.993009 380.784656 
L 151.176306 383.311235 
L 151.359567 376.436341 
L 151.542792 376.280814 
L 151.725981 372.293514 
L 151.909134 379.83591 
L 152.092251 369.528943 
L 152.275331 366.193354 
L 152.458376 367.982815 
L 152.641384 383.311226 
L 152.824357 381.412851 
L 153.007293 378.033332 
L 153.190193 371.604612 
L 153.373057 381.1684 
L 153.555885 378.820913 
L 153.738677 374.433351 
L 153.921433 376.053278 
L 154.104153 376.605248 
L 154.286837 370.375058 
L 154.469485 368.839825 
L 154.652097 370.147252 
L 154.834674 372.723377 
L 155.017214 383.311212 
L 155.199718 381.605897 
L 155.382186 377.768929 
L 155.564619 382.11892 
L 155.747015 383.311208 
L 155.929376 382.581892 
L 156.293989 376.964527 
L 156.476242 382.579204 
L 156.658459 370.770695 
L 156.84064 376.589144 
L 157.022786 368.874534 
L 157.204895 370.674187 
L 157.386969 370.210285 
L 157.751009 314.855092 
L 157.932975 302.116582 
L 158.114906 306.021081 
L 158.296801 307.180129 
L 158.47866 319.168664 
L 158.660483 316.5226 
L 159.024023 331.719853 
L 159.387419 366.742404 
L 159.569064 383.311187 
L 160.839579 383.311182 
L 161.020939 381.873995 
L 161.383551 371.186355 
L 161.746022 372.154361 
L 161.927203 383.311178 
L 162.10835 383.311177 
L 162.28946 379.836193 
L 162.470536 366.241589 
L 162.651575 371.005922 
L 162.832579 372.373445 
L 163.013548 383.311174 
L 163.194481 381.273376 
L 163.375379 380.694547 
L 163.556241 359.317091 
L 163.737068 359.492459 
L 163.91786 377.293181 
L 164.098616 383.311171 
L 164.279336 379.224843 
L 164.460021 371.937936 
L 164.640671 358.835193 
L 164.821285 379.936676 
L 165.001864 382.431359 
L 165.362916 373.677913 
L 165.543389 377.578511 
L 165.723827 370.550868 
L 165.904229 378.854877 
L 166.084596 378.742873 
L 166.264928 383.311165 
L 166.445224 383.311165 
L 166.805711 374.98358 
L 166.985902 366.272855 
L 167.166057 375.82099 
L 167.346177 368.952796 
L 167.526262 383.311162 
L 167.706312 383.311162 
L 168.066305 367.336803 
L 168.426158 383.311161 
L 168.606032 378.913801 
L 168.78587 370.468695 
L 168.965674 369.713239 
L 169.145442 373.771458 
L 169.325175 370.302604 
L 169.504873 376.325268 
L 169.684536 370.078314 
L 169.864164 373.271639 
L 170.223314 383.311158 
L 170.582324 371.028044 
L 170.761777 355.539516 
L 170.941194 369.528168 
L 171.120577 368.273316 
L 171.299924 378.470378 
L 171.479237 372.953935 
L 171.658514 382.462969 
L 171.837756 383.311156 
L 172.196136 377.381869 
L 172.375274 372.212325 
L 172.554376 381.551319 
L 172.733444 380.143794 
L 173.091475 368.208086 
L 173.270438 370.768538 
L 173.449366 371.312848 
L 173.628259 383.311154 
L 173.807117 382.337671 
L 173.985941 383.311153 
L 174.343483 383.311153 
L 174.522202 375.451336 
L 174.700886 383.311153 
L 174.879535 378.551593 
L 175.05815 379.323812 
L 175.236729 376.14311 
L 175.415274 383.311153 
L 175.593785 381.809618 
L 175.77226 382.962694 
L 175.950701 379.907666 
L 176.129107 380.626375 
L 176.307478 383.311152 
L 176.485814 379.04786 
L 176.664116 383.311152 
L 176.842383 381.655883 
L 177.020615 383.311152 
L 177.198813 382.423969 
L 177.555104 370.314474 
L 177.733198 383.311151 
L 177.911257 382.721262 
L 178.089282 379.11757 
L 178.267272 367.878641 
L 178.445227 368.52508 
L 178.623147 379.111819 
L 178.978885 363.91812 
L 179.334484 383.311146 
L 179.512232 381.777433 
L 180.045268 370.049762 
L 180.222878 381.254073 
L 180.400453 374.833634 
L 180.577994 373.778259 
L 180.7555 371.610013 
L 180.932972 383.311141 
L 181.287812 383.31114 
L 181.465181 375.822231 
L 181.642515 382.98938 
L 181.819815 380.940857 
L 181.99708 382.068965 
L 182.174311 368.981728 
L 182.351507 376.261177 
L 182.528669 374.15134 
L 182.705797 368.063413 
L 182.88289 357.467844 
L 183.236974 383.311132 
L 183.413964 383.311131 
L 183.59092 380.726345 
L 183.767842 376.359764 
L 183.944729 360.575063 
L 184.121582 356.389551 
L 184.298401 362.777747 
L 184.651936 383.311126 
L 184.828652 379.096094 
L 185.005334 383.311125 
L 185.181982 368.214874 
L 185.358595 372.956574 
L 185.535174 371.940349 
L 185.71172 380.847661 
L 185.88823 383.311122 
L 186.064707 383.075166 
L 186.241149 376.726258 
L 186.593932 358.193554 
L 186.770272 364.306925 
L 186.946578 383.311118 
L 187.299087 383.311117 
L 187.651461 368.046806 
L 187.827596 368.674337 
L 188.003697 383.311114 
L 188.179765 376.738312 
L 188.355798 381.173043 
L 188.531797 367.569759 
L 188.707762 368.620775 
L 188.883694 357.683677 
L 189.059591 371.000445 
L 189.235454 372.376965 
L 189.411283 383.31111 
L 189.587078 383.311109 
L 189.76284 377.004656 
L 189.938567 379.782495 
L 190.11426 371.081062 
L 190.28992 373.019676 
L 190.641137 359.925086 
L 190.816694 383.311106 
L 190.992218 383.311105 
L 191.167708 376.304823 
L 191.343164 381.049412 
L 191.518586 374.2831 
L 191.693974 383.311104 
L 191.869329 378.814539 
L 192.044649 383.311103 
L 192.219936 367.827706 
L 192.570408 377.305511 
L 192.745593 379.564855 
L 192.920745 379.572903 
L 193.095862 369.917789 
L 193.270946 383.311101 
L 193.621013 383.3111 
L 193.795996 369.812285 
L 193.970945 377.919924 
L 194.14586 373.653947 
L 194.320741 383.311099 
L 194.495589 380.286577 
L 194.670403 379.814663 
L 194.845184 375.734542 
L 195.01993 378.82576 
L 195.194644 372.28333 
L 195.369323 377.40734 
L 195.543969 375.90499 
L 195.718581 383.311098 
L 195.893159 383.311098 
L 196.067704 379.524183 
L 196.242216 367.353046 
L 196.416693 383.311098 
L 196.765548 383.311098 
L 196.939925 374.81672 
L 197.114268 375.391817 
L 197.288578 375.122332 
L 197.462855 365.935407 
L 197.637097 379.521393 
L 197.811307 383.311098 
L 197.985482 371.248689 
L 198.159625 368.823261 
L 198.333734 359.644067 
L 198.681851 382.017925 
L 199.029834 382.924877 
L 199.203775 379.344541 
L 199.377683 383.051011 
L 199.551558 383.311098 
L 199.899207 379.919172 
L 200.246722 368.473716 
L 200.42043 379.334424 
L 200.594104 381.112809 
L 200.941353 373.759022 
L 201.114927 383.311094 
L 201.288468 381.991885 
L 201.461976 383.311093 
L 201.808891 364.648428 
L 201.982299 360.245093 
L 202.155673 372.744061 
L 202.329014 375.333541 
L 202.502322 371.549866 
L 202.675597 383.31109 
L 202.848838 376.570258 
L 203.022046 383.31109 
L 203.195221 370.981516 
L 203.368363 376.920622 
L 203.541472 363.57836 
L 203.714547 368.454942 
L 203.887589 366.960127 
L 204.060598 380.501852 
L 204.233574 377.551624 
L 204.406517 365.696207 
L 204.579426 361.69485 
L 205.097956 334.807783 
L 205.443477 346.5333 
L 205.616188 338.693304 
L 205.788866 354.799101 
L 205.96151 338.930807 
L 206.134122 362.264883 
L 206.306701 361.694004 
L 206.824238 383.311084 
L 207.341479 383.311083 
L 207.513826 380.597593 
L 207.686141 383.311083 
L 208.202887 383.311083 
L 208.547219 381.601742 
L 208.719336 370.646025 
L 208.89142 376.645445 
L 209.063471 374.363629 
L 209.235489 383.311084 
L 209.407475 382.635392 
L 209.579427 383.311084 
L 209.751347 379.55724 
L 209.923233 381.991876 
L 210.095087 375.282365 
L 210.266908 375.875877 
L 210.438697 381.640739 
L 210.610452 379.235595 
L 210.782175 379.928713 
L 210.953865 371.511624 
L 211.125522 383.311085 
L 211.297146 381.637942 
L 211.468737 374.996645 
L 211.640296 377.590667 
L 211.811822 378.058497 
L 211.983315 383.311086 
L 212.154776 373.635097 
L 212.326204 380.597034 
L 212.497599 375.751048 
L 212.668961 374.814249 
L 212.840291 383.166408 
L 213.011588 368.838784 
L 213.182852 381.356574 
L 213.354084 365.549726 
L 213.525283 383.311088 
L 213.696449 382.666231 
L 213.867583 383.311088 
L 214.038684 382.420889 
L 214.209753 374.111861 
L 214.380789 381.951828 
L 214.551792 383.311086 
L 214.722763 383.311086 
L 215.064606 371.046106 
L 215.235479 383.311085 
L 215.40632 380.458164 
L 215.577128 383.311084 
L 215.918646 376.657957 
L 216.089356 383.311083 
L 216.260034 379.230006 
L 216.94242 383.311083 
L 217.112936 383.311083 
L 217.283419 383.085852 
L 217.453869 380.18796 
L 217.624288 383.311082 
L 218.135347 383.311081 
L 218.305636 375.473616 
L 218.475892 380.705511 
L 218.646116 376.952728 
L 218.816307 383.311081 
L 219.156593 376.968873 
L 219.326687 383.311081 
L 219.496749 382.831852 
L 219.666779 372.535575 
L 219.836776 382.037342 
L 220.006741 375.657417 
L 220.176674 383.311079 
L 220.346574 375.099751 
L 220.516443 383.311079 
L 220.686279 378.013245 
L 220.856082 383.311078 
L 221.025854 377.734053 
L 221.3653 383.311077 
L 221.534975 382.774814 
L 221.704617 383.311076 
L 222.213352 372.553211 
L 222.552347 383.311072 
L 222.721796 383.311072 
L 222.891214 376.008708 
L 223.060599 376.307192 
L 223.229952 374.673796 
L 223.568562 382.912111 
L 223.737818 383.311067 
L 224.076236 383.257439 
L 224.245396 374.063129 
L 224.414525 374.859491 
L 224.583621 373.58559 
L 224.752685 380.712865 
L 224.921718 380.405853 
L 225.259686 376.93344 
L 225.428622 383.311058 
L 225.766399 383.311057 
L 225.935239 378.996369 
L 226.104047 366.397789 
L 226.272824 383.311054 
L 226.441568 383.311053 
L 226.778961 368.787508 
L 226.947609 361.55733 
L 227.621885 383.311048 
L 227.958831 383.311047 
L 228.127256 382.457272 
L 228.29565 383.311046 
L 228.464011 381.002435 
L 228.632341 383.311045 
L 228.800639 383.311044 
L 229.137139 378.178949 
L 229.305342 378.633094 
L 229.473513 371.463223 
L 229.641652 370.889462 
L 229.809759 374.566228 
L 229.977834 383.311041 
L 230.31389 375.819462 
L 230.649818 383.311039 
L 230.98562 380.362034 
L 231.153473 376.657349 
L 231.489085 379.543171 
L 231.656843 375.827612 
L 231.82457 382.965929 
L 232.159928 371.802637 
L 232.32756 383.311035 
L 232.49516 383.311034 
L 232.662728 382.127341 
L 232.830265 367.105426 
L 233.165244 383.311031 
L 233.332686 382.624614 
L 233.667475 379.589363 
L 234.002138 383.311029 
L 234.169422 377.519387 
L 234.336675 383.311028 
L 234.503896 372.241577 
L 235.00537 380.204555 
L 235.172466 378.77742 
L 235.339529 383.311025 
L 235.506562 380.007642 
L 235.673562 382.554893 
L 235.840532 383.289573 
L 236.007469 375.618421 
L 236.174376 381.724636 
L 236.508094 383.311022 
L 236.674907 377.008421 
L 236.841687 379.153196 
L 237.008437 374.345994 
L 237.508497 383.311019 
L 237.675121 383.311019 
L 237.841713 380.045177 
L 238.008274 383.311019 
L 238.174804 378.019441 
L 238.341303 383.311018 
L 238.50777 376.727884 
L 238.674206 379.567063 
L 238.840611 369.82851 
L 239.339637 383.311017 
L 239.505917 382.023987 
L 239.672165 377.208175 
L 239.838382 377.365198 
L 240.004568 366.490811 
L 240.170723 383.311016 
L 240.336846 379.224688 
L 240.502938 383.311016 
L 240.668999 369.6899 
L 240.835029 383.311015 
L 241.001028 376.178749 
L 241.166995 377.412121 
L 241.332932 375.118525 
L 241.498837 364.961695 
L 241.664711 363.867732 
L 242.162146 383.311015 
L 242.824958 365.871081 
L 243.156178 371.673428 
L 243.321741 383.311015 
L 243.487273 383.311015 
L 243.652774 381.927459 
L 243.983683 368.872099 
L 244.149091 383.311016 
L 244.314468 380.683327 
L 244.479814 369.960931 
L 244.645129 366.87599 
L 244.810413 378.550732 
L 244.975666 376.517792 
L 245.140888 376.063338 
L 245.306079 372.794312 
L 245.636368 383.311017 
L 245.801467 382.088336 
L 245.966534 376.390544 
L 246.131571 378.836124 
L 246.296576 372.412228 
L 246.461551 378.23758 
L 246.626495 377.941126 
L 246.791408 382.589688 
L 246.95629 369.590235 
L 247.121141 375.620034 
L 247.285962 375.01394 
L 247.450751 371.066987 
L 247.61551 383.31102 
L 247.944935 383.31102 
L 248.109601 382.302844 
L 248.274237 383.311021 
L 248.438841 368.330605 
L 248.603415 366.424184 
L 248.932471 383.311022 
L 249.096953 375.42794 
L 249.261403 374.225593 
L 249.425824 354.654597 
L 249.590213 374.1416 
L 249.9189 383.311025 
L 250.247464 371.291282 
L 250.4117 371.342803 
L 250.575905 375.254543 
L 250.74008 372.270184 
L 250.904224 382.255428 
L 251.068337 380.194387 
L 251.23242 383.311028 
L 251.724484 361.538401 
L 252.216273 383.311031 
L 252.543979 380.200703 
L 253.035309 367.913318 
L 253.199025 381.021304 
L 253.36271 383.311035 
L 253.526365 380.833502 
L 253.689989 373.886186 
L 254.017146 383.311037 
L 254.180678 381.080181 
L 254.34418 376.663331 
L 254.507652 364.711423 
L 254.671093 375.932133 
L 254.997884 379.674114 
L 255.161234 377.414439 
L 255.324554 372.151413 
L 255.651101 383.311044 
L 255.81433 382.32432 
L 255.977528 383.311045 
L 256.303832 368.89891 
L 256.793061 383.311049 
L 256.956077 380.972884 
L 257.119062 383.31105 
L 257.444942 377.110285 
L 257.607836 375.59392 
L 257.7707 383.311054 
L 257.933534 383.311055 
L 258.096338 366.726105 
L 258.421854 383.311057 
L 258.584567 376.889418 
L 258.909901 383.31106 
L 259.235115 377.124036 
L 259.397677 379.381091 
L 259.88518 371.586672 
L 260.047621 383.311067 
L 260.210032 375.962947 
L 260.372412 383.311069 
L 260.534762 378.67256 
L 260.697083 383.311071 
L 260.859373 382.65063 
L 261.021633 379.4278 
L 261.183862 383.311073 
L 261.346062 373.666222 
L 261.508231 383.311074 
L 261.670371 380.601155 
L 261.83248 383.311075 
L 262.156609 371.799023 
L 262.318628 373.011 
L 262.480617 379.970829 
L 262.642576 376.121879 
L 262.804505 381.075589 
L 262.966404 368.763427 
L 263.128273 381.297131 
L 263.290112 383.311081 
L 263.451921 383.311081 
L 263.6137 383.010774 
L 263.775449 376.225839 
L 263.937168 381.566998 
L 264.098857 380.851755 
L 264.260516 383.311084 
L 264.583744 380.163222 
L 264.745313 382.791078 
L 264.906852 374.849602 
L 265.068362 382.468648 
L 265.229841 383.311085 
L 265.391291 380.25835 
L 265.55271 380.598488 
L 265.7141 379.737783 
L 265.87546 383.311085 
L 266.03679 371.168267 
L 266.19809 374.82212 
L 266.35936 367.45945 
L 266.520601 378.394727 
L 266.681811 377.475036 
L 266.842992 378.473435 
L 267.004143 372.777161 
L 267.165264 383.311086 
L 267.326356 373.924894 
L 267.487417 379.885592 
L 267.648449 377.923875 
L 267.809451 383.311086 
L 267.970423 374.11418 
L 268.131365 383.311087 
L 268.292278 373.720989 
L 268.453161 373.378616 
L 268.614014 368.510679 
L 268.774838 381.031745 
L 268.935631 383.311088 
L 269.096395 380.42599 
L 269.25713 373.722677 
L 269.417834 354.673359 
L 269.578509 353.615032 
L 269.739154 355.879431 
L 270.060356 383.311089 
L 270.220912 380.940809 
L 270.381439 383.31109 
L 270.702403 366.455531 
L 270.86284 369.204215 
L 271.023249 383.311091 
L 271.183627 381.707555 
L 271.343976 378.715984 
L 271.504295 379.507308 
L 271.664585 377.805959 
L 271.824845 382.79589 
L 271.985075 376.941234 
L 272.305448 383.311093 
L 272.46559 381.434171 
L 272.625702 383.045642 
L 272.945838 376.134193 
L 273.105862 379.275653 
L 273.265856 360.357624 
L 273.585757 365.609263 
L 273.745662 383.311091 
L 273.905539 382.056231 
L 274.065386 373.355354 
L 274.225203 381.48869 
L 274.54475 377.190261 
L 274.704479 367.493262 
L 274.864179 368.456207 
L 275.023849 382.161809 
L 275.18349 383.311088 
L 275.343101 383.311088 
L 275.502684 365.974547 
L 275.662236 367.022612 
L 275.82176 366.033167 
L 275.981254 383.311087 
L 276.140718 383.311087 
L 276.300154 380.072061 
L 276.45956 369.628751 
L 276.618936 371.415823 
L 276.778284 369.042829 
L 276.937602 373.397313 
L 277.09689 365.608065 
L 277.25615 380.472245 
L 277.574581 383.311087 
L 277.733752 376.63461 
L 277.892895 383.311087 
L 278.052008 375.149171 
L 278.211091 374.88538 
L 278.370146 368.464359 
L 278.529171 367.027812 
L 278.688167 376.712756 
L 278.847134 377.537263 
L 279.16498 383.311087 
L 279.32386 382.882076 
L 279.48271 379.003386 
L 279.641531 379.682368 
L 279.800322 383.311086 
L 279.959085 383.311085 
L 280.117818 380.619047 
L 280.276523 380.419175 
L 280.435198 365.815974 
L 280.593844 364.481134 
L 280.752461 380.308956 
L 280.911048 380.179415 
L 281.069607 374.506736 
L 281.228137 383.311083 
L 281.386637 375.35961 
L 281.545108 383.311083 
L 281.703551 377.984199 
L 281.861964 383.311082 
L 282.178703 376.156886 
L 282.337029 373.312259 
L 282.495327 380.934651 
L 282.653595 368.134351 
L 282.811834 365.050886 
L 282.970044 366.122146 
L 283.286377 383.311081 
L 283.4445 380.994423 
L 283.602594 371.023962 
L 283.760659 379.8161 
L 284.076702 383.311081 
L 284.23468 379.482162 
L 284.39263 383.311081 
L 284.55055 381.313502 
L 284.708442 383.311081 
L 284.866304 379.256481 
L 285.024138 380.606918 
L 285.181942 378.380643 
L 285.339718 373.723513 
L 285.497465 374.470956 
L 285.655183 370.59647 
L 285.812872 380.265887 
L 285.970533 373.16634 
L 286.128164 383.311081 
L 286.443341 383.311081 
L 286.600886 376.417415 
L 286.758402 383.222598 
L 286.915889 370.636956 
L 287.073348 380.258346 
L 287.388179 363.707682 
L 287.545551 366.515408 
L 287.702894 371.372872 
L 287.860209 382.516349 
L 288.017495 382.851516 
L 288.331981 373.682607 
L 288.48918 374.31794 
L 288.646351 383.311081 
L 288.803494 383.311081 
L 288.960607 379.514339 
L 289.117692 360.936927 
L 289.431776 382.620752 
L 289.588774 383.203827 
L 289.745744 382.066946 
L 289.902686 372.322179 
L 290.059599 383.311079 
L 290.216483 364.31799 
L 290.373338 381.454989 
L 290.530165 376.401885 
L 290.686964 380.631551 
L 291.000474 365.742516 
L 291.157187 367.131758 
L 291.470526 383.311076 
L 291.783751 373.813758 
L 291.94032 377.314088 
L 292.096861 383.311075 
L 292.253374 373.163383 
L 292.409858 382.101805 
L 292.72274 376.201301 
L 292.879139 375.498772 
L 293.035508 363.291218 
L 293.348163 382.672418 
L 293.504447 383.311073 
L 293.660703 383.311073 
L 294.1293 355.217229 
L 294.285442 373.26417 
L 294.441556 374.533782 
L 294.597641 374.529775 
L 294.753698 352.478594 
L 294.909727 351.295225 
L 295.221698 309.843214 
L 295.377641 284.240801 
L 295.845301 147.248742 
L 296.001131 132.197967 
L 296.156932 138.298264 
L 296.46845 180.755039 
L 297.246749 382.706699 
L 297.402324 383.311056 
L 298.956519 383.311045 
L 299.111783 381.530649 
L 299.267019 383.311044 
L 299.422227 375.814052 
L 299.577407 376.277953 
L 299.732558 368.445125 
L 299.887682 367.147537 
L 300.197844 372.266261 
L 300.352883 366.295714 
L 300.507894 371.27808 
L 300.817831 367.517107 
L 300.972757 364.879689 
L 301.282526 377.128921 
L 301.437368 383.311033 
L 302.056456 383.311031 
L 302.211157 380.006755 
L 302.365831 383.31103 
L 302.675095 383.311029 
L 302.829684 378.94629 
L 302.984246 383.311028 
L 303.293285 383.311027 
L 303.447763 373.888004 
L 303.756634 383.311026 
L 304.065394 376.090197 
L 304.219732 383.311025 
L 304.528324 383.311025 
L 304.682578 379.133534 
L 304.836804 383.311025 
L 304.991002 383.311025 
L 305.145172 381.38048 
L 305.299315 377.607081 
L 305.453429 369.195151 
L 305.915606 383.311024 
L 306.069609 379.020917 
L 306.223584 369.194096 
L 306.531451 383.251419 
L 306.685342 376.926191 
L 306.839206 376.658288 
L 306.993042 369.904354 
L 307.14685 380.515581 
L 307.300631 380.445869 
L 307.454383 382.725095 
L 307.608108 383.311018 
L 307.915475 383.311016 
L 308.069116 375.875737 
L 308.22273 376.282001 
L 308.376316 364.666553 
L 308.683405 382.170504 
L 308.836908 383.31101 
L 308.990383 382.53879 
L 309.14383 379.280989 
L 309.29725 383.023102 
L 309.450642 373.235149 
L 309.604006 373.199441 
L 309.757343 383.311004 
L 309.910652 373.239081 
L 310.063933 376.287851 
L 310.217187 365.506975 
L 310.370413 383.311 
L 310.523611 375.528358 
L 310.676782 382.254562 
L 310.829925 383.310997 
L 310.983041 377.966906 
L 311.289189 378.036848 
L 311.442221 381.584895 
L 311.595227 375.70878 
L 311.901154 383.31099 
L 312.359838 371.713534 
L 312.512678 372.83779 
L 312.66549 381.979765 
L 312.818275 383.310984 
L 312.971032 381.830893 
L 313.123762 372.210325 
L 313.276464 372.200132 
L 313.581785 366.458161 
L 313.734405 370.139636 
L 313.886997 383.310978 
L 314.039562 383.310977 
L 314.192099 379.406983 
L 314.344609 379.718013 
L 314.497091 383.310974 
L 314.649546 377.249075 
L 314.801973 377.238235 
L 314.954373 368.344333 
L 315.259091 380.555582 
L 315.411409 383.31097 
L 315.563699 382.635277 
L 315.868198 378.236685 
L 316.020406 381.435612 
L 316.172587 382.054265 
L 316.32474 383.310965 
L 316.476867 383.310964 
L 316.628965 380.602387 
L 316.781037 374.99842 
L 316.933081 383.310962 
L 317.085098 376.453437 
L 317.237087 379.678842 
L 317.389049 378.566983 
L 317.540984 383.31096 
L 317.692892 375.436592 
L 317.844772 381.813051 
L 317.996625 383.310958 
L 318.148451 383.182255 
L 318.300249 379.840331 
L 318.452021 373.622034 
L 318.603765 383.310956 
L 318.755481 380.447309 
L 318.907171 381.180257 
L 319.058833 369.184467 
L 319.210468 373.347767 
L 319.362076 383.046061 
L 319.513657 383.310952 
L 319.66521 383.310951 
L 319.816736 381.59491 
L 319.968236 377.883962 
L 320.119707 383.310949 
L 320.271152 371.229913 
L 320.42257 372.329217 
L 320.57396 370.543128 
L 320.725323 383.310946 
L 320.87666 383.310945 
L 321.17925 373.963903 
L 321.330505 376.625358 
L 321.481733 375.111775 
L 321.632933 377.474443 
L 321.784107 383.310942 
L 321.935253 379.539504 
L 322.086372 378.578975 
L 322.237465 379.494146 
L 322.539568 383.310939 
L 322.690579 376.712222 
L 322.841563 381.560035 
L 322.99252 381.981453 
L 323.14345 383.310937 
L 323.294353 381.090805 
L 323.445228 373.880603 
L 323.596077 357.075791 
L 324.048462 383.310934 
L 324.199203 383.310933 
L 324.349917 383.107153 
L 324.500604 372.217655 
L 324.801897 377.087707 
L 324.952503 383.310931 
L 325.253634 379.108472 
L 325.40416 366.779889 
L 325.554658 378.93351 
L 325.70513 379.553401 
L 325.855574 383.310928 
L 326.005992 380.382932 
L 326.306747 359.824395 
L 326.607394 382.885434 
L 326.757677 383.310924 
L 326.907934 374.687778 
L 327.058163 376.845936 
L 327.208366 371.182513 
L 327.358542 371.399702 
L 327.508692 383.31092 
L 327.658814 380.887009 
L 327.808909 383.310919 
L 327.958978 376.874419 
L 328.10902 377.185618 
L 328.259035 375.062758 
L 328.409024 379.806995 
L 328.558985 380.614069 
L 328.70892 379.575225 
L 328.858828 383.219022 
L 329.00871 383.310913 
L 329.458193 367.336341 
L 329.607968 368.264283 
L 329.757716 381.264002 
L 329.907437 383.310908 
L 330.057131 380.637749 
L 330.206799 374.585563 
L 330.35644 383.310906 
L 330.655641 383.310905 
L 330.805202 376.226856 
L 330.954737 376.681295 
L 331.253725 358.878364 
L 331.40318 359.165279 
L 331.702009 383.310901 
L 331.851383 382.238375 
L 332.000731 383.3109 
L 332.150052 373.467343 
L 332.299347 378.521452 
L 332.448615 370.509692 
L 332.747072 378.207797 
L 332.89626 383.310897 
L 333.194557 376.768929 
L 333.343666 374.957726 
L 333.492748 383.310895 
L 333.790833 367.061498 
L 333.939836 368.932987 
L 334.088812 368.977057 
L 334.386685 381.232314 
L 334.535581 383.310892 
L 334.833295 376.974939 
L 335.130903 374.450734 
L 335.279667 375.630518 
L 335.428405 383.310889 
L 335.577117 375.009944 
L 335.725802 383.310889 
L 335.874461 371.365088 
L 336.023093 373.346577 
L 336.171698 383.224862 
L 336.320278 383.310887 
L 336.468831 382.753174 
L 336.617357 376.642451 
L 336.765858 363.593901 
L 336.914332 365.801647 
L 337.2112 383.310883 
L 337.359595 370.18347 
L 337.507963 371.766496 
L 337.656306 370.131596 
L 337.804621 381.970783 
L 337.952911 383.310879 
L 338.101174 382.956945 
L 338.545805 353.542703 
L 339.138279 383.310871 
L 339.434359 383.310869 
L 339.730333 369.186841 
L 339.878281 365.019463 
L 340.026203 379.51714 
L 340.174098 381.536169 
L 340.321967 377.38817 
L 340.617627 383.310862 
L 340.913182 383.31086 
L 341.060921 376.41753 
L 341.208633 378.285293 
L 341.356319 383.120484 
L 341.503978 383.310857 
L 341.651612 379.868043 
L 341.946801 367.521634 
L 342.094356 376.317364 
L 342.241885 375.949728 
L 342.389388 382.925859 
L 342.536865 380.3061 
L 342.684316 371.385502 
L 343.126511 383.310845 
L 343.273858 383.310844 
L 343.568472 379.901099 
L 343.715741 373.344983 
L 343.862983 379.984501 
L 344.010199 381.569157 
L 344.157389 378.218849 
L 344.304553 378.222088 
L 344.451691 383.310834 
L 344.74589 373.384617 
L 344.89295 378.959054 
L 345.039984 367.395373 
L 345.186992 373.782303 
L 345.333974 371.818174 
L 345.62786 383.310825 
L 345.774765 375.523474 
L 345.921643 360.788854 
L 346.215322 369.250757 
L 346.508897 378.283911 
L 346.655645 376.032493 
L 346.802368 380.807305 
L 346.949065 374.274096 
L 347.095736 382.467204 
L 347.242381 383.310814 
L 347.389 383.038547 
L 347.682161 373.949429 
L 347.828702 383.310809 
L 347.975218 376.414463 
L 348.121708 383.238411 
L 348.268172 375.844179 
L 348.41461 377.193602 
L 348.561023 368.914691 
L 348.707409 383.310801 
L 348.85377 379.653482 
L 349.000105 380.937833 
L 349.146414 383.310797 
L 349.292697 379.932339 
L 349.438955 383.310795 
L 349.731393 367.184682 
L 349.877573 367.042559 
L 350.169856 383.310789 
L 350.315959 383.310788 
L 350.462037 381.337339 
L 350.608088 382.943446 
L 350.754114 381.541115 
L 350.900114 381.308566 
L 351.046088 373.782116 
L 351.192037 376.177109 
L 351.33796 371.479829 
L 351.483857 381.711711 
L 351.629729 380.336469 
L 351.775575 383.310775 
L 351.921395 380.361327 
L 352.06719 383.310772 
L 352.212959 374.708642 
L 352.358702 378.981674 
L 352.650112 380.028724 
L 352.795778 379.116406 
L 352.941419 383.310765 
L 353.232624 379.976102 
L 353.523726 372.229572 
L 353.669239 377.415273 
L 353.814726 377.994431 
L 354.105624 382.891743 
L 354.251034 379.534395 
L 354.396419 380.78512 
L 354.541778 383.31075 
L 354.83242 376.396528 
L 354.977703 382.394632 
L 355.268192 378.256464 
L 355.413398 383.31074 
L 355.558579 383.310739 
L 355.848864 369.637255 
L 355.993969 366.094034 
L 356.139047 383.310732 
L 356.429129 368.937251 
L 356.719108 380.097559 
L 356.864059 380.547738 
L 357.008986 378.977158 
L 357.298761 366.326112 
L 357.443611 383.088281 
L 357.588436 383.310718 
L 358.022757 368.751322 
L 358.16748 371.444687 
L 358.312177 383.310709 
L 358.456849 383.310708 
L 358.746117 373.820276 
L 358.890713 372.982792 
L 359.035284 369.405904 
L 359.32435 383.310699 
L 359.468844 380.586481 
L 359.613314 374.797551 
L 359.757758 376.448538 
L 360.04657 383.310691 
L 360.190939 383.31069 
L 360.623892 368.103521 
L 361.056618 381.798252 
L 361.200809 369.922077 
L 361.344975 371.386808 
L 361.489116 370.120076 
L 361.777322 377.506465 
L 361.921388 373.504791 
L 362.209443 382.965003 
L 362.353433 383.310668 
L 362.497397 381.197788 
L 362.785251 372.998708 
L 362.92914 363.549887 
L 363.073004 367.365401 
L 363.216843 364.661348 
L 363.504445 382.111099 
L 363.648208 383.310653 
L 363.791946 377.99997 
L 364.079347 358.830244 
L 364.22301 382.073219 
L 364.366648 383.310645 
L 364.510261 378.559349 
L 364.797411 353.768796 
L 365.084461 378.765694 
L 365.227948 382.988878 
L 365.65826 356.675968 
L 365.94501 343.127878 
L 366.088347 362.596604 
L 366.231659 363.595325 
L 366.804658 283.969742 
L 367.520344 33.973515 
L 367.806444 56.422099 
L 368.235407 193.688977 
L 368.807009 383.310589 
L 371.089439 383.310565 
L 371.23188 383.192586 
L 371.516688 364.304961 
L 371.659054 369.738716 
L 371.801396 379.681953 
L 372.228273 351.186961 
L 372.370516 354.267683 
L 372.512735 371.017248 
L 372.654928 370.970997 
L 372.797097 381.556575 
L 373.08136 351.271158 
L 373.223455 348.547707 
L 373.50757 352.408344 
L 373.933558 364.998964 
L 374.075505 346.707489 
L 374.359324 359.961417 
L 374.501197 374.408557 
L 374.643045 376.07403 
L 374.784869 379.762203 
L 374.926668 374.669884 
L 375.068442 377.938458 
L 375.210191 369.243646 
L 375.351917 383.310527 
L 376.060173 383.310522 
L 376.201751 379.821233 
L 376.343304 383.31052 
L 377.192107 383.310514 
L 377.333489 382.629459 
L 377.474846 383.310513 
L 377.757486 380.684439 
L 377.898769 383.310511 
L 378.181263 383.31051 
L 378.322473 375.793416 
L 378.463658 383.310509 
L 378.60482 379.899873 
L 378.745956 383.310508 
L 379.028156 359.795087 
L 379.310259 383.310506 
L 379.451273 383.235428 
L 379.733229 383.310504 
L 380.015088 365.149485 
L 380.15598 383.310503 
L 380.296849 383.310503 
L 380.719307 363.421382 
L 380.860078 383.310502 
L 381.141547 383.310501 
L 381.282245 374.947843 
L 381.422918 375.335481 
L 381.563567 379.715416 
L 381.704192 377.030413 
L 381.844793 383.3105 
L 382.125921 380.19213 
L 382.266449 366.680565 
L 382.406952 377.130903 
L 382.547431 377.010914 
L 382.687886 383.310499 
L 382.968723 379.375783 
L 383.109105 380.234302 
L 383.389797 372.098435 
L 383.670391 380.719563 
L 383.810652 373.657634 
L 383.950889 383.310498 
L 384.23129 383.310498 
L 384.371454 378.969447 
L 384.511594 383.310498 
L 384.65171 375.632235 
L 384.791802 378.924477 
L 384.931869 375.173325 
L 385.071912 377.9401 
L 385.211932 373.29073 
L 385.351927 383.310499 
L 385.491898 381.090367 
L 385.631844 383.310499 
L 385.771767 380.800788 
L 386.05154 382.800714 
L 386.331216 371.688023 
L 386.610796 383.310498 
L 386.75055 383.310498 
L 386.89028 374.204755 
L 387.029986 379.092787 
L 387.169668 367.068341 
L 387.309325 368.838053 
L 387.448959 378.745501 
L 387.588568 379.837354 
L 387.728154 383.310496 
L 387.867715 381.534852 
L 388.007253 381.883867 
L 388.146766 378.973022 
L 388.286256 383.310495 
L 388.425721 380.039291 
L 388.565162 383.310495 
L 388.70458 371.525654 
L 388.843973 369.752779 
L 389.122688 363.115129 
L 389.262009 368.770082 
L 389.401307 383.310494 
L 389.67983 383.310494 
L 389.958257 375.085109 
L 390.097435 373.923177 
L 390.236589 378.081037 
L 390.514825 372.299384 
L 390.653907 374.891184 
L 390.792965 381.214934 
L 390.931999 375.381443 
L 391.07101 374.220355 
L 391.348959 381.52792 
L 391.487898 380.269047 
L 391.626812 383.310494 
L 391.765703 383.310494 
L 391.904571 382.098539 
L 392.043414 383.310494 
L 392.182233 373.680122 
L 392.321029 383.310495 
L 392.459801 383.310495 
L 392.598549 380.693531 
L 392.875973 368.962531 
L 393.01465 369.228009 
L 393.153302 382.162109 
L 393.291931 383.310496 
L 393.569118 371.600723 
L 393.707676 371.835274 
L 393.846209 381.965367 
L 393.984719 383.310497 
L 394.123206 376.895226 
L 394.261668 381.583114 
L 394.400107 369.365355 
L 394.538522 382.470297 
L 394.676914 383.249275 
L 394.815281 383.310499 
L 394.953625 374.076059 
L 395.091945 374.540452 
L 395.230242 362.082463 
L 395.368514 362.717516 
L 395.644989 383.310501 
L 395.783191 383.310501 
L 396.059523 376.84049 
L 396.197654 381.360741 
L 396.335761 378.483241 
L 396.473844 380.612146 
L 396.611904 372.407918 
L 396.74994 372.195086 
L 396.887952 373.337548 
L 397.025941 376.378461 
L 397.163906 383.310505 
L 397.301848 378.333369 
L 397.439766 383.273135 
L 397.57766 378.252201 
L 397.715531 383.310507 
L 397.853378 380.178733 
L 397.991202 382.943168 
L 398.129002 369.062142 
L 398.266778 371.547245 
L 398.404531 365.519626 
L 398.54226 383.310508 
L 398.817648 383.310509 
L 398.955307 376.518732 
L 399.092942 378.137803 
L 399.230554 377.126 
L 399.368142 380.724937 
L 399.505706 376.839879 
L 399.643247 378.847179 
L 399.780765 369.867856 
L 400.055729 383.310511 
L 400.193176 383.310512 
L 400.468 363.862309 
L 400.605376 362.904916 
L 400.880059 382.056659 
L 401.017365 383.310514 
L 401.291907 374.796808 
L 401.429143 382.018902 
L 401.566356 383.310515 
L 401.703545 383.310516 
L 401.84071 376.663533 
L 401.977853 381.154122 
L 402.114971 376.589183 
L 402.252067 379.026498 
L 402.389139 377.057183 
L 402.526187 383.310519 
L 402.663213 376.691805 
L 402.800214 377.933753 
L 402.937193 373.510964 
L 403.21108 383.310521 
L 403.347988 382.731358 
L 403.484873 380.106351 
L 403.621735 379.917874 
L 403.758573 372.227858 
L 403.895388 371.249168 
L 404.03218 362.325752 
L 404.305694 382.477974 
L 404.442415 383.310522 
L 404.715789 371.924284 
L 404.852441 373.829933 
L 405.262257 383.310522 
L 405.671864 375.860063 
L 405.808353 381.722513 
L 405.944819 373.727525 
L 406.081261 377.093 
L 406.217681 372.747499 
L 406.354077 372.799301 
L 406.49045 375.4053 
L 406.626799 372.297656 
L 406.763126 383.310524 
L 406.899429 380.586308 
L 407.035709 383.310524 
L 407.3082 372.963425 
L 407.444411 371.333306 
L 407.580598 377.617702 
L 407.716763 367.71024 
L 407.852904 376.238918 
L 407.989022 368.309727 
L 408.125116 383.310526 
L 408.261188 383.310526 
L 408.397237 379.427978 
L 408.533262 370.701207 
L 408.669264 373.279583 
L 408.805244 371.27019 
L 408.9412 377.660714 
L 409.213042 374.594744 
L 409.348929 360.463478 
L 409.620634 365.287064 
L 409.756451 372.902139 
L 409.892246 361.022761 
L 410.028017 359.576163 
L 410.163765 368.752546 
L 410.435193 351.757676 
L 410.706528 370.07101 
L 410.842162 369.747334 
L 410.977772 383.310533 
L 411.384464 360.059748 
L 411.519982 376.678578 
L 411.655477 378.12649 
L 411.790949 376.827392 
L 411.926399 383.310535 
L 412.197228 383.310536 
L 412.332608 380.597046 
L 412.467966 383.310537 
L 412.6033 381.127947 
L 412.738611 382.482011 
L 412.8739 380.823172 
L 413.009165 371.722785 
L 413.144408 381.642759 
L 413.279628 377.958634 
L 413.414824 362.892924 
L 413.549998 362.599754 
L 413.685149 358.091902 
L 413.820277 360.501868 
L 413.955383 349.30344 
L 414.090465 348.769533 
L 414.630565 383.310545 
L 415.0354 383.310547 
L 415.1703 378.556575 
L 415.305176 382.406946 
L 415.44003 372.834681 
L 415.709669 383.31055 
L 415.979217 369.740184 
L 416.383368 383.310554 
L 416.518039 366.105804 
L 416.652687 367.948897 
L 416.921916 383.224755 
L 417.056496 369.70364 
L 417.191054 375.232004 
L 417.325589 361.442128 
L 417.460101 365.387536 
L 417.59459 356.983409 
L 417.729057 366.967612 
L 417.997921 349.322649 
L 418.13232 351.912763 
L 418.401048 380.511105 
L 418.535379 379.0976 
L 418.669686 382.136426 
L 418.803971 381.010222 
L 418.938233 383.310567 
L 419.072473 383.310568 
L 419.20669 381.540899 
L 419.340884 382.616109 
L 419.475056 380.656516 
L 419.609205 383.310571 
L 419.743331 378.701393 
L 419.877435 378.778704 
L 420.011516 373.709652 
L 420.145574 375.538687 
L 420.413623 371.211337 
L 420.547613 354.860376 
L 420.681581 367.968671 
L 420.815527 356.797304 
L 420.949449 375.474238 
L 421.217227 364.821036 
L 421.351082 351.248279 
L 421.618724 366.701173 
L 421.752512 366.381574 
L 421.886276 368.348445 
L 422.153738 383.310587 
L 422.42111 383.310589 
L 422.688392 359.216279 
L 422.955583 317.430755 
L 423.356202 348.85112 
L 423.623168 383.310598 
L 423.890045 383.3106 
L 424.02345 377.74419 
L 424.156832 377.500186 
L 424.290192 358.258195 
L 424.556844 353.970135 
L 424.690137 366.647495 
L 424.823407 363.596926 
L 424.956654 363.962635 
L 425.089879 359.75885 
L 425.356263 331.845933 
L 425.622556 340.659842 
L 425.755669 352.53395 
L 425.88876 382.764744 
L 426.021829 383.310616 
L 426.553879 383.310619 
L 426.686835 382.677829 
L 426.952682 372.274768 
L 427.218438 357.15933 
L 427.351283 373.572778 
L 427.484106 373.908614 
L 427.616906 366.420128 
L 427.88244 331.565213 
L 428.015174 342.210474 
L 428.280574 383.310622 
L 428.41324 381.755458 
L 428.678507 383.310622 
L 428.811107 377.576905 
L 428.943684 357.389243 
L 429.07624 360.238157 
L 429.341284 381.55028 
L 429.473772 376.800327 
L 429.606239 383.310622 
L 429.738683 381.122668 
L 429.871105 383.310622 
L 430.268237 331.144961 
L 430.400571 303.303172 
L 430.532882 306.602492 
L 430.929681 356.66373 
L 430.929681 356.66373 
" clip-path="url(#p68e4509cb4)" style="fill: none; stroke: #5088c5; stroke-linecap: round"/>
   </g>
   <g id="line2d_14">
    <defs>
     <path id="mee118eb27d" d="M 0 2 
C 0.530406 2 1.03916 1.789267 1.414214 1.414214 
C 1.789267 1.03916 2 0.530406 2 0 
C 2 -0.530406 1.789267 -1.03916 1.414214 -1.414214 
C 1.03916 -1.789267 0.530406 -2 0 -2 
C -0.530406 -2 -1.03916 -1.789267 -1.414214 -1.414214 
C -1.789267 -1.03916 -2 -0.530406 -2 0 
C -2 0.530406 -1.789267 1.03916 -1.414214 1.414214 
C -1.03916 1.789267 -0.530406 2 0 2 
z
"/>
    </defs>
    <g clip-path="url(#p68e4509cb4)">
     <use xlink:href="#mee118eb27d" x="158.276872" y="307.180129" style="fill: #f28360"/>
     <use xlink:href="#mee118eb27d" x="205.336135" y="341.834265" style="fill: #f28360"/>
     <use xlink:href="#mee118eb27d" x="296.090444" y="138.298264" style="fill: #f28360"/>
     <use xlink:href="#mee118eb27d" x="367.600464" y="47.108938" style="fill: #f28360"/>
     <use xlink:href="#mee118eb27d" x="425.219002" y="343.593731" style="fill: #f28360"/>
    </g>
   </g>
   <g id="patch_3">
    <path d="M 91.128438 397.284897 
L 91.128438 20 
" style="fill: none; stroke: #000000; stroke-width: 0.75; stroke-linejoin: miter; stroke-linecap: square"/>
   </g>
   <g id="patch_4">
    <path d="M 91.128438 397.284897 
L 443.99896 397.284897 
" style="fill: none; stroke: #000000; stroke-width: 0.75; stroke-linejoin: miter; stroke-linecap: square"/>
   </g>
  </g>
 </g>
 <defs>
  <clipPath id="p68e4509cb4">
   <rect x="91.128438" y="20" width="352.870523" height="377.284897"/>
  </clipPath>
 </defs>
</svg>
