<?xml version="1.0" encoding="utf-8" standalone="no"?>
<!DOCTYPE svg PUBLIC "-//W3C//DTD SVG 1.1//EN"
  "http://www.w3.org/Graphics/SVG/1.1/DTD/svg11.dtd">
<svg xmlns:xlink="http://www.w3.org/1999/xlink" width="463.998843pt" height="463.99896pt" viewBox="0 0 463.998843 463.99896" xmlns="http://www.w3.org/2000/svg" version="1.1">
 <metadata>
  <rdf:RDF xmlns:dc="http://purl.org/dc/elements/1.1/" xmlns:cc="http://creativecommons.org/ns#" xmlns:rdf="http://www.w3.org/1999/02/22-rdf-syntax-ns#">
   <cc:Work>
    <dc:type rdf:resource="http://purl.org/dc/dcmitype/StillImage"/>
    <dc:date>2025-02-07T20:36:08.306524</dc:date>
    <dc:format>image/svg+xml</dc:format>
    <dc:creator>
     <cc:Agent>
      <dc:title>Matplotlib v3.8.4, https://matplotlib.org/</dc:title>
     </cc:Agent>
    </dc:creator>
   </cc:Work>
  </rdf:RDF>
 </metadata>
 <defs>
  <style type="text/css">*{stroke-linejoin: round; stroke-linecap: butt}</style>
 </defs>
 <g id="figure_1">
  <g id="patch_1">
   <path d="M 0 463.99896 
L 463.998843 463.99896 
L 463.998843 -0 
L 0 -0 
L 0 463.99896 
z
" style="fill: none"/>
  </g>
  <g id="axes_1">
   <g id="patch_2">
    <path d="M 81.762344 397.163022 
L 430.900258 397.163022 
L 430.900258 20 
L 81.762344 20 
L 81.762344 397.163022 
z
" style="fill: none"/>
   </g>
   <g id="matplotlib.axis_1">
    <g id="xtick_1">
     <g id="line2d_1">
      <defs>
       <path id="m7b52e2f843" d="M 0 0 
L 0 5 
" style="stroke: #000000; stroke-width: 0.75"/>
      </defs>
      <g>
       <use xlink:href="#m7b52e2f843" x="85.140892" y="397.163022" style="stroke: #000000; stroke-width: 0.75"/>
      </g>
     </g>
     <g id="text_1">
      <text style="font: 14.5px &quot;Suisse Int&apos;l Mono&quot;; text-anchor: middle" x="85.140892" y="417.675522" transform="rotate(-0 85.140892 417.675522)">540</text>
     </g>
    </g>
    <g id="xtick_2">
     <g id="line2d_2">
      <g>
       <use xlink:href="#m7b52e2f843" x="142.609027" y="397.163022" style="stroke: #000000; stroke-width: 0.75"/>
      </g>
     </g>
     <g id="text_2">
      <text style="font: 14.5px &quot;Suisse Int&apos;l Mono&quot;; text-anchor: middle" x="142.609027" y="417.675522" transform="rotate(-0 142.609027 417.675522)">560</text>
     </g>
    </g>
    <g id="xtick_3">
     <g id="line2d_3">
      <g>
       <use xlink:href="#m7b52e2f843" x="200.077162" y="397.163022" style="stroke: #000000; stroke-width: 0.75"/>
      </g>
     </g>
     <g id="text_3">
      <text style="font: 14.5px &quot;Suisse Int&apos;l Mono&quot;; text-anchor: middle" x="200.077162" y="417.675522" transform="rotate(-0 200.077162 417.675522)">580</text>
     </g>
    </g>
    <g id="xtick_4">
     <g id="line2d_4">
      <g>
       <use xlink:href="#m7b52e2f843" x="257.545297" y="397.163022" style="stroke: #000000; stroke-width: 0.75"/>
      </g>
     </g>
     <g id="text_4">
      <text style="font: 14.5px &quot;Suisse Int&apos;l Mono&quot;; text-anchor: middle" x="257.545297" y="417.675522" transform="rotate(-0 257.545297 417.675522)">600</text>
     </g>
    </g>
    <g id="xtick_5">
     <g id="line2d_5">
      <g>
       <use xlink:href="#m7b52e2f843" x="315.013432" y="397.163022" style="stroke: #000000; stroke-width: 0.75"/>
      </g>
     </g>
     <g id="text_5">
      <text style="font: 14.5px &quot;Suisse Int&apos;l Mono&quot;; text-anchor: middle" x="315.013432" y="417.675522" transform="rotate(-0 315.013432 417.675522)">620</text>
     </g>
    </g>
    <g id="xtick_6">
     <g id="line2d_6">
      <g>
       <use xlink:href="#m7b52e2f843" x="372.481567" y="397.163022" style="stroke: #000000; stroke-width: 0.75"/>
      </g>
     </g>
     <g id="text_6">
      <text style="font: 14.5px &quot;Suisse Int&apos;l Mono&quot;; text-anchor: middle" x="372.481567" y="417.675522" transform="rotate(-0 372.481567 417.675522)">640</text>
     </g>
    </g>
    <g id="xtick_7">
     <g id="line2d_7">
      <g>
       <use xlink:href="#m7b52e2f843" x="429.949702" y="397.163022" style="stroke: #000000; stroke-width: 0.75"/>
      </g>
     </g>
     <g id="text_7">
      <text style="font: 14.5px &quot;Suisse Int&apos;l Mono&quot;; text-anchor: middle" x="429.949702" y="417.675522" transform="rotate(-0 429.949702 417.675522)">660</text>
     </g>
    </g>
    <g id="text_8">
     <text style="font: 500 15px &quot;Suisse Int&apos;l&quot;, sans-serif; text-anchor: middle" x="256.331301" y="441.088022" transform="rotate(-0 256.331301 441.088022)">Wavelength (nm)</text>
    </g>
   </g>
   <g id="matplotlib.axis_2">
    <g id="ytick_1">
     <g id="line2d_8">
      <defs>
       <path id="m895d6857dd" d="M 0 0 
L -5 0 
" style="stroke: #000000; stroke-width: 0.75"/>
      </defs>
      <g>
       <use xlink:href="#m895d6857dd" x="81.762344" y="383.067075" style="stroke: #000000; stroke-width: 0.75"/>
      </g>
     </g>
     <g id="text_9">
      <text style="font: 14.5px &quot;Suisse Int&apos;l Mono&quot;; text-anchor: end" x="71.762344" y="388.323325" transform="rotate(-0 71.762344 388.323325)">0</text>
     </g>
    </g>
    <g id="ytick_2">
     <g id="line2d_9">
      <g>
       <use xlink:href="#m895d6857dd" x="81.762344" y="324.977683" style="stroke: #000000; stroke-width: 0.75"/>
      </g>
     </g>
     <g id="text_10">
      <text style="font: 14.5px &quot;Suisse Int&apos;l Mono&quot;; text-anchor: end" x="71.762344" y="330.233933" transform="rotate(-0 71.762344 330.233933)">20</text>
     </g>
    </g>
    <g id="ytick_3">
     <g id="line2d_10">
      <g>
       <use xlink:href="#m895d6857dd" x="81.762344" y="266.888291" style="stroke: #000000; stroke-width: 0.75"/>
      </g>
     </g>
     <g id="text_11">
      <text style="font: 14.5px &quot;Suisse Int&apos;l Mono&quot;; text-anchor: end" x="71.762344" y="272.144541" transform="rotate(-0 71.762344 272.144541)">40</text>
     </g>
    </g>
    <g id="ytick_4">
     <g id="line2d_11">
      <g>
       <use xlink:href="#m895d6857dd" x="81.762344" y="208.798899" style="stroke: #000000; stroke-width: 0.75"/>
      </g>
     </g>
     <g id="text_12">
      <text style="font: 14.5px &quot;Suisse Int&apos;l Mono&quot;; text-anchor: end" x="71.762344" y="214.055149" transform="rotate(-0 71.762344 214.055149)">60</text>
     </g>
    </g>
    <g id="ytick_5">
     <g id="line2d_12">
      <g>
       <use xlink:href="#m895d6857dd" x="81.762344" y="150.709506" style="stroke: #000000; stroke-width: 0.75"/>
      </g>
     </g>
     <g id="text_13">
      <text style="font: 14.5px &quot;Suisse Int&apos;l Mono&quot;; text-anchor: end" x="71.762344" y="155.965756" transform="rotate(-0 71.762344 155.965756)">80</text>
     </g>
    </g>
    <g id="ytick_6">
     <g id="line2d_13">
      <g>
       <use xlink:href="#m895d6857dd" x="81.762344" y="92.620114" style="stroke: #000000; stroke-width: 0.75"/>
      </g>
     </g>
     <g id="text_14">
      <text style="font: 14.5px &quot;Suisse Int&apos;l Mono&quot;; text-anchor: end" x="71.762344" y="97.876364" transform="rotate(-0 71.762344 97.876364)">100</text>
     </g>
    </g>
    <g id="ytick_7">
     <g id="line2d_14">
      <g>
       <use xlink:href="#m895d6857dd" x="81.762344" y="34.530722" style="stroke: #000000; stroke-width: 0.75"/>
      </g>
     </g>
     <g id="text_15">
      <text style="font: 14.5px &quot;Suisse Int&apos;l Mono&quot;; text-anchor: end" x="71.762344" y="39.786972" transform="rotate(-0 71.762344 39.786972)">120</text>
     </g>
    </g>
    <g id="text_16">
     <text style="font: 500 15px &quot;Suisse Int&apos;l&quot;, sans-serif; text-anchor: middle" x="30.875" y="208.581511" transform="rotate(-90 30.875 208.581511)">Intensity (au)</text>
    </g>
   </g>
   <g id="line2d_15">
    <path d="M 94.693378 383.18281 
L 130.85858 383.089996 
L 131.490286 382.926777 
L 132.595773 383.029155 
L 133.227479 383.166022 
L 156.916477 383.07088 
L 157.864036 382.777399 
L 158.337816 382.283486 
L 159.12745 382.344254 
L 159.443303 382.443747 
L 160.075009 382.858475 
L 160.864643 382.93208 
L 161.338423 383.009038 
L 161.970129 383.126432 
L 167.181709 383.08801 
L 168.287195 382.68812 
L 168.918902 382.742087 
L 169.866462 383.110711 
L 172.077435 383.11881 
L 175.709748 383.021365 
L 176.657307 382.653307 
L 177.446941 382.735782 
L 178.236574 383.077538 
L 179.657914 383.098415 
L 183.921933 382.992193 
L 184.07986 382.846398 
L 184.869493 381.259357 
L 185.185346 381.186968 
L 185.5012 381.221899 
L 185.659126 381.30759 
L 185.817053 381.525261 
L 186.290833 382.64595 
L 186.606686 382.965955 
L 187.080466 383.034267 
L 187.870099 382.909509 
L 188.501806 382.580351 
L 188.659733 382.120496 
L 188.975586 378.43204 
L 189.291439 375.322358 
L 189.607292 374.158032 
L 189.923146 374.121802 
L 190.081072 374.269387 
L 190.238999 374.593854 
L 190.396926 375.316524 
L 191.028632 381.839852 
L 191.344486 382.798026 
L 191.660339 382.958602 
L 193.239605 383.012969 
L 198.293258 382.931453 
L 200.030451 382.840969 
L 200.346304 382.457005 
L 200.820084 381.677572 
L 201.135938 381.457507 
L 201.609718 381.4486 
L 201.925571 381.712536 
L 202.399351 382.398408 
L 202.873131 382.616195 
L 204.452397 382.546783 
L 204.610324 382.378386 
L 204.768251 381.784222 
L 205.242031 378.873198 
L 205.557884 377.863611 
L 205.873737 377.591644 
L 206.031664 377.591676 
L 206.18959 377.703995 
L 206.347517 378.04812 
L 207.295077 382.16784 
L 207.61093 382.288847 
L 208.242637 382.184736 
L 209.663977 381.838641 
L 210.611537 381.458059 
L 211.559096 380.877738 
L 212.190803 380.204553 
L 212.82251 379.086056 
L 213.138363 378.05698 
L 213.454216 376.444047 
L 213.612143 374.739447 
L 213.770069 363.886057 
L 213.927996 304.347948 
L 214.243849 81.433746 
L 214.401776 40.294871 
L 214.559703 34.180995 
L 214.717629 33.969001 
L 215.823116 33.969228 
L 215.981043 36.740124 
L 216.138969 69.403822 
L 216.612749 326.803825 
L 216.928602 369.856262 
L 217.244456 376.1811 
L 217.560309 378.232098 
L 218.034089 379.726226 
L 218.507869 380.501003 
L 219.297502 381.237826 
L 219.613355 381.316137 
L 219.771282 381.290785 
L 220.876769 380.235063 
L 221.350548 380.328452 
L 222.140182 381.084299 
L 222.298108 379.104993 
L 222.613962 355.312137 
L 223.087742 321.666568 
L 223.403595 310.347334 
L 223.561522 308.458299 
L 223.877375 308.565539 
L 224.035301 311.730862 
L 224.982861 375.979668 
L 225.298715 381.429592 
L 225.614568 382.226818 
L 226.088348 382.488724 
L 227.667614 382.725414 
L 228.141394 382.627224 
L 228.299321 382.362311 
L 229.088954 379.92054 
L 229.720661 378.670093 
L 230.036514 378.669954 
L 231.299927 381.578111 
L 231.615781 381.997842 
L 232.08956 382.140346 
L 233.98468 382.241927 
L 235.248093 382.689591 
L 235.8798 382.851122 
L 237.143213 382.831447 
L 239.354186 382.418971 
L 239.827966 382.226931 
L 240.143819 381.819756 
L 240.301746 379.974228 
L 240.459673 366.785207 
L 241.091379 283.210667 
L 241.565159 253.373141 
L 241.723086 250.00573 
L 241.881013 250.00576 
L 242.038939 251.410972 
L 242.354793 295.442211 
L 242.828572 351.622296 
L 243.302352 377.889335 
L 243.618206 381.742378 
L 243.934059 382.326614 
L 244.407839 382.562722 
L 245.197472 382.698367 
L 246.145032 382.525616 
L 246.460885 382.232035 
L 246.934665 381.536302 
L 247.408445 381.263372 
L 247.882225 381.250306 
L 248.198078 381.617172 
L 248.671858 382.279917 
L 248.829785 382.279947 
L 248.987712 382.09595 
L 249.145638 380.868 
L 250.251125 350.679764 
L 250.566978 348.377452 
L 250.724905 348.377482 
L 250.882831 349.949701 
L 251.672465 375.413047 
L 252.146245 381.680315 
L 252.462098 382.615644 
L 252.777951 382.675798 
L 254.199291 381.39517 
L 254.515144 381.399006 
L 255.936484 382.678465 
L 256.410264 382.893109 
L 257.199897 382.824914 
L 258.147457 382.771441 
L 260.200504 383.032892 
L 263.516963 382.942672 
L 264.464523 382.774514 
L 264.62245 382.6371 
L 264.780376 381.196886 
L 265.885863 348.593406 
L 266.201716 345.154856 
L 266.359643 345.154881 
L 266.51757 346.271675 
L 267.307203 373.754476 
L 267.780983 380.809799 
L 268.096836 382.454623 
L 268.412689 382.788543 
L 269.044396 382.885885 
L 274.255975 382.828598 
L 275.203535 382.648224 
L 276.940728 382.228931 
L 277.256582 381.889842 
L 277.414508 380.584156 
L 277.730361 349.658649 
L 278.362068 285.196633 
L 278.835848 260.016098 
L 278.993775 255.752935 
L 279.151701 255.752954 
L 279.309628 267.381887 
L 279.941335 343.109615 
L 280.415114 369.852574 
L 280.730968 378.986267 
L 281.046821 381.495765 
L 281.362674 381.956073 
L 281.836454 382.072916 
L 282.626088 382.020669 
L 283.099867 381.81015 
L 283.415721 381.41939 
L 283.573647 380.823236 
L 283.731574 374.140535 
L 284.837061 194.067322 
L 285.152914 170.446469 
L 285.310841 168.852224 
L 285.468767 168.852242 
L 286.416327 337.824228 
L 286.890107 371.497832 
L 287.20596 379.807004 
L 287.521814 381.547486 
L 287.837667 381.981798 
L 288.311447 382.241106 
L 289.416933 382.526046 
L 290.206567 382.552422 
L 291.94376 382.407864 
L 292.733393 382.53369 
L 292.89132 382.457872 
L 293.049246 382.074471 
L 294.154733 377.173684 
L 294.470586 376.423525 
L 294.628513 376.423543 
L 294.786439 376.659346 
L 295.576073 380.439227 
L 296.049853 381.32285 
L 296.365706 381.448737 
L 296.523632 381.414018 
L 296.839486 380.935892 
L 296.997412 380.269538 
L 297.155339 372.631178 
L 297.629119 237.522277 
L 298.102899 131.688107 
L 298.418752 94.42496 
L 298.734606 76.394049 
L 298.892532 76.394067 
L 299.050459 97.617045 
L 299.682165 281.48689 
L 300.155945 345.454402 
L 300.471799 368.933881 
L 300.787652 378.361738 
L 301.103505 380.54094 
L 301.419359 381.183649 
L 301.893138 381.609673 
L 302.366918 381.822102 
L 302.682772 381.826379 
L 302.840698 381.702057 
L 302.998625 380.71685 
L 303.156552 373.223511 
L 303.946185 315.332876 
L 304.419965 294.984216 
L 304.577891 290.865987 
L 304.735818 290.866005 
L 304.893745 296.212571 
L 305.525451 350.436478 
L 305.999231 370.129998 
L 306.315085 377.720314 
L 306.630938 381.147276 
L 306.946791 381.945519 
L 307.262644 382.116658 
L 308.526058 382.32546 
L 310.105324 381.84838 
L 311.526664 382.671119 
L 314.685197 382.971412 
L 315.632757 382.785271 
L 316.738243 382.534577 
L 317.685803 382.483375 
L 318.159583 381.984927 
L 318.31751 381.671347 
L 318.475436 379.143021 
L 319.73885 325.486581 
L 320.054703 320.830747 
L 320.21263 320.830762 
L 320.528483 338.025543 
L 321.002263 362.503006 
L 321.476043 374.754686 
L 321.791896 379.506748 
L 322.107749 381.777348 
L 322.423603 382.43524 
L 322.897383 382.708945 
L 324.002869 382.916777 
L 326.213842 382.946882 
L 327.477255 382.801843 
L 328.898595 382.691807 
L 330.162008 382.688441 
L 330.951642 382.451173 
L 332.057128 381.917643 
L 332.372981 381.406421 
L 332.530908 378.268733 
L 332.846761 339.30306 
L 333.478468 247.110302 
L 333.952248 204.801798 
L 334.110174 195.775879 
L 334.268101 195.775891 
L 334.426028 202.296146 
L 335.215661 327.192171 
L 335.689441 359.716746 
L 336.005294 373.254502 
L 336.321148 379.490188 
L 336.637001 381.45186 
L 336.952854 382.037685 
L 337.584561 382.476131 
L 338.532121 382.705623 
L 339.637607 382.809042 
L 340.585167 382.764256 
L 342.164433 382.472622 
L 343.111993 382.513689 
L 343.26992 382.439663 
L 343.427847 382.160001 
L 343.585773 379.621649 
L 343.901627 364.098961 
L 344.533333 330.376363 
L 345.007113 315.608325 
L 345.16504 312.828756 
L 345.322966 312.828766 
L 345.480893 317.804422 
L 346.1126 358.466742 
L 346.58638 371.44365 
L 347.06016 379.438433 
L 347.376013 381.433154 
L 347.691866 382.029692 
L 348.481499 382.506797 
L 349.113206 382.604715 
L 350.060766 382.506424 
L 350.376619 382.330984 
L 351.008326 381.46421 
L 351.640032 380.377133 
L 351.797959 379.966654 
L 351.955886 378.781349 
L 352.113812 371.090787 
L 352.587592 307.237503 
L 353.061372 246.467893 
L 353.535152 212.856237 
L 353.693079 207.125146 
L 353.851005 207.125156 
L 354.008932 221.433453 
L 354.640639 322.063777 
L 355.114419 354.348146 
L 355.588198 374.54847 
L 355.904052 380.082374 
L 356.219905 381.73916 
L 356.535758 382.227245 
L 357.009538 382.464394 
L 357.641245 382.502915 
L 359.852218 382.587708 
L 362.536971 382.54604 
L 364.274164 382.143639 
L 365.063797 381.770054 
L 365.379651 381.527346 
L 365.695504 381.049231 
L 365.853431 380.031368 
L 366.011357 373.149411 
L 366.32721 320.925614 
L 367.116844 161.895492 
L 367.590624 114.599136 
L 367.74855 114.599146 
L 367.906477 117.868135 
L 368.854037 317.050617 
L 369.485743 364.144305 
L 369.801597 375.990202 
L 370.11745 379.457606 
L 370.433303 380.339566 
L 370.749157 380.452394 
L 371.06501 380.121971 
L 371.222937 379.750005 
L 371.380863 378.168937 
L 371.53879 367.029143 
L 371.854643 277.999035 
L 372.48635 70.117469 
L 372.802203 47.378394 
L 373.118056 39.745467 
L 373.275983 37.363811 
L 373.43391 37.36382 
L 373.591836 43.442884 
L 373.749763 78.075789 
L 374.223543 245.601848 
L 374.697323 317.953085 
L 375.171103 363.870743 
L 375.486956 376.217953 
L 375.802809 379.777427 
L 376.118663 381.018816 
L 376.592442 381.751641 
L 377.066222 382.06997 
L 377.855856 382.21155 
L 378.961342 382.332266 
L 381.014389 382.778425 
L 384.488775 382.838536 
L 385.594261 382.735347 
L 388.121088 383.07181 
L 392.70096 383.082068 
L 397.596687 382.936733 
L 399.175953 382.693906 
L 400.755219 382.102014 
L 401.071073 381.781537 
L 401.228999 381.493705 
L 401.386926 380.30967 
L 401.544853 373.790966 
L 401.860706 327.664505 
L 402.808266 125.089373 
L 403.124119 94.913969 
L 403.282046 93.885788 
L 403.439972 93.885789 
L 403.755826 164.850116 
L 404.229606 291.928797 
L 404.545459 329.721467 
L 405.019239 361.207663 
L 405.335092 374.252509 
L 405.650946 379.880531 
L 405.966799 381.502534 
L 406.282652 382.049477 
L 406.756432 382.363424 
L 407.388139 382.512398 
L 408.177772 382.510979 
L 408.809478 382.324487 
L 408.967405 382.039734 
L 409.125332 380.476695 
L 409.441185 368.649522 
L 410.546672 304.164494 
L 410.862525 298.837989 
L 411.020452 298.83799 
L 411.178378 305.62138 
L 411.968011 362.979722 
L 412.441791 374.285663 
L 412.915571 380.392285 
L 413.231425 382.008711 
L 413.547278 382.554288 
L 414.021058 382.828938 
L 415.126544 383.010615 
L 417.969224 383.122201 
L 417.969224 383.122201 
" clip-path="url(#p2c9cb25f69)" style="fill: none; stroke: #5088c5; stroke-linecap: round"/>
   </g>
   <g id="line2d_16">
    <defs>
     <path id="mf681f88bec" d="M 0 2 
C 0.530406 2 1.03916 1.789267 1.414214 1.414214 
C 1.789267 1.03916 2 0.530406 2 0 
C 2 -0.530406 1.789267 -1.03916 1.414214 -1.414214 
C 1.03916 -1.789267 0.530406 -2 0 -2 
C -0.530406 -2 -1.03916 -1.789267 -1.414214 -1.414214 
C -1.789267 -1.03916 -2 -0.530406 -2 0 
C -2 0.530406 -1.789267 1.03916 -1.414214 1.414214 
C -1.03916 1.789267 -0.530406 2 0 2 
z
"/>
    </defs>
    <g clip-path="url(#p2c9cb25f69)">
     <use xlink:href="#mf681f88bec" x="215.271463" y="33.969131" style="fill: #f28360"/>
     <use xlink:href="#mf681f88bec" x="223.609816" y="308.458299" style="fill: #f28360"/>
     <use xlink:href="#mf681f88bec" x="241.693778" y="250.00573" style="fill: #f28360"/>
     <use xlink:href="#mf681f88bec" x="278.893188" y="260.016098" style="fill: #f28360"/>
     <use xlink:href="#mf681f88bec" x="285.158839" y="170.446469" style="fill: #f28360"/>
     <use xlink:href="#mf681f88bec" x="298.611919" y="83.417038" style="fill: #f28360"/>
     <use xlink:href="#mf681f88bec" x="304.521973" y="290.865987" style="fill: #f28360"/>
     <use xlink:href="#mf681f88bec" x="319.93588" y="321.934721" style="fill: #f28360"/>
     <use xlink:href="#mf681f88bec" x="334.087549" y="195.775879" style="fill: #f28360"/>
     <use xlink:href="#mf681f88bec" x="345.097026" y="312.828756" style="fill: #f28360"/>
     <use xlink:href="#mf681f88bec" x="353.604064" y="212.856237" style="fill: #f28360"/>
     <use xlink:href="#mf681f88bec" x="367.583692" y="114.599136" style="fill: #f28360"/>
     <use xlink:href="#mf681f88bec" x="373.105539" y="39.745467" style="fill: #f28360"/>
     <use xlink:href="#mf681f88bec" x="403.152925" y="94.913969" style="fill: #f28360"/>
     <use xlink:href="#mf681f88bec" x="410.75726" y="300.071517" style="fill: #f28360"/>
    </g>
   </g>
   <g id="patch_3">
    <path d="M 81.762344 397.163022 
L 81.762344 20 
" style="fill: none; stroke: #000000; stroke-width: 0.75; stroke-linejoin: miter; stroke-linecap: square"/>
   </g>
   <g id="patch_4">
    <path d="M 81.762344 397.163022 
L 430.900258 397.163022 
" style="fill: none; stroke: #000000; stroke-width: 0.75; stroke-linejoin: miter; stroke-linecap: square"/>
   </g>
  </g>
 </g>
 <defs>
  <clipPath id="p2c9cb25f69">
   <rect x="81.762344" y="20" width="349.137914" height="377.163023"/>
  </clipPath>
 </defs>
</svg>
