<?xml version="1.0" encoding="utf-8" standalone="no"?>
<!DOCTYPE svg PUBLIC "-//W3C//DTD SVG 1.1//EN"
  "http://www.w3.org/Graphics/SVG/1.1/DTD/svg11.dtd">
<svg xmlns:xlink="http://www.w3.org/1999/xlink" width="453.971518pt" height="453.99888pt" viewBox="0 0 453.971518 453.99888" xmlns="http://www.w3.org/2000/svg" version="1.1">
 <metadata>
  <rdf:RDF xmlns:dc="http://purl.org/dc/elements/1.1/" xmlns:cc="http://creativecommons.org/ns#" xmlns:rdf="http://www.w3.org/1999/02/22-rdf-syntax-ns#">
   <cc:Work>
    <dc:type rdf:resource="http://purl.org/dc/dcmitype/StillImage"/>
    <dc:date>2025-02-10T11:28:19.767252</dc:date>
    <dc:format>image/svg+xml</dc:format>
    <dc:creator>
     <cc:Agent>
      <dc:title>Matplotlib v3.8.4, https://matplotlib.org/</dc:title>
     </cc:Agent>
    </dc:creator>
   </cc:Work>
  </rdf:RDF>
 </metadata>
 <defs>
  <style type="text/css">*{stroke-linejoin: round; stroke-linecap: butt}</style>
 </defs>
 <g id="figure_1">
  <g id="patch_1">
   <path d="M 0 453.99888 
L 453.971518 453.99888 
L 453.971518 0 
L 0 0 
L 0 453.99888 
z
" style="fill: none"/>
  </g>
  <g id="axes_1">
   <g id="patch_2">
    <path d="M 81.762344 384.59888 
L 428.036302 384.59888 
L 428.036302 20 
L 81.762344 20 
L 81.762344 384.59888 
z
" style="fill: none"/>
   </g>
   <g id="matplotlib.axis_1">
    <g id="xtick_1">
     <g id="line2d_1">
      <defs>
       <path id="m4d26c56307" d="M 0 0 
L 0 5 
" style="stroke: #000000; stroke-width: 0.75"/>
      </defs>
      <g>
       <use xlink:href="#m4d26c56307" x="94.451926" y="384.59888" style="stroke: #000000; stroke-width: 0.75"/>
      </g>
     </g>
     <g id="text_1">
      <text style="font: 14.5px &quot;Suisse Int&apos;l Mono&quot;; text-anchor: middle" x="94.451926" y="405.11138" transform="rotate(-0 94.451926 405.11138)">1000</text>
     </g>
    </g>
    <g id="xtick_2">
     <g id="line2d_2">
      <g>
       <use xlink:href="#m4d26c56307" x="158.609407" y="384.59888" style="stroke: #000000; stroke-width: 0.75"/>
      </g>
     </g>
     <g id="text_2">
      <text style="font: 14.5px &quot;Suisse Int&apos;l Mono&quot;; text-anchor: middle" x="158.609407" y="405.11138" transform="rotate(-0 158.609407 405.11138)">1500</text>
     </g>
    </g>
    <g id="xtick_3">
     <g id="line2d_3">
      <g>
       <use xlink:href="#m4d26c56307" x="222.766888" y="384.59888" style="stroke: #000000; stroke-width: 0.75"/>
      </g>
     </g>
     <g id="text_3">
      <text style="font: 14.5px &quot;Suisse Int&apos;l Mono&quot;; text-anchor: middle" x="222.766888" y="405.11138" transform="rotate(-0 222.766888 405.11138)">2000</text>
     </g>
    </g>
    <g id="xtick_4">
     <g id="line2d_4">
      <g>
       <use xlink:href="#m4d26c56307" x="286.924369" y="384.59888" style="stroke: #000000; stroke-width: 0.75"/>
      </g>
     </g>
     <g id="text_4">
      <text style="font: 14.5px &quot;Suisse Int&apos;l Mono&quot;; text-anchor: middle" x="286.924369" y="405.11138" transform="rotate(-0 286.924369 405.11138)">2500</text>
     </g>
    </g>
    <g id="xtick_5">
     <g id="line2d_5">
      <g>
       <use xlink:href="#m4d26c56307" x="351.08185" y="384.59888" style="stroke: #000000; stroke-width: 0.75"/>
      </g>
     </g>
     <g id="text_5">
      <text style="font: 14.5px &quot;Suisse Int&apos;l Mono&quot;; text-anchor: middle" x="351.08185" y="405.11138" transform="rotate(-0 351.08185 405.11138)">3000</text>
     </g>
    </g>
    <g id="xtick_6">
     <g id="line2d_6">
      <g>
       <use xlink:href="#m4d26c56307" x="415.239331" y="384.59888" style="stroke: #000000; stroke-width: 0.75"/>
      </g>
     </g>
     <g id="text_6">
      <text style="font: 14.5px &quot;Suisse Int&apos;l Mono&quot;; text-anchor: middle" x="415.239331" y="405.11138" transform="rotate(-0 415.239331 405.11138)">3500</text>
     </g>
    </g>
    <g id="text_7">
     <!-- Raman shift (cm$^{-1}$) -->
     <g transform="translate(188.449323 431.14888)">
      <text>
       <tspan style="font: 500 15px &quot;Suisse Int&apos;l&quot;" x="0 10.184982 18.719971 32.324951 40.85994 49.694931 53.144928 61.034912 69.869904 73.664886 78.509872 83.609863 87.05986 90.929855 99.389847 129.02681" y="-0.6015625">Raman shift (cm)</tspan>
       <tspan style="font: 10.5px 'DejaVu Sans'" x="113.138382 121.936234" y="-6.34375">−1</tspan>
      </text>
     </g>
    </g>
   </g>
   <g id="matplotlib.axis_2">
    <g id="ytick_1">
     <g id="line2d_7">
      <defs>
       <path id="m96bac3aaaa" d="M 0 0 
L -5 0 
" style="stroke: #000000; stroke-width: 0.75"/>
      </defs>
      <g>
       <use xlink:href="#m96bac3aaaa" x="81.762344" y="371.095218" style="stroke: #000000; stroke-width: 0.75"/>
      </g>
     </g>
     <g id="text_8">
      <text style="font: 14.5px &quot;Suisse Int&apos;l Mono&quot;; text-anchor: end" x="71.762344" y="376.351468" transform="rotate(-0 71.762344 376.351468)">0.0</text>
     </g>
    </g>
    <g id="ytick_2">
     <g id="line2d_8">
      <g>
       <use xlink:href="#m96bac3aaaa" x="81.762344" y="314.829959" style="stroke: #000000; stroke-width: 0.75"/>
      </g>
     </g>
     <g id="text_9">
      <text style="font: 14.5px &quot;Suisse Int&apos;l Mono&quot;; text-anchor: end" x="71.762344" y="320.086209" transform="rotate(-0 71.762344 320.086209)">0.5</text>
     </g>
    </g>
    <g id="ytick_3">
     <g id="line2d_9">
      <g>
       <use xlink:href="#m96bac3aaaa" x="81.762344" y="258.564699" style="stroke: #000000; stroke-width: 0.75"/>
      </g>
     </g>
     <g id="text_10">
      <text style="font: 14.5px &quot;Suisse Int&apos;l Mono&quot;; text-anchor: end" x="71.762344" y="263.820949" transform="rotate(-0 71.762344 263.820949)">1.0</text>
     </g>
    </g>
    <g id="ytick_4">
     <g id="line2d_10">
      <g>
       <use xlink:href="#m96bac3aaaa" x="81.762344" y="202.29944" style="stroke: #000000; stroke-width: 0.75"/>
      </g>
     </g>
     <g id="text_11">
      <text style="font: 14.5px &quot;Suisse Int&apos;l Mono&quot;; text-anchor: end" x="71.762344" y="207.55569" transform="rotate(-0 71.762344 207.55569)">1.5</text>
     </g>
    </g>
    <g id="ytick_5">
     <g id="line2d_11">
      <g>
       <use xlink:href="#m96bac3aaaa" x="81.762344" y="146.034181" style="stroke: #000000; stroke-width: 0.75"/>
      </g>
     </g>
     <g id="text_12">
      <text style="font: 14.5px &quot;Suisse Int&apos;l Mono&quot;; text-anchor: end" x="71.762344" y="151.290431" transform="rotate(-0 71.762344 151.290431)">2.0</text>
     </g>
    </g>
    <g id="ytick_6">
     <g id="line2d_12">
      <g>
       <use xlink:href="#m96bac3aaaa" x="81.762344" y="89.768921" style="stroke: #000000; stroke-width: 0.75"/>
      </g>
     </g>
     <g id="text_13">
      <text style="font: 14.5px &quot;Suisse Int&apos;l Mono&quot;; text-anchor: end" x="71.762344" y="95.025171" transform="rotate(-0 71.762344 95.025171)">2.5</text>
     </g>
    </g>
    <g id="ytick_7">
     <g id="line2d_13">
      <g>
       <use xlink:href="#m96bac3aaaa" x="81.762344" y="33.503662" style="stroke: #000000; stroke-width: 0.75"/>
      </g>
     </g>
     <g id="text_14">
      <text style="font: 14.5px &quot;Suisse Int&apos;l Mono&quot;; text-anchor: end" x="71.762344" y="38.759912" transform="rotate(-0 71.762344 38.759912)">3.0</text>
     </g>
    </g>
    <g id="text_15">
     <text style="font: 500 15px &quot;Suisse Int&apos;l&quot;, sans-serif; text-anchor: middle" x="30.875" y="202.29944" transform="rotate(-90 30.875 202.29944)">Intensity (au)</text>
    </g>
   </g>
   <g id="line2d_14">
    <path d="M 94.587305 347.901786 
L 94.810768 348.886246 
L 95.034188 353.030273 
L 95.257563 353.563367 
L 95.480895 355.992203 
L 95.704184 354.62957 
L 95.927428 357.05843 
L 96.150629 354.070912 
L 96.373786 358.124742 
L 96.5969 355.137289 
L 96.81997 358.73983 
L 97.042996 355.48165 
L 97.265979 356.015004 
L 97.711814 350.762766 
L 97.934666 351.206046 
L 98.157474 346.684376 
L 98.602961 347.751927 
L 99.048273 324.265566 
L 99.270864 322.091538 
L 99.493411 322.625842 
L 99.715915 325.868486 
L 99.938376 342.200909 
L 100.383167 343.270576 
L 100.605497 342.361294 
L 100.827784 337.660715 
L 101.050027 336.571259 
L 101.272227 337.106921 
L 101.716497 334.387398 
L 101.938567 334.923708 
L 102.160594 337.175443 
L 102.382577 340.600972 
L 102.604518 350.616701 
L 103.048268 351.691546 
L 103.270078 347.354617 
L 103.491845 346.538629 
L 103.93525 347.615734 
L 104.156887 342.828618 
L 104.600032 343.636774 
L 104.82154 333.073138 
L 105.043005 331.446902 
L 105.264426 324.22407 
L 105.485804 324.7651 
L 105.70714 323.771849 
L 105.928432 324.31362 
L 106.149681 323.321126 
L 106.370887 327.474603 
L 107.25528 329.919675 
L 107.476271 339.76245 
L 107.697219 340.488062 
L 107.918123 342.387676 
L 108.138985 347.176494 
L 108.58058 348.269845 
L 108.801312 342.227288 
L 109.242649 343.323561 
L 109.463254 353.080333 
L 109.904333 354.179681 
L 110.124809 338.66151 
L 110.565631 339.764156 
L 110.785978 355.843364 
L 111.006282 356.396166 
L 111.226543 363.178448 
L 111.666937 364.287212 
L 111.88707 358.072065 
L 112.10716 358.628056 
L 112.327208 339.775915 
L 112.767175 340.891006 
L 113.20697 348.95953 
L 113.426804 349.519137 
L 113.866344 347.119371 
L 114.08605 349.21528 
L 114.964447 351.465516 
L 115.18394 335.870391 
L 115.622798 336.999415 
L 115.842164 340.09228 
L 116.061486 340.65795 
L 116.280766 346.369651 
L 116.500004 345.852938 
L 116.719199 346.419942 
L 116.938352 340.668247 
L 117.157462 347.55524 
L 117.37653 348.12352 
L 117.595555 342.282807 
L 117.814538 342.21999 
L 118.033478 341.345113 
L 118.252376 329.90865 
L 118.471232 328.673456 
L 118.690045 329.244108 
L 118.908816 331.620597 
L 119.34623 349.915664 
L 119.564874 352.022411 
L 119.783476 352.594857 
L 120.002035 357.771585 
L 120.220552 353.74078 
L 120.439026 346.279932 
L 120.657458 346.853754 
L 120.875848 342.823984 
L 121.094196 342.044403 
L 121.312502 335.397406 
L 121.967165 337.12413 
L 122.621448 347.61058 
L 123.275353 349.343781 
L 123.493236 354.435913 
L 123.928878 355.593957 
L 124.146635 348.951677 
L 124.582024 350.111999 
L 124.799655 345.547167 
L 125.017245 346.12831 
L 125.234792 344.543297 
L 125.452297 345.12525 
L 125.669761 339.659303 
L 125.887182 342.137825 
L 126.104561 340.825289 
L 126.321899 340.777008 
L 126.539194 341.361071 
L 126.973659 346.50254 
L 127.625043 348.260071 
L 127.842087 350.381479 
L 128.276049 351.556414 
L 128.492968 361.442765 
L 128.709844 362.753666 
L 128.926679 362.620723 
L 129.143472 355.808092 
L 129.793601 357.580686 
L 130.010227 358.985101 
L 130.226811 359.577602 
L 130.443353 360.983105 
L 130.659854 361.576685 
L 130.876313 362.531884 
L 131.309106 365.888157 
L 131.741732 367.079679 
L 131.957983 355.218291 
L 132.174192 354.099727 
L 132.39036 340.794505 
L 132.606486 346.356584 
L 132.82257 340.995713 
L 133.038613 340.148569 
L 133.254614 337.405687 
L 133.470573 337.732041 
L 133.902368 325.294709 
L 134.118203 324.717803 
L 134.333996 323.598963 
L 134.765458 283.716194 
L 135.196755 284.905896 
L 135.412341 284.145792 
L 135.627886 278.781101 
L 136.274271 280.556657 
L 136.48965 291.437974 
L 136.704987 309.720758 
L 136.920284 315.274002 
L 137.135538 317.395796 
L 137.350752 324.4815 
L 137.781055 325.920768 
L 138.4262 327.663543 
L 138.641165 326.5264 
L 138.85609 327.102913 
L 139.070973 326.955644 
L 139.285815 323.195787 
L 139.500616 321.781323 
L 140.359406 323.95892 
L 140.574001 346.728246 
L 141.003067 347.846171 
L 141.217539 342.353603 
L 141.431969 329.99807 
L 141.646358 330.549396 
L 141.860706 332.542836 
L 142.075013 333.089613 
L 142.503504 340.85639 
L 142.717687 343.021019 
L 142.93183 341.933386 
L 143.145932 342.468219 
L 143.359992 335.417607 
L 143.574012 334.322514 
L 143.787991 327.26683 
L 144.215825 328.313591 
L 144.429681 329.916291 
L 144.643496 329.349749 
L 144.85727 329.502677 
L 145.071003 330.01395 
L 145.284695 331.966815 
L 145.498346 331.028119 
L 145.711956 331.53095 
L 146.139054 309.237425 
L 146.352542 306.842773 
L 146.565989 296.591365 
L 146.779395 296.26701 
L 147.206085 297.23406 
L 147.632611 328.339961 
L 147.845813 329.715257 
L 148.058975 330.184613 
L 148.272095 329.747996 
L 148.485175 326.870729 
L 148.911213 327.78647 
L 149.12417 346.023145 
L 149.549964 346.918577 
L 149.7628 340.590643 
L 150.188349 334.604669 
L 150.401063 335.036895 
L 150.613736 324.723143 
L 151.038961 325.57031 
L 151.251512 341.425434 
L 151.464023 341.840353 
L 151.676493 343.966992 
L 151.888923 344.374961 
L 152.101312 343.064257 
L 152.313661 343.284715 
L 152.525969 343.862778 
L 152.738237 339.923683 
L 153.162651 340.972062 
L 153.374797 344.063787 
L 153.798968 345.000862 
L 154.222978 350.888909 
L 154.434922 349.449403 
L 154.646826 362.179301 
L 155.070512 362.893747 
L 155.282294 360.537553 
L 155.494037 360.886075 
L 155.705739 330.809003 
L 156.129021 331.48855 
L 156.340602 338.503264 
L 156.552143 340.639679 
L 156.975104 341.290907 
L 157.186524 338.090501 
L 157.609243 338.720223 
L 157.820542 339.571307 
L 158.24302 340.179296 
L 158.454198 339.033444 
L 158.876435 339.619473 
L 159.087493 341.62215 
L 159.298511 351.835994 
L 159.509489 352.116056 
L 159.720426 353.204854 
L 160.142181 353.746339 
L 160.352999 352.837933 
L 160.563776 346.238582 
L 160.774513 346.496283 
L 160.985211 340.431139 
L 161.195868 340.681421 
L 161.406485 347.247136 
L 161.617062 348.573306 
L 161.827599 351.520709 
L 162.248554 351.988122 
L 162.458971 348.785987 
L 162.669348 336.372372 
L 162.879685 330.635414 
L 163.089983 330.22105 
L 163.30024 331.067013 
L 163.510458 331.2776 
L 163.720635 345.296575 
L 164.140871 345.700744 
L 164.350929 344.633997 
L 164.560947 335.710183 
L 164.980864 336.088031 
L 165.190762 342.681564 
L 165.820219 346.735837 
L 166.239658 347.076285 
L 166.449318 343.450545 
L 167.28756 344.084417 
L 167.497022 344.957973 
L 167.706443 345.106572 
L 167.915825 334.329366 
L 168.125168 334.472529 
L 168.33447 325.134329 
L 168.752957 321.886805 
L 168.96214 317.776667 
L 169.171284 317.906847 
L 169.380389 322.27738 
L 169.589454 340.096179 
L 170.007465 340.339403 
L 170.216411 338.92282 
L 170.634185 339.152024 
L 170.843013 339.895147 
L 171.26055 340.110955 
L 171.677929 333.096314 
L 171.886559 333.016247 
L 172.09515 333.295232 
L 172.303701 335.648495 
L 172.929118 335.926091 
L 173.137512 334.570466 
L 173.345866 334.65738 
L 173.554181 331.131563 
L 173.762457 330.944093 
L 173.970693 331.025714 
L 174.17889 325.598967 
L 174.595166 325.753871 
L 174.803245 326.280285 
L 175.011284 329.152249 
L 175.219285 337.709909 
L 175.635168 337.84942 
L 175.84305 334.125553 
L 176.050894 333.740414 
L 176.258698 331.999828 
L 176.674188 332.12568 
L 176.881875 359.900629 
L 177.089522 363.842214 
L 177.504699 363.958364 
L 177.712229 360.494063 
L 177.91972 359.014642 
L 178.127171 356.541085 
L 178.334584 355.4205 
L 178.541957 351.500315 
L 178.749291 345.141623 
L 178.956586 342.663561 
L 179.163842 337.656731 
L 179.371059 335.988903 
L 179.578237 336.035162 
L 179.785376 333.913763 
L 180.406559 341.354837 
L 180.613542 348.617518 
L 180.820486 348.657262 
L 181.027391 353.480424 
L 181.234257 348.733554 
L 181.647872 355.937226 
L 181.854621 355.971709 
L 182.061331 357.810635 
L 182.268002 358.204175 
L 182.474635 360.582725 
L 182.887783 360.642627 
L 183.300776 356.004334 
L 183.507214 351.787938 
L 183.713613 344.591505 
L 184.332578 344.661657 
L 184.538822 335.475102 
L 185.36341 335.549983 
L 185.569461 338.906193 
L 185.775472 338.921235 
L 185.981445 351.30266 
L 186.187379 351.67667 
L 186.599131 351.699318 
L 186.804949 339.251347 
L 187.21647 339.267751 
L 187.422172 344.51029 
L 187.83346 344.520701 
L 188.039047 342.899535 
L 188.450104 335.772617 
L 188.655574 335.773566 
L 188.861006 336.315248 
L 189.0664 336.314398 
L 189.271755 336.673762 
L 189.477071 342.177841 
L 189.682349 342.174399 
L 189.887588 336.753722 
L 190.092789 336.658348 
L 190.708161 307.931348 
L 191.118217 307.914108 
L 191.323187 326.320133 
L 191.528119 334.344004 
L 191.733012 334.693935 
L 191.937867 337.661098 
L 192.142683 334.30845 
L 192.347462 334.295249 
L 192.552202 337.892329 
L 192.756903 337.877839 
L 192.961566 336.147534 
L 193.370777 336.115496 
L 193.575326 325.897715 
L 193.984307 325.862237 
L 194.393135 346.316648 
L 194.597492 361.372705 
L 195.006091 361.332055 
L 195.210333 333.506824 
L 195.618703 333.463268 
L 196.434983 362.257766 
L 196.638958 362.504118 
L 196.842895 363.381884 
L 197.046793 362.453672 
L 197.250654 362.427659 
L 197.454476 358.609606 
L 197.65826 344.951169 
L 197.862007 344.742827 
L 198.269385 344.685204 
L 198.473017 346.009406 
L 198.67661 346.249556 
L 198.880166 346.218079 
L 199.083684 345.914938 
L 199.287164 345.881738 
L 199.490606 346.118444 
L 199.69401 362.152029 
L 200.100704 362.0789 
L 200.303994 330.445088 
L 200.71046 330.365342 
L 201.116774 331.00284 
L 201.319874 337.729007 
L 201.522937 349.779903 
L 201.725961 350.09382 
L 201.928948 350.045147 
L 202.131897 349.633843 
L 202.537681 330.571279 
L 202.943314 330.45959 
L 203.146073 332.02615 
L 203.551479 331.904254 
L 203.754126 318.841304 
L 204.159305 318.708685 
L 204.361838 320.806162 
L 205.171593 320.510674 
L 205.373937 327.744008 
L 205.778513 327.580281 
L 205.980745 330.022954 
L 206.182939 324.609734 
L 206.587213 322.804162 
L 206.991338 322.614703 
L 207.193343 333.078578 
L 207.597242 337.118328 
L 209.009705 336.332146 
L 209.211335 330.974034 
L 209.412928 330.03674 
L 209.614483 327.923292 
L 209.816001 327.793227 
L 210.218925 332.038757 
L 210.42033 340.205775 
L 210.823029 339.921259 
L 211.024322 334.087594 
L 211.426797 333.786183 
L 211.829122 339.882627 
L 212.231298 339.557889 
L 212.43233 342.370051 
L 212.633324 341.477976 
L 212.834281 341.30503 
L 213.236084 344.199686 
L 213.436929 344.920124 
L 213.637737 350.782969 
L 214.039242 350.402406 
L 214.239938 328.451401 
L 214.641219 328.051351 
L 214.841804 352.039662 
L 215.042352 357.067286 
L 215.443335 356.640924 
L 215.643771 346.312161 
L 216.044532 345.865864 
L 216.244857 350.331911 
L 216.445144 350.371207 
L 216.645394 350.858507 
L 217.045784 349.385651 
L 217.245923 345.168681 
L 217.446025 325.331106 
L 217.64609 320.565871 
L 218.046109 320.052901 
L 218.246063 335.769917 
L 218.44598 337.491343 
L 219.045508 346.157129 
L 219.445009 345.599421 
L 219.644704 335.295558 
L 220.043983 334.719262 
L 220.243568 335.419537 
L 220.443115 348.664772 
L 220.642625 352.789392 
L 220.842099 352.48763 
L 221.041535 347.759507 
L 221.240935 319.557381 
L 221.639624 318.933319 
L 221.838913 346.150341 
L 222.237381 345.509185 
L 222.43656 321.984178 
L 222.834807 321.326404 
L 223.431902 346.408521 
L 223.829781 345.724108 
L 224.227513 344.668318 
L 224.625099 344.144094 
L 224.823837 348.030843 
L 225.022538 347.672307 
L 225.221202 354.533223 
L 225.41983 350.468682 
L 225.618421 354.526382 
L 225.816976 349.734967 
L 226.015493 349.364643 
L 226.213975 342.041003 
L 226.809199 340.90989 
L 227.205832 340.05473 
L 227.404094 337.773392 
L 227.800508 336.996033 
L 227.99866 336.965426 
L 228.196775 352.279307 
L 228.790903 351.086746 
L 228.988873 349.602227 
L 229.384703 348.794423 
L 229.582563 353.714067 
L 229.780387 340.035747 
L 229.978174 339.625985 
L 230.175925 331.902512 
L 230.571318 331.0753 
L 230.76896 339.506298 
L 230.966565 339.089117 
L 231.164134 341.920424 
L 231.361667 339.334028 
L 231.559163 341.079491 
L 231.756623 340.657178 
L 231.954047 356.302343 
L 232.5461 355.025311 
L 232.743379 353.694856 
L 232.940621 353.266189 
L 233.137827 353.468539 
L 233.53213 352.697207 
L 233.729227 353.077736 
L 233.926288 352.284039 
L 234.123313 354.468754 
L 234.320302 360.263857 
L 234.517254 359.829622 
L 234.71417 357.950597 
L 234.91105 357.515585 
L 235.107894 346.428018 
L 235.501473 345.556692 
L 235.894908 369.419689 
L 236.091571 369.254489 
L 236.288198 368.818479 
L 236.484789 368.111687 
L 236.681344 341.225688 
L 236.877863 340.789827 
L 237.074346 335.750089 
L 237.270792 335.314356 
L 237.467203 343.00329 
L 237.663577 344.643987 
L 237.859916 348.090229 
L 238.056219 348.286713 
L 238.252485 354.351048 
L 238.64491 353.480639 
L 239.037191 332.569973 
L 239.429329 331.700483 
L 239.625344 337.404538 
L 239.821322 338.865904 
L 240.017265 347.368757 
L 240.409044 346.500893 
L 240.800678 335.432943 
L 240.996442 333.645637 
L 241.387861 332.77993 
L 241.583517 333.611277 
L 241.779137 351.865637 
L 241.974721 352.968342 
L 242.365783 352.105327 
L 242.561259 341.112308 
L 242.952106 340.251241 
L 243.147475 338.467152 
L 243.342809 338.037548 
L 243.538107 331.108668 
L 243.928596 330.251543 
L 244.123787 335.14978 
L 244.318943 344.110788 
L 244.514062 343.683861 
L 244.709146 347.31974 
L 245.099207 346.468491 
L 245.294184 366.987105 
L 245.68403 366.139252 
L 245.8789 338.453657 
L 246.073735 338.031167 
L 246.463297 329.063233 
L 246.658024 328.642359 
L 246.852716 341.943541 
L 247.047373 344.683243 
L 247.241993 351.395455 
L 247.436579 351.87928 
L 247.825643 351.042826 
L 248.020122 348.097609 
L 248.214565 347.680474 
L 248.603345 346.576634 
L 249.186249 345.330092 
L 249.574674 356.868391 
L 249.768834 356.725175 
L 249.962958 356.311483 
L 250.157047 355.627306 
L 250.3511 328.673918 
L 250.739101 327.848778 
L 251.12696 337.135415 
L 251.320836 336.723841 
L 251.708483 342.130321 
L 251.902253 339.011298 
L 252.095989 339.954804 
L 252.289688 347.127387 
L 252.483353 347.710227 
L 252.676982 348.744632 
L 253.064135 347.92525 
L 253.257659 335.238644 
L 253.6446 334.149413 
L 253.838018 334.011237 
L 254.0314 345.067077 
L 254.41806 354.721375 
L 254.611337 362.076324 
L 254.804578 361.667853 
L 255.384093 337.96473 
L 255.963291 329.247106 
L 256.542173 328.021818 
L 256.735064 338.084932 
L 257.12074 337.267403 
L 257.313525 341.191548 
L 257.698991 340.373092 
L 257.891671 356.483591 
L 258.084316 360.587522 
L 258.469502 359.767325 
L 258.662042 345.36445 
L 259.047018 336.688675 
L 259.239453 336.27713 
L 259.431853 333.247253 
L 259.624219 332.834866 
L 260.008845 353.674261 
L 260.201106 355.336673 
L 260.393332 361.692743 
L 260.777678 360.86211 
L 260.9698 344.377186 
L 261.545954 343.12403 
L 261.737936 335.934228 
L 261.929883 335.514061 
L 262.121795 333.377796 
L 262.697322 332.198994 
L 262.889095 332.405788 
L 263.080834 334.416931 
L 263.272537 333.989534 
L 263.464206 335.366402 
L 263.65584 334.936558 
L 263.847439 332.790234 
L 264.613489 331.051993 
L 264.804914 331.155431 
L 264.996306 334.507167 
L 265.187662 355.731434 
L 265.570271 354.84386 
L 265.761523 353.675342 
L 265.952741 353.227262 
L 266.143924 346.729084 
L 266.335073 347.270402 
L 266.526187 346.816858 
L 266.717266 345.45869 
L 267.290297 344.080697 
L 267.481238 348.311566 
L 267.863017 347.378656 
L 268.244657 330.729658 
L 268.62616 329.779409 
L 268.816859 330.835542 
L 269.007524 350.666217 
L 269.198155 352.078797 
L 269.388751 351.593263 
L 269.579313 352.278876 
L 269.76984 351.788504 
L 269.960333 354.094152 
L 270.150791 350.529562 
L 270.341215 350.031778 
L 270.531605 348.809304 
L 270.72196 340.994359 
L 270.912281 340.489017 
L 271.29282 351.657562 
L 271.673221 350.628883 
L 271.86337 340.270855 
L 272.243565 339.226553 
L 272.433611 344.116874 
L 272.623623 346.115823 
L 272.8136 345.584486 
L 273.193452 352.096847 
L 273.573167 340.002301 
L 273.762974 334.944049 
L 274.142483 333.846897 
L 274.332187 341.328651 
L 274.711491 340.215505 
L 274.901092 342.272852 
L 275.090659 341.709599 
L 275.280192 341.685309 
L 275.659154 340.545409 
L 275.848584 336.450776 
L 276.03798 334.790836 
L 276.41667 333.629446 
L 276.605964 348.120355 
L 276.795223 347.532925 
L 276.984449 350.824549 
L 277.362797 349.455645 
L 277.551921 350.030981 
L 278.119086 348.22028 
L 278.308073 351.583419 
L 278.685945 350.35772 
L 278.87483 329.790539 
L 279.252499 328.549235 
L 279.441282 346.882153 
L 279.630031 350.407732 
L 280.007428 349.146293 
L 280.196075 351.942295 
L 280.384689 351.756873 
L 280.761814 355.621805 
L 281.138803 354.331995 
L 281.327247 353.142118 
L 281.515658 347.165592 
L 282.457201 342.88977 
L 282.645408 344.303659 
L 283.021721 342.973407 
L 283.209826 340.951546 
L 283.773941 339.299376 
L 283.961912 346.478897 
L 284.337752 345.125909 
L 284.525621 339.121147 
L 284.901259 337.759823 
L 285.089028 346.826747 
L 285.464463 345.457931 
L 285.652131 342.334423 
L 285.839764 341.466664 
L 286.027365 330.487256 
L 286.402464 329.107831 
L 286.589963 331.937409 
L 286.777429 340.001989 
L 286.964861 343.191008 
L 287.152259 348.455557 
L 287.339624 359.406616 
L 287.714253 363.342401 
L 288.088747 361.949736 
L 288.275944 339.677285 
L 288.837334 337.312138 
L 289.024397 337.3353 
L 289.211426 342.142524 
L 289.398422 335.935997 
L 289.585385 335.235757 
L 289.772314 331.917225 
L 290.146071 330.514991 
L 290.519695 334.979292 
L 290.706457 334.277146 
L 290.893185 330.415186 
L 291.07988 332.872128 
L 291.266542 332.169294 
L 291.45317 344.01426 
L 292.012855 341.904238 
L 292.199349 335.423154 
L 292.385811 333.09455 
L 292.572239 329.231226 
L 292.758633 328.527414 
L 292.944995 332.608053 
L 293.131323 341.563436 
L 293.317618 342.21368 
L 293.503879 343.76668 
L 294.062464 341.655524 
L 294.248593 336.709138 
L 294.434688 323.999369 
L 294.806779 322.592977 
L 294.992774 341.47935 
L 295.178736 342.762627 
L 295.364666 342.060111 
L 295.550562 342.711934 
L 295.736424 342.009915 
L 295.922254 344.016374 
L 296.10805 340.606732 
L 296.293814 332.954561 
L 296.479544 332.253772 
L 296.665241 337.060011 
L 296.850904 336.359954 
L 297.036535 339.722591 
L 298.335024 335.289031 
L 298.52039 339.558266 
L 298.891023 338.168404 
L 299.261524 335.968522 
L 299.446725 335.275775 
L 299.631893 335.305883 
L 299.817028 351.495603 
L 300.00213 354.054759 
L 300.372235 352.675616 
L 300.742208 346.244318 
L 301.48176 338.086413 
L 301.666565 337.403408 
L 301.851338 337.533877 
L 302.036078 340.554138 
L 302.405459 339.195514 
L 302.5901 335.448608 
L 302.959284 334.096939 
L 303.143827 347.054219 
L 303.328337 351.256259 
L 303.512814 351.307033 
L 303.697258 352.081334 
L 303.88167 356.648499 
L 304.066048 355.981242 
L 304.250394 362.988692 
L 304.434707 364.220171 
L 304.618988 369.786329 
L 304.98745 368.465719 
L 305.355782 350.180166 
L 305.539899 349.52548 
L 305.908034 355.442722 
L 306.092053 351.452657 
L 306.276039 350.804271 
L 306.459992 342.845306 
L 306.827801 341.556311 
L 307.011656 342.358505 
L 307.195479 341.717864 
L 307.379269 343.155042 
L 307.563026 349.107413 
L 307.746751 350.54764 
L 308.114103 349.280065 
L 308.29773 349.641545 
L 309.948908 344.205201 
L 310.13221 341.782963 
L 310.315479 341.167637 
L 310.68192 345.718792 
L 310.865092 358.016853 
L 311.231338 356.799073 
L 311.597455 349.989977 
L 311.780464 339.094833 
L 311.963441 335.422933 
L 312.329299 334.221821 
L 312.512178 349.872494 
L 312.695026 353.698705 
L 313.060624 352.508336 
L 313.426093 343.740298 
L 313.608779 343.149732 
L 313.791432 346.081136 
L 314.521723 364.861099 
L 314.704215 362.111766 
L 314.886675 361.53025 
L 315.069102 352.012905 
L 315.251498 351.433814 
L 315.616191 349.376354 
L 315.79849 348.710378 
L 315.980756 345.698358 
L 316.16299 338.083428 
L 316.527362 336.93916 
L 316.709499 348.916427 
L 317.073678 347.777633 
L 317.255718 339.084898 
L 317.619704 337.950979 
L 317.801648 339.732235 
L 318.529105 337.475458 
L 318.710889 353.884135 
L 318.892641 353.321958 
L 319.074361 353.572738 
L 319.256049 353.011528 
L 319.619328 346.564286 
L 319.982479 345.444738 
L 320.164006 343.62166 
L 320.708397 341.945691 
L 320.889796 334.797591 
L 321.071164 336.31594 
L 321.433803 335.200596 
L 321.615074 348.184135 
L 321.796314 349.973891 
L 321.977521 349.416623 
L 322.158697 346.512305 
L 322.339841 341.351185 
L 322.883081 338.506015 
L 323.064097 338.670884 
L 323.426034 340.264129 
L 323.606954 350.990604 
L 323.787843 350.432739 
L 323.9687 350.777405 
L 324.330318 353.452043 
L 324.511079 350.81693 
L 324.872507 349.698347 
L 325.053173 351.214831 
L 325.233807 355.529416 
L 325.414409 356.503493 
L 325.59498 356.393873 
L 325.775519 355.832447 
L 325.956026 356.714602 
L 326.136501 359.853104 
L 326.316944 359.289889 
L 326.497356 362.156188 
L 326.858085 361.025333 
L 327.038401 344.931462 
L 327.39894 340.184683 
L 327.579161 339.615604 
L 327.759351 340.219246 
L 327.939509 353.640818 
L 328.299731 354.57238 
L 328.479794 360.588311 
L 328.839826 358.804159 
L 329.019795 358.225855 
L 329.199731 350.514435 
L 329.379637 349.933355 
L 329.55951 348.35797 
L 329.739352 347.774245 
L 330.098942 345.97001 
L 330.278689 345.381639 
L 330.458405 352.103869 
L 330.638089 351.512047 
L 330.817742 351.369641 
L 330.997363 350.773879 
L 331.356511 346.145846 
L 331.536038 338.773735 
L 332.074429 336.957063 
L 332.25383 338.785172 
L 332.433199 342.867881 
L 332.612537 342.976299 
L 332.791843 343.353576 
L 332.971118 344.992358 
L 333.150362 344.371962 
L 333.329574 346.276853 
L 333.508755 352.422195 
L 334.225164 350.167884 
L 334.404188 338.336512 
L 334.941071 336.048857 
L 335.119969 336.214406 
L 335.298836 335.564962 
L 335.477672 336.086536 
L 335.656477 335.43203 
L 335.83525 332.157375 
L 336.013992 331.498095 
L 336.192702 333.454509 
L 336.371382 341.366724 
L 336.55003 342.596157 
L 336.728647 341.927287 
L 337.085786 337.693143 
L 337.442801 317.199825 
L 337.799691 315.835357 
L 337.978089 319.573093 
L 338.156456 343.890856 
L 338.513097 342.507182 
L 338.69137 331.791115 
L 339.047824 330.391773 
L 339.226004 331.222794 
L 339.404153 330.516545 
L 339.58227 334.682411 
L 339.760357 333.970873 
L 339.938413 342.464557 
L 340.29443 341.028244 
L 340.472392 337.778475 
L 340.650324 327.755536 
L 340.828224 324.500407 
L 341.006093 323.770258 
L 341.183931 331.79393 
L 341.361737 331.058389 
L 341.717258 350.342111 
L 341.894972 350.501257 
L 342.072655 349.75498 
L 342.250306 338.71488 
L 342.427927 340.400659 
L 342.783076 338.889481 
L 342.960604 338.85212 
L 343.1381 338.089958 
L 343.315566 340.213939 
L 343.493001 336.55784 
L 343.670405 338.676638 
L 343.847778 331.675266 
L 344.025121 337.129044 
L 344.202432 336.893065 
L 344.379712 339.182206 
L 344.73418 337.61443 
L 345.088524 313.648932 
L 345.26565 306.266398 
L 345.973845 303.072363 
L 346.150817 293.96272 
L 346.327758 274.920911 
L 346.504668 274.112224 
L 346.681547 271.044628 
L 347.035213 269.416925 
L 347.212 260.204592 
L 347.565481 258.564699 
L 348.095473 272.339084 
L 348.448647 319.69747 
L 348.625187 318.864113 
L 348.801698 318.028553 
L 349.154626 314.274542 
L 349.507431 312.768645 
L 349.683788 329.344941 
L 349.860114 329.489375 
L 350.03641 343.985161 
L 350.388909 349.409196 
L 350.741285 347.69362 
L 350.917427 332.660016 
L 351.093539 327.283776 
L 351.26962 326.419369 
L 351.445671 322.935257 
L 351.62169 324.68528 
L 351.79768 325.169817 
L 351.973639 326.013825 
L 352.149567 328.210386 
L 352.325464 327.336169 
L 352.501332 330.703374 
L 352.852974 328.948035 
L 353.02875 326.894898 
L 353.204495 328.270945 
L 353.380209 335.874718 
L 353.555893 335.894441 
L 353.731547 335.01041 
L 354.082763 337.843449 
L 354.433857 371.095218 
L 354.784829 369.318111 
L 355.135679 358.150017 
L 355.311059 341.732231 
L 355.837015 339.056061 
L 356.012273 341.412579 
L 356.1875 340.518635 
L 356.362698 338.08941 
L 356.537864 331.236176 
L 356.713001 336.298393 
L 356.888107 335.40196 
L 357.413244 344.625102 
L 357.588228 343.726271 
L 357.763183 338.132648 
L 357.938107 341.38523 
L 358.287865 339.583495 
L 358.462698 340.126135 
L 358.637502 339.223847 
L 358.812275 340.126478 
L 358.987017 339.223084 
L 359.336412 334.796699 
L 359.685686 333.25687 
L 359.860277 332.350728 
L 360.20937 343.084833 
L 360.558341 341.539675 
L 360.732782 349.387424 
L 360.907192 350.193353 
L 361.255923 348.373386 
L 361.430243 336.991024 
L 361.778792 335.168407 
L 361.953022 354.748531 
L 362.127222 358.801295 
L 362.301391 360.055265 
L 362.823719 357.135241 
L 363.171787 354.314618 
L 363.519735 352.486051 
L 363.693664 353.828307 
L 363.867563 353.274646 
L 364.041431 351.99864 
L 364.389079 342.224408 
L 364.562858 341.309192 
L 364.736607 338.227364 
L 364.910326 337.312068 
L 365.084014 348.854512 
L 365.431302 353.704354 
L 365.77847 358.82552 
L 365.952009 355.563767 
L 366.992616 350.623717 
L 367.165946 345.378394 
L 367.339246 344.10561 
L 367.512516 337.146177 
L 367.685756 342.283986 
L 367.858966 341.374143 
L 368.032147 346.423049 
L 368.378418 365.821388 
L 368.72457 364.009069 
L 368.897601 347.93842 
L 369.243575 337.646148 
L 369.416517 332.952856 
L 369.762312 330.52035 
L 369.935164 329.621605 
L 370.28078 338.118474 
L 370.453544 340.202009 
L 370.798982 338.414513 
L 370.971656 334.27269 
L 371.1443 333.381898 
L 371.316915 330.416033 
L 371.489501 329.527689 
L 371.662056 322.5923 
L 372.007078 320.821959 
L 372.179545 321.383102 
L 372.351981 325.556507 
L 372.524389 324.675982 
L 372.696766 324.609291 
L 373.041433 323.396826 
L 373.213721 340.937668 
L 373.38598 342.772432 
L 373.55821 351.198642 
L 373.90258 349.459365 
L 374.246832 332.379908 
L 374.762988 329.792408 
L 375.106945 344.956748 
L 375.278879 345.725833 
L 375.450783 348.66321 
L 375.622658 362.344867 
L 375.794504 363.028956 
L 376.138106 361.3333 
L 376.653289 337.589141 
L 376.996596 335.911419 
L 377.168206 336.970965 
L 377.682858 334.472963 
L 377.854351 358.468967 
L 378.025813 361.703892 
L 378.197246 360.87829 
L 378.36865 355.992159 
L 378.540025 346.774671 
L 378.882685 345.13566 
L 379.053972 334.117789 
L 379.225229 333.302478 
L 379.396457 329.238985 
L 379.909964 327.168734 
L 380.252155 337.200995 
L 380.423207 353.277936 
L 380.594229 352.836412 
L 380.936187 351.2358 
L 381.107121 336.625965 
L 381.278027 333.392069 
L 381.61975 331.803463 
L 381.790567 346.8092 
L 382.132115 345.229526 
L 382.473546 335.440902 
L 382.644218 333.753479 
L 382.81486 328.276027 
L 383.156057 326.713837 
L 383.497138 336.260949 
L 383.667635 335.484836 
L 383.838102 336.154509 
L 384.008541 335.381219 
L 384.17895 354.920826 
L 384.34933 356.226646 
L 384.519681 355.457592 
L 384.690003 352.613673 
L 384.860295 347.243519 
L 385.200794 345.715274 
L 385.370999 347.300342 
L 385.711323 345.780469 
L 385.881441 331.21081 
L 386.22159 329.699259 
L 386.391622 337.431236 
L 386.561624 352.386463 
L 386.731597 352.177173 
L 386.901541 352.601212 
L 387.071456 351.853106 
L 387.241342 349.932867 
L 387.411199 341.514386 
L 387.581028 340.770575 
L 387.750827 337.04919 
L 387.920597 336.30829 
L 388.090338 339.811719 
L 388.26005 339.615435 
L 388.429734 341.045583 
L 388.599388 341.032888 
L 388.769014 340.299562 
L 388.93861 347.511846 
L 389.108178 346.781661 
L 389.277717 346.955796 
L 389.616707 344.600712 
L 389.786159 333.224738 
L 390.124977 331.782221 
L 390.463679 358.240841 
L 390.632987 363.39328 
L 390.802265 362.679691 
L 390.971515 359.169383 
L 391.479093 357.044321 
L 391.648228 366.720855 
L 391.986411 365.316226 
L 392.324479 348.842654 
L 392.49347 348.14608 
L 392.662432 345.465032 
L 392.831365 344.771499 
L 393.00027 345.072434 
L 393.169146 344.38178 
L 393.337993 342.518946 
L 393.506811 342.914283 
L 393.675601 342.317924 
L 393.844362 344.1602 
L 394.350473 342.111226 
L 394.519119 345.853893 
L 394.856325 344.495564 
L 395.024886 345.984443 
L 395.193417 353.071212 
L 395.69884 350.956056 
L 396.035646 338.235804 
L 396.372337 336.892973 
L 396.708914 340.969352 
L 397.045376 339.631986 
L 397.213564 328.041164 
L 397.549855 325.443528 
L 397.717958 320.80539 
L 397.886032 324.111807 
L 398.054078 324.07859 
L 398.222095 323.594455 
L 398.390084 348.838645 
L 398.558044 348.174827 
L 398.725975 355.274931 
L 398.893879 354.611925 
L 399.229599 344.440187 
L 399.397417 348.923786 
L 400.068403 346.098264 
L 400.236079 326.570563 
L 400.403726 325.639377 
L 400.571344 314.958871 
L 400.906496 313.639011 
L 401.241535 333.443681 
L 401.409011 333.777246 
L 401.57646 338.353763 
L 401.911271 340.646318 
L 402.245969 339.328253 
L 402.413276 328.648959 
L 402.747804 327.331071 
L 403.082218 342.80397 
L 403.249383 342.144966 
L 403.41652 344.374655 
L 403.750708 343.056343 
L 403.91776 337.97367 
L 404.084784 346.612438 
L 404.251779 345.952919 
L 404.418746 342.49478 
L 404.585685 341.834969 
L 404.752595 345.869212 
L 405.253157 330.97903 
L 405.586724 329.837682 
L 405.920179 351.083026 
L 406.25352 349.758912 
L 406.420149 330.500109 
L 406.586749 327.399907 
L 406.919865 326.073232 
L 407.086381 335.429713 
L 407.419329 357.210974 
L 407.918539 355.215518 
L 408.084886 334.057683 
L 408.583759 332.058181 
L 408.749994 338.34203 
L 408.916201 337.674501 
L 409.08238 335.201153 
L 409.248531 334.532932 
L 409.414654 340.454313 
L 409.580748 342.313047 
L 409.746815 347.60184 
L 410.078864 346.262333 
L 410.244847 347.939179 
L 410.410802 352.233597 
L 410.742627 350.891376 
L 410.908498 352.657165 
L 411.07434 356.047547 
L 411.571701 353.759202 
L 411.737432 353.086166 
L 412.06881 346.954853 
L 412.400076 345.607196 
L 412.565668 338.523691 
L 412.896767 337.175015 
L 413.062274 345.708356 
L 413.227754 345.033727 
L 413.393206 348.511593 
L 413.724026 347.613387 
L 413.889395 347.931566 
L 414.054735 361.971292 
L 414.55059 359.6763 
L 414.715819 348.710542 
L 414.881021 348.03599 
L 415.21134 345.33294 
L 415.21134 345.33294 
" clip-path="url(#pe00edaad43)" style="fill: none; stroke: #9e3f41; stroke-linecap: round"/>
   </g>
   <g id="line2d_15">
    <path d="M 94.587305 254.820453 
L 94.810768 254.106172 
L 95.257563 256.0419 
L 95.927428 246.808045 
L 96.150629 247.781456 
L 96.373786 244.727076 
L 96.5969 244.313225 
L 97.042996 246.330259 
L 97.711814 212.814959 
L 98.380239 215.928274 
L 98.602961 216.06431 
L 99.048273 213.512381 
L 99.938376 218.286127 
L 100.160793 218.645108 
L 100.383167 217.929826 
L 100.827784 220.306437 
L 101.050027 222.843551 
L 101.494384 225.212955 
L 101.716497 224.369881 
L 101.938567 225.551292 
L 102.160594 224.801943 
L 102.604518 227.157628 
L 102.826414 225.487394 
L 103.270078 219.573721 
L 103.93525 221.814743 
L 104.156887 222.522077 
L 104.600032 224.847692 
L 104.82154 228.877596 
L 105.264426 231.191651 
L 105.485804 228.896907 
L 105.70714 229.240908 
L 105.928432 229.920429 
L 106.149681 229.741632 
L 106.59205 232.030263 
L 107.034246 227.617246 
L 107.25528 228.234925 
L 107.476271 227.499629 
L 107.918123 228.891549 
L 108.138985 227.473467 
L 108.58058 229.718202 
L 108.801312 229.956307 
L 110.124809 236.885393 
L 110.565631 234.653881 
L 111.006282 231.083924 
L 111.226543 231.688029 
L 113.20697 241.496241 
L 113.426804 244.987569 
L 114.08605 247.810062 
L 114.305713 245.476941 
L 114.744912 243.454535 
L 115.18394 245.266843 
L 115.842164 239.865879 
L 116.061486 239.90872 
L 116.280766 240.925445 
L 116.938352 251.748669 
L 117.157462 252.75435 
L 117.37653 249.633339 
L 117.595555 243.217697 
L 117.814538 244.058672 
L 118.033478 244.354407 
L 118.252376 243.007599 
L 118.471232 240.187091 
L 118.690045 235.675858 
L 119.34623 238.623397 
L 119.564874 238.793147 
L 120.002035 240.608785 
L 120.220552 238.408063 
L 120.439026 238.640904 
L 120.657458 239.607092 
L 120.875848 237.520282 
L 121.094196 238.19273 
L 121.312502 238.055144 
L 121.530765 237.083445 
L 121.748986 229.971912 
L 122.185302 231.877222 
L 122.621448 243.168448 
L 123.057427 245.058684 
L 123.275353 242.275044 
L 123.493236 242.034034 
L 123.711078 242.478684 
L 123.928878 243.416105 
L 124.146635 244.846351 
L 124.364351 248.795311 
L 124.799655 250.65961 
L 125.017245 249.081507 
L 125.452297 244.124645 
L 126.321899 247.448623 
L 126.539194 244.873277 
L 126.756448 240.837799 
L 127.190829 242.675973 
L 127.625043 246.427771 
L 128.276049 249.402576 
L 129.576933 255.069418 
L 129.793601 254.351904 
L 130.010227 254.88795 
L 130.226811 251.26326 
L 130.443353 251.002346 
L 130.876313 252.082518 
L 131.309106 242.259149 
L 131.741732 244.069313 
L 131.957983 247.782823 
L 132.174192 248.685835 
L 132.39036 250.757627 
L 132.606486 250.489122 
L 132.82257 247.554691 
L 133.038613 237.552913 
L 133.254614 235.605148 
L 133.470573 227.421974 
L 133.686491 226.665685 
L 133.902368 223.990873 
L 134.333996 202.840769 
L 134.549748 192.070813 
L 134.765458 190.898097 
L 135.196755 165.890436 
L 135.412341 154.101902 
L 135.843389 155.867337 
L 136.05885 157.290339 
L 136.274271 162.003707 
L 136.704987 189.790611 
L 137.350752 214.027313 
L 137.996144 246.483487 
L 138.641165 250.849907 
L 139.070973 252.380009 
L 139.285815 245.961003 
L 139.715375 247.658922 
L 140.359406 253.63696 
L 140.574001 253.510423 
L 140.788555 254.345966 
L 141.431969 244.560459 
L 141.646358 242.647353 
L 142.503504 245.791622 
L 142.717687 244.29621 
L 142.93183 245.100415 
L 143.145932 242.307517 
L 143.574012 243.897279 
L 143.787991 237.571778 
L 144.429681 228.434825 
L 144.643496 227.9051 
L 144.85727 227.901697 
L 145.071003 228.303978 
L 145.284695 229.063656 
L 145.711956 219.584392 
L 145.925526 214.566694 
L 146.139054 213.282575 
L 146.352542 206.446904 
L 146.565989 204.080278 
L 146.99276 205.530884 
L 147.632611 227.868481 
L 148.272095 232.278351 
L 148.485175 232.966337 
L 148.698214 236.374353 
L 148.911213 237.051885 
L 149.12417 238.290874 
L 149.337087 238.391029 
L 149.549964 239.052577 
L 149.7628 239.334931 
L 149.975595 238.586918 
L 150.188349 237.327045 
L 150.401063 237.954963 
L 150.613736 233.971125 
L 150.826369 233.53918 
L 151.038961 231.268974 
L 151.251512 230.946905 
L 151.464023 231.548012 
L 151.676493 230.986182 
L 151.888923 231.154623 
L 152.101312 227.012878 
L 152.313661 226.459308 
L 152.738237 227.627542 
L 152.950464 229.409669 
L 153.586903 247.748081 
L 154.222978 252.305357 
L 154.434922 251.024642 
L 154.646826 246.724165 
L 154.858689 247.25403 
L 155.070512 245.210284 
L 155.9174 247.257595 
L 156.340602 248.672216 
L 156.552143 249.160688 
L 156.763644 243.843768 
L 156.975104 244.321755 
L 157.186524 244.505064 
L 157.397903 242.596953 
L 157.609243 242.407904 
L 157.820542 242.864694 
L 158.031801 242.725281 
L 158.24302 243.171393 
L 158.454198 242.309833 
L 158.665337 242.95024 
L 158.876435 243.175304 
L 159.087493 243.600014 
L 159.298511 239.71448 
L 159.509489 232.83309 
L 159.931324 231.438475 
L 160.142181 232.982131 
L 160.352999 232.229379 
L 160.563776 232.508389 
L 160.774513 230.093084 
L 160.985211 232.676828 
L 161.406485 233.282557 
L 161.617062 233.776568 
L 162.248554 241.690865 
L 162.669348 242.342956 
L 163.510458 232.588721 
L 163.930773 233.204415 
L 164.140871 235.627183 
L 164.350929 236.26041 
L 164.560947 238.56493 
L 164.770925 238.850863 
L 164.980864 237.697054 
L 165.190762 237.973475 
L 165.400621 227.139281 
L 165.61044 225.935209 
L 165.820219 223.388022 
L 166.029959 223.284145 
L 166.449318 223.78634 
L 166.658938 227.503597 
L 166.868519 228.455034 
L 167.078059 228.690643 
L 167.28756 228.210465 
L 167.497022 228.437449 
L 167.706443 229.371633 
L 168.543733 236.093348 
L 168.752957 236.295421 
L 168.96214 235.625267 
L 169.171284 239.6178 
L 169.380389 239.880313 
L 170.007465 241.332015 
L 170.216411 242.941846 
L 170.634185 243.280534 
L 170.843013 240.429839 
L 171.26055 240.74722 
L 171.469259 248.425316 
L 171.886559 248.722502 
L 172.303701 243.520169 
L 172.720685 243.792023 
L 172.929118 244.140473 
L 173.137512 244.268928 
L 173.345866 247.035322 
L 174.17889 247.510006 
L 174.387048 243.039817 
L 175.011284 240.756354 
L 175.219285 240.858612 
L 175.427246 237.063658 
L 175.635168 240.308648 
L 175.84305 239.632428 
L 176.050894 240.497575 
L 176.258698 240.588909 
L 176.466463 246.707507 
L 176.674188 247.759568 
L 176.881875 249.472959 
L 177.712229 249.797063 
L 177.91972 250.947067 
L 178.334584 251.095839 
L 178.541957 245.259185 
L 178.956586 245.398647 
L 179.163842 245.212886 
L 179.578237 245.343399 
L 179.785376 242.620961 
L 179.992476 237.135697 
L 180.406559 237.254855 
L 180.613542 242.087572 
L 181.027391 243.537153 
L 181.234257 247.606238 
L 181.854621 247.759468 
L 182.061331 247.18105 
L 182.268002 242.163889 
L 182.681228 240.506709 
L 182.887783 241.18972 
L 183.094299 241.232481 
L 183.300776 241.575572 
L 183.713613 250.627033 
L 184.126295 250.702553 
L 184.332578 247.506994 
L 184.538822 246.722057 
L 185.157321 240.429589 
L 185.36341 240.460235 
L 185.569461 240.489768 
L 185.775472 245.040139 
L 185.981445 245.332721 
L 186.393275 245.383928 
L 186.599131 242.152025 
L 186.804949 241.800976 
L 187.010729 241.798483 
L 187.21647 240.094591 
L 187.422172 240.113921 
L 187.83346 237.677118 
L 188.039047 237.692979 
L 188.244594 239.673219 
L 188.450104 239.686749 
L 188.655574 242.219344 
L 189.0664 242.240534 
L 189.271755 241.381142 
L 189.682349 241.395228 
L 190.092789 243.743899 
L 190.297952 243.746756 
L 190.503076 244.170461 
L 190.913208 243.193423 
L 191.118217 242.045915 
L 191.528119 242.038443 
L 191.733012 246.663404 
L 192.347462 246.639743 
L 192.552202 247.521825 
L 192.756903 251.24854 
L 193.370777 251.207088 
L 193.575326 249.731755 
L 193.984307 249.695466 
L 194.18874 249.964767 
L 194.597492 249.968687 
L 194.801811 251.934047 
L 195.006091 251.908252 
L 195.414537 251.70724 
L 195.618703 245.116744 
L 196.026919 245.050089 
L 196.23097 244.254243 
L 196.434983 246.591632 
L 196.638958 246.551428 
L 196.842895 243.120641 
L 197.046793 241.858184 
L 197.454476 241.762184 
L 197.65826 244.906108 
L 197.862007 245.45497 
L 198.065715 245.398369 
L 198.473017 245.108495 
L 198.67661 245.043923 
L 198.880166 244.735404 
L 199.083684 244.002001 
L 199.287164 240.371654 
L 199.69401 240.216597 
L 199.897376 243.522954 
L 200.100704 243.437742 
L 200.303994 246.400169 
L 200.71046 246.213672 
L 200.913636 248.503045 
L 201.319874 248.296392 
L 201.725961 244.036111 
L 202.131897 237.096376 
L 202.334808 236.213502 
L 202.537681 230.045181 
L 202.943314 229.779558 
L 203.146073 238.009442 
L 204.564333 237.030687 
L 204.766791 234.422274 
L 204.969211 233.943737 
L 205.778513 233.080926 
L 205.980745 232.868515 
L 206.182939 231.566009 
L 206.385095 231.355947 
L 206.587213 232.238273 
L 206.789294 234.63498 
L 207.193343 234.179769 
L 207.395312 227.818702 
L 207.799135 226.27117 
L 208.202808 225.763442 
L 208.606332 238.739482 
L 208.808037 239.370791 
L 209.009705 240.611472 
L 209.211335 240.327119 
L 209.412928 237.613303 
L 209.614483 236.581953 
L 210.017482 223.914571 
L 210.42033 223.28258 
L 211.024322 227.3796 
L 211.225578 227.037319 
L 211.627978 228.216212 
L 212.030229 235.653926 
L 212.43233 234.904194 
L 212.834281 233.370829 
L 213.035201 230.671789 
L 213.436929 229.861948 
L 213.838508 233.778899 
L 214.039242 233.75063 
L 214.239938 233.535364 
L 214.440597 233.096909 
L 214.641219 233.002002 
L 214.841804 232.551229 
L 215.042352 237.15886 
L 215.242862 237.901557 
L 215.443335 244.269385 
L 215.84417 243.312026 
L 216.044532 240.605265 
L 216.244857 236.360869 
L 216.445144 235.088742 
L 216.645394 234.582181 
L 216.845608 234.768846 
L 217.045784 234.322305 
L 217.446025 234.701046 
L 217.64609 235.369587 
L 218.046109 239.920004 
L 218.845703 237.661152 
L 219.045508 236.189105 
L 219.245277 235.603481 
L 219.445009 235.735512 
L 219.644704 234.137366 
L 221.240935 229.638579 
L 221.440298 232.319515 
L 221.838913 231.009252 
L 222.038166 236.074122 
L 222.43656 240.593341 
L 222.635702 239.915149 
L 222.834807 235.867647 
L 223.033875 239.484465 
L 223.232907 238.791532 
L 223.431902 238.744976 
L 223.63086 239.610154 
L 223.829781 238.903074 
L 224.227513 237.017047 
L 224.625099 235.571548 
L 225.221202 243.524712 
L 225.41983 242.783133 
L 226.213975 236.606536 
L 226.412419 236.943267 
L 226.610827 239.555517 
L 226.809199 240.464051 
L 227.007534 240.091005 
L 227.205832 245.647474 
L 228.394854 240.817081 
L 228.592897 241.21605 
L 228.790903 241.286876 
L 229.186806 249.271345 
L 229.582563 247.660193 
L 230.37364 242.098347 
L 231.164134 239.077362 
L 231.361667 240.992469 
L 231.559163 240.361954 
L 231.756623 240.827589 
L 231.954047 242.473877 
L 232.151434 242.238037 
L 232.348785 242.423344 
L 232.5461 241.799917 
L 232.743379 243.840709 
L 232.940621 243.698276 
L 233.137827 247.944619 
L 233.926288 244.83698 
L 234.123313 249.443796 
L 234.320302 258.403763 
L 234.71417 256.741006 
L 234.91105 248.313074 
L 235.501473 243.916615 
L 235.894908 242.692018 
L 236.288198 245.702114 
L 236.484789 246.080619 
L 236.681344 245.917178 
L 237.467203 242.618428 
L 237.663577 245.244714 
L 237.859916 245.002062 
L 238.448716 247.777586 
L 238.64491 249.336165 
L 239.037191 247.706064 
L 239.233278 243.20309 
L 239.625344 241.581152 
L 239.821322 246.427811 
L 240.017265 246.826369 
L 240.213172 246.695891 
L 240.604879 248.031435 
L 240.996442 246.43129 
L 241.192169 241.992092 
L 241.583517 240.402315 
L 241.974721 244.788729 
L 242.17027 245.218138 
L 242.365783 245.058573 
L 242.756701 247.808117 
L 242.952106 247.967942 
L 243.147475 249.890329 
L 243.342809 249.113643 
L 243.538107 249.991041 
L 244.123787 247.67971 
L 244.318943 248.722261 
L 244.514062 248.766071 
L 244.904194 247.413021 
L 245.099207 247.402889 
L 245.294184 253.31561 
L 245.68403 251.810593 
L 245.8789 248.975064 
L 246.268533 247.482337 
L 246.463297 248.632137 
L 246.852716 247.151115 
L 247.241993 241.553481 
L 247.631129 239.532241 
L 247.825643 239.356203 
L 248.020122 242.485843 
L 248.214565 243.301836 
L 248.408973 245.289059 
L 248.603345 244.998725 
L 248.991983 243.554193 
L 249.186249 243.858997 
L 249.380479 245.431288 
L 249.962958 243.282445 
L 250.157047 239.312782 
L 250.739101 237.06944 
L 250.933048 239.410775 
L 251.12696 239.305229 
L 251.708483 237.185456 
L 252.095989 235.101332 
L 252.483353 236.191731 
L 252.676982 237.600196 
L 252.870576 242.735421 
L 253.064135 243.988429 
L 253.257659 246.291128 
L 253.451147 245.67622 
L 253.6446 245.737116 
L 254.0314 244.340963 
L 254.611337 239.886305 
L 254.804578 240.66106 
L 254.997785 243.015764 
L 255.384093 241.624248 
L 255.577194 239.011464 
L 255.963291 237.620901 
L 256.349248 239.582904 
L 256.542173 239.237488 
L 256.735064 241.834327 
L 256.927919 241.850571 
L 257.12074 244.507537 
L 257.313525 244.451196 
L 257.506275 243.755585 
L 257.698991 246.858216 
L 257.891671 246.234525 
L 258.469502 248.582242 
L 258.662042 250.79106 
L 258.854547 250.093365 
L 259.239453 243.728457 
L 259.816549 241.62904 
L 260.008845 241.362019 
L 260.393332 244.732669 
L 260.585522 245.283259 
L 260.777678 244.578878 
L 260.9698 245.501473 
L 261.161886 244.795194 
L 261.353937 246.318729 
L 261.545954 246.81623 
L 262.505515 243.558483 
L 262.697322 247.497436 
L 263.272537 245.571236 
L 263.65584 243.343136 
L 264.230533 243.552293 
L 264.422028 246.235361 
L 264.804914 245.012287 
L 264.996306 247.955327 
L 265.187662 243.757868 
L 265.378984 243.019332 
L 265.761523 243.357324 
L 266.335073 241.118156 
L 266.717266 238.650433 
L 266.908311 237.89575 
L 267.099321 242.384387 
L 267.290297 242.795063 
L 267.481238 242.853838 
L 267.863017 241.324722 
L 268.244657 239.292114 
L 268.435426 238.519544 
L 268.62616 241.446606 
L 269.007524 242.880191 
L 269.76984 240.074907 
L 269.960333 240.657679 
L 270.150791 246.290473 
L 270.531605 244.694049 
L 270.72196 235.330428 
L 271.102567 233.718531 
L 271.29282 241.385806 
L 272.053484 239.20488 
L 272.243565 239.394482 
L 272.433611 240.003388 
L 272.623623 239.307205 
L 272.8136 242.442854 
L 273.003543 242.17519 
L 273.193452 241.337952 
L 273.383327 241.378154 
L 273.573167 240.981401 
L 274.521856 236.78393 
L 274.901092 244.912265 
L 275.280192 243.261372 
L 275.46969 243.136893 
L 275.659154 244.987031 
L 275.848584 245.326862 
L 276.227342 246.552224 
L 276.41667 246.56953 
L 276.795223 244.786311 
L 276.984449 239.537029 
L 277.362797 237.735616 
L 277.551921 245.307494 
L 277.74101 245.255315 
L 278.119086 243.429446 
L 278.497026 240.445713 
L 278.87483 238.595231 
L 279.063682 238.859171 
L 279.630031 240.826341 
L 279.818746 240.716231 
L 280.007428 240.410113 
L 280.196075 239.630642 
L 280.384689 240.777468 
L 280.761814 238.865545 
L 280.950326 235.951499 
L 281.327247 234.021182 
L 281.704034 242.436901 
L 281.892376 242.136302 
L 282.080685 242.109992 
L 282.457201 240.142985 
L 282.645408 238.395247 
L 282.833581 240.05706 
L 283.021721 239.062988 
L 283.209826 239.235601 
L 283.585936 242.212708 
L 283.961912 242.030695 
L 284.149849 240.102387 
L 284.525621 239.975219 
L 284.713457 239.569689 
L 285.089028 237.978373 
L 285.276762 238.649646 
L 285.652131 238.006277 
L 285.839764 238.922508 
L 286.214931 239.649519 
L 286.402464 239.098587 
L 286.589963 242.210802 
L 286.777429 242.57104 
L 286.964861 245.533319 
L 287.152259 245.876319 
L 287.526955 243.757118 
L 287.714253 240.764398 
L 288.275944 237.559688 
L 288.463108 237.909575 
L 288.650238 237.786838 
L 288.837334 237.480912 
L 289.024397 236.823007 
L 289.398422 245.472889 
L 289.772314 243.29751 
L 289.959209 239.638156 
L 290.3329 237.450183 
L 290.519695 240.682186 
L 290.706457 240.849351 
L 291.07988 245.18136 
L 291.45317 246.406908 
L 291.826326 245.056891 
L 292.012855 245.428413 
L 292.199349 245.123001 
L 292.944995 240.919211 
L 293.131323 242.583744 
L 293.503879 240.723487 
L 293.876303 242.379108 
L 294.062464 241.251597 
L 294.248593 243.101386 
L 294.434688 242.116304 
L 294.62075 242.456598 
L 294.806779 247.221364 
L 294.992774 246.088539 
L 295.178736 246.715347 
L 295.550562 242.950056 
L 296.293814 238.401144 
L 296.479544 239.481139 
L 296.850904 245.076312 
L 297.778727 239.842594 
L 297.964192 243.994837 
L 298.52039 240.738979 
L 298.705723 241.430414 
L 298.891023 238.817956 
L 299.446725 239.688339 
L 299.631893 246.096864 
L 300.00213 243.818021 
L 300.187199 239.893897 
L 300.557238 237.618647 
L 300.742208 242.909325 
L 300.927145 241.773615 
L 301.11205 242.254626 
L 301.48176 240.31342 
L 302.036078 247.147011 
L 302.220785 246.911072 
L 302.405459 246.025278 
L 302.5901 246.262292 
L 302.774709 246.934836 
L 302.959284 249.948214 
L 303.328337 247.707462 
L 303.512814 242.489604 
L 303.88167 240.258776 
L 304.066048 241.714461 
L 304.250394 247.271865 
L 305.171633 242.396934 
L 305.539899 248.255838 
L 305.723983 247.160964 
L 305.908034 247.141507 
L 306.092053 244.977878 
L 306.276039 244.962956 
L 306.459992 242.671296 
L 306.643913 242.914297 
L 306.827801 240.506825 
L 307.011656 240.754678 
L 307.379269 238.605006 
L 307.563026 239.547776 
L 307.746751 245.461273 
L 307.930443 246.710761 
L 308.114103 250.326409 
L 308.29773 251.400431 
L 308.481324 250.342852 
L 308.664886 247.153698 
L 309.215377 243.945995 
L 309.582208 250.749226 
L 309.765574 250.567801 
L 309.948908 250.594315 
L 310.315479 248.871553 
L 310.865092 245.803195 
L 311.048231 242.555505 
L 311.231338 243.820667 
L 311.414413 242.809719 
L 311.597455 243.369332 
L 311.963441 250.574899 
L 312.329299 248.579488 
L 312.512178 243.064207 
L 312.877841 241.086233 
L 313.060624 245.781126 
L 313.243375 247.174827 
L 313.791432 244.246247 
L 314.156642 241.64455 
L 314.521723 239.596448 
L 314.704215 242.676367 
L 314.886675 242.261995 
L 315.251498 245.070863 
L 315.433861 244.8815 
L 315.616191 243.935065 
L 315.79849 242.231542 
L 315.980756 235.658951 
L 316.345192 233.784133 
L 316.709499 245.931479 
L 316.891604 245.002898 
L 317.073678 245.704705 
L 317.255718 243.153174 
L 317.437727 242.231997 
L 317.801648 239.10667 
L 317.983561 238.192751 
L 318.165441 238.113257 
L 318.347289 237.204093 
L 318.529105 239.384271 
L 318.892641 253.205519 
L 319.256049 251.408102 
L 319.437704 247.401677 
L 319.800919 245.617631 
L 319.982479 245.392047 
L 320.164006 245.421785 
L 320.345502 247.226182 
L 320.889796 244.584127 
L 321.071164 244.852837 
L 321.252499 245.967493 
L 321.433803 248.277751 
L 321.977521 246.018258 
L 322.158697 248.04589 
L 322.520953 246.317732 
L 322.883081 243.606665 
L 323.064097 242.747608 
L 323.426034 244.831823 
L 323.606954 244.519182 
L 323.9687 242.269407 
L 324.149525 241.417435 
L 324.511079 244.081616 
L 324.691809 244.028333 
L 324.872507 248.41343 
L 325.053173 248.844107 
L 325.956026 244.507619 
L 326.136501 244.507623 
L 326.316944 243.663878 
L 326.497356 245.171836 
L 326.677736 244.533595 
L 326.858085 245.463123 
L 327.038401 245.717466 
L 327.218686 245.175977 
L 327.39894 245.17709 
L 327.579161 246.793951 
L 327.759351 246.131589 
L 327.939509 245.975462 
L 328.119636 248.483987 
L 329.199731 243.701048 
L 329.379637 243.818041 
L 329.55951 243.403612 
L 329.739352 244.290586 
L 329.919163 243.440141 
L 330.098942 243.432734 
L 330.278689 243.580956 
L 330.458405 242.968287 
L 330.997363 248.827762 
L 331.176953 251.260383 
L 331.715533 248.672603 
L 331.894997 250.049384 
L 332.074429 249.181367 
L 332.25383 254.075328 
L 332.612537 252.328859 
L 333.150362 245.796445 
L 333.329574 246.105826 
L 333.508755 245.218572 
L 334.046109 239.897675 
L 334.225164 238.997786 
L 334.404188 239.722326 
L 334.58318 241.010016 
L 334.762141 240.87107 
L 335.119969 246.646934 
L 335.83525 243.219924 
L 336.192702 242.082228 
L 336.371382 242.326158 
L 336.55003 241.986323 
L 336.907232 240.061375 
L 337.085786 244.698261 
L 337.264309 244.928405 
L 337.621262 243.237827 
L 337.799691 244.476253 
L 337.978089 244.852772 
L 338.334792 242.899138 
L 338.513097 242.582584 
L 338.69137 241.560528 
L 338.869613 241.882841 
L 339.047824 245.659689 
L 339.58227 242.97603 
L 339.938413 251.689377 
L 340.29443 249.535259 
L 340.828224 240.825978 
L 341.183931 238.601823 
L 341.361737 240.987872 
L 342.072655 236.421596 
L 342.250306 239.264596 
L 342.605517 240.671002 
L 342.783076 240.247269 
L 342.960604 239.05614 
L 343.1381 240.401641 
L 343.493001 237.980742 
L 343.847778 234.455718 
L 344.025121 233.218254 
L 344.202432 237.725048 
L 344.73418 234.149138 
L 345.088524 218.628313 
L 345.26565 217.302244 
L 345.442745 214.003442 
L 345.973845 192.126773 
L 346.504668 161.084181 
L 346.858395 152.828484 
L 347.035213 148.769308 
L 347.388756 146.034181 
L 347.565481 147.491039 
L 348.095473 173.313585 
L 348.272075 178.315813 
L 348.625187 200.132434 
L 348.801698 213.980591 
L 348.978177 216.234953 
L 349.683788 236.413171 
L 349.860114 236.60327 
L 350.212674 233.688811 
L 350.565112 222.25435 
L 350.917427 217.241623 
L 351.093539 211.611932 
L 351.973639 204.968279 
L 352.149567 206.154494 
L 352.501332 221.987416 
L 352.677168 224.202069 
L 353.02875 237.571277 
L 353.380209 240.102936 
L 353.555893 240.172038 
L 353.731547 239.540035 
L 353.90717 242.463781 
L 354.082763 241.877168 
L 354.258325 242.591752 
L 354.433857 244.113337 
L 354.609358 244.054536 
L 354.784829 250.193318 
L 354.960269 249.651366 
L 355.135679 250.061943 
L 355.311059 249.761171 
L 355.661726 252.862691 
L 355.837015 253.974237 
L 356.012273 253.398441 
L 356.1875 251.871046 
L 356.362698 252.575669 
L 356.713001 250.178591 
L 356.888107 249.826531 
L 357.063183 248.475386 
L 357.238228 249.176101 
L 357.413244 250.686778 
L 357.588228 248.304714 
L 357.763183 247.661371 
L 357.938107 247.59925 
L 358.462698 244.775647 
L 358.637502 245.025803 
L 358.812275 246.255694 
L 359.16173 258.564699 
L 359.336412 257.537261 
L 359.511064 257.272945 
L 359.685686 258.013007 
L 360.38387 252.351682 
L 360.558341 252.446982 
L 361.081573 249.692876 
L 361.255923 251.515774 
L 361.430243 250.472581 
L 361.604533 250.783785 
L 361.778792 250.146197 
L 361.953022 252.502948 
L 362.301391 249.655074 
L 362.64964 245.35106 
L 362.823719 243.940167 
L 362.997768 246.934293 
L 363.171787 246.205946 
L 363.345776 248.954044 
L 364.041431 243.726624 
L 364.21527 243.911548 
L 364.389079 242.930146 
L 364.562858 246.799595 
L 365.084014 244.041651 
L 365.257673 246.790515 
L 365.431302 246.274658 
L 366.645867 239.264009 
L 366.992616 237.993792 
L 367.512516 234.01163 
L 367.685756 234.534793 
L 367.858966 233.951325 
L 368.205297 231.345528 
L 368.551509 234.635018 
L 368.72457 235.608441 
L 368.897601 234.438049 
L 369.070603 236.598393 
L 369.589429 233.25488 
L 369.762312 232.507124 
L 369.935164 233.787657 
L 370.28078 232.509309 
L 370.453544 237.342265 
L 370.798982 235.029022 
L 370.971656 234.551146 
L 371.316915 236.580667 
L 371.489501 240.01652 
L 372.179545 234.970387 
L 372.351981 234.920029 
L 372.524389 240.611615 
L 373.213721 235.808292 
L 373.38598 235.528854 
L 373.55821 235.504574 
L 373.73041 237.508032 
L 373.90258 242.250656 
L 374.590966 237.423838 
L 374.762988 237.508851 
L 374.934981 241.574927 
L 375.106945 240.445492 
L 375.278879 241.04213 
L 375.450783 240.989285 
L 375.622658 244.688304 
L 376.138106 242.144817 
L 376.309863 242.956208 
L 376.996596 239.910697 
L 377.168206 243.563576 
L 377.339786 242.370443 
L 377.511337 242.167628 
L 378.025813 240.0489 
L 378.197246 240.455078 
L 378.36865 240.501018 
L 378.540025 239.439092 
L 378.71137 242.382124 
L 378.882685 241.829701 
L 379.225229 248.109266 
L 379.738824 244.553087 
L 380.081074 244.517311 
L 380.252155 243.531032 
L 380.423207 246.103577 
L 380.594229 245.952451 
L 380.765223 246.441995 
L 381.61975 240.110677 
L 381.790567 244.480537 
L 381.961356 243.992414 
L 382.132115 242.9271 
L 382.302845 243.563668 
L 382.81486 240.491007 
L 382.985473 239.892164 
L 383.156057 238.740313 
L 383.326612 243.860599 
L 383.838102 240.420425 
L 384.008541 240.90508 
L 384.34933 238.623876 
L 384.519681 243.334341 
L 384.690003 242.198213 
L 384.860295 242.957091 
L 385.370999 239.890781 
L 385.541175 248.483072 
L 385.711323 247.973055 
L 386.05153 246.162886 
L 386.22159 247.105642 
L 386.561624 244.87294 
L 386.731597 245.71299 
L 387.581028 241.779077 
L 387.750827 242.570688 
L 387.920597 242.399628 
L 388.090338 241.8206 
L 388.26005 244.246185 
L 388.599388 242.33866 
L 388.769014 242.503416 
L 388.93861 247.79514 
L 389.108178 249.447287 
L 389.277717 249.425411 
L 389.786159 246.225264 
L 389.955582 247.405699 
L 390.124977 250.131758 
L 390.294342 249.700608 
L 390.632987 247.566457 
L 390.802265 248.661015 
L 390.971515 248.045342 
L 391.309929 245.927835 
L 391.479093 244.872125 
L 391.648228 246.07336 
L 391.817334 245.178387 
L 391.986411 245.406813 
L 392.155459 244.358968 
L 392.662432 237.995134 
L 392.831365 236.954816 
L 393.169146 242.452418 
L 393.506811 240.782351 
L 393.675601 245.249683 
L 393.844362 246.11324 
L 394.013094 250.523719 
L 394.856325 244.805961 
L 395.024886 245.29505 
L 395.867257 239.839905 
L 396.035646 240.108416 
L 396.204006 240.149133 
L 396.372337 240.987003 
L 396.54064 239.981174 
L 396.708914 241.750041 
L 397.213564 238.743332 
L 397.381724 238.73216 
L 397.717958 238.073935 
L 397.886032 242.009069 
L 398.054078 241.857353 
L 398.390084 240.990036 
L 398.558044 243.204603 
L 399.397417 238.179889 
L 399.565206 238.819683 
L 399.732967 241.172524 
L 400.068403 240.261029 
L 400.236079 241.554776 
L 400.403726 240.570096 
L 400.738935 236.817894 
L 401.07403 234.852628 
L 401.409011 238.581076 
L 401.57646 239.89133 
L 402.245969 236.020347 
L 402.413276 238.924342 
L 402.580554 239.573721 
L 402.747804 240.693691 
L 403.082218 238.991319 
L 403.249383 239.436795 
L 403.41652 242.680066 
L 403.583628 243.692698 
L 403.750708 247.26191 
L 404.084784 245.308626 
L 404.251779 241.66722 
L 404.752595 238.738263 
L 404.919477 239.7758 
L 405.086331 243.321519 
L 405.253157 242.694966 
L 405.419955 243.04512 
L 405.753465 241.104442 
L 405.920179 243.118484 
L 406.086863 242.141917 
L 406.25352 242.81727 
L 406.420149 241.840491 
L 406.586749 243.347652 
L 406.753321 243.564422 
L 406.919865 244.492512 
L 407.086381 244.094026 
L 407.252869 243.152765 
L 407.419329 244.309551 
L 407.58576 244.573865 
L 407.752164 243.596012 
L 407.918539 244.40269 
L 408.251205 242.193112 
L 408.417496 242.468853 
L 408.583759 241.490404 
L 408.749994 242.127706 
L 409.248531 239.191609 
L 409.414654 241.709762 
L 409.580748 241.71969 
L 409.912854 244.814369 
L 410.078864 245.270377 
L 410.244847 247.764271 
L 410.410802 247.364121 
L 410.576728 249.110406 
L 411.07434 246.82488 
L 411.240155 246.316324 
L 411.571701 244.358728 
L 411.903135 240.652741 
L 412.234457 238.695335 
L 412.565668 237.533882 
L 412.731231 238.400214 
L 412.896767 237.723072 
L 413.062274 237.974459 
L 413.227754 236.995894 
L 413.393206 239.634912 
L 413.55863 239.53666 
L 413.889395 245.827708 
L 414.054735 246.706252 
L 414.220048 245.896618 
L 414.385333 246.172267 
L 414.55059 245.736476 
L 414.715819 245.638334 
L 414.881021 245.395497 
L 415.21134 243.728097 
L 415.21134 243.728097 
" clip-path="url(#pe00edaad43)" style="fill: none; stroke: #c85152; stroke-linecap: round"/>
   </g>
   <g id="line2d_16">
    <path d="M 94.587305 145.559327 
L 94.810768 145.431208 
L 95.034188 146.034181 
L 95.257563 145.160587 
L 95.480895 143.713524 
L 95.927428 138.640101 
L 96.150629 137.393308 
L 96.373786 136.791363 
L 96.5969 135.415016 
L 96.81997 133.249876 
L 97.711814 114.965819 
L 97.934666 114.174424 
L 98.157474 111.662198 
L 98.380239 112.346123 
L 98.602961 106.349131 
L 98.825639 105.153782 
L 99.270864 107.26218 
L 99.715915 114.069423 
L 100.160793 116.171286 
L 100.605497 113.911561 
L 100.827784 114.228117 
L 101.272227 115.804302 
L 101.938567 118.246471 
L 102.160594 114.800644 
L 102.604518 116.391867 
L 102.826414 116.769874 
L 103.048268 117.80601 
L 103.270078 117.149251 
L 103.491845 117.164892 
L 104.82154 120.453847 
L 105.043005 119.971676 
L 105.264426 120.692057 
L 105.485804 119.547199 
L 106.149681 122.553319 
L 106.59205 121.108103 
L 106.81317 121.386225 
L 107.034246 119.827556 
L 107.25528 120.818671 
L 107.476271 119.743566 
L 107.697219 120.286386 
L 107.918123 120.225124 
L 109.683815 128.633177 
L 109.904333 128.108109 
L 110.124809 128.670232 
L 110.345241 127.73918 
L 110.565631 128.554736 
L 110.785978 127.676421 
L 111.006282 125.362278 
L 111.226543 125.038456 
L 111.446762 125.801835 
L 111.88707 125.730553 
L 112.327208 123.51426 
L 112.547213 124.036964 
L 112.987094 125.935773 
L 113.20697 128.215017 
L 113.426804 133.301761 
L 113.866344 135.182802 
L 114.08605 134.901524 
L 114.305713 135.349165 
L 114.525334 135.307238 
L 114.964447 136.521451 
L 115.18394 136.788484 
L 115.403391 136.107276 
L 115.622798 136.728487 
L 115.842164 136.87455 
L 116.500004 139.46501 
L 116.719199 140.333967 
L 116.938352 138.749551 
L 117.157462 138.137906 
L 117.814538 134.957565 
L 118.033478 135.384235 
L 118.471232 134.181461 
L 118.690045 134.128896 
L 119.34623 136.797243 
L 119.564874 136.52142 
L 119.783476 136.601929 
L 120.002035 134.630437 
L 120.439026 135.05358 
L 120.657458 135.584629 
L 120.875848 134.723112 
L 121.094196 132.497706 
L 121.312502 133.366702 
L 121.530765 133.746278 
L 121.967165 135.230532 
L 122.185302 133.654535 
L 122.403396 134.427574 
L 122.839459 133.545192 
L 123.275353 134.891553 
L 123.711078 134.39564 
L 123.928878 133.306383 
L 124.146635 134.150647 
L 124.364351 134.477127 
L 124.799655 136.673313 
L 125.017245 137.123899 
L 125.452297 138.765862 
L 125.669761 138.982509 
L 125.887182 139.799783 
L 126.104561 138.795044 
L 126.539194 139.3044 
L 126.973659 140.037683 
L 127.190829 139.427523 
L 127.625043 140.769273 
L 127.842087 140.986617 
L 128.059089 140.686575 
L 128.276049 141.360012 
L 128.492968 141.071647 
L 128.926679 140.089448 
L 129.360223 141.423955 
L 129.793601 140.931993 
L 130.010227 140.676532 
L 130.226811 137.996793 
L 130.443353 138.612514 
L 130.659854 138.653101 
L 130.876313 139.26532 
L 131.09273 138.671527 
L 131.309106 138.792591 
L 131.52544 138.639305 
L 131.741732 138.856687 
L 131.957983 135.674476 
L 132.174192 134.626027 
L 132.39036 134.636115 
L 133.470573 117.160829 
L 134.118203 99.992806 
L 134.765458 66.070782 
L 135.196755 44.435839 
L 135.412341 37.814259 
L 135.627886 34.873905 
L 135.843389 34.740289 
L 136.274271 36.212869 
L 136.920284 72.831917 
L 137.350752 100.349024 
L 137.781055 119.309228 
L 138.211193 131.776553 
L 138.641165 137.507184 
L 139.285815 139.35462 
L 139.500616 139.696084 
L 140.359406 142.404004 
L 140.574001 142.498925 
L 140.788555 140.640719 
L 141.003067 140.499185 
L 141.217539 139.880972 
L 141.646358 140.898469 
L 141.860706 141.129202 
L 142.075013 141.771811 
L 142.289279 137.364469 
L 142.503504 136.737656 
L 142.717687 133.555084 
L 142.93183 133.837509 
L 143.359992 131.637227 
L 143.787991 129.921212 
L 144.001928 129.880774 
L 144.215825 129.305382 
L 144.85727 118.577575 
L 145.071003 118.255963 
L 145.498346 112.079435 
L 145.711956 105.479023 
L 146.565989 94.367719 
L 146.779395 94.910594 
L 146.99276 95.133127 
L 147.206085 95.666044 
L 147.419368 96.710008 
L 148.058975 108.857044 
L 148.698214 126.290528 
L 148.911213 126.782416 
L 149.337087 128.108805 
L 149.549964 127.165713 
L 149.7628 125.371576 
L 149.975595 124.733354 
L 150.188349 125.079048 
L 150.401063 124.631114 
L 150.613736 124.550761 
L 150.826369 124.651677 
L 151.251512 123.877963 
L 151.464023 123.060769 
L 151.676493 123.485848 
L 151.888923 123.605033 
L 152.101312 123.590394 
L 152.313661 123.915045 
L 152.525969 124.83707 
L 152.950464 125.721047 
L 153.162651 127.345991 
L 153.374797 128.077625 
L 153.586903 129.879943 
L 153.798968 134.200878 
L 154.010993 135.378048 
L 154.222978 139.747736 
L 154.646826 140.489855 
L 154.858689 141.378046 
L 155.705739 142.583452 
L 156.552143 143.770889 
L 156.763644 143.506504 
L 156.975104 139.22451 
L 157.186524 139.182047 
L 157.820542 139.61996 
L 158.031801 135.476917 
L 158.24302 134.469509 
L 158.454198 134.633776 
L 158.665337 134.091771 
L 158.876435 134.133656 
L 159.298511 128.672349 
L 160.352999 130.045755 
L 160.563776 129.110196 
L 160.985211 129.606855 
L 161.195868 132.071197 
L 161.406485 132.768307 
L 161.827599 133.233081 
L 162.038096 133.058086 
L 162.458971 130.846868 
L 163.089983 131.478306 
L 163.30024 132.655687 
L 163.720635 133.307116 
L 164.140871 133.684963 
L 164.350929 133.380718 
L 164.560947 132.413243 
L 164.770925 132.087082 
L 164.980864 129.692897 
L 165.190762 128.986581 
L 165.400621 129.122389 
L 165.61044 128.380124 
L 165.820219 128.279368 
L 166.658938 112.817927 
L 167.078059 113.09454 
L 167.28756 116.539333 
L 167.497022 117.916578 
L 167.706443 120.910492 
L 167.915825 121.564567 
L 168.96214 129.160863 
L 169.171284 130.054711 
L 169.380389 133.970408 
L 170.007465 136.081479 
L 170.216411 136.201448 
L 170.425318 136.648437 
L 171.051801 136.89854 
L 171.26055 137.636236 
L 171.469259 136.980926 
L 171.677929 137.054278 
L 171.886559 135.64869 
L 172.303701 135.783536 
L 172.720685 136.052585 
L 172.929118 136.65684 
L 173.345866 136.769389 
L 173.554181 136.191746 
L 173.762457 136.242797 
L 173.970693 134.442569 
L 174.17889 134.131228 
L 174.387048 134.176321 
L 174.595166 133.359386 
L 175.427246 133.513876 
L 175.635168 134.250576 
L 175.84305 134.3692 
L 176.050894 135.088292 
L 176.258698 135.117716 
L 176.466463 137.48227 
L 176.674188 138.096433 
L 176.881875 139.311241 
L 177.29713 139.357046 
L 177.504699 139.248931 
L 177.712229 137.662988 
L 177.91972 137.681341 
L 178.127171 137.368748 
L 178.334584 137.269978 
L 178.749291 134.832605 
L 178.956586 134.429317 
L 179.163842 132.448033 
L 179.578237 131.765022 
L 179.785376 131.128077 
L 179.992476 130.934516 
L 180.199537 129.980197 
L 180.613542 129.989636 
L 181.027391 134.35337 
L 181.234257 134.942712 
L 181.441084 135.12983 
L 181.647872 136.233597 
L 181.854621 136.232759 
L 182.474635 138.275727 
L 182.681228 138.271987 
L 182.887783 138.826654 
L 183.300776 138.858889 
L 183.713613 138.802598 
L 184.332578 136.169049 
L 184.745027 136.149664 
L 184.951194 137.787625 
L 185.157321 138.249484 
L 185.36341 138.237672 
L 185.569461 137.752184 
L 185.981445 137.739821 
L 186.187379 137.037434 
L 186.393275 137.022499 
L 186.599131 136.089451 
L 186.804949 132.948097 
L 187.21647 132.91354 
L 187.627835 136.732367 
L 188.039047 136.692077 
L 188.244594 135.98271 
L 188.450104 134.7565 
L 188.861006 134.710044 
L 189.0664 135.101327 
L 189.271755 137.484391 
L 189.477071 137.458279 
L 189.682349 137.603331 
L 189.887588 137.403461 
L 190.297952 136.857663 
L 190.503076 136.956089 
L 190.708161 136.92454 
L 190.913208 136.762993 
L 191.323187 134.859977 
L 192.142683 134.710974 
L 192.347462 135.373345 
L 192.552202 135.332115 
L 192.756903 136.995594 
L 193.166191 136.978748 
L 193.779835 136.836419 
L 193.984307 136.413608 
L 194.18874 136.677523 
L 194.393135 137.742818 
L 194.597492 137.688531 
L 194.801811 138.593254 
L 195.210333 138.477266 
L 195.618703 135.975373 
L 196.026919 135.846584 
L 196.23097 137.843915 
L 196.434983 137.7752 
L 196.638958 138.536132 
L 196.842895 138.46377 
L 197.046793 139.034607 
L 197.65826 138.800006 
L 198.065715 137.300004 
L 198.269385 132.740673 
L 198.67661 132.560329 
L 198.880166 135.075599 
L 199.083684 135.33775 
L 199.287164 135.898406 
L 199.69401 135.693014 
L 199.897376 134.984186 
L 200.100704 134.874661 
L 200.71046 133.740378 
L 201.725961 133.160517 
L 201.928948 133.195547 
L 202.334808 132.91168 
L 202.537681 132.090978 
L 202.943314 131.786927 
L 203.146073 133.52202 
L 203.754126 132.929249 
L 203.956734 131.625565 
L 204.159305 131.450811 
L 204.766791 130.518017 
L 204.969211 130.328912 
L 205.171593 129.620125 
L 205.576244 129.223824 
L 205.778513 127.558017 
L 206.182939 127.139854 
L 206.385095 128.44482 
L 206.789294 128.004628 
L 206.991338 126.331126 
L 207.193343 125.958435 
L 207.395312 125.065958 
L 207.799135 124.588676 
L 208.00099 125.835301 
L 208.202808 126.347073 
L 208.404589 128.21694 
L 208.606332 128.14777 
L 208.808037 128.848928 
L 209.009705 128.95855 
L 209.211335 128.691656 
L 209.614483 127.487013 
L 209.816001 125.631785 
L 210.218925 125.063586 
L 210.42033 126.895338 
L 210.823029 126.30399 
L 211.225578 125.410409 
L 211.426797 125.101127 
L 211.627978 125.146318 
L 211.829122 125.015566 
L 212.231298 127.638003 
L 212.633324 126.9762 
L 213.035201 125.983158 
L 213.236084 125.638354 
L 213.436929 125.533258 
L 213.838508 127.71938 
L 214.239938 126.993682 
L 214.440597 125.535294 
L 214.841804 124.785327 
L 215.042352 126.425527 
L 215.242862 126.613782 
L 215.443335 127.858764 
L 215.84417 127.569713 
L 216.445144 126.467332 
L 216.645394 128.533381 
L 216.845608 128.229951 
L 217.045784 129.05485 
L 217.64609 127.762966 
L 217.846118 127.954707 
L 218.046109 129.016695 
L 218.246063 129.400706 
L 218.44598 128.949041 
L 218.845703 129.810574 
L 219.245277 128.877515 
L 220.043983 126.888567 
L 220.243568 129.179627 
L 220.443115 129.488136 
L 220.642625 132.731106 
L 221.838913 130.008422 
L 222.038166 131.716344 
L 222.43656 130.962316 
L 222.635702 131.310129 
L 222.834807 131.266741 
L 223.033875 131.692302 
L 224.028665 128.79974 
L 224.227513 129.172781 
L 224.426325 133.584553 
L 224.625099 133.921307 
L 225.022538 132.963735 
L 225.221202 132.888008 
L 225.41983 131.647522 
L 225.618421 131.693673 
L 225.816976 131.377954 
L 226.213975 130.420898 
L 226.412419 131.055514 
L 226.610827 130.497032 
L 227.007534 131.520787 
L 227.205832 131.511913 
L 227.404094 130.983921 
L 227.602319 131.270052 
L 227.800508 131.954635 
L 227.99866 131.890901 
L 228.196775 131.695323 
L 228.592897 130.722497 
L 228.790903 131.866292 
L 229.186806 130.705644 
L 229.582563 131.527625 
L 229.978174 136.110255 
L 230.37364 135.250708 
L 230.966565 133.063725 
L 231.361667 132.083143 
L 231.954047 135.372182 
L 232.151434 135.51898 
L 232.348785 137.269733 
L 232.5461 136.581946 
L 232.743379 136.322746 
L 233.53213 133.867629 
L 233.729227 133.774047 
L 233.926288 134.052099 
L 234.123313 135.303934 
L 234.320302 135.32198 
L 234.517254 137.79048 
L 234.71417 137.864165 
L 234.91105 137.75074 
L 235.304702 137.120504 
L 235.698209 137.692183 
L 236.288198 135.579105 
L 236.484789 135.662566 
L 236.681344 137.193677 
L 236.877863 137.506126 
L 237.074346 136.800663 
L 237.270792 137.213305 
L 237.467203 136.507796 
L 237.663577 136.633793 
L 238.056219 135.725003 
L 238.448716 134.530353 
L 238.64491 134.485384 
L 238.841069 133.781358 
L 239.233278 133.994503 
L 239.429329 133.291886 
L 239.625344 134.46777 
L 239.821322 134.354101 
L 240.213172 137.096254 
L 240.409044 136.483034 
L 240.604879 136.501398 
L 240.996442 134.376187 
L 241.192169 133.694913 
L 241.387861 133.645424 
L 241.583517 132.951926 
L 241.974721 133.804681 
L 242.17027 136.641212 
L 242.365783 136.94167 
L 242.561259 136.87074 
L 242.756701 138.148706 
L 242.952106 137.650518 
L 243.147475 138.228949 
L 243.342809 138.034787 
L 243.73337 136.963075 
L 243.928596 136.458322 
L 244.123787 137.618138 
L 244.318943 137.704513 
L 244.514062 139.054141 
L 245.099207 137.092985 
L 245.489125 138.805243 
L 245.68403 138.60342 
L 245.8789 138.01648 
L 246.268533 140.962719 
L 246.463297 140.310016 
L 246.658024 140.548096 
L 246.852716 139.899384 
L 247.047373 139.74007 
L 247.436579 138.45261 
L 247.825643 136.742983 
L 248.020122 136.106126 
L 248.214565 136.560682 
L 248.603345 138.866049 
L 248.797682 139.584335 
L 249.380479 137.707694 
L 249.574674 136.856378 
L 249.768834 134.945997 
L 250.157047 133.710708 
L 250.739101 137.819244 
L 250.933048 138.097647 
L 251.320836 136.537351 
L 251.902253 135.067773 
L 252.095989 134.93901 
L 252.289688 134.983564 
L 252.483353 134.785674 
L 253.064135 133.138345 
L 253.257659 133.475507 
L 253.451147 133.412346 
L 253.838018 134.521911 
L 254.0314 134.347041 
L 254.41806 133.311914 
L 254.611337 133.354707 
L 254.804578 133.627666 
L 255.190957 132.785315 
L 255.577194 131.788029 
L 255.77026 132.379808 
L 255.963291 133.875288 
L 256.156287 133.292684 
L 256.349248 133.097633 
L 256.735064 131.934771 
L 256.927919 133.575912 
L 257.12074 134.099247 
L 257.313525 133.590749 
L 257.506275 133.598595 
L 257.698991 135.55628 
L 257.891671 136.037623 
L 258.084316 136.203749 
L 258.276926 135.710573 
L 258.662042 136.874737 
L 259.047018 135.71662 
L 259.239453 136.614019 
L 259.624219 135.555737 
L 259.816549 135.520912 
L 260.008845 134.941125 
L 260.201106 135.794613 
L 260.585522 134.633602 
L 260.777678 135.98783 
L 260.9698 136.209163 
L 261.353937 135.345954 
L 261.545954 134.763076 
L 261.737936 136.086245 
L 262.313672 134.403983 
L 262.505515 136.154659 
L 262.697322 135.998014 
L 262.889095 136.4857 
L 263.080834 136.542535 
L 263.65584 135.102385 
L 263.847439 135.528423 
L 264.230533 134.671674 
L 264.422028 134.722006 
L 264.613489 134.527578 
L 264.996306 132.515526 
L 265.187662 132.891143 
L 265.570271 131.818201 
L 265.952741 136.202018 
L 266.717266 133.772105 
L 266.908311 133.93522 
L 267.099321 133.523456 
L 267.290297 134.17101 
L 267.481238 133.641542 
L 267.672145 135.017114 
L 268.053854 133.792585 
L 268.244657 133.858796 
L 268.62616 132.839339 
L 269.007524 133.834233 
L 269.198155 135.167625 
L 269.388751 134.535257 
L 269.579313 134.48879 
L 269.76984 133.88137 
L 269.960333 133.91714 
L 270.150791 135.470529 
L 271.102567 132.097865 
L 271.29282 132.277341 
L 271.483037 131.967324 
L 271.673221 132.070917 
L 271.86337 134.910418 
L 272.053484 134.766011 
L 272.243565 136.353995 
L 272.433611 135.9615 
L 272.623623 136.383892 
L 273.573167 133.702412 
L 273.762974 134.240036 
L 273.952746 134.173215 
L 274.142483 135.953272 
L 275.090659 132.431725 
L 275.280192 135.272403 
L 275.46969 135.730958 
L 275.848584 134.318323 
L 276.03798 131.214277 
L 276.41667 129.786685 
L 276.605964 130.560001 
L 276.795223 132.534965 
L 277.17364 133.223195 
L 277.362797 134.875187 
L 277.551921 134.14497 
L 277.74101 135.59117 
L 277.930065 134.855846 
L 278.119086 135.13577 
L 278.308073 133.377517 
L 278.497026 133.652317 
L 278.685945 132.906745 
L 278.87483 133.936187 
L 279.063682 134.188956 
L 279.252499 134.754535 
L 279.441282 134.500438 
L 279.630031 134.702512 
L 279.818746 135.246079 
L 280.196075 134.160949 
L 280.384689 134.180829 
L 281.327247 130.486853 
L 281.515658 132.556101 
L 281.892376 132.05698 
L 282.080685 131.337892 
L 282.26896 132.064269 
L 282.457201 131.469409 
L 282.645408 131.345237 
L 282.833581 131.491074 
L 283.209826 130.342179 
L 283.397898 130.939735 
L 283.961912 133.736396 
L 284.337752 132.316226 
L 284.525621 133.0148 
L 284.713457 132.722011 
L 285.089028 131.456055 
L 285.276762 132.045469 
L 285.464463 133.048442 
L 285.652131 132.759087 
L 285.839764 132.754305 
L 286.027365 133.406827 
L 286.214931 132.609379 
L 286.402464 133.802455 
L 286.589963 133.71762 
L 287.152259 131.429639 
L 287.526955 130.654155 
L 287.714253 132.22027 
L 287.901517 131.361805 
L 288.088747 131.246887 
L 288.650238 128.654713 
L 289.024397 131.86325 
L 289.211426 132.626259 
L 289.772314 130.532719 
L 289.959209 130.529168 
L 290.146071 131.040047 
L 290.3329 131.147918 
L 290.706457 133.423183 
L 290.893185 133.727029 
L 291.07988 133.742641 
L 291.266542 135.218953 
L 291.826326 133.360276 
L 292.012855 133.469005 
L 292.199349 133.14632 
L 292.385811 134.900934 
L 292.572239 134.661649 
L 292.758633 135.152209 
L 292.944995 135.025128 
L 293.317618 133.376917 
L 293.503879 133.361071 
L 293.690108 134.333289 
L 293.876303 133.870941 
L 294.062464 133.837657 
L 294.434688 132.59277 
L 294.62075 132.929462 
L 294.806779 134.111103 
L 294.992774 134.331484 
L 295.178736 134.135389 
L 295.736424 135.937036 
L 296.10805 135.496214 
L 296.479544 133.820672 
L 296.665241 133.921283 
L 297.036535 136.042526 
L 297.222133 136.214004 
L 297.407697 136.041268 
L 297.778727 138.920948 
L 298.149625 137.084247 
L 298.335024 136.997439 
L 298.52039 136.122309 
L 298.891023 132.982059 
L 299.07629 133.354724 
L 299.446725 131.520617 
L 299.631893 132.396024 
L 299.817028 134.318332 
L 300.372235 131.988758 
L 300.557238 131.074787 
L 300.927145 131.714472 
L 301.11205 132.823818 
L 301.296921 132.686756 
L 301.48176 132.837208 
L 301.666565 133.375563 
L 301.851338 135.176321 
L 302.220785 134.895816 
L 302.774709 132.956148 
L 302.959284 135.565974 
L 303.512814 135.375108 
L 303.697258 137.473977 
L 304.066048 136.78761 
L 304.250394 137.657975 
L 304.434707 137.884786 
L 304.618988 137.61144 
L 305.171633 135.038047 
L 305.355782 135.115474 
L 305.723983 134.702295 
L 305.908034 135.329924 
L 306.092053 137.034601 
L 306.276039 140.20342 
L 307.195479 135.434972 
L 307.379269 135.677387 
L 307.563026 135.104844 
L 307.746751 135.724316 
L 307.930443 135.02715 
L 308.114103 137.313972 
L 308.29773 137.725134 
L 308.481324 136.877084 
L 308.664886 136.66211 
L 308.848416 135.818726 
L 309.215377 137.85194 
L 309.398808 137.617821 
L 309.582208 137.916547 
L 309.765574 139.364556 
L 310.13221 137.996093 
L 310.315479 138.061046 
L 310.498716 137.426082 
L 310.68192 140.176774 
L 311.597455 136.550758 
L 311.780464 137.496019 
L 311.963441 137.483322 
L 312.329299 136.189573 
L 312.512178 136.657409 
L 312.877841 135.349829 
L 313.243375 136.546377 
L 313.426093 136.81141 
L 313.608779 136.505441 
L 313.791432 135.972505 
L 313.974053 135.843343 
L 314.339199 136.896634 
L 314.521723 136.702871 
L 314.704215 138.073988 
L 314.886675 138.071231 
L 315.251498 136.71074 
L 315.433861 136.628811 
L 315.79849 135.482513 
L 315.980756 136.066663 
L 316.16299 135.534832 
L 316.345192 135.535562 
L 316.709499 134.052524 
L 316.891604 134.059586 
L 317.073678 133.896692 
L 317.255718 133.907869 
L 317.437727 133.175633 
L 317.619704 133.993616 
L 317.801648 136.175436 
L 318.347289 134.747801 
L 318.529105 135.733168 
L 318.710889 138.325965 
L 319.437704 136.114698 
L 319.619328 135.405052 
L 319.800919 136.015979 
L 319.982479 135.639467 
L 320.164006 137.343247 
L 320.889796 134.827892 
L 321.252499 135.314081 
L 321.433803 136.010961 
L 321.615074 135.734482 
L 321.977521 138.224828 
L 322.339841 138.082896 
L 322.520953 138.114229 
L 323.064097 136.481019 
L 323.245081 136.00106 
L 323.426034 136.525669 
L 323.606954 136.63561 
L 324.330318 133.931371 
L 324.511079 135.766236 
L 324.691809 136.182722 
L 325.053173 137.806432 
L 325.233807 138.139122 
L 325.414409 138.214431 
L 325.59498 137.888963 
L 326.316944 135.574439 
L 326.497356 135.910727 
L 326.858085 138.275775 
L 327.579161 135.611023 
L 327.759351 137.295965 
L 327.939509 137.848362 
L 328.119636 137.497522 
L 329.019795 134.521066 
L 329.199731 135.530157 
L 329.379637 135.477901 
L 329.55951 136.38552 
L 329.739352 135.758605 
L 329.919163 137.653993 
L 330.098942 137.914378 
L 330.278689 137.485832 
L 330.638089 138.876614 
L 330.817742 142.100672 
L 331.536038 139.445582 
L 331.715533 139.165486 
L 331.894997 140.331724 
L 332.612537 137.582325 
L 332.791843 137.578209 
L 332.971118 138.331701 
L 333.150362 140.330088 
L 333.329574 140.405149 
L 333.867022 138.435797 
L 334.762141 134.72592 
L 335.119969 133.441583 
L 335.298836 133.510499 
L 335.477672 133.374762 
L 336.013992 131.308314 
L 336.371382 135.470755 
L 336.55003 135.853463 
L 336.728647 135.2996 
L 337.085786 135.051572 
L 337.442801 134.209745 
L 337.621262 134.13214 
L 337.978089 133.272509 
L 338.69137 132.259343 
L 338.869613 131.554126 
L 339.047824 135.372823 
L 339.226004 136.390011 
L 339.404153 136.583886 
L 339.58227 136.26975 
L 339.760357 137.841526 
L 339.938413 137.485941 
L 340.116437 137.912291 
L 341.006093 133.736411 
L 341.183931 133.448248 
L 341.539513 135.387968 
L 341.717258 135.221702 
L 341.894972 134.818771 
L 342.427927 132.11758 
L 342.605517 132.186467 
L 342.960604 130.781708 
L 343.1381 131.544257 
L 343.847778 127.405661 
L 344.556961 119.95766 
L 344.911368 116.530033 
L 345.619809 94.400112 
L 346.858395 38.451166 
L 347.212 34.686679 
L 347.388756 33.503662 
L 347.565481 34.320775 
L 347.91884 47.990851 
L 349.331044 108.305102 
L 349.860114 118.971918 
L 350.03641 120.002421 
L 350.565112 116.136577 
L 350.741285 113.174414 
L 351.26962 99.370087 
L 351.973639 94.487402 
L 352.325464 101.992975 
L 352.677168 110.144386 
L 353.02875 117.423547 
L 353.555893 129.068187 
L 353.731547 132.424444 
L 353.90717 133.155467 
L 354.258325 136.705723 
L 354.433857 137.962844 
L 354.609358 137.398382 
L 355.135679 141.463964 
L 355.311059 140.711297 
L 355.486408 141.965634 
L 355.661726 140.754553 
L 355.837015 143.070411 
L 356.1875 141.439686 
L 356.362698 141.277985 
L 356.537864 140.630048 
L 356.713001 141.545989 
L 356.888107 140.958211 
L 357.063183 141.690926 
L 357.238228 140.432826 
L 357.588228 141.305715 
L 357.763183 141.100322 
L 357.938107 140.3812 
L 358.287865 140.957425 
L 358.462698 139.629644 
L 358.812275 141.756297 
L 358.987017 144.4225 
L 359.16173 143.335971 
L 359.336412 143.256128 
L 359.511064 142.204777 
L 359.685686 142.92004 
L 359.860277 142.563592 
L 360.034838 142.683709 
L 360.20937 142.448997 
L 360.38387 142.991997 
L 360.558341 142.864883 
L 360.732782 142.211043 
L 360.907192 142.363691 
L 361.604533 140.560406 
L 361.778792 140.731825 
L 361.953022 142.311868 
L 362.301391 140.265141 
L 362.997768 136.560136 
L 363.345776 138.82929 
L 363.519735 139.180755 
L 363.693664 138.689941 
L 363.867563 138.718666 
L 364.041431 137.618327 
L 364.21527 137.41016 
L 364.389079 136.502897 
L 364.736607 136.38976 
L 365.084014 134.999217 
L 365.257673 134.710006 
L 365.431302 135.011593 
L 365.77847 133.416103 
L 366.125519 133.538197 
L 367.512516 126.654845 
L 367.858966 127.318863 
L 368.378418 124.886391 
L 368.551509 124.49151 
L 369.243575 120.183871 
L 369.589429 120.10852 
L 369.762312 121.608174 
L 369.935164 121.002801 
L 370.28078 122.665806 
L 370.453544 124.819447 
L 370.626278 125.283677 
L 370.798982 124.33084 
L 370.971656 124.627279 
L 371.1443 125.943601 
L 371.316915 126.401853 
L 371.662056 124.428661 
L 371.834582 124.978909 
L 372.179545 127.432722 
L 372.351981 127.658999 
L 372.524389 128.689915 
L 372.696766 128.661849 
L 372.869114 129.28068 
L 373.041433 129.456894 
L 373.38598 130.717676 
L 373.73041 128.874486 
L 374.074721 132.241592 
L 374.246832 132.013779 
L 374.418914 132.117241 
L 374.590966 132.408599 
L 374.762988 132.128053 
L 374.934981 133.06749 
L 375.106945 132.890229 
L 375.278879 132.528039 
L 375.450783 133.529114 
L 375.622658 133.657125 
L 375.96632 132.584059 
L 376.309863 133.910361 
L 376.48159 133.21364 
L 376.653289 133.392684 
L 376.824957 132.698576 
L 376.996596 133.080913 
L 377.168206 132.704769 
L 377.511337 131.28257 
L 377.682858 131.756048 
L 377.854351 134.008373 
L 378.025813 133.222873 
L 378.71137 137.863176 
L 379.396457 134.223306 
L 379.567655 133.606724 
L 379.909964 135.631375 
L 380.081074 135.921615 
L 380.252155 136.471123 
L 380.594229 135.624234 
L 380.765223 134.700902 
L 380.936187 134.782277 
L 381.107121 136.126396 
L 381.278027 136.281922 
L 381.448903 135.793601 
L 381.61975 134.776119 
L 381.790567 135.064398 
L 381.961356 135.913009 
L 382.302845 134.646599 
L 382.473546 135.54201 
L 382.81486 134.741977 
L 382.985473 135.25419 
L 383.156057 136.298111 
L 383.326612 136.540564 
L 383.497138 137.128384 
L 384.008541 134.885947 
L 384.17895 135.092065 
L 384.860295 136.517925 
L 385.030559 136.630555 
L 385.200794 136.601228 
L 385.370999 135.627174 
L 385.541175 135.471643 
L 385.711323 136.450019 
L 385.881441 135.695246 
L 386.05153 135.988383 
L 386.22159 135.136135 
L 386.561624 137.47855 
L 387.071456 135.72776 
L 387.241342 135.830433 
L 387.411199 137.841189 
L 387.581028 137.359091 
L 388.090338 134.559924 
L 388.26005 134.6429 
L 388.429734 133.867263 
L 388.599388 136.848989 
L 388.769014 137.266205 
L 388.93861 138.014647 
L 389.447226 135.509733 
L 389.786159 135.285654 
L 389.955582 138.752537 
L 390.294342 137.275982 
L 390.463679 137.622268 
L 390.632987 137.339289 
L 390.802265 136.384029 
L 390.971515 138.067937 
L 391.140737 137.172948 
L 391.309929 137.282878 
L 391.479093 137.0932 
L 392.49347 133.53304 
L 392.662432 133.324291 
L 392.831365 136.342296 
L 393.00027 136.078805 
L 393.675601 132.557414 
L 394.013094 135.3125 
L 394.181798 134.699207 
L 394.519119 137.088591 
L 394.856325 135.239242 
L 395.024886 135.477383 
L 395.530395 132.886781 
L 395.69884 132.928466 
L 395.867257 132.354755 
L 396.035646 133.516625 
L 396.204006 133.303295 
L 396.372337 135.470606 
L 396.708914 133.887612 
L 397.045376 134.358302 
L 397.213564 133.964256 
L 397.381724 133.284393 
L 397.549855 134.225297 
L 397.717958 133.790872 
L 398.054078 134.845478 
L 398.222095 133.969154 
L 398.390084 134.08277 
L 398.558044 133.96781 
L 398.725975 134.943108 
L 399.229599 133.45823 
L 399.397417 132.701915 
L 399.732967 133.986778 
L 399.900699 134.207344 
L 400.068403 133.840829 
L 400.571344 131.454972 
L 400.738935 130.875961 
L 401.241535 135.894412 
L 401.74388 134.280653 
L 401.911271 134.809387 
L 402.580554 131.797258 
L 402.915025 131.956907 
L 403.082218 133.521098 
L 403.249383 133.551833 
L 403.41652 134.787148 
L 403.583628 135.119737 
L 403.750708 136.083467 
L 403.91776 136.287802 
L 404.084784 136.062441 
L 404.418746 135.211379 
L 404.752595 136.812978 
L 405.253157 134.752221 
L 405.419955 135.862565 
L 405.586724 135.697334 
L 405.753465 136.736527 
L 406.420149 135.362247 
L 406.586749 136.474254 
L 407.086381 134.80839 
L 407.419329 136.288583 
L 407.58576 137.315619 
L 407.752164 136.966609 
L 408.251205 134.988561 
L 408.417496 135.442817 
L 408.583759 135.252082 
L 408.749994 134.84641 
L 408.916201 135.386954 
L 409.08238 136.515325 
L 409.248531 136.855329 
L 409.414654 136.091582 
L 409.580748 136.331372 
L 409.746815 135.467398 
L 409.912854 136.094349 
L 410.576728 133.742874 
L 411.07434 136.484423 
L 411.240155 135.778416 
L 411.405942 135.588492 
L 412.06881 133.309316 
L 412.234457 134.552948 
L 412.731231 131.947631 
L 412.896767 131.872414 
L 413.227754 131.277583 
L 413.393206 132.764915 
L 413.55863 132.532009 
L 413.889395 133.34204 
L 414.054735 133.238151 
L 414.220048 133.879699 
L 414.881021 130.840782 
L 415.21134 132.869315 
L 415.21134 132.869315 
" clip-path="url(#pe00edaad43)" style="fill: none; stroke: #f28360; stroke-linecap: round"/>
   </g>
   <g id="patch_3">
    <path d="M 81.762344 384.59888 
L 81.762344 20 
" style="fill: none; stroke: #000000; stroke-width: 0.75; stroke-linejoin: miter; stroke-linecap: square"/>
   </g>
   <g id="patch_4">
    <path d="M 81.762344 384.59888 
L 428.036302 384.59888 
" style="fill: none; stroke: #000000; stroke-width: 0.75; stroke-linejoin: miter; stroke-linecap: square"/>
   </g>
  </g>
 </g>
 <defs>
  <clipPath id="pe00edaad43">
   <rect x="81.762344" y="20" width="346.273958" height="364.59888"/>
  </clipPath>
 </defs>
</svg>
