<?xml version="1.0" encoding="utf-8" standalone="no"?>
<!DOCTYPE svg PUBLIC "-//W3C//DTD SVG 1.1//EN"
  "http://www.w3.org/Graphics/SVG/1.1/DTD/svg11.dtd">
<svg xmlns:xlink="http://www.w3.org/1999/xlink" width="463.984937pt" height="463.99896pt" viewBox="0 0 463.984937 463.99896" xmlns="http://www.w3.org/2000/svg" version="1.1">
 <metadata>
  <rdf:RDF xmlns:dc="http://purl.org/dc/elements/1.1/" xmlns:cc="http://creativecommons.org/ns#" xmlns:rdf="http://www.w3.org/1999/02/22-rdf-syntax-ns#">
   <cc:Work>
    <dc:type rdf:resource="http://purl.org/dc/dcmitype/StillImage"/>
    <dc:date>2025-02-07T21:29:22.834461</dc:date>
    <dc:format>image/svg+xml</dc:format>
    <dc:creator>
     <cc:Agent>
      <dc:title>Matplotlib v3.8.4, https://matplotlib.org/</dc:title>
     </cc:Agent>
    </dc:creator>
   </cc:Work>
  </rdf:RDF>
 </metadata>
 <defs>
  <style type="text/css">*{stroke-linejoin: round; stroke-linecap: butt}</style>
 </defs>
 <g id="figure_1">
  <g id="patch_1">
   <path d="M 0 463.99896 
L 463.984937 463.99896 
L 463.984937 0 
L 0 0 
L 0 463.99896 
z
" style="fill: none"/>
  </g>
  <g id="axes_1">
   <g id="patch_2">
    <path d="M 72.39625 397.163023 
L 437.660863 397.163023 
L 437.660863 20 
L 72.39625 20 
L 72.39625 397.163023 
z
" style="fill: none"/>
   </g>
   <g id="matplotlib.axis_1">
    <g id="xtick_1">
     <g id="line2d_1">
      <defs>
       <path id="m7021166f38" d="M 0 0 
L 0 5 
" style="stroke: #000000; stroke-width: 0.75"/>
      </defs>
      <g>
       <use xlink:href="#m7021166f38" x="129.012572" y="397.163023" style="stroke: #000000; stroke-width: 0.75"/>
      </g>
     </g>
     <g id="text_1">
      <text style="font: 14.5px &quot;Suisse Int&apos;l Mono&quot;; text-anchor: middle" x="129.012572" y="417.675522" transform="rotate(-0 129.012572 417.675522)">560</text>
     </g>
    </g>
    <g id="xtick_2">
     <g id="line2d_2">
      <g>
       <use xlink:href="#m7021166f38" x="189.197217" y="397.163023" style="stroke: #000000; stroke-width: 0.75"/>
      </g>
     </g>
     <g id="text_2">
      <text style="font: 14.5px &quot;Suisse Int&apos;l Mono&quot;; text-anchor: middle" x="189.197217" y="417.675522" transform="rotate(-0 189.197217 417.675522)">580</text>
     </g>
    </g>
    <g id="xtick_3">
     <g id="line2d_3">
      <g>
       <use xlink:href="#m7021166f38" x="249.381861" y="397.163023" style="stroke: #000000; stroke-width: 0.75"/>
      </g>
     </g>
     <g id="text_3">
      <text style="font: 14.5px &quot;Suisse Int&apos;l Mono&quot;; text-anchor: middle" x="249.381861" y="417.675522" transform="rotate(-0 249.381861 417.675522)">600</text>
     </g>
    </g>
    <g id="xtick_4">
     <g id="line2d_4">
      <g>
       <use xlink:href="#m7021166f38" x="309.566506" y="397.163023" style="stroke: #000000; stroke-width: 0.75"/>
      </g>
     </g>
     <g id="text_4">
      <text style="font: 14.5px &quot;Suisse Int&apos;l Mono&quot;; text-anchor: middle" x="309.566506" y="417.675522" transform="rotate(-0 309.566506 417.675522)">620</text>
     </g>
    </g>
    <g id="xtick_5">
     <g id="line2d_5">
      <g>
       <use xlink:href="#m7021166f38" x="369.751151" y="397.163023" style="stroke: #000000; stroke-width: 0.75"/>
      </g>
     </g>
     <g id="text_5">
      <text style="font: 14.5px &quot;Suisse Int&apos;l Mono&quot;; text-anchor: middle" x="369.751151" y="417.675522" transform="rotate(-0 369.751151 417.675522)">640</text>
     </g>
    </g>
    <g id="xtick_6">
     <g id="line2d_6">
      <g>
       <use xlink:href="#m7021166f38" x="429.935796" y="397.163023" style="stroke: #000000; stroke-width: 0.75"/>
      </g>
     </g>
     <g id="text_6">
      <text style="font: 14.5px &quot;Suisse Int&apos;l Mono&quot;; text-anchor: middle" x="429.935796" y="417.675522" transform="rotate(-0 429.935796 417.675522)">660</text>
     </g>
    </g>
    <g id="text_7">
     <text style="font: 500 15px &quot;Suisse Int&apos;l&quot;, sans-serif; text-anchor: middle" x="255.028556" y="441.088023" transform="rotate(-0 255.028556 441.088023)">Wavelength (nm)</text>
    </g>
   </g>
   <g id="matplotlib.axis_2">
    <g id="ytick_1">
     <g id="line2d_7">
      <defs>
       <path id="m616378a7ea" d="M 0 0 
L -5 0 
" style="stroke: #000000; stroke-width: 0.75"/>
      </defs>
      <g>
       <use xlink:href="#m616378a7ea" x="72.39625" y="382.945153" style="stroke: #000000; stroke-width: 0.75"/>
      </g>
     </g>
     <g id="text_8">
      <text style="font: 14.5px &quot;Suisse Int&apos;l Mono&quot;; text-anchor: end" x="62.39625" y="388.201403" transform="rotate(-0 62.39625 388.201403)">0</text>
     </g>
    </g>
    <g id="ytick_2">
     <g id="line2d_8">
      <g>
       <use xlink:href="#m616378a7ea" x="72.39625" y="324.786464" style="stroke: #000000; stroke-width: 0.75"/>
      </g>
     </g>
     <g id="text_9">
      <text style="font: 14.5px &quot;Suisse Int&apos;l Mono&quot;; text-anchor: end" x="62.39625" y="330.042714" transform="rotate(-0 62.39625 330.042714)">2</text>
     </g>
    </g>
    <g id="ytick_3">
     <g id="line2d_9">
      <g>
       <use xlink:href="#m616378a7ea" x="72.39625" y="266.627775" style="stroke: #000000; stroke-width: 0.75"/>
      </g>
     </g>
     <g id="text_10">
      <text style="font: 14.5px &quot;Suisse Int&apos;l Mono&quot;; text-anchor: end" x="62.39625" y="271.884025" transform="rotate(-0 62.39625 271.884025)">4</text>
     </g>
    </g>
    <g id="ytick_4">
     <g id="line2d_10">
      <g>
       <use xlink:href="#m616378a7ea" x="72.39625" y="208.469086" style="stroke: #000000; stroke-width: 0.75"/>
      </g>
     </g>
     <g id="text_11">
      <text style="font: 14.5px &quot;Suisse Int&apos;l Mono&quot;; text-anchor: end" x="62.39625" y="213.725336" transform="rotate(-0 62.39625 213.725336)">6</text>
     </g>
    </g>
    <g id="ytick_5">
     <g id="line2d_11">
      <g>
       <use xlink:href="#m616378a7ea" x="72.39625" y="150.310398" style="stroke: #000000; stroke-width: 0.75"/>
      </g>
     </g>
     <g id="text_12">
      <text style="font: 14.5px &quot;Suisse Int&apos;l Mono&quot;; text-anchor: end" x="62.39625" y="155.566648" transform="rotate(-0 62.39625 155.566648)">8</text>
     </g>
    </g>
    <g id="ytick_6">
     <g id="line2d_12">
      <g>
       <use xlink:href="#m616378a7ea" x="72.39625" y="92.151709" style="stroke: #000000; stroke-width: 0.75"/>
      </g>
     </g>
     <g id="text_13">
      <text style="font: 14.5px &quot;Suisse Int&apos;l Mono&quot;; text-anchor: end" x="62.39625" y="97.407959" transform="rotate(-0 62.39625 97.407959)">10</text>
     </g>
    </g>
    <g id="ytick_7">
     <g id="line2d_13">
      <g>
       <use xlink:href="#m616378a7ea" x="72.39625" y="33.99302" style="stroke: #000000; stroke-width: 0.75"/>
      </g>
     </g>
     <g id="text_14">
      <text style="font: 14.5px &quot;Suisse Int&apos;l Mono&quot;; text-anchor: end" x="62.39625" y="39.24927" transform="rotate(-0 62.39625 39.24927)">12</text>
     </g>
    </g>
    <g id="text_15">
     <text style="font: 500 15px &quot;Suisse Int&apos;l&quot;, sans-serif; text-anchor: middle" x="30.875" y="208.581511" transform="rotate(-90 30.875 208.581511)">Intensity (au)</text>
    </g>
   </g>
   <g id="line2d_14">
    <path d="M 85.924569 383.101043 
L 87.907224 383.054847 
L 88.402888 383.098384 
L 88.898552 383.070621 
L 89.228995 383.123434 
L 89.559437 383.079588 
L 89.88988 383.139033 
L 91.542093 383.071116 
L 93.524748 383.061702 
L 93.855191 383.01164 
L 94.516076 383.05514 
L 95.01174 382.968126 
L 95.342182 383.094171 
L 96.829174 383.099622 
L 97.159617 383.046919 
L 97.65528 383.096265 
L 97.985723 383.096284 
L 98.481387 383.134088 
L 104.759796 383.139331 
L 110.542541 383.096148 
L 110.707762 383.00931 
L 111.038205 383.095923 
L 116.82095 383.05192 
L 117.151392 382.935163 
L 118.638384 382.944219 
L 118.968826 383.129828 
L 121.777588 383.046712 
L 122.934137 383.079057 
L 124.58635 383.056543 
L 129.873431 383.083332 
L 130.203874 382.963161 
L 130.534317 383.043812 
L 135.325734 383.001001 
L 135.490955 382.78373 
L 135.656176 383.024023 
L 145.07379 382.921719 
L 145.404232 382.366015 
L 146.560781 382.349115 
L 146.891224 382.354934 
L 147.056445 382.702302 
L 147.71733 382.845552 
L 148.212994 382.859121 
L 148.873879 382.954068 
L 149.534765 383.057419 
L 151.682641 383.111282 
L 152.013084 383.016314 
L 152.508748 383.062486 
L 153.334854 383.048559 
L 154.656624 383.067552 
L 155.152288 382.98482 
L 155.482731 382.633493 
L 156.804501 382.689566 
L 157.300165 382.950028 
L 157.630608 382.884172 
L 158.126271 383.078014 
L 161.265476 383.009011 
L 161.76114 382.957428 
L 162.091582 383.041888 
L 162.752468 383.057239 
L 163.248131 383.035931 
L 163.743795 382.987201 
L 164.074238 382.862175 
L 164.239459 382.659165 
L 165.065566 382.641128 
L 165.726451 382.616179 
L 166.056893 382.920305 
L 167.213442 383.036746 
L 167.543885 382.956939 
L 172.500523 382.92358 
L 172.665745 382.775298 
L 173.161409 381.258503 
L 173.987515 381.216368 
L 174.317958 381.216473 
L 174.483179 381.583274 
L 174.813621 382.81771 
L 175.144064 382.94053 
L 175.804949 382.944636 
L 176.631056 382.82041 
L 177.457162 382.391372 
L 178.118047 374.36068 
L 178.44849 374.405566 
L 179.109375 374.712852 
L 179.274596 375.60564 
L 179.605039 381.609582 
L 179.77026 382.593941 
L 180.100703 382.841278 
L 180.431145 382.909572 
L 181.587694 382.947563 
L 181.752916 382.883611 
L 182.083358 382.94356 
L 185.718226 382.959464 
L 185.883448 382.763521 
L 186.048669 382.763572 
L 186.379112 382.913752 
L 189.518316 382.810283 
L 190.01398 381.341139 
L 191.170529 381.399584 
L 191.33575 381.626714 
L 191.666193 382.6452 
L 193.979291 382.609309 
L 194.144512 382.461664 
L 194.309733 381.78242 
L 194.640176 378.300383 
L 194.805397 377.680432 
L 195.301061 377.599128 
L 195.961946 377.655536 
L 196.45761 382.118084 
L 196.622831 382.389211 
L 198.109823 382.365984 
L 198.440266 382.243193 
L 199.762036 382.002781 
L 200.588142 381.708716 
L 201.414249 380.958163 
L 201.909913 380.304985 
L 202.075134 380.299451 
L 202.240355 380.149829 
L 202.90124 378.592769 
L 203.066462 378.16762 
L 203.396904 376.032277 
L 203.562125 373.791181 
L 203.727347 369.669233 
L 203.892568 342.844751 
L 204.388232 35.835648 
L 204.553453 34.056042 
L 205.875223 34.14949 
L 206.370887 352.651627 
L 206.70133 371.425931 
L 207.031772 376.500666 
L 207.362215 378.392405 
L 207.857879 379.76222 
L 208.353543 380.480889 
L 208.518764 380.504987 
L 208.849207 380.998126 
L 209.014428 381.008236 
L 209.179649 381.26337 
L 209.510092 381.286645 
L 209.840534 381.52057 
L 210.005756 381.520619 
L 210.170977 381.198702 
L 210.501419 380.206643 
L 210.997083 380.314442 
L 211.82319 380.63462 
L 212.153632 381.643364 
L 212.318854 381.798203 
L 212.484075 381.798252 
L 212.649296 381.253122 
L 212.814518 373.552292 
L 213.310181 305.840605 
L 213.475403 303.248521 
L 213.640624 302.997907 
L 213.805845 302.997956 
L 214.136288 303.410109 
L 214.301509 304.017044 
L 214.46673 306.444056 
L 214.631952 320.287908 
L 214.962394 372.636934 
L 215.127616 379.439863 
L 215.292837 379.602728 
L 215.458058 381.778988 
L 215.623279 382.09481 
L 215.788501 382.115476 
L 215.953722 382.331527 
L 216.779828 382.468214 
L 217.110271 382.576604 
L 217.605935 382.28494 
L 217.771156 382.652552 
L 218.26682 382.642319 
L 218.762484 382.646858 
L 218.927705 382.450069 
L 219.092926 381.800748 
L 219.423369 379.707744 
L 219.58859 379.340696 
L 219.753812 379.292037 
L 219.919033 378.983176 
L 220.249475 378.937591 
L 220.579918 377.935325 
L 220.745139 377.935374 
L 221.240803 380.772125 
L 221.406024 380.953629 
L 221.736467 381.040268 
L 221.901688 381.145148 
L 222.397352 382.282706 
L 222.562573 382.282755 
L 222.727795 382.046709 
L 224.049565 381.906272 
L 224.380008 381.976975 
L 224.545229 382.206635 
L 225.701778 382.184269 
L 226.03222 382.239124 
L 226.197442 382.816922 
L 228.014876 382.734083 
L 229.171425 382.416693 
L 229.997531 382.433358 
L 230.162753 382.219265 
L 230.988859 382.123452 
L 231.319302 381.651269 
L 231.484523 381.117768 
L 231.649744 373.784673 
L 231.814966 345.299758 
L 232.145408 256.113212 
L 232.310629 242.493367 
L 232.475851 239.631716 
L 232.641072 239.295896 
L 232.806293 239.295943 
L 232.971515 239.560031 
L 233.136736 240.40018 
L 233.301957 242.855688 
L 233.467178 258.247432 
L 233.962842 372.524744 
L 234.128064 378.757891 
L 234.458506 381.48333 
L 234.95417 382.281845 
L 235.284613 382.37383 
L 235.780276 382.375571 
L 235.945498 382.556056 
L 236.936825 382.564656 
L 237.267268 382.425809 
L 237.928153 382.135727 
L 238.423817 380.832446 
L 238.919481 380.92692 
L 239.745587 381.302803 
L 239.910809 381.93585 
L 240.07603 381.935897 
L 240.241251 382.362916 
L 240.571694 382.469441 
L 240.736915 381.558229 
L 240.902136 377.587608 
L 241.563021 343.719171 
L 241.728243 343.198698 
L 242.058685 343.097887 
L 242.389128 343.72057 
L 242.554349 345.626768 
L 242.71957 351.696256 
L 243.215234 380.461656 
L 243.545677 382.284647 
L 243.710898 382.556732 
L 244.702226 382.504439 
L 245.19789 381.316922 
L 245.858775 381.24325 
L 246.189218 380.813726 
L 246.354439 380.813773 
L 246.51966 381.066752 
L 246.850103 381.713833 
L 247.345767 382.192591 
L 247.676209 382.368063 
L 248.006652 382.8785 
L 248.502316 382.792246 
L 249.163201 382.588209 
L 250.484971 382.610798 
L 250.650192 382.81187 
L 256.102495 382.713642 
L 256.928601 382.591518 
L 257.093822 382.044083 
L 257.259044 378.197452 
L 257.589486 354.505956 
L 257.919929 338.519089 
L 258.08515 337.421678 
L 258.250371 337.10999 
L 258.415593 337.110032 
L 258.746035 337.543399 
L 258.911257 339.226554 
L 259.076478 344.9119 
L 259.572142 379.543665 
L 259.902584 382.181421 
L 260.233027 382.567709 
L 260.893912 382.712868 
L 262.380904 382.697652 
L 264.859223 382.675645 
L 265.024444 382.496758 
L 265.189666 382.496796 
L 265.520108 382.794877 
L 266.180993 382.725121 
L 266.841878 382.734573 
L 267.172321 382.600997 
L 267.667985 382.6654 
L 267.833206 382.421636 
L 268.494091 382.320875 
L 268.824534 382.239148 
L 269.320198 382.143295 
L 269.65064 381.998378 
L 269.981083 381.964398 
L 270.146304 381.8651 
L 270.311525 381.381314 
L 270.476747 375.594735 
L 270.641968 357.199178 
L 271.302853 233.947103 
L 271.468074 231.399498 
L 271.633296 231.188128 
L 271.798517 231.188164 
L 271.963738 231.724423 
L 272.12896 233.327895 
L 272.294181 244.140213 
L 272.459402 269.073751 
L 272.955066 374.202088 
L 273.285509 380.462013 
L 273.615951 381.626015 
L 274.442058 382.003443 
L 275.433385 381.904355 
L 276.09427 381.729704 
L 276.424713 381.461025 
L 276.589934 381.229648 
L 276.755156 380.613755 
L 276.920377 378.82797 
L 277.085598 361.802399 
L 277.25082 323.248459 
L 277.746483 142.296822 
L 277.911705 131.974564 
L 278.076926 129.160301 
L 278.242147 128.781143 
L 278.407369 128.781179 
L 278.57259 130.093857 
L 278.737811 132.934945 
L 278.903032 157.429676 
L 279.233475 288.675299 
L 279.398696 351.441937 
L 279.563918 371.056282 
L 279.89436 379.512715 
L 280.224803 381.249057 
L 280.720467 381.90287 
L 281.711794 382.294495 
L 282.042237 382.28692 
L 282.372679 382.401042 
L 283.033565 382.45478 
L 283.859671 382.349956 
L 284.190114 382.215246 
L 284.520556 382.28476 
L 285.842326 382.466825 
L 286.33799 382.50497 
L 286.668433 382.292502 
L 286.998875 380.387819 
L 287.329318 376.085225 
L 287.659761 374.882866 
L 287.990203 374.782906 
L 288.320646 374.825434 
L 288.485867 375.112484 
L 288.651088 375.897953 
L 289.146752 381.201291 
L 289.311973 381.26914 
L 289.477195 381.583844 
L 289.807637 381.543642 
L 290.13808 381.363481 
L 290.468522 380.922158 
L 290.798965 380.069246 
L 290.964186 377.844015 
L 291.129408 359.074352 
L 291.294629 315.100603 
L 291.790293 81.149826 
L 291.955514 65.127143 
L 292.285957 59.997619 
L 292.616399 60.006416 
L 292.78162 60.494985 
L 292.946842 61.829763 
L 293.112063 95.718867 
L 293.607727 357.353981 
L 293.93817 376.490297 
L 294.268612 379.577433 
L 294.599055 380.722534 
L 296.086046 381.750117 
L 296.746931 381.681723 
L 296.912153 381.645061 
L 297.077374 381.390798 
L 297.242595 377.969213 
L 297.407817 367.571261 
L 297.573038 347.59815 
L 297.90348 284.877275 
L 298.233923 268.802286 
L 298.399144 267.435012 
L 298.564366 266.998567 
L 298.729587 266.998603 
L 298.894808 268.625629 
L 299.060029 274.863766 
L 299.225251 288.889061 
L 299.886136 378.18661 
L 300.216578 381.402072 
L 300.547021 382.061926 
L 300.877464 382.171686 
L 301.538349 381.923087 
L 302.364455 382.014315 
L 302.860119 382.304665 
L 303.02534 382.304702 
L 303.355783 381.838312 
L 303.686225 381.393965 
L 303.851447 381.298098 
L 304.181889 381.387851 
L 304.512332 381.404237 
L 305.50366 382.516653 
L 307.321094 382.558664 
L 307.651536 382.677031 
L 310.129856 382.648991 
L 310.790741 382.307556 
L 311.616847 382.269452 
L 312.112511 382.292902 
L 312.442954 382.439179 
L 312.773396 381.92297 
L 313.103839 381.065253 
L 313.26906 380.268192 
L 313.434281 375.863751 
L 313.599503 367.429611 
L 314.260388 304.648601 
L 314.425609 302.450817 
L 314.59083 301.920152 
L 314.756052 301.920185 
L 314.921273 302.404098 
L 315.086494 304.255613 
L 315.251716 310.313164 
L 315.416937 321.216788 
L 315.912601 376.060821 
L 316.243043 381.315204 
L 316.573486 382.11091 
L 317.399592 382.483785 
L 317.730035 382.495308 
L 318.060477 382.640887 
L 319.71269 382.69765 
L 320.704018 382.652205 
L 320.869239 382.794927 
L 321.199682 382.76861 
L 321.530124 382.768667 
L 321.695346 382.549089 
L 321.860567 382.549117 
L 322.19101 382.736503 
L 324.008444 382.3707 
L 324.338886 382.434294 
L 324.669329 382.554564 
L 325.164993 382.566483 
L 325.660657 382.486045 
L 325.991099 382.414915 
L 326.321542 382.155146 
L 327.31287 381.436181 
L 327.478091 381.212879 
L 327.643312 381.212907 
L 327.808533 380.989722 
L 327.973755 379.672223 
L 328.138976 373.684901 
L 328.304197 356.650539 
L 328.469419 325.08174 
L 328.965082 166.919269 
L 329.295525 149.426936 
L 329.460746 146.692342 
L 329.625968 146.69237 
L 329.791189 148.091986 
L 329.95641 159.174734 
L 330.121631 180.766757 
L 330.452074 287.519121 
L 330.782517 367.452479 
L 331.112959 378.45674 
L 331.443402 380.863984 
L 331.773844 381.5668 
L 332.599951 382.131747 
L 332.930393 382.29014 
L 334.417385 382.597468 
L 336.730483 382.542926 
L 337.226147 382.261987 
L 338.217474 382.150692 
L 339.208802 382.102297 
L 339.374023 382.021862 
L 339.539245 381.114847 
L 339.704466 377.231881 
L 339.869687 369.767561 
L 340.034909 355.587337 
L 340.530572 295.448719 
L 340.861015 289.254293 
L 341.026236 288.104232 
L 341.191458 288.10426 
L 341.356679 289.933088 
L 341.5219 295.613184 
L 341.687121 305.285293 
L 342.348007 377.148054 
L 342.678449 380.948634 
L 343.008892 381.724963 
L 343.339334 381.733917 
L 343.669777 381.853198 
L 344.495883 382.15931 
L 344.991547 382.485547 
L 345.487211 382.462134 
L 345.817654 382.273756 
L 346.64376 382.195642 
L 347.139424 381.341462 
L 347.469867 380.327782 
L 348.130752 379.011239 
L 348.295973 378.470827 
L 348.461194 375.836412 
L 348.626416 366.727916 
L 348.791637 348.949996 
L 348.956858 316.397152 
L 349.452522 175.257438 
L 349.782965 160.328449 
L 349.948186 158.364167 
L 350.113407 158.364195 
L 350.278628 162.410323 
L 350.44385 174.455015 
L 350.609071 197.134896 
L 351.269956 368.578971 
L 351.600399 378.55359 
L 351.930841 381.064444 
L 352.261284 381.835596 
L 352.591726 382.002248 
L 352.756948 382.002275 
L 353.252612 382.267562 
L 353.913497 382.338162 
L 355.400488 382.244893 
L 355.730931 382.244949 
L 356.88748 382.50613 
L 360.191906 382.23305 
L 360.522348 382.000093 
L 360.852791 381.971214 
L 362.339782 380.823819 
L 362.835446 379.716328 
L 363.000668 377.756699 
L 363.165889 368.718809 
L 363.33111 347.962291 
L 363.496331 310.520918 
L 364.157217 74.969325 
L 364.322438 67.815834 
L 364.65288 64.399066 
L 364.818102 63.791336 
L 364.983323 63.791364 
L 365.148544 67.94683 
L 365.313766 109.053419 
L 365.809429 343.910211 
L 366.139872 371.741235 
L 366.470315 378.016758 
L 366.800757 379.638249 
L 366.965978 379.973358 
L 367.461642 380.062162 
L 367.957306 379.520759 
L 368.122527 379.042781 
L 368.287749 378.984476 
L 368.45297 378.501961 
L 368.618191 377.657263 
L 368.783413 374.731036 
L 368.948634 362.062357 
L 369.113855 331.717216 
L 369.444298 209.636368 
L 369.77474 52.413423 
L 369.939962 36.370376 
L 370.270404 34.520985 
L 370.931289 34.364068 
L 371.096511 34.480413 
L 371.261732 78.346632 
L 371.592174 313.617777 
L 371.922617 364.168202 
L 372.25306 375.626682 
L 372.583502 379.042688 
L 372.913945 379.967205 
L 373.079166 380.030277 
L 373.244387 380.74336 
L 373.409609 380.858803 
L 373.905272 381.675202 
L 374.8966 382.047992 
L 376.548813 382.147895 
L 376.879256 382.270084 
L 377.870583 382.578143 
L 378.69669 382.61972 
L 379.027132 382.688984 
L 382.166337 382.661247 
L 382.662001 382.435833 
L 383.983771 382.533079 
L 384.479435 382.709193 
L 384.975099 382.787424 
L 385.470763 382.827908 
L 386.131648 382.687161 
L 386.46209 382.771997 
L 390.923065 382.710046 
L 391.088286 382.645651 
L 391.58395 382.737761 
L 394.888376 382.65479 
L 395.218819 382.613489 
L 395.549261 382.667365 
L 395.714482 382.655511 
L 396.044925 382.529937 
L 397.036253 382.42787 
L 398.02758 382.066793 
L 398.853687 381.560891 
L 399.018908 381.447579 
L 399.514572 380.68698 
L 399.679793 380.473053 
L 400.010236 379.266135 
L 400.175457 377.431383 
L 400.340678 370.703654 
L 400.5059 354.560266 
L 400.671121 326.168077 
L 401.001564 202.514582 
L 401.332006 77.501046 
L 401.662449 54.57491 
L 401.82767 52.245665 
L 401.992891 51.501243 
L 402.158113 51.501253 
L 402.323334 52.109022 
L 402.488555 58.954309 
L 402.818998 207.977246 
L 403.14944 344.415223 
L 403.479883 372.792903 
L 403.810325 379.07252 
L 403.975547 379.678892 
L 404.140768 380.911518 
L 404.471211 381.474659 
L 404.966874 381.830155 
L 405.792981 382.117566 
L 406.123423 382.19296 
L 406.453866 382.239128 
L 407.610415 381.959571 
L 407.940858 381.408595 
L 408.106079 381.216304 
L 408.2713 379.711254 
L 408.436521 375.602265 
L 408.601743 368.248981 
L 408.766964 355.300831 
L 409.427849 275.099458 
L 409.758292 268.325735 
L 409.923513 268.325745 
L 410.088734 270.022825 
L 410.253956 275.449622 
L 410.419177 284.808819 
L 410.74962 325.911329 
L 411.080062 369.391367 
L 411.410505 379.471131 
L 411.740947 381.637445 
L 412.07139 382.226525 
L 412.732275 382.523087 
L 413.558381 382.667545 
L 414.054045 382.706103 
L 416.367143 382.775096 
L 416.862807 382.825071 
L 417.523692 382.810349 
L 424.132544 382.781837 
L 424.132544 382.781837 
" clip-path="url(#pa8a9f86861)" style="fill: none; stroke: #5088c5; stroke-linecap: round"/>
   </g>
   <g id="line2d_15">
    <defs>
     <path id="m147cd7f40b" d="M 0 2 
C 0.530406 2 1.03916 1.789267 1.414214 1.414214 
C 1.789267 1.03916 2 0.530406 2 0 
C 2 -0.530406 1.789267 -1.03916 1.414214 -1.414214 
C 1.03916 -1.789267 0.530406 -2 0 -2 
C -0.530406 -2 -1.03916 -1.789267 -1.414214 -1.414214 
C -1.789267 -1.03916 -2 -0.530406 -2 0 
C -2 0.530406 -1.789267 1.03916 -1.414214 1.414214 
C -1.03916 1.789267 -0.530406 2 0 2 
z
"/>
    </defs>
    <g clip-path="url(#pa8a9f86861)">
     <use xlink:href="#m147cd7f40b" x="205.101662" y="34.102717" style="fill: #f28360"/>
     <use xlink:href="#m147cd7f40b" x="213.890881" y="303.144856" style="fill: #f28360"/>
     <use xlink:href="#m147cd7f40b" x="232.804982" y="239.295943" style="fill: #f28360"/>
     <use xlink:href="#m147cd7f40b" x="271.723438" y="231.188164" style="fill: #f28360"/>
     <use xlink:href="#m147cd7f40b" x="278.285044" y="128.781143" style="fill: #f28360"/>
     <use xlink:href="#m147cd7f40b" x="292.400983" y="59.997656" style="fill: #f28360"/>
     <use xlink:href="#m147cd7f40b" x="298.554866" y="266.998567" style="fill: #f28360"/>
     <use xlink:href="#m147cd7f40b" x="314.694455" y="301.920185" style="fill: #f28360"/>
     <use xlink:href="#m147cd7f40b" x="329.512091" y="146.692342" style="fill: #f28360"/>
     <use xlink:href="#m147cd7f40b" x="341.041716" y="288.104232" style="fill: #f28360"/>
     <use xlink:href="#m147cd7f40b" x="349.965319" y="158.364167" style="fill: #f28360"/>
     <use xlink:href="#m147cd7f40b" x="364.620578" y="64.399066" style="fill: #f28360"/>
     <use xlink:href="#m147cd7f40b" x="370.436977" y="34.471578" style="fill: #f28360"/>
     <use xlink:href="#m147cd7f40b" x="401.909868" y="52.245665" style="fill: #f28360"/>
     <use xlink:href="#m147cd7f40b" x="409.850749" y="268.325745" style="fill: #f28360"/>
    </g>
   </g>
   <g id="patch_3">
    <path d="M 72.39625 397.163023 
L 72.39625 20 
" style="fill: none; stroke: #000000; stroke-width: 0.75; stroke-linejoin: miter; stroke-linecap: square"/>
   </g>
   <g id="patch_4">
    <path d="M 72.39625 397.163023 
L 437.660863 397.163023 
" style="fill: none; stroke: #000000; stroke-width: 0.75; stroke-linejoin: miter; stroke-linecap: square"/>
   </g>
  </g>
 </g>
 <defs>
  <clipPath id="pa8a9f86861">
   <rect x="72.39625" y="20" width="365.264613" height="377.163023"/>
  </clipPath>
 </defs>
</svg>
