<?xml version="1.0" encoding="utf-8" standalone="no"?>
<!DOCTYPE svg PUBLIC "-//W3C//DTD SVG 1.1//EN"
  "http://www.w3.org/Graphics/SVG/1.1/DTD/svg11.dtd">
<svg xmlns:xlink="http://www.w3.org/1999/xlink" width="463.961608pt" height="463.99896pt" viewBox="0 0 463.961608 463.99896" xmlns="http://www.w3.org/2000/svg" version="1.1">
 <metadata>
  <rdf:RDF xmlns:dc="http://purl.org/dc/elements/1.1/" xmlns:cc="http://creativecommons.org/ns#" xmlns:rdf="http://www.w3.org/1999/02/22-rdf-syntax-ns#">
   <cc:Work>
    <dc:type rdf:resource="http://purl.org/dc/dcmitype/StillImage"/>
    <dc:date>2025-01-29T10:38:13.177555</dc:date>
    <dc:format>image/svg+xml</dc:format>
    <dc:creator>
     <cc:Agent>
      <dc:title>Matplotlib v3.8.4, https://matplotlib.org/</dc:title>
     </cc:Agent>
    </dc:creator>
   </cc:Work>
  </rdf:RDF>
 </metadata>
 <defs>
  <style type="text/css">*{stroke-linejoin: round; stroke-linecap: butt}</style>
 </defs>
 <g id="figure_1">
  <g id="patch_1">
   <path d="M 0 463.99896 
L 463.961608 463.99896 
L 463.961608 0 
L 0 0 
L 0 463.99896 
z
" style="fill: none"/>
  </g>
  <g id="axes_1">
   <g id="patch_2">
    <path d="M 91.128438 397.284897 
L 441.832513 397.284897 
L 441.832513 20 
L 91.128438 20 
L 91.128438 397.284897 
z
" style="fill: none"/>
   </g>
   <g id="matplotlib.axis_1">
    <g id="xtick_1">
     <g id="line2d_1">
      <defs>
       <path id="m90412c8cf9" d="M 0 0 
L 0 5 
" style="stroke: #000000; stroke-width: 0.75"/>
      </defs>
      <g>
       <use xlink:href="#m90412c8cf9" x="116.794907" y="397.284897" style="stroke: #000000; stroke-width: 0.75"/>
      </g>
     </g>
     <g id="text_1">
      <text style="font: 14.5px &quot;Suisse Int&apos;l Mono&quot;; text-anchor: middle" x="116.794907" y="417.797397" transform="rotate(-0 116.794907 417.797397)">500</text>
     </g>
    </g>
    <g id="xtick_2">
     <g id="line2d_2">
      <g>
       <use xlink:href="#m90412c8cf9" x="168.200659" y="397.284897" style="stroke: #000000; stroke-width: 0.75"/>
      </g>
     </g>
     <g id="text_2">
      <text style="font: 14.5px &quot;Suisse Int&apos;l Mono&quot;; text-anchor: middle" x="168.200659" y="417.797397" transform="rotate(-0 168.200659 417.797397)">1000</text>
     </g>
    </g>
    <g id="xtick_3">
     <g id="line2d_3">
      <g>
       <use xlink:href="#m90412c8cf9" x="219.606411" y="397.284897" style="stroke: #000000; stroke-width: 0.75"/>
      </g>
     </g>
     <g id="text_3">
      <text style="font: 14.5px &quot;Suisse Int&apos;l Mono&quot;; text-anchor: middle" x="219.606411" y="417.797397" transform="rotate(-0 219.606411 417.797397)">1500</text>
     </g>
    </g>
    <g id="xtick_4">
     <g id="line2d_4">
      <g>
       <use xlink:href="#m90412c8cf9" x="271.012164" y="397.284897" style="stroke: #000000; stroke-width: 0.75"/>
      </g>
     </g>
     <g id="text_4">
      <text style="font: 14.5px &quot;Suisse Int&apos;l Mono&quot;; text-anchor: middle" x="271.012164" y="417.797397" transform="rotate(-0 271.012164 417.797397)">2000</text>
     </g>
    </g>
    <g id="xtick_5">
     <g id="line2d_5">
      <g>
       <use xlink:href="#m90412c8cf9" x="322.417916" y="397.284897" style="stroke: #000000; stroke-width: 0.75"/>
      </g>
     </g>
     <g id="text_5">
      <text style="font: 14.5px &quot;Suisse Int&apos;l Mono&quot;; text-anchor: middle" x="322.417916" y="417.797397" transform="rotate(-0 322.417916 417.797397)">2500</text>
     </g>
    </g>
    <g id="xtick_6">
     <g id="line2d_6">
      <g>
       <use xlink:href="#m90412c8cf9" x="373.823668" y="397.284897" style="stroke: #000000; stroke-width: 0.75"/>
      </g>
     </g>
     <g id="text_6">
      <text style="font: 14.5px &quot;Suisse Int&apos;l Mono&quot;; text-anchor: middle" x="373.823668" y="417.797397" transform="rotate(-0 373.823668 417.797397)">3000</text>
     </g>
    </g>
    <g id="xtick_7">
     <g id="line2d_7">
      <g>
       <use xlink:href="#m90412c8cf9" x="425.22942" y="397.284897" style="stroke: #000000; stroke-width: 0.75"/>
      </g>
     </g>
     <g id="text_7">
      <text style="font: 14.5px &quot;Suisse Int&apos;l Mono&quot;; text-anchor: middle" x="425.22942" y="417.797397" transform="rotate(-0 425.22942 417.797397)">3500</text>
     </g>
    </g>
    <g id="text_8">
     <text style="font: 500 15px &quot;Suisse Int&apos;l&quot;, sans-serif; text-anchor: middle" x="266.480475" y="441.209898" transform="rotate(-0 266.480475 441.209898)">Raman shift (cm-1)</text>
    </g>
   </g>
   <g id="matplotlib.axis_2">
    <g id="ytick_1">
     <g id="line2d_8">
      <defs>
       <path id="me6c2c73d03" d="M 0 0 
L -5 0 
" style="stroke: #000000; stroke-width: 0.75"/>
      </defs>
      <g>
       <use xlink:href="#me6c2c73d03" x="91.128438" y="369.906337" style="stroke: #000000; stroke-width: 0.75"/>
      </g>
     </g>
     <g id="text_9">
      <text style="font: 14.5px &quot;Suisse Int&apos;l Mono&quot;; text-anchor: end" x="81.128438" y="375.162587" transform="rotate(-0 81.128438 375.162587)">0.00</text>
     </g>
    </g>
    <g id="ytick_2">
     <g id="line2d_9">
      <g>
       <use xlink:href="#me6c2c73d03" x="91.128438" y="318.700588" style="stroke: #000000; stroke-width: 0.75"/>
      </g>
     </g>
     <g id="text_10">
      <text style="font: 14.5px &quot;Suisse Int&apos;l Mono&quot;; text-anchor: end" x="81.128438" y="323.956838" transform="rotate(-0 81.128438 323.956838)">0.02</text>
     </g>
    </g>
    <g id="ytick_3">
     <g id="line2d_10">
      <g>
       <use xlink:href="#me6c2c73d03" x="91.128438" y="267.49484" style="stroke: #000000; stroke-width: 0.75"/>
      </g>
     </g>
     <g id="text_11">
      <text style="font: 14.5px &quot;Suisse Int&apos;l Mono&quot;; text-anchor: end" x="81.128438" y="272.75109" transform="rotate(-0 81.128438 272.75109)">0.04</text>
     </g>
    </g>
    <g id="ytick_4">
     <g id="line2d_11">
      <g>
       <use xlink:href="#me6c2c73d03" x="91.128438" y="216.289091" style="stroke: #000000; stroke-width: 0.75"/>
      </g>
     </g>
     <g id="text_12">
      <text style="font: 14.5px &quot;Suisse Int&apos;l Mono&quot;; text-anchor: end" x="81.128438" y="221.545341" transform="rotate(-0 81.128438 221.545341)">0.06</text>
     </g>
    </g>
    <g id="ytick_5">
     <g id="line2d_12">
      <g>
       <use xlink:href="#me6c2c73d03" x="91.128438" y="165.083343" style="stroke: #000000; stroke-width: 0.75"/>
      </g>
     </g>
     <g id="text_13">
      <text style="font: 14.5px &quot;Suisse Int&apos;l Mono&quot;; text-anchor: end" x="81.128438" y="170.339593" transform="rotate(-0 81.128438 170.339593)">0.08</text>
     </g>
    </g>
    <g id="ytick_6">
     <g id="line2d_13">
      <g>
       <use xlink:href="#me6c2c73d03" x="91.128438" y="113.877594" style="stroke: #000000; stroke-width: 0.75"/>
      </g>
     </g>
     <g id="text_14">
      <text style="font: 14.5px &quot;Suisse Int&apos;l Mono&quot;; text-anchor: end" x="81.128438" y="119.133844" transform="rotate(-0 81.128438 119.133844)">0.10</text>
     </g>
    </g>
    <g id="ytick_7">
     <g id="line2d_14">
      <g>
       <use xlink:href="#me6c2c73d03" x="91.128438" y="62.671845" style="stroke: #000000; stroke-width: 0.75"/>
      </g>
     </g>
     <g id="text_15">
      <text style="font: 14.5px &quot;Suisse Int&apos;l Mono&quot;; text-anchor: end" x="81.128438" y="67.928095" transform="rotate(-0 81.128438 67.928095)">0.12</text>
     </g>
    </g>
    <g id="text_16">
     <text style="font: 500 15px &quot;Suisse Int&apos;l&quot;, sans-serif; text-anchor: middle" x="30.875" y="208.642449" transform="rotate(-90 30.875 208.642449)">Intensity (AU)</text>
    </g>
   </g>
   <g id="line2d_15">
    <path d="M 104.117477 356.264804 
L 104.308765 356.264804 
L 104.500014 355.468555 
L 104.691225 355.455753 
L 104.882398 355.263732 
L 105.455684 353.3768 
L 105.646703 353.351197 
L 105.837683 352.588231 
L 106.219528 354.170489 
L 106.60122 356.979124 
L 107.17347 357.849622 
L 107.364144 356.193116 
L 107.554779 356.193116 
L 107.745376 356.469627 
L 108.50738 360.893804 
L 108.697786 360.893804 
L 108.888153 359.849207 
L 109.078482 356.415861 
L 109.268773 356.415861 
L 109.459026 357.055933 
L 109.649241 357.055933 
L 109.839417 355.094753 
L 110.219656 355.015384 
L 110.409718 356.787103 
L 110.599741 356.787103 
L 110.789727 356.062541 
L 110.979675 356.062541 
L 111.169585 354.549412 
L 111.359456 355.094753 
L 111.54929 354.62622 
L 111.739085 355.094753 
L 112.118562 358.530658 
L 112.308243 358.530658 
L 112.497887 357.498863 
L 112.687492 357.127621 
L 112.877059 357.050812 
L 113.25608 352.992757 
L 113.445534 352.992757 
L 113.63495 354.039914 
L 113.824327 356.994486 
L 114.013667 358.10053 
L 114.202969 357.573111 
L 114.392233 357.816338 
L 114.770647 357.445097 
L 114.959798 357.445097 
L 115.14891 361.067903 
L 115.337985 361.067903 
L 115.527022 360.653137 
L 115.904982 360.653137 
L 116.093906 360.14364 
L 116.282792 357.672962 
L 116.471639 357.672962 
L 116.66045 359.631582 
L 116.849222 359.749355 
L 117.037957 359.631582 
L 117.226654 358.154296 
L 117.415313 357.678083 
L 117.603935 356.5874 
L 117.792519 356.5874 
L 118.169574 360.340782 
L 118.358045 360.632654 
L 118.546478 360.632654 
L 118.734874 358.297672 
L 118.923232 357.703686 
L 119.111553 358.297672 
L 119.299836 358.016041 
L 119.488081 358.894219 
L 119.676289 358.016041 
L 119.864459 358.894219 
L 120.052591 358.016041 
L 120.240687 358.604907 
L 120.616764 357.591033 
L 120.804747 357.591033 
L 121.180599 358.581864 
L 121.36847 358.63563 
L 121.556302 359.862008 
L 121.744098 360.258853 
L 121.931855 360.258853 
L 122.119576 357.690884 
L 122.494904 357.795856 
L 122.682512 358.223424 
L 123.057617 360.427831 
L 123.245113 360.924527 
L 123.432571 360.924527 
L 123.619993 360.6813 
L 123.994723 355.896123 
L 124.182033 355.896123 
L 124.369305 356.820386 
L 124.743738 362.237955 
L 124.930898 362.237947 
L 125.118021 361.705392 
L 125.305107 359.306387 
L 125.492155 359.306372 
L 125.679167 358.686767 
L 125.866141 359.733909 
L 126.239978 359.636588 
L 126.613666 358.589399 
L 126.987206 358.681539 
L 127.17392 358.840262 
L 127.360597 358.840246 
L 127.73384 360.340544 
L 127.920405 360.340529 
L 128.106934 358.051616 
L 128.293426 357.342401 
L 128.47988 357.10684 
L 128.666298 357.106824 
L 128.852678 358.412556 
L 129.039022 363.302689 
L 129.225328 363.302667 
L 129.411598 362.731695 
L 129.59783 361.638416 
L 129.970184 361.638345 
L 130.156306 361.272188 
L 130.342391 359.390341 
L 130.528439 359.083071 
L 130.714449 359.39027 
L 130.900423 359.082999 
L 131.086361 359.333872 
L 131.272261 358.724488 
L 131.64395 360.09673 
L 131.82974 361.643108 
L 132.201209 359.164678 
L 132.386888 358.947018 
L 132.57253 358.946983 
L 132.758136 359.100564 
L 132.943705 361.294695 
L 133.129237 361.294659 
L 133.314732 359.30272 
L 133.50019 359.302684 
L 133.870997 361.514701 
L 134.241657 361.78602 
L 134.426932 361.64004 
L 134.797371 361.639952 
L 134.982536 361.47605 
L 135.167665 361.476006 
L 135.352756 360.974146 
L 135.537811 360.044718 
L 135.722829 357.371734 
L 135.907811 357.37169 
L 136.092756 359.394273 
L 136.277665 359.8474 
L 136.647372 359.847313 
L 137.016933 361.385958 
L 137.571001 366.475661 
L 137.940197 362.624869 
L 138.493717 361.165279 
L 138.678151 361.329059 
L 138.862549 362.913799 
L 139.04691 362.913714 
L 139.231234 360.460867 
L 139.415522 360.460775 
L 139.599774 361.579528 
L 139.78399 361.579436 
L 139.968169 358.112715 
L 140.152311 358.112623 
L 140.520488 362.508453 
L 140.704522 362.508353 
L 140.888519 362.364871 
L 141.07248 362.364756 
L 141.256405 362.123967 
L 141.440293 362.963612 
L 141.624145 363.114532 
L 141.807961 363.114389 
L 141.991741 362.387117 
L 142.175485 360.182552 
L 142.359192 359.334939 
L 142.542863 359.334782 
L 142.726498 359.839001 
L 142.910096 362.678202 
L 143.093659 363.425641 
L 143.277185 363.425469 
L 143.644129 359.482271 
L 144.010928 359.412787 
L 144.194274 360.188377 
L 144.377583 360.188199 
L 144.560857 358.749139 
L 144.744094 358.748962 
L 144.927295 360.04941 
L 145.11046 363.008924 
L 145.293589 363.008739 
L 145.476682 361.51078 
L 145.84276 361.387502 
L 146.025745 357.82083 
L 146.208693 357.505723 
L 146.391606 357.505532 
L 146.574483 360.334458 
L 146.757324 360.334266 
L 146.940129 359.747769 
L 147.122898 359.747577 
L 147.305631 359.056108 
L 147.488328 359.247938 
L 147.670989 359.004519 
L 147.853615 359.247554 
L 148.036204 360.102499 
L 148.218757 360.102307 
L 148.401275 359.528611 
L 148.583757 358.529907 
L 148.766203 358.529715 
L 148.948613 358.887964 
L 149.495628 358.882269 
L 149.677895 359.701369 
L 149.860125 359.701177 
L 150.042321 359.900688 
L 150.22448 361.306094 
L 150.406604 361.63618 
L 150.588692 361.635988 
L 151.134741 359.776644 
L 151.316686 359.758531 
L 151.498595 359.310289 
L 151.680469 359.758147 
L 152.044109 361.624213 
L 152.225875 361.954299 
L 152.407606 361.954099 
L 152.589302 359.795569 
L 152.770961 359.51373 
L 152.952585 359.795154 
L 153.497244 362.413698 
L 153.678726 362.413475 
L 153.860172 360.818186 
L 154.041582 360.244451 
L 154.404297 360.24399 
L 154.766869 361.283007 
L 155.1293 361.254383 
L 155.310462 361.041649 
L 155.672679 361.041188 
L 156.034755 360.4365 
L 156.21574 360.807511 
L 156.396689 359.765244 
L 156.577603 360.855696 
L 156.758482 360.261479 
L 156.939325 360.261249 
L 157.120132 358.294718 
L 157.300905 358.294487 
L 157.481642 359.92004 
L 157.662344 359.919809 
L 157.84301 359.384479 
L 158.023641 355.935541 
L 158.204237 354.627004 
L 158.565322 342.009447 
L 159.467419 295.096149 
L 159.647732 293.352363 
L 159.828011 290.361717 
L 160.008254 289.439783 
L 160.188462 290.361257 
L 160.548772 301.743834 
L 161.448933 351.545394 
L 161.62886 358.201911 
L 161.808751 360.472655 
L 161.988608 360.87695 
L 162.168429 362.074935 
L 162.348215 362.45874 
L 162.527967 362.466175 
L 162.707683 363.385065 
L 162.887364 362.465662 
L 163.06701 362.780311 
L 163.426197 362.779755 
L 163.605739 362.27253 
L 163.785245 361.16363 
L 163.964716 361.163334 
L 164.144152 361.472833 
L 164.502919 361.472241 
L 164.682251 362.278435 
L 164.861547 362.278132 
L 165.040808 361.991068 
L 165.220035 361.471011 
L 165.399227 361.470691 
L 165.578383 363.992255 
L 165.757505 364.683208 
L 165.936592 364.682878 
L 166.115644 363.381916 
L 166.294661 360.944181 
L 166.473644 360.943838 
L 166.652591 361.60149 
L 166.831504 361.754766 
L 167.010382 364.980386 
L 167.189225 364.980039 
L 167.546807 362.810766 
L 167.725546 362.810401 
L 167.90425 361.926729 
L 168.082919 363.518848 
L 168.261554 363.518462 
L 168.618719 363.650805 
L 168.797249 361.617532 
L 169.154206 361.486146 
L 169.332632 361.767373 
L 169.689381 365.228065 
L 169.867703 365.22765 
L 170.045991 364.318327 
L 170.224244 362.743325 
L 170.402462 362.612317 
L 170.580646 362.742451 
L 170.93691 364.049857 
L 171.11499 363.537339 
L 171.293036 363.454944 
L 171.471046 360.551106 
L 171.649023 360.550633 
L 171.826965 361.512829 
L 172.004872 361.512356 
L 172.360583 360.799651 
L 172.538387 359.547198 
L 172.716156 360.798706 
L 172.893891 361.020978 
L 173.071592 361.437833 
L 173.426889 365.420689 
L 173.604486 365.420206 
L 173.782049 364.574824 
L 173.959577 364.543608 
L 174.137071 363.795507 
L 174.669345 365.783322 
L 175.378564 365.550798 
L 175.555783 366.290186 
L 175.732968 366.289647 
L 176.264316 364.408754 
L 176.441363 368.046364 
L 176.618376 368.045804 
L 176.795355 365.659055 
L 177.326086 365.567734 
L 177.502928 364.071947 
L 177.679736 364.071363 
L 177.856509 364.580269 
L 178.209954 364.525306 
L 178.386625 361.593171 
L 179.092967 361.54722 
L 179.269467 363.374658 
L 179.622365 363.399029 
L 179.798763 361.803344 
L 179.975127 361.802717 
L 180.504015 367.720209 
L 180.680242 367.719572 
L 180.856436 364.946142 
L 181.032596 364.062199 
L 181.384813 364.153063 
L 181.912884 367.008348 
L 182.088839 365.822263 
L 182.264761 363.589016 
L 182.616503 363.587645 
L 182.792323 363.784092 
L 183.143861 363.247584 
L 183.319579 362.732252 
L 183.495264 362.731531 
L 183.670914 363.734435 
L 183.846531 363.90524 
L 184.197662 365.393841 
L 184.373178 365.393091 
L 184.548659 364.992931 
L 184.724106 364.218965 
L 184.89952 364.2182 
L 185.250246 367.230113 
L 185.600837 367.249038 
L 185.776081 364.306485 
L 185.951292 364.203285 
L 186.12647 364.304903 
L 186.301613 365.07731 
L 186.651799 365.434137 
L 186.826842 365.269466 
L 187.00185 364.556888 
L 187.176826 364.527901 
L 187.351767 362.821921 
L 187.526675 363.230731 
L 187.701549 362.722952 
L 188.051196 360.637178 
L 188.225969 361.322486 
L 188.400709 365.205592 
L 188.750087 365.203879 
L 188.924726 364.993071 
L 189.099331 364.992203 
L 189.273903 366.222827 
L 189.448441 366.22195 
L 189.622946 365.7807 
L 189.797417 363.298896 
L 190.146258 363.212617 
L 190.494966 366.75424 
L 190.66927 367.559818 
L 190.84354 367.79957 
L 191.017776 367.557986 
L 191.191979 366.758257 
L 191.366149 366.560193 
L 191.714388 363.875155 
L 191.888458 363.385203 
L 192.062494 363.38426 
L 192.410465 366.562232 
L 192.584401 366.561274 
L 192.758304 367.279754 
L 192.932173 366.940832 
L 193.106009 367.395596 
L 193.279811 366.938896 
L 193.45358 367.393655 
L 193.627316 369.197683 
L 193.801018 369.196707 
L 194.321926 364.252413 
L 194.495495 364.061962 
L 194.669031 363.490023 
L 194.842534 364.059965 
L 195.016004 366.383698 
L 195.18944 366.382686 
L 195.362843 365.157854 
L 195.536213 365.156835 
L 195.70955 365.386236 
L 195.882853 366.857372 
L 196.056124 366.856341 
L 196.229361 366.414936 
L 196.402565 366.355011 
L 196.575735 366.412856 
L 197.095049 368.693489 
L 197.441092 364.208321 
L 197.787003 364.0833 
L 197.959909 366.542664 
L 198.132782 366.541589 
L 198.305622 364.837919 
L 198.651202 364.720533 
L 198.99665 362.59586 
L 199.341966 360.786081 
L 199.68715 360.783865 
L 200.204679 363.668538 
L 200.377123 366.729519 
L 200.721911 366.727266 
L 200.894256 364.391153 
L 201.066568 364.185193 
L 201.238847 362.878304 
L 201.411093 362.877154 
L 201.755487 363.865666 
L 201.927635 363.436928 
L 202.099749 363.425512 
L 202.271831 363.117095 
L 202.44388 362.43487 
L 202.959831 359.466468 
L 203.475486 362.266394 
L 203.647305 362.26519 
L 203.819092 361.716076 
L 204.334255 358.038429 
L 204.505911 359.724447 
L 204.677534 359.723235 
L 204.849124 353.469802 
L 205.020682 351.771119 
L 205.192207 348.664279 
L 205.363699 348.340471 
L 205.87798 339.869966 
L 206.22067 337.317496 
L 206.56323 331.649157 
L 206.734462 331.647945 
L 207.41906 342.204285 
L 207.590129 342.820102 
L 207.932168 347.326345 
L 208.274076 347.595312 
L 208.444982 347.512171 
L 208.615855 347.592889 
L 209.12828 351.035401 
L 209.299023 351.034189 
L 209.640412 350.225276 
L 209.811058 350.608107 
L 209.981671 349.283227 
L 210.152252 351.19199 
L 210.322801 349.554754 
L 210.493317 351.189566 
L 210.663801 349.769955 
L 210.834252 350.291042 
L 211.175058 350.288619 
L 211.345413 354.742308 
L 211.515735 354.741096 
L 211.686024 352.847832 
L 211.856282 352.84662 
L 212.36686 350.02923 
L 212.536988 349.346982 
L 212.707084 349.34577 
L 212.877148 351.093235 
L 213.047179 351.194434 
L 213.217178 351.510698 
L 213.387145 351.509487 
L 213.55708 350.791395 
L 213.726982 347.507895 
L 213.896852 346.887093 
L 214.06669 345.521249 
L 214.236496 345.520037 
L 214.406269 348.839518 
L 214.576011 349.606393 
L 214.915397 349.908644 
L 215.085042 352.447237 
L 215.254655 352.446025 
L 215.424236 350.527159 
L 215.593784 350.525947 
L 216.271657 355.708243 
L 216.779725 355.609877 
L 217.118277 359.724396 
L 217.287505 359.723184 
L 217.4567 356.808366 
L 217.625864 356.807154 
L 217.964096 359.749061 
L 218.302199 360.612015 
L 218.471203 360.075704 
L 218.809115 360.032316 
L 218.978023 362.481299 
L 219.146899 362.48008 
L 219.315743 363.211096 
L 219.484555 362.367528 
L 219.990801 362.371464 
L 220.328138 362.714569 
L 220.496759 364.321152 
L 220.665348 364.319868 
L 220.833905 364.095834 
L 221.170924 361.947717 
L 221.507816 360.629125 
L 221.84458 361.453493 
L 222.012915 362.496788 
L 222.181218 362.695181 
L 222.349489 362.693864 
L 222.517728 362.87176 
L 222.685935 362.002492 
L 223.190368 364.187525 
L 223.358448 364.306508 
L 223.526497 364.18482 
L 223.694515 363.538266 
L 224.030454 360.360775 
L 224.198376 360.359407 
L 224.869749 365.233827 
L 225.037513 365.964685 
L 225.205245 365.963297 
L 225.372946 366.791438 
L 225.540616 366.790043 
L 225.708253 365.703083 
L 225.875859 365.581348 
L 226.043434 362.763625 
L 226.210977 362.762211 
L 226.378488 363.861714 
L 226.545968 368.322868 
L 226.713417 368.321439 
L 226.880834 365.910779 
L 227.048219 365.120776 
L 227.215573 365.119337 
L 227.382895 364.956596 
L 227.550186 365.124126 
L 227.717445 365.122673 
L 228.219035 368.477387 
L 228.386168 368.475922 
L 228.720341 365.2163 
L 228.887381 363.512234 
L 229.054389 363.510754 
L 229.221365 365.654787 
L 229.38831 366.144871 
L 229.722106 369.206543 
L 229.888957 369.205045 
L 230.055777 367.390863 
L 230.389322 362.833104 
L 230.556048 362.831591 
L 230.889406 364.712915 
L 231.222638 364.709846 
L 231.389207 365.816908 
L 231.555745 366.091872 
L 231.888727 367.683828 
L 232.387966 370.966569 
L 232.720635 369.8907 
L 233.3856 366.161816 
L 233.551764 363.133993 
L 233.717896 363.132423 
L 234.050067 369.627276 
L 234.216106 369.625696 
L 234.382113 368.95844 
L 234.714035 368.955277 
L 234.87995 368.288019 
L 235.045833 366.55824 
L 235.211685 366.556651 
L 235.543296 367.490531 
L 235.874783 367.651193 
L 236.206146 369.017743 
L 236.371781 368.647458 
L 236.537384 367.854725 
L 236.702957 367.645734 
L 237.03401 367.744926 
L 237.19949 368.032625 
L 237.364939 368.914308 
L 237.530357 368.98438 
L 237.695744 368.911075 
L 238.026425 367.289735 
L 238.191719 367.106331 
L 238.356983 366.3443 
L 238.687416 366.3564 
L 239.182836 368.655741 
L 239.347914 369.757581 
L 239.512961 369.781541 
L 239.677977 370.06409 
L 239.842963 369.778255 
L 240.337734 367.348729 
L 240.502596 366.420257 
L 240.667428 366.418605 
L 240.832229 368.088817 
L 240.996998 368.08716 
L 241.161738 367.478713 
L 241.326446 367.477052 
L 241.491123 368.422694 
L 241.984972 368.358807 
L 242.149527 369.17899 
L 242.314051 371.371485 
L 242.478544 371.66937 
L 242.643006 371.667702 
L 242.807438 370.71105 
L 242.97184 370.709385 
L 243.13621 370.287834 
L 243.30055 369.489921 
L 243.464859 369.488257 
L 243.629138 369.686294 
L 243.793386 369.68463 
L 243.957603 369.345007 
L 244.12179 366.701125 
L 244.285946 366.699456 
L 244.614167 369.177029 
L 244.778231 369.175355 
L 244.942265 367.012797 
L 245.106269 367.011119 
L 245.270241 369.226647 
L 245.434183 369.224965 
L 245.598095 368.626736 
L 245.761976 367.403795 
L 245.925827 367.402109 
L 246.089647 369.540821 
L 246.253437 369.539132 
L 246.580924 370.257755 
L 246.744622 370.532577 
L 246.90829 374.056405 
L 247.071927 374.287707 
L 247.235534 374.286027 
L 247.39911 369.977948 
L 247.726172 368.382098 
L 247.889657 368.38042 
L 248.216536 368.945444 
L 248.37993 368.943763 
L 248.869929 371.568133 
L 249.033201 370.10709 
L 249.196443 370.105411 
L 249.359655 370.602988 
L 249.522837 370.60131 
L 249.849108 369.904119 
L 250.012199 369.828193 
L 250.338289 368.675269 
L 250.501288 368.67359 
L 250.664258 369.706266 
L 250.990105 369.702905 
L 251.152984 370.415544 
L 251.47865 370.412184 
L 251.641438 371.291243 
L 251.966923 371.894677 
L 252.12962 373.224352 
L 252.292287 371.891331 
L 252.617531 371.327292 
L 252.942654 369.393503 
L 253.10517 370.042149 
L 253.267656 369.39017 
L 253.430112 370.548313 
L 253.592538 370.451917 
L 253.754934 370.544982 
L 253.917299 370.448586 
L 254.24194 368.366303 
L 254.404215 368.126529 
L 254.566461 368.362967 
L 255.053016 367.751162 
L 255.215141 369.805396 
L 255.377236 369.80372 
L 255.539301 369.351433 
L 255.701336 366.646092 
L 256.025316 365.874641 
L 256.187262 366.187868 
L 256.349177 365.871261 
L 256.511062 366.381622 
L 256.672917 366.379923 
L 256.834742 368.316358 
L 256.996537 368.624448 
L 257.158302 368.622742 
L 257.320038 368.807936 
L 257.805064 368.764403 
L 258.451348 371.141184 
L 258.612844 371.139474 
L 258.935747 367.669426 
L 259.097154 367.378401 
L 259.419878 367.751332 
L 259.581195 368.986232 
L 259.742482 367.747894 
L 260.226166 371.001973 
L 260.387334 371.000252 
L 260.709581 373.462372 
L 260.87066 373.460658 
L 261.03171 370.673355 
L 261.192729 370.164709 
L 261.353719 370.163 
L 261.514679 371.04203 
L 261.67561 371.040322 
L 261.83651 372.526143 
L 261.997381 372.183921 
L 262.158223 372.522737 
L 262.640569 371.636907 
L 262.801291 371.635214 
L 262.961985 370.1844 
L 263.122648 369.947162 
L 263.283282 367.920284 
L 263.443886 367.524306 
L 263.604461 367.52261 
L 263.925521 368.789115 
L 264.246463 370.024892 
L 264.40689 372.33257 
L 264.567287 372.589461 
L 264.727654 374.006164 
L 264.887992 374.004472 
L 265.048301 371.995519 
L 265.68924 370.700961 
L 265.8494 368.832831 
L 266.169634 368.829466 
L 266.329706 369.017244 
L 266.489749 369.015559 
L 266.809747 372.230471 
L 266.969702 371.273802 
L 267.129627 367.790131 
L 267.449389 367.871253 
L 267.769034 371.316587 
L 267.928812 372.231485 
L 268.088561 372.229803 
L 268.407971 366.468354 
L 268.567632 366.466669 
L 268.727263 371.557392 
L 268.886865 371.926947 
L 269.046438 372.813681 
L 269.365496 372.81032 
L 269.524981 372.181373 
L 269.684436 372.179699 
L 269.843862 370.516401 
L 270.003259 370.51473 
L 270.162627 368.603085 
L 270.321966 368.601413 
L 270.799805 374.231591 
L 271.436516 374.176315 
L 271.59562 375.224386 
L 271.754696 375.222744 
L 271.913742 375.087973 
L 272.072759 370.114263 
L 272.231747 369.436716 
L 272.390706 369.435085 
L 272.549635 372.964089 
L 272.708536 372.96246 
L 272.867407 370.689859 
L 273.026249 370.688234 
L 273.185062 370.993844 
L 273.343846 370.992221 
L 273.661326 368.938187 
L 273.820023 369.960678 
L 273.978691 369.585254 
L 274.137329 370.681993 
L 274.295938 369.966051 
L 274.454519 370.171812 
L 274.61307 370.170189 
L 274.771592 374.034601 
L 275.08855 373.954561 
L 275.246985 370.703947 
L 275.405391 370.702338 
L 275.563768 372.003916 
L 275.722116 372.00231 
L 275.880436 372.202969 
L 276.038726 373.791306 
L 276.355219 373.831639 
L 276.513423 373.379439 
L 276.671597 373.377852 
L 276.829742 374.070107 
L 276.987859 374.068529 
L 277.145946 371.148226 
L 277.304005 370.416971 
L 277.462035 370.415398 
L 277.620036 371.670927 
L 277.778008 371.669356 
L 277.935951 370.932985 
L 278.25175 371.01434 
L 278.567434 374.37543 
L 278.725233 374.373872 
L 278.883003 373.015366 
L 279.040744 369.869783 
L 279.198457 369.868233 
L 279.35614 370.179038 
L 279.513795 370.177488 
L 279.671421 368.839468 
L 279.829018 368.837917 
L 280.301637 373.83863 
L 280.459119 375.01994 
L 280.616572 375.018402 
L 280.931392 371.1109 
L 281.088759 371.109371 
L 281.403407 373.154548 
L 281.560688 372.640968 
L 281.717941 372.869875 
L 281.875164 371.851924 
L 282.189525 371.349641 
L 282.346663 370.751583 
L 282.503772 370.750072 
L 282.660852 370.963627 
L 282.817904 370.962118 
L 282.974927 370.323099 
L 283.131921 370.321592 
L 283.288887 369.948844 
L 283.759613 372.996192 
L 284.230081 371.353116 
L 284.386847 369.856414 
L 284.700293 369.78686 
L 284.856973 374.168578 
L 285.013624 374.689387 
L 285.170247 374.687902 
L 285.326842 375.208721 
L 285.796454 372.275339 
L 285.952935 372.578547 
L 286.109387 373.885391 
L 286.422206 373.882477 
L 286.734911 371.516433 
L 286.89122 370.411502 
L 287.047502 370.410055 
L 287.203755 370.667198 
L 287.359979 371.500406 
L 287.516175 371.498963 
L 287.672343 370.135448 
L 287.828482 370.134006 
L 287.984593 371.079871 
L 288.140676 373.285398 
L 288.29673 373.283961 
L 288.452756 372.885682 
L 288.608754 372.884252 
L 288.920664 373.024775 
L 289.076576 372.058125 
L 289.388316 367.3802 
L 289.544144 367.378777 
L 290.011457 370.777121 
L 290.322857 368.603146 
L 290.478515 369.093294 
L 290.789746 367.057568 
L 291.100865 364.471368 
L 291.256381 364.211337 
L 291.41187 364.468477 
L 291.56733 365.094294 
L 291.722762 367.527669 
L 291.878166 366.980867 
L 292.18889 368.124946 
L 292.344209 368.123478 
L 292.4995 367.960711 
L 292.654763 367.959239 
L 292.809998 368.805221 
L 292.965205 368.803746 
L 293.120384 367.304502 
L 293.275534 367.303024 
L 293.430657 365.432533 
L 293.585751 365.431048 
L 293.740818 363.831938 
L 293.895856 363.428477 
L 294.050866 363.368088 
L 294.205848 362.83916 
L 294.360802 361.608706 
L 294.825495 345.039073 
L 294.980337 337.781694 
L 295.444694 287.718381 
L 296.372653 150.280687 
L 296.527215 147.163293 
L 296.681748 147.161769 
L 296.990732 162.310501 
L 297.453999 235.734971 
L 298.071297 319.818954 
L 298.379778 341.650037 
L 298.688149 350.889626 
L 298.842292 350.949548 
L 299.150495 355.84689 
L 299.304555 355.845365 
L 299.458587 353.091532 
L 299.766568 352.799171 
L 299.920516 352.155014 
L 300.382196 347.641775 
L 300.536033 344.913545 
L 300.689843 344.912021 
L 300.997379 345.707782 
L 301.458476 352.331793 
L 301.919323 359.775096 
L 302.226416 361.118758 
L 302.533398 364.052352 
L 302.686848 364.237716 
L 303.147031 370.239514 
L 303.30037 370.949727 
L 303.606965 370.946637 
L 303.91345 370.600471 
L 304.219824 370.79965 
L 304.37297 370.79811 
L 304.679179 369.023312 
L 304.832242 369.761694 
L 304.985278 369.760154 
L 305.138286 370.62655 
L 305.291267 370.62501 
L 305.44422 369.645441 
L 305.597145 369.643901 
L 305.750043 371.600981 
L 306.055757 371.71056 
L 306.514121 373.526329 
L 306.666854 371.658355 
L 306.81956 368.215805 
L 306.972238 368.21428 
L 307.277512 372.76854 
L 307.430108 372.767016 
L 307.887731 369.30095 
L 308.040218 366.693059 
L 308.192676 366.627529 
L 308.345108 366.131868 
L 308.497512 366.130339 
L 308.802238 370.530965 
L 308.95456 368.778195 
L 309.106855 370.527897 
L 309.259122 370.746547 
L 309.411362 370.745014 
L 309.71576 368.924145 
L 309.867918 367.412042 
L 310.020049 367.410506 
L 310.628299 371.267821 
L 310.780294 370.495636 
L 310.932261 368.584124 
L 311.084201 368.582585 
L 311.539857 373.230009 
L 311.995268 367.42636 
L 312.450434 367.152917 
L 312.602102 371.816218 
L 312.753742 371.814677 
L 312.905356 371.92579 
L 313.056942 371.637501 
L 313.360033 369.837109 
L 313.511538 368.698806 
L 313.663016 368.697269 
L 313.96589 370.107473 
L 314.117286 370.303077 
L 314.419997 370.300004 
L 314.7226 369.546767 
L 315.025095 369.395196 
L 315.176302 366.185618 
L 315.327482 366.184077 
L 315.62976 370.597481 
L 315.780859 370.595935 
L 316.082975 365.712935 
L 316.233993 366.904477 
L 316.384984 369.511855 
L 316.837794 369.455981 
L 316.988676 369.359694 
L 317.139532 369.004817 
L 317.290361 369.003259 
L 317.441163 369.211644 
L 317.591938 371.130299 
L 317.742686 369.748746 
L 318.194768 373.098052 
L 318.345409 372.003258 
L 318.496022 371.988908 
L 318.947701 370.622198 
L 319.098207 370.997017 
L 319.248686 370.995474 
L 319.399138 369.045553 
L 319.699962 369.126957 
L 319.850334 370.523329 
L 320.000679 370.588353 
L 320.301288 372.886968 
L 320.451553 372.88543 
L 320.752001 369.085456 
L 320.902185 369.083921 
L 321.052343 369.504834 
L 321.202473 371.730748 
L 321.352577 371.934037 
L 321.652704 371.820884 
L 321.802728 371.156241 
L 322.102695 367.950268 
L 322.252638 367.948738 
L 322.402555 370.274508 
L 322.552445 370.272977 
L 322.702308 369.482878 
L 322.852145 369.299566 
L 323.151738 369.324665 
L 323.301495 369.494672 
L 323.451225 372.350419 
L 323.600928 372.348888 
L 323.750605 371.784096 
L 323.900255 371.756967 
L 324.049878 371.194739 
L 324.349045 371.191694 
L 324.498588 371.062159 
L 324.648105 370.387283 
L 324.947059 370.486657 
L 325.245907 372.196455 
L 325.544649 372.193429 
L 325.693979 371.820678 
L 325.843284 371.819171 
L 325.992562 371.0547 
L 326.141813 371.053195 
L 326.291038 371.289799 
L 326.440236 371.288297 
L 326.589408 369.248807 
L 326.738553 368.806937 
L 326.887672 368.805435 
L 327.18583 370.924906 
L 327.334869 370.954128 
L 327.483882 372.76531 
L 327.632868 372.763812 
L 327.781828 372.636862 
L 327.930761 369.952189 
L 328.079669 369.63066 
L 328.228549 369.629167 
L 328.526231 372.724131 
L 328.823807 373.041193 
L 328.972556 375.018814 
L 329.121278 375.035259 
L 329.269974 375.3231 
L 329.418643 375.321633 
L 329.864493 371.30017 
L 330.310106 369.15029 
L 330.607049 368.525232 
L 330.755482 368.523776 
L 330.903888 370.826577 
L 331.052267 370.82512 
L 331.200621 370.211755 
L 331.348948 367.532239 
L 331.497249 367.530781 
L 331.645523 367.705981 
L 331.941994 370.335031 
L 332.238359 370.332107 
L 332.386503 369.905638 
L 332.682711 367.854484 
L 332.978814 369.405649 
L 333.274812 369.533291 
L 333.718613 371.026659 
L 333.866494 370.728201 
L 334.162179 369.573145 
L 334.457758 371.172957 
L 334.605509 373.206923 
L 334.753233 373.205464 
L 335.048604 372.019703 
L 335.19625 370.884045 
L 335.34387 368.496407 
L 335.491464 368.494956 
L 335.639032 368.362929 
L 335.786574 368.643107 
L 335.93409 370.823016 
L 336.081579 371.172321 
L 336.376481 373.755307 
L 336.523892 373.75386 
L 337.113278 367.075986 
L 337.407815 370.444994 
L 337.555044 371.152749 
L 337.702248 373.217458 
L 337.849425 373.216018 
L 338.143702 367.04285 
L 338.290802 367.041409 
L 338.437875 369.333983 
L 338.584923 369.550163 
L 339.02591 373.127676 
L 339.172854 373.651098 
L 339.319772 373.649665 
L 339.760371 373.909097 
L 339.907185 373.907679 
L 340.053974 373.729605 
L 340.200737 369.892885 
L 340.347474 369.891475 
L 340.494185 371.712989 
L 340.64087 371.808872 
L 340.787529 371.710175 
L 340.934163 369.729668 
L 341.227352 369.053502 
L 341.373908 369.052096 
L 341.666943 370.470241 
L 341.813421 373.945705 
L 341.959874 374.592056 
L 342.106301 374.590658 
L 342.691751 371.584449 
L 342.83805 371.201583 
L 342.984322 371.200202 
L 343.130569 372.010433 
L 343.27679 372.009055 
L 343.715299 369.605941 
L 343.861417 369.604566 
L 344.007509 371.513165 
L 344.299617 371.456653 
L 344.445633 370.459331 
L 344.591622 370.437479 
L 344.737586 369.289101 
L 345.029438 364.759769 
L 345.175325 364.051751 
L 345.321186 364.757007 
L 345.612833 363.84276 
L 345.758617 363.841359 
L 346.05011 365.441279 
L 346.195818 365.439862 
L 346.3415 366.147641 
L 346.778393 362.699764 
L 347.069528 362.609822 
L 347.215057 368.205153 
L 347.36056 368.203694 
L 347.506038 368.053737 
L 347.65149 366.559627 
L 347.796917 366.558161 
L 348.233045 370.381378 
L 348.37837 372.504946 
L 348.523669 372.97713 
L 348.814191 373.202068 
L 349.249783 374.421521 
L 349.540051 372.613629 
L 349.685147 367.711798 
L 349.830217 367.710356 
L 350.120281 372.152126 
L 350.265275 372.150685 
L 350.410244 368.598127 
L 350.555187 368.596687 
L 350.700105 369.450381 
L 350.989865 372.883404 
L 351.279523 372.880532 
L 351.424314 373.101846 
L 351.56908 374.237185 
L 351.71382 374.235761 
L 352.147889 367.705333 
L 352.292528 367.703913 
L 352.726294 373.944193 
L 352.870832 373.899254 
L 353.159832 370.762645 
L 353.304294 370.761239 
L 353.448731 375.043194 
L 353.593142 375.041793 
L 353.88189 373.193039 
L 354.170536 373.190266 
L 354.459082 371.149516 
L 354.603317 370.525987 
L 354.747526 370.524609 
L 354.891711 370.333771 
L 355.035871 370.332394 
L 355.180005 370.753465 
L 355.468198 370.750715 
L 355.612257 368.767679 
L 355.75629 368.766304 
L 355.900299 370.677462 
L 356.044282 370.676087 
L 356.18824 370.559499 
L 356.619964 364.134171 
L 356.763822 364.132787 
L 356.907654 364.484716 
L 357.051462 364.483321 
L 357.195244 363.537174 
L 357.339002 363.535767 
L 357.482734 363.869751 
L 357.626441 365.890959 
L 357.770123 365.889535 
L 358.20102 365.301494 
L 358.775197 362.323203 
L 358.918679 362.672496 
L 359.062136 362.304902 
L 359.205568 362.669542 
L 359.348975 362.276329 
L 359.492357 362.756167 
L 359.635714 362.27333 
L 359.779046 359.394056 
L 359.922353 359.011063 
L 360.208892 359.683957 
L 360.352124 362.598614 
L 360.495332 362.597096 
L 360.924804 359.750584 
L 361.067912 359.339405 
L 361.210994 359.747517 
L 361.354052 360.644644 
L 361.640093 360.641577 
L 361.783076 360.378894 
L 361.926034 359.591352 
L 362.068968 356.287047 
L 362.211876 356.285514 
L 362.35476 357.535961 
L 362.497619 362.521867 
L 362.640453 362.520326 
L 363.068806 360.162759 
L 363.35425 361.900632 
L 363.496936 361.899058 
L 363.639596 360.509801 
L 364.067428 351.951135 
L 364.209989 351.949553 
L 364.352526 353.18459 
L 364.495037 353.183008 
L 364.637524 352.344213 
L 364.922424 347.709489 
L 365.064837 346.924459 
L 365.491927 336.581273 
L 365.77653 323.733147 
L 366.061034 300.869177 
L 366.34544 260.554288 
L 367.624045 33.975097 
L 367.765989 33.973515 
L 367.907908 42.579619 
L 368.333519 113.999212 
L 369.325752 297.75533 
L 369.609026 321.770223 
L 370.17528 341.352655 
L 370.316782 343.143274 
L 370.45826 343.141692 
L 370.599714 343.501111 
L 370.882547 348.59548 
L 371.023927 348.593898 
L 371.306613 347.182576 
L 371.73046 343.053208 
L 371.871693 342.137603 
L 372.154086 337.986774 
L 372.295246 337.869979 
L 372.859643 334.158916 
L 373.000681 332.34209 
L 373.423649 331.297868 
L 373.56459 329.035553 
L 373.705506 328.893155 
L 373.846398 328.205416 
L 374.128109 328.204813 
L 374.831962 331.507355 
L 374.972659 331.574901 
L 375.113333 336.314972 
L 375.253982 337.130122 
L 375.394606 339.286862 
L 375.535207 339.300642 
L 375.675783 339.672862 
L 375.956863 342.314476 
L 376.097367 343.313966 
L 376.237846 349.259932 
L 376.378301 349.25835 
L 376.518732 349.54096 
L 376.799521 353.342384 
L 376.939879 353.340802 
L 377.080213 352.558333 
L 377.220523 352.556751 
L 377.781521 360.663974 
L 377.92171 360.662393 
L 378.061875 360.450867 
L 378.202016 360.449285 
L 378.622294 364.558901 
L 378.902358 363.119372 
L 379.042354 363.117759 
L 379.322274 364.184712 
L 379.602098 364.219846 
L 379.881825 365.563265 
L 380.161456 367.720839 
L 380.301236 367.266011 
L 380.440991 365.354376 
L 380.72043 365.351041 
L 380.860113 368.997776 
L 380.999773 368.996101 
L 381.139408 368.331311 
L 381.418607 362.790049 
L 381.55817 362.788359 
L 381.697709 363.559869 
L 381.976716 366.58784 
L 382.534442 368.229808 
L 382.673814 366.481973 
L 382.813162 366.480251 
L 382.952485 367.387427 
L 383.091785 367.385699 
L 383.231061 365.479114 
L 383.370313 365.477379 
L 383.648745 370.366607 
L 383.787926 370.364866 
L 383.927082 368.414747 
L 384.205323 368.324213 
L 384.344408 367.439169 
L 384.622506 367.366544 
L 384.76152 367.582416 
L 384.900509 369.398466 
L 385.039475 369.406952 
L 385.178416 369.602338 
L 385.456228 372.796627 
L 385.595099 372.794875 
L 385.872768 368.968869 
L 386.011567 368.96712 
L 386.705205 371.633872 
L 386.982493 371.630381 
L 387.121102 370.622445 
L 387.398248 372.334355 
L 387.536786 372.675695 
L 387.6753 374.082118 
L 387.81379 374.080387 
L 388.090699 372.807034 
L 388.229118 373.076704 
L 388.367513 372.209609 
L 388.505885 372.061957 
L 388.782557 370.993452 
L 389.059135 370.990032 
L 389.197388 371.359566 
L 389.335618 373.692841 
L 389.473824 374.013734 
L 389.612007 373.689438 
L 389.750165 372.558656 
L 390.1645 372.49726 
L 390.302564 373.634903 
L 390.440605 376.165346 
L 390.578622 376.163671 
L 390.854586 372.926694 
L 390.992532 372.925032 
L 391.268354 373.682123 
L 391.544082 375.089542 
L 391.681911 375.226156 
L 391.819716 375.76986 
L 392.095255 375.7282 
L 392.370701 374.665008 
L 392.508388 375.326514 
L 392.646052 374.774448 
L 392.783693 374.772849 
L 392.92131 374.023652 
L 393.196473 371.944082 
L 393.33402 371.678787 
L 393.471543 371.940913 
L 393.609042 374.018285 
L 393.746518 374.049992 
L 393.883971 374.990605 
L 394.0214 375.137533 
L 394.158806 376.651661 
L 394.296189 376.906133 
L 394.433548 376.904584 
L 394.708195 374.781589 
L 394.845484 372.276097 
L 394.982749 372.274568 
L 395.394405 377.779745 
L 395.668725 376.60413 
L 395.80585 374.385429 
L 395.942952 374.383942 
L 396.080031 374.712737 
L 396.217086 376.249992 
L 396.354117 376.24852 
L 396.491126 374.672478 
L 396.628111 374.671018 
L 396.902011 378.367729 
L 397.175817 378.364858 
L 397.449531 376.659428 
L 397.586353 376.555608 
L 397.723152 375.112764 
L 397.859927 376.552808 
L 397.996679 375.706523 
L 398.133408 376.286324 
L 398.68009 374.294062 
L 398.816703 374.605059 
L 398.953292 374.291351 
L 399.089858 376.077083 
L 399.226401 375.937485 
L 399.362921 376.074404 
L 399.499417 375.934818 
L 399.635891 375.490564 
L 399.772341 375.489246 
L 399.908768 377.623212 
L 400.045171 377.621907 
L 400.181552 377.144396 
L 400.317909 377.143106 
L 400.454244 377.989277 
L 400.590555 377.988002 
L 400.726843 377.66926 
L 400.863107 375.842515 
L 400.999349 375.841262 
L 401.271763 376.804002 
L 401.544084 376.70169 
L 401.816313 375.178444 
L 402.224483 375.080101 
L 402.632446 377.117088 
L 402.768387 377.115914 
L 403.040201 373.749369 
L 403.176073 375.028355 
L 403.311922 377.362185 
L 403.447748 377.361041 
L 403.583551 376.433079 
L 403.719332 376.431949 
L 403.990823 379.033521 
L 404.126534 379.032414 
L 404.262222 377.715329 
L 404.533529 377.528816 
L 404.804744 379.052607 
L 404.940317 378.408917 
L 405.075868 378.407869 
L 405.48238 373.599106 
L 405.617839 376.929014 
L 405.753274 377.143059 
L 405.888687 377.142047 
L 406.024076 375.878821 
L 406.159443 375.85222 
L 406.294787 374.371381 
L 406.430108 374.370393 
L 406.565406 377.239491 
L 406.700681 377.238515 
L 406.835933 376.756212 
L 406.971162 376.755249 
L 407.106369 380.01354 
L 407.241552 380.012594 
L 407.511851 377.153451 
L 407.646966 376.617431 
L 407.782058 376.616518 
L 407.917128 376.362143 
L 408.052174 376.476456 
L 408.187198 376.268179 
L 408.457176 373.565306 
L 408.592132 374.614145 
L 408.727064 374.754087 
L 408.861974 375.572509 
L 408.99686 378.298352 
L 409.131724 378.297496 
L 409.401384 377.220489 
L 409.53618 377.219657 
L 409.805703 378.408549 
L 409.94043 377.695981 
L 410.075135 376.292143 
L 410.209817 376.291348 
L 410.479112 377.208922 
L 410.613726 376.739616 
L 410.748317 375.67633 
L 410.882885 375.675569 
L 411.017431 377.889462 
L 411.151954 378.144743 
L 411.286454 377.887975 
L 411.420932 377.190845 
L 411.958615 377.136787 
L 412.22732 379.508792 
L 412.495935 382.630999 
L 412.630209 383.311383 
L 412.76446 383.310743 
L 413.301237 373.653445 
L 413.435375 374.356923 
L 413.56949 373.859632 
L 413.837653 375.525199 
L 413.9717 376.407916 
L 414.105725 376.407341 
L 414.373707 380.328573 
L 414.507664 380.328023 
L 415.043267 376.454764 
L 415.310934 376.335981 
L 415.444733 378.580858 
L 415.57851 378.580372 
L 415.712264 377.686354 
L 415.845996 377.685884 
L 415.979706 377.13496 
L 416.113393 377.134505 
L 416.514319 374.99534 
L 416.647916 374.994909 
L 416.78149 375.112257 
L 416.915042 375.380667 
L 417.048572 376.053607 
L 417.182079 377.512563 
L 417.315564 377.58385 
L 417.582466 379.4444 
L 417.715883 379.444025 
L 418.382634 372.524369 
L 418.515917 372.524031 
L 419.048826 377.576728 
L 419.181997 375.620358 
L 419.581376 374.8949 
L 419.714458 374.392795 
L 419.847518 374.39251 
L 419.980555 375.206402 
L 420.11357 375.206127 
L 420.246562 375.479809 
L 420.379532 375.479545 
L 420.51248 377.535198 
L 420.645406 377.534948 
L 420.91119 374.582456 
L 421.309699 374.56641 
L 421.840733 369.101892 
L 422.106117 369.685205 
L 422.636617 374.182771 
L 422.769187 376.28968 
L 423.034259 376.450582 
L 423.166762 372.735417 
L 423.299243 372.735231 
L 423.431701 373.167738 
L 423.564138 373.167558 
L 423.696552 371.5416 
L 423.828944 371.541425 
L 423.961314 372.068672 
L 424.093662 372.073622 
L 424.225987 372.851781 
L 424.490572 372.851453 
L 424.622831 374.943048 
L 424.755068 374.942894 
L 424.887283 374.169537 
L 425.019476 371.081685 
L 425.151647 371.081541 
L 425.415922 375.53616 
L 425.548026 375.536027 
L 425.680109 373.275166 
L 425.944207 373.241637 
L 426.208217 376.684994 
L 426.340189 376.684889 
L 426.604067 375.425036 
L 426.867857 374.574851 
L 426.999719 375.038186 
L 427.131558 374.574701 
L 427.263376 374.858825 
L 427.395172 374.858763 
L 427.526945 377.3089 
L 427.790427 377.25248 
L 428.05382 372.495398 
L 428.185484 372.495369 
L 428.448746 376.499609 
L 428.580343 376.499594 
L 428.711919 374.269575 
L 428.843473 374.26957 
L 428.843473 374.26957 
" clip-path="url(#pfec023db7b)" style="fill: none; stroke: #5088c5; stroke-width: 2; stroke-linecap: round"/>
   </g>
   <g id="line2d_16">
    <defs>
     <path id="m7f7f382962" d="M 0 3 
C 0.795609 3 1.55874 2.683901 2.12132 2.12132 
C 2.683901 1.55874 3 0.795609 3 0 
C 3 -0.795609 2.683901 -1.55874 2.12132 -2.12132 
C 1.55874 -2.683901 0.795609 -3 0 -3 
C -0.795609 -3 -1.55874 -2.683901 -2.12132 -2.12132 
C -2.683901 -1.55874 -3 -0.795609 -3 0 
C -3 0.795609 -2.683901 1.55874 -2.12132 2.12132 
C -1.55874 2.683901 -0.795609 3 0 3 
z
"/>
    </defs>
    <g clip-path="url(#pfec023db7b)">
     <use xlink:href="#m7f7f382962" x="159.897159" y="290.361717" style="fill: #f28360"/>
     <use xlink:href="#m7f7f382962" x="206.70009" y="331.647945" style="fill: #f28360"/>
     <use xlink:href="#m7f7f382962" x="296.615881" y="147.161769" style="fill: #f28360"/>
     <use xlink:href="#m7f7f382962" x="367.683895" y="33.975097" style="fill: #f28360"/>
     <use xlink:href="#m7f7f382962" x="373.924561" y="328.203834" style="fill: #f28360"/>
    </g>
   </g>
   <g id="patch_3">
    <path d="M 91.128438 397.284897 
L 91.128438 20 
" style="fill: none; stroke: #000000; stroke-width: 0.75; stroke-linejoin: miter; stroke-linecap: square"/>
   </g>
   <g id="patch_4">
    <path d="M 91.128438 397.284897 
L 441.832513 397.284897 
" style="fill: none; stroke: #000000; stroke-width: 0.75; stroke-linejoin: miter; stroke-linecap: square"/>
   </g>
  </g>
 </g>
 <defs>
  <clipPath id="pfec023db7b">
   <rect x="91.128438" y="20" width="350.704075" height="377.284898"/>
  </clipPath>
 </defs>
</svg>
