<?xml version="1.0" encoding="utf-8" standalone="no"?>
<!DOCTYPE svg PUBLIC "-//W3C//DTD SVG 1.1//EN"
  "http://www.w3.org/Graphics/SVG/1.1/DTD/svg11.dtd">
<svg xmlns:xlink="http://www.w3.org/1999/xlink" width="463.984893pt" height="463.99896pt" viewBox="0 0 463.984893 463.99896" xmlns="http://www.w3.org/2000/svg" version="1.1">
 <metadata>
  <rdf:RDF xmlns:dc="http://purl.org/dc/elements/1.1/" xmlns:cc="http://creativecommons.org/ns#" xmlns:rdf="http://www.w3.org/1999/02/22-rdf-syntax-ns#">
   <cc:Work>
    <dc:type rdf:resource="http://purl.org/dc/dcmitype/StillImage"/>
    <dc:date>2025-02-07T21:28:49.162335</dc:date>
    <dc:format>image/svg+xml</dc:format>
    <dc:creator>
     <cc:Agent>
      <dc:title>Matplotlib v3.8.4, https://matplotlib.org/</dc:title>
     </cc:Agent>
    </dc:creator>
   </cc:Work>
  </rdf:RDF>
 </metadata>
 <defs>
  <style type="text/css">*{stroke-linejoin: round; stroke-linecap: butt}</style>
 </defs>
 <g id="figure_1">
  <g id="patch_1">
   <path d="M 0 463.99896 
L 463.984893 463.99896 
L 463.984893 0 
L 0 0 
L 0 463.99896 
z
" style="fill: none"/>
  </g>
  <g id="axes_1">
   <g id="patch_2">
    <path d="M 72.39625 397.163023 
L 437.671766 397.163023 
L 437.671766 20 
L 72.39625 20 
L 72.39625 397.163023 
z
" style="fill: none"/>
   </g>
   <g id="matplotlib.axis_1">
    <g id="xtick_1">
     <g id="line2d_1">
      <defs>
       <path id="mb925bb81e9" d="M 0 0 
L 0 5 
" style="stroke: #000000; stroke-width: 0.75"/>
      </defs>
      <g>
       <use xlink:href="#mb925bb81e9" x="128.997717" y="397.163023" style="stroke: #000000; stroke-width: 0.75"/>
      </g>
     </g>
     <g id="text_1">
      <text style="font: 14.5px &quot;Suisse Int&apos;l Mono&quot;; text-anchor: middle" x="128.997717" y="417.675522" transform="rotate(-0 128.997717 417.675522)">560</text>
     </g>
    </g>
    <g id="xtick_2">
     <g id="line2d_2">
      <g>
       <use xlink:href="#mb925bb81e9" x="189.185324" y="397.163023" style="stroke: #000000; stroke-width: 0.75"/>
      </g>
     </g>
     <g id="text_2">
      <text style="font: 14.5px &quot;Suisse Int&apos;l Mono&quot;; text-anchor: middle" x="189.185324" y="417.675522" transform="rotate(-0 189.185324 417.675522)">580</text>
     </g>
    </g>
    <g id="xtick_3">
     <g id="line2d_3">
      <g>
       <use xlink:href="#mb925bb81e9" x="249.372931" y="397.163023" style="stroke: #000000; stroke-width: 0.75"/>
      </g>
     </g>
     <g id="text_3">
      <text style="font: 14.5px &quot;Suisse Int&apos;l Mono&quot;; text-anchor: middle" x="249.372931" y="417.675522" transform="rotate(-0 249.372931 417.675522)">600</text>
     </g>
    </g>
    <g id="xtick_4">
     <g id="line2d_4">
      <g>
       <use xlink:href="#mb925bb81e9" x="309.560538" y="397.163023" style="stroke: #000000; stroke-width: 0.75"/>
      </g>
     </g>
     <g id="text_4">
      <text style="font: 14.5px &quot;Suisse Int&apos;l Mono&quot;; text-anchor: middle" x="309.560538" y="417.675522" transform="rotate(-0 309.560538 417.675522)">620</text>
     </g>
    </g>
    <g id="xtick_5">
     <g id="line2d_5">
      <g>
       <use xlink:href="#mb925bb81e9" x="369.748145" y="397.163023" style="stroke: #000000; stroke-width: 0.75"/>
      </g>
     </g>
     <g id="text_5">
      <text style="font: 14.5px &quot;Suisse Int&apos;l Mono&quot;; text-anchor: middle" x="369.748145" y="417.675522" transform="rotate(-0 369.748145 417.675522)">640</text>
     </g>
    </g>
    <g id="xtick_6">
     <g id="line2d_6">
      <g>
       <use xlink:href="#mb925bb81e9" x="429.935753" y="397.163023" style="stroke: #000000; stroke-width: 0.75"/>
      </g>
     </g>
     <g id="text_6">
      <text style="font: 14.5px &quot;Suisse Int&apos;l Mono&quot;; text-anchor: middle" x="429.935753" y="417.675522" transform="rotate(-0 429.935753 417.675522)">660</text>
     </g>
    </g>
    <g id="text_7">
     <text style="font: 500 15px &quot;Suisse Int&apos;l&quot;, sans-serif; text-anchor: middle" x="255.034008" y="441.088023" transform="rotate(-0 255.034008 441.088023)">Wavelength (nm)</text>
    </g>
   </g>
   <g id="matplotlib.axis_2">
    <g id="ytick_1">
     <g id="line2d_7">
      <defs>
       <path id="m53be698225" d="M 0 0 
L -5 0 
" style="stroke: #000000; stroke-width: 0.75"/>
      </defs>
      <g>
       <use xlink:href="#m53be698225" x="72.39625" y="383.026468" style="stroke: #000000; stroke-width: 0.75"/>
      </g>
     </g>
     <g id="text_8">
      <text style="font: 14.5px &quot;Suisse Int&apos;l Mono&quot;; text-anchor: end" x="62.39625" y="388.282718" transform="rotate(-0 62.39625 388.282718)">0</text>
     </g>
    </g>
    <g id="ytick_2">
     <g id="line2d_8">
      <g>
       <use xlink:href="#m53be698225" x="72.39625" y="332.827768" style="stroke: #000000; stroke-width: 0.75"/>
      </g>
     </g>
     <g id="text_9">
      <text style="font: 14.5px &quot;Suisse Int&apos;l Mono&quot;; text-anchor: end" x="62.39625" y="338.084018" transform="rotate(-0 62.39625 338.084018)">5</text>
     </g>
    </g>
    <g id="ytick_3">
     <g id="line2d_9">
      <g>
       <use xlink:href="#m53be698225" x="72.39625" y="282.629068" style="stroke: #000000; stroke-width: 0.75"/>
      </g>
     </g>
     <g id="text_10">
      <text style="font: 14.5px &quot;Suisse Int&apos;l Mono&quot;; text-anchor: end" x="62.39625" y="287.885318" transform="rotate(-0 62.39625 287.885318)">10</text>
     </g>
    </g>
    <g id="ytick_4">
     <g id="line2d_10">
      <g>
       <use xlink:href="#m53be698225" x="72.39625" y="232.430368" style="stroke: #000000; stroke-width: 0.75"/>
      </g>
     </g>
     <g id="text_11">
      <text style="font: 14.5px &quot;Suisse Int&apos;l Mono&quot;; text-anchor: end" x="62.39625" y="237.686618" transform="rotate(-0 62.39625 237.686618)">15</text>
     </g>
    </g>
    <g id="ytick_5">
     <g id="line2d_11">
      <g>
       <use xlink:href="#m53be698225" x="72.39625" y="182.231668" style="stroke: #000000; stroke-width: 0.75"/>
      </g>
     </g>
     <g id="text_12">
      <text style="font: 14.5px &quot;Suisse Int&apos;l Mono&quot;; text-anchor: end" x="62.39625" y="187.487918" transform="rotate(-0 62.39625 187.487918)">20</text>
     </g>
    </g>
    <g id="ytick_6">
     <g id="line2d_12">
      <g>
       <use xlink:href="#m53be698225" x="72.39625" y="132.032968" style="stroke: #000000; stroke-width: 0.75"/>
      </g>
     </g>
     <g id="text_13">
      <text style="font: 14.5px &quot;Suisse Int&apos;l Mono&quot;; text-anchor: end" x="62.39625" y="137.289218" transform="rotate(-0 62.39625 137.289218)">25</text>
     </g>
    </g>
    <g id="ytick_7">
     <g id="line2d_13">
      <g>
       <use xlink:href="#m53be698225" x="72.39625" y="81.834268" style="stroke: #000000; stroke-width: 0.75"/>
      </g>
     </g>
     <g id="text_14">
      <text style="font: 14.5px &quot;Suisse Int&apos;l Mono&quot;; text-anchor: end" x="62.39625" y="87.090518" transform="rotate(-0 62.39625 87.090518)">30</text>
     </g>
    </g>
    <g id="ytick_8">
     <g id="line2d_14">
      <g>
       <use xlink:href="#m53be698225" x="72.39625" y="31.635568" style="stroke: #000000; stroke-width: 0.75"/>
      </g>
     </g>
     <g id="text_15">
      <text style="font: 14.5px &quot;Suisse Int&apos;l Mono&quot;; text-anchor: end" x="62.39625" y="36.891818" transform="rotate(-0 62.39625 36.891818)">35</text>
     </g>
    </g>
    <g id="text_16">
     <text style="font: 500 15px &quot;Suisse Int&apos;l&quot;, sans-serif; text-anchor: middle" x="30.875" y="208.581511" transform="rotate(-90 30.875 208.581511)">Intensity (au)</text>
    </g>
   </g>
   <g id="line2d_15">
    <path d="M 85.924973 383.142614 
L 88.403366 383.141825 
L 117.483181 383.044832 
L 117.978859 383.087064 
L 126.735849 383.127712 
L 127.727206 383.110005 
L 128.222885 383.119727 
L 145.075959 383.087867 
L 145.571638 382.869115 
L 146.562995 382.885103 
L 146.893448 382.88347 
L 147.2239 383.033437 
L 148.050031 383.086431 
L 148.710936 383.083567 
L 149.371841 383.130502 
L 155.319985 383.054825 
L 155.815663 383.002241 
L 156.641794 383.009778 
L 163.911748 383.127051 
L 164.242201 383.019617 
L 164.737879 383.00118 
L 166.555368 383.095353 
L 167.216272 383.122243 
L 168.372856 383.126786 
L 169.859892 383.165665 
L 172.668738 383.063887 
L 172.99919 382.624546 
L 173.329643 382.520131 
L 174.486226 382.628202 
L 174.981905 383.119192 
L 176.964619 383.037661 
L 177.460298 382.892736 
L 177.625524 382.212794 
L 177.955977 380.319599 
L 178.451655 380.289227 
L 179.11256 380.36131 
L 179.277786 380.676206 
L 179.608239 382.643291 
L 179.773465 382.97154 
L 180.269144 383.096884 
L 189.521812 383.056811 
L 190.182717 382.549215 
L 191.3393 382.675286 
L 191.669753 383.022768 
L 193.156789 383.001861 
L 193.652468 383.003225 
L 194.148146 382.966839 
L 194.313372 382.710878 
L 194.643825 381.493565 
L 194.974277 381.314461 
L 195.965635 381.380237 
L 196.626539 382.921347 
L 199.600611 382.812138 
L 201.748552 382.27646 
L 202.574683 381.935256 
L 203.235588 381.208476 
L 203.400814 380.813863 
L 203.566041 380.101694 
L 203.731267 378.715958 
L 203.896493 369.18227 
L 204.061719 299.829101 
L 204.392172 65.867114 
L 204.557398 37.923555 
L 204.722624 34.438811 
L 204.88785 33.969001 
L 205.053077 33.96905 
L 205.383529 35.791362 
L 205.548755 39.971959 
L 205.713981 71.078135 
L 206.20966 359.648322 
L 206.374886 373.154633 
L 206.705339 379.33108 
L 207.035791 380.970367 
L 207.366244 381.578373 
L 208.357601 382.250629 
L 208.522827 382.250679 
L 208.85328 382.415128 
L 210.009863 382.575809 
L 210.340316 382.325317 
L 210.670768 382.187168 
L 211.331673 382.220899 
L 211.827352 382.330782 
L 212.157804 382.680665 
L 212.488256 382.724939 
L 212.653483 382.56365 
L 212.818709 379.96933 
L 213.314388 357.371631 
L 213.479614 356.615688 
L 213.810066 356.390896 
L 214.140519 356.390995 
L 214.305745 356.687217 
L 214.470971 357.573776 
L 214.636197 362.558657 
L 214.96665 379.808635 
L 215.131876 381.927672 
L 215.297102 381.942179 
L 215.462328 382.751833 
L 216.784138 382.981028 
L 217.445043 382.948792 
L 217.610269 382.859989 
L 217.775495 383.027299 
L 218.766853 383.015036 
L 219.097305 382.726088 
L 219.427758 382.042878 
L 219.75821 381.852319 
L 220.253889 381.727468 
L 220.584341 381.428981 
L 220.749567 381.429029 
L 221.245246 382.351724 
L 221.575699 382.437458 
L 221.906151 382.492271 
L 222.40183 382.863583 
L 224.384544 382.76906 
L 224.714997 382.874968 
L 225.375902 382.891508 
L 225.706354 382.828947 
L 226.036806 382.904633 
L 226.202033 383.0623 
L 228.845652 382.990001 
L 229.341331 382.939329 
L 230.993593 382.84548 
L 231.324045 382.677698 
L 231.489272 382.446223 
L 231.654498 379.959521 
L 231.819724 370.326431 
L 232.150177 339.904696 
L 232.315403 335.601705 
L 232.480629 334.468259 
L 232.645855 334.373927 
L 232.976308 334.465371 
L 233.30676 335.767608 
L 233.471986 341.475242 
L 233.967665 379.761512 
L 234.132891 381.740487 
L 234.463344 382.628986 
L 234.959022 382.866348 
L 235.289475 382.927772 
L 235.785153 382.883919 
L 236.115606 383.006383 
L 237.767868 382.930881 
L 238.09832 382.699745 
L 238.428773 382.379957 
L 239.42013 382.461114 
L 240.576714 382.969899 
L 240.74194 382.608005 
L 240.907166 381.27075 
L 241.568071 370.210726 
L 241.733297 369.956959 
L 242.06375 370.00834 
L 242.394202 370.108915 
L 242.559428 370.846974 
L 242.724655 372.781771 
L 243.220333 382.304379 
L 243.550786 382.859353 
L 243.716012 383.016212 
L 244.707369 383.0057 
L 245.203048 382.540473 
L 245.863953 382.5343 
L 246.194405 382.388097 
L 246.524858 382.479636 
L 247.185762 382.854069 
L 247.846667 383.013249 
L 248.17712 383.109906 
L 249.003251 382.993934 
L 249.994608 383.005304 
L 250.490287 382.991863 
L 250.820739 383.081793 
L 252.96868 383.093431 
L 256.934109 382.984135 
L 257.099336 382.810989 
L 257.264562 381.500039 
L 257.595014 373.603862 
L 257.925467 368.338197 
L 258.255919 367.920823 
L 258.586372 367.953631 
L 258.751598 368.059288 
L 258.916824 368.751066 
L 259.08205 370.594602 
L 259.577729 381.956091 
L 259.742955 382.619055 
L 260.073408 382.950444 
L 262.221348 383.072633 
L 263.212706 383.023975 
L 267.83904 382.936221 
L 268.499945 382.887985 
L 269.656528 382.798396 
L 270.317433 382.587408 
L 270.482659 380.586725 
L 270.647886 374.324775 
L 271.30879 332.54876 
L 271.474017 331.560886 
L 271.639243 331.560923 
L 271.969695 331.992705 
L 272.134921 332.321041 
L 272.300148 336.312878 
L 272.465374 345.0505 
L 272.795826 374.900628 
L 272.961053 380.274134 
L 273.126279 381.798404 
L 273.456731 382.517022 
L 273.787184 382.68526 
L 274.613315 382.803407 
L 276.596029 382.51638 
L 276.761256 382.31833 
L 276.926482 381.711461 
L 277.091708 375.89969 
L 277.256934 362.584217 
L 277.752613 299.616775 
L 277.917839 295.308756 
L 278.083065 294.312848 
L 278.413518 294.265728 
L 278.578744 294.360135 
L 278.74397 297.264666 
L 278.909196 305.904899 
L 279.239649 352.237363 
L 279.404875 372.975985 
L 279.570101 379.181883 
L 279.900554 381.962457 
L 280.231006 382.561796 
L 281.552816 382.891766 
L 286.674829 382.89212 
L 287.005281 382.257165 
L 287.335734 380.806581 
L 287.666186 380.395613 
L 287.996639 380.350794 
L 288.492317 380.472965 
L 288.82277 381.341762 
L 289.153222 382.525907 
L 289.979353 382.613199 
L 290.640258 382.312023 
L 290.805484 382.109651 
L 290.97071 381.372261 
L 291.135937 374.923264 
L 291.301163 359.595923 
L 291.962068 255.691558 
L 292.127294 252.186714 
L 292.29252 251.644597 
L 292.622973 251.755093 
L 292.788199 254.188755 
L 292.953425 264.967449 
L 293.118651 285.278877 
L 293.61433 374.862661 
L 293.944782 380.973407 
L 294.275235 381.9421 
L 294.440461 382.289906 
L 295.762271 382.67175 
L 296.257949 382.718622 
L 297.084081 382.61415 
L 297.249307 381.439127 
L 297.414533 377.894224 
L 297.579759 371.246639 
L 297.910212 350.25892 
L 298.075438 346.071373 
L 298.40589 344.352626 
L 298.736343 344.269353 
L 298.901569 344.806507 
L 299.066795 347.20001 
L 299.232021 351.792215 
L 299.7277 379.44837 
L 299.892926 381.59349 
L 300.223379 382.600633 
L 300.553831 382.821162 
L 301.214736 382.799988 
L 301.875641 382.764554 
L 303.032224 382.901674 
L 303.527903 382.676255 
L 303.858356 382.547293 
L 304.354034 382.587224 
L 304.684487 382.661064 
L 305.180165 382.898878 
L 305.510618 382.981352 
L 310.797857 382.936029 
L 311.128309 382.869111 
L 311.623988 382.908437 
L 312.284893 382.955012 
L 312.615345 382.877751 
L 313.111024 382.484662 
L 313.27625 382.20829 
L 313.441476 380.721627 
L 313.606702 377.902691 
L 314.267607 357.153649 
L 314.432834 356.254111 
L 314.763286 356.140706 
L 314.928512 356.21703 
L 315.093738 356.807389 
L 315.258965 358.941759 
L 315.424191 362.848345 
L 315.919869 380.955785 
L 316.250322 382.556365 
L 316.580774 382.854489 
L 317.241679 382.953568 
L 318.398263 383.06797 
L 323.189823 382.989089 
L 323.520276 382.889137 
L 324.015954 382.95416 
L 326.329121 382.866007 
L 326.659574 382.802095 
L 327.155252 382.724247 
L 327.485705 382.509536 
L 327.816157 382.441405 
L 327.981383 381.979697 
L 328.14661 379.935224 
L 328.311836 374.134382 
L 328.477062 363.390875 
L 328.972741 309.271013 
L 329.303193 303.025329 
L 329.468419 301.601714 
L 329.633646 301.601733 
L 329.798872 302.493281 
L 329.964098 306.593531 
L 330.129324 314.137411 
L 330.459777 351.638891 
L 330.790229 378.116535 
L 331.120682 381.630584 
L 331.451134 382.414425 
L 331.946813 382.705335 
L 334.590432 383.001599 
L 335.912242 383.002143 
L 337.399278 382.900498 
L 338.555861 382.863669 
L 339.05154 382.841027 
L 339.381993 382.824291 
L 339.547219 382.498617 
L 339.712445 381.220172 
L 339.877671 378.694791 
L 340.042897 373.893803 
L 340.538576 353.851716 
L 340.869029 351.728341 
L 341.034255 351.402065 
L 341.199481 351.40208 
L 341.364707 352.153068 
L 341.529933 353.967264 
L 341.69516 357.319548 
L 342.356065 381.260273 
L 342.686517 382.422102 
L 343.182196 382.700951 
L 344.338779 382.769725 
L 344.669232 382.878482 
L 345.16491 382.981229 
L 346.651946 382.883355 
L 348.304208 381.631916 
L 348.469435 380.75084 
L 348.634661 377.682004 
L 348.799887 371.586287 
L 348.965113 360.512766 
L 349.460792 311.928491 
L 349.791244 306.706845 
L 349.956471 306.317314 
L 350.121697 306.317326 
L 350.286923 307.81125 
L 350.452149 311.760895 
L 350.617375 319.856953 
L 351.27828 378.439484 
L 351.608733 381.710254 
L 351.939185 382.497894 
L 352.269638 382.784552 
L 353.756674 382.918375 
L 354.252352 382.906757 
L 360.696175 382.825832 
L 361.35708 382.675958 
L 362.348437 382.397685 
L 362.844116 381.988279 
L 363.009342 381.38108 
L 363.174568 378.26716 
L 363.339794 371.100296 
L 363.505021 358.409166 
L 364.165925 265.699214 
L 364.496378 259.435429 
L 364.661604 259.050912 
L 364.82683 259.050917 
L 364.992057 263.991478 
L 365.157283 272.954963 
L 365.322509 289.722337 
L 365.818188 370.427705 
L 366.14864 379.399327 
L 366.479092 381.411702 
L 366.809545 382.017509 
L 367.139997 382.118619 
L 367.800902 382.032999 
L 368.461807 381.630023 
L 368.627033 381.28195 
L 368.79226 380.34093 
L 368.957486 376.03971 
L 369.122712 365.59718 
L 369.287938 347.734078 
L 369.618391 265.030725 
L 369.948843 205.67278 
L 370.279296 194.553777 
L 370.609748 194.657196 
L 370.774974 199.760401 
L 370.9402 213.368269 
L 371.105427 236.821107 
L 371.601105 360.467949 
L 371.931558 377.061239 
L 372.26201 380.707281 
L 372.592463 381.780338 
L 372.922915 382.097001 
L 373.088141 382.117487 
L 373.253367 382.366376 
L 373.418594 382.388167 
L 373.914272 382.707345 
L 375.731761 382.801055 
L 376.888344 382.899255 
L 378.871059 383.037107 
L 384.323524 383.002386 
L 385.314881 383.083306 
L 385.975786 383.057003 
L 397.045943 382.955612 
L 399.524336 382.336979 
L 399.854789 382.162589 
L 400.020015 381.856378 
L 400.185241 381.257909 
L 400.350467 378.939533 
L 400.515694 373.395287 
L 400.68092 363.639572 
L 400.846146 346.903125 
L 401.341825 263.842349 
L 401.672277 249.716436 
L 401.837503 248.487572 
L 402.00273 248.487572 
L 402.167956 251.511543 
L 402.333182 258.292383 
L 402.663634 291.865275 
L 403.159313 370.579046 
L 403.489766 379.781172 
L 403.820218 381.794542 
L 403.985444 382.002867 
L 404.15067 382.436584 
L 404.646349 382.656857 
L 407.124742 382.847097 
L 407.455195 382.768381 
L 407.785647 382.656633 
L 408.1161 382.49328 
L 408.281326 382.030445 
L 408.446552 380.658813 
L 408.611778 378.143152 
L 408.777005 373.846843 
L 409.437909 346.696262 
L 409.768362 344.58791 
L 409.933588 344.587907 
L 410.098814 345.449314 
L 410.26404 347.068721 
L 410.594493 355.704899 
L 411.090172 378.731034 
L 411.420624 381.935713 
L 411.751076 382.685374 
L 412.081529 382.89319 
L 413.238112 383.006615 
L 414.064244 383.025672 
L 424.143043 383.087093 
L 424.143043 383.087093 
" clip-path="url(#pfd9a4e37a9)" style="fill: none; stroke: #5088c5; stroke-linecap: round"/>
   </g>
   <g id="line2d_16">
    <defs>
     <path id="mf4577bc56b" d="M 0 2 
C 0.530406 2 1.03916 1.789267 1.414214 1.414214 
C 1.789267 1.03916 2 0.530406 2 0 
C 2 -0.530406 1.789267 -1.03916 1.414214 -1.414214 
C 1.03916 -1.789267 0.530406 -2 0 -2 
C -0.530406 -2 -1.03916 -1.789267 -1.414214 -1.414214 
C -1.789267 -1.03916 -2 -0.530406 -2 0 
C -2 0.530406 -1.789267 1.03916 -1.414214 1.414214 
C -1.03916 1.789267 -0.530406 2 0 2 
z
"/>
    </defs>
    <g clip-path="url(#pfd9a4e37a9)">
     <use xlink:href="#mf4577bc56b" x="205.052636" y="33.96905" style="fill: #f28360"/>
     <use xlink:href="#mf4577bc56b" x="213.892194" y="356.390896" style="fill: #f28360"/>
     <use xlink:href="#mf4577bc56b" x="232.804877" y="334.46533" style="fill: #f28360"/>
     <use xlink:href="#mf4577bc56b" x="271.725305" y="331.709547" style="fill: #f28360"/>
     <use xlink:href="#mf4577bc56b" x="278.285653" y="294.265694" style="fill: #f28360"/>
     <use xlink:href="#mf4577bc56b" x="292.385377" y="251.644626" style="fill: #f28360"/>
     <use xlink:href="#mf4577bc56b" x="298.556939" y="344.269325" style="fill: #f28360"/>
     <use xlink:href="#mf4577bc56b" x="314.698289" y="356.140706" style="fill: #f28360"/>
     <use xlink:href="#mf4577bc56b" x="329.515693" y="301.601714" style="fill: #f28360"/>
     <use xlink:href="#mf4577bc56b" x="341.044641" y="351.402065" style="fill: #f28360"/>
     <use xlink:href="#mf4577bc56b" x="349.9697" y="306.317314" style="fill: #f28360"/>
     <use xlink:href="#mf4577bc56b" x="364.609467" y="259.050912" style="fill: #f28360"/>
     <use xlink:href="#mf4577bc56b" x="370.414832" y="194.553782" style="fill: #f28360"/>
     <use xlink:href="#mf4577bc56b" x="401.893215" y="248.487572" style="fill: #f28360"/>
     <use xlink:href="#mf4577bc56b" x="409.856811" y="344.587907" style="fill: #f28360"/>
    </g>
   </g>
   <g id="patch_3">
    <path d="M 72.39625 397.163023 
L 72.39625 20 
" style="fill: none; stroke: #000000; stroke-width: 0.75; stroke-linejoin: miter; stroke-linecap: square"/>
   </g>
   <g id="patch_4">
    <path d="M 72.39625 397.163023 
L 437.671766 397.163023 
" style="fill: none; stroke: #000000; stroke-width: 0.75; stroke-linejoin: miter; stroke-linecap: square"/>
   </g>
  </g>
 </g>
 <defs>
  <clipPath id="pfd9a4e37a9">
   <rect x="72.39625" y="20" width="365.275516" height="377.163023"/>
  </clipPath>
 </defs>
</svg>
