<?xml version="1.0" encoding="utf-8" standalone="no"?>
<!DOCTYPE svg PUBLIC "-//W3C//DTD SVG 1.1//EN"
  "http://www.w3.org/Graphics/SVG/1.1/DTD/svg11.dtd">
<svg xmlns:xlink="http://www.w3.org/1999/xlink" width="463.929985pt" height="463.99896pt" viewBox="0 0 463.929985 463.99896" xmlns="http://www.w3.org/2000/svg" version="1.1">
 <metadata>
  <rdf:RDF xmlns:dc="http://purl.org/dc/elements/1.1/" xmlns:cc="http://creativecommons.org/ns#" xmlns:rdf="http://www.w3.org/1999/02/22-rdf-syntax-ns#">
   <cc:Work>
    <dc:type rdf:resource="http://purl.org/dc/dcmitype/StillImage"/>
    <dc:date>2025-02-07T21:29:24.175494</dc:date>
    <dc:format>image/svg+xml</dc:format>
    <dc:creator>
     <cc:Agent>
      <dc:title>Matplotlib v3.8.4, https://matplotlib.org/</dc:title>
     </cc:Agent>
    </dc:creator>
   </cc:Work>
  </rdf:RDF>
 </metadata>
 <defs>
  <style type="text/css">*{stroke-linejoin: round; stroke-linecap: butt}</style>
 </defs>
 <g id="figure_1">
  <g id="patch_1">
   <path d="M 0 463.99896 
L 463.929985 463.99896 
L 463.929985 0 
L 0 0 
L 0 463.99896 
z
" style="fill: none"/>
  </g>
  <g id="axes_1">
   <g id="patch_2">
    <path d="M 81.762344 397.284897 
L 443.453569 397.284897 
L 443.453569 20 
L 81.762344 20 
L 81.762344 397.284897 
z
" style="fill: none"/>
   </g>
   <g id="matplotlib.axis_1">
    <g id="xtick_1">
     <g id="line2d_1">
      <defs>
       <path id="me93d61e21f" d="M 0 0 
L 0 5 
" style="stroke: #000000; stroke-width: 0.75"/>
      </defs>
      <g>
       <use xlink:href="#me93d61e21f" x="106.627012" y="397.284897" style="stroke: #000000; stroke-width: 0.75"/>
      </g>
     </g>
     <g id="text_1">
      <text style="font: 14.5px &quot;Suisse Int&apos;l Mono&quot;; text-anchor: middle" x="106.627012" y="417.797397" transform="rotate(-0 106.627012 417.797397)">500</text>
     </g>
    </g>
    <g id="xtick_2">
     <g id="line2d_2">
      <g>
       <use xlink:href="#me93d61e21f" x="159.722143" y="397.284897" style="stroke: #000000; stroke-width: 0.75"/>
      </g>
     </g>
     <g id="text_2">
      <text style="font: 14.5px &quot;Suisse Int&apos;l Mono&quot;; text-anchor: middle" x="159.722143" y="417.797397" transform="rotate(-0 159.722143 417.797397)">1000</text>
     </g>
    </g>
    <g id="xtick_3">
     <g id="line2d_3">
      <g>
       <use xlink:href="#me93d61e21f" x="212.817274" y="397.284897" style="stroke: #000000; stroke-width: 0.75"/>
      </g>
     </g>
     <g id="text_3">
      <text style="font: 14.5px &quot;Suisse Int&apos;l Mono&quot;; text-anchor: middle" x="212.817274" y="417.797397" transform="rotate(-0 212.817274 417.797397)">1500</text>
     </g>
    </g>
    <g id="xtick_4">
     <g id="line2d_4">
      <g>
       <use xlink:href="#me93d61e21f" x="265.912404" y="397.284897" style="stroke: #000000; stroke-width: 0.75"/>
      </g>
     </g>
     <g id="text_4">
      <text style="font: 14.5px &quot;Suisse Int&apos;l Mono&quot;; text-anchor: middle" x="265.912404" y="417.797397" transform="rotate(-0 265.912404 417.797397)">2000</text>
     </g>
    </g>
    <g id="xtick_5">
     <g id="line2d_5">
      <g>
       <use xlink:href="#me93d61e21f" x="319.007535" y="397.284897" style="stroke: #000000; stroke-width: 0.75"/>
      </g>
     </g>
     <g id="text_5">
      <text style="font: 14.5px &quot;Suisse Int&apos;l Mono&quot;; text-anchor: middle" x="319.007535" y="417.797397" transform="rotate(-0 319.007535 417.797397)">2500</text>
     </g>
    </g>
    <g id="xtick_6">
     <g id="line2d_6">
      <g>
       <use xlink:href="#me93d61e21f" x="372.102666" y="397.284897" style="stroke: #000000; stroke-width: 0.75"/>
      </g>
     </g>
     <g id="text_6">
      <text style="font: 14.5px &quot;Suisse Int&apos;l Mono&quot;; text-anchor: middle" x="372.102666" y="417.797397" transform="rotate(-0 372.102666 417.797397)">3000</text>
     </g>
    </g>
    <g id="xtick_7">
     <g id="line2d_7">
      <g>
       <use xlink:href="#me93d61e21f" x="425.197797" y="397.284897" style="stroke: #000000; stroke-width: 0.75"/>
      </g>
     </g>
     <g id="text_7">
      <text style="font: 14.5px &quot;Suisse Int&apos;l Mono&quot;; text-anchor: middle" x="425.197797" y="417.797397" transform="rotate(-0 425.197797 417.797397)">3500</text>
     </g>
    </g>
    <g id="text_8">
     <text style="font: 500 15px &quot;Suisse Int&apos;l&quot;, sans-serif; text-anchor: middle" x="262.607956" y="441.209898" transform="rotate(-0 262.607956 441.209898)">Raman shift (cm-1)</text>
    </g>
   </g>
   <g id="matplotlib.axis_2">
    <g id="ytick_1">
     <g id="line2d_8">
      <defs>
       <path id="mbdd413d491" d="M 0 0 
L -5 0 
" style="stroke: #000000; stroke-width: 0.75"/>
      </defs>
      <g>
       <use xlink:href="#mbdd413d491" x="81.762344" y="381.84704" style="stroke: #000000; stroke-width: 0.75"/>
      </g>
     </g>
     <g id="text_9">
      <text style="font: 14.5px &quot;Suisse Int&apos;l Mono&quot;; text-anchor: end" x="71.762344" y="387.10329" transform="rotate(-0 71.762344 387.10329)">0.0</text>
     </g>
    </g>
    <g id="ytick_2">
     <g id="line2d_9">
      <g>
       <use xlink:href="#mbdd413d491" x="81.762344" y="323.912948" style="stroke: #000000; stroke-width: 0.75"/>
      </g>
     </g>
     <g id="text_10">
      <text style="font: 14.5px &quot;Suisse Int&apos;l Mono&quot;; text-anchor: end" x="71.762344" y="329.169198" transform="rotate(-0 71.762344 329.169198)">0.2</text>
     </g>
    </g>
    <g id="ytick_3">
     <g id="line2d_10">
      <g>
       <use xlink:href="#mbdd413d491" x="81.762344" y="265.978856" style="stroke: #000000; stroke-width: 0.75"/>
      </g>
     </g>
     <g id="text_11">
      <text style="font: 14.5px &quot;Suisse Int&apos;l Mono&quot;; text-anchor: end" x="71.762344" y="271.235106" transform="rotate(-0 71.762344 271.235106)">0.4</text>
     </g>
    </g>
    <g id="ytick_4">
     <g id="line2d_11">
      <g>
       <use xlink:href="#mbdd413d491" x="81.762344" y="208.044764" style="stroke: #000000; stroke-width: 0.75"/>
      </g>
     </g>
     <g id="text_12">
      <text style="font: 14.5px &quot;Suisse Int&apos;l Mono&quot;; text-anchor: end" x="71.762344" y="213.301014" transform="rotate(-0 71.762344 213.301014)">0.6</text>
     </g>
    </g>
    <g id="ytick_5">
     <g id="line2d_12">
      <g>
       <use xlink:href="#mbdd413d491" x="81.762344" y="150.110672" style="stroke: #000000; stroke-width: 0.75"/>
      </g>
     </g>
     <g id="text_13">
      <text style="font: 14.5px &quot;Suisse Int&apos;l Mono&quot;; text-anchor: end" x="71.762344" y="155.366922" transform="rotate(-0 71.762344 155.366922)">0.8</text>
     </g>
    </g>
    <g id="ytick_6">
     <g id="line2d_13">
      <g>
       <use xlink:href="#mbdd413d491" x="81.762344" y="92.17658" style="stroke: #000000; stroke-width: 0.75"/>
      </g>
     </g>
     <g id="text_14">
      <text style="font: 14.5px &quot;Suisse Int&apos;l Mono&quot;; text-anchor: end" x="71.762344" y="97.43283" transform="rotate(-0 71.762344 97.43283)">1.0</text>
     </g>
    </g>
    <g id="ytick_7">
     <g id="line2d_14">
      <g>
       <use xlink:href="#mbdd413d491" x="81.762344" y="34.242488" style="stroke: #000000; stroke-width: 0.75"/>
      </g>
     </g>
     <g id="text_15">
      <text style="font: 14.5px &quot;Suisse Int&apos;l Mono&quot;; text-anchor: end" x="71.762344" y="39.498738" transform="rotate(-0 71.762344 39.498738)">1.2</text>
     </g>
    </g>
    <g id="text_16">
     <text style="font: 500 15px &quot;Suisse Int&apos;l&quot;, sans-serif; text-anchor: middle" x="30.875" y="208.642449" transform="rotate(-90 30.875 208.642449)">Intensity (au)</text>
    </g>
   </g>
   <g id="line2d_15">
    <path d="M 95.158315 371.37723 
L 95.355597 370.909123 
L 95.552839 371.37723 
L 95.947203 371.409673 
L 96.34141 371.141728 
L 96.538453 371.141728 
L 96.735457 370.777323 
L 96.932422 370.777323 
L 97.129347 371.02557 
L 97.523077 371.02557 
L 97.719884 371.392003 
L 97.91665 371.392003 
L 98.113377 371.770892 
L 98.310065 371.48238 
L 98.703321 371.48238 
L 98.89989 371.918914 
L 99.09642 371.918914 
L 99.48936 371.797542 
L 99.685771 372.296065 
L 99.882143 372.296065 
L 100.274768 371.891974 
L 100.667236 371.776396 
L 101.059546 371.820716 
L 101.255642 371.045847 
L 101.451699 371.045847 
L 101.647716 371.900665 
L 102.431393 371.880388 
L 102.627214 371.168088 
L 103.018738 371.192131 
L 103.410105 372.454804 
L 103.60573 372.454804 
L 103.801316 371.918914 
L 103.996862 371.918914 
L 104.19237 371.794645 
L 104.387838 371.293226 
L 104.583267 371.293226 
L 105.169319 371.952516 
L 105.364591 371.952516 
L 105.559825 371.559143 
L 105.755019 371.989304 
L 105.950174 370.812083 
L 106.145291 372.166582 
L 107.120287 372.125449 
L 107.315169 372.615571 
L 107.510012 372.615571 
L 107.704816 372.3007 
L 108.094308 372.3007 
L 108.288995 371.673273 
L 108.483644 371.673273 
L 108.678253 372.190625 
L 108.872824 372.190625 
L 109.067356 372.321266 
L 109.261849 371.978876 
L 109.650718 372.4493 
L 110.039433 372.380359 
L 111.010539 371.898927 
L 111.39871 372.15963 
L 112.368461 372.319818 
L 112.75609 371.883284 
L 113.337245 372.602246 
L 113.724488 372.505786 
L 113.918052 372.421202 
L 114.111577 372.505786 
L 114.305063 372.421202 
L 114.498511 372.668291 
L 114.885292 372.623972 
L 115.078624 372.3708 
L 115.851569 372.442059 
L 116.237811 372.613833 
L 116.430874 373.202733 
L 116.623899 373.202733 
L 117.009833 372.978818 
L 117.202742 372.978818 
L 117.395613 373.159862 
L 118.359394 373.219534 
L 118.552035 372.59008 
L 118.744638 373.077885 
L 119.129728 373.077885 
L 119.322216 372.795167 
L 119.514666 372.795167 
L 119.707078 373.189988 
L 120.091786 373.189988 
L 121.052888 372.602536 
L 121.244994 373.128578 
L 121.629091 373.141903 
L 121.821083 373.423462 
L 122.013036 373.423462 
L 122.204952 372.878013 
L 122.588668 372.878013 
L 122.780469 372.597612 
L 123.163957 372.689437 
L 123.355644 372.841514 
L 123.547293 373.47792 
L 123.738904 373.144799 
L 124.122012 373.144799 
L 124.31351 372.303017 
L 124.69639 373.772515 
L 124.887773 373.772515 
L 125.270426 373.265012 
L 125.652927 373.399709 
L 125.84412 373.399709 
L 126.226394 373.188539 
L 126.990488 373.576119 
L 127.181417 373.915612 
L 127.563161 373.842905 
L 128.135494 373.421724 
L 129.088628 373.6888 
L 129.469618 374.457006 
L 129.660057 374.457006 
L 130.040821 373.002861 
L 130.231146 373.002861 
L 130.421434 373.309332 
L 130.611685 373.309332 
L 130.801897 372.622234 
L 130.992073 372.622234 
L 131.18221 372.861212 
L 131.37231 372.861212 
L 131.562373 372.720722 
L 131.942385 372.720722 
L 132.132335 372.540547 
L 132.322248 371.646334 
L 132.70196 371.674432 
L 132.89176 372.501731 
L 133.081523 371.674432 
L 133.271248 371.937742 
L 133.460935 371.937742 
L 133.840198 373.051236 
L 134.029774 372.8896 
L 134.219312 373.051236 
L 134.598276 373.01213 
L 134.787702 372.413381 
L 134.97709 372.413381 
L 135.166442 373.735148 
L 135.355756 373.735148 
L 135.545032 373.981657 
L 136.301766 373.024586 
L 136.490856 373.615514 
L 136.679909 373.141034 
L 136.868925 373.324974 
L 137.057904 373.324974 
L 137.435749 373.74152 
L 137.813446 373.74152 
L 138.002238 374.015259 
L 138.190994 374.015259 
L 138.757037 373.536434 
L 138.945644 373.738044 
L 139.134214 373.738044 
L 139.322747 373.333954 
L 139.511242 373.333954 
L 139.699701 373.661861 
L 140.076507 373.755425 
L 140.453165 373.62739 
L 140.641438 373.825235 
L 141.206036 373.720085 
L 141.394161 373.972677 
L 142.146294 373.941393 
L 142.522138 373.06543 
L 142.710005 373.604217 
L 142.897835 372.991564 
L 143.085628 373.799165 
L 143.273385 373.176084 
L 143.461104 373.841167 
L 143.836432 373.841167 
L 144.024041 374.043647 
L 144.211614 373.790764 
L 144.586647 373.790764 
L 144.774109 373.964856 
L 144.961534 373.964856 
L 145.148923 373.687642 
L 145.336274 373.687642 
L 145.523589 373.335402 
L 145.710867 374.096367 
L 145.898108 373.731961 
L 146.272481 373.65375 
L 146.459612 372.462625 
L 146.646707 372.462625 
L 147.020786 373.036752 
L 147.394719 373.036752 
L 147.768505 372.90669 
L 147.955343 372.90669 
L 148.142145 373.121336 
L 148.32891 372.840645 
L 148.515639 372.840645 
L 148.702331 372.164554 
L 148.888986 371.944984 
L 149.448733 369.387484 
L 149.635243 366.800726 
L 150.008152 354.536079 
L 150.380915 336.097685 
L 150.567243 321.649213 
L 150.753533 318.827822 
L 150.939787 318.969761 
L 151.126005 318.969761 
L 151.498332 326.759868 
L 151.68444 328.888657 
L 152.056548 347.33603 
L 152.428511 356.909639 
L 152.614438 356.971918 
L 152.986183 368.910396 
L 153.357783 371.951357 
L 153.543528 371.96613 
L 153.91491 372.46697 
L 154.100547 372.56401 
L 154.286147 372.961727 
L 154.471711 372.56401 
L 154.657239 373.702415 
L 154.842731 373.136109 
L 155.213606 374.132286 
L 155.39899 374.132286 
L 155.584337 372.133849 
L 155.769648 372.133849 
L 156.140161 374.189061 
L 156.510531 374.216001 
L 156.695661 373.810462 
L 156.880755 373.810462 
L 157.065814 374.032639 
L 157.250836 374.442233 
L 157.435822 374.032639 
L 157.620772 374.24323 
L 157.805686 374.000196 
L 158.360212 374.298267 
L 158.544982 374.648189 
L 158.914415 374.648189 
L 159.099077 374.36576 
L 159.468293 374.36576 
L 159.652848 373.82987 
L 159.837366 373.82987 
L 160.021849 373.694594 
L 160.206295 374.529134 
L 160.390706 373.717767 
L 160.575081 374.456137 
L 160.943723 374.439626 
L 161.127991 374.171391 
L 161.680578 374.078407 
L 161.864702 373.749921 
L 162.04879 373.749921 
L 162.232843 373.081941 
L 162.416859 373.65375 
L 162.968695 373.659254 
L 163.152569 373.296007 
L 163.336407 373.27573 
L 163.52021 373.050077 
L 163.887707 373.046891 
L 164.071403 372.898 
L 164.255062 373.556711 
L 164.438686 372.73057 
L 164.622275 373.116122 
L 164.805827 373.116122 
L 164.989345 373.298904 
L 165.356272 373.342065 
L 165.539682 372.622813 
L 165.723057 373.62739 
L 165.906396 373.62739 
L 166.272968 373.855651 
L 166.4562 374.491188 
L 166.639397 374.491188 
L 166.822559 374.307536 
L 167.005685 374.307536 
L 167.188775 374.583013 
L 167.55485 374.583013 
L 167.737834 374.351566 
L 167.920782 374.641816 
L 168.469415 374.809246 
L 168.834994 375.06068 
L 169.01773 375.06068 
L 169.20043 374.429198 
L 169.383096 374.429198 
L 169.565726 375.247807 
L 169.74832 375.251283 
L 169.93088 375.597729 
L 170.295892 375.597729 
L 170.478345 375.743433 
L 170.660763 375.743433 
L 170.843146 374.762319 
L 171.025493 374.762319 
L 171.207805 375.406257 
L 171.572324 375.407126 
L 171.75453 375.242593 
L 172.118837 375.600625 
L 172.483004 375.600625 
L 172.665034 375.759944 
L 172.847029 375.759944 
L 173.210914 375.241144 
L 173.392804 375.241144 
L 173.756477 375.884213 
L 174.120011 375.662036 
L 174.483404 375.662036 
L 174.665048 375.46448 
L 175.028231 375.46448 
L 175.391273 375.95692 
L 175.572742 375.95692 
L 175.754175 375.461294 
L 175.935574 375.391194 
L 176.116938 375.461294 
L 176.47956 375.904779 
L 176.660819 375.672174 
L 177.023231 374.263217 
L 177.204385 374.263217 
L 177.385504 375.347164 
L 177.566588 375.392352 
L 177.747637 376.400116 
L 177.928652 376.400116 
L 178.109631 375.822513 
L 178.290575 375.668408 
L 178.65236 375.856115 
L 178.8332 375.856115 
L 179.014005 376.372887 
L 179.375511 376.267157 
L 179.556211 376.267157 
L 179.736877 376.084375 
L 180.639685 376.065546 
L 180.820142 375.892613 
L 181.180952 375.803395 
L 181.361306 374.956978 
L 181.541624 374.956978 
L 181.721908 375.156271 
L 181.902157 375.882475 
L 182.442696 376.083506 
L 182.622807 376.083506 
L 182.982924 376.517143 
L 183.16293 376.517143 
L 183.342902 376.322194 
L 183.52284 375.628144 
L 183.702743 375.628144 
L 184.062445 376.286565 
L 184.422009 376.286565 
L 184.601739 375.424795 
L 184.781435 376.192422 
L 185.320315 376.265129 
L 185.499872 375.844528 
L 186.397144 375.594832 
L 186.576495 375.159168 
L 186.755812 375.159168 
L 187.114342 376.418944 
L 187.293556 376.022965 
L 187.472735 376.157951 
L 187.651879 376.022965 
L 187.83099 375.101813 
L 188.189108 375.201459 
L 188.547088 375.375262 
L 188.726027 375.847425 
L 189.083802 375.910862 
L 189.262638 374.944522 
L 189.620207 374.90194 
L 189.798941 375.855825 
L 189.97764 375.855825 
L 190.334935 375.671595 
L 190.513531 375.302265 
L 191.049116 375.331811 
L 191.406001 374.571426 
L 191.76275 374.571426 
L 191.941073 374.399362 
L 192.119362 374.476994 
L 192.297617 373.272834 
L 192.475838 373.833925 
L 192.654024 373.272834 
L 192.832177 373.833925 
L 193.010296 373.065719 
L 193.188381 373.669682 
L 193.366431 373.065719 
L 193.544448 373.200995 
L 193.72243 372.95072 
L 194.611833 373.014448 
L 194.967356 372.037389 
L 195.145067 372.037389 
L 195.322743 371.600856 
L 195.500386 370.595699 
L 195.677995 371.600856 
L 195.85557 370.769501 
L 196.033111 370.769501 
L 196.210619 370.643495 
L 196.388092 370.037794 
L 196.565531 369.861964 
L 196.742937 369.363441 
L 197.629458 364.28349 
L 197.983829 359.922212 
L 199.046134 340.720247 
L 199.223066 338.492391 
L 199.399965 338.357984 
L 199.57683 338.492391 
L 199.753662 339.192235 
L 201.167102 356.83809 
L 201.343631 357.181929 
L 201.696588 359.316221 
L 202.402098 359.349533 
L 202.578392 358.609715 
L 202.930879 358.504275 
L 203.107072 358.504275 
L 203.283232 357.43597 
L 203.459358 357.976206 
L 203.81151 357.976206 
L 203.987536 357.539962 
L 204.163528 357.539962 
L 204.339487 358.119303 
L 204.691305 358.119303 
L 204.867163 358.603342 
L 205.042988 358.603342 
L 205.21878 358.233143 
L 205.394539 356.678482 
L 205.921614 356.576518 
L 206.097239 356.336671 
L 206.27283 355.751247 
L 206.448389 355.751247 
L 206.623914 355.184651 
L 206.974864 355.132511 
L 207.150289 355.357295 
L 207.325681 356.246294 
L 207.501039 356.246294 
L 207.676364 354.936983 
L 207.851656 354.936983 
L 208.202141 358.690823 
L 208.727618 360.027652 
L 209.252797 363.012127 
L 209.60275 364.472066 
L 209.777677 364.778247 
L 210.127431 364.778247 
L 210.302258 366.083502 
L 210.477053 366.284244 
L 210.651814 366.284244 
L 211.001237 367.183961 
L 211.350528 368.009521 
L 211.525124 369.094627 
L 211.699687 369.297686 
L 211.874216 369.094627 
L 212.048713 368.360602 
L 212.223177 368.360602 
L 212.572005 369.635152 
L 212.74637 370.074003 
L 213.095001 370.15569 
L 213.269266 370.15569 
L 213.791866 370.680283 
L 214.140101 370.765156 
L 214.31417 370.860458 
L 214.488205 371.150418 
L 214.662208 370.860458 
L 214.836177 371.150418 
L 215.184018 371.961785 
L 215.357889 371.747429 
L 215.705532 371.852579 
L 216.226751 371.894292 
L 216.400425 371.593904 
L 216.574067 371.593904 
L 216.747675 371.859531 
L 217.094794 372.861791 
L 217.441782 372.751427 
L 217.615227 372.751427 
L 217.788639 372.927257 
L 217.962018 373.453588 
L 218.308679 373.453588 
L 218.655209 373.67171 
L 219.347876 373.769908 
L 219.520962 374.746387 
L 219.867035 374.845744 
L 220.040022 375.269822 
L 220.558789 375.283726 
L 220.731647 375.443045 
L 220.904471 375.283726 
L 221.077264 375.621771 
L 221.250023 375.621771 
L 221.42275 375.872626 
L 221.595445 375.872626 
L 221.768107 375.726922 
L 221.940736 375.726922 
L 222.113334 376.314084 
L 222.803397 376.239059 
L 222.975832 376.942089 
L 223.320604 377.022907 
L 223.492942 377.022907 
L 223.665247 375.975749 
L 224.00976 375.975749 
L 224.181967 377.211193 
L 224.354143 375.469405 
L 224.526286 377.536203 
L 224.870475 377.536203 
L 225.214535 377.103725 
L 225.386517 376.863299 
L 225.558466 376.863299 
L 225.730383 377.566908 
L 225.902268 377.566908 
L 226.07412 376.991913 
L 226.24594 376.991913 
L 226.417728 377.690598 
L 226.589483 377.690598 
L 226.761207 377.498257 
L 226.932898 377.498257 
L 227.104557 376.993651 
L 227.276183 378.151174 
L 227.447778 377.286218 
L 227.61934 378.401739 
L 227.79087 377.484352 
L 227.962368 378.386386 
L 228.133833 377.484352 
L 228.305267 378.247344 
L 228.476668 377.513319 
L 228.819375 377.513319 
L 229.161952 378.212005 
L 229.675578 378.188831 
L 229.846723 378.499937 
L 230.017835 378.499937 
L 230.188916 378.373061 
L 230.359964 377.429025 
L 230.53098 377.429025 
L 230.701964 378.103088 
L 231.385581 378.027774 
L 231.556405 378.538753 
L 231.897957 378.538753 
L 232.068686 377.915672 
L 232.410046 377.915672 
L 232.580679 378.698941 
L 233.092384 378.728197 
L 233.262889 378.261249 
L 233.433362 378.147987 
L 234.45553 378.851597 
L 234.62578 378.503992 
L 234.795998 379.496114 
L 234.966184 378.63811 
L 235.136338 378.857101 
L 235.476552 378.857101 
L 236.156598 378.4449 
L 236.32653 378.456776 
L 236.49643 378.636082 
L 236.666299 378.636082 
L 236.836136 378.196942 
L 237.005941 378.196942 
L 237.175714 378.784393 
L 237.515166 378.792215 
L 237.684845 379.15662 
L 238.024107 379.207602 
L 238.19369 378.30383 
L 238.363242 378.30383 
L 238.532762 379.152565 
L 239.210527 379.218899 
L 239.379889 378.646221 
L 239.718519 378.573803 
L 239.887787 378.573803 
L 240.057023 379.299427 
L 240.226227 379.299427 
L 240.3954 378.068618 
L 240.564542 378.068618 
L 240.733652 375.298499 
L 240.90273 378.908372 
L 241.071777 378.720956 
L 241.578729 379.25337 
L 241.74765 379.25337 
L 241.916539 378.930677 
L 242.085398 378.930677 
L 242.254224 379.05089 
L 242.591784 379.768114 
L 242.760516 379.768114 
L 242.929217 379.351278 
L 243.097887 376.843891 
L 243.266525 376.843891 
L 243.435132 379.245838 
L 243.603708 379.245838 
L 243.772252 379.003095 
L 244.109246 378.897365 
L 244.277697 379.316808 
L 244.614503 379.316808 
L 244.78286 379.555786 
L 244.951185 379.001357 
L 245.119478 379.472071 
L 245.287741 379.001357 
L 245.455972 379.075512 
L 245.624172 378.761509 
L 246.296659 378.811333 
L 246.464703 379.262639 
L 246.632716 378.776862 
L 246.800697 379.262639 
L 246.968647 378.039651 
L 247.136566 378.772807 
L 247.472311 378.772807 
L 247.640136 379.220058 
L 247.807931 379.125046 
L 247.975694 379.342009 
L 248.646436 378.553236 
L 249.149166 376.758438 
L 249.316681 376.758438 
L 249.484164 379.384011 
L 249.819038 379.384011 
L 249.986428 379.035538 
L 250.321116 379.035538 
L 250.488413 379.211657 
L 250.655679 379.211657 
L 250.822915 379.390094 
L 251.157292 379.390094 
L 251.825676 378.80496 
L 252.159683 378.814229 
L 252.326639 377.975633 
L 252.493565 377.975633 
L 252.66046 379.277413 
L 252.994158 379.285813 
L 253.16096 379.768983 
L 253.327732 379.768983 
L 253.494472 378.046603 
L 253.661182 378.046603 
L 253.994509 379.802295 
L 254.494269 379.706704 
L 254.660794 379.054946 
L 254.827288 379.054946 
L 254.993752 379.645294 
L 255.326586 379.645294 
L 255.492957 379.179794 
L 255.659298 379.532902 
L 255.825607 379.069429 
L 255.991886 379.532902 
L 256.490539 379.586781 
L 256.656695 379.988843 
L 256.988915 379.988843 
L 257.154979 379.579539 
L 257.652988 379.662385 
L 257.818929 379.662385 
L 258.150721 380.003906 
L 258.648178 379.93902 
L 258.813936 379.075223 
L 258.979664 378.864342 
L 259.14536 378.864342 
L 259.311027 379.546227 
L 259.973386 379.4909 
L 260.1389 379.788971 
L 260.304383 379.788971 
L 260.635258 380.392642 
L 260.966011 380.349473 
L 261.131342 379.717986 
L 261.461912 379.717973 
L 261.79236 379.967367 
L 261.957539 379.967361 
L 262.122687 379.564134 
L 262.452892 379.607862 
L 262.617949 379.979792 
L 263.112938 380.040315 
L 263.277874 379.482983 
L 263.607654 379.482971 
L 263.937313 379.945562 
L 264.102097 380.547202 
L 264.596267 379.000918 
L 264.760929 379.336639 
L 264.925562 380.326725 
L 265.419278 380.440244 
L 265.912722 379.82581 
L 266.077143 380.098954 
L 266.241533 379.685 
L 266.405894 379.684985 
L 266.570224 379.132858 
L 266.734524 379.132843 
L 266.898794 380.157103 
L 267.063034 380.157087 
L 267.227244 380.374031 
L 268.04784 380.464874 
L 268.211869 380.244408 
L 268.375868 379.376527 
L 268.703775 379.392691 
L 268.867684 380.442139 
L 269.031562 380.630974 
L 269.195411 380.630943 
L 269.359229 380.298659 
L 269.523018 378.928773 
L 269.686776 379.766466 
L 270.014203 379.766399 
L 270.177871 378.43446 
L 270.341509 378.434426 
L 270.505118 380.121143 
L 271.159252 380.148509 
L 271.486139 380.289202 
L 272.139554 379.306458 
L 272.302833 379.429812 
L 272.466083 380.241133 
L 273.444951 380.146972 
L 274.259854 379.866576 
L 274.422745 379.698221 
L 275.074012 380.384221 
L 275.399467 380.426102 
L 275.56215 379.608878 
L 275.724803 379.608815 
L 275.887426 379.862793 
L 276.375119 379.826106 
L 276.537623 380.258521 
L 276.862544 380.258391 
L 277.02496 380.517868 
L 277.349702 380.440386 
L 277.512029 379.616492 
L 277.998831 379.13832 
L 278.16104 380.128632 
L 278.485368 380.128483 
L 278.647487 379.841633 
L 278.809577 380.203354 
L 278.971638 379.782095 
L 279.133669 380.172202 
L 279.29567 379.957766 
L 279.457642 379.957686 
L 279.619584 379.604207 
L 280.105234 379.575 
L 280.267058 380.281136 
L 280.752354 379.977022 
L 280.91406 379.812983 
L 281.075737 379.489626 
L 281.237384 379.489541 
L 281.399003 379.284079 
L 281.560591 379.283994 
L 281.88368 380.464231 
L 282.04518 379.822525 
L 282.206651 379.833446 
L 282.368093 379.64797 
L 282.529505 379.833273 
L 282.690888 379.647797 
L 282.852241 379.880895 
L 283.336125 379.605449 
L 283.658568 379.605276 
L 283.980893 379.170598 
L 284.142012 379.305208 
L 284.786194 378.989411 
L 285.10811 379.012412 
L 285.75159 378.069478 
L 285.912387 377.81622 
L 286.073155 377.784559 
L 286.233893 376.670111 
L 286.394602 376.416273 
L 286.555283 376.380847 
L 287.037148 375.783577 
L 287.197712 375.025712 
L 287.679227 374.924358 
L 287.839674 374.447474 
L 288.000092 372.556419 
L 288.160481 372.556332 
L 288.481171 375.751224 
L 288.641473 374.511059 
L 288.961989 374.510886 
L 289.122203 373.755628 
L 289.282388 373.755542 
L 289.442544 373.329061 
L 289.602672 372.583942 
L 290.402872 363.805626 
L 290.562825 359.095208 
L 291.042511 327.979127 
L 291.362157 282.9155 
L 292.001101 184.409818 
L 292.320399 169.309124 
L 292.480005 169.309037 
L 292.799131 195.022911 
L 293.755814 316.25817 
L 294.074478 338.553643 
L 294.393026 354.273886 
L 294.870633 362.254627 
L 295.029778 362.447751 
L 295.188894 363.328262 
L 295.347981 363.328176 
L 295.82507 359.381157 
L 296.142986 355.432196 
L 296.301901 354.560201 
L 296.460787 352.882054 
L 296.619645 352.881967 
L 297.096045 355.530745 
L 297.730845 364.506128 
L 297.889473 365.856774 
L 298.206644 369.676486 
L 298.5237 373.104853 
L 298.840642 374.139672 
L 298.99907 375.068269 
L 299.15747 375.068183 
L 299.315841 375.707689 
L 299.632497 375.832654 
L 299.949039 375.72762 
L 300.265467 376.765336 
L 300.423639 376.76525 
L 300.739896 377.631481 
L 301.214068 377.587771 
L 301.372068 377.594058 
L 301.53004 378.238778 
L 301.845899 378.238605 
L 302.003786 377.581546 
L 302.477275 377.662973 
L 302.635049 378.489027 
L 303.423488 378.511769 
L 303.581091 378.082391 
L 303.738666 379.206225 
L 304.05373 379.141746 
L 304.211219 378.326527 
L 304.368681 378.32644 
L 304.526114 378.829222 
L 304.683518 378.837536 
L 304.840895 379.069765 
L 305.155562 379.069592 
L 305.470117 378.411288 
L 305.627352 378.663215 
L 305.941738 378.663042 
L 306.098888 378.05204 
L 306.25601 378.051954 
L 306.413104 378.176136 
L 306.57017 379.100388 
L 306.727207 379.100302 
L 306.884216 379.340931 
L 307.19815 378.675965 
L 308.452761 378.574178 
L 308.766132 378.359649 
L 308.922776 378.490204 
L 309.079391 378.798617 
L 309.392538 378.724288 
L 309.549069 378.507818 
L 309.705572 377.50692 
L 309.862047 377.506833 
L 310.018494 378.496261 
L 310.331305 378.744336 
L 310.644003 378.744163 
L 310.80031 378.60011 
L 310.956589 378.877528 
L 311.11284 378.599938 
L 311.269063 378.877355 
L 311.425258 378.632497 
L 311.581425 378.796944 
L 311.737564 378.796857 
L 311.893675 379.246629 
L 312.049759 379.246543 
L 312.361842 379.028538 
L 312.829756 378.756278 
L 313.29742 379.302916 
L 313.453252 379.322817 
L 313.609057 378.096555 
L 313.764833 379.087142 
L 313.920582 378.096383 
L 314.076303 378.533409 
L 314.231995 378.533322 
L 314.543298 379.150148 
L 315.010043 379.051111 
L 315.321067 378.43365 
L 315.63198 378.876963 
L 315.942783 378.87679 
L 316.098142 379.592189 
L 316.253474 379.592103 
L 316.408778 379.812745 
L 316.564054 378.929164 
L 316.874524 378.928991 
L 317.029717 379.107342 
L 317.34002 379.107169 
L 317.650213 379.266025 
L 317.805267 379.265938 
L 317.960294 378.961988 
L 318.115294 379.576003 
L 318.270266 379.292329 
L 318.42521 379.658675 
L 319.04471 379.832132 
L 319.199517 380.029601 
L 319.509046 380.029428 
L 319.663769 379.87263 
L 319.818465 379.333466 
L 319.973133 379.33338 
L 320.127774 379.683215 
L 320.282387 379.69124 
L 320.436973 380.160419 
L 320.746061 379.384509 
L 320.900565 379.384423 
L 321.209488 379.538644 
L 321.363909 379.321884 
L 321.518302 379.321798 
L 321.827005 379.818989 
L 322.135599 379.818816 
L 322.289855 380.432252 
L 322.444083 380.057041 
L 322.598284 380.056953 
L 322.752457 379.862786 
L 322.906603 379.862698 
L 323.060722 380.435578 
L 323.214813 380.435489 
L 323.368877 380.169481 
L 324.600401 380.147587 
L 324.754219 380.007289 
L 324.908009 378.862125 
L 325.061772 380.007095 
L 325.830176 380.220675 
L 325.983775 379.777958 
L 326.137347 379.777858 
L 326.290892 379.900578 
L 326.444409 380.226067 
L 326.597899 380.207426 
L 326.904797 380.473424 
L 327.058206 380.820054 
L 327.211587 380.819946 
L 327.364941 380.537409 
L 327.671567 380.537188 
L 327.978085 379.425787 
L 328.284493 380.400593 
L 328.437657 380.400479 
L 328.590794 380.22743 
L 328.743903 379.802077 
L 328.896985 380.227196 
L 329.05004 379.482914 
L 329.203068 380.294742 
L 329.356069 379.859537 
L 329.814909 379.819492 
L 330.120667 380.211176 
L 330.426316 380.315795 
L 330.5791 380.211969 
L 330.731858 379.945639 
L 331.037291 379.928012 
L 331.342616 380.382547 
L 332.105455 380.425062 
L 332.257942 380.156114 
L 332.715242 380.190764 
L 333.019973 380.773023 
L 333.172298 380.574173 
L 333.324597 380.574036 
L 333.476868 379.950237 
L 333.933521 379.906371 
L 334.389932 379.201187 
L 334.542015 380.538167 
L 334.8461 380.692281 
L 334.998103 380.62928 
L 335.302028 379.742602 
L 335.757713 379.693797 
L 335.909555 378.834781 
L 336.06137 380.504008 
L 336.364919 380.665064 
L 336.668361 379.737824 
L 336.820042 379.975207 
L 336.971696 379.979984 
L 337.274924 380.843776 
L 337.426498 380.843627 
L 337.578045 380.627962 
L 338.335381 380.546952 
L 338.789461 380.297358 
L 338.940768 379.790272 
L 339.092049 380.016921 
L 339.394529 380.016597 
L 339.696903 379.682571 
L 339.84805 379.886337 
L 340.452372 378.999296 
L 340.603386 380.668794 
L 340.754374 379.729518 
L 340.905335 379.841457 
L 341.207177 379.557832 
L 341.358058 376.914426 
L 341.508913 376.914262 
L 341.659741 377.709244 
L 341.810542 377.863185 
L 341.961317 377.708917 
L 342.413484 374.712944 
L 342.564153 374.625879 
L 342.714795 374.148049 
L 342.865411 372.204776 
L 343.016001 371.798494 
L 343.3171 371.798167 
L 343.467611 371.160439 
L 343.768552 371.05612 
L 344.069387 372.07833 
L 344.219765 371.619038 
L 344.370116 372.32625 
L 344.67074 374.990891 
L 344.821013 375.165688 
L 345.121478 376.639494 
L 345.271671 376.702768 
L 345.421838 377.133924 
L 345.571979 377.133761 
L 346.172277 378.552491 
L 346.322286 378.351586 
L 346.472269 378.351423 
L 346.622225 378.919303 
L 346.772155 379.004302 
L 346.922058 378.918976 
L 347.371611 380.107582 
L 347.52141 379.60542 
L 348.120341 379.509753 
L 348.419649 379.397324 
L 348.718852 379.326317 
L 348.868415 379.518494 
L 349.017951 379.518331 
L 349.316945 378.976899 
L 349.466402 378.976736 
L 349.765239 379.865697 
L 350.063971 379.517475 
L 350.213298 379.078751 
L 350.362598 379.078587 
L 350.511873 379.413572 
L 350.810343 379.376746 
L 350.95954 378.571299 
L 351.10871 378.993185 
L 351.854169 378.888086 
L 352.003182 378.5296 
L 352.15217 378.529436 
L 352.301131 379.399443 
L 352.450067 379.399279 
L 352.598976 378.352247 
L 352.747859 378.260258 
L 353.045548 377.810941 
L 353.343133 376.404843 
L 353.491886 376.40468 
L 353.640613 375.808664 
L 353.93799 375.617733 
L 354.235263 374.074911 
L 354.38386 373.784498 
L 354.532432 372.330478 
L 354.680977 372.330314 
L 354.829497 372.694556 
L 354.977991 372.694393 
L 355.126458 372.034939 
L 355.2749 371.959461 
L 355.571706 371.351405 
L 355.868409 371.247666 
L 356.165008 371.218951 
L 356.609712 370.564095 
L 356.757896 370.70558 
L 357.054184 369.853622 
L 357.20229 369.853458 
L 357.942431 367.76093 
L 358.238307 366.232301 
L 358.386206 365.921321 
L 358.53408 365.921157 
L 358.681927 364.31593 
L 358.977546 364.070252 
L 359.273061 364.069925 
L 359.568473 364.274974 
L 359.863783 364.224244 
L 360.011399 363.926299 
L 360.15899 364.167141 
L 360.306555 363.712485 
L 360.454094 364.166814 
L 360.601607 363.781968 
L 360.749095 363.781805 
L 360.896557 363.585244 
L 361.191405 363.584917 
L 361.33879 363.225273 
L 361.633484 363.224945 
L 362.075332 362.126024 
L 362.222563 360.955302 
L 362.369769 360.855492 
L 362.51695 360.373027 
L 362.958338 355.625707 
L 363.105416 351.181419 
L 363.252468 350.667959 
L 363.546497 344.688834 
L 363.840423 334.379135 
L 364.134248 313.296012 
L 364.42797 271.206567 
L 365.60184 35.436678 
L 365.748459 33.973678 
L 365.895053 33.973515 
L 366.188164 73.382854 
L 367.359594 281.112922 
L 367.798461 319.661776 
L 368.237101 339.444039 
L 368.675512 347.23047 
L 368.821599 348.102794 
L 368.96766 348.143763 
L 369.113696 348.329858 
L 369.259707 348.329694 
L 369.697587 346.805537 
L 369.843497 344.555503 
L 369.989381 344.303036 
L 371.155548 328.627949 
L 371.883584 320.83036 
L 372.029116 320.647704 
L 372.174622 320.647541 
L 372.320103 320.960221 
L 372.46556 320.960058 
L 372.610991 322.005605 
L 372.901778 325.315052 
L 373.192464 327.928132 
L 373.628305 335.78669 
L 375.369415 354.996541 
L 375.514345 355.061843 
L 375.65925 357.131375 
L 375.80413 357.131211 
L 376.093815 358.785482 
L 376.23862 359.598713 
L 376.3834 361.172039 
L 376.528155 361.293827 
L 376.81759 362.179312 
L 377.251556 363.634125 
L 377.540742 364.285267 
L 377.685298 364.00644 
L 377.829828 364.498717 
L 377.974334 365.585976 
L 378.118815 365.670975 
L 378.407703 366.936798 
L 378.552109 366.663765 
L 379.562258 368.493626 
L 379.706466 368.493463 
L 379.850649 368.836848 
L 380.283048 368.878939 
L 380.427132 369.192489 
L 380.571191 370.076689 
L 380.715225 370.076525 
L 381.291114 369.532739 
L 381.435025 369.66061 
L 381.57891 370.223276 
L 381.722771 369.759929 
L 381.866608 371.17973 
L 382.010419 371.192602 
L 382.297968 371.388961 
L 382.729107 371.376014 
L 382.87277 372.315542 
L 383.016409 372.315378 
L 383.303612 372.626736 
L 383.447177 373.140738 
L 383.734233 373.14041 
L 384.02119 373.700885 
L 384.308049 373.81295 
L 384.594809 373.874902 
L 385.024765 374.698814 
L 385.168034 374.69865 
L 385.311279 375.438594 
L 385.740867 375.385384 
L 386.027136 375.692976 
L 386.313307 375.692649 
L 386.59938 376.762654 
L 386.885355 375.851603 
L 387.028305 375.851439 
L 387.599863 377.625306 
L 387.742692 377.723051 
L 387.885495 377.624979 
L 388.028275 377.702157 
L 388.17103 377.511391 
L 388.31376 377.511227 
L 388.599148 377.240927 
L 388.741806 377.240763 
L 389.312191 378.098403 
L 389.739724 378.14339 
L 389.882186 378.524723 
L 390.167037 378.524395 
L 390.451791 379.37512 
L 390.736448 379.446631 
L 390.87874 379.001534 
L 391.021007 379.00137 
L 391.16325 379.364164 
L 391.447664 379.363836 
L 391.589834 379.532261 
L 391.73198 380.207609 
L 391.874102 379.531934 
L 392.0162 380.247836 
L 392.300322 380.186388 
L 392.442347 380.186224 
L 392.584347 379.929123 
L 392.726323 380.458477 
L 392.868275 380.102017 
L 393.010203 380.363425 
L 393.435841 379.800385 
L 393.577672 379.820785 
L 393.861261 380.290877 
L 394.144754 380.290544 
L 394.286464 380.799619 
L 394.42815 380.865786 
L 394.711449 381.306906 
L 394.853063 381.306736 
L 394.994652 381.115673 
L 395.136217 381.115502 
L 395.702236 381.461837 
L 395.985101 381.461489 
L 396.126498 381.27216 
L 396.26787 381.271985 
L 396.409218 381.569301 
L 396.550542 381.569125 
L 396.691843 381.297528 
L 396.97437 381.297174 
L 397.115598 381.827962 
L 397.256802 381.80548 
L 397.397982 382.115829 
L 397.539138 381.805125 
L 397.68027 382.115474 
L 397.821377 381.87487 
L 397.962461 381.874693 
L 398.103521 380.973351 
L 398.244557 380.973173 
L 398.385568 381.915871 
L 398.80846 381.837124 
L 398.949376 382.282748 
L 399.5128 381.933273 
L 399.653596 382.233774 
L 399.794368 382.233596 
L 399.935116 381.416839 
L 400.07584 381.416662 
L 400.216541 382.622092 
L 400.357217 382.621916 
L 400.638499 382.497875 
L 400.779103 382.756376 
L 401.060241 382.66739 
L 401.200775 382.43722 
L 401.481769 382.526965 
L 401.903083 382.493723 
L 402.183839 382.493387 
L 402.4645 381.571322 
L 402.885313 382.666065 
L 403.446064 382.663669 
L 403.726297 383.011819 
L 404.006435 382.80091 
L 404.146468 382.440401 
L 404.426464 382.440087 
L 404.706364 382.55825 
L 404.846279 382.324621 
L 404.98617 382.324466 
L 405.126037 382.987947 
L 405.265881 382.987794 
L 405.405701 383.163472 
L 405.685269 382.516338 
L 405.964744 382.506771 
L 406.104445 383.216606 
L 406.383777 383.248758 
L 406.523408 382.182048 
L 406.802598 382.181761 
L 406.942158 382.897394 
L 407.221206 382.884946 
L 407.360695 382.277657 
L 407.500161 382.277518 
L 407.639602 383.04211 
L 407.77902 383.041972 
L 408.197133 382.437893 
L 408.475757 382.571453 
L 408.615034 382.537139 
L 408.754287 382.934435 
L 408.893517 382.686636 
L 409.032723 382.891882 
L 409.171906 382.686376 
L 409.311065 382.76388 
L 409.4502 381.89561 
L 409.589312 382.763625 
L 409.867466 382.890249 
L 410.145525 382.795858 
L 410.28452 383.305556 
L 410.562439 382.693531 
L 410.701363 382.693411 
L 410.840263 382.544982 
L 410.979141 382.760958 
L 411.256825 382.678169 
L 412.227982 382.727784 
L 412.505244 382.542177 
L 412.782414 382.616407 
L 412.920963 383.25039 
L 413.05949 383.250285 
L 413.197992 382.705311 
L 413.336472 382.705208 
L 413.474928 383.271122 
L 413.613361 383.271022 
L 413.890157 382.233804 
L 414.02852 382.233706 
L 414.166859 381.119826 
L 414.305175 382.899173 
L 414.443468 382.568272 
L 414.719984 382.636442 
L 414.858207 382.928335 
L 414.996407 382.928242 
L 415.134584 383.311383 
L 415.548974 383.163091 
L 415.687057 382.795123 
L 416.101168 382.79168 
L 416.239159 383.136015 
L 416.51507 382.625452 
L 416.652991 382.625372 
L 416.790889 382.929736 
L 416.928763 382.929657 
L 417.204443 382.295993 
L 417.342248 382.53055 
L 417.480029 382.530474 
L 417.755523 382.658939 
L 417.893236 382.658865 
L 418.030925 383.068387 
L 418.306234 383.068245 
L 418.58145 383.221923 
L 418.719024 383.170296 
L 418.856574 382.979917 
L 419.131605 382.97979 
L 419.269087 382.649215 
L 419.406544 381.937144 
L 419.543979 382.649093 
L 419.81878 382.842764 
L 420.093488 382.714904 
L 420.230808 382.714847 
L 420.505378 382.885643 
L 420.642628 382.826786 
L 420.779856 382.244206 
L 420.91706 382.244154 
L 421.054241 382.945395 
L 421.1914 382.945344 
L 421.465647 383.13527 
L 421.602736 383.135223 
L 421.739803 382.550043 
L 422.150864 382.650715 
L 422.287838 382.418936 
L 422.42479 382.418894 
L 422.561718 381.932785 
L 422.835506 381.932702 
L 422.972366 381.765521 
L 423.246016 382.543782 
L 423.382807 382.543742 
L 423.519575 382.660439 
L 423.65632 382.419684 
L 423.793042 383.033168 
L 423.929742 382.801105 
L 424.066418 382.801068 
L 424.203071 382.231831 
L 424.47631 382.331698 
L 424.749456 382.400571 
L 425.022512 382.429183 
L 425.159005 382.529667 
L 425.295476 382.42912 
L 425.431923 382.529605 
L 425.568348 382.406465 
L 425.70475 382.916256 
L 425.977486 382.9078 
L 426.113819 382.460812 
L 426.25013 382.460787 
L 426.386418 382.992886 
L 426.795145 383.022075 
L 427.067516 382.341019 
L 427.475902 383.066589 
L 427.611985 383.066573 
L 427.884083 382.848422 
L 428.020098 382.916481 
L 428.15609 382.602467 
L 428.428006 382.602445 
L 428.699832 383.186692 
L 428.971566 383.224626 
L 429.1074 382.304918 
L 429.378998 382.203815 
L 429.514763 382.45988 
L 429.650506 382.367762 
L 429.786226 382.68466 
L 429.921923 382.367759 
L 430.057598 382.684657 
L 430.057598 382.684657 
" clip-path="url(#p78c25cdefb)" style="fill: none; stroke: #5088c5; stroke-linecap: round"/>
   </g>
   <g id="line2d_16">
    <defs>
     <path id="ma98c66e0c4" d="M 0 2 
C 0.530406 2 1.03916 1.789267 1.414214 1.414214 
C 1.789267 1.03916 2 0.530406 2 0 
C 2 -0.530406 1.789267 -1.03916 1.414214 -1.414214 
C 1.03916 -1.789267 0.530406 -2 0 -2 
C -0.530406 -2 -1.03916 -1.789267 -1.414214 -1.414214 
C -1.789267 -1.03916 -2 -0.530406 -2 0 
C -2 0.530406 -1.789267 1.03916 -1.414214 1.414214 
C -1.03916 1.789267 -0.530406 2 0 2 
z
"/>
    </defs>
    <g clip-path="url(#p78c25cdefb)">
     <use xlink:href="#ma98c66e0c4" x="151.100595" y="318.969761" style="fill: #f28360"/>
     <use xlink:href="#ma98c66e0c4" x="199.526876" y="338.492391" style="fill: #f28360"/>
     <use xlink:href="#ma98c66e0c4" x="292.393916" y="169.309124" style="fill: #f28360"/>
     <use xlink:href="#ma98c66e0c4" x="365.782843" y="33.973678" style="fill: #f28360"/>
     <use xlink:href="#ma98c66e0c4" x="372.153878" y="320.647541" style="fill: #f28360"/>
    </g>
   </g>
   <g id="patch_3">
    <path d="M 81.762344 397.284898 
L 81.762344 20 
" style="fill: none; stroke: #000000; stroke-width: 0.75; stroke-linejoin: miter; stroke-linecap: square"/>
   </g>
   <g id="patch_4">
    <path d="M 81.762344 397.284897 
L 443.453569 397.284897 
" style="fill: none; stroke: #000000; stroke-width: 0.75; stroke-linejoin: miter; stroke-linecap: square"/>
   </g>
  </g>
 </g>
 <defs>
  <clipPath id="p78c25cdefb">
   <rect x="81.762344" y="20" width="361.691225" height="377.284898"/>
  </clipPath>
 </defs>
</svg>
