<?xml version="1.0" encoding="utf-8" standalone="no"?>
<!DOCTYPE svg PUBLIC "-//W3C//DTD SVG 1.1//EN"
  "http://www.w3.org/Graphics/SVG/1.1/DTD/svg11.dtd">
<svg xmlns:xlink="http://www.w3.org/1999/xlink" width="463.929752pt" height="463.99896pt" viewBox="0 0 463.929752 463.99896" xmlns="http://www.w3.org/2000/svg" version="1.1">
 <metadata>
  <rdf:RDF xmlns:dc="http://purl.org/dc/elements/1.1/" xmlns:cc="http://creativecommons.org/ns#" xmlns:rdf="http://www.w3.org/1999/02/22-rdf-syntax-ns#">
   <cc:Work>
    <dc:type rdf:resource="http://purl.org/dc/dcmitype/StillImage"/>
    <dc:date>2025-02-07T21:28:50.485606</dc:date>
    <dc:format>image/svg+xml</dc:format>
    <dc:creator>
     <cc:Agent>
      <dc:title>Matplotlib v3.8.4, https://matplotlib.org/</dc:title>
     </cc:Agent>
    </dc:creator>
   </cc:Work>
  </rdf:RDF>
 </metadata>
 <defs>
  <style type="text/css">*{stroke-linejoin: round; stroke-linecap: butt}</style>
 </defs>
 <g id="figure_1">
  <g id="patch_1">
   <path d="M 0 463.99896 
L 463.929752 463.99896 
L 463.929752 0 
L 0 0 
L 0 463.99896 
z
" style="fill: none"/>
  </g>
  <g id="axes_1">
   <g id="patch_2">
    <path d="M 81.762344 397.284897 
L 443.477981 397.284897 
L 443.477981 20 
L 81.762344 20 
L 81.762344 397.284897 
z
" style="fill: none"/>
   </g>
   <g id="matplotlib.axis_1">
    <g id="xtick_1">
     <g id="line2d_1">
      <defs>
       <path id="m39c263d40f" d="M 0 0 
L 0 5 
" style="stroke: #000000; stroke-width: 0.75"/>
      </defs>
      <g>
       <use xlink:href="#m39c263d40f" x="106.640576" y="397.284897" style="stroke: #000000; stroke-width: 0.75"/>
      </g>
     </g>
     <g id="text_1">
      <text style="font: 14.5px &quot;Suisse Int&apos;l Mono&quot;; text-anchor: middle" x="106.640576" y="417.797397" transform="rotate(-0 106.640576 417.797397)">500</text>
     </g>
    </g>
    <g id="xtick_2">
     <g id="line2d_2">
      <g>
       <use xlink:href="#m39c263d40f" x="159.733408" y="397.284897" style="stroke: #000000; stroke-width: 0.75"/>
      </g>
     </g>
     <g id="text_2">
      <text style="font: 14.5px &quot;Suisse Int&apos;l Mono&quot;; text-anchor: middle" x="159.733408" y="417.797397" transform="rotate(-0 159.733408 417.797397)">1000</text>
     </g>
    </g>
    <g id="xtick_3">
     <g id="line2d_3">
      <g>
       <use xlink:href="#m39c263d40f" x="212.826239" y="397.284897" style="stroke: #000000; stroke-width: 0.75"/>
      </g>
     </g>
     <g id="text_3">
      <text style="font: 14.5px &quot;Suisse Int&apos;l Mono&quot;; text-anchor: middle" x="212.826239" y="417.797397" transform="rotate(-0 212.826239 417.797397)">1500</text>
     </g>
    </g>
    <g id="xtick_4">
     <g id="line2d_4">
      <g>
       <use xlink:href="#m39c263d40f" x="265.919071" y="397.284897" style="stroke: #000000; stroke-width: 0.75"/>
      </g>
     </g>
     <g id="text_4">
      <text style="font: 14.5px &quot;Suisse Int&apos;l Mono&quot;; text-anchor: middle" x="265.919071" y="417.797397" transform="rotate(-0 265.919071 417.797397)">2000</text>
     </g>
    </g>
    <g id="xtick_5">
     <g id="line2d_5">
      <g>
       <use xlink:href="#m39c263d40f" x="319.011902" y="397.284897" style="stroke: #000000; stroke-width: 0.75"/>
      </g>
     </g>
     <g id="text_5">
      <text style="font: 14.5px &quot;Suisse Int&apos;l Mono&quot;; text-anchor: middle" x="319.011902" y="417.797397" transform="rotate(-0 319.011902 417.797397)">2500</text>
     </g>
    </g>
    <g id="xtick_6">
     <g id="line2d_6">
      <g>
       <use xlink:href="#m39c263d40f" x="372.104734" y="397.284897" style="stroke: #000000; stroke-width: 0.75"/>
      </g>
     </g>
     <g id="text_6">
      <text style="font: 14.5px &quot;Suisse Int&apos;l Mono&quot;; text-anchor: middle" x="372.104734" y="417.797397" transform="rotate(-0 372.104734 417.797397)">3000</text>
     </g>
    </g>
    <g id="xtick_7">
     <g id="line2d_7">
      <g>
       <use xlink:href="#m39c263d40f" x="425.197565" y="397.284897" style="stroke: #000000; stroke-width: 0.75"/>
      </g>
     </g>
     <g id="text_7">
      <text style="font: 14.5px &quot;Suisse Int&apos;l Mono&quot;; text-anchor: middle" x="425.197565" y="417.797397" transform="rotate(-0 425.197565 417.797397)">3500</text>
     </g>
    </g>
    <g id="text_8">
     <text style="font: 500 15px &quot;Suisse Int&apos;l&quot;, sans-serif; text-anchor: middle" x="262.620162" y="441.209898" transform="rotate(-0 262.620162 441.209898)">Raman shift (cm-1)</text>
    </g>
   </g>
   <g id="matplotlib.axis_2">
    <g id="ytick_1">
     <g id="line2d_8">
      <defs>
       <path id="m41eb99c5a9" d="M 0 0 
L -5 0 
" style="stroke: #000000; stroke-width: 0.75"/>
      </defs>
      <g>
       <use xlink:href="#m41eb99c5a9" x="81.762344" y="377.721249" style="stroke: #000000; stroke-width: 0.75"/>
      </g>
     </g>
     <g id="text_9">
      <text style="font: 14.5px &quot;Suisse Int&apos;l Mono&quot;; text-anchor: end" x="71.762344" y="382.977499" transform="rotate(-0 71.762344 382.977499)">0.0</text>
     </g>
    </g>
    <g id="ytick_2">
     <g id="line2d_9">
      <g>
       <use xlink:href="#m41eb99c5a9" x="81.762344" y="321.019491" style="stroke: #000000; stroke-width: 0.75"/>
      </g>
     </g>
     <g id="text_10">
      <text style="font: 14.5px &quot;Suisse Int&apos;l Mono&quot;; text-anchor: end" x="71.762344" y="326.275741" transform="rotate(-0 71.762344 326.275741)">0.2</text>
     </g>
    </g>
    <g id="ytick_3">
     <g id="line2d_10">
      <g>
       <use xlink:href="#m41eb99c5a9" x="81.762344" y="264.317733" style="stroke: #000000; stroke-width: 0.75"/>
      </g>
     </g>
     <g id="text_11">
      <text style="font: 14.5px &quot;Suisse Int&apos;l Mono&quot;; text-anchor: end" x="71.762344" y="269.573983" transform="rotate(-0 71.762344 269.573983)">0.4</text>
     </g>
    </g>
    <g id="ytick_4">
     <g id="line2d_11">
      <g>
       <use xlink:href="#m41eb99c5a9" x="81.762344" y="207.615976" style="stroke: #000000; stroke-width: 0.75"/>
      </g>
     </g>
     <g id="text_12">
      <text style="font: 14.5px &quot;Suisse Int&apos;l Mono&quot;; text-anchor: end" x="71.762344" y="212.872226" transform="rotate(-0 71.762344 212.872226)">0.6</text>
     </g>
    </g>
    <g id="ytick_5">
     <g id="line2d_12">
      <g>
       <use xlink:href="#m41eb99c5a9" x="81.762344" y="150.914218" style="stroke: #000000; stroke-width: 0.75"/>
      </g>
     </g>
     <g id="text_13">
      <text style="font: 14.5px &quot;Suisse Int&apos;l Mono&quot;; text-anchor: end" x="71.762344" y="156.170468" transform="rotate(-0 71.762344 156.170468)">0.8</text>
     </g>
    </g>
    <g id="ytick_6">
     <g id="line2d_13">
      <g>
       <use xlink:href="#m41eb99c5a9" x="81.762344" y="94.212461" style="stroke: #000000; stroke-width: 0.75"/>
      </g>
     </g>
     <g id="text_14">
      <text style="font: 14.5px &quot;Suisse Int&apos;l Mono&quot;; text-anchor: end" x="71.762344" y="99.468711" transform="rotate(-0 71.762344 99.468711)">1.0</text>
     </g>
    </g>
    <g id="ytick_7">
     <g id="line2d_14">
      <g>
       <use xlink:href="#m41eb99c5a9" x="81.762344" y="37.510703" style="stroke: #000000; stroke-width: 0.75"/>
      </g>
     </g>
     <g id="text_15">
      <text style="font: 14.5px &quot;Suisse Int&apos;l Mono&quot;; text-anchor: end" x="71.762344" y="42.766953" transform="rotate(-0 71.762344 42.766953)">1.2</text>
     </g>
    </g>
    <g id="text_16">
     <text style="font: 500 15px &quot;Suisse Int&apos;l&quot;, sans-serif; text-anchor: middle" x="30.875" y="208.642449" transform="rotate(-90 30.875 208.642449)">Intensity (au)</text>
    </g>
   </g>
   <g id="line2d_15">
    <path d="M 95.159219 372.701346 
L 95.356513 372.159839 
L 95.553767 372.159834 
L 95.750982 372.281737 
L 95.948157 372.684315 
L 96.145292 372.281722 
L 96.342388 372.684295 
L 96.73646 372.05204 
L 96.933437 372.052025 
L 97.130374 372.321343 
L 97.524129 372.321313 
L 97.720948 372.806098 
L 97.917726 372.806078 
L 98.114466 373.0442 
L 98.311166 372.51968 
L 98.901028 372.508219 
L 99.294072 373.256577 
L 99.686958 373.384032 
L 99.883342 373.383964 
L 100.275992 372.527617 
L 100.472258 372.215674 
L 100.668484 372.527451 
L 100.864671 372.467827 
L 101.060819 372.839135 
L 101.452996 372.081981 
L 102.236879 372.178003 
L 102.824379 372.20324 
L 103.020134 371.962165 
L 103.215849 373.35977 
L 103.607162 373.359571 
L 103.80276 373.095802 
L 104.193839 373.095576 
L 104.389319 372.522769 
L 104.58476 372.522644 
L 104.975525 372.8796 
L 105.366134 372.879315 
L 105.561379 372.680709 
L 105.756586 372.86767 
L 105.951754 372.606682 
L 106.732033 372.915018 
L 107.121939 372.903304 
L 107.316833 373.149762 
L 107.706505 373.14936 
L 107.901283 373.449672 
L 108.096021 373.44946 
L 108.290721 372.933257 
L 108.485382 372.933036 
L 108.680004 373.131267 
L 109.263636 373.144737 
L 109.458102 373.564086 
L 109.65253 373.144244 
L 109.846918 373.722349 
L 110.041268 373.240127 
L 110.235579 373.239866 
L 110.624085 372.825406 
L 111.012436 372.714282 
L 111.206553 373.533337 
L 111.400631 373.30624 
L 111.594671 373.305946 
L 111.982634 372.185484 
L 112.370443 372.184877 
L 112.564289 373.361135 
L 112.758097 372.119059 
L 112.951866 373.04299 
L 113.145596 373.042677 
L 113.339288 373.518655 
L 113.532941 373.518333 
L 113.726555 373.243004 
L 113.920131 373.242674 
L 114.113669 373.985132 
L 114.307167 373.984794 
L 114.500628 373.839862 
L 114.887432 373.839167 
L 115.467351 372.567973 
L 115.853771 372.567232 
L 116.046923 373.859654 
L 116.240037 373.873447 
L 116.433112 374.3125 
L 116.626149 374.425514 
L 117.012107 374.180908 
L 117.205029 373.905504 
L 117.397912 374.146084 
L 117.590757 373.904694 
L 118.169062 374.5215 
L 118.361753 374.52108 
L 118.554407 373.199505 
L 118.747022 373.828466 
L 118.939598 373.589886 
L 119.517099 373.574389 
L 119.709522 373.959512 
L 119.901908 373.959059 
L 120.094255 373.527669 
L 120.286564 373.527209 
L 120.478834 373.702519 
L 120.671067 374.269068 
L 121.055418 374.287965 
L 121.247536 374.936721 
L 121.439616 374.267159 
L 121.823661 374.266184 
L 122.015627 373.324443 
L 122.207554 374.24535 
L 122.591295 374.113932 
L 122.783108 373.32527 
L 123.16662 373.250529 
L 123.35832 373.235833 
L 123.741604 373.787621 
L 124.124736 373.78655 
L 124.316245 372.68883 
L 124.69915 374.609923 
L 125.081902 374.608814 
L 125.273222 375.370893 
L 125.464504 375.370331 
L 125.655747 374.967185 
L 125.846953 374.86172 
L 126.038121 373.384069 
L 126.229251 373.383495 
L 126.420343 373.80818 
L 126.802414 373.807012 
L 127.184334 374.792439 
L 127.75693 374.742444 
L 127.94772 374.347762 
L 128.710502 374.41335 
L 129.472681 374.359811 
L 129.663131 374.900678 
L 129.853544 374.900039 
L 130.043919 374.723623 
L 130.234257 373.968846 
L 130.614819 373.967547 
L 130.805044 373.456576 
L 130.995232 373.455917 
L 131.185381 374.127169 
L 131.375493 374.126502 
L 131.755605 373.680047 
L 132.135566 372.893366 
L 132.325491 371.466629 
L 132.515378 371.465942 
L 132.89504 374.637024 
L 133.084814 372.750995 
L 133.274551 373.257775 
L 133.653913 373.25636 
L 133.843538 373.652558 
L 134.033126 373.473229 
L 134.222676 373.651117 
L 134.601664 373.403007 
L 134.791102 372.679325 
L 134.980503 372.678584 
L 135.169866 374.384562 
L 135.359192 374.820417 
L 135.737732 374.869943 
L 136.305262 374.232602 
L 136.68343 374.307611 
L 136.872457 374.116886 
L 137.061448 373.747547 
L 137.250401 373.746765 
L 137.439318 374.746766 
L 137.628197 374.947268 
L 138.005843 374.577121 
L 138.19461 374.576324 
L 138.383341 374.192786 
L 138.76069 374.145813 
L 138.949309 373.872833 
L 139.137891 374.422025 
L 139.326435 374.421206 
L 139.514943 374.862658 
L 139.703414 374.861834 
L 139.891847 374.413062 
L 140.456925 374.101535 
L 141.02167 374.215238 
L 141.397982 374.596268 
L 141.774146 374.594548 
L 141.962173 374.846006 
L 142.150162 374.845138 
L 142.526031 374.06658 
L 142.71391 374.261324 
L 142.901752 373.313523 
L 143.089557 374.259557 
L 143.277325 373.464844 
L 143.465057 374.626337 
L 144.590672 374.527355 
L 144.778146 375.144489 
L 144.965583 375.143571 
L 145.152983 374.975381 
L 145.527673 374.973532 
L 145.902217 374.838423 
L 146.276613 374.964131 
L 146.463757 373.316005 
L 146.650863 373.315061 
L 147.024966 374.398999 
L 147.585846 374.214676 
L 147.959583 374.212741 
L 148.146397 374.396049 
L 148.519915 374.394093 
L 148.706618 373.888464 
L 149.079917 371.709138 
L 149.266511 370.633647 
L 149.453069 370.422859 
L 149.826075 364.373632 
L 150.757952 327.512529 
L 151.130448 327.510545 
L 151.316642 328.779672 
L 151.688919 333.994249 
L 152.061051 350.189122 
L 152.247063 355.98305 
L 152.433038 358.216107 
L 152.618977 358.215115 
L 152.990745 369.332345 
L 153.362369 372.772158 
L 153.548126 372.771161 
L 153.733847 372.469639 
L 153.919532 372.468632 
L 154.105181 373.899339 
L 154.290793 374.354772 
L 154.476369 374.353752 
L 154.661909 374.792167 
L 154.847413 373.30839 
L 155.03288 375.238055 
L 155.218312 374.652994 
L 155.403707 374.651958 
L 155.589066 373.658638 
L 155.774389 373.657595 
L 155.959676 375.473839 
L 156.144926 375.47279 
L 156.330141 375.052145 
L 156.515319 375.051091 
L 156.700461 374.879928 
L 156.885568 375.088665 
L 157.070638 374.906157 
L 157.625632 374.877437 
L 157.810558 375.843128 
L 157.995448 374.676831 
L 158.180302 375.282462 
L 158.36512 375.28138 
L 158.549902 375.742416 
L 158.734648 375.854734 
L 158.919358 375.740243 
L 159.104032 375.466985 
L 159.473272 375.4648 
L 159.657838 375.265248 
L 159.842369 375.264149 
L 160.026863 374.766908 
L 160.211322 375.398028 
L 160.395744 374.764697 
L 160.580131 375.47803 
L 160.764482 375.69522 
L 160.948797 375.694107 
L 161.31732 375.070989 
L 161.501527 375.259819 
L 161.869835 375.277416 
L 162.053935 374.462618 
L 162.238 374.461486 
L 162.789978 375.076123 
L 162.9739 374.442756 
L 163.157785 374.44161 
L 163.341635 373.984011 
L 163.525449 374.005539 
L 163.709228 373.913659 
L 163.892971 374.003221 
L 164.076678 374.390464 
L 164.260349 374.389296 
L 164.443985 374.166988 
L 164.627585 374.165814 
L 164.81115 374.94712 
L 164.994679 374.945939 
L 165.178172 373.776699 
L 165.36163 373.775511 
L 165.545052 374.287471 
L 166.278385 374.328031 
L 166.46163 375.517559 
L 166.644838 375.516348 
L 166.828012 375.140903 
L 167.011149 375.139687 
L 167.194252 374.480728 
L 167.377318 375.622047 
L 167.56035 375.303294 
L 167.743346 375.619597 
L 167.926306 375.343365 
L 168.109231 375.427187 
L 168.292121 375.340902 
L 168.474975 375.424719 
L 168.657793 376.092562 
L 168.840577 377.202677 
L 169.023324 377.201438 
L 169.206037 375.640899 
L 169.388714 375.639656 
L 169.571356 376.53997 
L 169.753962 376.54723 
L 169.936533 377.209393 
L 170.119069 377.208146 
L 170.301569 376.883698 
L 170.666464 376.8812 
L 170.848859 376.267571 
L 171.031218 376.266319 
L 171.213542 375.77743 
L 171.39583 376.436751 
L 171.760302 376.434236 
L 171.942485 376.651279 
L 172.124633 377.123479 
L 172.306745 377.122218 
L 172.488822 375.972746 
L 172.670865 375.971483 
L 172.852871 376.849095 
L 173.034843 376.847829 
L 173.580548 376.574693 
L 173.762379 376.981676 
L 174.125936 376.057731 
L 174.307662 376.056457 
L 174.671008 376.83639 
L 174.852629 376.835113 
L 175.215765 377.283336 
L 175.39728 377.001383 
L 175.578761 376.940566 
L 175.760206 376.641602 
L 175.941616 375.441078 
L 176.122992 376.352692 
L 176.304332 375.911968 
L 176.666908 376.507596 
L 176.848144 376.506306 
L 177.21051 376.016088 
L 177.572736 376.013498 
L 177.753797 377.381548 
L 177.934823 377.38025 
L 178.115814 376.488734 
L 178.296771 376.487435 
L 178.477692 377.010625 
L 178.658579 377.020664 
L 178.83943 377.305706 
L 179.201029 376.80129 
L 179.381776 376.170596 
L 179.562489 376.16929 
L 179.923809 377.158956 
L 180.28499 377.686499 
L 180.465529 377.68519 
L 180.646033 377.216092 
L 181.006936 377.179451 
L 181.187335 376.775558 
L 181.3677 375.183762 
L 181.728326 375.132935 
L 181.908587 375.398114 
L 182.088813 376.000666 
L 182.269004 375.999343 
L 182.449161 376.87973 
L 182.629283 376.960622 
L 182.989424 377.550501 
L 183.169442 377.549174 
L 183.529375 376.426659 
L 183.70929 376.425329 
L 183.88917 377.30571 
L 184.069015 377.304379 
L 184.248826 376.571595 
L 184.428603 376.570262 
L 184.608345 376.084128 
L 184.788052 376.420167 
L 184.967725 375.848978 
L 185.326967 376.898116 
L 185.686071 376.918114 
L 185.865572 375.89614 
L 186.045038 375.894796 
L 186.22447 376.432116 
L 186.403867 376.581028 
L 186.583229 376.449266 
L 186.762558 376.623691 
L 186.941852 376.446565 
L 187.121111 376.949858 
L 187.658684 376.89193 
L 187.837806 375.827416 
L 188.016894 375.826059 
L 188.374966 376.140868 
L 188.553951 376.567604 
L 188.732902 376.645623 
L 188.911818 377.313339 
L 189.0907 377.311973 
L 189.269547 376.145387 
L 189.448361 375.752777 
L 189.62714 375.751408 
L 189.805885 376.390767 
L 189.984596 377.642503 
L 190.163272 376.8388 
L 190.341914 376.837427 
L 190.520522 376.521358 
L 190.877636 376.518606 
L 191.056142 375.609999 
L 191.769822 375.502403 
L 191.948157 375.027555 
L 192.304724 375.146678 
L 192.482957 375.145281 
L 192.661155 374.826352 
L 192.83932 374.82495 
L 193.01745 374.052401 
L 193.195546 374.864662 
L 193.373609 374.162984 
L 193.551637 374.623688 
L 194.085517 374.525866 
L 194.263409 374.342993 
L 194.441267 374.523008 
L 194.796882 374.069357 
L 194.974638 372.43774 
L 195.330049 372.434842 
L 195.507703 371.679252 
L 195.685324 372.375226 
L 196.040463 372.372296 
L 196.395467 371.56135 
L 196.572918 371.248017 
L 196.750335 369.732607 
L 196.927719 369.274685 
L 197.105068 368.107991 
L 197.282384 367.8627 
L 197.459666 366.316104 
L 197.636914 366.121845 
L 197.991309 361.82374 
L 198.876705 345.282142 
L 199.230627 342.274003 
L 199.407538 342.27253 
L 199.584414 342.849415 
L 199.938067 346.248574 
L 200.114843 347.99635 
L 200.468293 352.651453 
L 200.644968 354.869854 
L 200.821609 355.48643 
L 201.351331 360.355527 
L 201.704311 361.313675 
L 201.88075 361.312202 
L 202.057156 360.539585 
L 202.409868 360.536639 
L 202.586173 361.368682 
L 202.762445 360.553538 
L 203.114888 360.550592 
L 203.291059 360.387519 
L 203.467197 360.848165 
L 203.819372 360.845219 
L 203.995409 359.650174 
L 204.347384 359.684084 
L 204.523321 359.767663 
L 204.699224 360.707439 
L 205.050931 360.676142 
L 205.226735 360.277757 
L 205.402505 360.276284 
L 205.578241 359.319386 
L 205.753945 359.108116 
L 205.929614 359.268243 
L 206.105251 358.952075 
L 206.280854 357.558574 
L 206.631961 357.555628 
L 206.807464 358.549271 
L 206.982934 357.348555 
L 207.333774 359.420893 
L 207.509144 359.41942 
L 207.684481 358.649638 
L 207.859784 358.648165 
L 208.560666 361.987677 
L 208.735803 362.388786 
L 208.910908 363.626246 
L 209.085979 363.655959 
L 209.261016 365.999104 
L 209.436021 366.028817 
L 209.610993 366.798487 
L 209.785931 366.797014 
L 210.135708 366.660819 
L 210.310547 367.648791 
L 210.660126 367.940694 
L 210.834866 368.279432 
L 211.009572 368.277959 
L 211.358886 368.887391 
L 211.533493 370.243925 
L 211.708068 370.429568 
L 211.882609 370.240979 
L 212.057117 369.428671 
L 212.231593 369.427198 
L 212.580444 370.82762 
L 212.929164 371.941699 
L 213.277751 371.938735 
L 213.451996 371.611209 
L 213.626207 372.179572 
L 213.800385 372.047662 
L 213.974531 372.20209 
L 214.148644 372.044653 
L 214.322723 372.136698 
L 214.49677 371.712751 
L 214.844765 371.743735 
L 215.192629 373.217774 
L 215.366511 373.451558 
L 216.061713 373.465249 
L 216.235431 373.64231 
L 216.409117 373.640756 
L 216.58277 372.550525 
L 216.75639 372.548962 
L 217.103531 374.096614 
L 217.277053 373.369256 
L 217.450542 374.223872 
L 217.797422 374.2207 
L 217.970813 374.491278 
L 218.144171 373.710034 
L 218.317496 374.527776 
L 219.010471 374.527022 
L 219.183633 374.295766 
L 219.356763 374.52379 
L 219.52986 376.109819 
L 220.221921 376.12033 
L 220.394855 377.014589 
L 220.567756 376.094391 
L 220.913461 375.623338 
L 221.086264 375.916552 
L 221.259035 375.620066 
L 221.431774 376.82901 
L 221.777153 376.825729 
L 221.949794 377.23234 
L 222.122403 376.907498 
L 222.294979 377.623133 
L 222.467523 376.904213 
L 222.640034 377.784281 
L 222.984958 377.780994 
L 223.329754 377.913791 
L 223.502102 377.912148 
L 223.674419 376.674406 
L 224.018955 376.671117 
L 224.191174 378.305317 
L 224.363361 376.358801 
L 224.535516 378.095063 
L 224.707638 378.093416 
L 224.879728 378.329918 
L 225.051785 378.328272 
L 225.223811 377.288985 
L 225.395803 376.99249 
L 225.739692 377.53637 
L 225.911588 378.130091 
L 226.083452 377.533076 
L 226.255284 378.030405 
L 226.427083 378.028759 
L 226.59885 378.40985 
L 226.942287 378.40656 
L 227.113957 378.124243 
L 227.285595 379.021322 
L 227.457201 378.120957 
L 227.628775 379.190979 
L 227.800316 378.338812 
L 227.971825 378.827642 
L 228.143302 378.38373 
L 228.314747 378.744984 
L 228.48616 378.567571 
L 228.828889 378.5643 
L 229.000205 378.162918 
L 229.17149 378.776498 
L 229.513962 378.773234 
L 229.68515 379.344291 
L 229.856306 378.843686 
L 230.027429 379.05469 
L 230.198521 378.840432 
L 230.369581 376.823058 
L 230.540608 376.821432 
L 230.711604 378.790191 
L 230.882567 379.210993 
L 231.224398 379.207744 
L 231.395266 379.566179 
L 231.907677 379.507458 
L 232.078416 378.11098 
L 232.4198 378.107752 
L 232.590443 378.953829 
L 232.761055 378.952217 
L 232.931635 378.029203 
L 233.102183 378.027592 
L 233.272699 378.825476 
L 233.443183 378.823867 
L 233.784056 378.222448 
L 233.954445 378.416462 
L 234.295126 378.427426 
L 234.465419 379.914242 
L 234.635681 379.002576 
L 234.80591 379.925213 
L 234.976108 378.999375 
L 235.146273 379.922016 
L 235.48651 379.955683 
L 235.65658 379.698934 
L 235.826619 379.680334 
L 236.166601 378.614003 
L 236.336544 378.924277 
L 236.506456 379.914974 
L 236.676336 379.913392 
L 237.016 379.065379 
L 237.185785 379.355816 
L 237.52526 379.352668 
L 237.864608 379.885359 
L 238.034234 379.883791 
L 238.203829 378.929636 
L 238.373392 378.928072 
L 238.542924 379.714664 
L 238.881892 379.620821 
L 239.051329 379.16565 
L 239.220734 379.164094 
L 239.559449 378.76691 
L 239.898039 378.834685 
L 240.067286 379.437009 
L 240.236502 379.435461 
L 240.405686 378.642925 
L 240.574839 378.64138 
L 240.74396 376.108102 
L 240.91305 380.302486 
L 241.082108 378.460971 
L 241.251135 378.907372 
L 241.42013 378.905831 
L 241.589094 379.278522 
L 242.264634 379.167478 
L 242.77096 381.161625 
L 243.277003 377.338194 
L 243.445621 379.964798 
L 243.782764 379.896553 
L 243.951288 379.693746 
L 244.288242 379.69072 
L 244.456672 380.108803 
L 244.625071 380.107296 
L 244.961775 379.84913 
L 245.298354 379.066481 
L 245.466596 379.064983 
L 245.634808 378.884876 
L 245.971136 378.881886 
L 246.139254 379.966231 
L 246.30734 379.964741 
L 246.643419 379.16794 
L 246.811412 379.424448 
L 246.979373 378.294599 
L 247.147303 379.109621 
L 247.48307 379.106659 
L 247.650907 380.287412 
L 247.818713 379.500616 
L 247.986487 379.893219 
L 248.154231 379.497669 
L 248.321943 379.680479 
L 248.657274 379.677543 
L 248.992481 378.197534 
L 249.327564 378.194608 
L 249.495058 379.202437 
L 249.829955 379.199516 
L 249.997356 378.76429 
L 250.164727 379.287324 
L 250.332066 379.285869 
L 250.499375 379.616121 
L 251.168299 379.581974 
L 251.335453 379.342382 
L 251.669667 379.339498 
L 251.836728 379.496823 
L 252.170757 379.400392 
L 252.337725 378.145848 
L 252.504662 378.144414 
L 252.671568 379.56903 
L 253.338884 379.659707 
L 253.505636 377.668052 
L 253.672357 377.666627 
L 253.839047 379.644094 
L 254.338933 380.484691 
L 254.5055 380.27915 
L 254.672036 379.713556 
L 254.838541 379.655444 
L 255.005016 379.31099 
L 255.337873 379.308179 
L 255.504255 379.182032 
L 255.670607 379.900742 
L 255.836928 379.139539 
L 256.003218 379.897944 
L 256.169477 380.131861 
L 257.000314 380.23832 
L 257.332434 380.694845 
L 257.498448 380.693469 
L 257.664431 379.773528 
L 257.996306 379.7878 
L 258.162198 380.038756 
L 258.493889 380.690936 
L 258.659689 380.522308 
L 258.991196 377.908482 
L 259.156904 377.907127 
L 259.322582 379.890335 
L 259.984986 379.935972 
L 260.150511 380.212467 
L 260.481469 380.209788 
L 260.646903 380.820831 
L 260.812305 380.819499 
L 261.14302 380.272505 
L 261.473612 380.28687 
L 261.804083 380.737849 
L 261.969273 380.529574 
L 262.134432 379.864853 
L 262.299561 379.863545 
L 262.464659 380.108891 
L 262.629728 380.107587 
L 262.794765 380.262216 
L 262.959773 379.691064 
L 263.289697 379.750844 
L 263.454613 379.749551 
L 263.619499 380.525075 
L 263.94918 380.616059 
L 264.113975 381.394426 
L 264.27874 380.613498 
L 264.443474 379.143647 
L 264.608178 379.142373 
L 264.772852 379.280019 
L 264.937496 380.248348 
L 265.431245 380.29558 
L 265.595768 379.784003 
L 265.76026 379.782744 
L 265.924723 379.146427 
L 266.089155 379.145172 
L 266.253556 380.68337 
L 266.417928 380.682119 
L 266.582269 379.385235 
L 266.746581 379.383989 
L 267.075113 380.892603 
L 267.239333 380.965076 
L 267.403524 381.295545 
L 267.567684 381.294313 
L 267.731815 380.686375 
L 268.059985 380.683926 
L 268.388035 380.020913 
L 268.552015 379.628455 
L 268.715965 379.627242 
L 269.043774 381.283348 
L 269.207634 381.282143 
L 269.371463 380.855678 
L 269.535263 378.847237 
L 269.699032 380.189872 
L 270.026481 380.187484 
L 270.19016 379.245045 
L 270.35381 379.243857 
L 270.517429 380.484438 
L 270.844578 380.57563 
L 271.008108 380.047125 
L 271.335077 381.195822 
L 271.498517 381.194652 
L 271.988656 379.365364 
L 272.151976 379.559825 
L 272.315267 379.558667 
L 272.478527 380.549792 
L 272.641757 380.548638 
L 272.804958 381.114505 
L 272.968128 379.72133 
L 273.131269 381.236957 
L 273.29438 380.41364 
L 273.457461 380.412501 
L 273.620513 379.158256 
L 273.783534 379.157121 
L 273.946526 380.009349 
L 274.109488 380.008218 
L 274.27242 380.647819 
L 274.435322 379.645907 
L 274.761037 379.643661 
L 274.92385 380.337138 
L 275.086633 380.395557 
L 275.249387 381.553993 
L 275.41211 380.393331 
L 275.574804 380.199437 
L 275.737468 380.198331 
L 275.900103 379.729438 
L 276.225283 379.755588 
L 276.550344 380.034069 
L 276.71283 380.032977 
L 276.875287 381.228293 
L 277.037713 380.716891 
L 277.20011 380.715807 
L 277.524816 380.1523 
L 278.011651 379.655773 
L 278.173871 379.654704 
L 278.33606 380.243334 
L 278.660351 380.326259 
L 278.822452 380.203291 
L 278.984524 379.674907 
L 279.146566 380.201178 
L 279.308578 378.981037 
L 279.470561 379.249319 
L 279.632514 379.018626 
L 279.956332 379.093077 
L 280.118197 379.092031 
L 280.280032 379.731716 
L 280.441838 379.730673 
L 280.603614 380.035822 
L 280.765361 380.034783 
L 280.927078 379.648175 
L 281.412054 379.693275 
L 281.573653 379.913383 
L 281.735223 378.945592 
L 281.896764 381.12475 
L 282.058275 379.317777 
L 282.219757 379.835578 
L 282.704027 379.934594 
L 282.865391 378.751351 
L 283.026726 378.750341 
L 283.349308 379.139566 
L 283.510555 379.033661 
L 283.671773 378.774663 
L 283.832961 378.773658 
L 284.316351 380.029433 
L 284.477422 380.028435 
L 284.638464 378.547524 
L 284.799476 378.54653 
L 285.121414 378.743 
L 285.443234 378.585088 
L 285.6041 377.983059 
L 285.764938 377.860161 
L 285.925746 377.98108 
L 286.086524 377.551993 
L 286.247274 376.269544 
L 286.568685 376.043589 
L 286.729347 375.158048 
L 287.050584 375.156052 
L 287.211158 374.582363 
L 287.371703 374.581358 
L 287.53222 374.770301 
L 287.692707 375.180378 
L 287.853165 374.768277 
L 288.013593 372.516201 
L 288.173993 372.515179 
L 288.334364 372.916735 
L 288.494705 376.017289 
L 288.655018 373.739681 
L 288.975555 373.737602 
L 289.135781 374.272389 
L 289.295977 374.27134 
L 290.096522 368.774463 
L 290.576502 360.237639 
L 290.896343 342.791204 
L 291.216068 312.16728 
L 292.014875 181.804591 
L 292.17455 170.230692 
L 292.334196 170.229623 
L 292.653401 184.246993 
L 293.131991 243.378047 
L 293.610322 304.618406 
L 294.088394 340.773907 
L 294.406964 354.947207 
L 294.884604 363.208279 
L 295.361985 363.190894 
L 295.521054 362.733376 
L 295.680095 360.336657 
L 295.839106 360.094604 
L 296.157044 355.204773 
L 296.31597 354.679212 
L 296.474867 353.280444 
L 296.633735 353.279375 
L 297.110169 356.698116 
L 297.268922 358.157117 
L 297.745012 365.547817 
L 297.903651 366.30088 
L 298.062261 369.086702 
L 298.220843 369.720692 
L 298.537921 372.298476 
L 298.696417 372.626265 
L 299.013324 375.169998 
L 299.171734 375.168906 
L 299.330116 375.896429 
L 299.48847 375.711052 
L 299.646794 375.709953 
L 299.805091 375.459365 
L 299.963358 375.458262 
L 300.121597 377.112848 
L 300.596144 377.075508 
L 300.754269 377.689615 
L 301.070434 376.658262 
L 301.228474 376.657153 
L 301.544468 378.35315 
L 302.018246 378.290285 
L 302.176115 377.132461 
L 302.491768 376.988489 
L 302.649552 377.109287 
L 302.807308 378.636289 
L 303.122734 378.62273 
L 303.280404 377.830632 
L 303.438046 377.829524 
L 303.753245 379.497177 
L 303.910802 378.838331 
L 304.068331 378.837227 
L 304.225831 377.702089 
L 304.383303 377.700987 
L 304.540747 378.675154 
L 304.698163 378.937715 
L 305.012909 378.935515 
L 305.170239 378.574361 
L 305.484816 378.572167 
L 305.642062 378.321584 
L 305.956469 378.319394 
L 306.11363 376.818539 
L 306.270763 376.817444 
L 306.427867 378.123324 
L 306.584944 378.397233 
L 306.741992 378.965991 
L 306.899012 379.027269 
L 307.056004 378.963805 
L 307.212968 378.327655 
L 307.369903 378.227337 
L 307.997364 378.523502 
L 308.154159 378.338134 
L 308.781057 378.37065 
L 309.250936 378.761479 
L 309.407506 378.760399 
L 309.564048 378.569368 
L 309.720562 376.926774 
L 309.877048 376.925694 
L 310.189936 379.364545 
L 310.659057 379.361315 
L 311.440367 378.219089 
L 311.908817 378.992698 
L 312.064911 378.991632 
L 312.377015 378.836409 
L 312.533025 379.351332 
L 312.689008 379.350272 
L 312.844962 378.033732 
L 313.000889 378.032673 
L 313.156787 378.292442 
L 313.312658 378.291384 
L 313.468501 379.449878 
L 313.624316 378.017103 
L 313.780103 378.143626 
L 313.935863 378.014992 
L 314.091594 378.141517 
L 314.247298 378.653613 
L 314.558622 378.651507 
L 314.869835 378.782655 
L 315.025399 378.506602 
L 315.336445 378.578218 
L 315.491926 378.693409 
L 315.64738 378.987213 
L 315.958203 378.985124 
L 316.113574 379.517079 
L 316.424231 379.515 
L 316.579518 378.756995 
L 316.890009 378.754924 
L 317.200389 378.894612 
L 317.510658 379.01446 
L 317.665751 379.328125 
L 317.975855 379.379939 
L 318.130865 379.160614 
L 318.440802 379.135889 
L 318.59573 379.477915 
L 319.215163 379.366121 
L 319.679448 379.275204 
L 319.834154 378.834759 
L 320.143484 378.917802 
L 320.452705 379.840037 
L 320.607273 379.632077 
L 320.916328 378.807908 
L 321.225273 378.80592 
L 321.379704 379.145138 
L 321.688484 379.143157 
L 321.842833 379.587278 
L 322.151448 379.585307 
L 322.305715 380.191033 
L 322.459954 379.730769 
L 322.922506 379.73351 
L 323.230737 380.25039 
L 323.538859 380.120879 
L 323.846871 380.118956 
L 324.000835 380.353311 
L 324.154773 379.966784 
L 324.308683 380.300372 
L 324.616421 380.298474 
L 324.77025 379.327929 
L 324.92405 379.15121 
L 325.077824 379.326044 
L 325.23157 380.053721 
L 325.538981 380.153911 
L 325.846282 380.25978 
L 325.999892 379.433841 
L 326.153474 379.432915 
L 326.307029 379.58225 
L 326.460557 380.108653 
L 326.767532 380.197537 
L 327.227789 380.654083 
L 327.381153 379.887702 
L 327.534491 379.886797 
L 327.687801 379.568364 
L 327.841084 380.015407 
L 327.994339 378.993877 
L 328.147568 379.591183 
L 328.453944 379.589394 
L 328.607091 380.1782 
L 328.760211 379.409002 
L 328.913304 380.176424 
L 329.06637 379.846668 
L 329.219408 380.288059 
L 329.37242 379.961143 
L 329.984195 380.059707 
L 330.289919 380.114672 
L 330.442741 379.821794 
L 330.748304 379.820071 
L 330.901045 380.267157 
L 331.053758 380.266302 
L 331.206445 380.665196 
L 331.359104 380.664346 
L 331.511737 379.943386 
L 331.816921 379.941699 
L 331.969473 380.173335 
L 332.274495 380.171662 
L 332.426966 379.910001 
L 332.731826 380.007569 
L 332.884216 380.205199 
L 333.188915 380.203553 
L 333.493505 379.549847 
L 333.645761 379.549032 
L 333.797989 379.429144 
L 333.95019 380.485821 
L 334.102364 379.161026 
L 334.406633 379.082865 
L 334.710793 381.289792 
L 334.862833 381.288994 
L 335.014846 380.860101 
L 335.318792 378.987362 
L 335.622631 378.985788 
L 335.77451 380.456413 
L 335.926362 378.794268 
L 336.078187 380.681655 
L 336.229986 380.473915 
L 336.381758 380.473139 
L 336.685221 378.872605 
L 336.988577 379.778294 
L 337.291826 380.4827 
L 337.443411 380.481939 
L 337.594969 379.999215 
L 337.898004 379.99487 
L 338.049482 380.657528 
L 338.503754 380.666631 
L 338.655125 379.85222 
L 338.957787 379.850747 
L 339.411579 379.273028 
L 339.713974 379.271572 
L 339.865132 379.693275 
L 340.016263 379.692551 
L 340.167368 379.425331 
L 340.318445 379.424611 
L 340.469496 379.245282 
L 340.620521 380.636594 
L 340.771519 379.771178 
L 341.073435 379.769756 
L 341.224354 379.241722 
L 341.375245 377.381198 
L 341.676949 377.379785 
L 341.827761 378.530124 
L 342.280039 375.636212 
L 342.430745 375.598645 
L 342.732077 373.034296 
L 342.882704 370.155961 
L 343.033304 370.155232 
L 343.183878 371.07023 
L 343.484945 371.068738 
L 343.63544 370.464108 
L 343.785908 371.214643 
L 344.237152 371.220819 
L 344.387514 371.378795 
L 344.688159 374.748119 
L 344.838442 374.792678 
L 345.138929 376.066854 
L 345.43931 377.094372 
L 345.739586 377.260019 
L 346.189802 378.986988 
L 346.339821 378.336943 
L 346.489814 378.985368 
L 346.639781 378.788939 
L 346.789721 378.788132 
L 346.939635 377.590919 
L 347.089523 377.590113 
L 347.239384 379.79784 
L 347.38922 379.797036 
L 347.539028 379.280248 
L 347.838568 379.278649 
L 347.988298 378.968827 
L 348.138002 378.96803 
L 348.287679 379.315951 
L 348.586956 379.314366 
L 349.035675 380.060465 
L 349.334689 378.099853 
L 349.484157 378.623562 
L 349.633599 378.568914 
L 349.783015 379.288246 
L 349.932405 378.567355 
L 350.081768 379.210141 
L 350.529701 379.19364 
L 350.67896 378.674047 
L 350.9774 378.672505 
L 351.12658 378.359876 
L 351.275734 378.359108 
L 351.424863 379.149329 
L 351.723041 379.147797 
L 351.872091 378.812493 
L 352.468031 378.758417 
L 352.616951 378.579048 
L 353.063554 377.408719 
L 353.21237 377.322909 
L 353.509924 375.50977 
L 353.807373 375.508244 
L 353.956059 374.586074 
L 354.104719 374.43788 
L 354.401961 372.871362 
L 354.550543 372.295057 
L 354.699099 372.223393 
L 354.847629 372.293477 
L 354.996133 372.221801 
L 355.44149 371.008789 
L 355.58989 371.007966 
L 355.738265 370.355066 
L 355.886614 370.354229 
L 356.034937 369.845904 
L 356.183234 370.536813 
L 356.331505 370.008627 
L 356.47975 370.245907 
L 356.776163 370.190284 
L 356.924331 370.166713 
L 357.072473 369.406012 
L 357.368679 369.404218 
L 357.516743 369.142492 
L 357.812795 367.28655 
L 357.960782 367.217611 
L 358.256679 365.605486 
L 358.404588 365.210512 
L 358.552472 365.209614 
L 358.70033 364.641699 
L 358.848163 362.908563 
L 358.995969 363.483189 
L 359.14375 363.482292 
L 359.291506 364.167486 
L 359.439235 364.192104 
L 359.586939 364.613635 
L 359.882269 364.648696 
L 360.029896 364.004234 
L 360.177497 363.9438 
L 360.325072 363.648054 
L 360.472622 362.841991 
L 360.620145 362.841094 
L 361.062563 363.89022 
L 361.209984 363.889322 
L 361.35738 363.585071 
L 361.50475 361.885956 
L 361.799413 361.847305 
L 361.946706 361.324751 
L 362.093974 361.323854 
L 362.241216 360.251294 
L 362.388432 360.21354 
L 362.682788 359.488798 
L 362.829928 355.583985 
L 362.977042 355.469684 
L 363.12413 351.332393 
L 363.271193 351.116029 
L 363.712229 341.672495 
L 364.006125 325.717661 
L 364.299919 299.440271 
L 364.740419 208.451104 
L 365.474076 43.702496 
L 365.620731 33.974412 
L 365.767361 33.973515 
L 365.913965 35.795579 
L 366.207097 75.178825 
L 366.939482 223.256649 
L 367.524934 300.568741 
L 367.963756 330.75123 
L 368.402351 343.656693 
L 368.840717 349.037833 
L 369.132835 349.279856 
L 369.278856 349.199576 
L 369.424852 348.438875 
L 369.570822 347.079971 
L 369.716768 347.079074 
L 369.862688 346.173783 
L 370.008582 346.033967 
L 370.300296 342.567695 
L 370.446115 342.453394 
L 370.737678 337.909788 
L 371.174832 330.774015 
L 371.3205 330.115378 
L 371.902919 325.609669 
L 372.193978 325.588028 
L 372.33947 325.187384 
L 372.484936 325.186486 
L 373.647764 338.552417 
L 373.93822 342.239072 
L 374.083411 342.612406 
L 374.373716 348.266612 
L 374.808987 351.223752 
L 375.678853 357.174888 
L 375.823743 357.420643 
L 376.258264 360.876758 
L 376.69256 361.94573 
L 376.837275 361.944832 
L 376.981966 362.596005 
L 377.271272 364.476709 
L 377.415888 364.260345 
L 377.560479 364.514606 
L 377.705045 364.25855 
L 377.994102 365.923787 
L 378.138593 365.971087 
L 378.427501 366.190429 
L 378.716309 366.188634 
L 379.005018 367.595878 
L 379.149335 367.594981 
L 379.293628 368.359557 
L 379.582138 368.405959 
L 379.870549 368.511898 
L 380.014717 369.061008 
L 380.158861 368.663198 
L 380.591143 369.601747 
L 380.879207 369.495013 
L 381.023202 369.494083 
L 381.167172 369.121749 
L 381.311117 368.378017 
L 381.598934 369.496001 
L 381.742805 369.495054 
L 381.886652 371.311391 
L 382.174271 371.309462 
L 382.318043 371.436067 
L 382.461791 371.02967 
L 382.749212 371.027689 
L 382.892886 372.01897 
L 383.180159 372.155871 
L 383.467334 372.462856 
L 383.610884 372.762348 
L 383.75441 372.761315 
L 384.041387 373.686309 
L 384.184839 373.356393 
L 384.471669 374.012028 
L 384.615047 374.01097 
L 384.901729 374.782822 
L 385.188313 374.780683 
L 385.331569 375.196367 
L 385.474799 375.195291 
L 385.618005 374.686731 
L 385.761187 374.685649 
L 385.904344 375.211891 
L 386.047476 375.210803 
L 386.190584 374.832647 
L 386.476726 374.912676 
L 386.619761 376.207212 
L 386.762771 375.055066 
L 387.048717 375.052858 
L 387.334565 376.266893 
L 387.620316 377.877834 
L 387.763154 377.876722 
L 388.048758 376.352056 
L 388.191523 376.350943 
L 388.334264 377.041589 
L 388.47698 377.040474 
L 388.619672 376.041406 
L 388.762339 376.040288 
L 389.047601 377.843999 
L 389.190195 377.335397 
L 389.475311 377.333155 
L 389.617832 377.445437 
L 389.902801 377.84294 
L 390.045249 377.841818 
L 390.187673 378.302816 
L 390.330072 378.301695 
L 390.614798 379.300241 
L 390.757124 379.299124 
L 390.899426 377.965516 
L 391.041704 377.9644 
L 391.183957 378.989587 
L 391.326186 378.988472 
L 391.468391 379.15463 
L 391.610571 378.572325 
L 391.752728 379.2488 
L 391.89486 379.142793 
L 392.463145 379.441725 
L 392.605155 379.440624 
L 392.747142 380.187988 
L 392.889104 379.543326 
L 393.031042 380.151775 
L 393.314845 379.395457 
L 393.45671 378.872712 
L 393.740368 378.870537 
L 393.882161 379.856062 
L 394.307394 379.96055 
L 394.44909 380.34788 
L 394.590762 381.064083 
L 394.874033 381.161172 
L 395.015632 380.14231 
L 395.723268 380.814613 
L 396.006153 380.81252 
L 396.147559 380.567661 
L 396.288942 380.566622 
L 396.4303 380.789558 
L 396.571634 380.788525 
L 396.712944 380.475635 
L 396.995493 380.473584 
L 397.136731 381.393966 
L 397.277945 381.458155 
L 397.419135 381.655596 
L 397.84256 381.179117 
L 397.983654 381.178117 
L 398.124724 380.397472 
L 398.26577 380.396478 
L 398.406792 381.14962 
L 398.688763 381.147649 
L 398.829713 380.89718 
L 398.970639 381.239249 
L 399.111541 380.943426 
L 399.393273 380.941487 
L 399.534104 381.49053 
L 399.67491 381.48957 
L 399.815692 380.92443 
L 399.95645 380.923477 
L 400.237895 382.078296 
L 400.378582 382.077354 
L 400.519245 381.129496 
L 400.659883 381.128562 
L 400.800498 381.340263 
L 400.941089 381.954549 
L 401.081656 381.953626 
L 401.2222 381.388525 
L 401.362719 381.38761 
L 401.503215 382.248565 
L 401.643686 382.247658 
L 401.784134 381.761955 
L 402.064958 381.734646 
L 402.205335 381.54097 
L 402.345687 381.925655 
L 402.486016 380.909811 
L 402.626321 382.507922 
L 402.766602 381.764254 
L 403.047093 381.762517 
L 403.46765 382.091648 
L 404.028061 382.150648 
L 404.168105 382.436159 
L 404.867966 382.46042 
L 405.007867 382.025848 
L 405.147744 382.025048 
L 405.287598 383.311383 
L 405.427428 383.310593 
L 405.707017 382.058756 
L 405.846775 382.026795 
L 405.986511 381.620607 
L 406.126222 382.025257 
L 406.26591 381.619077 
L 406.405574 382.689982 
L 406.545215 382.057004 
L 406.824425 382.055509 
L 406.963995 382.684158 
L 407.243064 382.674186 
L 407.382563 381.545096 
L 407.522038 381.544374 
L 407.66149 381.348034 
L 407.800918 382.146815 
L 407.940323 381.099957 
L 408.219061 382.416864 
L 408.358395 382.416166 
L 408.636992 381.584104 
L 408.776255 382.014352 
L 408.915495 381.653616 
L 409.054711 382.047016 
L 409.193903 381.828042 
L 409.472218 381.82671 
L 409.750438 382.208131 
L 409.889514 382.009024 
L 410.028565 382.705809 
L 410.167593 382.33377 
L 410.445579 382.3325 
L 410.584536 381.523872 
L 410.723471 381.523248 
L 411.001269 382.193927 
L 411.140132 382.193315 
L 411.278973 382.456371 
L 411.556583 382.28223 
L 411.8341 382.136458 
L 412.2502 382.222605 
L 412.527482 381.668624 
L 412.804672 381.667502 
L 412.943231 382.469276 
L 413.35877 382.453463 
L 413.497236 382.708085 
L 413.635679 382.707553 
L 413.912494 381.654687 
L 414.050867 381.654169 
L 414.189217 380.953388 
L 414.327543 381.755207 
L 414.465846 381.462686 
L 414.604125 382.182295 
L 415.018825 382.138286 
L 415.157011 382.514867 
L 415.295174 381.624169 
L 415.433314 382.281433 
L 415.571431 382.28096 
L 415.709524 382.725601 
L 415.847595 382.725139 
L 415.985642 381.772092 
L 416.123665 381.629884 
L 416.261666 381.771188 
L 416.537597 381.605866 
L 416.675528 381.605428 
L 416.813436 382.29392 
L 417.089181 382.26188 
L 417.364834 382.175991 
L 417.502626 382.17558 
L 417.640395 381.883159 
L 417.915862 381.882357 
L 418.053561 382.590735 
L 418.32889 382.58996 
L 418.74171 382.997088 
L 418.87927 381.74078 
L 419.154322 381.740063 
L 419.291813 382.150799 
L 419.42928 381.603279 
L 419.566725 382.150107 
L 419.704147 381.727339 
L 419.978921 382.838027 
L 420.116274 382.837702 
L 420.253603 383.035837 
L 420.528193 383.035212 
L 420.802691 381.690776 
L 420.939905 382.509821 
L 421.077096 382.305403 
L 421.214265 382.497903 
L 421.488532 382.497344 
L 421.625631 382.216398 
L 421.762707 381.21251 
L 421.899761 381.212245 
L 422.036791 382.280813 
L 422.173798 382.280557 
L 422.310783 381.563028 
L 422.584682 381.517175 
L 422.721598 380.941412 
L 422.99536 381.043004 
L 423.132206 381.898971 
L 423.405831 381.898522 
L 423.679364 382.689081 
L 423.816096 383.136817 
L 423.952805 382.68867 
L 424.089491 382.835897 
L 424.362795 381.837565 
L 424.499412 381.837381 
L 424.772579 381.21047 
L 424.909128 381.210297 
L 425.318638 382.264453 
L 425.455095 381.717123 
L 425.59153 383.032451 
L 425.864331 383.03216 
L 426.137041 381.937546 
L 426.273362 381.673754 
L 426.409659 381.67363 
L 426.545934 382.396457 
L 426.682187 382.396341 
L 426.818416 381.942615 
L 427.090807 381.984932 
L 427.226968 382.532005 
L 427.363107 382.364641 
L 427.499222 383.022292 
L 427.771386 382.937077 
L 427.907433 382.043951 
L 428.043458 382.043882 
L 428.315439 382.205357 
L 428.451396 382.205301 
L 428.58733 381.745965 
L 428.723241 382.715518 
L 428.994995 382.667242 
L 429.130838 381.22415 
L 429.266659 381.224121 
L 429.402456 380.753471 
L 429.538231 381.408353 
L 429.673984 382.737991 
L 429.809714 382.737977 
L 429.945421 382.097238 
L 430.081105 382.097234 
L 430.081105 382.097234 
" clip-path="url(#pb75abfa847)" style="fill: none; stroke: #5088c5; stroke-linecap: round"/>
   </g>
   <g id="line2d_16">
    <defs>
     <path id="m8fa749c8c8" d="M 0 2 
C 0.530406 2 1.03916 1.789267 1.414214 1.414214 
C 1.789267 1.03916 2 0.530406 2 0 
C 2 -0.530406 1.789267 -1.03916 1.414214 -1.414214 
C 1.03916 -1.789267 0.530406 -2 0 -2 
C -0.530406 -2 -1.03916 -1.789267 -1.414214 -1.414214 
C -1.789267 -1.03916 -2 -0.530406 -2 0 
C -2 0.530406 -1.789267 1.03916 -1.414214 1.414214 
C -1.03916 1.789267 -0.530406 2 0 2 
z
"/>
    </defs>
    <g clip-path="url(#pb75abfa847)">
     <use xlink:href="#m8fa749c8c8" x="151.142077" y="327.510545" style="fill: #f28360"/>
     <use xlink:href="#m8fa749c8c8" x="199.502138" y="342.849415" style="fill: #f28360"/>
     <use xlink:href="#m8fa749c8c8" x="292.390743" y="170.229623" style="fill: #f28360"/>
     <use xlink:href="#m8fa749c8c8" x="365.788885" y="33.973515" style="fill: #f28360"/>
     <use xlink:href="#m8fa749c8c8" x="372.165372" y="325.588028" style="fill: #f28360"/>
    </g>
   </g>
   <g id="patch_3">
    <path d="M 81.762344 397.284897 
L 81.762344 20 
" style="fill: none; stroke: #000000; stroke-width: 0.75; stroke-linejoin: miter; stroke-linecap: square"/>
   </g>
   <g id="patch_4">
    <path d="M 81.762344 397.284897 
L 443.477981 397.284897 
" style="fill: none; stroke: #000000; stroke-width: 0.75; stroke-linejoin: miter; stroke-linecap: square"/>
   </g>
  </g>
 </g>
 <defs>
  <clipPath id="pb75abfa847">
   <rect x="81.762344" y="20" width="361.715637" height="377.284898"/>
  </clipPath>
 </defs>
</svg>
