<?xml version="1.0" encoding="utf-8" standalone="no"?>
<!DOCTYPE svg PUBLIC "-//W3C//DTD SVG 1.1//EN"
  "http://www.w3.org/Graphics/SVG/1.1/DTD/svg11.dtd">
<svg xmlns:xlink="http://www.w3.org/1999/xlink" width="463.953517pt" height="463.995499pt" viewBox="0 0 463.953517 463.995499" xmlns="http://www.w3.org/2000/svg" version="1.1">
 <metadata>
  <rdf:RDF xmlns:dc="http://purl.org/dc/elements/1.1/" xmlns:cc="http://creativecommons.org/ns#" xmlns:rdf="http://www.w3.org/1999/02/22-rdf-syntax-ns#">
   <cc:Work>
    <dc:type rdf:resource="http://purl.org/dc/dcmitype/StillImage"/>
    <dc:date>2025-02-10T11:28:19.094410</dc:date>
    <dc:format>image/svg+xml</dc:format>
    <dc:creator>
     <cc:Agent>
      <dc:title>Matplotlib v3.8.4, https://matplotlib.org/</dc:title>
     </cc:Agent>
    </dc:creator>
   </cc:Work>
  </rdf:RDF>
 </metadata>
 <defs>
  <style type="text/css">*{stroke-linejoin: round; stroke-linecap: butt}</style>
 </defs>
 <g id="figure_1">
  <g id="patch_1">
   <path d="M 0 463.995499 
L 463.953517 463.995499 
L 463.953517 0 
L 0 0 
L 0 463.995499 
z
" style="fill: none"/>
  </g>
  <g id="axes_1">
   <g id="patch_2">
    <path d="M 91.128438 394.595499 
L 443.026462 394.595499 
L 443.026462 21.842808 
L 91.128438 21.842808 
L 91.128438 394.595499 
z
" style="fill: none"/>
   </g>
   <g id="matplotlib.axis_1">
    <g id="xtick_1">
     <g id="line2d_1">
      <defs>
       <path id="m3de6832805" d="M 0 0 
L 0 5 
" style="stroke: #000000; stroke-width: 0.75"/>
      </defs>
      <g>
       <use xlink:href="#m3de6832805" x="115.274616" y="394.595499" style="stroke: #000000; stroke-width: 0.75"/>
      </g>
     </g>
     <g id="text_1">
      <text style="font: 14.5px &quot;Suisse Int&apos;l Mono&quot;; text-anchor: middle" x="115.274616" y="415.107999" transform="rotate(-0 115.274616 415.107999)">500</text>
     </g>
    </g>
    <g id="xtick_2">
     <g id="line2d_2">
      <g>
       <use xlink:href="#m3de6832805" x="166.932401" y="394.595499" style="stroke: #000000; stroke-width: 0.75"/>
      </g>
     </g>
     <g id="text_2">
      <text style="font: 14.5px &quot;Suisse Int&apos;l Mono&quot;; text-anchor: middle" x="166.932401" y="415.107999" transform="rotate(-0 166.932401 415.107999)">1000</text>
     </g>
    </g>
    <g id="xtick_3">
     <g id="line2d_3">
      <g>
       <use xlink:href="#m3de6832805" x="218.590187" y="394.595499" style="stroke: #000000; stroke-width: 0.75"/>
      </g>
     </g>
     <g id="text_3">
      <text style="font: 14.5px &quot;Suisse Int&apos;l Mono&quot;; text-anchor: middle" x="218.590187" y="415.107999" transform="rotate(-0 218.590187 415.107999)">1500</text>
     </g>
    </g>
    <g id="xtick_4">
     <g id="line2d_4">
      <g>
       <use xlink:href="#m3de6832805" x="270.247973" y="394.595499" style="stroke: #000000; stroke-width: 0.75"/>
      </g>
     </g>
     <g id="text_4">
      <text style="font: 14.5px &quot;Suisse Int&apos;l Mono&quot;; text-anchor: middle" x="270.247973" y="415.107999" transform="rotate(-0 270.247973 415.107999)">2000</text>
     </g>
    </g>
    <g id="xtick_5">
     <g id="line2d_5">
      <g>
       <use xlink:href="#m3de6832805" x="321.905758" y="394.595499" style="stroke: #000000; stroke-width: 0.75"/>
      </g>
     </g>
     <g id="text_5">
      <text style="font: 14.5px &quot;Suisse Int&apos;l Mono&quot;; text-anchor: middle" x="321.905758" y="415.107999" transform="rotate(-0 321.905758 415.107999)">2500</text>
     </g>
    </g>
    <g id="xtick_6">
     <g id="line2d_6">
      <g>
       <use xlink:href="#m3de6832805" x="373.563544" y="394.595499" style="stroke: #000000; stroke-width: 0.75"/>
      </g>
     </g>
     <g id="text_6">
      <text style="font: 14.5px &quot;Suisse Int&apos;l Mono&quot;; text-anchor: middle" x="373.563544" y="415.107999" transform="rotate(-0 373.563544 415.107999)">3000</text>
     </g>
    </g>
    <g id="xtick_7">
     <g id="line2d_7">
      <g>
       <use xlink:href="#m3de6832805" x="425.22133" y="394.595499" style="stroke: #000000; stroke-width: 0.75"/>
      </g>
     </g>
     <g id="text_7">
      <text style="font: 14.5px &quot;Suisse Int&apos;l Mono&quot;; text-anchor: middle" x="425.22133" y="415.107999" transform="rotate(-0 425.22133 415.107999)">3500</text>
     </g>
    </g>
    <g id="text_8">
     <!-- Raman shift (cm$^{-1}$) -->
     <g transform="translate(200.62745 441.145499)">
      <text>
       <tspan style="font: 500 15px &quot;Suisse Int&apos;l&quot;" x="0 10.184982 18.719971 32.324951 40.85994 49.694931 53.144928 61.034912 69.869904 73.664886 78.509872 83.609863 87.05986 90.929855 99.389847 129.02681" y="-0.6015625">Raman shift (cm)</tspan>
       <tspan style="font: 10.5px 'DejaVu Sans'" x="113.138382 121.936234" y="-6.34375">−1</tspan>
      </text>
     </g>
    </g>
   </g>
   <g id="matplotlib.axis_2">
    <g id="ytick_1">
     <g id="line2d_8">
      <defs>
       <path id="mc155f228e1" d="M 0 0 
L -5 0 
" style="stroke: #000000; stroke-width: 0.75"/>
      </defs>
      <g>
       <use xlink:href="#mc155f228e1" x="91.128438" y="377.933161" style="stroke: #000000; stroke-width: 0.75"/>
      </g>
     </g>
     <g id="text_9">
      <text style="font: 14.5px &quot;Suisse Int&apos;l Mono&quot;; text-anchor: end" x="81.128438" y="383.189411" transform="rotate(-0 81.128438 383.189411)">7.55</text>
     </g>
    </g>
    <g id="ytick_2">
     <g id="line2d_9">
      <g>
       <use xlink:href="#mc155f228e1" x="91.128438" y="319.153675" style="stroke: #000000; stroke-width: 0.75"/>
      </g>
     </g>
     <g id="text_10">
      <text style="font: 14.5px &quot;Suisse Int&apos;l Mono&quot;; text-anchor: end" x="81.128438" y="324.409925" transform="rotate(-0 81.128438 324.409925)">7.60</text>
     </g>
    </g>
    <g id="ytick_3">
     <g id="line2d_10">
      <g>
       <use xlink:href="#mc155f228e1" x="91.128438" y="260.37419" style="stroke: #000000; stroke-width: 0.75"/>
      </g>
     </g>
     <g id="text_11">
      <text style="font: 14.5px &quot;Suisse Int&apos;l Mono&quot;; text-anchor: end" x="81.128438" y="265.63044" transform="rotate(-0 81.128438 265.63044)">7.65</text>
     </g>
    </g>
    <g id="ytick_4">
     <g id="line2d_11">
      <g>
       <use xlink:href="#mc155f228e1" x="91.128438" y="201.594705" style="stroke: #000000; stroke-width: 0.75"/>
      </g>
     </g>
     <g id="text_12">
      <text style="font: 14.5px &quot;Suisse Int&apos;l Mono&quot;; text-anchor: end" x="81.128438" y="206.850955" transform="rotate(-0 81.128438 206.850955)">7.70</text>
     </g>
    </g>
    <g id="ytick_5">
     <g id="line2d_12">
      <g>
       <use xlink:href="#mc155f228e1" x="91.128438" y="142.81522" style="stroke: #000000; stroke-width: 0.75"/>
      </g>
     </g>
     <g id="text_13">
      <text style="font: 14.5px &quot;Suisse Int&apos;l Mono&quot;; text-anchor: end" x="81.128438" y="148.07147" transform="rotate(-0 81.128438 148.07147)">7.75</text>
     </g>
    </g>
    <g id="ytick_6">
     <g id="line2d_13">
      <g>
       <use xlink:href="#mc155f228e1" x="91.128438" y="84.035735" style="stroke: #000000; stroke-width: 0.75"/>
      </g>
     </g>
     <g id="text_14">
      <text style="font: 14.5px &quot;Suisse Int&apos;l Mono&quot;; text-anchor: end" x="81.128438" y="89.291985" transform="rotate(-0 81.128438 89.291985)">7.80</text>
     </g>
    </g>
    <g id="ytick_7">
     <g id="line2d_14">
      <g>
       <use xlink:href="#mc155f228e1" x="91.128438" y="25.25625" style="stroke: #000000; stroke-width: 0.75"/>
      </g>
     </g>
     <g id="text_15">
      <text style="font: 14.5px &quot;Suisse Int&apos;l Mono&quot;; text-anchor: end" x="81.128438" y="30.5125" transform="rotate(-0 81.128438 30.5125)">7.85</text>
     </g>
    </g>
    <g id="text_16">
     <text style="font: 500 15px &quot;Suisse Int&apos;l&quot;, sans-serif; text-anchor: middle" x="30.875" y="208.219153" transform="rotate(-90 30.875 208.219153)">Intensity (au)</text>
    </g>
   </g>
   <g id="line2d_15">
    <path d="M 104.161698 369.304332 
L 104.353814 368.598978 
L 104.545891 369.586474 
L 104.737929 369.010435 
L 105.12189 369.492426 
L 105.313811 369.480671 
L 105.505695 369.915639 
L 105.697539 368.728293 
L 105.889344 369.245553 
L 106.081111 368.340349 
L 106.272839 370.315339 
L 106.464528 368.093475 
L 106.656179 369.186773 
L 106.847791 369.069214 
L 107.039364 371.761315 
L 107.422394 367.846601 
L 107.805269 369.79808 
L 107.996649 369.868615 
L 108.18799 370.573969 
L 108.379293 370.315339 
L 108.570557 371.820094 
L 108.761782 370.750307 
L 108.952969 370.503434 
L 109.144117 369.868615 
L 109.335226 370.585725 
L 109.908324 365.765807 
L 110.099279 365.965657 
L 110.290196 365.248548 
L 110.481074 367.200027 
L 110.671914 365.095721 
L 110.862715 367.341097 
L 111.053478 366.506429 
L 111.244203 369.562962 
L 111.434889 368.093475 
L 111.625537 369.856859 
L 111.816146 369.104482 
L 112.006717 369.304332 
L 112.197249 368.128742 
L 112.578199 371.773071 
L 112.768616 369.727544 
L 112.958995 370.644504 
L 113.149336 366.84735 
L 113.339638 366.341846 
L 113.529902 366.33009 
L 113.910315 371.796582 
L 114.100464 371.796582 
L 114.290575 371.408638 
L 114.480648 368.434396 
L 114.670682 368.857608 
L 114.860678 367.952404 
L 115.620281 370.738552 
L 115.810086 370.139001 
L 115.999853 370.526945 
L 116.189582 370.233048 
L 116.379273 371.032449 
L 116.568925 368.011183 
L 116.75854 369.692277 
L 116.948116 370.350607 
L 117.137654 371.890629 
L 117.327155 369.022191 
L 117.516617 368.916388 
L 117.706041 365.283815 
L 118.084775 368.469663 
L 118.463357 369.033947 
L 118.652591 367.341097 
L 119.030945 370.585725 
L 119.598191 367.282318 
L 119.787197 368.892876 
L 119.976165 369.457159 
L 120.165096 368.916388 
L 120.353988 369.022191 
L 120.920438 365.859854 
L 121.297882 369.092726 
L 121.675175 369.245553 
L 121.863765 367.787821 
L 122.052317 367.576215 
L 122.240831 366.377114 
L 122.429307 366.741547 
L 122.617746 367.646751 
L 122.99451 369.751056 
L 123.182835 369.668765 
L 123.371123 368.986923 
L 123.559373 370.950158 
L 123.747585 369.939151 
L 124.311996 364.707776 
L 124.500057 366.024437 
L 124.876068 370.573969 
L 125.439801 367.529192 
L 125.627637 367.435145 
L 125.815435 369.892127 
L 126.003196 370.879622 
L 126.378605 369.845103 
L 126.566253 367.811333 
L 126.753864 368.152254 
L 126.941437 365.307327 
L 127.128973 368.046451 
L 127.316471 367.352853 
L 127.503932 371.267567 
L 127.691355 368.951655 
L 127.878741 369.269064 
L 128.06609 368.563711 
L 128.253401 369.445403 
L 128.815109 368.175766 
L 129.002271 368.810584 
L 129.189395 368.787073 
L 129.376481 371.526197 
L 129.563531 369.880371 
L 129.750543 372.125747 
L 130.124455 374.100738 
L 130.498218 368.728293 
L 130.685043 367.329341 
L 130.871832 367.493924 
L 131.058583 369.245553 
L 131.431973 367.529192 
L 131.618612 365.483666 
L 131.991779 368.963411 
L 132.178307 369.175017 
L 132.364797 367.587971 
L 132.551251 368.504931 
L 132.737667 371.055961 
L 132.924046 370.644504 
L 133.110388 369.492426 
L 133.296693 369.127994 
L 133.669191 373.595235 
L 133.855385 372.854613 
L 134.041541 372.878125 
L 134.227661 371.232299 
L 134.413743 370.985425 
L 134.599788 370.538701 
L 134.971768 367.940648 
L 135.157702 368.105231 
L 135.343599 369.468915 
L 135.529459 369.033947 
L 135.715282 370.139001 
L 136.27253 367.776066 
L 136.643844 367.329341 
L 136.829446 367.987672 
L 137.015011 369.222041 
L 137.200539 368.175766 
L 137.386029 367.846601 
L 137.571484 368.646002 
L 137.756901 370.091977 
L 137.942281 369.363112 
L 138.127625 369.680521 
L 138.312931 370.820843 
L 138.498201 371.138252 
L 138.683434 371.150008 
L 139.05379 369.821592 
L 139.238913 369.562962 
L 139.423999 366.941397 
L 139.609048 366.541696 
L 139.794061 367.270562 
L 139.979037 366.765058 
L 140.163976 367.96416 
L 140.348878 367.011932 
L 140.533744 369.022191 
L 140.718573 367.270562 
L 140.903365 368.775317 
L 141.088121 366.52994 
L 141.27284 368.587222 
L 141.457522 368.869364 
L 141.642168 368.728293 
L 141.826777 369.092726 
L 142.01135 367.282318 
L 142.195885 366.835594 
L 142.380385 365.577713 
L 142.564848 366.823838 
L 142.749274 365.354351 
L 142.933664 366.024437 
L 143.118017 367.646751 
L 143.302333 367.470412 
L 143.486613 367.987672 
L 143.670857 364.637241 
L 144.223369 363.89662 
L 144.407466 360.275803 
L 144.591528 361.380858 
L 144.775552 361.721779 
L 144.959541 362.697518 
L 145.143493 361.898117 
L 145.327408 363.967155 
L 145.511287 363.532187 
L 145.878936 363.696769 
L 146.062706 366.07146 
L 146.24644 363.226533 
L 146.430137 362.744542 
L 146.613798 364.343344 
L 146.797423 363.038439 
L 146.981011 360.734283 
L 147.164563 360.499165 
L 147.531558 363.496919 
L 147.898408 359.570449 
L 148.265113 357.489656 
L 148.448412 359.347087 
L 148.631674 359.347087 
L 148.814899 357.889356 
L 148.998089 358.07745 
L 149.364359 356.184751 
L 149.547441 356.607963 
L 149.730485 357.948136 
L 149.913494 358.206765 
L 150.096467 359.017922 
L 150.279403 358.383104 
L 150.462304 357.254538 
L 150.645168 355.314815 
L 150.827996 355.420618 
L 151.010788 357.207514 
L 151.193544 354.915114 
L 151.558948 353.774792 
L 151.741596 356.490404 
L 151.924208 356.607963 
L 152.106784 357.513167 
L 152.289324 356.125972 
L 152.471828 357.971647 
L 153.019124 351.51766 
L 153.201484 351.494148 
L 153.383808 351.752778 
L 153.566096 352.37584 
L 153.748349 354.915114 
L 153.930565 354.397855 
L 154.476999 353.904107 
L 154.841109 354.997405 
L 155.02311 356.643231 
L 155.205075 353.786548 
L 155.387005 354.715264 
L 155.568898 354.127469 
L 155.750756 357.912868 
L 155.932578 357.912868 
L 156.114365 355.5852 
L 156.296115 356.702011 
L 156.841152 351.870337 
L 157.02276 353.939375 
L 157.385868 354.080446 
L 157.567368 352.998903 
L 158.111656 359.182505 
L 158.293013 358.418372 
L 158.655622 351.964384 
L 158.836873 351.846825 
L 159.018088 352.23477 
L 159.199268 354.679996 
L 159.380412 353.457383 
L 159.561521 354.386099 
L 159.742594 352.164234 
L 160.285599 356.114216 
L 161.189898 350.988645 
L 161.370651 351.0004 
L 161.551369 351.929116 
L 161.732051 354.433122 
L 161.912698 354.386099 
L 162.09331 355.632224 
L 162.454427 353.75128 
L 162.634932 353.657233 
L 162.815402 356.337578 
L 162.995836 354.797555 
L 163.176235 355.714515 
L 163.356599 353.375092 
L 163.536928 353.915863 
L 163.717221 355.12672 
L 163.897478 355.397106 
L 164.077701 356.549184 
L 164.257888 355.314815 
L 164.43804 355.44413 
L 164.618156 355.009161 
L 164.978284 352.128967 
L 165.158294 354.233272 
L 165.33827 353.363336 
L 165.51821 355.502909 
L 165.698115 355.832074 
L 165.877985 356.807814 
L 166.057819 355.150232 
L 166.237619 355.796806 
L 166.417383 354.774043 
L 166.776806 354.797555 
L 166.956465 353.539674 
L 167.136088 353.657233 
L 167.315677 355.608712 
L 167.49523 354.832823 
L 167.854232 351.858581 
L 168.03368 354.433122 
L 168.213093 355.350082 
L 168.39247 354.891602 
L 168.571813 352.857832 
L 168.751121 353.998154 
L 168.930394 354.174493 
L 169.288834 352.881344 
L 169.468002 352.552179 
L 169.647135 352.857832 
L 169.826232 354.962138 
L 170.184323 354.456634 
L 170.542273 350.40085 
L 170.721196 351.588195 
L 170.900084 350.706503 
L 171.078937 352.17599 
L 171.257755 351.529416 
L 171.436539 354.115713 
L 171.794001 352.716761 
L 171.972679 350.518409 
L 172.151323 351.999652 
L 172.329932 352.411108 
L 172.508506 353.410359 
L 172.687045 352.093699 
L 173.044019 353.210509 
L 173.400854 355.032673 
L 173.57922 355.408862 
L 173.75755 355.103209 
L 173.935846 351.91736 
L 174.114107 352.446376 
L 174.470525 352.446376 
L 174.826804 354.409611 
L 175.004891 354.632973 
L 175.182944 355.056185 
L 175.360962 354.162737 
L 175.716895 354.245028 
L 175.894809 353.304556 
L 176.072688 353.034171 
L 176.250533 352.317061 
L 176.606119 352.622714 
L 176.78386 354.679996 
L 176.961567 352.998903 
L 177.139239 354.562437 
L 177.316876 354.938626 
L 177.494479 356.678499 
L 177.849581 354.632973 
L 178.204545 350.365582 
L 178.381975 351.646975 
L 178.559371 351.623463 
L 178.736732 354.444878 
L 178.914059 354.538925 
L 179.091351 354.868091 
L 179.268609 353.339824 
L 179.445833 353.104706 
L 179.623022 352.258281 
L 179.800176 353.175241 
L 179.977296 353.281045 
L 180.154382 352.716761 
L 180.331434 352.822565 
L 180.508451 354.198004 
L 180.685433 356.607963 
L 180.862381 356.525672 
L 181.039295 355.538177 
L 181.216175 353.116462 
L 181.39302 355.808562 
L 181.569831 355.890854 
L 181.746608 355.479397 
L 181.92335 354.738776 
L 182.276732 354.20976 
L 182.453371 354.66824 
L 182.629977 353.328068 
L 182.806548 353.986398 
L 183.159587 352.17599 
L 183.336055 353.786548 
L 183.512489 353.422115 
L 183.688889 352.422864 
L 183.865255 352.399352 
L 184.041586 352.540423 
L 184.217883 353.516162 
L 184.394147 355.714515 
L 184.570376 355.350082 
L 184.746571 355.773295 
L 184.922731 352.787297 
L 185.627033 354.821067 
L 185.978979 353.045927 
L 186.33079 349.460378 
L 186.506644 351.529416 
L 186.682464 351.987896 
L 186.85825 354.574193 
L 187.034001 353.986398 
L 187.385403 350.024661 
L 187.561053 350.518409 
L 187.736669 352.799053 
L 187.912251 350.894597 
L 188.087799 351.023912 
L 188.263314 350.612456 
L 188.438794 351.176739 
L 188.61424 347.638214 
L 188.789652 351.400101 
L 188.965031 351.329566 
L 189.140375 352.716761 
L 189.315686 352.763785 
L 189.490963 350.894597 
L 189.841415 353.175241 
L 190.01659 353.128218 
L 190.191731 352.152478 
L 190.541913 351.799801 
L 190.716953 351.893849 
L 190.891959 351.329566 
L 191.066931 351.905605 
L 191.24187 351.505904 
L 191.416775 352.975391 
L 191.591646 350.412606 
L 191.766483 351.400101 
L 191.941287 350.530165 
L 192.290793 350.777038 
L 192.465495 351.45888 
L 192.640164 350.001149 
L 192.9894 353.034171 
L 193.163968 353.198753 
L 193.338502 354.256784 
L 193.513002 351.341322 
L 193.687469 352.140722 
L 193.861902 350.6007 
L 194.036302 353.492651 
L 194.210667 354.456634 
L 194.385 353.680745 
L 194.559298 351.411857 
L 194.733564 350.894597 
L 194.907795 351.388345 
L 195.081993 351.25903 
L 195.256157 350.236267 
L 195.604386 356.431625 
L 195.95248 353.845328 
L 196.126477 354.491902 
L 196.30044 354.597705 
L 196.47437 354.950382 
L 196.648266 353.210509 
L 196.822129 354.715264 
L 196.995958 354.174493 
L 197.169754 355.879098 
L 197.343517 354.832823 
L 197.690942 349.848323 
L 197.864604 350.483141 
L 198.038233 352.69325 
L 198.211828 352.822565 
L 198.385391 352.399352 
L 198.558919 352.63447 
L 198.732415 354.056934 
L 199.079305 351.823313 
L 199.252701 349.68374 
L 199.599392 352.822565 
L 199.945949 351.611707 
L 200.119178 352.17599 
L 200.292374 352.058431 
L 200.465536 352.387596 
L 200.638665 351.505904 
L 200.811761 353.774792 
L 200.984823 354.386099 
L 201.157853 353.81006 
L 201.503812 349.648472 
L 201.676742 350.389094 
L 201.849638 350.565432 
L 202.022502 352.775541 
L 202.195332 352.822565 
L 202.368129 355.479397 
L 202.540893 353.422115 
L 202.713624 353.198753 
L 202.886321 350.106952 
L 203.058986 349.577937 
L 203.231617 348.625709 
L 203.576781 350.34207 
L 203.749313 350.741771 
L 203.921812 352.164234 
L 204.094278 352.223014 
L 204.266711 352.904856 
L 204.611478 350.530165 
L 204.956112 353.316312 
L 205.12838 355.12672 
L 205.300615 352.728517 
L 205.644986 351.282542 
L 205.817122 353.998154 
L 205.989225 352.164234 
L 206.161295 352.281793 
L 206.333332 350.612456 
L 206.505336 353.034171 
L 206.677307 352.881344 
L 207.021151 349.237016 
L 207.193023 349.754275 
L 207.364863 352.752029 
L 207.708443 354.550681 
L 208.051892 352.152478 
L 208.39521 346.99164 
L 208.56682 349.754275 
L 208.738397 350.106952 
L 208.909941 351.176739 
L 209.081452 349.695496 
L 209.252931 350.212755 
L 209.595789 353.081194 
L 209.76717 352.575691 
L 209.938517 353.480895 
L 210.109832 353.034171 
L 210.281114 351.623463 
L 210.452363 351.658731 
L 210.62358 350.318558 
L 210.794764 352.140722 
L 210.965915 351.764534 
L 211.137034 354.868091 
L 211.30812 353.81006 
L 211.479173 354.06869 
L 211.650193 353.069438 
L 211.821181 353.081194 
L 211.992137 354.491902 
L 212.163059 352.293549 
L 212.504807 354.456634 
L 212.675632 353.563186 
L 212.846424 353.892351 
L 213.017184 351.364833 
L 213.187911 354.903358 
L 213.358606 353.974642 
L 213.529268 354.444878 
L 214.041059 353.304556 
L 214.211591 350.306803 
L 214.552557 351.882093 
L 214.722992 352.716761 
L 214.893394 354.303808 
L 215.063763 351.788046 
L 215.2341 352.328817 
L 215.404405 351.858581 
L 215.574677 352.305305 
L 215.744917 352.211258 
L 215.915125 352.669738 
L 216.0853 352.034919 
L 216.255442 351.858581 
L 216.425552 351.306054 
L 216.59563 352.799053 
L 216.765676 353.09295 
L 216.935689 354.198004 
L 217.10567 351.811557 
L 217.275618 352.046675 
L 217.445534 354.245028 
L 217.615418 352.17599 
L 217.785269 351.846825 
L 217.955088 349.695496 
L 218.124875 349.060677 
L 218.464352 351.364833 
L 218.634042 352.493399 
L 218.8037 352.775541 
L 218.973325 351.282542 
L 219.142919 351.353077 
L 219.31248 351.611707 
L 219.482009 352.763785 
L 219.651505 351.799801 
L 219.82097 353.175241 
L 219.990402 352.481644 
L 220.159802 354.691752 
L 220.32917 353.222265 
L 220.498505 352.940123 
L 220.667809 351.693998 
L 220.83708 353.892351 
L 221.175526 354.762288 
L 221.513844 351.364833 
L 221.682955 350.976889 
L 221.852034 352.17599 
L 222.02108 352.011408 
L 222.190095 349.566181 
L 222.359077 350.177488 
L 222.528028 349.366331 
L 222.696946 351.153227 
L 222.865832 351.376589 
L 223.203509 351.223763 
L 223.372299 352.399352 
L 223.541057 354.433122 
L 223.878478 350.929865 
L 224.04714 351.541172 
L 224.384369 353.163486 
L 224.552935 352.034919 
L 224.72147 351.682243 
L 224.889972 349.624961 
L 225.058443 351.05918 
L 225.226881 350.80055 
L 225.395288 350.14222 
L 225.563663 350.588944 
L 225.732006 349.719008 
L 226.068597 353.422115 
L 226.236844 353.15173 
L 226.40506 353.304556 
L 227.077604 349.178236 
L 227.581678 353.2928 
L 227.749639 353.633721 
L 227.917568 355.326571 
L 228.085466 352.775541 
L 228.253332 354.962138 
L 228.421166 355.103209 
L 228.588968 355.091453 
L 228.756739 353.833572 
L 228.924478 353.880595 
L 229.427504 350.694747 
L 229.762697 353.316312 
L 229.930246 350.377338 
L 230.097763 349.813055 
L 230.265249 351.658731 
L 230.432702 351.752778 
L 230.600125 352.17599 
L 230.934875 349.707252 
L 231.102202 352.246526 
L 231.269498 349.989393 
L 231.436762 351.270786 
L 231.603995 350.012905 
L 232.27261 353.951131 
L 232.439685 354.139225 
L 232.606729 353.680745 
L 232.773741 355.138476 
L 232.940722 354.515414 
L 233.274588 355.479397 
L 233.608329 352.140722 
L 233.775152 352.705006 
L 233.941944 353.915863 
L 234.108704 352.481644 
L 234.275433 353.774792 
L 234.44213 353.798304 
L 234.608796 353.198753 
L 234.942034 350.295047 
L 235.108606 351.705754 
L 235.275146 351.752778 
L 235.441656 353.586698 
L 235.608133 349.88359 
L 235.77458 349.648472 
L 235.940995 350.212755 
L 236.273731 353.539674 
L 236.440052 353.621966 
L 236.606342 352.293549 
L 236.7726 353.210509 
L 236.938828 352.070187 
L 237.105023 352.023164 
L 237.271188 351.670487 
L 237.437322 352.093699 
L 237.603424 354.868091 
L 237.769495 354.644729 
L 237.935534 355.808562 
L 238.26752 350.894597 
L 238.433466 350.918109 
L 238.599381 352.140722 
L 238.765265 352.293549 
L 238.931117 349.719008 
L 239.096938 349.989393 
L 239.262729 349.178236 
L 239.428488 353.798304 
L 239.594216 352.69325 
L 239.759912 354.350831 
L 239.925578 354.06869 
L 240.256816 351.682243 
L 240.422388 354.362587 
L 240.753439 355.326571 
L 240.918918 355.032673 
L 241.249783 352.422864 
L 241.415169 351.435369 
L 241.91114 354.480146 
L 242.241633 350.177488 
L 242.406832 350.847574 
L 242.572001 352.340573 
L 242.737139 352.034919 
L 243.232367 354.703508 
L 243.397381 354.397855 
L 243.892237 350.565432 
L 244.057127 351.082692 
L 244.221986 352.740273 
L 244.386815 352.810809 
L 244.551613 352.223014 
L 244.716379 352.63447 
L 244.881115 351.752778 
L 245.04582 354.115713 
L 245.210494 352.940123 
L 245.375138 354.821067 
L 245.53975 350.777038 
L 246.033403 353.880595 
L 246.197892 352.223014 
L 246.36235 353.116462 
L 246.526778 352.669738 
L 246.691175 352.810809 
L 246.855541 352.516911 
L 247.019876 353.774792 
L 247.184181 352.987147 
L 247.512698 354.021666 
L 247.676911 353.927619 
L 247.841092 354.715264 
L 248.005243 353.939375 
L 248.333453 351.752778 
L 248.497513 352.117211 
L 248.661541 352.83432 
L 248.825539 355.832074 
L 248.989506 354.879847 
L 249.153442 356.255286 
L 249.317348 353.786548 
L 249.481223 354.103957 
L 249.972665 350.353826 
L 250.136417 352.505155 
L 250.300139 352.117211 
L 250.463831 353.704257 
L 250.791123 352.058431 
L 251.118292 353.09295 
L 251.281831 353.116462 
L 251.608817 351.447125 
L 251.772264 353.480895 
L 251.935681 352.23477 
L 252.099067 354.397855 
L 252.262423 353.386848 
L 252.589043 356.278798 
L 252.752308 354.715264 
L 252.915542 354.515414 
L 253.078745 351.940872 
L 253.405061 354.92687 
L 253.731256 352.17599 
L 253.894307 351.905605 
L 254.057328 351.882093 
L 254.220319 351.129715 
L 254.383279 352.340573 
L 254.871979 349.730764 
L 255.197626 351.97614 
L 255.360405 351.741022 
L 255.523153 352.105455 
L 255.685871 351.882093 
L 255.848558 352.199502 
L 256.173842 350.588944 
L 256.336439 350.647724 
L 256.499005 348.82556 
L 256.661541 349.22526 
L 256.824047 349.154725 
L 256.986523 349.331063 
L 257.148968 348.907851 
L 257.473769 352.140722 
L 257.960743 349.601449 
L 258.285241 350.812306 
L 258.447445 352.034919 
L 258.771763 352.270037 
L 258.933876 353.680745 
L 259.095959 352.846076 
L 259.420036 349.566181 
L 259.582029 350.024661 
L 259.905925 351.929116 
L 260.067828 350.953377 
L 260.229701 351.576439 
L 260.391544 350.153976 
L 260.553356 350.165732 
L 260.715139 352.17599 
L 260.876892 350.777038 
L 261.038614 350.518409 
L 261.200307 348.178985 
L 261.523602 350.741771 
L 261.846777 347.685238 
L 262.00832 347.814552 
L 262.331315 350.483141 
L 262.492768 351.835069 
L 262.654191 351.799801 
L 262.815584 353.363336 
L 263.13828 350.753527 
L 263.299583 350.024661 
L 263.460856 351.447125 
L 263.6221 350.918109 
L 263.783313 351.153227 
L 263.944497 349.648472 
L 264.105651 352.458132 
L 264.266775 351.035668 
L 264.427869 351.682243 
L 264.588933 353.022415 
L 264.749967 352.070187 
L 264.910972 350.436117 
L 265.232892 354.879847 
L 265.393807 355.996657 
L 265.876373 353.022415 
L 266.03717 352.493399 
L 266.197936 352.775541 
L 266.358672 352.37584 
L 266.519379 350.706503 
L 266.680056 350.777038 
L 266.840704 350.377338 
L 267.322467 351.117959 
L 267.482996 350.706503 
L 267.803964 348.320056 
L 267.964404 350.518409 
L 268.124813 350.765283 
L 268.285194 352.8931 
L 268.445544 353.034171 
L 268.605865 354.656484 
L 268.926418 349.354575 
L 269.08665 349.495646 
L 269.567169 353.821816 
L 269.727283 353.186997 
L 269.887367 353.222265 
L 270.047422 352.17599 
L 270.207447 353.316312 
L 270.367442 353.422115 
L 270.527408 353.163486 
L 270.687345 353.939375 
L 271.007129 351.400101 
L 271.166977 350.565432 
L 271.486584 352.599202 
L 271.646344 355.738027 
L 271.806074 355.620468 
L 271.965774 355.973145 
L 272.285087 355.620468 
L 272.923359 349.566181 
L 273.401755 355.173744 
L 273.561161 351.200251 
L 273.720538 352.117211 
L 273.879886 352.246526 
L 274.039204 352.775541 
L 274.198493 351.447125 
L 274.357753 351.97614 
L 274.516983 353.245777 
L 274.676184 352.599202 
L 274.835356 353.845328 
L 275.312695 350.682991 
L 275.630774 355.150232 
L 275.78977 354.632973 
L 275.948737 355.220768 
L 276.107674 354.433122 
L 276.266583 355.326571 
L 276.425462 352.481644 
L 276.743132 355.161988 
L 276.901923 354.691752 
L 277.060685 356.831325 
L 277.219418 355.526421 
L 277.378122 355.526421 
L 277.536796 354.98565 
L 277.695442 355.197256 
L 277.854058 354.315563 
L 278.012645 352.610958 
L 278.329732 352.83432 
L 278.488231 352.305305 
L 278.646702 351.353077 
L 278.805143 349.648472 
L 279.121939 352.270037 
L 279.438618 354.879847 
L 279.596914 353.75128 
L 279.755181 354.315563 
L 279.913419 352.293549 
L 280.229807 355.338326 
L 280.387958 356.431625 
L 280.546079 355.373594 
L 280.704172 356.220019 
L 280.862236 353.939375 
L 281.02027 356.76079 
L 281.178276 356.490404 
L 281.336253 357.513167 
L 281.652119 354.327319 
L 281.96787 355.667492 
L 282.283505 353.445627 
L 282.599024 356.56094 
L 282.75674 356.490404 
L 283.072086 350.706503 
L 283.387316 354.350831 
L 283.544887 353.457383 
L 283.70243 353.704257 
L 283.859944 352.869588 
L 284.017429 355.785051 
L 284.174886 354.433122 
L 284.332313 355.502909 
L 284.489712 354.150981 
L 284.647082 354.515414 
L 284.961735 352.869588 
L 285.119018 351.282542 
L 285.276273 352.011408 
L 285.590696 358.629978 
L 285.747864 357.089955 
L 285.905004 356.937128 
L 286.062115 356.419869 
L 286.219197 358.018671 
L 286.37625 357.031176 
L 286.533275 358.359592 
L 286.847238 354.00991 
L 287.004176 354.774043 
L 287.161086 356.654987 
L 287.317967 356.607963 
L 287.631644 352.17599 
L 287.788439 353.539674 
L 287.945205 353.763036 
L 288.101943 356.972396 
L 288.258652 356.443381 
L 288.571985 352.081943 
L 288.728608 353.186997 
L 289.041769 356.913617 
L 289.198307 355.679248 
L 289.511296 356.020169 
L 289.667748 353.657233 
L 289.824171 354.538925 
L 289.980566 353.633721 
L 290.293269 355.538177 
L 290.449579 353.951131 
L 290.605859 354.656484 
L 290.762111 354.703508 
L 290.918335 353.410359 
L 291.230696 355.526421 
L 291.699025 353.798304 
L 291.855078 354.045178 
L 292.011102 354.656484 
L 292.167098 354.515414 
L 292.323065 355.514665 
L 292.479004 352.293549 
L 292.634915 354.386099 
L 292.790797 354.809311 
L 292.946651 356.56094 
L 293.102476 356.725522 
L 293.414042 353.410359 
L 293.569782 353.880595 
L 293.725494 354.856335 
L 293.881177 356.749034 
L 294.192459 357.489656 
L 294.348057 357.231026 
L 294.659169 353.128218 
L 294.814683 353.363336 
L 294.970168 354.632973 
L 295.125625 357.336829 
L 295.281054 357.548435 
L 295.436454 356.184751 
L 295.74717 355.314815 
L 296.057773 356.290554 
L 296.368262 352.528667 
L 296.678639 354.762288 
L 296.833786 353.868839 
L 296.988904 354.292052 
L 297.143993 355.256035 
L 297.299055 357.654238 
L 297.454088 358.100962 
L 297.609094 358.030427 
L 297.764071 357.031176 
L 297.91902 354.491902 
L 298.07394 355.785051 
L 298.228833 355.608712 
L 298.383697 357.336829 
L 298.693342 355.761539 
L 298.848122 355.12672 
L 299.002874 356.267042 
L 299.157598 355.855586 
L 299.312294 357.148735 
L 299.466962 356.76079 
L 299.621602 355.937877 
L 299.776213 355.796806 
L 299.930797 355.961389 
L 300.085352 355.738027 
L 300.23988 354.92687 
L 300.394379 356.995908 
L 300.703294 354.515414 
L 300.85771 354.98565 
L 301.012097 354.938626 
L 301.166456 357.583703 
L 301.320788 356.690255 
L 301.475091 356.854837 
L 301.629367 356.078948 
L 301.783614 357.031176 
L 301.937834 356.866593 
L 302.092025 356.890105 
L 302.246189 354.903358 
L 302.400325 357.066443 
L 302.554433 357.466144 
L 302.708513 355.232523 
L 302.862564 356.443381 
L 303.016589 354.162737 
L 303.170585 357.089955 
L 303.478493 354.621217 
L 303.786291 356.690255 
L 303.940147 358.970899 
L 304.247777 358.147986 
L 304.555296 358.806316 
L 304.862704 357.148735 
L 305.016366 358.383104 
L 305.17 357.995159 
L 305.323606 358.030427 
L 305.477185 356.267042 
L 305.630736 356.04368 
L 305.784259 355.020917 
L 306.091222 355.573444 
L 306.244661 357.042932 
L 306.398074 356.76079 
L 306.551458 357.665994 
L 306.704815 355.032673 
L 307.011445 357.407364 
L 307.164718 358.053939 
L 307.317964 356.784302 
L 307.624373 357.771797 
L 307.930671 359.899615 
L 308.083778 359.852591 
L 308.38991 356.713766 
L 308.542935 356.125972 
L 308.695931 356.878349 
L 308.848901 357.054687 
L 309.001842 355.879098 
L 309.154757 356.031924 
L 309.307643 355.855586 
L 309.460502 356.607963 
L 309.613333 356.055436 
L 309.918913 359.05319 
L 310.071662 360.416874 
L 310.682381 357.642482 
L 310.987575 359.782056 
L 311.29266 358.065695 
L 311.597634 357.901112 
L 311.902499 357.054687 
L 312.05489 357.983403 
L 312.359589 360.957645 
L 312.511898 359.735032 
L 312.816433 356.172995 
L 312.96866 357.113467 
L 313.120859 356.478648 
L 313.27303 359.864347 
L 313.425175 360.593212 
L 313.729381 359.97015 
L 313.881443 362.779809 
L 314.033478 361.486661 
L 314.185485 362.391865 
L 314.489418 358.065695 
L 314.641343 356.737278 
L 314.793241 356.513916 
L 315.096955 359.934882 
L 315.248771 360.028929 
L 315.40056 357.524923 
L 315.552322 358.641734 
L 315.704056 357.701262 
L 315.855763 359.570449 
L 316.159095 358.124474 
L 316.31072 356.290554 
L 316.462318 357.148735 
L 316.613888 359.7703 
L 316.765432 359.158993 
L 316.916948 359.288308 
L 317.068437 356.890105 
L 317.371333 361.063448 
L 317.522741 361.380858 
L 317.674121 361.08696 
L 318.128098 357.889356 
L 318.581831 360.040685 
L 318.733021 361.568952 
L 318.884184 361.251543 
L 319.03532 363.261801 
L 319.186429 362.192014 
L 319.33751 362.050944 
L 319.488565 361.568952 
L 319.639592 361.639487 
L 319.790592 361.956897 
L 319.941566 363.567454 
L 320.092512 363.779061 
L 320.545188 358.383104 
L 320.846837 360.910622 
L 320.997621 361.851093 
L 321.148377 360.722527 
L 321.299107 360.804819 
L 321.44981 360.675504 
L 321.600486 362.615227 
L 321.751135 363.097219 
L 321.901757 362.944392 
L 322.052352 361.780558 
L 322.202919 363.285313 
L 322.503974 361.28681 
L 322.955355 357.360341 
L 323.25614 359.111969 
L 323.406493 361.921629 
L 323.556818 361.686511 
L 324.157851 358.289057 
L 324.308042 360.863598 
L 324.608344 359.064946 
L 324.758454 358.782804 
L 325.058595 363.014927 
L 325.208625 362.732786 
L 325.358628 361.510172 
L 325.508605 361.686511 
L 325.658554 359.699764 
L 325.808477 362.568203 
L 325.958373 361.098716 
L 326.108242 363.532187 
L 326.258085 362.92088 
L 326.4079 363.003171 
L 326.557689 362.591715 
L 326.707451 361.169251 
L 326.857187 361.498417 
L 327.156577 362.803321 
L 327.306233 362.274306 
L 327.455861 361.251543 
L 327.605463 361.404369 
L 327.755038 360.722527 
L 327.904586 361.886361 
L 328.054108 363.943643 
L 328.203603 362.039188 
L 328.353072 362.227282 
L 328.502513 362.00392 
L 328.801317 359.887859 
L 328.950678 360.851842 
L 329.100013 364.072958 
L 329.249322 364.09647 
L 329.547859 360.816574 
L 329.697087 360.898866 
L 329.995465 363.320581 
L 330.591901 357.8776 
L 330.740943 357.948136 
L 331.038948 362.991415 
L 331.187911 361.921629 
L 331.336848 364.507926 
L 331.485757 363.085463 
L 331.634641 364.131737 
L 331.932328 362.050944 
L 332.081132 361.721779 
L 332.229909 363.89662 
L 332.37866 361.827582 
L 332.676082 362.709274 
L 332.824753 364.308076 
L 333.122017 359.981906 
L 333.270609 360.275803 
L 333.419174 359.31182 
L 333.567713 362.897368 
L 333.716226 363.391116 
L 333.864713 366.000925 
L 334.458394 362.309573 
L 334.606748 363.461651 
L 334.755076 362.074455 
L 334.903378 361.792314 
L 335.051653 363.567454 
L 335.199902 363.767305 
L 335.348125 364.460903 
L 335.496321 366.647499 
L 335.644491 365.718784 
L 335.792635 367.094224 
L 335.940752 364.449147 
L 336.088843 365.354351 
L 336.236908 362.180259 
L 336.532958 363.57921 
L 336.680944 364.766556 
L 336.976837 363.849596 
L 337.124744 364.672509 
L 337.272625 366.200775 
L 337.568308 364.014178 
L 337.71611 363.673257 
L 337.863886 360.640236 
L 338.011636 361.08696 
L 338.159359 361.075204 
L 338.307056 365.260304 
L 338.454727 364.95465 
L 338.602372 366.894373 
L 338.749991 365.730539 
L 338.897583 363.602722 
L 339.04515 363.108974 
L 339.19269 363.414628 
L 339.340204 362.674006 
L 339.487692 362.697518 
L 339.635154 362.544691 
L 339.782589 362.909124 
L 340.224739 365.989169 
L 340.37207 365.354351 
L 340.519375 365.777563 
L 340.813907 367.576215 
L 340.961134 364.049446 
L 341.255509 362.579959 
L 341.54978 364.343344 
L 341.696877 364.7548 
L 341.843947 364.507926 
L 341.990992 364.813579 
L 342.13801 364.167005 
L 342.285003 366.247799 
L 342.431969 365.436642 
L 342.57891 366.953153 
L 342.725824 366.84735 
L 343.166411 362.779809 
L 343.460006 365.389618 
L 343.606765 364.884115 
L 343.753497 366.776814 
L 343.900204 365.366107 
L 344.046885 366.412381 
L 344.486772 364.249296 
L 344.633349 364.484414 
L 344.926425 367.011932 
L 345.072925 366.447649 
L 345.365846 364.155249 
L 345.658664 366.518185 
L 345.951378 364.378611 
L 346.097696 364.29632 
L 346.243989 364.3551 
L 346.390256 364.167005 
L 346.536497 364.49617 
L 346.682712 366.659255 
L 346.828901 365.942146 
L 346.975065 366.706279 
L 347.121203 365.942146 
L 347.267315 367.388121 
L 347.413401 367.693774 
L 347.559461 366.471161 
L 347.705496 366.365358 
L 347.851505 364.672509 
L 348.143445 368.963411 
L 348.289377 368.081719 
L 348.581163 364.543194 
L 348.727018 365.01343 
L 348.872847 365.025186 
L 349.01865 364.707776 
L 349.164427 362.885612 
L 349.455905 365.989169 
L 349.601606 366.917885 
L 349.74728 365.859854 
L 350.038553 368.305081 
L 350.184151 369.233797 
L 350.329723 366.882617 
L 350.475269 367.76431 
L 350.62079 367.129491 
L 350.911755 370.033198 
L 351.493378 364.813579 
L 351.638719 366.153752 
L 351.784035 366.283067 
L 351.929326 366.694523 
L 352.074591 367.517436 
L 352.21983 369.175017 
L 352.365044 368.410884 
L 352.510233 368.82234 
L 352.655396 368.36386 
L 352.800533 368.516687 
L 353.090731 364.590217 
L 353.235792 364.378611 
L 353.380827 365.507177 
L 353.525837 365.389618 
L 353.670821 364.237541 
L 353.81578 364.343344 
L 354.105621 366.153752 
L 354.250504 366.447649 
L 354.395361 367.881869 
L 354.540192 370.573969 
L 354.684998 368.728293 
L 355.263969 367.4469 
L 355.408648 367.082468 
L 355.553301 366.047949 
L 355.697929 366.447649 
L 355.842532 365.977413 
L 355.98711 367.105979 
L 356.131662 367.282318 
L 356.276189 366.318334 
L 356.42069 366.812082 
L 356.565166 366.236043 
L 356.709617 366.753302 
L 356.854042 367.787821 
L 356.998442 366.894373 
L 357.142817 367.623239 
L 357.287166 366.236043 
L 357.43149 366.976665 
L 357.575789 365.483666 
L 357.720063 365.918634 
L 357.864311 365.319083 
L 358.008534 365.295571 
L 358.296904 366.576964 
L 358.441051 368.82234 
L 358.873341 366.200775 
L 359.017387 366.812082 
L 359.305403 370.021442 
L 359.449374 368.986923 
L 359.593319 366.447649 
L 359.737239 366.741547 
L 359.881134 366.400626 
L 360.025003 368.563711 
L 360.168848 368.551955 
L 360.312667 369.433647 
L 360.456461 366.823838 
L 360.60023 366.576964 
L 360.743974 363.826084 
L 361.175054 367.270562 
L 361.318698 367.011932 
L 361.749477 370.585725 
L 362.036537 366.976665 
L 362.18003 363.873108 
L 362.323497 366.694523 
L 362.466939 366.494673 
L 362.610357 364.989918 
L 362.753749 365.41313 
L 363.327068 364.413879 
L 363.613577 370.009686 
L 363.756794 369.645253 
L 364.043153 367.611483 
L 364.329412 371.032449 
L 364.472504 370.903134 
L 365.044622 364.061202 
L 365.187589 364.49617 
L 365.473449 369.633497 
L 365.616341 369.609985 
L 365.902051 366.000925 
L 366.044868 365.624736 
L 366.330429 367.611483 
L 366.473172 367.646751 
L 366.61589 367.564459 
L 366.758583 367.258806 
L 366.901251 367.235294 
L 367.043894 365.683516 
L 367.186513 366.294823 
L 367.329107 365.389618 
L 367.471675 366.823838 
L 367.614219 365.836343 
L 367.756738 364.025934 
L 368.041702 367.058956 
L 368.184147 367.082468 
L 368.326567 367.564459 
L 368.468962 366.400626 
L 368.611332 367.834845 
L 368.753677 367.987672 
L 368.895998 367.670262 
L 369.180565 364.308076 
L 369.322811 363.461651 
L 369.465033 364.801824 
L 369.749402 369.316088 
L 369.891549 369.163261 
L 370.033672 366.812082 
L 370.459891 371.961165 
L 370.743914 365.660004 
L 370.885888 366.471161 
L 371.027838 368.493175 
L 371.453539 365.189768 
L 371.737216 367.364609 
L 372.020795 366.906129 
L 372.162547 367.188271 
L 372.304275 366.706279 
L 372.445978 368.963411 
L 372.87094 366.565208 
L 373.154125 368.998679 
L 373.29568 367.470412 
L 373.437211 370.021442 
L 373.578718 367.482168 
L 373.7202 368.693026 
L 373.861657 368.916388 
L 374.003089 369.492426 
L 374.144498 367.682018 
L 374.285881 367.846601 
L 374.42724 368.328593 
L 374.568575 369.3396 
L 374.709885 368.516687 
L 374.85117 369.727544 
L 374.992431 368.751805 
L 375.133668 368.646002 
L 375.27488 368.234546 
L 375.55723 366.682767 
L 375.839483 367.823089 
L 375.980573 366.600476 
L 376.121638 367.611483 
L 376.262679 367.811333 
L 376.403695 368.68127 
L 376.544687 366.424137 
L 376.685654 366.318334 
L 376.967516 363.508675 
L 377.10841 365.036942 
L 377.24928 364.284564 
L 377.390125 365.47191 
L 377.530946 364.825335 
L 377.671742 366.33009 
L 377.812515 366.271311 
L 377.953262 365.942146 
L 378.093986 365.225036 
L 378.234685 365.989169 
L 378.37536 368.340349 
L 378.51601 368.399128 
L 378.797238 366.236043 
L 378.937815 368.22279 
L 379.218897 367.000176 
L 379.359401 367.058956 
L 379.499881 369.363112 
L 379.921176 364.978162 
L 380.061559 367.776066 
L 380.201917 366.776814 
L 380.342252 367.576215 
L 380.482562 367.693774 
L 380.763109 369.433647 
L 380.903347 368.434396 
L 381.04356 370.526945 
L 381.183749 370.703284 
L 381.323914 369.480671 
L 381.464054 366.576964 
L 381.60417 367.634995 
L 381.744262 366.753302 
L 381.88433 368.845852 
L 382.024374 368.763561 
L 382.44436 364.55495 
L 382.584307 364.449147 
L 382.72423 364.484414 
L 382.864128 364.7548 
L 383.143853 366.177264 
L 383.283679 367.717286 
L 383.423481 367.517436 
L 383.563259 367.870113 
L 383.703013 366.894373 
L 383.982449 366.953153 
L 384.12213 368.293325 
L 384.261788 368.457908 
L 384.401421 368.998679 
L 384.54103 371.044205 
L 384.680615 370.327095 
L 384.959714 368.175766 
L 385.238716 370.033198 
L 385.378181 369.79808 
L 385.517621 367.129491 
L 385.657038 367.129491 
L 385.796431 367.740798 
L 385.9358 369.927395 
L 386.075145 369.257309 
L 386.214466 369.398379 
L 386.353762 368.457908 
L 386.493035 369.99793 
L 386.632284 370.021442 
L 386.771509 369.069214 
L 386.91071 369.245553 
L 387.049887 370.491678 
L 387.18904 370.491678 
L 387.467274 367.881869 
L 387.606355 366.800326 
L 387.745412 367.552703 
L 387.884445 364.519682 
L 388.16244 366.435893 
L 388.301401 366.506429 
L 388.440339 366.706279 
L 388.579252 368.269813 
L 388.718142 371.443905 
L 388.857008 370.221292 
L 389.134668 364.590217 
L 389.550979 368.105231 
L 389.828401 365.354351 
L 389.967076 367.329341 
L 390.105727 366.812082 
L 390.382958 368.634246 
L 390.521538 367.552703 
L 390.660094 368.022939 
L 390.798626 367.811333 
L 390.937134 369.950906 
L 391.075619 369.468915 
L 391.214079 370.19778 
L 391.352516 368.481419 
L 391.490929 368.975167 
L 391.629319 368.916388 
L 391.906026 367.011932 
L 392.044345 366.84735 
L 392.182639 365.330839 
L 392.32091 368.716537 
L 392.459157 369.127994 
L 392.59738 367.587971 
L 392.735579 367.834845 
L 393.011907 371.102984 
L 393.150036 370.597481 
L 393.28814 369.351356 
L 393.426222 370.115489 
L 393.564279 368.998679 
L 393.702313 370.091977 
L 393.978309 369.468915 
L 394.116272 366.753302 
L 394.254211 366.236043 
L 394.392126 366.271311 
L 394.530018 366.600476 
L 394.80573 369.974418 
L 394.943551 370.315339 
L 395.081349 370.080221 
L 395.219122 369.53945 
L 395.356872 369.715789 
L 395.494599 368.798829 
L 395.632302 370.797331 
L 395.769981 370.632749 
L 396.045269 367.176515 
L 396.182878 365.142745 
L 396.458024 367.646751 
L 396.595562 367.658507 
L 396.733076 369.892127 
L 396.870567 370.186024 
L 397.008035 369.374868 
L 397.282899 365.41313 
L 397.420296 366.635744 
L 397.557669 364.872359 
L 397.832345 369.163261 
L 397.969648 372.419645 
L 398.381415 368.293325 
L 398.65581 366.635744 
L 398.93011 366.177264 
L 399.204317 370.186024 
L 399.341386 370.150757 
L 399.478431 369.7393 
L 399.615452 366.482917 
L 399.75245 368.728293 
L 399.889425 368.904632 
L 400.026376 369.79808 
L 400.163304 369.892127 
L 400.300208 369.257309 
L 400.573947 365.883366 
L 400.847593 368.42264 
L 400.98438 368.246301 
L 401.257885 366.753302 
L 401.394603 366.424137 
L 401.667968 368.892876 
L 401.804616 368.939899 
L 401.94124 368.481419 
L 402.077841 366.870861 
L 402.214419 366.98842 
L 402.350974 367.329341 
L 402.487505 367.070712 
L 402.624013 366.247799 
L 402.760497 366.200775 
L 402.896959 364.919383 
L 403.033397 365.636492 
L 403.169811 364.919383 
L 403.306203 365.330839 
L 403.442571 362.603471 
L 403.578916 362.838589 
L 403.715238 362.133235 
L 403.851537 363.308825 
L 403.987812 363.050195 
L 404.124064 364.025934 
L 404.396499 361.216275 
L 404.532682 359.852591 
L 404.94109 363.097219 
L 405.07718 362.626983 
L 405.213247 361.357346 
L 405.34929 357.795309 
L 405.485311 357.278049 
L 405.621308 355.667492 
L 405.893233 356.854837 
L 406.02916 356.243531 
L 406.300947 353.857083 
L 406.436805 353.516162 
L 406.57264 351.51766 
L 406.708453 351.411857 
L 406.844242 348.131962 
L 406.980008 348.073182 
L 407.115751 346.403845 
L 407.25147 348.355324 
L 407.522841 345.651467 
L 407.794119 341.4311 
L 408.200863 329.804518 
L 409.284502 302.483813 
L 409.419853 296.829227 
L 409.555182 296.323723 
L 409.690487 294.807213 
L 409.82577 291.797703 
L 409.961029 291.315711 
L 410.096266 291.997553 
L 410.231479 293.478796 
L 410.36667 292.032821 
L 410.907203 305.740197 
L 411.177332 318.177936 
L 411.312362 322.468838 
L 411.447369 322.445327 
L 411.582353 323.46809 
L 411.852254 327.970598 
L 411.987169 327.688457 
L 412.256932 321.457831 
L 412.526603 313.487333 
L 412.930939 295.688905 
L 413.200382 286.237164 
L 413.335069 287.201147 
L 413.604376 294.560339 
L 414.008164 312.441058 
L 414.142714 311.159665 
L 414.277242 311.653413 
L 414.815125 302.166404 
L 415.218299 293.996056 
L 415.352644 296.840983 
L 415.621267 293.655135 
L 416.024032 298.392761 
L 416.292428 291.95053 
L 416.828948 263.371944 
L 417.2311 252.474228 
L 417.365106 252.627054 
L 417.499089 254.120053 
L 417.633049 252.391936 
L 418.034794 257.129563 
L 418.168663 257.964231 
L 418.30251 261.208859 
L 418.436335 261.385198 
L 418.570137 259.574789 
L 419.105118 242.716833 
L 420.040468 193.083436 
L 420.307508 194.200246 
L 420.440994 195.587442 
L 420.574458 199.69025 
L 421.241439 238.896167 
L 421.508074 230.23207 
L 422.041074 185.453859 
L 422.174268 188.322298 
L 422.972961 235.945436 
L 423.239013 222.966926 
L 423.637923 198.97314 
L 424.036632 193.671231 
L 424.16949 190.861571 
L 424.56793 168.642926 
L 424.700699 165.045621 
L 424.966169 188.968872 
L 425.496843 251.9217 
L 425.762046 262.631323 
L 425.894614 258.046523 
L 426.424663 206.802568 
L 426.954356 187.82855 
L 427.086724 189.380328 
L 427.351393 195.681489 
L 427.615973 192.41335 
L 428.012676 165.62166 
L 428.144867 165.727463 
L 428.277034 171.217467 
L 428.673405 202.429374 
L 429.069577 213.526941 
L 429.201589 212.339595 
L 429.33358 207.601969 
L 429.597495 177.036636 
L 429.993202 120.373213 
L 429.993202 120.373213 
" clip-path="url(#paacce329cd)" style="fill: none; stroke: #5088c5; stroke-linecap: round"/>
   </g>
   <g id="line2d_16">
    <path d="M 104.161698 371.044205 
L 104.353814 369.562962 
L 104.545891 368.975167 
L 104.737929 368.963411 
L 104.929929 370.785575 
L 105.12189 369.245553 
L 105.313811 369.574718 
L 105.505695 367.670262 
L 105.697539 367.599727 
L 105.889344 366.283067 
L 106.272839 369.950906 
L 106.464528 370.785575 
L 106.656179 370.280072 
L 106.847791 370.703284 
L 107.039364 369.116238 
L 107.230898 369.574718 
L 107.422394 368.434396 
L 107.613851 368.258057 
L 107.996649 372.372621 
L 108.18799 372.313842 
L 108.379293 370.491678 
L 108.570557 370.291827 
L 108.761782 368.187522 
L 108.952969 370.009686 
L 109.144117 370.091977 
L 109.335226 368.457908 
L 109.526297 368.446152 
L 109.71733 367.928892 
L 109.908324 367.858357 
L 110.290196 365.142745 
L 110.481074 367.258806 
L 110.671914 367.811333 
L 110.862715 369.351356 
L 111.053478 365.977413 
L 111.244203 367.258806 
L 111.434889 366.682767 
L 111.816146 370.632749 
L 112.006717 370.679772 
L 112.197249 371.208787 
L 112.578199 369.292576 
L 112.768616 370.068465 
L 112.958995 370.150757 
L 113.149336 368.751805 
L 113.339638 368.916388 
L 113.529902 368.82234 
L 113.720128 369.492426 
L 113.910315 371.561464 
L 114.100464 372.066968 
L 114.290575 371.349858 
L 114.480648 368.775317 
L 114.670682 369.222041 
L 115.050636 367.611483 
L 115.240556 368.657758 
L 115.620281 367.458656 
L 115.999853 371.385126 
L 116.189582 373.877376 
L 116.568925 370.186024 
L 116.75854 369.680521 
L 116.948116 369.856859 
L 117.327155 372.019944 
L 117.895427 368.011183 
L 118.463357 372.419645 
L 118.652591 369.163261 
L 118.841787 370.809087 
L 119.030945 371.338102 
L 119.220065 371.138252 
L 119.598191 368.869364 
L 119.787197 370.538701 
L 120.165096 368.493175 
L 120.353988 368.211034 
L 120.542843 368.998679 
L 120.731659 371.526197 
L 120.920438 371.079473 
L 121.109179 372.643007 
L 121.486548 370.091977 
L 121.675175 370.891378 
L 121.863765 370.362363 
L 122.052317 370.421142 
L 122.240831 368.904632 
L 122.617746 369.950906 
L 122.806147 371.43215 
L 122.99451 370.338851 
L 123.182835 372.113992 
L 124.123897 365.295571 
L 124.500057 367.317586 
L 124.876068 372.454913 
L 125.064016 373.724549 
L 125.251928 373.172022 
L 125.439801 370.926646 
L 125.627637 370.738552 
L 126.003196 370.856111 
L 126.190919 371.690779 
L 126.378605 370.938402 
L 126.566253 372.019944 
L 126.753864 370.644504 
L 126.941437 370.397631 
L 127.128973 369.292576 
L 127.316471 369.3396 
L 127.503932 371.855362 
L 127.691355 371.57322 
L 128.06609 367.76431 
L 128.253401 367.658507 
L 128.440674 366.98842 
L 128.62791 367.823089 
L 129.189395 375.076478 
L 129.376481 374.547462 
L 129.563531 374.688533 
L 129.750543 374.347612 
L 130.498218 371.808338 
L 130.871832 369.092726 
L 131.058583 369.468915 
L 131.245296 367.399877 
L 131.431973 369.304332 
L 131.618612 369.292576 
L 131.805214 369.692277 
L 132.551251 368.328593 
L 132.737667 371.655512 
L 132.924046 370.785575 
L 133.110388 372.560716 
L 133.296693 372.09048 
L 133.482961 370.644504 
L 133.669191 370.550457 
L 133.855385 368.410884 
L 134.041541 371.655512 
L 134.227661 370.05671 
L 134.413743 370.491678 
L 134.599788 369.856859 
L 134.785796 372.161015 
L 134.971768 371.420394 
L 135.157702 373.86562 
L 135.343599 373.46592 
L 135.529459 374.617998 
L 135.715282 373.559967 
L 135.901069 373.442408 
L 136.086818 371.314591 
L 136.27253 372.266818 
L 136.829446 371.102984 
L 137.015011 371.632 
L 137.386029 370.844355 
L 137.571484 370.985425 
L 137.756901 375.335107 
L 137.942281 375.617249 
L 138.127625 372.960416 
L 138.312931 372.266818 
L 138.868631 373.324849 
L 139.05379 372.807589 
L 139.238913 373.277825 
L 139.609048 370.891378 
L 139.794061 371.067717 
L 139.979037 370.033198 
L 140.163976 370.009686 
L 140.348878 368.634246 
L 140.903365 372.266818 
L 141.088121 370.021442 
L 141.27284 371.737803 
L 141.457522 372.396133 
L 141.642168 372.113992 
L 141.826777 372.560716 
L 142.564848 370.374119 
L 142.749274 368.928143 
L 143.118017 371.925897 
L 143.302333 371.867118 
L 143.486613 372.831101 
L 143.670857 371.267567 
L 143.855064 372.419645 
L 144.039235 371.549708 
L 144.407466 368.787073 
L 144.591528 369.727544 
L 144.775552 369.186773 
L 145.143493 370.303583 
L 145.327408 373.00744 
L 145.511287 374.06547 
L 145.878936 370.538701 
L 146.062706 372.184527 
L 146.430137 369.433647 
L 146.613798 369.927395 
L 146.797423 371.561464 
L 147.164563 371.549708 
L 147.348079 371.867118 
L 147.531558 373.430652 
L 147.715001 372.701786 
L 148.081779 368.68127 
L 148.265113 368.751805 
L 148.631674 371.820094 
L 148.814899 369.974418 
L 149.181242 371.302835 
L 149.547441 368.258057 
L 149.730485 368.528443 
L 150.096467 372.102236 
L 150.279403 371.102984 
L 150.645168 367.317586 
L 150.827996 369.292576 
L 151.010788 368.82234 
L 151.193544 367.799577 
L 151.376265 368.504931 
L 151.558948 368.693026 
L 151.741596 370.691528 
L 151.924208 368.857608 
L 152.106784 370.65626 
L 152.289324 370.51519 
L 152.471828 372.149259 
L 152.654296 370.726796 
L 152.836728 367.587971 
L 153.019124 369.257309 
L 153.201484 368.410884 
L 153.383808 370.174269 
L 153.566096 368.105231 
L 153.748349 368.704781 
L 153.930565 367.787821 
L 154.29489 367.30583 
L 154.476999 368.293325 
L 154.659072 370.174269 
L 154.841109 369.527694 
L 155.02311 370.703284 
L 155.205075 369.903883 
L 155.387005 369.762812 
L 155.568898 371.185276 
L 155.750756 374.277077 
L 156.114365 373.254314 
L 156.47783 371.079473 
L 156.659509 370.526945 
L 156.841152 370.985425 
L 157.02276 371.761315 
L 157.204332 373.842108 
L 157.385868 371.808338 
L 157.567368 372.396133 
L 157.748833 372.384377 
L 157.930262 375.064722 
L 158.111656 375.558469 
L 158.293013 374.100738 
L 158.474336 371.502685 
L 158.655622 371.855362 
L 158.836873 370.409386 
L 159.380412 374.053715 
L 159.561521 373.736305 
L 159.742594 371.244055 
L 159.923631 372.466668 
L 160.104633 372.619495 
L 160.46653 373.689282 
L 160.647425 373.559967 
L 160.828285 373.630502 
L 161.009109 370.703284 
L 161.189898 372.619495 
L 161.370651 370.762063 
L 161.732051 373.066219 
L 161.912698 373.066219 
L 162.09331 370.71504 
L 162.273886 370.139001 
L 162.815402 373.66577 
L 162.995836 374.335856 
L 163.176235 374.300588 
L 163.536928 372.0317 
L 163.717221 373.806841 
L 164.077701 373.642258 
L 164.257888 373.289581 
L 164.43804 372.172771 
L 164.618156 372.654763 
L 164.798238 371.232299 
L 164.978284 371.632 
L 165.158294 373.183778 
L 165.33827 373.183778 
L 165.51821 375.04121 
L 165.877985 373.877376 
L 166.057819 373.348361 
L 166.237619 373.677526 
L 166.597112 372.231551 
L 166.776806 371.773071 
L 166.956465 374.171274 
L 167.136088 372.725298 
L 167.315677 376.428406 
L 167.49523 375.875879 
L 167.854232 372.643007 
L 168.03368 375.017698 
L 168.213093 375.452666 
L 168.571813 371.761315 
L 168.751121 372.995684 
L 168.930394 373.183778 
L 169.288834 370.19778 
L 169.468002 368.175766 
L 169.647135 371.314591 
L 170.005295 373.689282 
L 170.184323 372.525448 
L 170.363315 374.606242 
L 170.542273 370.903134 
L 170.721196 371.996433 
L 170.900084 368.481419 
L 171.257755 373.489431 
L 171.615287 370.597481 
L 171.794001 370.773819 
L 171.972679 371.232299 
L 172.151323 372.454913 
L 172.329932 372.243306 
L 172.508506 374.770824 
L 172.687045 373.877376 
L 173.044019 371.032449 
L 173.57922 374.617998 
L 173.75755 374.78258 
L 173.935846 373.266069 
L 174.114107 373.383628 
L 174.292333 370.938402 
L 174.470525 371.57322 
L 174.648682 370.362363 
L 174.826804 374.453415 
L 175.004891 375.652517 
L 175.182944 375.147013 
L 175.360962 373.360117 
L 175.538946 373.00744 
L 175.716895 371.784826 
L 175.894809 374.806092 
L 176.072688 374.935407 
L 176.250533 373.571723 
L 176.428343 370.679772 
L 176.961567 375.875879 
L 177.139239 374.300588 
L 177.316876 374.394636 
L 177.494479 375.29984 
L 177.672047 375.311596 
L 177.849581 373.030952 
L 178.02708 373.277825 
L 178.204545 372.525448 
L 178.381975 374.147762 
L 178.559371 372.607739 
L 178.736732 372.607739 
L 178.914059 373.712794 
L 179.091351 373.818597 
L 179.268609 373.395384 
L 179.445833 372.525448 
L 179.623022 372.725298 
L 179.800176 372.537204 
L 179.977296 373.724549 
L 180.154382 372.925148 
L 180.331434 374.136006 
L 180.508451 373.771573 
L 180.685433 375.182281 
L 180.862381 375.194037 
L 181.039295 376.205044 
L 181.216175 375.711296 
L 181.39302 375.581981 
L 181.569831 376.839862 
L 181.746608 375.323351 
L 181.92335 375.182281 
L 182.276732 374.194785 
L 182.453371 374.794336 
L 182.806548 372.396133 
L 182.983084 373.889132 
L 183.159587 374.112494 
L 183.336055 374.923651 
L 183.512489 373.066219 
L 183.688889 372.795834 
L 183.865255 371.267567 
L 184.041586 372.795834 
L 184.217883 373.289581 
L 184.394147 374.594486 
L 184.570376 374.465171 
L 184.746571 376.557721 
L 184.922731 374.500439 
L 185.098858 373.748061 
L 185.27495 373.900888 
L 185.627033 375.49969 
L 185.803023 375.099989 
L 185.978979 374.171274 
L 186.154902 371.596732 
L 186.33079 371.079473 
L 186.85825 376.310847 
L 187.034001 376.81635 
L 187.209719 376.016949 
L 187.561053 373.183778 
L 187.736669 373.336605 
L 187.912251 372.501936 
L 188.087799 372.69003 
L 188.263314 370.91489 
L 188.438794 370.691528 
L 188.61424 371.197032 
L 188.789652 373.242558 
L 188.965031 372.889881 
L 189.140375 374.053715 
L 189.490963 373.101487 
L 189.666206 374.606242 
L 189.841415 372.302086 
L 190.01659 372.066968 
L 190.191731 371.549708 
L 190.366839 374.559218 
L 190.541913 375.370375 
L 190.891959 373.183778 
L 191.066931 373.595235 
L 191.24187 374.418147 
L 191.416775 376.087485 
L 191.591646 375.687784 
L 192.116056 373.042707 
L 192.290793 373.430652 
L 192.465495 372.337354 
L 192.814799 374.053715 
L 193.163968 374.665021 
L 193.338502 375.476178 
L 193.513002 373.806841 
L 193.687469 374.817848 
L 193.861902 375.064722 
L 194.036302 376.146264 
L 194.210667 374.52395 
L 194.385 374.041959 
L 194.559298 375.076478 
L 194.733564 374.923651 
L 194.907795 373.336605 
L 195.081993 373.383628 
L 195.430288 376.428406 
L 195.604386 376.569477 
L 195.95248 373.371873 
L 196.126477 374.253565 
L 196.30044 377.827357 
L 196.47437 378.109499 
L 196.648266 377.968428 
L 196.822129 376.557721 
L 197.169754 375.887634 
L 197.343517 376.898642 
L 197.690942 374.347612 
L 197.864604 373.9244 
L 198.038233 373.030952 
L 198.211828 374.994186 
L 198.385391 373.971423 
L 198.558919 375.95817 
L 198.732415 374.265321 
L 198.905877 375.887634 
L 199.079305 372.819345 
L 199.252701 373.842108 
L 199.426063 374.100738 
L 199.599392 374.911895 
L 199.945949 372.94866 
L 200.119178 374.241809 
L 200.292374 374.359368 
L 200.638665 373.994935 
L 200.984823 376.181532 
L 201.157853 375.852367 
L 201.330849 371.714291 
L 201.676742 371.197032 
L 202.022502 373.548211 
L 202.195332 374.794336 
L 202.713624 375.805343 
L 202.886321 374.218297 
L 203.058986 374.041959 
L 203.231617 371.949409 
L 203.404216 371.385126 
L 203.576781 371.490929 
L 204.266711 375.828855 
L 204.439111 373.183778 
L 204.611478 373.971423 
L 204.783812 372.819345 
L 204.956112 376.804594 
L 205.12838 376.569477 
L 205.472817 375.158769 
L 205.644986 374.958919 
L 205.817122 376.757571 
L 205.989225 375.629005 
L 206.161295 376.346114 
L 206.333332 374.876627 
L 206.505336 375.335107 
L 206.677307 374.077226 
L 206.849245 374.277077 
L 207.021151 375.969926 
L 207.193023 373.66577 
L 207.364863 374.277077 
L 207.536669 373.172022 
L 207.708443 375.652517 
L 207.880184 375.664272 
L 208.051892 376.522453 
L 208.223568 373.524699 
L 208.39521 373.266069 
L 208.56682 373.66577 
L 208.738397 373.336605 
L 209.252931 376.41665 
L 209.76717 375.417399 
L 210.109832 377.07498 
L 210.281114 376.134508 
L 210.452363 376.110997 
L 210.62358 375.088233 
L 210.794764 375.24106 
L 210.965915 374.429903 
L 211.137034 375.29984 
L 211.30812 373.806841 
L 211.479173 374.994186 
L 211.821181 375.170525 
L 211.992137 376.287335 
L 212.333949 374.171274 
L 212.504807 374.288832 
L 212.846424 375.981682 
L 213.017184 375.076478 
L 213.187911 375.205792 
L 213.358606 376.604744 
L 213.529268 375.993438 
L 213.699897 376.134508 
L 213.870494 375.664272 
L 214.041059 377.862625 
L 214.38209 374.78258 
L 214.552557 374.794336 
L 214.722992 374.394636 
L 214.893394 377.07498 
L 215.404405 374.088982 
L 215.744917 375.370375 
L 215.915125 374.770824 
L 216.0853 373.301337 
L 216.255442 374.335856 
L 216.425552 373.46592 
L 216.765676 375.217548 
L 216.935689 375.252816 
L 217.10567 376.075729 
L 217.445534 376.510697 
L 217.615418 377.521704 
L 217.955088 375.017698 
L 218.124875 374.500439 
L 218.634042 377.345366 
L 218.8037 374.947163 
L 218.973325 376.134508 
L 219.142919 374.265321 
L 219.31248 373.959667 
L 219.82097 377.004445 
L 219.990402 375.734808 
L 220.159802 375.993438 
L 220.32917 374.171274 
L 220.498505 375.652517 
L 220.667809 375.49969 
L 221.006319 377.580484 
L 221.175526 378.227058 
L 221.344701 377.180783 
L 221.513844 374.394636 
L 221.682955 374.547462 
L 221.852034 375.123501 
L 222.02108 376.381382 
L 222.190095 375.511446 
L 222.359077 375.887634 
L 222.865832 373.324849 
L 223.034687 372.501936 
L 223.203509 372.560716 
L 223.709783 376.393138 
L 223.878478 374.312344 
L 224.04714 374.864871 
L 224.21577 374.535706 
L 224.384369 376.440162 
L 224.552935 375.229304 
L 224.72147 375.734808 
L 225.058443 372.125747 
L 225.226881 374.359368 
L 225.395288 374.088982 
L 225.563663 375.088233 
L 225.732006 374.570974 
L 226.068597 378.462176 
L 226.236844 376.839862 
L 226.40506 377.016201 
L 226.909515 372.066968 
L 227.077604 373.077975 
L 227.24566 374.947163 
L 227.413685 374.900139 
L 227.581678 374.712045 
L 227.749639 372.878125 
L 227.917568 373.677526 
L 228.085466 372.995684 
L 228.253332 375.523202 
L 228.421166 375.405643 
L 228.588968 375.076478 
L 228.756739 375.252816 
L 228.924478 374.864871 
L 229.092185 375.04121 
L 229.25986 374.794336 
L 229.427504 373.46592 
L 229.595116 373.877376 
L 229.762697 373.759817 
L 229.930246 373.00744 
L 230.097763 374.712045 
L 230.265249 374.559218 
L 230.432702 374.78258 
L 230.600125 373.172022 
L 230.767515 373.818597 
L 230.934875 371.455661 
L 231.102202 373.219046 
L 231.269498 372.349109 
L 231.436762 372.701786 
L 231.603995 373.60699 
L 231.771196 373.301337 
L 231.938366 374.735557 
L 232.27261 375.017698 
L 232.439685 373.042707 
L 232.606729 373.124999 
L 233.107671 376.922153 
L 233.441474 378.744317 
L 233.775152 374.06547 
L 233.941944 374.829604 
L 234.108704 373.618746 
L 234.44213 375.89939 
L 234.608796 376.15802 
L 234.775431 375.817099 
L 235.275146 376.898642 
L 235.441656 376.2168 
L 235.608133 374.864871 
L 235.77458 371.091228 
L 236.440052 376.6165 
L 236.606342 376.181532 
L 236.938828 374.476927 
L 237.105023 374.100738 
L 237.271188 375.852367 
L 237.437322 376.099241 
L 237.603424 377.639263 
L 237.769495 375.229304 
L 237.935534 377.07498 
L 238.101543 373.559967 
L 238.26752 373.136755 
L 238.599381 375.052966 
L 238.931117 372.313842 
L 239.428488 376.005193 
L 239.594216 375.229304 
L 239.759912 376.475429 
L 239.925578 375.452666 
L 240.091212 376.369626 
L 240.256816 374.806092 
L 240.422388 375.570225 
L 240.753439 374.394636 
L 240.918918 375.276328 
L 241.249783 372.737054 
L 241.415169 373.20729 
L 241.745848 376.310847 
L 241.91114 376.440162 
L 242.076402 375.464422 
L 242.241633 375.534958 
L 242.406832 373.454164 
L 242.572001 372.913393 
L 242.737139 373.430652 
L 242.902246 373.40714 
L 243.232367 373.9244 
L 243.397381 375.205792 
L 243.562364 374.864871 
L 243.727316 375.358619 
L 243.892237 373.501187 
L 244.057127 373.383628 
L 244.221986 372.807589 
L 244.551613 374.136006 
L 244.716379 373.418896 
L 244.881115 374.476927 
L 245.04582 373.430652 
L 245.210494 375.111745 
L 245.375138 373.40714 
L 245.704332 372.407889 
L 246.033403 374.347612 
L 246.36235 374.900139 
L 246.526778 375.170525 
L 246.691175 376.898642 
L 247.019876 373.077975 
L 247.184181 372.066968 
L 247.348455 373.077975 
L 247.676911 377.086736 
L 247.841092 377.956672 
L 248.005243 376.781083 
L 248.333453 372.760566 
L 248.661541 375.288084 
L 248.825539 374.947163 
L 248.989506 372.49018 
L 249.153442 371.949409 
L 249.317348 371.867118 
L 249.481223 374.441659 
L 249.645067 374.359368 
L 249.808881 373.712794 
L 250.136417 374.088982 
L 250.300139 373.795085 
L 250.463831 374.829604 
L 250.791123 374.253565 
L 251.281831 372.49018 
L 251.445339 373.430652 
L 251.772264 373.712794 
L 251.935681 373.20729 
L 252.262423 373.818597 
L 252.425748 373.971423 
L 252.589043 373.254314 
L 252.752308 373.501187 
L 253.078745 372.784078 
L 253.241919 375.264572 
L 253.405061 375.158769 
L 253.568174 373.9244 
L 253.731256 371.385126 
L 254.057328 370.91489 
L 254.220319 372.560716 
L 254.383279 372.737054 
L 254.54621 372.125747 
L 254.709109 370.127245 
L 255.034818 371.514441 
L 255.360405 371.855362 
L 255.523153 372.231551 
L 255.685871 372.266818 
L 256.173842 370.997181 
L 256.336439 370.315339 
L 256.499005 368.704781 
L 256.661541 369.374868 
L 256.986523 371.620244 
L 257.148968 370.550457 
L 257.473769 372.137503 
L 257.798448 369.316088 
L 257.960743 369.480671 
L 258.123007 369.127994 
L 258.447445 367.999428 
L 258.933876 373.383628 
L 259.258013 371.643756 
L 259.420036 369.045702 
L 259.582029 370.526945 
L 259.743992 370.05671 
L 259.905925 371.902385 
L 260.067828 372.125747 
L 260.391544 369.821592 
L 260.553356 369.99793 
L 260.715139 371.949409 
L 260.876892 372.419645 
L 261.038614 372.384377 
L 261.200307 371.138252 
L 261.361969 372.995684 
L 261.523602 372.94866 
L 261.846777 369.210285 
L 262.00832 371.17352 
L 262.169832 371.291079 
L 262.331315 372.784078 
L 262.492768 372.161015 
L 262.654191 373.689282 
L 262.976947 373.054463 
L 263.299583 370.620993 
L 263.460856 371.972921 
L 263.6221 371.514441 
L 263.783313 374.98243 
L 264.266775 371.490929 
L 264.427869 369.551206 
L 264.588933 369.668765 
L 264.749967 369.457159 
L 264.910972 370.19778 
L 265.232892 373.066219 
L 265.393807 373.348361 
L 265.554692 372.302086 
L 265.715548 370.362363 
L 266.03717 369.704033 
L 266.197936 370.186024 
L 266.519379 367.987672 
L 266.680056 369.99793 
L 266.840704 368.563711 
L 267.001321 369.845103 
L 267.161909 368.410884 
L 267.322467 372.231551 
L 267.482996 371.385126 
L 267.803964 368.551955 
L 267.964404 370.25656 
L 268.124813 370.550457 
L 268.285194 373.124999 
L 268.445544 371.126496 
L 268.605865 372.066968 
L 268.926418 366.953153 
L 269.08665 365.93039 
L 269.567169 373.136755 
L 269.727283 371.537953 
L 269.887367 372.302086 
L 270.047422 370.950158 
L 270.207447 371.17352 
L 270.367442 370.268316 
L 270.687345 371.11474 
L 270.847252 371.37337 
L 271.007129 369.880371 
L 271.166977 369.562962 
L 271.486584 370.103733 
L 271.646344 371.467417 
L 271.806074 374.218297 
L 271.965774 374.077226 
L 272.125445 373.336605 
L 272.444699 373.00744 
L 272.604282 373.289581 
L 272.763835 370.421142 
L 272.923359 370.491678 
L 273.082854 370.174269 
L 273.242319 372.701786 
L 273.401755 373.20729 
L 273.720538 371.784826 
L 274.198493 373.371873 
L 274.357753 369.410135 
L 274.835356 372.407889 
L 274.994498 371.714291 
L 275.153611 371.784826 
L 275.312695 369.974418 
L 275.630774 374.206541 
L 275.78977 373.947911 
L 276.107674 369.680521 
L 276.266583 369.774568 
L 276.425462 368.798829 
L 276.743132 372.701786 
L 276.901923 372.889881 
L 277.060685 372.454913 
L 277.219418 370.91489 
L 277.378122 371.467417 
L 277.854058 368.516687 
L 278.012645 368.763561 
L 278.171203 369.527694 
L 278.329732 373.054463 
L 278.488231 370.785575 
L 278.646702 371.890629 
L 278.805143 371.632 
L 278.963556 369.962662 
L 279.121939 370.150757 
L 279.280293 370.091977 
L 279.438618 371.385126 
L 279.596914 368.36386 
L 279.755181 369.751056 
L 279.913419 369.127994 
L 280.229807 371.079473 
L 280.546079 368.281569 
L 280.704172 371.138252 
L 280.862236 371.596732 
L 281.02027 372.995684 
L 281.178276 372.819345 
L 281.336253 373.301337 
L 281.652119 369.668765 
L 281.810009 369.374868 
L 281.96787 370.127245 
L 282.125702 368.845852 
L 282.283505 369.903883 
L 282.441279 369.374868 
L 282.599024 371.902385 
L 282.75674 371.349858 
L 282.914427 371.208787 
L 283.072086 369.751056 
L 283.229715 369.915639 
L 283.387316 370.620993 
L 283.544887 370.315339 
L 283.70243 370.738552 
L 283.859944 370.209536 
L 284.017429 371.102984 
L 284.174886 370.71504 
L 284.332313 369.186773 
L 284.647082 370.620993 
L 284.961735 368.269813 
L 285.119018 369.010435 
L 285.590696 373.066219 
L 285.747864 371.537953 
L 285.905004 372.913393 
L 286.062115 370.573969 
L 286.219197 373.230802 
L 286.37625 371.643756 
L 286.533275 373.183778 
L 286.847238 369.175017 
L 287.317967 372.137503 
L 287.631644 369.233797 
L 287.788439 369.480671 
L 287.945205 370.19778 
L 288.101943 372.501936 
L 288.258652 373.077975 
L 288.415333 370.221292 
L 288.728608 368.634246 
L 288.885203 371.690779 
L 289.041769 372.278574 
L 289.198307 372.266818 
L 289.667748 368.469663 
L 290.136932 370.562213 
L 290.449579 370.65626 
L 290.762111 369.210285 
L 290.918335 369.809836 
L 291.07453 369.515938 
L 291.542944 371.150008 
L 291.699025 369.445403 
L 292.011102 370.985425 
L 292.479004 367.000176 
L 292.634915 369.386623 
L 292.790797 368.657758 
L 292.946651 370.068465 
L 293.102476 368.975167 
L 293.414042 369.974418 
L 293.569782 369.880371 
L 293.881177 372.995684 
L 294.036832 372.995684 
L 294.192459 370.91489 
L 294.348057 371.138252 
L 294.659169 368.199278 
L 294.970168 371.396882 
L 295.125625 370.45641 
L 295.281054 372.384377 
L 295.436454 372.69003 
L 295.74717 371.020693 
L 296.057773 369.809836 
L 296.213032 368.105231 
L 296.368262 368.481419 
L 296.523465 370.573969 
L 296.678639 370.491678 
L 296.833786 368.798829 
L 296.988904 369.680521 
L 297.143993 369.292576 
L 297.454088 372.572472 
L 297.609094 373.994935 
L 297.764071 371.302835 
L 298.07394 370.832599 
L 298.228833 370.150757 
L 298.383697 370.444654 
L 298.538534 368.916388 
L 298.693342 370.162513 
L 298.848122 370.044954 
L 299.002874 371.596732 
L 299.466962 369.504182 
L 299.621602 369.856859 
L 300.085352 373.489431 
L 300.394379 370.703284 
L 300.548851 371.044205 
L 300.703294 369.892127 
L 300.85771 369.657009 
L 301.166456 374.288832 
L 301.320788 373.501187 
L 301.475091 373.46592 
L 301.629367 371.561464 
L 301.783614 371.302835 
L 302.092025 369.515938 
L 302.246189 370.432898 
L 302.400325 372.560716 
L 302.554433 372.913393 
L 302.708513 372.196283 
L 302.862564 372.795834 
L 303.170585 371.537953 
L 303.478493 368.175766 
L 303.632406 370.209536 
L 303.786291 370.703284 
L 303.940147 370.491678 
L 304.093976 368.728293 
L 304.401551 372.443157 
L 304.555296 373.360117 
L 304.709014 371.338102 
L 304.862704 372.631251 
L 305.016366 371.749559 
L 305.17 372.525448 
L 305.323606 372.066968 
L 305.630736 370.162513 
L 305.784259 370.585725 
L 305.937754 373.313093 
L 306.091222 372.784078 
L 306.398074 368.598978 
L 306.704815 371.291079 
L 306.858143 371.57322 
L 307.011445 371.443905 
L 307.164718 373.454164 
L 307.317964 372.125747 
L 307.471182 372.0317 
L 307.624373 369.986174 
L 307.777535 369.845103 
L 307.930671 372.901637 
L 308.083778 373.418896 
L 308.236858 374.665021 
L 308.38991 371.385126 
L 308.542935 370.668016 
L 308.695931 371.338102 
L 309.001842 369.903883 
L 309.154757 368.892876 
L 309.307643 369.163261 
L 309.460502 370.867866 
L 309.613333 371.279323 
L 309.766137 373.46592 
L 309.918913 373.9244 
L 310.071662 372.713542 
L 310.224383 374.253565 
L 310.529742 372.678275 
L 310.834992 370.844355 
L 310.987575 371.102984 
L 311.140131 368.845852 
L 311.29266 369.363112 
L 311.597634 374.312344 
L 311.75008 372.654763 
L 311.902499 372.313842 
L 312.05489 370.221292 
L 312.207253 373.301337 
L 312.359589 373.454164 
L 312.511898 374.606242 
L 312.96866 370.867866 
L 313.120859 370.809087 
L 313.27303 372.889881 
L 313.425175 373.371873 
L 313.577291 372.901637 
L 313.729381 371.632 
L 313.881443 374.112494 
L 314.033478 374.018447 
L 314.185485 374.900139 
L 314.337465 372.725298 
L 314.489418 374.077226 
L 314.641343 372.831101 
L 314.793241 373.936156 
L 314.945112 373.759817 
L 315.096955 372.842857 
L 315.248771 373.418896 
L 315.552322 370.65626 
L 315.855763 372.94866 
L 316.159095 371.208787 
L 316.613888 376.87513 
L 316.765432 373.183778 
L 316.916948 372.419645 
L 317.068437 370.738552 
L 317.371333 372.74881 
L 317.522741 373.348361 
L 317.674121 372.819345 
L 317.9768 370.233048 
L 318.27937 372.713542 
L 318.430614 372.196283 
L 318.581831 373.689282 
L 318.733021 373.912644 
L 318.884184 373.912644 
L 319.03532 374.665021 
L 319.186429 374.053715 
L 319.33751 374.194785 
L 319.639592 375.852367 
L 319.941566 374.300588 
L 320.243431 372.901637 
L 320.696026 374.053715 
L 320.846837 373.030952 
L 321.148377 374.171274 
L 321.299107 374.864871 
L 321.44981 373.936156 
L 321.751135 375.911146 
L 321.901757 376.463673 
L 322.052352 376.263823 
L 322.503974 370.97367 
L 322.654461 370.409386 
L 322.804922 370.726796 
L 322.955355 369.527694 
L 323.105761 371.138252 
L 323.25614 370.820843 
L 323.406493 371.726047 
L 323.556818 373.66577 
L 323.707117 371.561464 
L 323.857389 371.102984 
L 324.007633 369.79808 
L 324.308042 374.194785 
L 324.608344 374.641509 
L 324.758454 373.442408 
L 324.908538 373.14851 
L 325.058595 374.935407 
L 325.658554 371.067717 
L 325.958373 375.605493 
L 326.108242 376.15802 
L 326.4079 374.288832 
L 326.557689 374.923651 
L 326.707451 374.147762 
L 326.857187 375.511446 
L 327.006896 375.617249 
L 327.455861 372.572472 
L 327.605463 373.113243 
L 327.904586 372.983928 
L 328.054108 374.970675 
L 328.203603 372.407889 
L 328.353072 373.86562 
L 328.502513 372.631251 
L 328.651928 373.360117 
L 328.950678 371.232299 
L 329.249322 375.052966 
L 329.547859 375.487934 
L 329.697087 375.687784 
L 329.846289 377.674531 
L 330.144614 375.629005 
L 330.442831 371.796582 
L 330.591901 370.785575 
L 330.740943 370.668016 
L 330.889959 372.584227 
L 331.038948 372.842857 
L 331.336848 374.559218 
L 331.485757 373.030952 
L 331.634641 373.512943 
L 331.783497 372.713542 
L 331.932328 373.348361 
L 332.081132 375.370375 
L 332.229909 375.029454 
L 332.37866 372.443157 
L 332.527384 373.795085 
L 332.676082 373.101487 
L 332.824753 375.405643 
L 333.419174 372.443157 
L 333.567713 374.183029 
L 333.716226 373.054463 
L 334.161606 376.15802 
L 334.458394 375.382131 
L 334.755076 375.828855 
L 334.903378 374.194785 
L 335.199902 376.910398 
L 335.348125 376.863374 
L 335.496321 377.07498 
L 335.644491 376.722303 
L 335.792635 378.803097 
L 335.940752 378.285837 
L 336.236908 373.524699 
L 336.384946 372.995684 
L 336.532958 374.735557 
L 336.680944 374.559218 
L 336.828904 375.417399 
L 336.976837 374.230053 
L 337.124744 375.875879 
L 337.272625 375.217548 
L 337.42048 375.158769 
L 337.863886 371.549708 
L 338.011636 373.266069 
L 338.159359 371.526197 
L 338.454727 375.887634 
L 338.749991 375.064722 
L 338.897583 372.878125 
L 339.04515 372.513692 
L 339.19269 372.795834 
L 339.340204 375.805343 
L 339.487692 374.970675 
L 339.635154 373.289581 
L 339.929999 377.368878 
L 340.077382 376.581232 
L 340.37207 377.53346 
L 340.666654 374.594486 
L 340.813907 376.146264 
L 341.108335 375.076478 
L 341.255509 374.006691 
L 341.402658 375.288084 
L 341.54978 374.288832 
L 341.696877 375.194037 
L 341.843947 373.00744 
L 341.990992 372.889881 
L 342.431969 377.415901 
L 342.725824 375.593737 
L 342.872712 375.111745 
L 343.019575 375.546713 
L 343.166411 374.441659 
L 343.313222 375.147013 
L 343.460006 374.723801 
L 343.606765 375.652517 
L 343.753497 378.297593 
L 344.046885 376.228555 
L 344.19354 376.592988 
L 344.340169 376.475429 
L 344.486772 377.110248 
L 344.633349 376.334359 
L 344.7799 376.252067 
L 344.926425 376.851618 
L 345.219398 373.536455 
L 345.365846 373.654014 
L 345.658664 376.980933 
L 345.805034 376.722303 
L 345.951378 374.923651 
L 346.097696 375.123501 
L 346.243989 374.676777 
L 346.390256 375.546713 
L 346.536497 375.558469 
L 346.828901 377.027956 
L 346.975065 375.382131 
L 347.121203 377.368878 
L 347.267315 376.769327 
L 347.413401 377.639263 
L 347.851505 375.676028 
L 348.289377 378.356373 
L 348.435283 377.603995 
L 348.581163 375.511446 
L 348.727018 376.781083 
L 348.872847 375.017698 
L 349.01865 376.804594 
L 349.164427 375.864123 
L 349.455905 377.780334 
L 349.601606 376.651768 
L 349.74728 376.886886 
L 349.892929 376.545965 
L 350.038553 377.886137 
L 350.184151 377.016201 
L 350.329723 378.062475 
L 350.475269 377.004445 
L 350.766285 377.756822 
L 351.057199 379.578986 
L 351.202618 378.979435 
L 351.34801 376.592988 
L 351.493378 376.722303 
L 351.638719 377.427657 
L 352.074591 375.135257 
L 352.21983 376.898642 
L 352.365044 375.95817 
L 352.510233 377.839113 
L 352.655396 376.310847 
L 352.800533 376.6165 
L 352.945645 376.169776 
L 353.090731 376.228555 
L 353.235792 376.710547 
L 353.380827 376.41665 
L 353.525837 377.310098 
L 353.670821 376.451918 
L 353.960713 377.07498 
L 354.250504 375.335107 
L 354.395361 377.862625 
L 354.540192 377.051468 
L 354.684998 377.73331 
L 354.829779 376.687035 
L 354.974534 377.944916 
L 355.263969 377.392389 
L 355.408648 377.33361 
L 355.553301 376.310847 
L 355.697929 376.110997 
L 355.842532 375.581981 
L 355.98711 376.2168 
L 356.131662 377.815602 
L 356.276189 377.674531 
L 356.42069 377.027956 
L 356.565166 376.898642 
L 356.709617 379.261577 
L 356.854042 379.614254 
L 356.998442 378.497444 
L 357.142817 378.65027 
L 357.287166 377.13376 
L 357.43149 377.521704 
L 357.720063 376.263823 
L 358.008534 377.79209 
L 358.152731 378.062475 
L 358.296904 377.451169 
L 358.441051 376.322603 
L 358.585173 376.792839 
L 359.017387 374.629753 
L 359.161408 376.81635 
L 359.449374 376.792839 
L 359.593319 375.629005 
L 359.737239 375.534958 
L 359.881134 375.640761 
L 360.025003 376.169776 
L 360.168848 377.321854 
L 360.456461 375.323351 
L 360.60023 376.722303 
L 360.743974 375.75832 
L 360.887693 375.852367 
L 361.175054 375.605493 
L 361.605909 380.695796 
L 362.036537 376.440162 
L 362.18003 373.983179 
L 362.323497 374.218297 
L 362.466939 376.487185 
L 362.610357 375.676028 
L 362.897116 376.404894 
L 363.327068 373.900888 
L 363.613577 379.484939 
L 363.756794 379.132262 
L 363.899986 377.944916 
L 364.043153 378.109499 
L 364.329412 379.861128 
L 364.472504 380.789844 
L 364.615571 375.817099 
L 364.758613 375.687784 
L 364.90163 373.348361 
L 365.044622 374.230053 
L 365.330531 378.603247 
L 365.759208 375.323351 
L 365.902051 374.429903 
L 366.044868 374.617998 
L 366.330429 375.194037 
L 366.758583 379.073483 
L 366.901251 379.049971 
L 367.043894 377.404145 
L 367.329107 378.544467 
L 367.614219 376.063973 
L 367.756738 376.334359 
L 368.041702 377.263074 
L 368.326567 375.346863 
L 368.468962 375.099989 
L 368.895998 379.708301 
L 369.180565 377.721554 
L 369.322811 375.828855 
L 369.465033 375.75832 
L 369.60723 375.44091 
L 369.749402 377.956672 
L 369.891549 377.310098 
L 370.033672 378.403396 
L 370.17577 376.651768 
L 370.459891 378.70905 
L 370.885888 376.016949 
L 371.027838 377.909649 
L 371.169763 375.793587 
L 371.311663 376.557721 
L 371.59539 375.24106 
L 372.020795 378.603247 
L 372.304275 375.95817 
L 372.587657 376.969177 
L 372.87094 378.156523 
L 373.012545 377.921405 
L 373.154125 377.33361 
L 373.29568 374.770824 
L 373.437211 374.535706 
L 373.578718 375.44091 
L 373.7202 377.839113 
L 373.861657 377.909649 
L 374.003089 377.27483 
L 374.144498 375.911146 
L 374.285881 376.052217 
L 374.568575 376.87513 
L 374.85117 375.746564 
L 374.992431 375.993438 
L 375.133668 375.793587 
L 375.27488 374.629753 
L 375.55723 376.898642 
L 375.698369 378.473932 
L 375.839483 378.285837 
L 375.980573 377.169027 
L 376.121638 377.568728 
L 376.544687 376.35787 
L 376.685654 379.261577 
L 376.967516 375.75832 
L 377.24928 375.382131 
L 377.390125 377.956672 
L 377.530946 375.405643 
L 377.671742 376.181532 
L 377.812515 375.123501 
L 378.093986 376.146264 
L 378.234685 374.853116 
L 378.37536 375.864123 
L 378.51601 374.38288 
L 378.656636 374.218297 
L 378.797238 376.240311 
L 378.937815 375.546713 
L 379.218897 376.757571 
L 379.499881 375.887634 
L 379.780769 374.923651 
L 379.921176 374.018447 
L 380.342252 377.439413 
L 380.482562 377.568728 
L 380.622848 376.734059 
L 380.763109 376.67528 
L 381.04356 380.02571 
L 381.183749 379.82586 
L 381.744262 373.030952 
L 382.024374 376.310847 
L 382.164393 377.204295 
L 382.304389 375.052966 
L 382.44436 375.252816 
L 382.584307 373.289581 
L 382.72423 373.46592 
L 382.864128 374.817848 
L 383.004003 375.017698 
L 383.143853 376.346114 
L 383.283679 375.252816 
L 383.563259 376.510697 
L 383.842743 375.558469 
L 383.982449 376.886886 
L 384.12213 376.6165 
L 384.261788 377.59224 
L 384.401421 376.428406 
L 384.54103 378.45042 
L 384.680615 377.933161 
L 384.820177 378.591491 
L 384.959714 378.497444 
L 385.099227 376.933909 
L 385.238716 377.874381 
L 385.378181 375.570225 
L 385.517621 375.546713 
L 385.657038 376.110997 
L 385.796431 375.288084 
L 385.9358 376.534209 
L 386.075145 376.393138 
L 386.353762 378.109499 
L 386.493035 377.968428 
L 386.632284 376.945665 
L 386.771509 374.241809 
L 387.18904 379.802348 
L 387.328169 377.310098 
L 387.467274 377.427657 
L 387.606355 376.310847 
L 387.745412 377.345366 
L 388.16244 372.525448 
L 388.440339 373.771573 
L 388.718142 380.413655 
L 388.857008 380.425411 
L 389.134668 375.099989 
L 389.273463 376.028705 
L 389.412233 375.981682 
L 389.550979 375.49969 
L 389.828401 373.042707 
L 389.967076 373.348361 
L 390.105727 375.04121 
L 390.244354 374.911895 
L 390.382958 375.911146 
L 390.521538 374.653265 
L 390.660094 376.205044 
L 390.798626 376.322603 
L 390.937134 376.287335 
L 391.075619 376.6165 
L 391.214079 376.604744 
L 391.352516 376.087485 
L 391.490929 377.933161 
L 391.629319 376.640012 
L 391.767685 376.710547 
L 392.182639 375.288084 
L 392.32091 374.559218 
L 392.735579 376.6165 
L 393.011907 379.085238 
L 393.426222 376.016949 
L 393.564279 373.818597 
L 393.702313 376.640012 
L 393.840323 376.6165 
L 393.978309 378.5092 
L 394.254211 374.759068 
L 394.392126 375.111745 
L 394.530018 374.606242 
L 394.667886 377.545216 
L 394.80573 377.098492 
L 394.943551 378.403396 
L 395.081349 377.721554 
L 395.219122 373.618746 
L 395.356872 375.993438 
L 395.494599 374.958919 
L 395.769981 376.252067 
L 395.907637 373.818597 
L 396.182878 373.501187 
L 396.458024 377.968428 
L 396.870567 378.473932 
L 397.008035 377.439413 
L 397.145479 378.544467 
L 397.420296 376.67528 
L 397.695019 375.89939 
L 397.832345 376.792839 
L 397.969648 379.202797 
L 398.106927 379.261577 
L 398.244183 378.133011 
L 398.518624 374.112494 
L 398.65581 374.864871 
L 398.792972 374.570974 
L 398.93011 373.712794 
L 399.204317 375.89939 
L 399.341386 375.934658 
L 399.615452 371.972921 
L 399.889425 376.651768 
L 400.026376 376.487185 
L 400.163304 377.051468 
L 400.437089 373.512943 
L 400.573947 374.12425 
L 400.710782 376.263823 
L 400.98438 374.183029 
L 401.121144 375.405643 
L 401.257885 373.46592 
L 401.394603 373.583479 
L 401.667968 376.522453 
L 401.804616 376.451918 
L 401.94124 376.663524 
L 402.077841 373.889132 
L 402.214419 374.265321 
L 402.350974 374.112494 
L 402.487505 372.643007 
L 402.624013 373.00744 
L 403.169811 369.092726 
L 403.306203 371.008937 
L 403.442571 371.102984 
L 403.715238 369.457159 
L 403.851537 370.327095 
L 403.987812 368.211034 
L 404.124064 369.092726 
L 404.260293 365.812831 
L 404.396499 367.634995 
L 404.532682 363.790816 
L 404.668841 364.025934 
L 404.94109 363.755549 
L 405.07718 361.298566 
L 405.213247 361.945141 
L 405.757282 353.821816 
L 405.893233 353.774792 
L 406.02916 351.482392 
L 406.165065 351.353077 
L 406.57264 347.356072 
L 406.708453 347.661726 
L 407.115751 339.056409 
L 407.25147 340.231999 
L 407.658491 334.095421 
L 407.794119 330.615675 
L 408.065305 317.989842 
L 408.336399 307.87977 
L 408.742867 290.798452 
L 409.01373 278.384225 
L 409.555182 254.519754 
L 409.82577 249.194332 
L 409.961029 247.572019 
L 410.36667 253.085534 
L 411.717315 311.441807 
L 412.256932 299.533083 
L 412.526603 288.835217 
L 413.065672 252.23911 
L 413.335069 245.785122 
L 414.142714 275.880219 
L 414.277242 278.936752 
L 414.680688 270.331435 
L 415.08393 259.77464 
L 415.218299 259.645325 
L 415.352644 256.447721 
L 415.621267 258.751877 
L 415.8898 264.24188 
L 416.024032 265.053037 
L 416.560734 241.094519 
L 416.963022 214.902381 
L 417.2311 208.953897 
L 417.633049 192.037161 
L 417.766986 190.297288 
L 417.900901 191.296539 
L 418.034794 193.353821 
L 418.30251 200.854084 
L 418.436335 202.735027 
L 418.570137 202.488153 
L 418.837673 191.813799 
L 419.372474 128.249664 
L 419.773338 83.271602 
L 420.040468 64.003687 
L 420.173999 67.024952 
L 420.307508 71.068981 
L 420.707899 124.487777 
L 421.108087 185.395079 
L 421.241439 185.688977 
L 421.374767 178.212226 
L 422.041074 95.497735 
L 422.30744 115.494516 
L 422.70682 168.325517 
L 422.972961 175.04989 
L 423.239013 139.088601 
L 423.504976 99.353669 
L 423.637923 91.289124 
L 423.770848 90.936447 
L 423.903751 88.608779 
L 424.036632 90.06651 
L 424.16949 88.667559 
L 424.56793 75.724316 
L 424.700699 75.31286 
L 424.966169 103.926713 
L 425.629455 216.53645 
L 425.762046 219.08748 
L 425.894614 211.410879 
L 426.689554 109.52252 
L 426.821966 108.781898 
L 427.351393 93.910689 
L 427.483694 95.615294 
L 427.615973 91.747604 
L 427.880464 77.581748 
L 428.144867 53.3646 
L 428.277034 52.718025 
L 428.673405 81.002714 
L 429.069577 116.387964 
L 429.465549 135.773438 
L 429.597495 128.813947 
L 429.861321 74.748576 
L 429.993202 35.648463 
L 429.993202 35.648463 
" clip-path="url(#paacce329cd)" style="fill: none; stroke: #f28360; stroke-linecap: round"/>
   </g>
   <g id="patch_3">
    <path d="M 91.128438 394.595499 
L 91.128438 21.842808 
" style="fill: none; stroke: #000000; stroke-width: 0.75; stroke-linejoin: miter; stroke-linecap: square"/>
   </g>
   <g id="patch_4">
    <path d="M 91.128438 394.595499 
L 443.026462 394.595499 
" style="fill: none; stroke: #000000; stroke-width: 0.75; stroke-linejoin: miter; stroke-linecap: square"/>
   </g>
  </g>
 </g>
 <defs>
  <clipPath id="paacce329cd">
   <rect x="91.128438" y="21.842808" width="351.898024" height="372.752691"/>
  </clipPath>
 </defs>
</svg>
