<?xml version="1.0" encoding="utf-8" standalone="no"?>
<!DOCTYPE svg PUBLIC "-//W3C//DTD SVG 1.1//EN"
  "http://www.w3.org/Graphics/SVG/1.1/DTD/svg11.dtd">
<svg xmlns:xlink="http://www.w3.org/1999/xlink" width="463.971768pt" height="463.99896pt" viewBox="0 0 463.971768 463.99896" xmlns="http://www.w3.org/2000/svg" version="1.1">
 <metadata>
  <rdf:RDF xmlns:dc="http://purl.org/dc/elements/1.1/" xmlns:cc="http://creativecommons.org/ns#" xmlns:rdf="http://www.w3.org/1999/02/22-rdf-syntax-ns#">
   <cc:Work>
    <dc:type rdf:resource="http://purl.org/dc/dcmitype/StillImage"/>
    <dc:date>2025-02-10T11:28:19.368019</dc:date>
    <dc:format>image/svg+xml</dc:format>
    <dc:creator>
     <cc:Agent>
      <dc:title>Matplotlib v3.8.4, https://matplotlib.org/</dc:title>
     </cc:Agent>
    </dc:creator>
   </cc:Work>
  </rdf:RDF>
 </metadata>
 <defs>
  <style type="text/css">*{stroke-linejoin: round; stroke-linecap: butt}</style>
 </defs>
 <g id="figure_1">
  <g id="patch_1">
   <path d="M 0 463.99896 
L 463.971768 463.99896 
L 463.971768 0 
L 0 0 
L 0 463.99896 
z
" style="fill: none"/>
  </g>
  <g id="axes_1">
   <g id="patch_2">
    <path d="M 100.494531 394.59896 
L 443.674067 394.59896 
L 443.674067 20 
L 100.494531 20 
L 100.494531 394.59896 
z
" style="fill: none"/>
   </g>
   <g id="matplotlib.axis_1">
    <g id="xtick_1">
     <g id="line2d_1">
      <defs>
       <path id="m8e0f2be0ed" d="M 0 0 
L 0 5 
" style="stroke: #000000; stroke-width: 0.75"/>
      </defs>
      <g>
       <use xlink:href="#m8e0f2be0ed" x="124.158104" y="394.59896" style="stroke: #000000; stroke-width: 0.75"/>
      </g>
     </g>
     <g id="text_1">
      <text style="font: 14.5px &quot;Suisse Int&apos;l Mono&quot;; text-anchor: middle" x="124.158104" y="415.11146" transform="rotate(-0 124.158104 415.11146)">500</text>
     </g>
    </g>
    <g id="xtick_2">
     <g id="line2d_2">
      <g>
       <use xlink:href="#m8e0f2be0ed" x="174.33835" y="394.59896" style="stroke: #000000; stroke-width: 0.75"/>
      </g>
     </g>
     <g id="text_2">
      <text style="font: 14.5px &quot;Suisse Int&apos;l Mono&quot;; text-anchor: middle" x="174.33835" y="415.11146" transform="rotate(-0 174.33835 415.11146)">1000</text>
     </g>
    </g>
    <g id="xtick_3">
     <g id="line2d_3">
      <g>
       <use xlink:href="#m8e0f2be0ed" x="224.518596" y="394.59896" style="stroke: #000000; stroke-width: 0.75"/>
      </g>
     </g>
     <g id="text_3">
      <text style="font: 14.5px &quot;Suisse Int&apos;l Mono&quot;; text-anchor: middle" x="224.518596" y="415.11146" transform="rotate(-0 224.518596 415.11146)">1500</text>
     </g>
    </g>
    <g id="xtick_4">
     <g id="line2d_4">
      <g>
       <use xlink:href="#m8e0f2be0ed" x="274.698842" y="394.59896" style="stroke: #000000; stroke-width: 0.75"/>
      </g>
     </g>
     <g id="text_4">
      <text style="font: 14.5px &quot;Suisse Int&apos;l Mono&quot;; text-anchor: middle" x="274.698842" y="415.11146" transform="rotate(-0 274.698842 415.11146)">2000</text>
     </g>
    </g>
    <g id="xtick_5">
     <g id="line2d_5">
      <g>
       <use xlink:href="#m8e0f2be0ed" x="324.879088" y="394.59896" style="stroke: #000000; stroke-width: 0.75"/>
      </g>
     </g>
     <g id="text_5">
      <text style="font: 14.5px &quot;Suisse Int&apos;l Mono&quot;; text-anchor: middle" x="324.879088" y="415.11146" transform="rotate(-0 324.879088 415.11146)">2500</text>
     </g>
    </g>
    <g id="xtick_6">
     <g id="line2d_6">
      <g>
       <use xlink:href="#m8e0f2be0ed" x="375.059334" y="394.59896" style="stroke: #000000; stroke-width: 0.75"/>
      </g>
     </g>
     <g id="text_6">
      <text style="font: 14.5px &quot;Suisse Int&apos;l Mono&quot;; text-anchor: middle" x="375.059334" y="415.11146" transform="rotate(-0 375.059334 415.11146)">3000</text>
     </g>
    </g>
    <g id="xtick_7">
     <g id="line2d_7">
      <g>
       <use xlink:href="#m8e0f2be0ed" x="425.23958" y="394.59896" style="stroke: #000000; stroke-width: 0.75"/>
      </g>
     </g>
     <g id="text_7">
      <text style="font: 14.5px &quot;Suisse Int&apos;l Mono&quot;; text-anchor: middle" x="425.23958" y="415.11146" transform="rotate(-0 425.23958 415.11146)">3500</text>
     </g>
    </g>
    <g id="text_8">
     <!-- Raman shift (cm$^{-1}$) -->
     <g transform="translate(205.634299 441.14896)">
      <text>
       <tspan style="font: 500 15px &quot;Suisse Int&apos;l&quot;" x="0 10.184982 18.719971 32.324951 40.85994 49.694931 53.144928 61.034912 69.869904 73.664886 78.509872 83.609863 87.05986 90.929855 99.389847 129.02681" y="-0.6015625">Raman shift (cm)</tspan>
       <tspan style="font: 10.5px 'DejaVu Sans'" x="113.138382 121.936234" y="-6.34375">−1</tspan>
      </text>
     </g>
    </g>
   </g>
   <g id="matplotlib.axis_2">
    <g id="ytick_1">
     <g id="line2d_8">
      <defs>
       <path id="md26c34958f" d="M 0 0 
L -5 0 
" style="stroke: #000000; stroke-width: 0.75"/>
      </defs>
      <g>
       <use xlink:href="#md26c34958f" x="100.494531" y="383.220255" style="stroke: #000000; stroke-width: 0.75"/>
      </g>
     </g>
     <g id="text_9">
      <text style="font: 14.5px &quot;Suisse Int&apos;l Mono&quot;; text-anchor: end" x="90.494531" y="388.476505" transform="rotate(-0 90.494531 388.476505)">7.546</text>
     </g>
    </g>
    <g id="ytick_2">
     <g id="line2d_9">
      <g>
       <use xlink:href="#md26c34958f" x="100.494531" y="333.313652" style="stroke: #000000; stroke-width: 0.75"/>
      </g>
     </g>
     <g id="text_10">
      <text style="font: 14.5px &quot;Suisse Int&apos;l Mono&quot;; text-anchor: end" x="90.494531" y="338.569902" transform="rotate(-0 90.494531 338.569902)">7.548</text>
     </g>
    </g>
    <g id="ytick_3">
     <g id="line2d_10">
      <g>
       <use xlink:href="#md26c34958f" x="100.494531" y="283.407049" style="stroke: #000000; stroke-width: 0.75"/>
      </g>
     </g>
     <g id="text_11">
      <text style="font: 14.5px &quot;Suisse Int&apos;l Mono&quot;; text-anchor: end" x="90.494531" y="288.663299" transform="rotate(-0 90.494531 288.663299)">7.550</text>
     </g>
    </g>
    <g id="ytick_4">
     <g id="line2d_11">
      <g>
       <use xlink:href="#md26c34958f" x="100.494531" y="233.500446" style="stroke: #000000; stroke-width: 0.75"/>
      </g>
     </g>
     <g id="text_12">
      <text style="font: 14.5px &quot;Suisse Int&apos;l Mono&quot;; text-anchor: end" x="90.494531" y="238.756696" transform="rotate(-0 90.494531 238.756696)">7.552</text>
     </g>
    </g>
    <g id="ytick_5">
     <g id="line2d_12">
      <g>
       <use xlink:href="#md26c34958f" x="100.494531" y="183.593844" style="stroke: #000000; stroke-width: 0.75"/>
      </g>
     </g>
     <g id="text_13">
      <text style="font: 14.5px &quot;Suisse Int&apos;l Mono&quot;; text-anchor: end" x="90.494531" y="188.850094" transform="rotate(-0 90.494531 188.850094)">7.554</text>
     </g>
    </g>
    <g id="ytick_6">
     <g id="line2d_13">
      <g>
       <use xlink:href="#md26c34958f" x="100.494531" y="133.687241" style="stroke: #000000; stroke-width: 0.75"/>
      </g>
     </g>
     <g id="text_14">
      <text style="font: 14.5px &quot;Suisse Int&apos;l Mono&quot;; text-anchor: end" x="90.494531" y="138.943491" transform="rotate(-0 90.494531 138.943491)">7.556</text>
     </g>
    </g>
    <g id="ytick_7">
     <g id="line2d_14">
      <g>
       <use xlink:href="#md26c34958f" x="100.494531" y="83.780638" style="stroke: #000000; stroke-width: 0.75"/>
      </g>
     </g>
     <g id="text_15">
      <text style="font: 14.5px &quot;Suisse Int&apos;l Mono&quot;; text-anchor: end" x="90.494531" y="89.036888" transform="rotate(-0 90.494531 89.036888)">7.558</text>
     </g>
    </g>
    <g id="ytick_8">
     <g id="line2d_15">
      <g>
       <use xlink:href="#md26c34958f" x="100.494531" y="33.874036" style="stroke: #000000; stroke-width: 0.75"/>
      </g>
     </g>
     <g id="text_16">
      <text style="font: 14.5px &quot;Suisse Int&apos;l Mono&quot;; text-anchor: end" x="90.494531" y="39.130286" transform="rotate(-0 90.494531 39.130286)">7.560</text>
     </g>
    </g>
    <g id="text_17">
     <text style="font: 500 15px &quot;Suisse Int&apos;l&quot;, sans-serif; text-anchor: middle" x="30.875" y="207.29948" transform="rotate(-90 30.875 207.29948)">Intensity (au)</text>
    </g>
   </g>
   <g id="line2d_16">
    <path d="M 114.817439 322.334199 
L 115.003808 322.334199 
L 115.190139 306.613619 
L 115.376433 306.613619 
L 115.562689 244.230366 
L 116.121231 244.230366 
L 116.307336 265.191139 
L 116.679434 265.191139 
L 116.865427 241.485503 
L 117.051382 241.485503 
L 117.2373 238.990173 
L 117.42318 238.990173 
L 117.609023 240.736904 
L 117.980596 240.736904 
L 118.166326 244.978965 
L 118.352019 240.736904 
L 118.537674 244.978965 
L 118.908873 279.913587 
L 119.094416 267.686469 
L 119.46539 267.686469 
L 119.65082 279.664054 
L 120.206889 279.664054 
L 120.577415 193.076098 
L 120.947791 193.076098 
L 121.132923 213.038739 
L 121.318018 213.038739 
L 121.503076 231.504182 
L 121.688096 213.038739 
L 121.873079 245.727564 
L 122.058025 173.612523 
L 122.242934 245.727564 
L 122.61264 245.727564 
L 122.797437 240.736904 
L 122.982197 297.380898 
L 123.16692 307.362218 
L 123.351605 240.736904 
L 123.536254 264.44254 
L 123.905439 264.44254 
L 124.089976 247.474295 
L 124.274476 253.962154 
L 124.458939 247.474295 
L 124.643365 253.962154 
L 124.827754 237.992041 
L 125.012105 253.962154 
L 125.19642 203.306952 
L 125.380698 262.695809 
L 125.564938 203.306952 
L 125.933308 203.306952 
L 126.301531 295.135101 
L 126.485586 316.095874 
L 126.669605 316.095874 
L 126.853587 295.135101 
L 127.037532 294.136969 
L 127.221439 281.410785 
L 127.589144 281.410785 
L 127.772942 231.254649 
L 128.140425 231.254649 
L 128.324112 232.502314 
L 128.507762 245.228498 
L 128.691375 306.863152 
L 128.874951 316.095874 
L 129.05849 306.863152 
L 129.241993 306.863152 
L 129.425458 303.619223 
L 129.608887 284.904247 
L 129.792279 284.904247 
L 129.975635 280.911719 
L 130.158953 238.491107 
L 130.891861 238.491107 
L 131.074996 244.978965 
L 131.624181 244.978965 
L 131.80717 284.405181 
L 131.990121 272.67713 
L 132.173037 272.67713 
L 132.355915 284.405181 
L 132.538757 284.405181 
L 132.904331 253.962154 
L 133.087063 287.150044 
L 133.452418 239.988305 
L 133.817627 239.988305 
L 134.000176 202.807886 
L 134.365166 266.688337 
L 134.547606 266.688337 
L 134.73001 266.93787 
L 134.912377 278.665922 
L 135.094708 266.93787 
L 135.277002 278.665922 
L 135.45926 321.086534 
L 135.641481 306.613619 
L 136.005815 306.613619 
L 136.370003 267.936002 
L 136.552042 251.716356 
L 137.097943 251.716356 
L 137.279837 256.707017 
L 137.461695 256.707017 
L 137.643516 257.455616 
L 137.825302 257.455616 
L 138.007051 210.044343 
L 138.188763 210.044343 
L 138.37044 271.429464 
L 138.733684 271.429464 
L 138.915252 272.67713 
L 139.096784 272.67713 
L 139.459738 314.848209 
L 139.641161 314.848209 
L 139.822548 318.341671 
L 140.003899 318.341671 
L 140.547734 200.312556 
L 140.91011 200.312556 
L 141.091244 209.295744 
L 141.272342 194.822829 
L 141.453404 211.292008 
L 141.63443 200.562089 
L 142.358173 200.562089 
L 142.539019 202.807886 
L 142.900602 202.807886 
L 143.08134 315.846341 
L 143.262041 289.395841 
L 143.623337 289.395841 
L 144.165011 213.537805 
L 144.345497 211.042475 
L 144.525948 213.537805 
L 144.886741 278.416389 
L 145.427662 278.416389 
L 145.607897 264.44254 
L 145.96826 264.44254 
L 146.148388 246.476163 
L 146.32848 246.476163 
L 146.508536 259.202347 
L 146.688557 246.476163 
L 146.868541 259.202347 
L 147.048491 293.887436 
L 147.228404 259.202347 
L 147.408281 289.894907 
L 147.76793 289.894907 
L 147.9477 261.448144 
L 148.127435 261.448144 
L 148.307134 226.763055 
L 148.486798 226.763055 
L 148.666426 224.766791 
L 148.846018 205.802282 
L 149.025575 205.802282 
L 149.205096 213.288272 
L 149.743445 213.288272 
L 149.922824 221.023796 
L 150.102167 184.591976 
L 150.281475 184.591976 
L 150.460747 181.59758 
L 150.639983 256.207951 
L 150.819185 232.751847 
L 150.99835 232.751847 
L 151.17748 231.504182 
L 151.356575 231.504182 
L 151.535634 228.509786 
L 151.714657 216.781735 
L 151.893646 216.781735 
L 152.072598 190.081702 
L 152.430398 190.081702 
L 152.788055 235.247178 
L 152.966831 255.708885 
L 153.324276 255.708885 
L 153.502946 203.306952 
L 153.68158 202.807886 
L 153.860179 202.807886 
L 154.038743 174.111589 
L 154.217271 174.111589 
L 154.395764 237.992041 
L 154.574222 256.707017 
L 154.752644 237.992041 
L 154.931031 237.992041 
L 155.109383 220.025664 
L 155.2877 220.025664 
L 155.465981 213.038739 
L 155.822438 225.51539 
L 156.178754 225.51539 
L 156.35686 278.665922 
L 156.53493 278.665922 
L 156.712965 216.282668 
L 156.890965 216.282668 
L 157.068929 193.824697 
L 157.424753 193.824697 
L 157.602613 211.042475 
L 157.958226 211.042475 
L 158.13598 254.710753 
L 158.313699 215.035003 
L 158.491383 213.038739 
L 158.669032 215.035003 
L 158.846645 215.035003 
L 159.024224 213.038739 
L 159.201768 213.038739 
L 159.379277 186.089174 
L 159.55675 179.850849 
L 159.734189 147.162024 
L 159.911593 179.850849 
L 160.266295 131.441444 
L 160.443594 131.441444 
L 160.620858 167.873264 
L 160.798087 167.873264 
L 160.975281 207.049947 
L 161.329565 207.049947 
L 161.506654 275.671526 
L 161.683709 207.049947 
L 161.860728 208.796678 
L 162.037713 271.429464 
L 162.214663 208.796678 
L 162.391578 208.796678 
L 162.568458 248.971493 
L 162.745304 248.971493 
L 162.922114 229.008852 
L 163.09889 229.008852 
L 163.275631 206.051815 
L 163.452338 166.625599 
L 163.629009 166.625599 
L 163.805646 206.051815 
L 163.982248 206.051815 
L 164.335348 273.176196 
L 164.511846 246.22663 
L 164.688309 246.22663 
L 164.864737 292.140705 
L 165.041131 292.140705 
L 165.21749 275.17246 
L 165.393815 275.17246 
L 165.570105 250.468691 
L 165.74636 250.468691 
L 165.92258 260.200479 
L 166.627116 260.200479 
L 166.803164 230.006984 
L 167.155155 230.006984 
L 167.331099 213.787338 
L 167.682883 213.787338 
L 167.858723 160.636806 
L 168.034529 160.636806 
L 168.2103 165.877 
L 168.561739 165.877 
L 168.737407 214.286404 
L 168.91304 165.877 
L 169.088639 214.286404 
L 169.264204 214.286404 
L 169.615229 251.466823 
L 169.790691 251.466823 
L 169.966117 263.194875 
L 170.14151 249.470559 
L 170.667481 249.470559 
L 171.017957 231.005116 
L 171.193143 241.984569 
L 171.368295 241.984569 
L 171.543413 290.393974 
L 172.06856 290.393974 
L 172.24354 283.906115 
L 172.418487 281.660318 
L 172.593399 283.906115 
L 172.768277 281.660318 
L 172.94312 281.660318 
L 173.11793 271.928531 
L 173.292705 271.928531 
L 173.467446 256.95655 
L 173.991464 256.95655 
L 174.166068 263.444408 
L 174.515174 290.89304 
L 174.689676 304.617355 
L 174.864144 304.617355 
L 175.038577 304.866888 
L 175.387342 304.866888 
L 175.561674 237.742508 
L 175.735971 237.742508 
L 175.910234 229.258385 
L 176.084464 229.258385 
L 176.258659 222.021928 
L 176.43282 222.021928 
L 176.606947 289.146308 
L 176.78104 289.146308 
L 176.955099 289.395841 
L 177.129125 289.395841 
L 177.303116 268.185535 
L 177.477073 262.196743 
L 177.650996 262.196743 
L 177.824886 239.489239 
L 178.34635 239.489239 
L 178.520104 259.950946 
L 178.693823 259.950946 
L 178.867509 267.436936 
L 179.041161 259.950946 
L 179.214779 241.485503 
L 179.388364 241.485503 
L 179.561914 262.695809 
L 179.735431 229.258385 
L 179.908913 262.695809 
L 180.082362 262.695809 
L 180.255777 271.429464 
L 180.602506 271.429464 
L 180.77582 255.459352 
L 180.9491 271.429464 
L 181.122346 255.459352 
L 181.295559 224.766791 
L 181.468737 224.766791 
L 181.641882 270.680865 
L 182.161115 270.680865 
L 182.334125 264.193007 
L 182.507102 262.695809 
L 182.680045 245.977097 
L 183.025829 245.977097 
L 183.198671 253.712621 
L 183.37148 253.712621 
L 183.544254 295.8837 
L 183.889703 235.995777 
L 184.062376 235.995777 
L 184.235017 303.868756 
L 184.407623 262.446276 
L 184.580197 262.446276 
L 184.752736 306.114553 
L 184.925242 293.138837 
L 185.097715 293.138837 
L 185.270154 301.123893 
L 185.614931 301.123893 
L 185.78727 336.807114 
L 185.959574 301.123893 
L 186.131846 288.647242 
L 186.304084 288.647242 
L 186.476289 262.446276 
L 186.64846 258.453748 
L 187.164773 258.453748 
L 187.33681 278.416389 
L 187.508814 278.416389 
L 187.680785 265.939738 
L 187.852722 295.384634 
L 188.024626 273.425729 
L 188.368334 273.425729 
L 188.711908 312.352879 
L 188.883646 318.840737 
L 189.05535 312.352879 
L 189.22702 312.352879 
L 189.398658 326.57626 
L 189.570262 317.094006 
L 190.256345 317.094006 
L 190.427783 307.112685 
L 190.599188 286.900511 
L 190.770559 300.87436 
L 190.941897 300.87436 
L 191.113202 299.626695 
L 191.284474 299.626695 
L 191.455713 300.87436 
L 191.626918 299.626695 
L 191.798091 299.626695 
L 191.96923 256.95655 
L 192.140336 256.95655 
L 192.311409 209.545277 
L 192.482449 209.545277 
L 192.824429 323.831397 
L 193.166277 323.831397 
L 193.337151 327.574393 
L 193.507992 304.118289 
L 193.678801 297.630431 
L 193.849576 298.628563 
L 194.020318 298.628563 
L 194.191027 297.630431 
L 194.361703 297.630431 
L 194.532347 248.222894 
L 194.702957 248.222894 
L 194.873534 267.936002 
L 195.044078 331.816454 
L 195.214589 267.936002 
L 195.385068 331.816454 
L 195.555513 331.816454 
L 195.896305 265.440672 
L 196.066652 265.440672 
L 196.236965 213.537805 
L 196.407246 213.537805 
L 196.577494 207.29948 
L 196.747709 175.359254 
L 196.917891 207.29948 
L 197.088041 309.358483 
L 197.258157 281.909851 
L 197.428241 281.909851 
L 197.598291 309.358483 
L 197.938295 270.680865 
L 198.108247 266.189271 
L 198.448053 266.189271 
L 198.617907 290.393974 
L 198.787729 290.393974 
L 198.957517 300.624827 
L 199.127273 290.393974 
L 199.296996 290.393974 
L 199.466686 251.716356 
L 199.975561 251.716356 
L 200.14512 242.483635 
L 200.314647 224.517258 
L 200.484141 242.483635 
L 200.823032 242.483635 
L 200.992428 243.481767 
L 201.161791 255.209819 
L 201.331122 255.209819 
L 201.500421 298.628563 
L 201.83892 323.082798 
L 202.177288 323.082798 
L 202.515526 281.161252 
L 202.853635 281.161252 
L 203.191613 300.624827 
L 203.360553 300.624827 
L 203.529461 251.716356 
L 203.698336 255.958418 
L 204.035989 255.958418 
L 204.204767 336.308048 
L 204.710906 336.308048 
L 204.879554 380.724924 
L 205.04817 360.51275 
L 205.385304 360.51275 
L 205.722308 275.671526 
L 206.059184 275.671526 
L 206.395929 247.224762 
L 206.564254 247.224762 
L 206.732546 204.80415 
L 206.900805 247.224762 
L 207.069033 241.984569 
L 207.237228 291.891172 
L 207.405391 286.650978 
L 207.573522 286.650978 
L 207.74162 264.44254 
L 207.909686 275.671526 
L 208.245721 275.671526 
L 208.413691 309.10895 
L 208.749533 309.10895 
L 209.253054 232.751847 
L 209.420831 253.712621 
L 209.588575 253.712621 
L 209.923966 299.626695 
L 210.091614 302.371558 
L 210.259229 302.371558 
L 210.426813 299.626695 
L 210.594364 263.943474 
L 210.761883 263.444408 
L 210.92937 263.444408 
L 211.096825 259.701413 
L 211.264248 259.701413 
L 211.431639 321.086534 
L 211.598998 322.833265 
L 211.766325 333.064119 
L 212.100882 333.064119 
L 212.268113 298.628563 
L 212.769613 298.628563 
L 212.936715 341.797774 
L 213.103786 341.797774 
L 213.437832 295.135101 
L 213.604807 302.870624 
L 213.77175 296.133233 
L 213.938661 302.870624 
L 214.272387 302.870624 
L 214.939457 278.166856 
L 215.106145 287.150044 
L 215.272801 278.166856 
L 215.606017 278.166856 
L 215.939106 261.198611 
L 216.105603 259.950946 
L 216.272068 261.198611 
L 216.438502 259.950946 
L 216.604903 259.950946 
L 216.771273 313.351011 
L 217.270191 313.351011 
L 217.436434 301.123893 
L 217.602645 301.123893 
L 217.768825 261.697677 
L 217.934972 253.712621 
L 218.101088 261.697677 
L 218.267172 303.120157 
L 218.433225 304.367822 
L 218.765235 304.367822 
L 218.931192 302.621091 
L 219.263013 302.621091 
L 219.428875 262.945342 
L 219.594706 262.945342 
L 219.760506 303.619223 
L 219.926274 237.742508 
L 220.09201 237.742508 
L 220.423388 308.360351 
L 220.754639 308.360351 
L 220.920218 286.900511 
L 221.085765 334.062251 
L 221.416764 299.127629 
L 221.582216 314.349143 
L 221.747637 314.349143 
L 221.913027 299.127629 
L 222.078385 299.127629 
L 222.409006 245.977097 
L 222.57427 245.977097 
L 222.739502 320.837001 
L 222.904702 247.224762 
L 223.069872 247.224762 
L 223.23501 311.105214 
L 223.730235 230.006984 
L 223.895247 259.45188 
L 224.060228 259.45188 
L 224.225177 255.209819 
L 224.390095 259.45188 
L 224.719838 298.878096 
L 225.214216 298.878096 
L 225.378946 289.395841 
L 225.543645 289.395841 
L 225.708313 314.848209 
L 225.872949 314.848209 
L 226.037555 292.889304 
L 226.202128 293.38837 
L 226.531182 293.38837 
L 226.695663 294.136969 
L 226.860111 302.371558 
L 227.024529 302.371558 
L 227.188916 316.345407 
L 227.353271 316.345407 
L 227.517595 307.112685 
L 227.681888 307.112685 
L 227.84615 349.034232 
L 228.17458 367.998741 
L 228.338748 367.998741 
L 228.502886 357.518354 
L 228.666992 310.855681 
L 228.831067 310.855681 
L 228.995111 294.136969 
L 229.159123 294.136969 
L 229.323105 247.723828 
L 229.487056 247.723828 
L 229.650975 238.990173 
L 229.978721 238.990173 
L 230.142548 241.23597 
L 230.306343 241.23597 
L 230.470107 258.204215 
L 230.633841 288.647242 
L 230.797543 288.647242 
L 231.124855 333.563185 
L 231.288464 333.563185 
L 231.452042 320.587468 
L 231.61559 320.587468 
L 231.779106 294.136969 
L 231.942592 294.136969 
L 232.106046 299.876228 
L 232.26947 246.476163 
L 232.432863 297.131365 
L 232.596224 299.876228 
L 232.759555 308.110817 
L 232.922855 308.110817 
L 233.086124 323.332331 
L 233.41257 323.332331 
L 233.575747 277.418257 
L 233.738892 271.429464 
L 233.902007 271.429464 
L 234.065091 277.418257 
L 234.228144 277.418257 
L 234.391167 296.632299 
L 234.554158 296.632299 
L 234.717119 314.848209 
L 234.880049 282.907983 
L 235.042948 314.848209 
L 235.368654 314.848209 
L 235.531461 306.863152 
L 235.694237 334.561317 
L 235.856983 306.863152 
L 236.019697 257.705149 
L 236.182381 306.863152 
L 236.345035 222.520994 
L 236.670249 222.520994 
L 236.83281 279.164988 
L 236.995341 279.164988 
L 237.157841 282.408917 
L 237.32031 291.392106 
L 237.482749 291.392106 
L 237.645156 282.408917 
L 237.807534 282.408917 
L 237.96988 263.693941 
L 238.132196 260.699545 
L 238.618961 260.699545 
L 238.781155 267.187403 
L 238.943318 267.187403 
L 239.10545 312.103346 
L 239.429624 312.103346 
L 239.591665 251.716356 
L 239.753675 339.80151 
L 239.915655 331.067855 
L 240.077604 331.067855 
L 240.239523 320.587468 
L 240.401411 331.067855 
L 240.725097 309.10895 
L 241.210396 309.10895 
L 241.372102 346.289369 
L 241.533777 346.289369 
L 241.695421 304.367822 
L 241.857036 320.088402 
L 242.01862 320.088402 
L 242.180173 304.367822 
L 242.341696 304.367822 
L 242.503189 320.088402 
L 242.664651 287.64911 
L 242.826083 287.64911 
L 242.987485 312.851945 
L 243.310197 312.851945 
L 243.471508 314.09961 
L 243.632788 314.09961 
L 243.794038 302.371558 
L 243.955258 302.371558 
L 244.116447 247.723828 
L 244.277606 247.723828 
L 244.438735 264.692073 
L 244.599833 264.193007 
L 244.760902 264.193007 
L 244.92194 264.692073 
L 245.082947 264.193007 
L 245.243925 244.978965 
L 245.404872 244.978965 
L 245.565789 252.464955 
L 245.726676 252.464955 
L 245.887533 275.421993 
L 246.048359 278.665922 
L 246.209156 304.367822 
L 246.530658 314.848209 
L 246.691364 309.608016 
L 246.852039 314.848209 
L 247.012685 311.60428 
L 247.49444 320.088402 
L 247.654965 311.60428 
L 247.81546 320.088402 
L 247.975925 250.468691 
L 248.296765 250.468691 
L 248.457139 248.971493 
L 248.617484 248.971493 
L 248.777798 293.138837 
L 249.098337 293.138837 
L 249.258561 306.613619 
L 249.418756 308.609884 
L 249.57892 306.613619 
L 249.739055 277.418257 
L 250.059233 333.563185 
L 250.219278 205.552749 
L 250.539277 333.563185 
L 250.859156 287.150044 
L 251.01905 287.150044 
L 251.178915 249.470559 
L 251.33875 249.470559 
L 251.498555 287.150044 
L 251.65833 263.943474 
L 251.818075 263.943474 
L 251.97779 340.550109 
L 252.137476 263.943474 
L 252.297131 263.943474 
L 252.456757 202.30882 
L 252.616353 247.973361 
L 252.775919 225.51539 
L 252.935455 247.973361 
L 253.094961 247.973361 
L 253.254438 261.697677 
L 253.413884 298.878096 
L 253.732688 298.878096 
L 253.892046 326.57626 
L 254.051373 326.57626 
L 254.210671 316.095874 
L 254.369939 316.095874 
L 254.529177 293.38837 
L 254.688386 293.38837 
L 254.847565 279.664054 
L 255.006714 293.38837 
L 255.165833 293.38837 
L 255.324923 309.358483 
L 255.483983 309.358483 
L 255.643013 313.101478 
L 255.802014 309.358483 
L 255.960985 309.358483 
L 256.278838 285.15378 
L 256.43772 282.907983 
L 256.596572 282.907983 
L 256.914188 271.179931 
L 257.231685 271.179931 
L 257.707709 306.364086 
L 258.02491 306.364086 
L 258.183467 318.840737 
L 258.817397 318.840737 
L 258.975806 315.846341 
L 259.450855 315.846341 
L 259.609146 305.116421 
L 259.767407 305.116421 
L 259.925639 269.682733 
L 260.083841 181.59758 
L 260.400157 181.59758 
L 260.558271 309.358483 
L 260.874411 309.358483 
L 261.032437 280.16312 
L 261.3484 280.16312 
L 261.506338 275.921059 
L 261.664246 342.795906 
L 261.822125 342.795906 
L 261.979974 304.866888 
L 262.137795 297.630431 
L 262.295585 304.866888 
L 262.611079 295.135101 
L 262.768782 268.185535 
L 262.926455 268.185535 
L 263.0841 241.984569 
L 263.241714 268.185535 
L 263.3993 268.185535 
L 263.556856 241.984569 
L 263.714384 293.887436 
L 263.871881 293.887436 
L 264.186789 225.51539 
L 264.344199 256.95655 
L 264.50158 256.95655 
L 264.658932 261.94721 
L 264.973547 353.775359 
L 265.445252 353.775359 
L 265.602428 262.446276 
L 265.759576 262.446276 
L 265.916694 309.608016 
L 266.544875 309.608016 
L 266.701848 277.917323 
L 267.015705 277.917323 
L 267.172591 343.794038 
L 267.329447 284.405181 
L 267.643072 307.112685 
L 267.799841 307.112685 
L 267.956581 294.885568 
L 268.113291 294.885568 
L 268.269973 302.870624 
L 268.58325 302.870624 
L 268.739844 323.831397 
L 269.052947 323.831397 
L 269.209455 321.5856 
L 269.365933 155.14708 
L 269.678804 155.14708 
L 269.835196 264.193007 
L 269.991559 264.193007 
L 270.147893 335.309916 
L 270.304198 335.309916 
L 270.460474 339.551977 
L 270.616722 335.309916 
L 270.77294 335.309916 
L 270.929129 345.54077 
L 271.08529 333.812718 
L 271.397524 333.812718 
L 271.553598 299.876228 
L 271.709643 294.885568 
L 271.86566 294.885568 
L 272.177606 263.194875 
L 272.333535 263.194875 
L 272.489436 272.926663 
L 272.801152 305.116421 
L 272.956966 305.365954 
L 273.112752 305.365954 
L 273.268509 305.116421 
L 273.579936 250.967757 
L 273.735607 250.967757 
L 273.891249 276.669658 
L 274.046862 276.669658 
L 274.202447 322.334199 
L 274.358002 322.334199 
L 274.513529 224.766791 
L 274.669028 224.766791 
L 274.824497 277.66779 
L 274.979938 277.66779 
L 275.13535 295.634167 
L 275.290734 295.634167 
L 275.446089 313.600544 
L 275.911982 265.690205 
L 276.067222 274.673394 
L 276.377617 274.673394 
L 276.532771 226.763055 
L 276.687897 230.50605 
L 276.998063 230.50605 
L 277.308115 375.734264 
L 277.463098 375.734264 
L 277.618052 328.322992 
L 277.772978 346.289369 
L 278.082744 310.107082 
L 278.237584 310.107082 
L 278.392396 292.889304 
L 278.701934 292.889304 
L 278.85666 335.309916 
L 279.011358 335.309916 
L 279.166027 345.790303 
L 279.320668 335.309916 
L 279.47528 266.688337 
L 279.629864 265.191139 
L 279.78442 265.191139 
L 279.938947 181.59758 
L 280.093445 265.191139 
L 280.247916 265.191139 
L 280.402357 221.772395 
L 280.556771 312.851945 
L 280.711156 312.851945 
L 280.865512 313.351011 
L 281.17414 313.351011 
L 281.636869 278.416389 
L 281.791056 235.247178 
L 281.945214 235.247178 
L 282.099344 289.146308 
L 282.253445 237.742508 
L 282.407518 337.30618 
L 282.561563 337.30618 
L 282.715579 313.850077 
L 283.023527 313.850077 
L 283.331362 303.120157 
L 283.485238 303.120157 
L 283.639084 233.250913 
L 283.792903 303.120157 
L 283.946693 320.837001 
L 284.100456 320.837001 
L 284.25419 289.395841 
L 284.407895 313.600544 
L 284.561573 290.393974 
L 284.715222 290.393974 
L 284.868843 313.600544 
L 285.022436 313.600544 
L 285.176001 331.067855 
L 285.329538 331.067855 
L 285.483046 247.474295 
L 285.636527 246.725696 
L 285.943403 246.725696 
L 286.096799 247.474295 
L 286.250167 264.692073 
L 286.403506 349.782831 
L 286.556818 349.782831 
L 286.710101 309.857549 
L 286.863357 309.857549 
L 287.169783 254.211687 
L 287.322955 254.211687 
L 287.476098 273.425729 
L 287.629213 273.425729 
L 287.7823 340.550109 
L 288.08839 340.550109 
L 288.394368 281.909851 
L 288.853125 281.909851 
L 289.31163 300.125761 
L 289.464409 300.125761 
L 289.61716 324.08093 
L 289.922579 278.416389 
L 290.075246 278.416389 
L 290.227886 275.17246 
L 290.380497 267.936002 
L 290.533081 249.720092 
L 290.685637 267.936002 
L 290.838164 267.936002 
L 290.990664 277.168724 
L 291.143136 277.168724 
L 291.295581 362.509014 
L 291.447997 316.844473 
L 291.600386 316.844473 
L 291.752746 278.665922 
L 292.209661 278.665922 
L 292.361911 305.615487 
L 292.666326 305.615487 
L 292.818492 304.866888 
L 292.970631 296.881832 
L 293.122741 296.881832 
L 293.274824 304.866888 
L 293.426879 304.866888 
L 293.578906 294.386502 
L 293.730905 332.814586 
L 293.882877 324.330463 
L 294.034821 277.917323 
L 294.186737 324.330463 
L 294.490487 324.330463 
L 294.64232 277.917323 
L 294.794125 316.844473 
L 294.945903 274.174328 
L 295.097653 281.410785 
L 295.552738 281.410785 
L 295.704377 315.596808 
L 295.855989 315.596808 
L 296.007573 278.665922 
L 296.15913 315.596808 
L 296.310659 267.436936 
L 296.916499 267.436936 
L 297.06789 150.905019 
L 297.673178 150.905019 
L 297.824432 299.626695 
L 297.975657 260.949078 
L 298.429169 260.949078 
L 298.580285 237.243442 
L 298.731373 237.243442 
L 298.882434 244.978965 
L 299.033467 334.81085 
L 299.184473 244.978965 
L 299.335451 244.978965 
L 299.486402 244.729432 
L 299.637325 244.729432 
L 299.788221 216.282668 
L 299.93909 244.729432 
L 300.089931 247.723828 
L 300.240745 316.59494 
L 300.391531 316.59494 
L 300.54229 326.825794 
L 300.693021 326.825794 
L 300.843725 266.93787 
L 300.994402 264.44254 
L 301.145051 266.93787 
L 301.295673 266.93787 
L 301.446268 245.727564 
L 301.897888 245.727564 
L 302.048373 243.980833 
L 302.198831 243.980833 
L 302.349261 264.193007 
L 302.499665 264.193007 
L 302.650041 308.360351 
L 302.800389 308.360351 
L 302.950711 266.93787 
L 303.101005 266.93787 
L 303.251272 290.89304 
L 303.401511 266.93787 
L 303.551724 290.89304 
L 303.701909 290.89304 
L 303.852067 263.943474 
L 304.152301 263.943474 
L 304.302377 254.211687 
L 304.602448 267.686469 
L 304.90241 242.483635 
L 305.05235 253.213555 
L 305.202263 211.791074 
L 305.352149 211.791074 
L 305.502008 245.727564 
L 305.651839 253.213555 
L 305.801644 309.10895 
L 306.101171 309.10895 
L 306.250894 304.367822 
L 306.40059 304.367822 
L 306.550259 299.626695 
L 306.699901 299.626695 
L 306.849515 304.367822 
L 306.999103 333.313652 
L 307.148663 299.626695 
L 307.298197 295.8837 
L 307.447703 325.328595 
L 307.746634 269.682733 
L 307.89606 212.040607 
L 308.045458 298.628563 
L 308.194829 281.410785 
L 308.344173 238.990173 
L 308.49349 281.410785 
L 308.792043 281.410785 
L 308.941279 322.833265 
L 309.090488 322.833265 
L 309.239671 312.103346 
L 309.83613 312.103346 
L 309.985177 255.708885 
L 310.134197 276.420125 
L 310.283191 254.960286 
L 310.432158 254.960286 
L 310.581097 225.265857 
L 310.878896 225.265857 
L 311.027755 284.904247 
L 311.176587 269.932266 
L 311.325393 284.904247 
L 311.622922 284.904247 
L 311.920345 258.703281 
L 312.069016 254.960286 
L 312.21766 258.703281 
L 312.366278 258.703281 
L 312.514868 306.364086 
L 312.663432 306.364086 
L 312.811969 323.082798 
L 312.960479 323.082798 
L 313.108962 266.438804 
L 313.257419 265.939738 
L 313.702628 265.939738 
L 313.850978 220.774263 
L 313.999301 244.978965 
L 314.295866 244.978965 
L 314.444109 310.606148 
L 314.592324 310.606148 
L 314.740514 326.825794 
L 314.888676 312.851945 
L 315.036812 310.606148 
L 315.184921 306.613619 
L 315.333004 306.613619 
L 315.481059 298.37903 
L 315.629089 276.919191 
L 315.777091 278.665922 
L 315.925067 276.919191 
L 316.073016 247.474295 
L 316.220939 276.669658 
L 316.368834 250.967757 
L 316.516704 250.967757 
L 316.664546 276.669658 
L 316.812363 276.669658 
L 316.960152 339.302444 
L 317.107915 339.302444 
L 317.403361 206.301348 
L 317.698701 206.301348 
L 318.141511 326.57626 
L 318.289062 326.57626 
L 318.436586 304.367822 
L 318.584083 304.367822 
L 318.731554 295.384634 
L 318.878998 265.191139 
L 319.173807 265.191139 
L 319.321172 279.913587 
L 319.468511 279.913587 
L 319.615823 302.122025 
L 319.763108 279.913587 
L 319.910367 279.913587 
L 320.0576 268.185535 
L 320.204806 275.921059 
L 320.351986 268.185535 
L 320.499139 275.921059 
L 320.646266 268.185535 
L 321.087488 285.652846 
L 321.234509 229.757451 
L 321.381504 285.652846 
L 321.528473 285.652846 
L 321.675415 266.189271 
L 321.822331 287.64911 
L 321.96922 287.64911 
L 322.26292 250.468691 
L 322.40973 250.468691 
L 322.556514 238.990173 
L 322.703272 238.990173 
L 322.850003 253.712621 
L 322.996709 253.712621 
L 323.143387 329.071591 
L 323.29004 329.82019 
L 323.436666 329.071591 
L 323.72984 329.071591 
L 323.876387 306.114553 
L 324.022908 306.114553 
L 324.169403 320.337935 
L 324.315872 306.114553 
L 324.462315 320.337935 
L 324.608731 321.5856 
L 324.755121 320.337935 
L 324.901485 311.60428 
L 325.340419 311.60428 
L 325.486678 326.825794 
L 325.632911 356.270689 
L 326.071452 356.270689 
L 326.21758 316.095874 
L 326.801832 296.632299 
L 326.947829 293.637903 
L 327.239746 293.637903 
L 327.385665 294.386502 
L 327.531558 312.851945 
L 327.677425 312.851945 
L 327.823266 305.615487 
L 327.969081 309.10895 
L 328.11487 305.615487 
L 328.260633 221.772395 
L 328.40637 265.939738 
L 328.697765 265.939738 
L 328.843424 283.407049 
L 328.989057 283.407049 
L 329.134663 298.878096 
L 329.280244 298.878096 
L 329.425799 269.932266 
L 329.571327 269.932266 
L 329.71683 281.410785 
L 329.862307 271.928531 
L 330.007757 281.410785 
L 330.153182 281.410785 
L 330.298581 286.401445 
L 330.443954 286.401445 
L 330.589301 305.615487 
L 330.879917 305.615487 
L 331.025186 326.825794 
L 331.460838 270.431332 
L 331.606003 270.431332 
L 331.751143 252.464955 
L 332.041345 252.464955 
L 332.476453 302.371558 
L 332.621438 248.222894 
L 332.766396 269.682733 
L 332.911329 269.682733 
L 333.056236 255.209819 
L 333.345973 278.665922 
L 333.635606 338.304312 
L 333.925136 338.304312 
L 334.069863 304.866888 
L 334.214563 226.263989 
L 334.648511 226.263989 
L 334.793108 234.498578 
L 334.93768 234.498578 
L 335.082226 237.492975 
L 335.226747 237.492975 
L 335.371242 246.476163 
L 335.515711 217.031268 
L 335.660154 246.476163 
L 335.948964 246.476163 
L 336.09333 245.478031 
L 336.23767 298.37903 
L 336.381985 294.136969 
L 336.958989 294.136969 
L 337.103175 266.93787 
L 337.247336 266.93787 
L 337.535582 339.551977 
L 337.679666 318.840737 
L 337.823725 318.840737 
L 338.111765 291.142573 
L 338.255747 291.142573 
L 338.543634 299.127629 
L 338.68754 299.127629 
L 338.831419 300.624827 
L 339.262905 300.624827 
L 339.406683 301.622959 
L 339.550435 301.622959 
L 339.694161 298.37903 
L 339.837862 285.902379 
L 339.981538 247.973361 
L 340.555985 247.973361 
L 340.699533 328.073459 
L 340.843056 315.347275 
L 340.986553 327.32486 
L 341.130025 327.32486 
L 341.273471 315.347275 
L 341.560288 241.23597 
L 341.703658 225.51539 
L 341.847003 241.23597 
L 341.990322 225.51539 
L 342.133616 225.51539 
L 342.276885 326.326727 
L 342.420128 326.326727 
L 342.563345 250.718224 
L 342.706538 275.17246 
L 342.992847 250.718224 
L 343.42212 286.900511 
L 343.56516 286.900511 
L 343.708175 305.86502 
L 343.851165 286.900511 
L 343.994129 286.900511 
L 344.279982 311.105214 
L 344.565734 311.105214 
L 344.708572 333.313652 
L 344.994172 261.198611 
L 345.136934 274.922927 
L 345.279671 244.479899 
L 345.422383 244.479899 
L 345.707731 286.650978 
L 346.135563 286.650978 
L 346.278124 225.764923 
L 346.420659 225.764923 
L 346.563169 292.889304 
L 346.990548 292.889304 
L 347.132958 261.448144 
L 347.275342 261.448144 
L 347.417701 247.224762 
L 347.560035 247.224762 
L 347.702344 306.863152 
L 347.844627 306.863152 
L 347.986886 293.637903 
L 348.129119 306.863152 
L 348.271328 306.863152 
L 348.555669 275.17246 
L 348.697802 309.857549 
L 349.266084 309.857549 
L 349.550074 304.617355 
L 349.833965 211.042475 
L 349.975872 252.215422 
L 350.259612 252.215422 
L 350.401445 315.846341 
L 350.543253 315.846341 
L 350.685035 307.112685 
L 350.826793 306.114553 
L 350.968525 307.112685 
L 351.110233 306.114553 
L 351.251916 307.112685 
L 351.393573 366.25201 
L 351.535206 366.25201 
L 351.676814 334.81085 
L 352.242996 334.81085 
L 352.384479 275.421993 
L 352.525937 336.308048 
L 352.667371 325.827661 
L 352.808779 275.421993 
L 353.091521 325.827661 
L 353.232855 324.579996 
L 353.374164 309.857549 
L 353.515448 313.101478 
L 353.797942 313.101478 
L 353.939152 287.898643 
L 354.221496 319.589336 
L 354.362631 319.589336 
L 354.503742 287.898643 
L 354.644827 330.818322 
L 354.785888 314.598676 
L 355.349882 314.598676 
L 355.490819 288.647242 
L 355.631731 288.647242 
L 355.772618 276.170592 
L 355.913481 276.170592 
L 356.054319 288.647242 
L 356.33592 267.686469 
L 356.476683 267.686469 
L 356.617422 253.962154 
L 356.758136 253.962154 
L 357.03949 317.094006 
L 357.18013 317.094006 
L 357.461336 352.527694 
L 357.601902 337.555713 
L 357.742444 337.555713 
L 357.88296 357.268821 
L 358.304362 294.386502 
L 358.585174 294.386502 
L 358.725543 297.630431 
L 359.006207 327.32486 
L 359.286772 327.32486 
L 359.707436 228.509786 
L 359.847608 287.150044 
L 359.987756 278.166856 
L 360.127879 311.354747 
L 360.267977 311.354747 
L 360.408051 287.898643 
L 360.5481 287.898643 
L 360.688125 290.89304 
L 360.968101 290.89304 
L 361.108053 313.101478 
L 361.387882 313.101478 
L 361.52776 264.692073 
L 361.667613 264.692073 
L 361.807442 249.720092 
L 362.087026 249.720092 
L 362.226781 274.423861 
L 362.366512 337.555713 
L 362.645901 337.555713 
L 362.785559 316.59494 
L 362.925192 248.971493 
L 363.204385 248.971493 
L 363.343945 242.733168 
L 363.483481 306.613619 
L 363.622992 306.613619 
L 363.762479 267.936002 
L 363.901941 267.936002 
L 364.041379 287.64911 
L 364.180793 287.64911 
L 364.320182 352.028628 
L 364.459547 352.028628 
L 364.598888 349.533298 
L 364.738204 349.533298 
L 365.016764 281.410785 
L 365.295226 277.168724 
L 365.434421 270.680865 
L 365.573591 269.4332 
L 365.712737 270.680865 
L 365.851859 269.4332 
L 365.990956 269.4332 
L 366.13003 287.64911 
L 366.408103 287.64911 
L 366.547104 298.628563 
L 366.825032 298.628563 
L 366.963959 332.31552 
L 367.241742 332.31552 
L 367.380597 301.123893 
L 367.519428 301.123893 
L 367.797017 227.262121 
L 368.074509 227.262121 
L 368.213218 312.602412 
L 368.629203 312.602412 
L 368.767816 289.395841 
L 369.322027 289.395841 
L 369.460519 277.66779 
L 369.737432 277.66779 
L 369.875852 300.375294 
L 370.014248 280.412653 
L 370.290967 280.412653 
L 370.429291 293.887436 
L 370.56759 283.407049 
L 370.844117 283.407049 
L 370.982345 195.321895 
L 371.258727 195.321895 
L 371.535014 310.356615 
L 371.811204 310.356615 
L 371.949263 302.371558 
L 372.22531 302.371558 
L 372.363297 314.848209 
L 372.777115 314.848209 
L 372.915006 372.490335 
L 373.052873 330.818322 
L 373.328536 330.818322 
L 373.466331 267.936002 
L 373.604103 267.936002 
L 373.74185 259.202347 
L 373.879574 267.936002 
L 374.017273 292.639771 
L 374.292601 292.639771 
L 374.430229 295.8837 
L 374.567833 305.116421 
L 374.980502 305.116421 
L 375.118011 285.652846 
L 375.255495 285.652846 
L 375.392956 293.138837 
L 375.530393 293.138837 
L 375.667806 288.397709 
L 376.079903 288.397709 
L 376.354514 318.092138 
L 376.491785 318.092138 
L 376.629031 321.835133 
L 376.766254 318.092138 
L 376.903452 311.105214 
L 377.040627 284.904247 
L 377.177779 311.105214 
L 377.314906 274.673394 
L 377.45201 274.673394 
L 377.726146 309.857549 
L 377.863178 289.894907 
L 378.000187 309.857549 
L 378.137172 348.0361 
L 378.274133 309.857549 
L 378.411071 312.352879 
L 378.547984 312.352879 
L 378.684875 308.360351 
L 378.821741 308.360351 
L 378.958584 311.354747 
L 379.095403 288.397709 
L 379.232198 288.397709 
L 379.36897 273.675262 
L 379.505717 273.675262 
L 379.642442 237.492975 
L 379.779142 237.492975 
L 379.915819 244.230366 
L 380.052473 263.444408 
L 380.189102 263.444408 
L 380.325708 269.932266 
L 380.462291 263.444408 
L 380.59885 263.444408 
L 380.735385 269.932266 
L 380.871896 269.932266 
L 381.008384 260.450012 
L 381.144849 260.450012 
L 381.281289 303.120157 
L 381.417706 260.450012 
L 381.5541 260.450012 
L 381.826816 303.120157 
L 381.963139 291.641639 
L 382.099439 317.343539 
L 382.371967 317.343539 
L 382.508195 284.405181 
L 382.644401 309.358483 
L 383.052875 309.358483 
L 383.325073 320.337935 
L 383.461138 320.337935 
L 383.597178 340.300576 
L 383.869189 340.300576 
L 384.005159 321.086534 
L 384.141106 319.339803 
L 384.548805 319.339803 
L 385.092076 223.768659 
L 385.363571 223.768659 
L 385.634972 285.652846 
L 385.770638 261.198611 
L 385.90628 285.652846 
L 386.041899 285.652846 
L 386.177494 266.438804 
L 386.313067 266.438804 
L 386.448615 301.622959 
L 386.584141 266.438804 
L 386.719643 321.086534 
L 386.855121 321.086534 
L 386.990577 312.602412 
L 387.261417 312.602412 
L 387.532165 303.619223 
L 387.667503 269.4332 
L 387.802819 269.4332 
L 387.938111 260.949078 
L 388.07338 260.949078 
L 388.208625 302.122025 
L 388.479046 302.122025 
L 388.614222 325.079062 
L 388.884504 325.079062 
L 389.01961 325.328595 
L 389.154693 327.823926 
L 389.289752 327.823926 
L 389.424788 301.872492 
L 389.559801 327.823926 
L 389.694791 301.872492 
L 389.829758 301.872492 
L 389.964701 256.95655 
L 390.099621 256.95655 
L 390.234518 233.00138 
L 390.504243 233.00138 
L 390.63907 238.74064 
L 390.908656 314.598676 
L 391.31286 314.598676 
L 391.582214 228.01072 
L 391.716856 228.01072 
L 392.120644 220.025664 
L 392.255194 220.52473 
L 392.389721 220.52473 
L 392.524224 254.46122 
L 392.658705 254.46122 
L 392.793162 235.995777 
L 393.062008 258.952814 
L 393.196396 258.952814 
L 393.465104 337.30618 
L 393.867992 337.30618 
L 394.002242 250.718224 
L 394.136469 250.718224 
L 394.270673 246.476163 
L 394.404854 250.718224 
L 394.673146 301.622959 
L 394.807258 290.89304 
L 394.941347 301.622959 
L 395.075413 291.392106 
L 395.209456 313.351011 
L 395.745399 313.351011 
L 395.879327 340.799642 
L 396.013232 312.851945 
L 396.147114 312.851945 
L 396.280974 265.690205 
L 396.41481 264.692073 
L 396.682415 264.692073 
L 396.816182 259.45188 
L 396.949927 300.125761 
L 397.484678 300.125761 
L 397.618308 325.328595 
L 397.751916 325.328595 
L 398.019063 271.429464 
L 398.152602 290.89304 
L 398.286118 245.977097 
L 398.553082 337.30618 
L 398.68653 337.30618 
L 398.819954 284.405181 
L 398.953357 284.405181 
L 399.086736 267.686469 
L 399.220092 265.939738 
L 399.353426 245.228498 
L 399.486737 265.939738 
L 399.620025 245.228498 
L 399.753291 245.228498 
L 399.886533 271.429464 
L 400.019753 329.570657 
L 400.15295 271.429464 
L 400.419276 271.429464 
L 400.685511 201.809754 
L 400.818594 246.476163 
L 400.951655 222.021928 
L 401.084693 222.021928 
L 401.217708 285.15378 
L 401.48367 285.15378 
L 401.616618 299.626695 
L 401.749542 299.626695 
L 401.882444 285.403313 
L 402.015323 289.395841 
L 402.148179 285.403313 
L 402.413824 285.403313 
L 402.546613 279.164988 
L 402.679378 279.164988 
L 402.812122 286.650978 
L 402.944842 279.164988 
L 403.07754 281.161252 
L 403.210215 293.138837 
L 403.342868 293.138837 
L 403.475498 281.161252 
L 403.74069 295.135101 
L 403.873252 297.131365 
L 404.005792 295.135101 
L 404.138309 297.131365 
L 404.270804 304.367822 
L 404.403276 304.367822 
L 404.668152 254.211687 
L 404.800556 238.990173 
L 404.932938 238.990173 
L 405.065297 254.211687 
L 405.197633 285.902379 
L 405.329947 285.902379 
L 405.462239 301.123893 
L 405.594508 285.902379 
L 405.726755 306.863152 
L 405.858979 257.954682 
L 405.99118 312.352879 
L 406.123359 257.954682 
L 406.255516 311.853813 
L 406.783917 311.853813 
L 406.915961 291.392106 
L 407.047983 251.21729 
L 407.179982 287.898643 
L 407.443913 287.898643 
L 407.575845 315.347275 
L 407.839642 315.347275 
L 407.971506 330.568789 
L 408.235168 320.837001 
L 408.366966 320.837001 
L 408.498741 324.579996 
L 408.630494 320.837001 
L 408.762224 312.352879 
L 408.893932 312.352879 
L 409.025617 359.015552 
L 409.15728 318.591204 
L 409.552136 318.591204 
L 409.68371 266.93787 
L 409.815261 266.93787 
L 409.94679 260.949078 
L 410.078297 315.347275 
L 410.209781 282.159384 
L 410.341243 289.894907 
L 410.604101 289.894907 
L 410.735496 286.900511 
L 410.866869 289.894907 
L 411.260854 283.407049 
L 411.523399 283.407049 
L 411.654639 251.965889 
L 411.785856 251.965889 
L 411.917051 300.125761 
L 412.048223 246.476163 
L 412.179373 246.476163 
L 412.310502 236.494843 
L 412.441607 267.936002 
L 412.572691 267.936002 
L 412.703753 272.67713 
L 412.834792 272.67713 
L 412.965809 285.15378 
L 413.096804 285.15378 
L 413.227776 274.423861 
L 413.620561 274.423861 
L 413.751445 296.382766 
L 414.013147 296.382766 
L 414.143964 274.423861 
L 414.274759 274.423861 
L 414.405533 270.680865 
L 414.536284 274.423861 
L 414.667013 283.407049 
L 414.797719 283.407049 
L 414.928404 282.907983 
L 415.059067 284.654714 
L 415.189707 284.654714 
L 415.320326 282.907983 
L 415.450922 273.675262 
L 415.712048 273.675262 
L 415.842578 247.224762 
L 415.973086 247.224762 
L 416.103572 234.748111 
L 416.234036 297.879964 
L 416.364478 250.468691 
L 416.494898 297.879964 
L 416.625295 250.468691 
L 416.755671 297.879964 
L 416.886025 297.380898 
L 417.016356 312.602412 
L 417.146666 312.602412 
L 417.276953 339.551977 
L 417.407219 312.602412 
L 417.537462 331.566921 
L 417.667684 331.566921 
L 417.797884 322.583732 
L 417.928061 176.856452 
L 418.058217 316.59494 
L 418.18835 223.519126 
L 418.318462 293.887436 
L 418.448552 293.637903 
L 418.578619 293.887436 
L 418.708665 293.637903 
L 418.968691 293.637903 
L 419.098671 277.418257 
L 419.228629 224.517258 
L 419.358565 224.517258 
L 419.488479 312.352879 
L 419.618371 256.207951 
L 419.748242 312.851945 
L 419.87809 315.097742 
L 420.007917 322.334199 
L 420.267504 322.334199 
L 420.397265 336.058515 
L 420.527004 272.427597 
L 420.786416 272.427597 
L 420.91609 287.150044 
L 421.045741 259.950946 
L 421.175371 287.150044 
L 421.564129 287.150044 
L 421.693671 300.87436 
L 422.082167 300.87436 
L 422.211622 268.435068 
L 422.341056 268.435068 
L 422.470467 309.358483 
L 422.858571 309.358483 
L 422.987895 307.362218 
L 423.117198 307.362218 
L 423.246479 294.885568 
L 423.375738 252.714488 
L 423.504975 252.714488 
L 423.892557 221.522862 
L 424.021707 221.522862 
L 424.150836 219.277065 
L 424.279943 221.522862 
L 424.409028 265.191139 
L 424.667133 265.191139 
L 424.796154 320.587468 
L 424.925152 326.077194 
L 425.054129 326.077194 
L 425.183084 327.32486 
L 425.312017 326.077194 
L 425.440929 274.922927 
L 425.569819 274.922927 
L 425.698688 262.446276 
L 425.827534 231.005116 
L 425.95636 241.984569 
L 426.213945 241.984569 
L 426.342705 269.682733 
L 426.471444 269.682733 
L 426.600161 278.665922 
L 426.85753 327.574393 
L 426.986182 317.094006 
L 427.114813 317.094006 
L 427.243422 265.939738 
L 427.500575 265.939738 
L 427.629119 281.660318 
L 427.757642 281.660318 
L 427.886143 288.148176 
L 428.14308 288.148176 
L 428.271517 291.142573 
L 428.399932 337.056647 
L 428.656697 337.056647 
L 428.785047 327.574393 
L 429.041683 257.206083 
L 429.169969 246.22663 
L 429.298233 246.22663 
L 429.426476 257.206083 
L 429.682897 320.088402 
L 429.811075 320.088402 
L 430.195481 237.243442 
L 430.451645 237.243442 
L 430.579694 259.45188 
L 430.835729 331.067855 
L 430.963714 331.067855 
L 430.963714 331.067855 
" clip-path="url(#p2c9de6bca4)" style="fill: none; stroke: #5088c5; stroke-linecap: round"/>
   </g>
   <g id="line2d_17">
    <path d="M 113.204884 135.933038 
L 113.391695 128.946114 
L 113.765203 128.946114 
L 114.138559 139.676033 
L 114.32518 139.676033 
L 114.511764 126.700317 
L 114.69831 139.676033 
L 115.071289 149.657354 
L 115.257721 163.631203 
L 115.630473 163.631203 
L 116.189319 137.929302 
L 116.561694 137.929302 
L 116.747826 181.348047 
L 116.933919 181.348047 
L 117.119975 187.087306 
L 117.491974 178.35365 
L 117.677917 152.152684 
L 118.235521 152.152684 
L 118.421314 157.64241 
L 118.60707 157.64241 
L 118.792787 149.657354 
L 118.978468 146.662958 
L 119.164111 146.662958 
L 119.535284 121.709656 
L 119.720814 134.43584 
L 119.906307 134.43584 
L 120.091763 135.433972 
L 120.277181 134.43584 
L 120.462562 135.683505 
L 120.647905 140.674165 
L 120.833211 137.929302 
L 121.20371 137.929302 
L 121.388904 141.92183 
L 121.75918 135.433972 
L 121.944261 135.433972 
L 122.129306 144.417161 
L 122.314313 144.417161 
L 122.499283 153.649882 
L 122.869111 153.649882 
L 123.053969 151.653618 
L 123.238789 148.409689 
L 123.608319 130.692845 
L 124.162335 130.692845 
L 124.346932 141.672297 
L 124.531493 174.610655 
L 124.716016 183.094778 
L 125.084951 183.094778 
L 125.269363 182.845245 
L 125.453737 182.845245 
L 125.638075 164.878868 
L 125.822375 164.878868 
L 126.006639 158.391009 
L 126.375054 124.704053 
L 126.743322 124.704053 
L 127.111441 160.13774 
L 127.295445 183.843377 
L 127.479412 185.340575 
L 127.847236 185.340575 
L 128.214911 127.698449 
L 128.398694 127.698449 
L 128.582439 114.473199 
L 128.766148 127.698449 
L 128.949819 132.439576 
L 129.500613 132.439576 
L 129.684137 139.176967 
L 129.867624 139.176967 
L 130.234488 181.348047 
L 130.784508 181.348047 
L 130.967775 157.64241 
L 131.151005 157.64241 
L 131.334198 177.355518 
L 131.517354 180.349915 
L 131.883556 180.349915 
L 132.066602 177.355518 
L 132.249611 164.379802 
L 132.61552 124.953586 
L 132.981282 124.953586 
L 133.164108 153.899415 
L 133.346897 164.130269 
L 133.712366 164.130269 
L 133.895045 155.14708 
L 134.625397 155.14708 
L 134.807894 144.417161 
L 135.172778 140.424632 
L 135.537515 140.424632 
L 135.719829 136.681637 
L 135.902107 141.672297 
L 136.084348 141.672297 
L 136.266553 136.681637 
L 136.448721 120.461991 
L 136.812948 120.461991 
L 136.995007 120.961057 
L 137.177029 128.696581 
L 137.359015 202.059287 
L 137.540965 223.02006 
L 137.722878 223.269593 
L 137.904755 229.757451 
L 138.086596 229.757451 
L 138.2684 223.269593 
L 138.6319 119.463859 
L 138.813595 102.495614 
L 139.358464 102.495614 
L 139.540014 114.972265 
L 139.721528 119.214326 
L 139.903006 119.214326 
L 140.084447 130.692845 
L 140.265852 130.692845 
L 140.628554 135.933038 
L 141.172336 153.150816 
L 141.534676 167.124665 
L 141.715792 167.124665 
L 141.896872 162.383538 
L 142.439894 162.383538 
L 142.62083 164.130269 
L 142.801729 164.130269 
L 143.16342 154.148948 
L 143.344211 140.674165 
L 144.067015 140.674165 
L 144.247626 146.413425 
L 144.428202 146.413425 
L 144.608741 154.398481 
L 144.969711 154.398481 
L 145.150143 146.413425 
L 145.510898 146.413425 
L 145.691222 155.895679 
L 145.871509 198.316292 
L 146.051761 198.316292 
L 146.231977 204.305084 
L 146.592302 194.323763 
L 146.77241 190.331235 
L 146.952483 142.171363 
L 147.13252 142.171363 
L 147.312521 135.683505 
L 147.492486 135.683505 
L 147.672416 133.936774 
L 147.85231 124.204986 
L 148.032168 124.204986 
L 148.21199 112.227402 
L 148.751242 112.227402 
L 148.930922 116.469463 
L 149.110565 124.454519 
L 149.469746 213.038739 
L 149.828783 213.038739 
L 150.187678 157.891943 
L 150.367072 110.730204 
L 150.725754 110.730204 
L 150.905041 121.709656 
L 151.084293 146.163892 
L 151.44269 146.163892 
L 151.980018 117.966661 
L 152.33806 117.966661 
L 152.695959 143.918095 
L 152.874856 147.162024 
L 153.053717 147.162024 
L 153.232543 168.621863 
L 153.590087 168.621863 
L 153.947491 127.698449 
L 154.126139 111.977869 
L 154.304752 122.707788 
L 154.661873 122.707788 
L 154.84038 183.593844 
L 155.018851 203.057419 
L 155.375689 203.057419 
L 155.554054 190.331235 
L 155.732385 149.657354 
L 155.91068 145.664826 
L 156.08894 122.957321 
L 156.267164 119.214326 
L 156.445354 119.214326 
L 156.623508 123.206854 
L 156.97971 123.206854 
L 157.157759 123.70592 
L 157.335772 128.946114 
L 157.51375 142.670429 
L 157.691692 145.16576 
L 158.047473 145.16576 
L 158.22531 138.677901 
L 158.758611 95.009624 
L 159.113969 95.009624 
L 159.291596 96.756355 
L 159.646744 96.756355 
L 159.824265 98.503086 
L 160.001751 98.503086 
L 160.179202 117.717128 
L 160.534 125.951718 
L 160.888657 125.951718 
L 161.243174 127.698449 
L 161.420381 127.698449 
L 161.597552 127.199383 
L 161.774688 103.493746 
L 162.128856 103.493746 
L 162.482884 151.653618 
L 162.836773 151.653618 
L 163.013665 139.176967 
L 163.190522 135.433972 
L 163.367344 135.433972 
L 163.544131 139.176967 
L 163.720884 153.899415 
L 163.897602 157.64241 
L 164.074285 157.891943 
L 164.250933 157.891943 
L 164.427546 157.64241 
L 164.604124 140.923698 
L 164.957177 140.923698 
L 165.133651 153.649882 
L 165.486496 160.387273 
L 165.662866 160.387273 
L 165.839201 156.893811 
L 166.015502 112.976001 
L 166.367999 112.976001 
L 166.544195 118.465727 
L 167.072577 118.465727 
L 167.248635 139.4265 
L 167.424659 137.679769 
L 167.600647 139.4265 
L 167.776601 147.411557 
L 167.952521 139.4265 
L 168.128406 137.679769 
L 168.304256 124.454519 
L 168.480072 94.760091 
L 168.655854 84.030171 
L 169.007313 84.030171 
L 169.18299 117.218062 
L 169.885356 117.218062 
L 170.060861 126.450784 
L 170.236332 187.087306 
L 170.587171 187.087306 
L 170.762538 151.653618 
L 170.937871 148.160156 
L 171.463664 148.160156 
L 171.63886 128.946114 
L 171.989148 128.946114 
L 172.16424 145.16576 
L 172.514322 145.16576 
L 172.689311 151.404085 
L 173.039187 151.404085 
L 173.214074 198.316292 
L 173.563744 198.316292 
L 174.262674 136.182571 
L 174.786512 136.182571 
L 174.961056 161.884472 
L 175.310042 161.884472 
L 175.484484 179.850849 
L 175.658892 179.850849 
L 175.833265 188.584504 
L 176.007605 179.850849 
L 176.18191 179.850849 
L 176.356181 175.109721 
L 176.530418 175.109721 
L 176.704621 164.629335 
L 176.87879 163.38167 
L 177.052925 156.893811 
L 177.227026 156.644278 
L 177.575125 128.447048 
L 177.749124 125.452652 
L 177.923089 128.447048 
L 178.097019 123.955453 
L 178.270916 128.447048 
L 178.444779 123.955453 
L 178.792402 123.955453 
L 178.966163 125.452652 
L 179.13989 125.452652 
L 179.313583 146.163892 
L 179.487242 146.163892 
L 179.660867 146.662958 
L 180.008015 145.914359 
L 180.181538 124.953586 
L 180.528484 124.953586 
L 180.701905 127.448916 
L 181.048647 127.448916 
L 181.221968 117.966661 
L 181.568507 117.966661 
L 181.914911 133.687241 
L 182.088062 141.422764 
L 182.261179 143.169496 
L 182.434263 143.169496 
L 182.607313 171.117193 
L 182.78033 177.854584 
L 183.126261 177.854584 
L 183.299176 164.629335 
L 183.644905 164.629335 
L 183.817719 196.070494 
L 183.9905 197.817225 
L 184.163246 219.277065 
L 184.508639 219.277065 
L 185.026476 141.173231 
L 185.371532 141.173231 
L 185.54401 163.880736 
L 185.716454 168.37233 
L 185.888865 180.100382 
L 186.061242 168.37233 
L 186.233586 168.37233 
L 186.405896 149.158288 
L 186.750415 149.158288 
L 186.922625 160.387273 
L 187.094801 160.387273 
L 187.266943 167.623731 
L 187.439052 168.621863 
L 187.611128 176.107853 
L 187.78317 176.856452 
L 187.955179 176.856452 
L 188.127154 176.107853 
L 188.299096 162.134005 
L 188.471005 159.888207 
L 188.64288 159.888207 
L 188.814721 162.134005 
L 188.98653 170.119061 
L 189.330046 170.119061 
L 189.501754 159.888207 
L 189.673429 140.674165 
L 189.845071 140.674165 
L 190.016679 157.392877 
L 190.188254 157.392877 
L 190.359795 140.674165 
L 190.702778 130.443312 
L 191.045629 130.443312 
L 191.217004 176.856452 
L 191.559654 176.856452 
L 191.73093 162.383538 
L 191.902172 162.383538 
L 192.073381 159.888207 
L 192.244557 162.383538 
L 192.415699 162.383538 
L 192.586809 157.891943 
L 192.757885 124.204986 
L 193.099938 124.204986 
L 193.612769 173.862056 
L 193.783647 173.862056 
L 193.954491 162.383538 
L 194.296081 162.383538 
L 194.466826 137.430236 
L 194.637538 137.430236 
L 194.808217 132.689109 
L 194.978863 82.532973 
L 195.149475 82.532973 
L 195.320055 70.305856 
L 195.661116 99.501218 
L 196.002045 155.396613 
L 196.342841 155.396613 
L 196.51319 147.66109 
L 196.853789 147.66109 
L 197.02404 148.908755 
L 197.194257 161.884472 
L 197.704711 161.884472 
L 198.044849 155.646146 
L 198.214869 144.916227 
L 198.384856 148.160156 
L 198.724732 148.160156 
L 199.064476 172.614391 
L 199.743571 172.614391 
L 199.913262 166.625599 
L 200.082921 166.625599 
L 200.252548 177.605051 
L 200.422141 177.605051 
L 200.591702 166.875132 
L 200.76123 182.096646 
L 200.930725 182.096646 
L 201.100188 180.599448 
L 201.269618 168.122797 
L 201.439015 180.599448 
L 201.60838 176.856452 
L 201.777711 176.856452 
L 202.285511 214.036871 
L 202.454713 214.036871 
L 202.623881 216.033135 
L 202.793017 233.500446 
L 202.962121 233.500446 
L 203.131192 230.50605 
L 203.30023 233.500446 
L 203.469236 233.500446 
L 203.638209 230.50605 
L 203.80715 230.50605 
L 204.313777 150.905019 
L 204.482587 150.905019 
L 204.651365 178.603183 
L 204.820111 178.603183 
L 204.988824 183.094778 
L 205.157504 183.094778 
L 205.326152 167.873264 
L 205.494768 165.377934 
L 205.831902 143.419029 
L 206.00042 143.419029 
L 206.168906 143.169496 
L 206.33736 151.404085 
L 206.505781 143.918095 
L 207.01085 194.573296 
L 207.179141 198.316292 
L 207.515628 198.316292 
L 207.683822 176.107853 
L 208.020114 166.126533 
L 208.188212 170.86766 
L 208.356277 170.86766 
L 208.52431 188.334971 
L 208.860279 188.334971 
L 209.531831 129.944246 
L 209.699638 129.944246 
L 209.867413 139.925566 
L 210.035156 187.336839 
L 210.202866 195.571428 
L 210.370545 195.571428 
L 210.705805 181.348047 
L 211.040937 181.348047 
L 211.208454 188.584504 
L 211.878204 188.584504 
L 212.045561 200.811622 
L 212.547439 200.811622 
L 212.881865 177.854584 
L 213.383263 177.854584 
L 213.550331 180.599448 
L 213.884373 180.599448 
L 214.218286 131.441444 
L 214.552071 131.441444 
L 214.718916 136.182571 
L 214.885729 181.098514 
L 215.05251 185.839641 
L 215.385976 185.839641 
L 215.719314 166.875132 
L 215.885936 166.625599 
L 216.219083 157.392877 
L 216.385609 157.392877 
L 216.552103 162.383538 
L 216.884995 188.584504 
L 217.051393 199.81349 
L 217.550398 199.81349 
L 217.716669 193.325631 
L 217.882909 192.577032 
L 218.049117 184.09291 
L 218.215293 184.09291 
L 218.381437 191.079834 
L 218.71363 191.079834 
L 218.879679 194.822829 
L 219.045696 209.295744 
L 219.211682 209.295744 
L 219.377636 205.802282 
L 219.709449 205.802282 
L 219.875308 205.303216 
L 220.041135 205.303216 
L 220.372695 164.379802 
L 220.704128 164.379802 
L 220.869797 156.644278 
L 221.366615 156.644278 
L 221.532157 156.145212 
L 221.697668 154.897547 
L 222.194013 154.897547 
L 222.690073 189.582636 
L 222.855364 189.582636 
L 223.020623 190.331235 
L 223.351046 202.30882 
L 223.681344 202.30882 
L 223.846446 187.087306 
L 224.011516 187.087306 
L 224.176555 179.850849 
L 224.341562 179.850849 
L 224.506538 196.320027 
L 224.671482 199.314424 
L 224.836396 199.314424 
L 225.001277 209.79481 
L 225.166128 209.79481 
L 225.330947 216.532202 
L 225.495734 197.817225 
L 225.660491 221.273329 
L 225.825216 196.819093 
L 225.989909 196.819093 
L 226.154572 189.08357 
L 226.319203 196.819093 
L 226.483802 196.819093 
L 226.648371 211.292008 
L 226.977414 211.292008 
L 227.306332 184.841509 
L 227.635124 184.841509 
L 227.799474 189.832169 
L 227.963792 202.807886 
L 228.128079 202.807886 
L 228.620754 170.368594 
L 228.784916 150.905019 
L 229.113147 150.905019 
L 229.60526 179.102249 
L 229.769236 186.58824 
L 229.93318 186.837773 
L 230.260976 186.837773 
L 230.424827 190.081702 
L 230.588646 186.837773 
L 230.916193 178.603183 
L 231.07992 179.601315 
L 231.40728 179.601315 
L 231.570914 190.830301 
L 231.898088 190.830301 
L 232.225138 109.981605 
L 232.552065 109.981605 
L 233.042222 179.601315 
L 233.205546 179.601315 
L 233.368838 163.38167 
L 233.695331 163.38167 
L 234.021701 189.08357 
L 234.184839 201.310688 
L 234.511023 201.310688 
L 234.674069 146.912491 
L 235.000068 146.912491 
L 235.163021 141.672297 
L 235.488835 165.377934 
L 236.140093 165.377934 
L 236.302831 115.970397 
L 236.628214 115.970397 
L 236.790859 143.419029 
L 236.953473 143.668562 
L 237.27861 174.610655 
L 237.766085 174.610655 
L 237.928516 183.094778 
L 238.090915 175.608787 
L 238.253284 175.608787 
L 238.740207 249.720092 
L 239.064669 249.720092 
L 239.226854 254.710753 
L 239.551133 235.496711 
L 239.713226 229.258385 
L 239.875289 196.56956 
L 240.037321 195.820961 
L 240.199323 195.820961 
L 240.523234 192.327499 
L 240.685144 192.327499 
L 240.847023 180.100382 
L 241.170691 180.100382 
L 241.332478 223.519126 
L 241.655963 223.519126 
L 242.14096 184.09291 
L 242.625684 184.09291 
L 242.787198 166.875132 
L 243.110134 166.875132 
L 243.271556 189.832169 
L 243.59431 189.832169 
L 243.916942 184.841509 
L 244.078213 172.863924 
L 244.239453 171.366726 
L 244.400663 171.366726 
L 244.561842 165.627467 
L 244.88411 178.852716 
L 245.045199 216.781735 
L 245.206257 216.781735 
L 245.367285 233.749979 
L 245.528283 227.262121 
L 245.68925 227.262121 
L 245.850187 213.288272 
L 246.011094 213.288272 
L 246.332817 183.344311 
L 246.493633 183.344311 
L 246.815175 191.079834 
L 246.975901 206.800414 
L 247.297261 206.800414 
L 247.618501 215.534069 
L 247.779075 202.059287 
L 247.93962 215.534069 
L 248.100134 216.532202 
L 248.260618 238.74064 
L 248.581496 238.74064 
L 248.74189 201.061155 
L 248.902254 192.826565 
L 249.062587 166.625599 
L 249.222891 166.625599 
L 249.543408 150.15642 
L 249.703621 150.15642 
L 249.863804 170.119061 
L 250.023957 174.610655 
L 250.184081 220.025664 
L 250.504237 220.025664 
L 250.66427 181.59758 
L 251.144189 181.59758 
L 251.304102 179.850849 
L 251.463986 174.860188 
L 251.783662 174.860188 
L 252.103219 210.293876 
L 252.262952 219.277065 
L 252.422656 221.772395 
L 252.582329 257.954682 
L 252.741973 262.695809 
L 252.901587 262.695809 
L 253.061171 257.954682 
L 253.220725 219.526598 
L 253.539743 219.526598 
L 253.699208 213.787338 
L 253.858643 213.787338 
L 254.177422 240.237838 
L 254.496083 240.237838 
L 254.655368 235.247178 
L 254.97385 178.603183 
L 255.292213 178.603183 
L 255.451349 193.325631 
L 255.769534 193.325631 
L 255.928581 174.361122 
L 256.246587 174.361122 
L 256.405545 194.07423 
L 256.564474 241.23597 
L 256.723372 241.23597 
L 256.882242 247.973361 
L 257.041081 246.725696 
L 257.199891 247.973361 
L 257.358671 246.725696 
L 257.517422 246.725696 
L 257.676143 210.044343 
L 258.152128 210.044343 
L 258.31073 209.545277 
L 258.469303 209.545277 
L 258.627846 195.820961 
L 258.78636 170.119061 
L 259.420118 170.119061 
L 259.578484 180.599448 
L 260.211652 180.599448 
L 260.369871 180.349915 
L 260.528059 180.349915 
L 260.686219 179.102249 
L 260.844348 163.38167 
L 261.002449 161.884472 
L 261.160519 165.128401 
L 261.476573 165.128401 
L 261.634555 175.85832 
L 261.792508 178.603183 
L 261.950432 190.331235 
L 262.266191 190.331235 
L 262.581833 160.636806 
L 262.739609 155.396613 
L 263.055075 155.396613 
L 263.370422 205.303216 
L 263.685653 205.303216 
L 264.000766 194.822829 
L 264.158279 185.340575 
L 264.315762 185.340575 
L 264.473216 184.841509 
L 265.10274 184.841509 
L 265.260047 222.271461 
L 265.574575 222.271461 
L 265.731795 204.055551 
L 265.888986 204.055551 
L 266.046148 196.56956 
L 266.20328 196.56956 
L 266.517457 153.649882 
L 266.674502 153.649882 
L 266.831518 171.366726 
L 266.988504 202.30882 
L 267.145462 202.30882 
L 267.30239 216.781735 
L 267.616159 216.781735 
L 267.773 204.554617 
L 267.929812 166.126533 
L 268.243348 166.126533 
L 268.400072 187.087306 
L 268.713434 187.087306 
L 268.870071 178.35365 
L 269.183259 178.35365 
L 269.49633 222.520994 
L 269.652822 240.986437 
L 269.965719 240.986437 
L 270.122124 199.314424 
L 270.2785 197.567692 
L 270.434847 182.595712 
L 270.591165 182.595712 
L 270.747454 189.333103 
L 270.903715 189.333103 
L 271.059946 193.824697 
L 271.216148 194.07423 
L 271.372322 194.07423 
L 271.528466 194.323763 
L 271.684582 194.07423 
L 271.840668 194.323763 
L 271.996726 193.824697 
L 272.152755 193.824697 
L 272.308755 172.614391 
L 272.620668 172.614391 
L 272.776581 211.791074 
L 273.088321 211.791074 
L 273.399946 156.394745 
L 273.711456 156.394745 
L 273.867167 188.334971 
L 274.02285 188.584504 
L 274.334129 211.042475 
L 274.489726 210.293876 
L 274.645293 211.042475 
L 274.800832 210.293876 
L 274.956342 210.293876 
L 275.111824 207.29948 
L 275.267276 179.601315 
L 275.578095 179.601315 
L 275.733462 180.100382 
L 276.044109 204.305084 
L 276.199389 245.478031 
L 276.354641 245.478031 
L 276.509864 249.221026 
L 276.820224 239.239706 
L 277.28555 214.286404 
L 277.440601 214.286404 
L 277.595624 227.761187 
L 278.06052 227.761187 
L 278.215428 219.027532 
L 278.679982 219.027532 
L 278.834776 218.0294 
L 278.989541 213.288272 
L 279.144278 193.575164 
L 279.298986 193.575164 
L 279.453666 213.288272 
L 279.608318 213.288272 
L 279.762941 219.776131 
L 279.917535 219.776131 
L 280.072101 230.50605 
L 280.226638 230.50605 
L 280.381147 220.275197 
L 280.535628 218.0294 
L 280.69008 220.275197 
L 280.844503 220.275197 
L 280.998898 237.742508 
L 281.153265 237.742508 
L 281.307603 249.221026 
L 281.616195 228.759319 
L 281.770448 225.265857 
L 281.924672 224.766791 
L 282.078869 176.357386 
L 282.233037 173.36299 
L 282.541287 173.36299 
L 282.69537 175.608787 
L 283.157449 226.014456 
L 283.465359 226.014456 
L 283.619272 212.29014 
L 283.773157 210.543409 
L 283.927013 178.852716 
L 284.234641 178.852716 
L 284.388412 166.625599 
L 284.542155 183.094778 
L 285.003215 183.094778 
L 285.156846 214.286404 
L 285.464021 214.286404 
L 285.617567 178.104117 
L 285.924573 178.104117 
L 286.078034 179.351782 
L 286.384872 194.822829 
L 286.538249 192.327499 
L 286.691597 194.822829 
L 286.844917 192.327499 
L 287.151473 192.327499 
L 287.304709 200.312556 
L 287.457917 199.314424 
L 287.764248 199.314424 
L 287.917371 194.323763 
L 288.070467 158.640542 
L 288.223534 158.640542 
L 288.376573 185.091042 
L 288.529584 185.091042 
L 288.682567 190.331235 
L 288.835522 191.5789 
L 288.988449 219.776131 
L 289.141348 221.023796 
L 289.294219 221.023796 
L 289.752664 245.727564 
L 289.905423 247.973361 
L 290.058154 245.727564 
L 290.210857 245.727564 
L 290.363532 209.295744 
L 290.516179 208.297612 
L 290.82139 208.297612 
L 291.278996 223.519126 
L 291.431475 223.519126 
L 291.583927 224.517258 
L 291.736351 224.517258 
L 291.888747 257.455616 
L 292.193455 257.455616 
L 292.345767 199.81349 
L 292.498051 196.819093 
L 292.802536 196.819093 
L 292.954737 241.735036 
L 293.10691 247.973361 
L 293.259055 247.973361 
L 293.411173 241.735036 
L 293.563262 213.537805 
L 293.715324 213.537805 
L 293.867358 212.539673 
L 294.019364 212.539673 
L 294.171342 213.537805 
L 294.323293 213.537805 
L 294.475216 203.806018 
L 294.778978 203.806018 
L 295.08263 186.837773 
L 295.537899 186.837773 
L 295.6896 186.58824 
L 295.841274 186.58824 
L 296.144538 161.634939 
L 296.447691 161.634939 
L 296.599226 180.599448 
L 296.750733 216.532202 
L 297.205089 216.532202 
L 297.356486 211.541541 
L 297.507856 188.834037 
L 297.810511 218.528466 
L 297.961798 207.549013 
L 298.264288 207.549013 
L 298.415492 178.852716 
L 298.717817 178.852716 
L 299.020032 227.262121 
L 299.322136 227.262121 
L 299.473147 177.355518 
L 299.624131 175.85832 
L 299.775087 170.86766 
L 299.926016 149.906887 
L 300.076917 149.906887 
L 300.378636 136.432104 
L 300.529455 140.175099 
L 300.680246 160.13774 
L 300.83101 160.13774 
L 301.132456 232.751847 
L 301.433791 235.746244 
L 301.584418 235.746244 
L 301.735017 238.74064 
L 302.036134 238.74064 
L 302.337141 201.809754 
L 302.638038 201.809754 
L 302.788446 199.314424 
L 303.239505 199.314424 
L 303.389804 226.014456 
L 303.690319 226.014456 
L 303.990724 199.563957 
L 304.140886 199.563957 
L 304.291021 203.556485 
L 304.441129 203.556485 
L 304.591209 214.036871 
L 304.891287 214.036871 
L 305.191257 193.076098 
L 305.341201 192.826565 
L 305.491118 181.847113 
L 305.79087 181.847113 
L 305.940705 194.822829 
L 306.090513 194.822829 
L 306.240294 202.059287 
L 306.390048 202.059287 
L 306.539774 195.571428 
L 306.689474 195.571428 
L 306.839146 202.059287 
L 306.988791 213.537805 
L 307.437563 213.537805 
L 307.5871 222.520994 
L 307.73661 211.292008 
L 308.184976 211.292008 
L 308.334377 194.573296 
L 308.782418 194.573296 
L 308.931711 178.35365 
L 309.080977 190.331235 
L 309.230216 190.331235 
L 309.379428 178.35365 
L 309.528613 178.35365 
L 309.677771 186.58824 
L 309.826901 175.608787 
L 309.976005 175.608787 
L 310.125082 178.35365 
L 310.274132 186.58824 
L 310.423155 201.310688 
L 310.572151 242.982701 
L 310.870062 242.982701 
L 311.167866 215.035003 
L 311.316727 215.035003 
L 311.76315 228.01072 
L 311.911903 228.01072 
L 312.06063 220.52473 
L 312.20933 171.117193 
L 312.358003 170.368594 
L 312.655269 170.368594 
L 313.100965 192.327499 
L 313.249477 225.51539 
L 313.397962 230.256517 
L 313.694852 230.256517 
L 313.843257 214.535937 
L 313.991635 210.792942 
L 314.139986 210.792942 
L 314.584879 165.128401 
L 314.733123 165.128401 
L 314.88134 210.044343 
L 315.177695 219.277065 
L 315.325832 237.492975 
L 315.622026 237.492975 
L 315.770083 213.038739 
L 315.918113 169.869528 
L 316.066117 161.634939 
L 316.362044 161.634939 
L 316.509967 221.273329 
L 316.657864 221.273329 
L 316.805734 246.22663 
L 316.953578 246.22663 
L 317.544686 210.792942 
L 317.84008 210.792942 
L 317.987737 217.280801 
L 318.282972 217.280801 
L 318.430549 189.333103 
L 318.725625 189.333103 
L 318.873123 199.81349 
L 319.020594 199.81349 
L 319.168038 220.025664 
L 319.757552 220.025664 
L 319.904864 198.066758 
L 320.199409 198.066758 
L 320.493848 205.053683 
L 320.788181 205.053683 
L 320.935307 189.08357 
L 321.229481 189.08357 
L 321.376529 194.822829 
L 321.52355 223.519126 
L 321.670545 225.016324 
L 321.817513 268.934134 
L 322.11137 268.934134 
L 322.258259 248.971493 
L 322.405121 245.727564 
L 322.551958 245.727564 
L 322.698768 244.729432 
L 322.845551 237.992041 
L 322.992308 237.992041 
L 323.432422 185.590108 
L 323.579073 185.590108 
L 324.018871 222.021928 
L 324.165417 225.764923 
L 324.311938 225.764923 
L 324.458432 231.753715 
L 324.604899 265.939738 
L 324.897756 265.939738 
L 325.336844 236.24531 
L 325.483154 220.774263 
L 325.629438 180.100382 
L 325.921927 180.100382 
L 326.068133 188.584504 
L 326.214312 207.29948 
L 326.360465 207.29948 
L 326.506591 199.563957 
L 326.944815 199.563957 
L 327.236832 214.535937 
L 327.382802 214.535937 
L 327.528746 218.0294 
L 328.112259 218.0294 
L 328.258072 206.550881 
L 328.54962 206.550881 
L 328.695355 224.018192 
L 328.986746 224.018192 
L 329.132403 216.282668 
L 329.423638 216.282668 
L 329.569216 223.768659 
L 329.860295 223.768659 
L 330.005795 222.770527 
L 330.296718 208.297612 
L 330.44214 206.301348 
L 330.732907 206.301348 
L 331.168863 217.280801 
L 331.314129 216.033135 
L 331.45937 210.293876 
L 331.604584 209.046211 
L 331.894936 209.046211 
L 332.040073 214.286404 
L 332.185184 226.014456 
L 332.475328 226.014456 
L 332.620361 219.277065 
L 332.765368 219.277065 
L 332.91035 218.777999 
L 333.200235 171.366726 
L 333.490017 165.128401 
L 333.634869 165.128401 
L 333.779696 166.875132 
L 333.924496 184.841509 
L 334.069271 186.338707 
L 334.50344 186.338707 
L 334.648112 187.835905 
L 334.937377 216.781735 
L 335.081971 217.031268 
L 335.22654 228.759319 
L 335.371082 217.031268 
L 335.515599 217.031268 
L 335.804556 195.072362 
L 335.948995 192.077966 
L 336.093409 192.077966 
L 336.237797 193.824697 
L 336.38216 193.824697 
L 336.815093 227.262121 
L 336.959353 231.254649 
L 337.391978 231.254649 
L 337.536135 227.511654 
L 337.824372 227.511654 
L 337.968452 229.258385 
L 338.112506 240.986437 
L 338.400538 246.22663 
L 338.544516 246.22663 
L 338.688468 250.468691 
L 338.976295 250.468691 
L 339.12017 246.22663 
L 339.26402 250.468691 
L 339.407844 245.977097 
L 339.695415 228.260253 
L 339.839163 228.260253 
L 339.982885 225.265857 
L 340.126581 225.265857 
L 340.413897 170.368594 
L 340.701111 170.368594 
L 340.84468 180.848981 
L 340.988223 235.995777 
L 341.275233 235.995777 
L 341.562141 191.828433 
L 341.705557 186.837773 
L 341.992312 186.837773 
L 342.135652 191.5789 
L 342.278966 222.770527 
L 342.422255 223.519126 
L 342.708756 248.472427 
L 342.995155 248.472427 
L 343.138317 236.24531 
L 343.281453 234.748111 
L 343.424564 219.027532 
L 343.71071 219.027532 
L 343.853745 225.265857 
L 343.996754 225.265857 
L 344.139738 229.008852 
L 344.282697 229.008852 
L 344.711421 235.247178 
L 345.139918 255.209819 
L 345.425456 255.209819 
L 345.568187 244.479899 
L 345.710892 223.519126 
L 345.853573 222.520994 
L 345.996228 216.033135 
L 346.281463 216.033135 
L 346.424042 218.278933 
L 346.566596 224.267725 
L 346.994108 224.267725 
L 347.278989 203.806018 
L 347.421392 203.806018 
L 347.56377 202.30882 
L 348.13303 202.30882 
L 348.275282 195.072362 
L 348.417508 195.072362 
L 348.55971 193.076098 
L 348.701887 193.076098 
L 348.844038 198.316292 
L 349.128266 198.316292 
L 349.270342 204.305084 
L 349.412393 248.472427 
L 349.69642 248.472427 
L 349.838395 198.316292 
L 349.980346 194.822829 
L 350.264172 194.822829 
L 350.406048 218.0294 
L 350.689724 218.0294 
L 350.973299 203.556485 
L 351.256775 199.81349 
L 351.540151 199.81349 
L 351.681801 230.50605 
L 351.823426 231.005116 
L 352.106602 267.187403 
L 352.389678 267.187403 
L 352.531179 266.93787 
L 352.814105 224.517258 
L 352.955531 224.517258 
L 353.096931 217.031268 
L 353.379658 217.031268 
L 353.520984 205.552749 
L 353.803562 205.552749 
L 353.944813 216.033135 
L 354.08604 217.031268 
L 354.227241 217.031268 
L 354.368418 224.018192 
L 354.932877 190.830301 
L 355.073929 190.830301 
L 355.496938 202.558353 
L 355.637891 204.055551 
L 355.778819 204.055551 
L 355.919723 206.550881 
L 356.201456 240.487371 
L 356.62387 240.487371 
L 356.764625 229.008852 
L 357.04606 229.008852 
L 357.186741 230.755583 
L 357.327397 230.755583 
L 357.468029 231.254649 
L 357.608635 231.254649 
L 357.749217 232.003248 
L 358.030307 232.003248 
L 358.170815 215.783602 
L 358.451756 215.783602 
L 358.59219 221.273329 
L 359.013344 255.708885 
L 359.153679 255.708885 
L 359.293989 207.049947 
L 359.434275 197.068626 
L 359.574537 197.068626 
L 359.714773 188.334971 
L 359.854985 188.334971 
L 360.275474 225.764923 
L 360.415588 225.764923 
L 360.555677 209.545277 
L 360.695741 208.048079 
L 360.975796 208.048079 
L 361.115787 208.297612 
L 361.535613 215.534069 
L 361.815373 215.534069 
L 361.955217 218.278933 
L 362.234831 218.278933 
L 362.654068 163.880736 
L 362.933437 163.880736 
L 363.631431 269.183667 
L 363.770957 269.183667 
L 364.049934 183.593844 
L 364.328814 183.593844 
L 364.468218 185.340575 
L 364.746952 198.066758 
L 364.886282 198.066758 
L 365.025588 208.297612 
L 365.16487 208.297612 
L 365.304127 284.904247 
L 365.721752 284.904247 
L 365.860912 285.403313 
L 366.000048 268.684601 
L 366.139159 265.690205 
L 366.278246 265.690205 
L 366.417308 232.502314 
L 366.556346 226.263989 
L 366.83435 204.554617 
L 366.973315 204.554617 
L 367.112257 197.068626 
L 367.251173 196.56956 
L 367.806598 196.56956 
L 367.945394 202.807886 
L 368.222912 204.80415 
L 368.361635 234.748111 
L 368.500334 234.997645 
L 368.639008 234.997645 
L 368.777658 235.995777 
L 368.916284 235.995777 
L 369.054886 234.997645 
L 369.470547 225.016324 
L 369.609052 222.021928 
L 369.747533 222.021928 
L 370.024422 227.511654 
L 370.439576 227.511654 
L 370.577912 226.513522 
L 370.854512 212.539673 
L 370.992776 205.802282 
L 371.131016 212.539673 
L 371.269231 212.539673 
L 371.821853 265.191139 
L 371.959949 242.733168 
L 372.236067 242.733168 
L 372.374091 239.988305 
L 372.51209 226.513522 
L 372.650065 225.764923 
L 372.788016 192.327499 
L 372.925943 189.08357 
L 373.063846 189.08357 
L 373.201725 192.327499 
L 373.477412 216.781735 
L 373.615219 216.781735 
L 373.753002 217.280801 
L 374.028496 217.280801 
L 374.166208 236.24531 
L 374.441558 236.24531 
L 374.579198 210.044343 
L 374.716813 210.044343 
L 374.854405 201.061155 
L 374.991973 210.044343 
L 375.267036 237.742508 
L 375.404532 234.997645 
L 375.542004 237.992041 
L 375.679452 234.997645 
L 375.816877 237.992041 
L 376.091654 233.500446 
L 376.229006 232.502314 
L 376.366335 232.502314 
L 376.50364 214.286404 
L 376.640921 211.791074 
L 376.778179 205.053683 
L 377.189808 205.053683 
L 377.32697 235.746244 
L 377.601222 235.746244 
L 377.87538 231.504182 
L 378.012423 223.768659 
L 378.149442 207.549013 
L 378.286437 207.549013 
L 378.423409 194.323763 
L 378.560357 194.323763 
L 378.697281 189.582636 
L 378.834182 194.323763 
L 378.971058 194.323763 
L 379.244741 176.357386 
L 379.381546 179.601315 
L 379.518328 179.601315 
L 379.655086 185.340575 
L 379.791821 213.288272 
L 379.928531 213.288272 
L 380.065218 214.78547 
L 380.201882 214.78547 
L 380.338521 203.556485 
L 380.475137 203.556485 
L 380.61173 204.554617 
L 380.748298 204.554617 
L 380.884843 216.282668 
L 381.157863 216.282668 
L 381.430787 202.807886 
L 381.567214 202.807886 
L 381.703617 203.057419 
L 381.839997 203.057419 
L 382.385279 254.46122 
L 382.657779 254.46122 
L 382.793994 212.539673 
L 383.202496 212.539673 
L 383.610786 163.132137 
L 383.882862 135.683505 
L 384.154844 135.683505 
L 384.2908 154.398481 
L 384.426732 203.806018 
L 384.562641 208.048079 
L 384.698526 208.048079 
L 384.834388 203.806018 
L 384.970226 203.806018 
L 385.106041 214.535937 
L 385.513345 214.535937 
L 385.649066 189.582636 
L 385.920437 189.582636 
L 386.327319 235.496711 
L 386.4629 233.250913 
L 386.598457 233.250913 
L 386.733991 203.057419 
L 387.004988 203.057419 
L 387.140452 215.783602 
L 387.275892 215.783602 
L 387.411309 217.530334 
L 387.682072 214.535937 
L 387.817419 199.064891 
L 388.088043 199.064891 
L 388.358573 233.00138 
L 388.62901 233.00138 
L 388.764194 232.502314 
L 389.169605 166.126533 
L 389.304695 166.126533 
L 389.439763 171.366726 
L 389.844825 209.79481 
L 390.11475 209.79481 
L 390.249677 207.549013 
L 390.519463 196.819093 
L 390.654321 194.822829 
L 390.789156 147.411557 
L 391.058756 147.411557 
L 391.328263 194.822829 
L 391.462982 199.314424 
L 391.597678 199.314424 
L 391.73235 211.541541 
L 391.867 211.541541 
L 392.001626 225.51539 
L 392.136229 225.51539 
L 392.270809 240.237838 
L 392.405365 231.753715 
L 392.539899 231.753715 
L 392.67441 221.772395 
L 392.808897 221.772395 
L 393.077802 212.539673 
L 393.21222 212.539673 
L 393.346615 211.292008 
L 393.480987 212.539673 
L 393.749662 235.995777 
L 394.018244 249.221026 
L 394.152501 244.230366 
L 394.286734 244.230366 
L 394.555132 215.783602 
L 394.689296 207.049947 
L 394.823437 190.830301 
L 394.957556 190.830301 
L 395.091651 179.351782 
L 395.225723 183.843377 
L 395.493799 183.843377 
L 396.163585 224.267725 
L 396.297473 224.267725 
L 396.431339 242.483635 
L 396.699001 242.483635 
L 396.832797 192.077966 
L 397.100321 192.077966 
L 397.234049 199.563957 
L 397.501436 236.494843 
L 397.635095 236.494843 
L 397.768731 216.781735 
L 397.902344 216.781735 
L 398.303046 172.115325 
L 398.436568 172.115325 
L 398.570067 186.837773 
L 398.836996 264.692073 
L 399.103834 264.692073 
L 399.503919 179.601315 
L 399.637235 179.601315 
L 399.770528 180.848981 
L 400.037047 207.29948 
L 400.303474 207.29948 
L 400.436653 164.878868 
L 400.702943 164.878868 
L 400.836054 207.049947 
L 400.969142 207.049947 
L 401.102208 220.52473 
L 401.235251 207.049947 
L 401.368271 220.52473 
L 401.634242 220.52473 
L 401.767194 219.526598 
L 401.900123 219.526598 
L 402.03303 196.819093 
L 402.298774 196.819093 
L 402.431612 212.29014 
L 402.697221 212.29014 
L 402.829991 212.040607 
L 402.962739 210.044343 
L 403.228166 190.580768 
L 403.626136 180.848981 
L 403.891337 180.848981 
L 404.288968 157.891943 
L 404.421467 124.204986 
L 404.686396 124.204986 
L 404.818827 195.321895 
L 404.951235 197.567692 
L 405.08362 205.303216 
L 405.348324 235.496711 
L 405.612937 254.211687 
L 405.87746 254.211687 
L 406.009687 218.278933 
L 406.141893 216.532202 
L 406.406235 216.532202 
L 406.670488 253.213555 
L 406.93465 253.213555 
L 407.066698 228.759319 
L 407.198723 228.260253 
L 407.330726 220.025664 
L 407.462706 183.094778 
L 407.726598 183.094778 
L 407.858511 233.250913 
L 408.122269 233.250913 
L 408.254114 227.511654 
L 408.385937 227.511654 
L 408.517738 225.016324 
L 408.649516 227.511654 
L 408.781272 227.511654 
L 409.176404 196.56956 
L 409.30807 196.56956 
L 409.439714 206.051815 
L 409.702934 206.051815 
L 409.966064 179.102249 
L 410.097596 167.623731 
L 410.229105 167.623731 
L 410.360593 179.102249 
L 410.492057 215.534069 
L 410.75492 215.534069 
L 411.017693 129.694713 
L 411.149046 125.951718 
L 411.280377 125.951718 
L 411.411685 112.726468 
L 411.805477 156.644278 
L 411.936696 164.130269 
L 412.067893 183.843377 
L 412.199068 183.843377 
L 412.46135 203.057419 
L 412.592458 210.293876 
L 412.723544 234.249045 
L 412.985649 234.249045 
L 413.116668 182.845245 
L 413.247664 179.351782 
L 413.509591 122.208722 
L 413.771429 122.208722 
L 413.902315 182.595712 
L 414.033178 189.08357 
L 414.16402 189.08357 
L 414.556411 174.361122 
L 414.817894 141.672297 
L 414.948602 141.672297 
L 415.079288 146.163892 
L 415.209953 146.163892 
L 415.993472 232.751847 
L 416.384934 186.58824 
L 416.515377 145.415293 
L 416.776196 145.415293 
L 416.906573 157.143344 
L 417.297571 157.143344 
L 417.427859 152.65175 
L 417.818593 131.191911 
L 417.948793 128.197515 
L 418.078971 118.216194 
L 418.209128 118.216194 
L 418.859579 177.854584 
L 419.119606 161.634939 
L 419.249587 156.893811 
L 419.769289 156.893811 
L 419.89916 154.398481 
L 420.029008 154.398481 
L 420.158835 147.411557 
L 420.28864 147.411557 
L 420.548184 140.424632 
L 420.677923 139.676033 
L 421.06701 139.676033 
L 421.326291 130.443312 
L 421.585485 130.443312 
L 421.715049 139.4265 
L 421.974111 139.4265 
L 422.10361 138.677901 
L 422.233087 121.460123 
L 422.362542 121.460123 
L 422.621386 137.679769 
L 422.750775 134.685373 
L 422.880143 134.685373 
L 423.009489 85.527369 
L 423.138813 85.028303 
L 423.268115 80.037643 
L 423.397395 85.028303 
L 423.526654 85.028303 
L 423.655891 151.903151 
L 423.785106 154.148948 
L 423.914299 191.079834 
L 424.172621 191.079834 
L 424.430855 124.704053 
L 424.559939 120.961057 
L 425.205036 33.874036 
L 425.33399 33.874036 
L 425.84959 146.912491 
L 426.10726 146.912491 
L 426.364843 56.831073 
L 426.62234 56.831073 
L 427.008422 98.503086 
L 427.137073 98.503086 
L 427.39431 172.364858 
L 427.65146 172.364858 
L 427.908524 126.94985 
L 428.037024 100.748883 
L 428.293958 100.748883 
L 428.422393 140.175099 
L 428.550807 140.175099 
L 428.679198 144.916227 
L 428.807568 140.175099 
L 428.935917 140.175099 
L 429.064244 79.039511 
L 429.320834 79.039511 
L 429.577337 129.944246 
L 429.705556 130.692845 
L 429.96193 142.171363 
L 429.96193 142.171363 
" clip-path="url(#p2c9de6bca4)" style="fill: none; stroke: #f28360; stroke-linecap: round"/>
   </g>
   <g id="patch_3">
    <path d="M 100.494531 394.59896 
L 100.494531 20 
" style="fill: none; stroke: #000000; stroke-width: 0.75; stroke-linejoin: miter; stroke-linecap: square"/>
   </g>
   <g id="patch_4">
    <path d="M 100.494531 394.59896 
L 443.674067 394.59896 
" style="fill: none; stroke: #000000; stroke-width: 0.75; stroke-linejoin: miter; stroke-linecap: square"/>
   </g>
  </g>
 </g>
 <defs>
  <clipPath id="p2c9de6bca4">
   <rect x="100.494531" y="20" width="343.179536" height="374.59896"/>
  </clipPath>
 </defs>
</svg>
