<?xml version="1.0" encoding="utf-8" standalone="no"?>
<!DOCTYPE svg PUBLIC "-//W3C//DTD SVG 1.1//EN"
  "http://www.w3.org/Graphics/SVG/1.1/DTD/svg11.dtd">
<svg xmlns:xlink="http://www.w3.org/1999/xlink" width="463.99826pt" height="463.99896pt" viewBox="0 0 463.99826 463.99896" xmlns="http://www.w3.org/2000/svg" version="1.1">
 <metadata>
  <rdf:RDF xmlns:dc="http://purl.org/dc/elements/1.1/" xmlns:cc="http://creativecommons.org/ns#" xmlns:rdf="http://www.w3.org/1999/02/22-rdf-syntax-ns#">
   <cc:Work>
    <dc:type rdf:resource="http://purl.org/dc/dcmitype/StillImage"/>
    <dc:date>2025-02-06T14:52:35.376857</dc:date>
    <dc:format>image/svg+xml</dc:format>
    <dc:creator>
     <cc:Agent>
      <dc:title>Matplotlib v3.8.4, https://matplotlib.org/</dc:title>
     </cc:Agent>
    </dc:creator>
   </cc:Work>
  </rdf:RDF>
 </metadata>
 <defs>
  <style type="text/css">*{stroke-linejoin: round; stroke-linecap: butt}</style>
 </defs>
 <g id="figure_1">
  <g id="patch_1">
   <path d="M 0 463.99896 
L 463.99826 463.99896 
L 463.99826 0 
L 0 0 
L 0 463.99896 
z
" style="fill: none"/>
  </g>
  <g id="axes_1">
   <g id="patch_2">
    <path d="M 81.762344 397.163023 
L 432.192394 397.163023 
L 432.192394 20 
L 81.762344 20 
L 81.762344 397.163023 
z
" style="fill: none"/>
   </g>
   <g id="matplotlib.axis_1">
    <g id="xtick_1">
     <g id="line2d_1">
      <defs>
       <path id="m73750d2ce0" d="M 0 0 
L 0 5 
" style="stroke: #000000; stroke-width: 0.75"/>
      </defs>
      <g>
       <use xlink:href="#m73750d2ce0" x="83.771304" y="397.163023" style="stroke: #000000; stroke-width: 0.75"/>
      </g>
     </g>
     <g id="text_1">
      <text style="font: 14.5px &quot;Suisse Int&apos;l Mono&quot;; text-anchor: middle" x="83.771304" y="417.675522" transform="rotate(-0 83.771304 417.675522)">540</text>
     </g>
    </g>
    <g id="xtick_2">
     <g id="line2d_2">
      <g>
       <use xlink:href="#m73750d2ce0" x="141.467607" y="397.163023" style="stroke: #000000; stroke-width: 0.75"/>
      </g>
     </g>
     <g id="text_2">
      <text style="font: 14.5px &quot;Suisse Int&apos;l Mono&quot;; text-anchor: middle" x="141.467607" y="417.675522" transform="rotate(-0 141.467607 417.675522)">560</text>
     </g>
    </g>
    <g id="xtick_3">
     <g id="line2d_3">
      <g>
       <use xlink:href="#m73750d2ce0" x="199.16391" y="397.163023" style="stroke: #000000; stroke-width: 0.75"/>
      </g>
     </g>
     <g id="text_3">
      <text style="font: 14.5px &quot;Suisse Int&apos;l Mono&quot;; text-anchor: middle" x="199.16391" y="417.675522" transform="rotate(-0 199.16391 417.675522)">580</text>
     </g>
    </g>
    <g id="xtick_4">
     <g id="line2d_4">
      <g>
       <use xlink:href="#m73750d2ce0" x="256.860212" y="397.163023" style="stroke: #000000; stroke-width: 0.75"/>
      </g>
     </g>
     <g id="text_4">
      <text style="font: 14.5px &quot;Suisse Int&apos;l Mono&quot;; text-anchor: middle" x="256.860212" y="417.675522" transform="rotate(-0 256.860212 417.675522)">600</text>
     </g>
    </g>
    <g id="xtick_5">
     <g id="line2d_5">
      <g>
       <use xlink:href="#m73750d2ce0" x="314.556515" y="397.163023" style="stroke: #000000; stroke-width: 0.75"/>
      </g>
     </g>
     <g id="text_5">
      <text style="font: 14.5px &quot;Suisse Int&apos;l Mono&quot;; text-anchor: middle" x="314.556515" y="417.675522" transform="rotate(-0 314.556515 417.675522)">620</text>
     </g>
    </g>
    <g id="xtick_6">
     <g id="line2d_6">
      <g>
       <use xlink:href="#m73750d2ce0" x="372.252817" y="397.163023" style="stroke: #000000; stroke-width: 0.75"/>
      </g>
     </g>
     <g id="text_6">
      <text style="font: 14.5px &quot;Suisse Int&apos;l Mono&quot;; text-anchor: middle" x="372.252817" y="417.675522" transform="rotate(-0 372.252817 417.675522)">640</text>
     </g>
    </g>
    <g id="xtick_7">
     <g id="line2d_7">
      <g>
       <use xlink:href="#m73750d2ce0" x="429.94912" y="397.163023" style="stroke: #000000; stroke-width: 0.75"/>
      </g>
     </g>
     <g id="text_7">
      <text style="font: 14.5px &quot;Suisse Int&apos;l Mono&quot;; text-anchor: middle" x="429.94912" y="417.675522" transform="rotate(-0 429.94912 417.675522)">660</text>
     </g>
    </g>
    <g id="text_8">
     <text style="font: 500 15px &quot;Suisse Int&apos;l&quot;, sans-serif; text-anchor: middle" x="256.977369" y="441.088023" transform="rotate(-0 256.977369 441.088023)">Wavelength (nm)</text>
    </g>
   </g>
   <g id="matplotlib.axis_2">
    <g id="ytick_1">
     <g id="line2d_8">
      <defs>
       <path id="maa8e48ae9a" d="M 0 0 
L -5 0 
" style="stroke: #000000; stroke-width: 0.75"/>
      </defs>
      <g>
       <use xlink:href="#maa8e48ae9a" x="81.762344" y="383.134194" style="stroke: #000000; stroke-width: 0.75"/>
      </g>
     </g>
     <g id="text_9">
      <text style="font: 14.5px &quot;Suisse Int&apos;l Mono&quot;; text-anchor: end" x="71.762344" y="388.390444" transform="rotate(-0 71.762344 388.390444)">0</text>
     </g>
    </g>
    <g id="ytick_2">
     <g id="line2d_9">
      <g>
       <use xlink:href="#maa8e48ae9a" x="81.762344" y="320.644781" style="stroke: #000000; stroke-width: 0.75"/>
      </g>
     </g>
     <g id="text_10">
      <text style="font: 14.5px &quot;Suisse Int&apos;l Mono&quot;; text-anchor: end" x="71.762344" y="325.901031" transform="rotate(-0 71.762344 325.901031)">20</text>
     </g>
    </g>
    <g id="ytick_3">
     <g id="line2d_10">
      <g>
       <use xlink:href="#maa8e48ae9a" x="81.762344" y="258.155369" style="stroke: #000000; stroke-width: 0.75"/>
      </g>
     </g>
     <g id="text_11">
      <text style="font: 14.5px &quot;Suisse Int&apos;l Mono&quot;; text-anchor: end" x="71.762344" y="263.411619" transform="rotate(-0 71.762344 263.411619)">40</text>
     </g>
    </g>
    <g id="ytick_4">
     <g id="line2d_11">
      <g>
       <use xlink:href="#maa8e48ae9a" x="81.762344" y="195.665956" style="stroke: #000000; stroke-width: 0.75"/>
      </g>
     </g>
     <g id="text_12">
      <text style="font: 14.5px &quot;Suisse Int&apos;l Mono&quot;; text-anchor: end" x="71.762344" y="200.922206" transform="rotate(-0 71.762344 200.922206)">60</text>
     </g>
    </g>
    <g id="ytick_5">
     <g id="line2d_12">
      <g>
       <use xlink:href="#maa8e48ae9a" x="81.762344" y="133.176544" style="stroke: #000000; stroke-width: 0.75"/>
      </g>
     </g>
     <g id="text_13">
      <text style="font: 14.5px &quot;Suisse Int&apos;l Mono&quot;; text-anchor: end" x="71.762344" y="138.432794" transform="rotate(-0 71.762344 138.432794)">80</text>
     </g>
    </g>
    <g id="ytick_6">
     <g id="line2d_13">
      <g>
       <use xlink:href="#maa8e48ae9a" x="81.762344" y="70.687131" style="stroke: #000000; stroke-width: 0.75"/>
      </g>
     </g>
     <g id="text_14">
      <text style="font: 14.5px &quot;Suisse Int&apos;l Mono&quot;; text-anchor: end" x="71.762344" y="75.943381" transform="rotate(-0 71.762344 75.943381)">100</text>
     </g>
    </g>
    <g id="text_15">
     <text style="font: 500 15px &quot;Suisse Int&apos;l&quot;, sans-serif; text-anchor: middle" x="30.875" y="208.581511" transform="rotate(-90 30.875 208.581511)">Intensity (au)</text>
    </g>
   </g>
   <g id="line2d_14">
    <path d="M 94.741235 383.192667 
L 98.38699 383.187402 
L 156.719084 383.094968 
L 158.304195 382.897217 
L 161.79144 383.159066 
L 169.082951 383.143304 
L 172.094663 383.147409 
L 175.106374 383.08753 
L 175.898929 382.996686 
L 176.849996 383.080985 
L 177.959574 383.145802 
L 183.190441 383.10158 
L 183.982997 382.545597 
L 184.617041 382.483577 
L 184.934064 382.564969 
L 185.568108 383.028142 
L 186.043641 383.125891 
L 187.470241 383.046452 
L 187.787264 382.901476 
L 188.104286 381.727331 
L 188.421308 380.548406 
L 188.73833 380.264017 
L 189.372375 380.132195 
L 189.530886 380.343018 
L 190.164931 382.694245 
L 190.481953 382.989726 
L 190.957486 383.119406 
L 199.358576 383.075027 
L 200.151131 382.623019 
L 200.943687 382.581692 
L 201.260709 382.628526 
L 201.577731 382.963092 
L 203.796887 382.992008 
L 203.955398 382.804773 
L 204.430932 381.641576 
L 204.906465 381.336577 
L 205.381998 381.244636 
L 205.54051 381.283425 
L 205.699021 381.548645 
L 206.016043 382.467768 
L 206.333065 382.760341 
L 206.96711 382.914435 
L 209.027754 382.870287 
L 210.929888 382.496617 
L 212.197977 381.960324 
L 212.67351 381.418053 
L 212.832021 380.949147 
L 212.990532 380.096899 
L 213.149043 370.839607 
L 213.307555 318.290713 
L 213.783088 80.367317 
L 214.10011 47.247958 
L 214.417132 35.121916 
L 214.575644 33.969001 
L 214.734155 33.969015 
L 214.892666 47.519859 
L 215.051177 110.831646 
L 215.368199 288.109764 
L 215.685221 339.38673 
L 216.002244 366.90116 
L 216.319266 379.203229 
L 216.636288 381.66531 
L 216.95331 382.071739 
L 217.745866 382.374572 
L 218.538422 382.597794 
L 219.172466 382.548329 
L 219.489488 382.26425 
L 220.123533 382.216628 
L 220.916088 382.277034 
L 221.0746 382.597463 
L 221.391622 382.660387 
L 221.550133 382.5597 
L 221.708644 380.659193 
L 222.184177 361.076773 
L 222.5012 357.453353 
L 222.976733 354.771976 
L 223.293755 354.819809 
L 223.452266 358.869762 
L 223.769289 374.323736 
L 224.086311 379.006502 
L 224.561844 382.081118 
L 224.878867 382.811086 
L 225.195889 382.959809 
L 227.098022 383.041093 
L 227.573556 382.989583 
L 227.890578 382.384652 
L 228.2076 382.007901 
L 228.841645 381.692668 
L 229.158667 381.363753 
L 229.317178 381.363767 
L 229.792711 382.137274 
L 230.585267 382.540809 
L 230.902289 382.827601 
L 234.072512 382.874508 
L 234.706556 383.051754 
L 236.291667 383.077703 
L 238.193801 382.960479 
L 239.620401 382.704894 
L 239.778912 381.231657 
L 240.412957 341.171467 
L 240.88849 334.044903 
L 241.205512 331.536605 
L 241.364023 331.536618 
L 241.522534 335.380981 
L 241.998068 370.496321 
L 242.473601 378.588678 
L 242.949135 382.255066 
L 243.266157 382.879613 
L 243.74169 382.972825 
L 244.692757 383.032833 
L 245.485313 382.943853 
L 245.802335 382.860332 
L 246.277868 382.452316 
L 247.545957 382.554501 
L 247.862979 382.870537 
L 248.338513 382.925662 
L 248.497024 382.697433 
L 248.655535 381.616942 
L 249.131068 372.409105 
L 249.606602 370.059543 
L 249.923624 369.170346 
L 250.082135 369.170359 
L 250.240646 369.401584 
L 250.399157 371.410632 
L 250.71618 378.692363 
L 251.033202 380.753228 
L 251.508735 382.317847 
L 251.825757 382.870655 
L 252.14278 382.97304 
L 252.301291 382.970773 
L 252.776824 382.648305 
L 253.410869 382.519069 
L 253.727891 382.387306 
L 253.886402 382.387319 
L 254.520447 382.729284 
L 256.105558 383.063424 
L 256.739602 383.008548 
L 257.84918 383.047571 
L 258.641736 383.110844 
L 264.031114 383.038935 
L 264.189625 382.977801 
L 264.348136 381.953455 
L 264.82367 371.077488 
L 265.299203 368.476089 
L 265.774736 367.037305 
L 265.933247 367.037317 
L 266.091759 369.634701 
L 266.408781 377.795029 
L 266.725803 380.069761 
L 267.201336 381.972755 
L 267.67687 382.899914 
L 267.993892 383.047787 
L 269.420492 383.055856 
L 271.481137 383.080238 
L 276.553493 382.842137 
L 276.870515 382.731299 
L 277.029026 382.010086 
L 277.187537 372.684894 
L 277.504559 346.38593 
L 277.821582 338.307004 
L 278.297115 331.744393 
L 278.455626 330.460869 
L 278.614137 330.460878 
L 278.772648 331.732234 
L 279.248182 366.756014 
L 279.723715 375.824098 
L 280.199248 380.51783 
L 280.516271 382.289016 
L 280.833293 382.758298 
L 281.308826 382.848122 
L 282.576915 382.764364 
L 283.21096 382.347314 
L 283.369471 378.291979 
L 283.845004 316.223584 
L 284.162027 304.646188 
L 284.63756 294.492935 
L 284.796071 292.107723 
L 284.954582 292.107732 
L 285.113093 302.094799 
L 285.430116 348.354167 
L 285.747138 362.680507 
L 286.222671 374.34887 
L 286.698204 380.725253 
L 287.015227 382.435013 
L 287.332249 382.822309 
L 288.600338 382.966918 
L 290.502471 382.909722 
L 291.77056 382.978938 
L 292.563116 382.969671 
L 292.721627 382.660795 
L 293.038649 381.359502 
L 293.355672 380.914408 
L 293.989716 380.424214 
L 294.306738 380.396611 
L 294.940783 382.124042 
L 295.416316 382.440796 
L 296.050361 382.558937 
L 296.367383 382.45291 
L 296.684405 382.056276 
L 296.842916 378.294016 
L 297.476961 280.359176 
L 297.952494 261.101841 
L 298.269516 252.960113 
L 298.428028 252.960122 
L 298.586539 261.249039 
L 298.903561 326.91918 
L 299.220583 349.951546 
L 299.696117 367.490788 
L 300.17165 377.64497 
L 300.488672 381.392227 
L 300.805694 382.411854 
L 301.122717 382.642707 
L 301.59825 382.718815 
L 302.549317 382.68553 
L 302.707828 382.257549 
L 302.866339 376.236453 
L 303.183361 357.15461 
L 303.500384 350.458888 
L 303.975917 345.43914 
L 304.134428 344.38339 
L 304.292939 344.383399 
L 304.45145 344.583374 
L 304.926984 369.12393 
L 305.244006 374.459607 
L 305.719539 379.15965 
L 306.195073 381.797636 
L 306.512095 382.585332 
L 306.829117 382.759946 
L 308.414228 382.751786 
L 309.206784 382.615854 
L 309.840828 382.647353 
L 310.316362 382.90646 
L 315.547229 382.953699 
L 316.656807 382.92004 
L 317.13234 382.977085 
L 317.449362 382.826251 
L 318.083407 382.448595 
L 318.241918 381.04356 
L 318.717451 363.843685 
L 319.034474 359.986229 
L 319.510007 356.822725 
L 319.668518 356.270327 
L 319.827029 356.270335 
L 319.98554 359.024876 
L 320.302563 371.26438 
L 320.619585 375.813499 
L 321.095118 379.429254 
L 321.570652 381.5791 
L 321.887674 382.534048 
L 322.204696 382.918998 
L 322.838741 383.040696 
L 330.130252 382.986379 
L 332.032386 382.593956 
L 332.190897 382.38306 
L 332.349408 380.942873 
L 332.507919 368.685018 
L 332.824941 332.870474 
L 333.141964 317.297187 
L 333.617497 306.903341 
L 333.776008 304.103509 
L 333.934519 304.103516 
L 334.09303 305.364558 
L 334.568564 350.688147 
L 334.885586 361.931567 
L 335.361119 372.368567 
L 335.995164 380.221761 
L 336.312186 382.188315 
L 336.629208 382.751294 
L 337.104742 382.916722 
L 338.531342 383.02932 
L 340.750497 382.972595 
L 342.177098 382.909277 
L 342.811142 382.906017 
L 343.128164 382.841694 
L 343.286675 382.648794 
L 343.445187 381.218511 
L 344.079231 359.755386 
L 344.554764 354.646892 
L 344.871787 352.67005 
L 345.030298 352.670055 
L 345.188809 355.130893 
L 345.505831 367.66628 
L 345.822853 373.434688 
L 346.298387 377.75194 
L 346.77392 380.479837 
L 347.249453 382.266769 
L 347.566476 382.696862 
L 348.359031 382.944971 
L 350.102654 382.925937 
L 351.529254 381.959397 
L 351.687765 381.80021 
L 351.846276 381.228593 
L 352.004787 377.09358 
L 352.480321 335.63412 
L 352.797343 323.325903 
L 353.272876 313.561948 
L 353.431387 311.451373 
L 353.589898 311.451378 
L 353.74841 318.276477 
L 354.065432 346.394223 
L 354.382454 359.585124 
L 354.857987 370.088047 
L 355.492032 378.758817 
L 355.809054 381.447059 
L 356.126076 382.580253 
L 356.443099 382.851217 
L 356.918632 382.93903 
L 361.039921 382.989124 
L 364.844188 382.711856 
L 365.478233 382.453952 
L 365.636744 382.33004 
L 365.795255 381.737833 
L 365.953766 378.236431 
L 366.904833 282.038667 
L 367.380366 267.539264 
L 367.538877 267.539269 
L 367.697388 270.071658 
L 368.172922 327.188559 
L 368.648455 352.888282 
L 369.2825 369.92979 
L 369.758033 378.883289 
L 370.075055 381.40809 
L 370.392077 382.125885 
L 370.7091 382.194508 
L 371.026122 382.069915 
L 371.184633 381.821275 
L 371.343144 380.946584 
L 371.501655 376.107722 
L 371.818678 314.130264 
L 372.1357 264.08719 
L 372.452722 236.181929 
L 372.928255 213.412677 
L 373.086767 213.412682 
L 373.245278 216.275327 
L 373.879322 313.484502 
L 374.354856 344.012158 
L 374.9889 367.506011 
L 375.305922 376.648472 
L 375.622945 380.810277 
L 375.939967 382.196021 
L 376.256989 382.611648 
L 376.891034 382.832819 
L 383.231478 383.092246 
L 398.765568 382.991928 
L 400.509191 382.776909 
L 401.143235 382.533735 
L 401.301746 382.372263 
L 401.460258 381.797767 
L 401.618769 378.539976 
L 401.77728 364.375189 
L 402.252813 302.600345 
L 402.728347 271.452812 
L 403.045369 260.651519 
L 403.20388 260.308765 
L 403.362391 260.308766 
L 404.313458 345.03754 
L 404.788991 362.263373 
L 405.423036 377.706885 
L 405.740058 381.340114 
L 406.05708 382.350819 
L 406.532614 382.779062 
L 407.800702 382.942227 
L 408.91028 382.854435 
L 409.068791 382.7288 
L 409.227303 381.955869 
L 409.385814 378.516172 
L 409.861347 360.327162 
L 410.33688 351.297756 
L 410.653903 347.816473 
L 410.812414 347.224386 
L 410.970925 347.224387 
L 412.080503 373.79614 
L 412.556036 378.257886 
L 413.03157 381.476968 
L 413.348592 382.54232 
L 413.665614 382.899449 
L 414.141147 383.037365 
L 415.250725 383.095327 
L 419.213503 383.155536 
L 419.213503 383.155536 
" clip-path="url(#p85ca54ddc1)" style="fill: none; stroke: #5088c5; stroke-linecap: round"/>
   </g>
   <g id="line2d_15">
    <defs>
     <path id="m523d6ba45c" d="M 0 2 
C 0.530406 2 1.03916 1.789267 1.414214 1.414214 
C 1.789267 1.03916 2 0.530406 2 0 
C 2 -0.530406 1.789267 -1.03916 1.414214 -1.414214 
C 1.03916 -1.789267 0.530406 -2 0 -2 
C -0.530406 -2 -1.03916 -1.789267 -1.414214 -1.414214 
C -1.789267 -1.03916 -2 -0.530406 -2 0 
C -2 0.530406 -1.789267 1.03916 -1.414214 1.414214 
C -1.03916 1.789267 -0.530406 2 0 2 
z
"/>
    </defs>
    <g clip-path="url(#p85ca54ddc1)">
     <use xlink:href="#m523d6ba45c" x="214.3791" y="35.121916" style="fill: #f28360"/>
     <use xlink:href="#m523d6ba45c" x="222.858573" y="355.451846" style="fill: #f28360"/>
     <use xlink:href="#m523d6ba45c" x="240.986733" y="332.47737" style="fill: #f28360"/>
     <use xlink:href="#m523d6ba45c" x="278.284811" y="331.744393" style="fill: #f28360"/>
     <use xlink:href="#m523d6ba45c" x="284.571233" y="294.492935" style="fill: #f28360"/>
     <use xlink:href="#m523d6ba45c" x="298.087375" y="256.974736" style="fill: #f28360"/>
     <use xlink:href="#m523d6ba45c" x="304.000793" y="345.43914" style="fill: #f28360"/>
     <use xlink:href="#m523d6ba45c" x="319.470345" y="356.822725" style="fill: #f28360"/>
     <use xlink:href="#m523d6ba45c" x="333.675583" y="306.903341" style="fill: #f28360"/>
     <use xlink:href="#m523d6ba45c" x="344.732009" y="353.54146" style="fill: #f28360"/>
     <use xlink:href="#m523d6ba45c" x="353.290585" y="313.561948" style="fill: #f28360"/>
     <use xlink:href="#m523d6ba45c" x="367.326679" y="267.539264" style="fill: #f28360"/>
     <use xlink:href="#m523d6ba45c" x="372.897125" y="213.412677" style="fill: #f28360"/>
     <use xlink:href="#m523d6ba45c" x="403.076268" y="260.651519" style="fill: #f28360"/>
     <use xlink:href="#m523d6ba45c" x="410.712587" y="347.816473" style="fill: #f28360"/>
    </g>
   </g>
   <g id="patch_3">
    <path d="M 81.762344 397.163023 
L 81.762344 20 
" style="fill: none; stroke: #000000; stroke-width: 0.75; stroke-linejoin: miter; stroke-linecap: square"/>
   </g>
   <g id="patch_4">
    <path d="M 81.762344 397.163023 
L 432.192394 397.163023 
" style="fill: none; stroke: #000000; stroke-width: 0.75; stroke-linejoin: miter; stroke-linecap: square"/>
   </g>
  </g>
 </g>
 <defs>
  <clipPath id="p85ca54ddc1">
   <rect x="81.762344" y="20" width="350.43005" height="377.163023"/>
  </clipPath>
 </defs>
</svg>
