<?xml version="1.0" encoding="utf-8" standalone="no"?>
<!DOCTYPE svg PUBLIC "-//W3C//DTD SVG 1.1//EN"
  "http://www.w3.org/Graphics/SVG/1.1/DTD/svg11.dtd">
<svg xmlns:xlink="http://www.w3.org/1999/xlink" width="463.926489pt" height="463.99896pt" viewBox="0 0 463.926489 463.99896" xmlns="http://www.w3.org/2000/svg" version="1.1">
 <metadata>
  <rdf:RDF xmlns:dc="http://purl.org/dc/elements/1.1/" xmlns:cc="http://creativecommons.org/ns#" xmlns:rdf="http://www.w3.org/1999/02/22-rdf-syntax-ns#">
   <cc:Work>
    <dc:type rdf:resource="http://purl.org/dc/dcmitype/StillImage"/>
    <dc:date>2025-02-06T14:53:19.482884</dc:date>
    <dc:format>image/svg+xml</dc:format>
    <dc:creator>
     <cc:Agent>
      <dc:title>Matplotlib v3.8.4, https://matplotlib.org/</dc:title>
     </cc:Agent>
    </dc:creator>
   </cc:Work>
  </rdf:RDF>
 </metadata>
 <defs>
  <style type="text/css">*{stroke-linejoin: round; stroke-linecap: butt}</style>
 </defs>
 <g id="figure_1">
  <g id="patch_1">
   <path d="M 0 463.99896 
L 463.926489 463.99896 
L 463.926489 0 
L 0 0 
L 0 463.99896 
z
" style="fill: none"/>
  </g>
  <g id="axes_1">
   <g id="patch_2">
    <path d="M 81.762344 397.284897 
L 443.815944 397.284897 
L 443.815944 20 
L 81.762344 20 
L 81.762344 397.284897 
z
" style="fill: none"/>
   </g>
   <g id="matplotlib.axis_1">
    <g id="xtick_1">
     <g id="line2d_1">
      <defs>
       <path id="ma5f8583c84" d="M 0 0 
L 0 5 
" style="stroke: #000000; stroke-width: 0.75"/>
      </defs>
      <g>
       <use xlink:href="#ma5f8583c84" x="105.997403" y="397.284897" style="stroke: #000000; stroke-width: 0.75"/>
      </g>
     </g>
     <g id="text_1">
      <text style="font: 14.5px &quot;Suisse Int&apos;l Mono&quot;; text-anchor: middle" x="105.997403" y="417.797397" transform="rotate(-0 105.997403 417.797397)">500</text>
     </g>
    </g>
    <g id="xtick_2">
     <g id="line2d_2">
      <g>
       <use xlink:href="#ma5f8583c84" x="159.196886" y="397.284897" style="stroke: #000000; stroke-width: 0.75"/>
      </g>
     </g>
     <g id="text_2">
      <text style="font: 14.5px &quot;Suisse Int&apos;l Mono&quot;; text-anchor: middle" x="159.196886" y="417.797397" transform="rotate(-0 159.196886 417.797397)">1000</text>
     </g>
    </g>
    <g id="xtick_3">
     <g id="line2d_3">
      <g>
       <use xlink:href="#ma5f8583c84" x="212.39637" y="397.284897" style="stroke: #000000; stroke-width: 0.75"/>
      </g>
     </g>
     <g id="text_3">
      <text style="font: 14.5px &quot;Suisse Int&apos;l Mono&quot;; text-anchor: middle" x="212.39637" y="417.797397" transform="rotate(-0 212.39637 417.797397)">1500</text>
     </g>
    </g>
    <g id="xtick_4">
     <g id="line2d_4">
      <g>
       <use xlink:href="#ma5f8583c84" x="265.595853" y="397.284897" style="stroke: #000000; stroke-width: 0.75"/>
      </g>
     </g>
     <g id="text_4">
      <text style="font: 14.5px &quot;Suisse Int&apos;l Mono&quot;; text-anchor: middle" x="265.595853" y="417.797397" transform="rotate(-0 265.595853 417.797397)">2000</text>
     </g>
    </g>
    <g id="xtick_5">
     <g id="line2d_5">
      <g>
       <use xlink:href="#ma5f8583c84" x="318.795336" y="397.284897" style="stroke: #000000; stroke-width: 0.75"/>
      </g>
     </g>
     <g id="text_5">
      <text style="font: 14.5px &quot;Suisse Int&apos;l Mono&quot;; text-anchor: middle" x="318.795336" y="417.797397" transform="rotate(-0 318.795336 417.797397)">2500</text>
     </g>
    </g>
    <g id="xtick_6">
     <g id="line2d_6">
      <g>
       <use xlink:href="#ma5f8583c84" x="371.994819" y="397.284897" style="stroke: #000000; stroke-width: 0.75"/>
      </g>
     </g>
     <g id="text_6">
      <text style="font: 14.5px &quot;Suisse Int&apos;l Mono&quot;; text-anchor: middle" x="371.994819" y="417.797397" transform="rotate(-0 371.994819 417.797397)">3000</text>
     </g>
    </g>
    <g id="xtick_7">
     <g id="line2d_7">
      <g>
       <use xlink:href="#ma5f8583c84" x="425.194302" y="397.284897" style="stroke: #000000; stroke-width: 0.75"/>
      </g>
     </g>
     <g id="text_7">
      <text style="font: 14.5px &quot;Suisse Int&apos;l Mono&quot;; text-anchor: middle" x="425.194302" y="417.797397" transform="rotate(-0 425.194302 417.797397)">3500</text>
     </g>
    </g>
    <g id="text_8">
     <text style="font: 500 15px &quot;Suisse Int&apos;l&quot;, sans-serif; text-anchor: middle" x="262.789144" y="441.209898" transform="rotate(-0 262.789144 441.209898)">Raman shift (cm-1)</text>
    </g>
   </g>
   <g id="matplotlib.axis_2">
    <g id="ytick_1">
     <g id="line2d_8">
      <defs>
       <path id="mf2c6e88d43" d="M 0 0 
L -5 0 
" style="stroke: #000000; stroke-width: 0.75"/>
      </defs>
      <g>
       <use xlink:href="#mf2c6e88d43" x="81.762344" y="380.726739" style="stroke: #000000; stroke-width: 0.75"/>
      </g>
     </g>
     <g id="text_9">
      <text style="font: 14.5px &quot;Suisse Int&apos;l Mono&quot;; text-anchor: end" x="71.762344" y="385.982989" transform="rotate(-0 71.762344 385.982989)">0.0</text>
     </g>
    </g>
    <g id="ytick_2">
     <g id="line2d_9">
      <g>
       <use xlink:href="#mf2c6e88d43" x="81.762344" y="331.998013" style="stroke: #000000; stroke-width: 0.75"/>
      </g>
     </g>
     <g id="text_10">
      <text style="font: 14.5px &quot;Suisse Int&apos;l Mono&quot;; text-anchor: end" x="71.762344" y="337.254263" transform="rotate(-0 71.762344 337.254263)">0.1</text>
     </g>
    </g>
    <g id="ytick_3">
     <g id="line2d_10">
      <g>
       <use xlink:href="#mf2c6e88d43" x="81.762344" y="283.269287" style="stroke: #000000; stroke-width: 0.75"/>
      </g>
     </g>
     <g id="text_11">
      <text style="font: 14.5px &quot;Suisse Int&apos;l Mono&quot;; text-anchor: end" x="71.762344" y="288.525537" transform="rotate(-0 71.762344 288.525537)">0.2</text>
     </g>
    </g>
    <g id="ytick_4">
     <g id="line2d_11">
      <g>
       <use xlink:href="#mf2c6e88d43" x="81.762344" y="234.540562" style="stroke: #000000; stroke-width: 0.75"/>
      </g>
     </g>
     <g id="text_12">
      <text style="font: 14.5px &quot;Suisse Int&apos;l Mono&quot;; text-anchor: end" x="71.762344" y="239.796812" transform="rotate(-0 71.762344 239.796812)">0.3</text>
     </g>
    </g>
    <g id="ytick_5">
     <g id="line2d_12">
      <g>
       <use xlink:href="#mf2c6e88d43" x="81.762344" y="185.811836" style="stroke: #000000; stroke-width: 0.75"/>
      </g>
     </g>
     <g id="text_13">
      <text style="font: 14.5px &quot;Suisse Int&apos;l Mono&quot;; text-anchor: end" x="71.762344" y="191.068086" transform="rotate(-0 71.762344 191.068086)">0.4</text>
     </g>
    </g>
    <g id="ytick_6">
     <g id="line2d_13">
      <g>
       <use xlink:href="#mf2c6e88d43" x="81.762344" y="137.08311" style="stroke: #000000; stroke-width: 0.75"/>
      </g>
     </g>
     <g id="text_14">
      <text style="font: 14.5px &quot;Suisse Int&apos;l Mono&quot;; text-anchor: end" x="71.762344" y="142.33936" transform="rotate(-0 71.762344 142.33936)">0.5</text>
     </g>
    </g>
    <g id="ytick_7">
     <g id="line2d_14">
      <g>
       <use xlink:href="#mf2c6e88d43" x="81.762344" y="88.354384" style="stroke: #000000; stroke-width: 0.75"/>
      </g>
     </g>
     <g id="text_15">
      <text style="font: 14.5px &quot;Suisse Int&apos;l Mono&quot;; text-anchor: end" x="71.762344" y="93.610634" transform="rotate(-0 71.762344 93.610634)">0.6</text>
     </g>
    </g>
    <g id="ytick_8">
     <g id="line2d_15">
      <g>
       <use xlink:href="#mf2c6e88d43" x="81.762344" y="39.625659" style="stroke: #000000; stroke-width: 0.75"/>
      </g>
     </g>
     <g id="text_16">
      <text style="font: 14.5px &quot;Suisse Int&apos;l Mono&quot;; text-anchor: end" x="71.762344" y="44.881909" transform="rotate(-0 71.762344 44.881909)">0.7</text>
     </g>
    </g>
    <g id="text_17">
     <text style="font: 500 15px &quot;Suisse Int&apos;l&quot;, sans-serif; text-anchor: middle" x="30.875" y="208.642449" transform="rotate(-90 30.875 208.642449)">Intensity (au)</text>
    </g>
   </g>
   <g id="line2d_16">
    <path d="M 95.171736 374.711316 
L 95.372303 374.56513 
L 95.773303 374.640172 
L 95.973737 374.640172 
L 96.374473 374.519812 
L 96.574775 374.519812 
L 96.775034 374.110978 
L 96.975248 374.110978 
L 97.175418 374.267397 
L 97.575627 374.267397 
L 97.775666 374.413583 
L 98.575381 374.46085 
L 98.775201 374.555384 
L 98.974976 374.884303 
L 99.174708 374.884303 
L 99.374396 374.460363 
L 99.57404 374.460363 
L 99.773641 375.003688 
L 100.172711 375.087502 
L 100.37218 374.799515 
L 100.970326 374.650405 
L 101.169621 374.650405 
L 101.368872 373.043819 
L 101.568079 373.043819 
L 101.767243 374.05494 
L 101.966364 374.260575 
L 102.16544 374.260575 
L 102.364473 374.880405 
L 102.563463 374.880405 
L 102.762409 374.234749 
L 102.961312 374.234749 
L 103.160171 374.019368 
L 103.557758 375.195679 
L 103.756487 375.195679 
L 103.955172 374.516401 
L 104.352412 374.516401 
L 104.749479 374.307355 
L 104.947947 374.307355 
L 105.146372 374.527121 
L 105.344753 374.527121 
L 105.543092 374.214283 
L 105.741386 373.29331 
L 105.939638 374.214283 
L 106.137846 372.588693 
L 106.336011 374.526147 
L 107.326188 374.517863 
L 107.524093 374.767354 
L 108.315284 374.718625 
L 108.512974 374.245469 
L 108.710621 374.245469 
L 108.908225 374.48424 
L 109.698209 374.508604 
L 109.895597 374.865786 
L 110.881895 374.788307 
L 111.079026 374.206974 
L 111.276114 374.206974 
L 111.473158 374.780023 
L 112.654527 374.970553 
L 112.851272 374.449643 
L 113.244634 374.449643 
L 113.44125 374.925722 
L 113.834355 375.045595 
L 114.227289 374.950574 
L 114.423692 375.15962 
L 115.208877 375.160108 
L 115.405066 374.637736 
L 115.601213 374.637736 
L 115.797318 375.130383 
L 115.99338 375.130383 
L 116.189399 374.867248 
L 116.58131 374.894536 
L 116.777202 375.391569 
L 116.973051 375.566018 
L 118.147253 375.537268 
L 118.538315 375.431527 
L 118.733782 375.431527 
L 118.929207 374.598753 
L 119.124589 375.64642 
L 119.515227 375.64642 
L 119.710482 375.113815 
L 119.905695 375.113815 
L 120.100866 375.35551 
L 120.49108 375.35551 
L 120.881126 375.607924 
L 121.076086 375.561145 
L 121.271003 375.820869 
L 121.465878 375.238561 
L 121.660711 376.199491 
L 122.05025 376.171229 
L 122.439621 375.82964 
L 123.023361 375.809661 
L 123.217857 375.261951 
L 123.801092 375.36623 
L 123.99542 375.856441 
L 124.578151 375.774577 
L 124.772311 374.809261 
L 125.160504 376.220445 
L 125.354538 376.220445 
L 125.54853 375.697098 
L 125.74248 375.593793 
L 125.936389 375.697098 
L 126.130255 376.308156 
L 126.324079 376.308156 
L 126.517862 375.809661 
L 126.711603 375.809661 
L 126.905302 375.98411 
L 127.098959 375.98411 
L 127.292574 376.228241 
L 127.486148 376.228241 
L 127.67968 376.377351 
L 128.066618 376.377351 
L 128.260025 376.192669 
L 128.646713 376.192669 
L 128.839995 375.92125 
L 129.226433 375.92856 
L 129.99881 376.373453 
L 130.1918 376.373453 
L 130.770521 375.052417 
L 130.963345 374.903307 
L 131.156127 374.903307 
L 131.734226 373.945788 
L 131.926842 373.945788 
L 132.119417 374.08369 
L 132.311951 374.57585 
L 132.504443 374.740553 
L 133.081671 374.771252 
L 133.466282 376.066462 
L 133.658526 375.675657 
L 133.850729 375.904682 
L 134.04289 375.904682 
L 134.427089 376.261864 
L 134.619126 376.261864 
L 134.811122 376.467499 
L 135.19499 376.457753 
L 135.386863 375.663963 
L 135.578694 375.663963 
L 135.770484 376.538156 
L 135.962232 376.545465 
L 136.15394 376.795931 
L 136.728816 376.189745 
L 136.920358 375.402289 
L 137.11186 376.189745 
L 137.303321 375.937331 
L 137.877457 376.087902 
L 138.260009 376.728198 
L 138.451223 376.486503 
L 138.642397 376.486503 
L 139.024621 376.361758 
L 139.406681 376.429004 
L 139.788577 376.515253 
L 139.979464 376.278432 
L 140.742603 376.243347 
L 141.123927 376.123474 
L 141.314528 376.623431 
L 141.505088 376.623431 
L 141.695607 376.252606 
L 141.886085 376.252606 
L 142.076523 376.477732 
L 142.837866 376.537669 
L 143.218294 375.87106 
L 143.598558 375.87106 
L 143.78863 376.498686 
L 143.97866 376.18 
L 144.16865 376.557647 
L 144.3586 376.18 
L 144.738377 376.096674 
L 144.928205 376.623918 
L 145.117992 376.623918 
L 145.307739 376.776927 
L 145.497445 376.571779 
L 146.06632 376.536694 
L 146.255864 375.904195 
L 146.445368 376.536207 
L 146.634831 376.329597 
L 147.013636 376.251144 
L 147.202978 374.537842 
L 147.770761 374.648943 
L 147.959942 374.283478 
L 148.149082 374.283478 
L 148.527241 370.29893 
L 148.71626 370.29893 
L 149.094177 361.615471 
L 149.849528 333.268509 
L 150.038265 331.630737 
L 150.226962 331.630737 
L 150.604236 335.160646 
L 151.358301 349.410874 
L 151.546717 362.457991 
L 152.111724 372.647167 
L 152.299979 372.647167 
L 152.67637 375.110404 
L 153.240656 375.15962 
L 153.428672 373.410746 
L 153.616647 376.055254 
L 153.804583 376.20144 
L 153.992478 376.75305 
L 154.180334 376.75305 
L 154.36815 376.889977 
L 154.555925 376.624893 
L 154.743661 376.889977 
L 154.931357 376.564469 
L 155.119013 376.896312 
L 155.306629 376.168305 
L 155.494206 377.74809 
L 155.681742 376.714067 
L 155.869239 377.632603 
L 156.056696 377.417709 
L 156.244113 377.417709 
L 156.43149 376.049894 
L 156.618828 376.049894 
L 156.806125 377.31879 
L 157.180602 377.805103 
L 157.36778 377.805103 
L 157.554919 377.492264 
L 157.742018 377.492264 
L 157.929078 377.888916 
L 158.490018 377.874785 
L 158.86378 377.578514 
L 159.050602 377.578514 
L 159.424126 377.835315 
L 159.797492 377.835315 
L 159.984116 377.577052 
L 160.357245 377.577052 
L 160.54375 377.213536 
L 160.916642 377.107795 
L 161.103028 377.787073 
L 161.289376 376.898261 
L 161.475683 377.476184 
L 161.848181 377.447921 
L 162.03437 377.132159 
L 162.592703 377.100485 
L 163.150681 376.022119 
L 163.708305 377.173091 
L 163.894101 376.9811 
L 164.079858 376.9811 
L 164.451254 377.229616 
L 164.636893 377.229616 
L 164.822492 377.370443 
L 165.008053 377.370443 
L 165.193575 377.627243 
L 165.379057 377.419659 
L 165.749904 377.440125 
L 165.935269 377.727624 
L 166.305881 377.727624 
L 166.491128 376.872922 
L 166.676337 378.354763 
L 166.861506 377.899636 
L 167.046636 378.338195 
L 167.231727 378.338195 
L 167.416779 378.550165 
L 167.601792 378.550163 
L 167.786766 378.293358 
L 167.971701 378.293354 
L 168.156597 378.706082 
L 168.341454 378.706075 
L 168.526272 378.575961 
L 168.711051 378.213409 
L 169.080493 378.731372 
L 169.449778 378.731341 
L 169.634363 378.858991 
L 169.818908 379.345771 
L 170.003415 379.345749 
L 170.187883 378.673756 
L 170.372312 378.673731 
L 170.556702 379.384168 
L 170.741053 379.410453 
L 170.925365 379.757859 
L 171.109639 379.757828 
L 171.293874 379.430826 
L 171.662227 379.430758 
L 171.846346 379.076952 
L 172.030426 379.076914 
L 172.214467 379.375095 
L 173.501671 379.629637 
L 173.685403 379.939016 
L 174.05275 379.899933 
L 174.236366 379.703505 
L 174.419943 379.703453 
L 174.786982 380.120464 
L 175.153867 379.77438 
L 175.337251 379.774323 
L 175.520598 379.988672 
L 175.703905 379.988614 
L 175.887174 379.84578 
L 176.070405 379.84572 
L 176.619866 380.214413 
L 176.802943 380.102275 
L 176.985981 379.666089 
L 177.168981 380.102147 
L 177.351943 379.910092 
L 177.534866 380.517186 
L 177.717751 379.90996 
L 178.083405 378.344172 
L 178.266175 378.344103 
L 178.448907 379.681638 
L 178.6316 379.743942 
L 178.814255 380.514273 
L 178.996871 380.514202 
L 179.36199 379.890332 
L 179.544492 379.89026 
L 179.726955 380.519274 
L 181.185289 380.501141 
L 181.36741 380.216978 
L 182.277438 380.231215 
L 182.45933 379.105504 
L 182.641184 379.105424 
L 183.004777 380.369772 
L 183.368218 380.469988 
L 183.731507 380.424018 
L 183.913094 380.696815 
L 184.276156 380.683004 
L 184.639065 380.051313 
L 185.001823 380.051143 
L 185.183145 380.442349 
L 185.545676 380.433892 
L 185.726885 379.972832 
L 185.908056 380.433718 
L 186.451341 380.4125 
L 186.632361 380.133683 
L 187.175193 380.154854 
L 187.356062 379.608514 
L 187.536893 379.608422 
L 187.717686 379.285257 
L 187.898442 379.285162 
L 188.25984 380.472488 
L 188.801654 380.157407 
L 188.982184 379.22123 
L 189.162676 379.050092 
L 189.34313 379.04999 
L 189.703926 379.685692 
L 189.884268 379.995501 
L 190.244838 380.005033 
L 190.425067 378.689736 
L 190.785413 378.710468 
L 190.965529 379.777513 
L 191.32565 379.777282 
L 191.505654 379.446297 
L 192.225295 379.350795 
L 192.405112 378.750821 
L 192.584892 378.581119 
L 193.124006 378.609967 
L 193.303636 378.51871 
L 193.483229 377.078155 
L 193.662784 377.327999 
L 193.842302 377.077887 
L 194.021783 377.327731 
L 194.201227 376.982111 
L 194.380633 377.374243 
L 194.918628 376.169754 
L 195.456288 376.279479 
L 195.814542 376.390312 
L 196.172647 374.641657 
L 196.351644 374.641523 
L 196.888412 372.091147 
L 197.067261 371.82203 
L 197.424847 368.972594 
L 197.960947 360.918795 
L 198.496714 351.577096 
L 198.853707 348.179948 
L 199.032149 347.486892 
L 199.38892 347.266857 
L 199.56725 347.266723 
L 200.280202 358.209684 
L 200.458348 358.279232 
L 200.636457 361.916698 
L 201.526448 365.420597 
L 201.882187 365.425689 
L 202.237779 364.980528 
L 202.593224 364.98026 
L 202.770891 365.006439 
L 202.948521 365.309398 
L 203.126115 365.309264 
L 203.303672 364.684915 
L 203.658676 364.684647 
L 203.836124 364.938877 
L 204.013534 364.472896 
L 204.368245 364.472628 
L 204.545546 363.377072 
L 204.722809 364.278419 
L 205.077228 364.278151 
L 205.254382 363.248379 
L 205.431499 363.248245 
L 205.962633 362.883352 
L 206.139604 362.31699 
L 206.316539 362.720817 
L 206.493438 362.248502 
L 206.6703 362.093898 
L 207.200667 362.126144 
L 207.377383 363.251644 
L 207.554063 363.269539 
L 207.730706 363.900442 
L 207.907313 363.900308 
L 208.260417 366.211731 
L 208.789801 367.815478 
L 208.96619 366.771575 
L 209.142542 366.771441 
L 209.318859 369.861195 
L 209.671382 370.831116 
L 209.847589 370.830982 
L 210.375993 371.768121 
L 210.552055 373.064171 
L 210.728081 373.214608 
L 210.90407 373.567758 
L 211.080024 373.567623 
L 211.431822 373.446021 
L 211.607667 373.77578 
L 212.134985 373.864552 
L 212.310685 374.1909 
L 212.48635 375.243794 
L 212.661978 375.271435 
L 213.013126 375.597649 
L 213.539577 375.244939 
L 213.890365 375.923462 
L 214.065704 376.42231 
L 214.416276 376.491236 
L 214.766703 376.411053 
L 215.642143 376.958094 
L 215.817123 377.118765 
L 215.992067 377.048461 
L 216.166976 377.118497 
L 216.516685 377.832104 
L 216.691485 377.980593 
L 217.564952 378.080304 
L 217.739538 377.550001 
L 217.914088 377.549867 
L 218.088603 377.725156 
L 218.437524 378.53476 
L 218.611931 378.394774 
L 219.134938 378.775429 
L 219.309203 379.336158 
L 219.657625 379.335878 
L 220.005904 379.612372 
L 220.17999 379.534749 
L 220.35404 379.612082 
L 220.528055 379.534456 
L 220.875978 380.047273 
L 221.571397 380.808302 
L 222.092588 380.881431 
L 222.266248 380.498273 
L 222.439872 380.793419 
L 222.61346 380.793269 
L 222.787013 381.103033 
L 223.307459 381.170804 
L 223.654246 381.782541 
L 223.827587 381.563602 
L 224.174161 381.671001 
L 224.347396 381.697658 
L 224.520594 381.874887 
L 224.866886 381.874605 
L 225.039979 380.905738 
L 225.386059 380.905459 
L 225.559046 382.117203 
L 225.731998 379.739591 
L 225.904914 382.116927 
L 226.077795 382.130433 
L 226.423452 382.2744 
L 226.596227 381.801599 
L 226.768967 381.732272 
L 226.941672 381.801336 
L 227.114342 382.143769 
L 227.286977 382.143641 
L 227.459576 381.717625 
L 227.632141 381.717499 
L 227.977164 381.938478 
L 228.149623 381.938356 
L 228.322046 382.158976 
L 228.494435 380.778371 
L 228.666789 382.725451 
L 228.839107 381.77561 
L 229.01139 382.727653 
L 229.183639 381.866501 
L 229.355852 382.813674 
L 229.52803 381.866276 
L 229.700173 382.744744 
L 229.872281 382.035145 
L 230.216393 382.034932 
L 230.388396 381.852095 
L 230.560364 382.853854 
L 230.732297 382.652503 
L 231.076059 382.652306 
L 231.247887 382.804731 
L 231.41968 382.804638 
L 231.591439 382.553106 
L 231.763162 381.718293 
L 231.934851 381.718205 
L 232.278124 382.493792 
L 232.792771 382.548607 
L 232.964251 382.698613 
L 233.307105 382.80079 
L 233.47848 381.216546 
L 233.821126 381.216401 
L 233.992397 382.809272 
L 234.506001 382.743773 
L 234.84823 381.988352 
L 235.19032 382.070583 
L 235.361313 382.496414 
L 235.703194 382.547468 
L 235.874083 383.225719 
L 236.044938 382.791983 
L 236.215757 383.311383 
L 236.386543 382.791889 
L 236.728009 382.888774 
L 237.069337 382.799524 
L 237.58107 381.766862 
L 237.922052 382.491398 
L 238.092491 382.49137 
L 238.262896 381.515308 
L 238.433267 381.515283 
L 238.603603 382.553668 
L 238.773904 382.553645 
L 239.114404 382.883013 
L 239.284602 382.965835 
L 239.454766 382.882982 
L 239.624895 382.243649 
L 239.79499 382.243639 
L 239.96505 382.914137 
L 240.135076 382.91413 
L 240.305068 382.736753 
L 240.644948 382.73675 
L 240.984691 382.313302 
L 241.324297 382.313313 
L 241.494048 382.997959 
L 241.663765 382.997969 
L 241.833448 382.048746 
L 242.003096 382.04876 
L 242.17271 378.316154 
L 242.34229 382.522433 
L 242.511836 382.316327 
L 243.020268 382.830476 
L 243.189677 382.8305 
L 243.359051 382.624404 
L 243.528392 382.624432 
L 243.697698 382.327704 
L 244.036208 383.292598 
L 244.205412 383.292634 
L 244.374581 383.158182 
L 244.543717 379.230688 
L 244.712818 379.230727 
L 244.881886 382.59792 
L 245.050919 382.59796 
L 245.388883 382.716457 
L 246.064403 382.656229 
L 246.233198 382.86143 
L 246.401959 382.238246 
L 246.570686 382.694404 
L 246.739379 382.238362 
L 246.908038 382.425054 
L 247.076663 381.868147 
L 247.413811 381.730373 
L 247.582334 382.368785 
L 247.750823 382.368852 
L 247.919278 382.571632 
L 248.0877 382.256915 
L 248.256087 382.527919 
L 248.424441 381.536851 
L 248.592761 382.468132 
L 248.929298 382.468286 
L 249.097517 382.810929 
L 249.265701 382.677982 
L 249.433851 382.896371 
L 249.601968 382.679614 
L 249.9381 382.664686 
L 250.442045 380.221707 
L 250.777839 380.221892 
L 250.945686 382.95128 
L 251.281278 382.841831 
L 251.449023 382.580257 
L 251.616735 382.580357 
L 251.784413 382.035185 
L 252.119668 382.035394 
L 252.287245 382.698211 
L 252.622298 382.698429 
L 253.292001 381.984524 
L 253.626651 382.123638 
L 253.793926 381.361154 
L 253.961167 381.361276 
L 254.128375 382.277985 
L 254.295549 382.278109 
L 254.79687 382.937302 
L 254.96391 381.269449 
L 255.130916 381.269581 
L 255.29789 382.719393 
L 255.798608 382.817259 
L 255.965447 382.619561 
L 256.132253 382.209408 
L 256.299026 382.209552 
L 256.465765 382.514739 
L 256.799143 382.515035 
L 256.965782 382.221351 
L 257.132387 382.499257 
L 257.29896 381.648121 
L 257.465499 382.499566 
L 257.798476 382.791279 
L 258.297693 382.762043 
L 258.796611 382.38149 
L 258.96285 382.5834 
L 260.125595 382.601225 
L 260.45751 381.165078 
L 260.623417 381.165266 
L 260.789291 382.306195 
L 260.955132 382.306385 
L 261.12094 381.91626 
L 261.286715 381.916453 
L 261.452457 382.394676 
L 261.783841 382.442825 
L 261.949484 382.770968 
L 262.446213 382.778889 
L 262.611723 382.363928 
L 262.777201 382.364137 
L 262.942645 382.100725 
L 263.604093 382.119613 
L 263.769372 381.828433 
L 263.934618 381.828652 
L 264.265013 382.318817 
L 264.43016 382.31904 
L 264.595275 382.631616 
L 264.760357 382.139195 
L 265.090422 382.139653 
L 265.420356 382.696598 
L 265.585273 382.696832 
L 265.750158 382.521645 
L 265.91501 381.019577 
L 266.079829 381.019815 
L 266.409368 382.362771 
L 266.574089 382.737736 
L 266.738777 382.363256 
L 266.903432 382.738225 
L 267.3972 381.799969 
L 267.561724 382.160813 
L 267.726216 381.516872 
L 267.890674 381.578037 
L 268.0551 381.517381 
L 268.219493 381.578547 
L 268.383854 382.447149 
L 269.533463 382.407084 
L 269.697563 382.316231 
L 269.861629 381.652817 
L 270.189665 381.535926 
L 270.353634 382.587766 
L 270.681475 382.649718 
L 270.845346 382.400507 
L 271.009185 380.909689 
L 271.172991 381.568296 
L 271.500506 381.568861 
L 271.664215 380.604317 
L 271.827891 380.604601 
L 271.991535 381.937615 
L 272.155147 382.094319 
L 272.645786 382.045479 
L 272.809268 382.300134 
L 272.972717 382.300426 
L 273.462871 381.227815 
L 273.62619 381.228112 
L 274.115955 382.031079 
L 274.605429 382.083148 
L 275.094612 382.14059 
L 275.257608 381.900665 
L 275.746404 381.804139 
L 275.909272 381.605152 
L 276.23491 381.616988 
L 276.560419 381.97675 
L 276.723125 382.184652 
L 276.8858 381.977387 
L 277.048442 381.230209 
L 277.211051 381.23053 
L 277.536175 381.460199 
L 277.861169 381.460846 
L 278.023618 381.88511 
L 278.186035 381.885436 
L 278.34842 382.247329 
L 278.510773 381.676557 
L 278.673094 381.904449 
L 278.835383 381.677216 
L 278.997639 381.104985 
L 279.159864 381.026376 
L 279.322057 380.304061 
L 279.484217 380.304393 
L 279.646346 381.574107 
L 279.970506 381.574772 
L 280.132539 381.40553 
L 280.294539 381.521351 
L 280.456508 381.344801 
L 280.618445 381.522022 
L 280.780349 381.129605 
L 281.104062 381.105427 
L 281.265871 380.943011 
L 281.589393 380.943687 
L 281.751106 381.114576 
L 281.912787 381.114915 
L 282.074437 381.362309 
L 282.236054 381.362648 
L 282.39764 381.22801 
L 282.559193 380.587081 
L 282.720715 380.587422 
L 282.882205 380.323653 
L 283.043663 380.323993 
L 283.366484 381.181811 
L 283.527847 380.751389 
L 283.689178 380.816051 
L 283.850477 380.352494 
L 284.011745 380.816732 
L 284.17298 380.353174 
L 284.334184 380.708259 
L 284.495357 380.313409 
L 284.978683 380.330506 
L 285.139728 380.218768 
L 285.461724 379.87688 
L 285.94448 379.528012 
L 286.105335 378.826164 
L 286.266159 378.627194 
L 286.426951 378.627525 
L 286.909137 376.814346 
L 287.069803 376.808829 
L 287.230437 376.443695 
L 287.391039 376.809491 
L 287.55161 376.141751 
L 287.71215 376.504623 
L 288.033134 376.607127 
L 288.353992 377.01175 
L 288.514374 377.01208 
L 288.674724 376.239573 
L 288.99533 376.240235 
L 289.155586 375.706499 
L 289.31581 374.423802 
L 289.476003 370.131132 
L 289.636164 370.131462 
L 289.956393 371.162736 
L 290.11646 370.69722 
L 290.276496 368.291814 
L 290.4365 361.801966 
L 290.596473 361.498716 
L 290.916325 345.664004 
L 291.236052 311.652014 
L 291.555653 260.726284 
L 292.03482 182.746697 
L 292.194479 172.835604 
L 292.354108 172.835935 
L 292.513705 176.300878 
L 292.832805 197.308493 
L 293.311221 258.395816 
L 293.789357 317.118333 
L 294.267211 347.951452 
L 294.585625 358.318662 
L 294.744785 359.80327 
L 295.063012 363.467844 
L 295.222079 363.793195 
L 295.381115 363.793526 
L 295.858035 361.385857 
L 296.175827 356.847925 
L 296.334676 356.730819 
L 296.493494 354.93306 
L 296.652281 354.933391 
L 296.811037 356.525689 
L 296.969762 356.544536 
L 297.445752 360.576369 
L 298.396894 371.747464 
L 298.555309 371.762413 
L 298.872047 374.816904 
L 299.03037 375.596894 
L 299.188662 375.474915 
L 299.346923 376.126262 
L 299.505153 376.127567 
L 299.82152 377.268968 
L 300.453885 378.092344 
L 300.611899 378.092675 
L 300.769882 377.894192 
L 301.401508 377.821935 
L 301.559337 378.105379 
L 301.874904 378.10604 
L 302.032641 378.249634 
L 302.190348 378.781595 
L 302.348023 378.623557 
L 302.820867 378.664994 
L 302.97842 379.232039 
L 303.135942 379.013089 
L 303.293434 379.013417 
L 303.765725 378.214268 
L 304.237741 379.103569 
L 304.709481 379.136692 
L 304.866667 379.231544 
L 305.023822 379.004784 
L 305.180946 379.464123 
L 305.495104 379.570977 
L 305.652137 378.7429 
L 305.809139 378.74321 
L 306.123052 378.884656 
L 306.279963 378.602824 
L 306.593694 378.603439 
L 306.750513 378.716797 
L 306.907302 378.561659 
L 307.220789 378.852697 
L 307.377486 378.853002 
L 307.690791 377.828357 
L 307.847397 377.82866 
L 308.003973 379.075932 
L 308.160519 379.076234 
L 308.317034 379.272911 
L 308.629974 378.749185 
L 308.786398 378.55408 
L 309.099156 378.49425 
L 309.411792 378.372535 
L 309.568065 378.372832 
L 309.724307 378.67281 
L 309.880519 378.376349 
L 310.036701 378.601773 
L 310.192852 378.376943 
L 310.661126 379.001072 
L 310.973156 378.636679 
L 311.129127 377.790553 
L 311.285067 377.790844 
L 311.440976 378.960138 
L 311.752705 378.960716 
L 312.064313 378.942282 
L 312.220072 379.245171 
L 312.375801 379.245452 
L 312.531499 378.813508 
L 312.687168 378.813786 
L 312.842806 378.469062 
L 312.998414 378.945905 
L 313.153993 378.946179 
L 313.309541 379.160858 
L 313.465058 379.161129 
L 313.620546 379.011314 
L 313.776004 378.650989 
L 313.931432 379.011849 
L 314.70812 378.972716 
L 314.863368 379.285811 
L 315.018585 377.913866 
L 315.173773 378.812192 
L 315.32893 377.786219 
L 315.484058 378.8127 
L 315.639156 378.636554 
L 315.794223 378.835132 
L 316.414195 378.818091 
L 316.724001 377.862031 
L 316.878859 377.862273 
L 317.033688 378.606116 
L 317.343255 378.606601 
L 317.497994 378.972308 
L 317.652703 378.972549 
L 317.807382 379.200351 
L 317.962031 378.637772 
L 318.27124 378.609984 
L 318.58033 378.763954 
L 318.73483 378.814869 
L 318.889301 379.188854 
L 319.198152 379.18932 
L 319.352534 378.665717 
L 319.506885 379.180036 
L 320.123993 379.272067 
L 320.894711 379.530458 
L 321.048765 379.455145 
L 321.356785 379.043818 
L 321.664686 379.055448 
L 321.818593 379.309534 
L 322.126316 379.186177 
L 322.280134 379.186382 
L 322.58768 379.054244 
L 322.741409 378.475059 
L 322.895108 378.475259 
L 323.202418 378.751951 
L 323.509609 378.75235 
L 323.663161 378.944054 
L 323.816683 379.437874 
L 323.970175 379.43807 
L 324.123638 378.967059 
L 324.277072 378.967253 
L 324.430476 379.231554 
L 324.583851 379.231745 
L 324.737196 378.779731 
L 324.890511 378.77992 
L 325.043798 378.915575 
L 325.197054 379.20521 
L 325.50348 379.09594 
L 325.656648 379.096123 
L 325.809788 378.916981 
L 326.115978 378.917337 
L 326.269029 377.404973 
L 326.422051 379.211522 
L 326.88094 379.170619 
L 327.186719 379.228456 
L 327.339565 378.489407 
L 327.492381 378.489573 
L 327.645168 379.005776 
L 328.103354 378.928298 
L 328.561276 379.616333 
L 328.713858 379.402082 
L 329.018935 379.402389 
L 329.17143 378.362669 
L 329.323895 378.20835 
L 329.476331 378.362972 
L 329.628738 378.917169 
L 329.933465 378.880432 
L 330.085784 378.118948 
L 330.238075 378.716508 
L 330.390336 377.971591 
L 330.542568 378.7168 
L 330.846945 378.730735 
L 330.999089 378.219717 
L 331.151205 378.219863 
L 331.455349 378.797102 
L 331.911347 378.889626 
L 332.063288 378.641735 
L 332.367083 378.730211 
L 332.518937 378.917954 
L 333.277773 379.000483 
L 333.429453 379.116585 
L 333.732726 379.03887 
L 334.035883 379.055194 
L 334.338925 379.203566 
L 334.641851 379.209158 
L 334.793271 377.970099 
L 334.944662 377.970212 
L 335.096023 378.167677 
L 335.247356 378.810035 
L 335.549936 377.850301 
L 335.701182 377.850413 
L 335.8524 378.985416 
L 336.154748 379.109405 
L 336.30588 379.080761 
L 336.456982 378.587244 
L 336.608055 378.582963 
L 336.7591 377.902814 
L 337.061103 377.903023 
L 337.212061 377.501116 
L 337.362991 378.999629 
L 337.664764 378.943308 
L 337.966422 378.157999 
L 338.418693 378.892639 
L 338.569393 378.621805 
L 338.720064 379.207135 
L 338.870706 378.576681 
L 339.02132 379.207327 
L 339.171905 378.820028 
L 339.472989 378.945931 
L 339.623489 378.94602 
L 339.924401 378.413102 
L 340.074814 378.202194 
L 340.225199 378.183277 
L 340.525882 378.030931 
L 340.676181 378.031018 
L 340.976693 376.84611 
L 341.126906 377.466514 
L 341.277091 376.733234 
L 341.427247 376.733321 
L 341.577375 376.454193 
L 341.727474 374.836486 
L 341.877544 375.599665 
L 342.027586 374.306005 
L 342.1776 374.306092 
L 342.327585 373.067495 
L 342.477541 372.948197 
L 342.627469 369.517782 
L 342.777369 369.517869 
L 342.92724 368.869377 
L 343.077082 369.723191 
L 343.226897 368.869551 
L 343.376682 369.006079 
L 343.52644 368.847798 
L 343.676169 369.006254 
L 343.825869 370.103712 
L 343.975541 370.103799 
L 344.125185 369.649247 
L 344.2748 369.649334 
L 344.573946 372.275013 
L 344.723476 373.017238 
L 345.022452 373.328789 
L 345.321314 374.319619 
L 345.470702 373.796847 
L 345.620062 374.319793 
L 345.769394 375.448925 
L 345.918698 375.449012 
L 346.366439 376.955966 
L 346.515629 376.956053 
L 346.813925 376.454809 
L 347.261158 377.054922 
L 347.410179 377.055009 
L 347.708136 376.692641 
L 348.154861 376.756251 
L 348.303713 376.952714 
L 348.452537 377.371869 
L 348.898839 377.28247 
L 349.344888 377.215973 
L 349.493515 376.963645 
L 349.790685 376.96382 
L 350.236228 377.20334 
L 350.681519 375.511253 
L 350.978239 376.880217 
L 351.42311 376.018467 
L 351.571344 376.018555 
L 351.71955 376.539552 
L 351.867728 376.539639 
L 352.015879 376.178647 
L 352.164001 375.447803 
L 352.75621 375.568999 
L 353.052148 375.425424 
L 353.200074 374.315471 
L 353.347973 374.315071 
L 353.643687 373.893254 
L 353.93929 372.2425 
L 354.087049 371.958498 
L 354.825429 369.469871 
L 355.120586 369.377948 
L 355.268123 368.788418 
L 355.415632 368.788505 
L 355.710566 367.936902 
L 355.857992 367.936989 
L 356.00539 368.735252 
L 356.15276 368.73534 
L 357.477845 365.967846 
L 357.624938 364.909545 
L 357.772003 364.876497 
L 358.066051 363.99322 
L 358.506916 362.163718 
L 358.653816 362.469334 
L 359.241138 361.338202 
L 359.3879 361.126806 
L 359.681341 361.126981 
L 359.82802 360.920946 
L 359.974671 360.168661 
L 360.121295 360.807582 
L 360.41446 360.859409 
L 360.561001 361.595787 
L 360.707515 361.255261 
L 361.00046 361.235944 
L 361.146892 361.013828 
L 361.439672 360.070127 
L 361.586021 360.053159 
L 361.732342 359.162485 
L 361.878636 359.162572 
L 362.171142 356.784298 
L 362.317354 356.782923 
L 362.463538 354.622379 
L 362.609695 354.456788 
L 362.755824 353.357068 
L 363.048001 346.200455 
L 363.194048 346.182512 
L 363.632026 332.892014 
L 363.923875 310.86047 
L 364.215614 271.598448 
L 364.507244 208.387719 
L 365.090176 59.580286 
L 365.381478 33.973515 
L 365.527089 33.973602 
L 365.672672 39.57262 
L 365.963756 74.891375 
L 367.272289 292.467382 
L 367.707978 321.007084 
L 367.998301 336.553184 
L 368.288516 342.019746 
L 368.433583 343.753115 
L 368.578623 343.780977 
L 368.868621 345.236679 
L 369.158511 345.207616 
L 369.882762 340.29912 
L 370.316989 334.824222 
L 370.606338 329.60555 
L 370.750972 328.563817 
L 371.184713 321.631443 
L 371.473739 319.7541 
L 371.618211 317.23881 
L 371.762657 317.238897 
L 372.195832 317.796616 
L 372.484481 320.335069 
L 372.917252 324.464116 
L 373.493905 333.943177 
L 374.789806 349.47137 
L 375.077489 350.582072 
L 375.22129 353.023469 
L 375.365065 353.180462 
L 375.939897 356.921716 
L 376.227152 357.728838 
L 376.37074 358.646974 
L 376.514301 358.845387 
L 376.657836 359.464329 
L 376.801343 359.464417 
L 376.944824 360.414227 
L 377.231707 360.600058 
L 377.375108 362.033744 
L 377.66183 362.033918 
L 378.091714 362.699815 
L 378.521359 363.182978 
L 378.807656 363.183152 
L 378.950764 364.514021 
L 379.093846 364.545295 
L 379.665909 365.697103 
L 379.808859 365.699627 
L 379.951782 366.16751 
L 380.237548 366.26904 
L 380.523209 366.818875 
L 380.665999 367.021673 
L 380.808763 367.49784 
L 381.236897 367.38895 
L 381.664792 368.058744 
L 381.949924 368.058919 
L 382.09245 367.857756 
L 382.23495 367.857843 
L 382.519871 368.471512 
L 382.662291 368.099799 
L 382.947054 369.272387 
L 383.231711 369.992772 
L 383.516263 369.612375 
L 383.658499 369.612462 
L 383.800709 370.6149 
L 384.227182 370.665352 
L 384.369287 371.280883 
L 384.795444 371.364958 
L 384.937444 371.889854 
L 385.079417 371.889941 
L 385.930709 372.621882 
L 386.072499 372.668262 
L 386.214263 373.12445 
L 386.356001 373.124537 
L 386.497712 372.933121 
L 386.639398 372.933208 
L 386.92269 373.119526 
L 387.205878 373.1197 
L 387.347433 373.401927 
L 387.488962 374.074471 
L 387.771941 372.689287 
L 387.913391 372.689375 
L 388.196214 374.223529 
L 388.337586 374.223617 
L 388.478932 374.71294 
L 388.620252 374.713027 
L 388.902814 374.56263 
L 389.185271 374.631025 
L 389.608763 374.155694 
L 389.749875 375.335504 
L 389.89096 375.441332 
L 390.03202 375.775699 
L 390.314062 375.775873 
L 390.596 375.695645 
L 390.877834 376.223064 
L 391.018712 376.259211 
L 391.30039 376.955232 
L 391.44119 376.955319 
L 391.581965 376.763415 
L 391.722713 376.18363 
L 391.863436 376.183718 
L 392.004133 376.606283 
L 392.426067 376.543197 
L 392.566661 376.940423 
L 392.707228 376.543372 
L 392.84777 377.099454 
L 393.128775 377.099628 
L 393.269239 377.43838 
L 393.409677 376.900015 
L 393.55009 377.473639 
L 393.690477 377.397222 
L 393.830837 377.587839 
L 393.971172 377.397397 
L 394.111482 377.516869 
L 394.251765 377.229457 
L 394.672461 377.909972 
L 395.092925 377.984301 
L 395.233029 378.470701 
L 395.513158 378.512295 
L 395.933159 378.206053 
L 396.213032 378.540506 
L 396.492802 378.609876 
L 396.632648 378.855068 
L 396.772469 378.855154 
L 396.912264 378.498543 
L 397.052033 378.498626 
L 397.191777 378.719451 
L 397.331496 378.719534 
L 397.471188 378.198708 
L 397.750497 378.198875 
L 397.890113 378.79686 
L 398.029703 378.723363 
L 398.169268 379.134717 
L 398.308807 378.723528 
L 398.44832 379.134881 
L 398.587808 378.810428 
L 398.727271 378.810508 
L 398.866708 377.719065 
L 399.006119 377.719145 
L 399.145505 379.255155 
L 399.284865 379.255234 
L 399.563509 378.808544 
L 399.842052 379.388079 
L 399.981284 379.388151 
L 400.120492 379.105596 
L 400.259674 379.105666 
L 400.39883 379.331348 
L 400.537961 379.331415 
L 400.677067 378.701418 
L 400.816147 378.701483 
L 400.955202 379.906123 
L 401.094231 379.906187 
L 401.233235 379.644578 
L 401.511166 379.75288 
L 401.788996 379.847534 
L 402.066724 379.670765 
L 402.344351 380.059246 
L 402.8993 379.958107 
L 403.176623 378.85889 
L 403.453844 379.581634 
L 403.869486 380.053466 
L 404.007983 379.924867 
L 404.423322 380.167177 
L 404.561718 380.053681 
L 404.700088 380.343657 
L 404.976753 379.355519 
L 405.115048 379.355557 
L 405.253318 379.653814 
L 405.667975 379.641248 
L 405.806144 380.164627 
L 406.082406 380.253864 
L 406.358568 379.734964 
L 406.634628 379.687267 
L 406.772621 380.318818 
L 407.048531 380.297918 
L 407.186448 379.586017 
L 407.462207 379.615302 
L 407.600049 380.138671 
L 407.737866 380.138693 
L 407.875658 379.780071 
L 408.151166 379.78011 
L 408.426574 380.066671 
L 408.56424 379.935608 
L 408.701881 379.303612 
L 408.839498 379.303627 
L 409.114655 380.344986 
L 409.252196 380.166164 
L 409.389713 380.51215 
L 409.527204 380.144747 
L 409.66467 380.301664 
L 409.802111 380.144768 
L 410.076918 379.346611 
L 410.214285 379.631194 
L 410.351626 380.372852 
L 410.626234 380.459601 
L 410.7635 380.130687 
L 410.900742 380.623339 
L 411.17515 379.913858 
L 411.312316 379.913862 
L 411.449458 380.230601 
L 411.723667 380.247659 
L 411.997776 379.967471 
L 412.134794 379.898276 
L 412.271786 379.967469 
L 412.408754 379.799353 
L 412.545696 380.191617 
L 412.819507 380.191609 
L 412.956375 379.998639 
L 413.366831 380.087308 
L 413.5036 380.543889 
L 413.640344 380.543881 
L 413.777063 379.656523 
L 413.913758 379.656515 
L 414.050428 380.609152 
L 414.187073 380.609142 
L 414.460288 380.064821 
L 414.596859 380.06481 
L 414.733405 378.753509 
L 414.869926 380.520401 
L 415.006422 380.222169 
L 415.142894 380.489677 
L 415.552161 380.445295 
L 415.688534 380.888713 
L 416.097504 380.807784 
L 416.642452 380.29608 
L 416.778628 380.509011 
L 416.914779 380.296053 
L 417.323083 380.70533 
L 417.459136 380.705315 
L 417.595163 380.542059 
L 417.731167 380.056706 
L 417.867145 380.311054 
L 418.139028 380.311021 
L 418.274933 379.953823 
L 418.410813 379.953805 
L 418.546669 380.946878 
L 419.63263 380.954046 
L 419.903876 380.142193 
L 420.039461 380.642132 
L 420.175023 380.575356 
L 420.31056 380.921313 
L 420.58156 380.808715 
L 420.717024 380.808698 
L 420.852463 381.049401 
L 420.987877 381.049384 
L 421.393975 380.752578 
L 421.664584 381.132142 
L 421.799852 381.132127 
L 422.070315 381.259766 
L 422.20551 380.928884 
L 422.881119 381.018966 
L 423.016168 380.548721 
L 423.286193 380.548695 
L 423.421168 380.15934 
L 423.691047 380.829332 
L 423.82595 380.875124 
L 423.960828 381.117292 
L 424.095683 380.875098 
L 424.365318 380.981301 
L 424.5001 380.981288 
L 424.634857 380.700112 
L 425.981095 380.795012 
L 426.115586 381.494257 
L 426.250052 380.941662 
L 426.653306 380.991334 
L 426.922022 381.336313 
L 427.190641 381.438139 
L 427.459163 380.750074 
L 427.995918 381.424939 
L 428.264151 381.119399 
L 428.398232 381.119394 
L 428.532288 380.757823 
L 428.800328 380.757814 
L 428.934312 381.346453 
L 429.33612 381.377143 
L 429.603872 380.804091 
L 429.737712 380.49856 
L 430.139088 381.213894 
L 430.272831 380.989741 
L 430.406551 381.213892 
L 430.406551 381.213892 
" clip-path="url(#p4e7448060a)" style="fill: none; stroke: #5088c5; stroke-linecap: round"/>
   </g>
   <g id="line2d_17">
    <defs>
     <path id="m322e53c842" d="M 0 2 
C 0.530406 2 1.03916 1.789267 1.414214 1.414214 
C 1.789267 1.03916 2 0.530406 2 0 
C 2 -0.530406 1.789267 -1.03916 1.414214 -1.414214 
C 1.03916 -1.789267 0.530406 -2 0 -2 
C -0.530406 -2 -1.03916 -1.789267 -1.414214 -1.414214 
C -1.789267 -1.03916 -2 -0.530406 -2 0 
C -2 0.530406 -1.789267 1.03916 -1.414214 1.414214 
C -1.03916 1.789267 -0.530406 2 0 2 
z
"/>
    </defs>
    <g clip-path="url(#p4e7448060a)">
     <use xlink:href="#m322e53c842" x="150.287957" y="331.630737" style="fill: #f28360"/>
     <use xlink:href="#m322e53c842" x="199.292171" y="347.305974" style="fill: #f28360"/>
     <use xlink:href="#m322e53c842" x="292.431748" y="172.835935" style="fill: #f28360"/>
     <use xlink:href="#m322e53c842" x="365.539689" y="33.973602" style="fill: #f28360"/>
     <use xlink:href="#m322e53c842" x="371.924798" y="317.405637" style="fill: #f28360"/>
    </g>
   </g>
   <g id="patch_3">
    <path d="M 81.762344 397.284897 
L 81.762344 20 
" style="fill: none; stroke: #000000; stroke-width: 0.75; stroke-linejoin: miter; stroke-linecap: square"/>
   </g>
   <g id="patch_4">
    <path d="M 81.762344 397.284897 
L 443.815944 397.284897 
" style="fill: none; stroke: #000000; stroke-width: 0.75; stroke-linejoin: miter; stroke-linecap: square"/>
   </g>
  </g>
 </g>
 <defs>
  <clipPath id="p4e7448060a">
   <rect x="81.762344" y="20" width="362.0536" height="377.284897"/>
  </clipPath>
 </defs>
</svg>
