<?xml version="1.0" encoding="utf-8" standalone="no"?>
<!DOCTYPE svg PUBLIC "-//W3C//DTD SVG 1.1//EN"
  "http://www.w3.org/Graphics/SVG/1.1/DTD/svg11.dtd">
<svg xmlns:xlink="http://www.w3.org/1999/xlink" width="463.99165pt" height="463.99896pt" viewBox="0 0 463.99165 463.99896" xmlns="http://www.w3.org/2000/svg" version="1.1">
 <metadata>
  <rdf:RDF xmlns:dc="http://purl.org/dc/elements/1.1/" xmlns:cc="http://creativecommons.org/ns#" xmlns:rdf="http://www.w3.org/1999/02/22-rdf-syntax-ns#">
   <cc:Work>
    <dc:type rdf:resource="http://purl.org/dc/dcmitype/StillImage"/>
    <dc:date>2025-02-07T21:28:17.221108</dc:date>
    <dc:format>image/svg+xml</dc:format>
    <dc:creator>
     <cc:Agent>
      <dc:title>Matplotlib v3.8.4, https://matplotlib.org/</dc:title>
     </cc:Agent>
    </dc:creator>
   </cc:Work>
  </rdf:RDF>
 </metadata>
 <defs>
  <style type="text/css">*{stroke-linejoin: round; stroke-linecap: butt}</style>
 </defs>
 <g id="figure_1">
  <g id="patch_1">
   <path d="M 0 463.99896 
L 463.99165 463.99896 
L 463.99165 0 
L 0 0 
L 0 463.99896 
z
" style="fill: none"/>
  </g>
  <g id="axes_1">
   <g id="patch_2">
    <path d="M 72.39625 397.163023 
L 435.656384 397.163023 
L 435.656384 20 
L 72.39625 20 
L 72.39625 397.163023 
z
" style="fill: none"/>
   </g>
   <g id="matplotlib.axis_1">
    <g id="xtick_1">
     <g id="line2d_1">
      <defs>
       <path id="mb5ae7ecaed" d="M 0 0 
L 0 5 
" style="stroke: #000000; stroke-width: 0.75"/>
      </defs>
      <g>
       <use xlink:href="#mb5ae7ecaed" x="95.369693" y="397.163023" style="stroke: #000000; stroke-width: 0.75"/>
      </g>
     </g>
     <g id="text_1">
      <text style="font: 14.5px &quot;Suisse Int&apos;l Mono&quot;; text-anchor: middle" x="95.369693" y="417.675522" transform="rotate(-0 95.369693 417.675522)">540</text>
     </g>
    </g>
    <g id="xtick_2">
     <g id="line2d_2">
      <g>
       <use xlink:href="#mb5ae7ecaed" x="151.131829" y="397.163023" style="stroke: #000000; stroke-width: 0.75"/>
      </g>
     </g>
     <g id="text_2">
      <text style="font: 14.5px &quot;Suisse Int&apos;l Mono&quot;; text-anchor: middle" x="151.131829" y="417.675522" transform="rotate(-0 151.131829 417.675522)">560</text>
     </g>
    </g>
    <g id="xtick_3">
     <g id="line2d_3">
      <g>
       <use xlink:href="#mb5ae7ecaed" x="206.893965" y="397.163023" style="stroke: #000000; stroke-width: 0.75"/>
      </g>
     </g>
     <g id="text_3">
      <text style="font: 14.5px &quot;Suisse Int&apos;l Mono&quot;; text-anchor: middle" x="206.893965" y="417.675522" transform="rotate(-0 206.893965 417.675522)">580</text>
     </g>
    </g>
    <g id="xtick_4">
     <g id="line2d_4">
      <g>
       <use xlink:href="#mb5ae7ecaed" x="262.656101" y="397.163023" style="stroke: #000000; stroke-width: 0.75"/>
      </g>
     </g>
     <g id="text_4">
      <text style="font: 14.5px &quot;Suisse Int&apos;l Mono&quot;; text-anchor: middle" x="262.656101" y="417.675522" transform="rotate(-0 262.656101 417.675522)">600</text>
     </g>
    </g>
    <g id="xtick_5">
     <g id="line2d_5">
      <g>
       <use xlink:href="#mb5ae7ecaed" x="318.418237" y="397.163023" style="stroke: #000000; stroke-width: 0.75"/>
      </g>
     </g>
     <g id="text_5">
      <text style="font: 14.5px &quot;Suisse Int&apos;l Mono&quot;; text-anchor: middle" x="318.418237" y="417.675522" transform="rotate(-0 318.418237 417.675522)">620</text>
     </g>
    </g>
    <g id="xtick_6">
     <g id="line2d_6">
      <g>
       <use xlink:href="#mb5ae7ecaed" x="374.180373" y="397.163023" style="stroke: #000000; stroke-width: 0.75"/>
      </g>
     </g>
     <g id="text_6">
      <text style="font: 14.5px &quot;Suisse Int&apos;l Mono&quot;; text-anchor: middle" x="374.180373" y="417.675522" transform="rotate(-0 374.180373 417.675522)">640</text>
     </g>
    </g>
    <g id="xtick_7">
     <g id="line2d_7">
      <g>
       <use xlink:href="#mb5ae7ecaed" x="429.942509" y="397.163023" style="stroke: #000000; stroke-width: 0.75"/>
      </g>
     </g>
     <g id="text_7">
      <text style="font: 14.5px &quot;Suisse Int&apos;l Mono&quot;; text-anchor: middle" x="429.942509" y="417.675522" transform="rotate(-0 429.942509 417.675522)">660</text>
     </g>
    </g>
    <g id="text_8">
     <text style="font: 500 15px &quot;Suisse Int&apos;l&quot;, sans-serif; text-anchor: middle" x="254.026317" y="441.088023" transform="rotate(-0 254.026317 441.088023)">Wavelength (nm)</text>
    </g>
   </g>
   <g id="matplotlib.axis_2">
    <g id="ytick_1">
     <g id="line2d_8">
      <defs>
       <path id="m94514453f9" d="M 0 0 
L -5 0 
" style="stroke: #000000; stroke-width: 0.75"/>
      </defs>
      <g>
       <use xlink:href="#m94514453f9" x="72.39625" y="382.96473" style="stroke: #000000; stroke-width: 0.75"/>
      </g>
     </g>
     <g id="text_9">
      <text style="font: 14.5px &quot;Suisse Int&apos;l Mono&quot;; text-anchor: end" x="62.39625" y="388.22098" transform="rotate(-0 62.39625 388.22098)">0</text>
     </g>
    </g>
    <g id="ytick_2">
     <g id="line2d_9">
      <g>
       <use xlink:href="#m94514453f9" x="72.39625" y="324.873001" style="stroke: #000000; stroke-width: 0.75"/>
      </g>
     </g>
     <g id="text_10">
      <text style="font: 14.5px &quot;Suisse Int&apos;l Mono&quot;; text-anchor: end" x="62.39625" y="330.129251" transform="rotate(-0 62.39625 330.129251)">2</text>
     </g>
    </g>
    <g id="ytick_3">
     <g id="line2d_10">
      <g>
       <use xlink:href="#m94514453f9" x="72.39625" y="266.781271" style="stroke: #000000; stroke-width: 0.75"/>
      </g>
     </g>
     <g id="text_11">
      <text style="font: 14.5px &quot;Suisse Int&apos;l Mono&quot;; text-anchor: end" x="62.39625" y="272.037521" transform="rotate(-0 62.39625 272.037521)">4</text>
     </g>
    </g>
    <g id="ytick_4">
     <g id="line2d_11">
      <g>
       <use xlink:href="#m94514453f9" x="72.39625" y="208.689541" style="stroke: #000000; stroke-width: 0.75"/>
      </g>
     </g>
     <g id="text_12">
      <text style="font: 14.5px &quot;Suisse Int&apos;l Mono&quot;; text-anchor: end" x="62.39625" y="213.945791" transform="rotate(-0 62.39625 213.945791)">6</text>
     </g>
    </g>
    <g id="ytick_5">
     <g id="line2d_12">
      <g>
       <use xlink:href="#m94514453f9" x="72.39625" y="150.597812" style="stroke: #000000; stroke-width: 0.75"/>
      </g>
     </g>
     <g id="text_13">
      <text style="font: 14.5px &quot;Suisse Int&apos;l Mono&quot;; text-anchor: end" x="62.39625" y="155.854062" transform="rotate(-0 62.39625 155.854062)">8</text>
     </g>
    </g>
    <g id="ytick_6">
     <g id="line2d_13">
      <g>
       <use xlink:href="#m94514453f9" x="72.39625" y="92.506082" style="stroke: #000000; stroke-width: 0.75"/>
      </g>
     </g>
     <g id="text_14">
      <text style="font: 14.5px &quot;Suisse Int&apos;l Mono&quot;; text-anchor: end" x="62.39625" y="97.762332" transform="rotate(-0 62.39625 97.762332)">10</text>
     </g>
    </g>
    <g id="ytick_7">
     <g id="line2d_14">
      <g>
       <use xlink:href="#m94514453f9" x="72.39625" y="34.414353" style="stroke: #000000; stroke-width: 0.75"/>
      </g>
     </g>
     <g id="text_15">
      <text style="font: 14.5px &quot;Suisse Int&apos;l Mono&quot;; text-anchor: end" x="62.39625" y="39.670603" transform="rotate(-0 62.39625 39.670603)">12</text>
     </g>
    </g>
    <g id="text_16">
     <text style="font: 500 15px &quot;Suisse Int&apos;l&quot;, sans-serif; text-anchor: middle" x="30.875" y="208.581511" transform="rotate(-90 30.875 208.581511)">Intensity (au)</text>
    </g>
   </g>
   <g id="line2d_15">
    <path d="M 85.850329 383.18263 
L 121.99954 383.001924 
L 123.149742 382.35182 
L 123.807 382.395899 
L 124.13563 382.623569 
L 124.464259 382.906978 
L 124.792888 382.999642 
L 126.436034 382.955446 
L 128.900753 382.928843 
L 129.393697 382.953544 
L 131.529786 382.927827 
L 134.980393 382.856463 
L 135.144708 382.786871 
L 135.473337 382.897976 
L 136.130595 382.909166 
L 149.111448 382.760369 
L 149.440077 382.57615 
L 149.933021 382.470175 
L 150.097336 382.34356 
L 150.425965 381.483211 
L 150.754594 380.508335 
L 151.083223 380.410759 
L 151.740482 380.447831 
L 151.904796 380.609118 
L 152.726369 382.143295 
L 153.712257 382.24539 
L 154.205201 382.732039 
L 156.834234 382.750205 
L 157.327178 382.764064 
L 159.298953 382.784311 
L 159.956211 382.732915 
L 160.120526 382.595923 
L 160.449155 382.020356 
L 160.777784 381.538637 
L 161.270728 381.430958 
L 161.763672 381.480854 
L 162.092301 382.005196 
L 162.42093 382.590766 
L 162.913874 382.729193 
L 164.885649 382.745588 
L 167.350368 382.716788 
L 168.829199 382.653757 
L 169.157829 382.099724 
L 169.486458 381.538633 
L 170.143716 381.306242 
L 170.472345 381.329147 
L 170.800975 381.664498 
L 171.129604 382.38857 
L 171.622548 382.650183 
L 172.77275 382.679339 
L 173.758637 382.67522 
L 173.922952 382.616203 
L 174.415896 382.698707 
L 177.209244 382.675441 
L 177.537873 382.309696 
L 177.866502 379.576625 
L 178.195131 377.32377 
L 178.523761 376.712587 
L 178.85239 376.458087 
L 179.181019 376.492942 
L 179.345334 377.075254 
L 179.838277 381.448486 
L 180.002592 381.638359 
L 180.331221 382.415423 
L 180.988479 382.554698 
L 181.317109 382.396253 
L 182.138682 381.494408 
L 182.302996 380.704825 
L 182.467311 376.611711 
L 182.960255 357.407776 
L 183.288884 354.646966 
L 183.617513 353.435754 
L 183.781828 353.435754 
L 183.946142 353.57924 
L 184.110457 355.389669 
L 184.767715 378.731507 
L 185.096344 381.350892 
L 185.424974 382.140068 
L 185.753603 382.449465 
L 189.204209 382.49222 
L 189.697153 382.457685 
L 191.175984 382.353788 
L 194.133647 382.192903 
L 194.297962 381.978776 
L 194.626591 379.686244 
L 194.95522 378.012215 
L 195.448164 377.274944 
L 195.941108 377.25162 
L 196.105422 377.696922 
L 196.269737 377.731951 
L 196.434051 380.327809 
L 196.598366 380.983287 
L 196.926995 381.273514 
L 197.419939 381.395303 
L 198.077197 381.235347 
L 198.241512 381.235347 
L 198.570141 381.434108 
L 198.89877 381.328352 
L 199.063085 379.716423 
L 199.556029 367.736485 
L 199.884658 365.482526 
L 200.213287 364.403472 
L 200.377602 364.033428 
L 200.541916 364.033428 
L 200.706231 364.36426 
L 200.870545 366.821831 
L 201.199175 376.255637 
L 201.527804 379.172946 
L 201.856433 380.231319 
L 202.185062 380.547483 
L 202.513691 380.604094 
L 203.828208 380.329436 
L 204.156837 380.145401 
L 204.321152 380.08821 
L 205.964298 377.532464 
L 206.785871 374.954673 
L 207.1145 373.898275 
L 207.607444 371.13427 
L 207.936073 368.49923 
L 208.100388 366.068962 
L 208.264702 361.621459 
L 208.429017 354.121236 
L 208.593331 282.728534 
L 208.757646 63.601592 
L 208.921961 33.969001 
L 210.565107 33.969001 
L 210.729421 36.998485 
L 211.05805 80.8955 
L 211.38668 162.142302 
L 211.715309 312.83283 
L 212.043938 362.544246 
L 212.372567 371.149374 
L 212.701196 373.247067 
L 213.029825 374.353714 
L 213.522769 375.743559 
L 213.851398 376.802193 
L 214.180028 377.444252 
L 214.344342 377.444252 
L 214.508657 377.685565 
L 214.672971 377.037232 
L 214.837286 376.994942 
L 215.165915 374.229688 
L 215.494544 373.703377 
L 216.151803 373.64209 
L 216.480432 373.785286 
L 216.644747 374.235207 
L 216.809061 377.478962 
L 216.973376 378.084772 
L 217.13769 378.084772 
L 217.302005 377.529937 
L 217.46632 361.341748 
L 217.959263 176.417764 
L 218.287893 143.421081 
L 218.616522 125.256087 
L 218.780836 120.065591 
L 218.945151 119.76729 
L 219.109465 119.76729 
L 219.27378 154.134938 
L 219.602409 299.714846 
L 219.931038 344.433859 
L 220.259668 366.38411 
L 220.588297 377.635374 
L 220.916926 380.631484 
L 221.245555 381.086604 
L 223.053016 381.627438 
L 223.381645 381.647973 
L 223.54596 381.287194 
L 223.710274 379.307951 
L 224.038903 372.830549 
L 224.367533 370.882733 
L 224.696162 369.718575 
L 224.860476 368.67699 
L 225.189106 365.030863 
L 225.35342 365.030863 
L 225.846364 373.016442 
L 226.339308 374.731891 
L 226.503622 375.360153 
L 226.996566 379.696614 
L 227.160881 379.696614 
L 227.325195 379.302258 
L 227.653824 379.215847 
L 228.146768 379.110381 
L 228.311083 379.075555 
L 228.639712 378.778067 
L 228.804027 378.778067 
L 229.132656 379.627949 
L 229.461285 379.655485 
L 229.789914 379.905134 
L 230.282858 380.174767 
L 230.775802 381.630778 
L 231.43306 381.958415 
L 231.926004 382.0423 
L 232.747577 381.962946 
L 233.240521 381.774235 
L 233.733464 381.364805 
L 234.062094 381.222596 
L 234.719352 380.781361 
L 235.047981 380.562849 
L 235.37661 380.495578 
L 235.70524 380.095733 
L 235.869554 379.59019 
L 236.033869 378.604025 
L 236.198183 367.068721 
L 236.855442 42.096034 
L 237.019756 39.156592 
L 237.348386 37.829196 
L 237.677015 37.69849 
L 237.841329 37.861147 
L 238.005644 51.562081 
L 238.169959 104.675349 
L 238.498588 265.697781 
L 238.991531 341.465662 
L 239.320161 366.614443 
L 239.64879 378.805951 
L 239.977419 380.887378 
L 240.306048 381.186609 
L 240.634677 381.447005 
L 240.963307 381.531964 
L 241.291936 381.587151 
L 241.78488 380.822054 
L 242.277823 380.666049 
L 242.442138 380.070783 
L 242.935082 376.040407 
L 244.085284 375.837667 
L 244.249599 376.91097 
L 244.578228 380.030612 
L 244.906857 380.692945 
L 245.071171 380.692945 
L 245.235486 378.619535 
L 245.399801 369.032221 
L 245.892744 280.118182 
L 246.385688 257.699712 
L 246.714317 250.309573 
L 246.878632 250.309573 
L 247.042947 251.697384 
L 247.207261 269.658185 
L 247.53589 339.86843 
L 247.86452 360.103522 
L 248.357463 375.247746 
L 248.686093 380.18136 
L 248.850407 381.216381 
L 249.014722 381.216381 
L 249.179036 381.093371 
L 249.507666 378.376624 
L 250.000609 377.414044 
L 250.164924 377.276251 
L 250.329239 376.710989 
L 250.657868 375.275339 
L 250.822182 375.275339 
L 251.315126 378.494928 
L 251.972384 379.630883 
L 252.465328 381.664239 
L 252.793957 381.98781 
L 253.122587 381.883099 
L 253.451216 381.448108 
L 253.779845 381.325535 
L 254.437103 381.260908 
L 254.765733 381.348191 
L 255.094362 381.962917 
L 255.75162 382.235629 
L 258.380654 382.247364 
L 260.352429 382.038872 
L 261.338316 381.570421 
L 261.502631 381.119484 
L 261.666946 372.806441 
L 262.159889 267.931408 
L 262.652833 243.376906 
L 262.981462 233.453095 
L 263.145777 230.729755 
L 263.310092 230.729755 
L 263.474406 252.560627 
L 263.803035 331.464881 
L 264.131664 353.778495 
L 264.624608 371.993738 
L 264.953237 378.472185 
L 265.281867 381.349614 
L 265.610496 381.846443 
L 266.596383 381.902647 
L 266.925013 381.726687 
L 268.403844 381.779928 
L 268.732473 381.903664 
L 269.225417 382.018366 
L 269.718361 381.948162 
L 271.525821 381.856232 
L 272.018765 381.604404 
L 272.347394 381.012391 
L 273.661911 380.177003 
L 274.154855 380.116907 
L 274.319169 379.850963 
L 274.647799 378.709519 
L 274.812113 373.524745 
L 274.976428 291.296483 
L 275.305057 57.106937 
L 275.469372 42.941268 
L 275.798001 37.663635 
L 276.12663 35.816318 
L 276.290945 35.816318 
L 276.455259 35.993498 
L 276.619574 45.790668 
L 276.783888 89.199713 
L 277.112517 230.802951 
L 277.605461 315.372019 
L 278.098405 359.041896 
L 278.427034 375.087413 
L 278.755663 379.175967 
L 279.084293 379.820523 
L 279.577236 379.770884 
L 280.563124 379.074713 
L 281.056068 376.852385 
L 281.220382 375.133305 
L 281.384697 342.983599 
L 281.713326 35.958643 
L 281.877641 34.029997 
L 282.20627 33.969001 
L 283.027843 33.969001 
L 283.192158 38.912607 
L 283.520787 96.144579 
L 284.34236 303.112341 
L 284.835303 361.23573 
L 285.163933 376.525648 
L 285.492562 379.666232 
L 285.985506 380.433682 
L 287.464337 381.059823 
L 287.792966 381.118322 
L 287.957281 381.038387 
L 288.121595 380.64075 
L 289.271798 380.348664 
L 289.600427 380.35154 
L 290.422 381.064906 
L 290.914943 380.919358 
L 291.079258 378.249897 
L 291.407887 365.125843 
L 291.736516 360.748341 
L 292.22946 357.210264 
L 292.558089 355.769589 
L 292.722404 355.769589 
L 293.379662 373.057978 
L 293.872606 375.973892 
L 294.36555 377.130789 
L 294.529865 377.130789 
L 294.694179 376.850526 
L 294.858494 376.072067 
L 295.022808 374.735958 
L 295.187123 372.303076 
L 295.351438 343.160198 
L 295.680067 33.969001 
L 297.158898 33.986428 
L 297.323213 41.506403 
L 297.816156 98.218454 
L 298.802044 333.214023 
L 299.130673 366.917973 
L 299.459302 376.07381 
L 299.787932 377.933181 
L 300.116561 378.499605 
L 300.773819 378.986559 
L 300.938134 378.891433 
L 301.266763 378.298752 
L 301.431078 375.050524 
L 301.595392 321.81933 
L 301.924021 141.097992 
L 302.252651 79.205031 
L 302.58128 55.834728 
L 302.909909 49.290694 
L 303.074223 49.290694 
L 303.238538 57.321876 
L 303.402853 108.985756 
L 303.731482 250.755136 
L 304.060111 301.078259 
L 304.553055 345.712749 
L 305.045999 370.375012 
L 305.374628 377.582162 
L 305.703257 379.114186 
L 305.867572 379.114186 
L 306.360515 379.444931 
L 306.52483 379.459077 
L 307.017774 380.174447 
L 307.182088 379.835627 
L 307.510718 378.254109 
L 307.675032 377.842616 
L 308.66092 377.383459 
L 308.825234 377.742582 
L 309.153864 379.87176 
L 309.646807 380.476176 
L 310.304066 380.968242 
L 310.797009 380.961155 
L 311.618582 381.581371 
L 311.947212 381.581371 
L 312.440155 381.903344 
L 312.768785 381.91049 
L 313.097414 382.038088 
L 313.590358 381.964602 
L 314.083301 381.829452 
L 314.576245 380.763933 
L 314.904874 380.644932 
L 315.397818 380.409138 
L 315.890762 380.443441 
L 316.219391 381.0033 
L 316.383706 381.0033 
L 316.54802 380.820979 
L 317.040964 377.95787 
L 317.205279 377.277877 
L 317.369593 376.09879 
L 317.533908 364.170524 
L 318.026852 201.884307 
L 318.355481 165.952539 
L 318.848425 136.869495 
L 319.012739 130.738785 
L 319.177054 130.738785 
L 319.341368 154.289753 
L 319.669998 269.077268 
L 319.998627 313.372792 
L 320.491571 347.78459 
L 320.984514 368.060347 
L 321.313144 377.079727 
L 321.641773 380.426478 
L 321.970402 381.188003 
L 322.463346 381.649164 
L 323.120604 381.778796 
L 323.942177 381.874879 
L 325.913952 381.982175 
L 326.406896 381.845282 
L 326.571211 381.443548 
L 327.064154 381.223758 
L 327.885727 380.901988 
L 328.050042 380.924382 
L 328.542986 381.372531 
L 329.035929 381.379618 
L 329.693188 381.173451 
L 329.857502 381.080417 
L 331.336334 378.951762 
L 331.664963 378.09851 
L 331.829278 377.400248 
L 331.993592 375.520196 
L 332.157907 363.2306 
L 332.322221 255.025459 
L 332.486536 73.250628 
L 332.650851 34.669006 
L 332.815165 34.032902 
L 332.97948 33.969001 
L 333.143794 34.032902 
L 333.472424 34.024188 
L 333.801053 34.024188 
L 333.965367 34.131658 
L 334.293997 68.56553 
L 334.458311 92.45285 
L 334.951255 222.635835 
L 335.444199 304.423181 
L 336.101457 366.730336 
L 336.430086 377.29667 
L 336.758715 379.642211 
L 337.251659 380.644061 
L 337.580288 381.034408 
L 338.730491 381.469515 
L 339.223434 381.560719 
L 340.373637 381.637342 
L 341.030895 380.728671 
L 342.016782 380.268904 
L 342.345412 380.435599 
L 342.509726 380.617339 
L 342.674041 380.617339 
L 343.166985 380.295104 
L 343.331299 379.859183 
L 343.495614 378.160436 
L 343.659928 365.386675 
L 344.317187 164.106965 
L 344.810131 116.466228 
L 345.13876 98.119698 
L 345.303074 98.119698 
L 345.467389 118.612136 
L 345.796018 236.177307 
L 346.124647 289.890663 
L 346.617591 331.175584 
L 347.110535 357.432755 
L 347.603479 374.447532 
L 347.932108 378.442297 
L 348.753681 380.664974 
L 349.410939 380.946457 
L 349.903883 380.841311 
L 350.396827 380.634098 
L 350.561141 380.477483 
L 350.725456 379.672738 
L 351.2184 375.789742 
L 352.039973 371.10203 
L 352.204287 369.546043 
L 352.368602 364.052598 
L 352.532917 328.042987 
L 352.861546 59.125624 
L 353.02586 35.929597 
L 353.190175 34.102612 
L 353.518804 33.969001 
L 354.176063 34.032902 
L 354.340377 38.773187 
L 354.669006 76.326585 
L 355.819208 305.206257 
L 356.476467 366.696934 
L 356.805096 377.41875 
L 357.133725 379.950097 
L 357.462354 380.546728 
L 357.626669 380.749062 
L 358.119613 380.641301 
L 359.1055 380.479981 
L 359.598444 380.614056 
L 360.091388 380.976229 
L 360.584332 381.06874 
L 361.898848 381.138567 
L 364.199253 380.379453 
L 365.349455 379.255785 
L 366.171028 377.655997 
L 366.499657 376.022399 
L 366.663972 374.761518 
L 366.828286 369.164961 
L 366.992601 338.397257 
L 367.32123 45.256224 
L 367.485545 34.172322 
L 367.649859 33.97481 
L 368.800061 33.969001 
L 368.964376 34.108421 
L 369.128691 38.947462 
L 369.45732 57.464201 
L 369.621634 71.699579 
L 369.950264 147.346339 
L 370.607522 289.943526 
L 370.936151 343.064347 
L 371.26478 366.066929 
L 371.59341 372.900549 
L 371.757724 373.492504 
L 371.922039 373.492504 
L 372.086353 373.012666 
L 372.250668 372.114568 
L 372.414983 370.023266 
L 372.579297 361.937478 
L 372.743612 318.979806 
L 373.072241 36.005116 
L 373.236556 34.166513 
L 373.40087 33.969001 
L 374.879701 33.969001 
L 375.044016 34.227509 
L 375.208331 36.649934 
L 375.53696 48.596498 
L 375.701274 59.607786 
L 375.865589 86.765669 
L 376.687162 321.762981 
L 377.015791 360.563028 
L 377.34442 373.658937 
L 377.67305 377.524854 
L 378.165993 379.225984 
L 378.494623 379.787324 
L 379.151881 379.854652 
L 379.973454 379.987189 
L 380.466398 380.374225 
L 381.287971 381.294659 
L 382.109544 381.696451 
L 382.602487 381.808945 
L 385.395836 382.094379 
L 385.56015 381.997598 
L 385.724465 381.635803 
L 386.217409 381.323589 
L 386.546038 381.110857 
L 387.367611 381.21731 
L 387.860554 381.780858 
L 388.682127 382.163711 
L 389.668015 382.336041 
L 390.982532 382.378767 
L 392.132734 382.287156 
L 394.761767 382.232405 
L 395.090397 382.160284 
L 395.747655 382.10774 
L 396.240599 382.075819 
L 398.705318 381.978079 
L 400.841407 381.413108 
L 401.005722 381.146293 
L 401.170037 381.112135 
L 401.99161 380.351976 
L 402.155924 380.020649 
L 402.484553 379.778349 
L 402.813183 379.110991 
L 403.306126 377.560668 
L 403.470441 376.782035 
L 403.634756 375.169322 
L 403.79907 370.188247 
L 403.963385 340.806612 
L 404.456329 33.97481 
L 406.099474 33.97481 
L 406.263789 35.801795 
L 406.428104 40.759924 
L 406.756733 61.710706 
L 407.085362 145.234705 
L 407.74262 300.386386 
L 408.07125 352.468817 
L 408.399879 371.845894 
L 408.728508 376.980622 
L 409.057137 379.063385 
L 409.550081 380.143891 
L 409.87871 380.467433 
L 410.371654 380.574002 
L 410.700283 380.488782 
L 411.028912 380.385843 
L 411.521856 379.738701 
L 411.686171 378.683204 
L 411.850485 371.544108 
L 412.0148 339.909675 
L 412.507744 169.933275 
L 413.000687 85.891389 
L 413.329317 61.524813 
L 413.493631 59.247617 
L 413.657946 59.247617 
L 413.82226 84.624989 
L 414.15089 184.075706 
L 414.808148 293.302681 
L 415.301092 335.300678 
L 415.794036 366.259212 
L 416.122665 376.95358 
L 416.451294 380.356216 
L 416.779923 381.31778 
L 417.272867 381.783908 
L 417.930125 382.027864 
L 418.423069 382.107624 
L 422.202305 382.477494 
L 422.202305 382.477494 
" clip-path="url(#pedc97b6a15)" style="fill: none; stroke: #5088c5; stroke-linecap: round"/>
   </g>
   <g id="line2d_16">
    <defs>
     <path id="ma95bf7525d" d="M 0 2 
C 0.530406 2 1.03916 1.789267 1.414214 1.414214 
C 1.789267 1.03916 2 0.530406 2 0 
C 2 -0.530406 1.789267 -1.03916 1.414214 -1.414214 
C 1.03916 -1.789267 0.530406 -2 0 -2 
C -0.530406 -2 -1.03916 -1.789267 -1.414214 -1.414214 
C -1.789267 -1.03916 -2 -0.530406 -2 0 
C -2 0.530406 -1.789267 1.03916 -1.414214 1.414214 
C -1.03916 1.789267 -0.530406 2 0 2 
z
"/>
    </defs>
    <g clip-path="url(#pedc97b6a15)">
     <use xlink:href="#ma95bf7525d" x="210.077192" y="33.969001" style="fill: #f28360"/>
     <use xlink:href="#ma95bf7525d" x="237.422073" y="37.829196" style="fill: #f28360"/>
     <use xlink:href="#ma95bf7525d" x="276.09144" y="35.816318" style="fill: #f28360"/>
     <use xlink:href="#ma95bf7525d" x="282.689595" y="33.969001" style="fill: #f28360"/>
     <use xlink:href="#ma95bf7525d" x="282.694823" y="33.969001" style="fill: #f28360"/>
     <use xlink:href="#ma95bf7525d" x="296.670595" y="33.969001" style="fill: #f28360"/>
     <use xlink:href="#ma95bf7525d" x="302.761871" y="52.13138" style="fill: #f28360"/>
     <use xlink:href="#ma95bf7525d" x="333.595058" y="33.969001" style="fill: #f28360"/>
     <use xlink:href="#ma95bf7525d" x="333.609209" y="33.969001" style="fill: #f28360"/>
     <use xlink:href="#ma95bf7525d" x="333.612925" y="33.969001" style="fill: #f28360"/>
     <use xlink:href="#ma95bf7525d" x="353.919117" y="34.000951" style="fill: #f28360"/>
     <use xlink:href="#ma95bf7525d" x="368.654831" y="33.969001" style="fill: #f28360"/>
     <use xlink:href="#ma95bf7525d" x="374.438429" y="33.969001" style="fill: #f28360"/>
     <use xlink:href="#ma95bf7525d" x="405.638949" y="34.003856" style="fill: #f28360"/>
     <use xlink:href="#ma95bf7525d" x="413.393761" y="61.524813" style="fill: #f28360"/>
    </g>
   </g>
   <g id="patch_3">
    <path d="M 72.39625 397.163022 
L 72.39625 20 
" style="fill: none; stroke: #000000; stroke-width: 0.75; stroke-linejoin: miter; stroke-linecap: square"/>
   </g>
   <g id="patch_4">
    <path d="M 72.39625 397.163023 
L 435.656384 397.163023 
" style="fill: none; stroke: #000000; stroke-width: 0.75; stroke-linejoin: miter; stroke-linecap: square"/>
   </g>
  </g>
 </g>
 <defs>
  <clipPath id="pedc97b6a15">
   <rect x="72.39625" y="20" width="363.260134" height="377.163023"/>
  </clipPath>
 </defs>
</svg>
