<?xml version="1.0" encoding="utf-8" standalone="no"?>
<!DOCTYPE svg PUBLIC "-//W3C//DTD SVG 1.1//EN"
  "http://www.w3.org/Graphics/SVG/1.1/DTD/svg11.dtd">
<svg xmlns:xlink="http://www.w3.org/1999/xlink" width="463.99896pt" height="463.99896pt" viewBox="0 0 463.99896 463.99896" xmlns="http://www.w3.org/2000/svg" version="1.1">
 <metadata>
  <rdf:RDF xmlns:dc="http://purl.org/dc/elements/1.1/" xmlns:cc="http://creativecommons.org/ns#" xmlns:rdf="http://www.w3.org/1999/02/22-rdf-syntax-ns#">
   <cc:Work>
    <dc:type rdf:resource="http://purl.org/dc/dcmitype/StillImage"/>
    <dc:date>2025-01-29T10:33:00.236237</dc:date>
    <dc:format>image/svg+xml</dc:format>
    <dc:creator>
     <cc:Agent>
      <dc:title>Matplotlib v3.8.4, https://matplotlib.org/</dc:title>
     </cc:Agent>
    </dc:creator>
   </cc:Work>
  </rdf:RDF>
 </metadata>
 <defs>
  <style type="text/css">*{stroke-linejoin: round; stroke-linecap: butt}</style>
 </defs>
 <g id="figure_1">
  <g id="patch_1">
   <path d="M 0 463.99896 
L 463.99896 463.99896 
L 463.99896 0 
L 0 0 
L 0 463.99896 
z
" style="fill: none"/>
  </g>
  <g id="axes_1">
   <g id="patch_2">
    <path d="M 81.762344 397.284897 
L 443.99896 397.284897 
L 443.99896 20 
L 81.762344 20 
L 81.762344 397.284897 
z
" style="fill: none"/>
   </g>
   <g id="matplotlib.axis_1">
    <g id="xtick_1">
     <g id="line2d_1">
      <defs>
       <path id="m514aa4798e" d="M 0 0 
L 0 5 
" style="stroke: #000000; stroke-width: 0.75"/>
      </defs>
      <g>
       <use xlink:href="#m514aa4798e" x="105.088164" y="397.284897" style="stroke: #000000; stroke-width: 0.75"/>
      </g>
     </g>
     <g id="text_1">
      <text style="font: 14.5px &quot;Suisse Int&apos;l Mono&quot;; text-anchor: middle" x="105.088164" y="417.797397" transform="rotate(-0 105.088164 417.797397)">500</text>
     </g>
    </g>
    <g id="xtick_2">
     <g id="line2d_2">
      <g>
       <use xlink:href="#m514aa4798e" x="158.325132" y="397.284897" style="stroke: #000000; stroke-width: 0.75"/>
      </g>
     </g>
     <g id="text_2">
      <text style="font: 14.5px &quot;Suisse Int&apos;l Mono&quot;; text-anchor: middle" x="158.325132" y="417.797397" transform="rotate(-0 158.325132 417.797397)">1000</text>
     </g>
    </g>
    <g id="xtick_3">
     <g id="line2d_3">
      <g>
       <use xlink:href="#m514aa4798e" x="211.5621" y="397.284897" style="stroke: #000000; stroke-width: 0.75"/>
      </g>
     </g>
     <g id="text_3">
      <text style="font: 14.5px &quot;Suisse Int&apos;l Mono&quot;; text-anchor: middle" x="211.5621" y="417.797397" transform="rotate(-0 211.5621 417.797397)">1500</text>
     </g>
    </g>
    <g id="xtick_4">
     <g id="line2d_4">
      <g>
       <use xlink:href="#m514aa4798e" x="264.799068" y="397.284897" style="stroke: #000000; stroke-width: 0.75"/>
      </g>
     </g>
     <g id="text_4">
      <text style="font: 14.5px &quot;Suisse Int&apos;l Mono&quot;; text-anchor: middle" x="264.799068" y="417.797397" transform="rotate(-0 264.799068 417.797397)">2000</text>
     </g>
    </g>
    <g id="xtick_5">
     <g id="line2d_5">
      <g>
       <use xlink:href="#m514aa4798e" x="318.036035" y="397.284897" style="stroke: #000000; stroke-width: 0.75"/>
      </g>
     </g>
     <g id="text_5">
      <text style="font: 14.5px &quot;Suisse Int&apos;l Mono&quot;; text-anchor: middle" x="318.036035" y="417.797397" transform="rotate(-0 318.036035 417.797397)">2500</text>
     </g>
    </g>
    <g id="xtick_6">
     <g id="line2d_6">
      <g>
       <use xlink:href="#m514aa4798e" x="371.273003" y="397.284897" style="stroke: #000000; stroke-width: 0.75"/>
      </g>
     </g>
     <g id="text_6">
      <text style="font: 14.5px &quot;Suisse Int&apos;l Mono&quot;; text-anchor: middle" x="371.273003" y="417.797397" transform="rotate(-0 371.273003 417.797397)">3000</text>
     </g>
    </g>
    <g id="xtick_7">
     <g id="line2d_7">
      <g>
       <use xlink:href="#m514aa4798e" x="424.509971" y="397.284897" style="stroke: #000000; stroke-width: 0.75"/>
      </g>
     </g>
     <g id="text_7">
      <text style="font: 14.5px &quot;Suisse Int&apos;l Mono&quot;; text-anchor: middle" x="424.509971" y="417.797397" transform="rotate(-0 424.509971 417.797397)">3500</text>
     </g>
    </g>
    <g id="text_8">
     <text style="font: 500 15px &quot;Suisse Int&apos;l&quot;, sans-serif; text-anchor: middle" x="262.880652" y="441.209898" transform="rotate(-0 262.880652 441.209898)">Raman shift (cm-1)</text>
    </g>
   </g>
   <g id="matplotlib.axis_2">
    <g id="ytick_1">
     <g id="line2d_8">
      <defs>
       <path id="m84c626fdcb" d="M 0 0 
L -5 0 
" style="stroke: #000000; stroke-width: 0.75"/>
      </defs>
      <g>
       <use xlink:href="#m84c626fdcb" x="81.762344" y="380.726739" style="stroke: #000000; stroke-width: 0.75"/>
      </g>
     </g>
     <g id="text_9">
      <text style="font: 14.5px &quot;Suisse Int&apos;l Mono&quot;; text-anchor: end" x="71.762344" y="385.982989" transform="rotate(-0 71.762344 385.982989)">0.0</text>
     </g>
    </g>
    <g id="ytick_2">
     <g id="line2d_9">
      <g>
       <use xlink:href="#m84c626fdcb" x="81.762344" y="331.998013" style="stroke: #000000; stroke-width: 0.75"/>
      </g>
     </g>
     <g id="text_10">
      <text style="font: 14.5px &quot;Suisse Int&apos;l Mono&quot;; text-anchor: end" x="71.762344" y="337.254263" transform="rotate(-0 71.762344 337.254263)">0.1</text>
     </g>
    </g>
    <g id="ytick_3">
     <g id="line2d_10">
      <g>
       <use xlink:href="#m84c626fdcb" x="81.762344" y="283.269287" style="stroke: #000000; stroke-width: 0.75"/>
      </g>
     </g>
     <g id="text_11">
      <text style="font: 14.5px &quot;Suisse Int&apos;l Mono&quot;; text-anchor: end" x="71.762344" y="288.525537" transform="rotate(-0 71.762344 288.525537)">0.2</text>
     </g>
    </g>
    <g id="ytick_4">
     <g id="line2d_11">
      <g>
       <use xlink:href="#m84c626fdcb" x="81.762344" y="234.540562" style="stroke: #000000; stroke-width: 0.75"/>
      </g>
     </g>
     <g id="text_12">
      <text style="font: 14.5px &quot;Suisse Int&apos;l Mono&quot;; text-anchor: end" x="71.762344" y="239.796812" transform="rotate(-0 71.762344 239.796812)">0.3</text>
     </g>
    </g>
    <g id="ytick_5">
     <g id="line2d_12">
      <g>
       <use xlink:href="#m84c626fdcb" x="81.762344" y="185.811836" style="stroke: #000000; stroke-width: 0.75"/>
      </g>
     </g>
     <g id="text_13">
      <text style="font: 14.5px &quot;Suisse Int&apos;l Mono&quot;; text-anchor: end" x="71.762344" y="191.068086" transform="rotate(-0 71.762344 191.068086)">0.4</text>
     </g>
    </g>
    <g id="ytick_6">
     <g id="line2d_13">
      <g>
       <use xlink:href="#m84c626fdcb" x="81.762344" y="137.08311" style="stroke: #000000; stroke-width: 0.75"/>
      </g>
     </g>
     <g id="text_14">
      <text style="font: 14.5px &quot;Suisse Int&apos;l Mono&quot;; text-anchor: end" x="71.762344" y="142.33936" transform="rotate(-0 71.762344 142.33936)">0.5</text>
     </g>
    </g>
    <g id="ytick_7">
     <g id="line2d_14">
      <g>
       <use xlink:href="#m84c626fdcb" x="81.762344" y="88.354384" style="stroke: #000000; stroke-width: 0.75"/>
      </g>
     </g>
     <g id="text_15">
      <text style="font: 14.5px &quot;Suisse Int&apos;l Mono&quot;; text-anchor: end" x="71.762344" y="93.610634" transform="rotate(-0 71.762344 93.610634)">0.6</text>
     </g>
    </g>
    <g id="ytick_8">
     <g id="line2d_15">
      <g>
       <use xlink:href="#m84c626fdcb" x="81.762344" y="39.625659" style="stroke: #000000; stroke-width: 0.75"/>
      </g>
     </g>
     <g id="text_16">
      <text style="font: 14.5px &quot;Suisse Int&apos;l Mono&quot;; text-anchor: end" x="71.762344" y="44.881909" transform="rotate(-0 71.762344 44.881909)">0.7</text>
     </g>
    </g>
    <g id="text_17">
     <text style="font: 500 15px &quot;Suisse Int&apos;l&quot;, sans-serif; text-anchor: middle" x="30.875" y="208.642449" transform="rotate(-90 30.875 208.642449)">Intensity (AU)</text>
    </g>
   </g>
   <g id="line2d_16">
    <path d="M 95.178515 374.711316 
L 95.376236 374.56513 
L 95.771559 374.640172 
L 95.969161 374.640172 
L 96.364244 374.519812 
L 96.561726 374.519812 
L 96.759168 374.110978 
L 96.956571 374.110978 
L 97.153933 374.267397 
L 97.548538 374.267397 
L 97.745781 374.413583 
L 98.534355 374.46085 
L 98.731399 374.555384 
L 98.928403 374.884303 
L 99.125367 374.884303 
L 99.322292 374.460363 
L 99.519177 374.460363 
L 99.716023 375.003688 
L 100.109594 375.087502 
L 100.306321 374.799515 
L 100.896262 374.650405 
L 101.09283 374.650405 
L 101.289358 373.043819 
L 101.485847 373.043819 
L 101.682296 374.05494 
L 101.878705 374.260575 
L 102.075075 374.260575 
L 102.271406 374.880405 
L 102.467697 374.880405 
L 102.663948 374.234749 
L 102.86016 374.234749 
L 103.056332 374.019368 
L 103.448559 375.195679 
L 103.644613 375.195679 
L 103.840627 374.516401 
L 104.232538 374.516401 
L 104.624291 374.307355 
L 104.820109 374.307355 
L 105.015887 374.527121 
L 105.211626 374.527121 
L 105.407325 374.214283 
L 105.602985 373.29331 
L 105.798606 374.214283 
L 105.994187 372.588693 
L 106.189729 374.526147 
L 107.166851 374.517863 
L 107.362158 374.767354 
L 108.142992 374.718625 
L 108.338103 374.245469 
L 108.533174 374.245469 
L 108.728206 374.48424 
L 109.507944 374.508604 
L 109.702781 374.865786 
L 110.676379 374.788307 
L 110.870981 374.206974 
L 111.065545 374.206974 
L 111.260069 374.780023 
L 112.426398 374.970553 
L 112.62065 374.449643 
L 113.009037 374.449643 
L 113.203172 374.925722 
L 113.591325 375.045595 
L 113.979324 374.950574 
L 114.173265 375.15962 
L 114.948641 375.160108 
L 115.142388 374.637736 
L 115.336096 374.637736 
L 115.529765 375.130383 
L 115.723396 375.130383 
L 115.916988 374.867248 
L 116.304056 374.894536 
L 116.497532 375.391569 
L 116.69097 375.566018 
L 117.850782 375.537268 
L 118.237078 375.431527 
L 118.430168 375.431527 
L 118.623219 374.598753 
L 118.816232 375.64642 
L 119.202142 375.64642 
L 119.395039 375.113815 
L 119.587897 375.113815 
L 119.780718 375.35551 
L 120.166243 375.35551 
L 120.551614 375.607924 
L 120.744242 375.561145 
L 120.936831 375.820869 
L 121.129383 375.238561 
L 121.321895 376.199491 
L 121.706806 376.171229 
L 122.091563 375.82964 
L 122.668411 375.809661 
L 122.860617 375.261951 
L 123.437005 375.36623 
L 123.629058 375.856441 
L 124.204988 375.774577 
L 124.396888 374.809261 
L 124.780573 376.220445 
L 124.972359 376.220445 
L 125.164106 375.697098 
L 125.355815 375.593793 
L 125.547486 375.697098 
L 125.739119 376.308156 
L 125.930714 376.308156 
L 126.122271 375.809661 
L 126.313789 375.809661 
L 126.50527 375.98411 
L 126.696712 375.98411 
L 126.888117 376.228241 
L 127.079483 376.228241 
L 127.270811 376.377351 
L 127.653354 376.377351 
L 127.844568 376.192669 
L 128.226883 376.192669 
L 128.417983 375.92125 
L 128.80007 375.92856 
L 129.563788 376.373453 
L 129.754623 376.373453 
L 130.3269 375.052417 
L 130.517584 374.903307 
L 130.708229 374.903307 
L 131.279939 373.945788 
L 131.470433 373.945788 
L 131.66089 374.08369 
L 131.851309 374.57585 
L 132.04169 374.740553 
L 132.612606 374.771252 
L 132.993029 376.066462 
L 133.183184 375.675657 
L 133.373301 375.904682 
L 133.56338 375.904682 
L 133.943426 376.261864 
L 134.133392 376.261864 
L 134.323321 376.467499 
L 134.703066 376.457753 
L 134.892882 375.663963 
L 135.08266 375.663963 
L 135.272401 376.538156 
L 135.462105 376.545465 
L 135.65177 376.795931 
L 136.220543 376.189745 
L 136.410058 375.402289 
L 136.599537 376.189745 
L 136.788977 375.937331 
L 137.357075 376.087902 
L 137.73562 376.728198 
L 137.924836 376.486503 
L 138.114015 376.486503 
L 138.49226 376.361758 
L 138.870356 376.429004 
L 139.248302 376.515253 
L 139.43722 376.278432 
L 140.192516 376.243347 
L 140.56994 376.123474 
L 140.758596 376.623431 
L 140.947216 376.623431 
L 141.135797 376.252606 
L 141.324342 376.252606 
L 141.51285 376.477732 
L 142.266508 376.537669 
L 142.643114 375.87106 
L 143.019571 375.87106 
L 143.207745 376.498686 
L 143.395881 376.18 
L 143.58398 376.557647 
L 143.772042 376.18 
L 144.148054 376.096674 
L 144.336005 376.623918 
L 144.523919 376.623918 
L 144.711796 376.776927 
L 144.899635 376.571779 
L 145.462933 376.536694 
L 145.650625 375.904195 
L 145.838279 376.536207 
L 146.025897 376.329597 
L 146.401023 376.251144 
L 146.58853 374.537842 
L 147.15083 374.648943 
L 147.33819 374.283478 
L 147.525513 374.283478 
L 147.900048 370.29893 
L 148.08726 370.29893 
L 148.461575 361.615471 
L 149.209762 333.268509 
L 149.396717 331.630737 
L 149.583635 331.630737 
L 149.957362 335.160646 
L 150.704374 349.410874 
L 150.891036 362.457991 
L 151.4508 372.647167 
L 151.637315 372.647167 
L 152.010235 375.110404 
L 152.569341 375.15962 
L 152.755636 373.410746 
L 152.941895 376.055254 
L 153.128118 376.20144 
L 153.314304 376.75305 
L 153.500453 376.75305 
L 153.686566 376.889977 
L 153.872642 376.624893 
L 154.058682 376.889977 
L 154.244686 376.564469 
L 154.430653 376.896312 
L 154.616583 376.168305 
L 154.802478 377.74809 
L 154.988335 376.714067 
L 155.174157 377.632603 
L 155.359942 377.417709 
L 155.54569 377.417709 
L 155.731402 376.049894 
L 155.917078 376.049894 
L 156.102718 377.31879 
L 156.473888 377.805103 
L 156.659418 377.805103 
L 156.844912 377.492264 
L 157.03037 377.492264 
L 157.215792 377.888916 
L 157.771839 377.874785 
L 158.142356 377.578514 
L 158.32756 377.578514 
L 158.697859 377.835315 
L 159.068014 377.835315 
L 159.253037 377.577052 
L 159.622975 377.577052 
L 159.807889 377.213536 
L 160.17761 377.107795 
L 160.362416 377.787073 
L 160.547187 376.898261 
L 160.731921 377.476184 
L 161.101281 377.447921 
L 161.285907 377.132159 
L 161.839568 377.100485 
L 162.392905 376.022119 
L 162.945919 377.173091 
L 163.130185 376.9811 
L 163.314415 376.9811 
L 163.682767 377.229616 
L 163.866889 377.229616 
L 164.050975 377.370443 
L 164.235026 377.370443 
L 164.41904 377.627243 
L 164.603019 377.419659 
L 164.970869 377.440125 
L 165.15474 377.727624 
L 165.522374 377.727624 
L 165.706138 376.872922 
L 165.889866 378.354763 
L 166.073558 377.899636 
L 166.257214 378.338195 
L 166.440835 378.338195 
L 166.62442 378.550165 
L 166.807969 378.550163 
L 166.991482 378.293358 
L 167.17496 378.293354 
L 167.358402 378.706082 
L 167.541808 378.706075 
L 167.725179 378.575961 
L 167.908513 378.213409 
L 168.275076 378.731372 
L 168.641496 378.731341 
L 168.824653 378.858991 
L 169.007774 379.345771 
L 169.190859 379.345749 
L 169.373909 378.673756 
L 169.556923 378.673731 
L 169.739902 379.384168 
L 169.922845 379.410453 
L 170.105752 379.757859 
L 170.288624 379.757828 
L 170.471461 379.430826 
L 170.837027 379.430758 
L 171.019757 379.076952 
L 171.202451 379.076914 
L 171.38511 379.375095 
L 172.66273 379.629637 
L 172.845106 379.939016 
L 173.20975 379.899933 
L 173.39202 379.703505 
L 173.574254 379.703453 
L 173.938615 380.120464 
L 174.302836 379.77438 
L 174.484893 379.774323 
L 174.666915 379.988672 
L 174.848902 379.988614 
L 175.030854 379.84578 
L 175.21277 379.84572 
L 175.758307 380.214413 
L 175.940082 380.102275 
L 176.121822 379.666089 
L 176.303527 380.102147 
L 176.485196 379.910092 
L 176.666831 380.517186 
L 176.84843 379.90996 
L 177.211523 378.344172 
L 177.393017 378.344103 
L 177.574476 379.681638 
L 177.755899 379.743942 
L 177.937288 380.514273 
L 178.118641 380.514202 
L 178.481242 379.890332 
L 178.66249 379.89026 
L 178.843703 380.519274 
L 180.292147 380.501141 
L 180.473044 380.216978 
L 181.37701 380.231215 
L 181.557698 379.105504 
L 181.738352 379.105424 
L 182.099554 380.369772 
L 182.460617 380.469988 
L 182.82154 380.424018 
L 183.001949 380.696815 
L 183.362664 380.683004 
L 183.723239 380.051313 
L 184.083675 380.051143 
L 184.263841 380.442349 
L 184.624068 380.433892 
L 184.80413 379.972832 
L 184.984157 380.433718 
L 185.52403 380.4125 
L 185.703918 380.133683 
L 186.243374 380.154854 
L 186.423124 379.608514 
L 186.602839 379.608422 
L 186.782519 379.285257 
L 186.962165 379.285162 
L 187.321353 380.472488 
L 187.859875 380.157407 
L 188.039313 379.22123 
L 188.218717 379.050092 
L 188.398086 379.04999 
L 188.756721 379.685692 
L 188.935987 379.995501 
L 189.294415 380.005033 
L 189.473577 378.689736 
L 189.831798 378.710468 
L 190.010857 379.777513 
L 190.368872 379.777282 
L 190.547827 379.446297 
L 191.263306 379.350795 
L 191.44209 378.750821 
L 191.620839 378.581119 
L 192.156882 378.609967 
L 192.335494 378.51871 
L 192.514072 377.078155 
L 192.692615 377.327999 
L 192.871124 377.077887 
L 193.049599 377.327731 
L 193.22804 376.982111 
L 193.406447 377.374243 
L 193.941461 376.169754 
L 194.476167 376.279479 
L 194.832467 376.390312 
L 195.18863 374.641657 
L 195.36666 374.641523 
L 195.900547 372.091147 
L 196.078441 371.82203 
L 196.434126 368.972594 
L 196.967399 360.918795 
L 197.500366 351.577096 
L 197.855506 348.179948 
L 198.033026 347.486892 
L 198.387963 347.266857 
L 198.56538 347.266723 
L 199.274711 358.209684 
L 199.451959 358.279232 
L 199.629173 361.916698 
L 200.514734 365.420597 
L 200.868722 365.425689 
L 201.222574 364.980528 
L 201.576291 364.98026 
L 201.753099 365.006439 
L 201.929873 365.309398 
L 202.106613 365.309264 
L 202.283319 364.684915 
L 202.636631 364.684647 
L 202.813236 364.938877 
L 202.989808 364.472896 
L 203.34285 364.472628 
L 203.51932 363.377072 
L 203.695757 364.278419 
L 204.048529 364.278151 
L 204.224865 363.248379 
L 204.401167 363.248245 
L 204.929872 362.883352 
L 205.106039 362.31699 
L 205.282173 362.720817 
L 205.634341 362.093898 
L 206.16234 362.126144 
L 206.338272 363.251644 
L 206.514171 363.269539 
L 206.690037 363.900442 
L 206.865869 363.900308 
L 207.217433 366.211731 
L 207.744527 367.815478 
L 207.920158 366.771575 
L 208.095756 366.771441 
L 208.27132 369.861195 
L 208.622349 370.831116 
L 208.797813 370.830982 
L 209.324005 371.768121 
L 209.499335 373.064171 
L 209.674632 373.214608 
L 209.849896 373.567758 
L 210.025127 373.567623 
L 210.375488 373.446021 
L 210.550618 373.77578 
L 211.07581 373.864552 
L 211.250808 374.1909 
L 211.425772 375.243794 
L 211.600703 375.271435 
L 211.950465 375.597649 
L 212.474858 375.244939 
L 212.824288 375.923462 
L 212.998954 376.42231 
L 213.348184 376.491236 
L 213.697283 376.411053 
L 215.092351 377.118497 
L 215.440788 377.832104 
L 215.614956 377.980593 
L 216.485304 378.080304 
L 216.659275 377.550001 
L 216.833212 377.549867 
L 217.007117 377.725156 
L 217.354828 378.53476 
L 217.528634 378.394774 
L 218.049854 378.775429 
L 218.223528 379.336158 
L 218.570778 379.335878 
L 218.917896 379.612372 
L 219.091406 379.534749 
L 219.264883 379.612082 
L 219.438327 379.534456 
L 219.785117 380.047273 
L 220.478303 380.808302 
L 220.997849 380.881431 
L 221.170965 380.498273 
L 221.344049 380.793419 
L 221.5171 380.793269 
L 221.690118 381.103033 
L 222.208977 381.170804 
L 222.554719 381.782541 
L 222.727541 381.563602 
L 223.073088 381.671001 
L 223.245812 381.697658 
L 223.418504 381.874887 
L 223.763789 381.874605 
L 223.936383 380.905738 
L 224.281473 380.905459 
L 224.453969 382.117203 
L 224.626433 379.739591 
L 224.798864 382.116927 
L 224.971262 382.130433 
L 225.315962 382.2744 
L 225.488263 381.801599 
L 225.660531 381.732272 
L 225.832767 381.801336 
L 226.004971 382.143769 
L 226.177142 382.143641 
L 226.34928 381.717625 
L 226.521386 381.717499 
L 226.865501 381.938478 
L 227.03751 381.938356 
L 227.209486 382.158976 
L 227.38143 380.778371 
L 227.553342 382.725451 
L 227.725221 381.77561 
L 227.897068 382.727653 
L 228.068883 381.866501 
L 228.240665 382.813674 
L 228.412414 381.866276 
L 228.584132 382.744744 
L 228.755817 382.035145 
L 229.09909 382.034932 
L 229.270678 381.852095 
L 229.442234 382.853854 
L 229.613758 382.652503 
L 229.956708 382.652306 
L 230.128135 382.804731 
L 230.299529 382.804638 
L 230.470891 382.553106 
L 230.642221 381.718293 
L 230.813519 381.718205 
L 231.156018 382.493792 
L 231.669525 382.548607 
L 231.84063 382.698613 
L 232.182743 382.80079 
L 232.353751 381.216546 
L 232.695671 381.216401 
L 232.866583 382.809272 
L 233.379126 382.743773 
L 233.72066 381.988352 
L 234.062067 382.070583 
L 234.232722 382.496414 
L 234.573937 382.547468 
L 234.744496 383.225719 
L 234.915023 382.791983 
L 235.085518 383.311383 
L 235.255981 382.791889 
L 235.596812 382.888774 
L 235.937514 382.799524 
L 236.448329 381.766862 
L 236.788712 382.491398 
L 236.958856 382.49137 
L 237.128967 381.515308 
L 237.299047 381.515283 
L 237.469096 382.553668 
L 237.639112 382.553645 
L 237.979049 382.883013 
L 238.14897 382.965835 
L 238.318859 382.882982 
L 238.488716 382.243649 
L 238.658541 382.243639 
L 238.828334 382.914137 
L 238.998096 382.91413 
L 239.167826 382.736753 
L 239.507191 382.73675 
L 239.846428 382.313302 
L 240.185539 382.313313 
L 240.355046 382.997959 
L 240.524522 382.997969 
L 240.693967 382.048746 
L 240.863379 382.04876 
L 241.03276 378.316154 
L 241.202109 382.522433 
L 241.371427 382.316327 
L 241.87919 382.830476 
L 242.048381 382.8305 
L 242.21754 382.624404 
L 242.386668 382.624432 
L 242.555764 382.327704 
L 242.893862 383.292598 
L 243.062863 383.292634 
L 243.231833 383.158182 
L 243.400771 379.230688 
L 243.569678 379.230727 
L 243.738553 382.59792 
L 243.907397 382.59796 
L 244.244989 382.716457 
L 244.919797 382.656229 
L 245.08842 382.86143 
L 245.257012 382.238246 
L 245.425572 382.694404 
L 245.594101 382.238362 
L 245.762598 382.425054 
L 245.931064 381.868147 
L 246.267901 381.730373 
L 246.436273 382.368785 
L 246.604613 382.368852 
L 246.772922 382.571632 
L 246.9412 382.256915 
L 247.109446 382.527919 
L 247.277661 381.536851 
L 247.445844 382.468132 
L 247.782117 382.468286 
L 247.950207 382.810929 
L 248.118265 382.677982 
L 248.286292 382.896371 
L 248.454287 382.679614 
L 248.790185 382.664686 
L 249.293796 380.221707 
L 249.629381 380.221892 
L 249.797126 382.95128 
L 250.132524 382.841831 
L 250.300176 382.580257 
L 250.467796 382.580357 
L 250.635386 382.035185 
L 250.970471 382.035394 
L 251.137967 382.698211 
L 251.472866 382.698429 
L 252.14229 381.984524 
L 252.476815 382.123638 
L 252.644031 381.361154 
L 252.811216 381.361276 
L 252.97837 382.277985 
L 253.145493 382.278109 
L 253.646675 382.937302 
L 253.813673 381.269449 
L 253.980641 381.269581 
L 254.147578 382.719393 
L 254.648202 382.817259 
L 254.815015 382.619561 
L 254.981797 382.209408 
L 255.148547 382.209552 
L 255.315267 382.514739 
L 255.648614 382.515035 
L 255.815242 382.221351 
L 255.981838 382.499257 
L 256.148403 381.648121 
L 256.314938 382.499566 
L 256.647914 382.791279 
L 257.147147 382.762043 
L 257.646102 382.38149 
L 257.812359 382.5834 
L 258.975295 382.601225 
L 259.307286 381.165078 
L 259.473235 381.165266 
L 259.639153 382.306195 
L 259.805041 382.306385 
L 259.970898 381.91626 
L 260.136725 381.916453 
L 260.30252 382.394676 
L 260.63402 382.442825 
L 260.799723 382.770968 
L 261.296651 382.778889 
L 261.462232 382.363928 
L 261.627782 382.364137 
L 261.793302 382.100725 
L 262.455076 382.119613 
L 262.620443 381.828433 
L 262.78578 381.828652 
L 263.116361 382.318817 
L 263.281606 382.31904 
L 263.44682 382.631616 
L 263.612004 382.139195 
L 263.94228 382.139653 
L 264.272434 382.696598 
L 264.437466 382.696832 
L 264.602467 382.521645 
L 264.767437 381.019577 
L 264.932377 381.019815 
L 265.262166 382.362771 
L 265.427015 382.737736 
L 265.591833 382.363256 
L 265.756621 382.738225 
L 266.250802 381.799969 
L 266.415469 382.160813 
L 266.580105 381.516872 
L 266.74471 381.578037 
L 266.909286 381.517381 
L 267.073831 381.578547 
L 267.238345 382.447149 
L 268.389099 382.407084 
L 268.553372 382.316231 
L 268.717614 381.652817 
L 269.046007 381.535926 
L 269.210159 382.587766 
L 269.538371 382.649718 
L 269.702431 382.400507 
L 269.866462 380.909689 
L 270.030462 381.568296 
L 270.358372 381.568861 
L 270.522282 380.604317 
L 270.686162 380.604601 
L 270.850012 381.937615 
L 271.013831 382.094319 
L 271.505108 382.045479 
L 271.668807 382.300134 
L 271.832476 382.300426 
L 272.323302 381.227815 
L 272.486851 381.228112 
L 272.977316 382.031079 
L 273.467511 382.083148 
L 273.957437 382.14059 
L 274.120685 381.900665 
L 274.61025 381.804139 
L 274.773379 381.605152 
L 275.099546 381.616988 
L 275.425594 381.97675 
L 275.588573 382.184652 
L 275.751522 381.977387 
L 275.914441 381.230209 
L 276.07733 381.23053 
L 276.403019 381.460199 
L 276.728589 381.460846 
L 276.891329 381.88511 
L 277.054039 381.885436 
L 277.21672 382.247329 
L 277.37937 381.676557 
L 277.541991 381.904449 
L 277.704582 381.677216 
L 277.867143 381.104985 
L 278.029674 381.026376 
L 278.192176 380.304061 
L 278.354648 380.304393 
L 278.51709 381.574107 
L 278.841885 381.574772 
L 279.004238 381.40553 
L 279.166561 381.521351 
L 279.328854 381.344801 
L 279.491118 381.522022 
L 279.653352 381.129605 
L 279.977731 381.105427 
L 280.139876 380.943011 
L 280.464077 380.943687 
L 280.626133 381.114576 
L 280.788159 381.114915 
L 280.950156 381.362309 
L 281.112123 381.362648 
L 281.27406 381.22801 
L 281.435968 380.587081 
L 281.597846 380.587422 
L 281.759695 380.323653 
L 281.921514 380.323993 
L 282.245064 381.181811 
L 282.406794 380.751389 
L 282.568495 380.816051 
L 282.730166 380.352494 
L 282.891808 380.816732 
L 283.05342 380.353174 
L 283.215003 380.708259 
L 283.376556 380.313409 
L 283.861038 380.330506 
L 284.022473 380.218768 
L 284.345255 379.87688 
L 284.829207 379.528012 
L 284.990466 378.826164 
L 285.151695 378.627194 
L 285.312895 378.627525 
L 285.796317 376.814346 
L 285.957399 376.808829 
L 286.118452 376.443695 
L 286.279475 376.809491 
L 286.440469 376.141751 
L 286.601434 376.504623 
L 286.923275 376.607127 
L 287.244999 377.01175 
L 287.405817 377.01208 
L 287.566605 376.239573 
L 287.888095 376.240235 
L 288.048795 375.706499 
L 288.209467 374.423802 
L 288.370109 370.131132 
L 288.530722 370.131462 
L 288.85186 371.162736 
L 289.012386 370.69722 
L 289.172882 368.291814 
L 289.333349 361.801966 
L 289.493786 361.498716 
L 289.814574 345.664004 
L 290.135245 311.652014 
L 290.455799 260.726284 
L 290.936412 182.746697 
L 291.096558 172.835604 
L 291.256675 172.835935 
L 291.416762 176.300878 
L 291.736851 197.308493 
L 292.216765 258.395816 
L 292.696417 317.118333 
L 293.175809 347.951452 
L 293.495258 358.318662 
L 293.654939 359.80327 
L 293.974214 363.467844 
L 294.133808 363.793195 
L 294.293373 363.793526 
L 294.771894 361.385857 
L 295.090764 356.847925 
L 295.250155 356.730819 
L 295.409518 354.93306 
L 295.568852 354.933391 
L 295.728156 356.525689 
L 295.887432 356.544536 
L 296.365086 360.576369 
L 297.319616 371.747464 
L 297.478603 371.762413 
L 297.796491 374.816904 
L 297.955392 375.596894 
L 298.114264 375.474915 
L 298.273108 376.126262 
L 298.431922 376.127567 
L 298.749465 377.268968 
L 299.384207 378.092344 
L 299.54282 378.092675 
L 299.701405 377.894192 
L 300.335457 377.821935 
L 300.493898 378.105379 
L 300.810695 378.10604 
L 300.969051 378.249634 
L 301.127377 378.781595 
L 301.285676 378.623557 
L 301.760399 378.664994 
L 301.918582 379.232039 
L 302.076737 379.013089 
L 302.234864 379.013417 
L 302.709072 378.214268 
L 303.183024 379.103569 
L 303.656719 379.136692 
L 303.81456 379.231544 
L 303.972372 379.004784 
L 304.130157 379.464123 
L 304.44564 379.570977 
L 304.603339 378.7429 
L 304.761009 378.74321 
L 305.076264 378.884656 
L 305.233849 378.602824 
L 305.548934 378.603439 
L 305.706434 378.716797 
L 305.863905 378.561659 
L 306.178763 378.852697 
L 306.336149 378.853002 
L 306.650837 377.828357 
L 306.808138 377.82866 
L 306.965411 379.075932 
L 307.122655 379.076234 
L 307.279871 379.272911 
L 307.594219 378.749185 
L 307.75135 378.55408 
L 308.065527 378.49425 
L 308.379591 378.372535 
L 308.536581 378.372832 
L 308.693543 378.67281 
L 308.850476 378.376349 
L 309.007381 378.601773 
L 309.164258 378.376943 
L 309.634718 379.001072 
L 309.948218 378.636679 
L 310.104925 377.790553 
L 310.261605 377.790844 
L 310.418256 378.960138 
L 310.731473 378.960716 
L 311.044578 378.942282 
L 311.201089 379.245171 
L 311.357571 379.245452 
L 311.514025 378.813508 
L 311.670451 378.813786 
L 311.826849 378.469062 
L 311.983218 378.945905 
L 312.13956 378.946179 
L 312.295874 379.160858 
L 312.452159 379.161129 
L 312.608416 379.011314 
L 312.764646 378.650989 
L 312.920847 379.011849 
L 313.701432 378.972716 
L 313.857465 379.285811 
L 314.01347 377.913866 
L 314.169448 378.812192 
L 314.325397 377.786219 
L 314.481318 378.8127 
L 314.637211 378.636554 
L 314.793076 378.835132 
L 315.416257 378.818091 
L 315.72768 377.862031 
L 315.883349 377.862273 
L 316.038991 378.606116 
L 316.35019 378.606601 
L 316.505748 378.972308 
L 316.661279 378.972549 
L 316.816781 379.200351 
L 316.972255 378.637772 
L 317.28312 378.609984 
L 317.593874 378.763954 
L 317.749209 378.814869 
L 317.904517 379.188854 
L 318.215048 379.18932 
L 318.370272 378.665717 
L 318.525468 379.180036 
L 319.145975 379.272067 
L 319.920984 379.530458 
L 320.075903 379.455145 
L 320.385657 379.043818 
L 320.6953 379.055448 
L 320.85008 379.309534 
L 321.159558 379.186177 
L 321.314255 379.186382 
L 321.623567 379.054244 
L 321.778181 378.475059 
L 321.932768 378.475259 
L 322.241858 378.751951 
L 322.550838 378.75235 
L 322.705287 378.944054 
L 322.859708 379.437874 
L 323.014101 379.43807 
L 323.168467 378.967059 
L 323.322806 378.967253 
L 323.477117 379.231554 
L 323.6314 379.231745 
L 323.785656 378.779731 
L 323.939884 378.77992 
L 324.094085 378.915575 
L 324.248258 379.20521 
L 324.556522 379.09594 
L 324.710612 379.096123 
L 324.864676 378.916981 
L 325.17272 378.917337 
L 325.3267 377.404973 
L 325.480654 379.211522 
L 325.942349 379.170619 
L 326.250009 379.228456 
L 326.403798 378.489407 
L 326.557559 378.489573 
L 326.711293 379.005776 
L 327.172331 378.928298 
L 327.633122 379.616333 
L 327.786664 379.402082 
L 328.093667 379.402389 
L 328.247128 378.362669 
L 328.400561 378.20835 
L 328.553966 378.362972 
L 328.707345 378.917169 
L 329.01402 378.880432 
L 329.167317 378.118948 
L 329.320586 378.716508 
L 329.473828 377.971591 
L 329.627043 378.7168 
L 329.933391 378.730735 
L 330.086524 378.219717 
L 330.23963 378.219863 
L 330.54576 378.797102 
L 331.004751 378.889626 
L 331.157694 378.641735 
L 331.463497 378.730211 
L 331.616358 378.917954 
L 332.380257 379.000483 
L 332.532955 379.116585 
L 332.83827 379.03887 
L 333.143477 379.055194 
L 333.448576 379.203566 
L 333.753566 379.209158 
L 333.906021 377.970099 
L 334.058448 377.970212 
L 334.210849 378.167677 
L 334.363222 378.810035 
L 334.667888 377.850301 
L 334.82018 377.850413 
L 334.972446 378.985416 
L 335.276895 379.109405 
L 335.42908 379.080761 
L 335.581237 378.587244 
L 335.733368 378.582963 
L 335.885471 377.902814 
L 336.189597 377.903023 
L 336.34162 377.501116 
L 336.493616 378.999629 
L 336.797526 378.943308 
L 337.101329 378.157999 
L 337.556832 378.892639 
L 337.708613 378.621805 
L 337.860366 379.207135 
L 338.012093 378.576681 
L 338.163793 379.207327 
L 338.315466 378.820028 
L 338.618732 378.945931 
L 338.770324 378.94602 
L 339.073429 378.413102 
L 339.224941 378.202194 
L 339.376426 378.183277 
L 339.679317 378.030931 
L 339.830722 378.031018 
L 340.133451 376.84611 
L 340.284776 377.466514 
L 340.436074 376.733234 
L 340.587345 376.733321 
L 340.73859 376.454193 
L 340.889808 374.836486 
L 341.040999 375.599665 
L 341.192163 374.306005 
L 341.343301 374.306092 
L 341.494411 373.067495 
L 341.645496 372.948197 
L 341.796553 369.517782 
L 341.947584 369.517869 
L 342.098588 368.869377 
L 342.249566 369.723191 
L 342.400517 368.869551 
L 342.551441 369.006079 
L 342.702339 368.847798 
L 342.853209 369.006254 
L 343.004054 370.103712 
L 343.154872 370.103799 
L 343.305663 369.649247 
L 343.456427 369.649334 
L 343.757876 372.275013 
L 343.908561 373.017238 
L 344.209851 373.328789 
L 344.511034 374.319619 
L 344.661586 373.796847 
L 344.812111 374.319793 
L 344.96261 375.448925 
L 345.113082 375.449012 
L 345.56434 376.955966 
L 345.714706 376.956053 
L 346.015359 376.454809 
L 346.46614 377.054922 
L 346.616348 377.055009 
L 346.916683 376.692641 
L 347.366988 376.756251 
L 347.517037 376.952714 
L 347.667059 377.371869 
L 348.116968 377.28247 
L 348.566639 377.215973 
L 348.716477 376.963645 
L 349.016073 376.96382 
L 349.46527 377.20334 
L 349.91423 375.511253 
L 350.213405 376.880217 
L 350.661971 376.018467 
L 350.81144 376.018555 
L 350.960883 376.539552 
L 351.1103 376.539639 
L 351.259691 376.178647 
L 351.409055 375.447803 
L 352.00625 375.568999 
L 352.30469 375.425424 
L 352.453871 374.315471 
L 352.603026 374.315071 
L 352.901257 373.893254 
L 353.199383 372.2425 
L 353.348407 371.958498 
L 354.093135 369.469871 
L 354.390843 369.377948 
L 354.539658 368.788418 
L 354.688447 368.788505 
L 354.985946 367.936902 
L 355.134657 367.936989 
L 355.283342 368.735252 
L 355.432 368.73534 
L 356.768756 365.967846 
L 356.917155 364.909545 
L 357.065527 364.876497 
L 357.362194 363.99322 
L 357.807 362.163718 
L 357.955217 362.469334 
L 358.547825 361.338202 
L 358.695912 361.126806 
L 358.992008 361.126981 
L 359.140018 360.920946 
L 359.288002 360.168661 
L 359.435959 360.807582 
L 359.731797 360.859409 
L 359.879678 361.595787 
L 360.027532 361.255261 
L 360.323163 361.235944 
L 360.47094 361.013828 
L 360.766416 360.070127 
L 360.914116 360.053159 
L 361.06179 359.162485 
L 361.209437 359.162572 
L 361.504656 356.784298 
L 361.652227 356.782923 
L 361.799771 354.622379 
L 361.94729 354.456788 
L 362.094784 353.357068 
L 362.389693 346.200455 
L 362.537109 346.182512 
L 362.979203 332.892014 
L 363.273804 310.86047 
L 363.568303 271.598448 
L 363.862698 208.387719 
L 364.451181 59.580286 
L 364.745269 33.973515 
L 364.892274 33.973602 
L 365.039254 39.57262 
L 365.333137 74.891375 
L 366.654344 292.467382 
L 367.094286 321.007084 
L 367.387454 336.553184 
L 367.680519 342.019746 
L 367.827014 343.753115 
L 367.973483 343.780977 
L 368.266344 345.236679 
L 368.559104 345.207616 
L 369.290559 340.29912 
L 369.729126 334.824222 
L 370.021378 329.60555 
L 370.167465 328.563817 
L 370.605576 321.631443 
L 370.897523 319.7541 
L 371.043459 317.23881 
L 371.189369 317.238897 
L 371.626947 317.796616 
L 371.91854 320.335069 
L 372.355739 324.464116 
L 372.938318 333.943177 
L 374.247643 349.47137 
L 374.538327 350.582072 
L 374.683631 353.023469 
L 374.82891 353.180462 
L 375.119393 355.515717 
L 375.264596 355.714131 
L 375.554928 357.296527 
L 375.700056 357.728838 
L 375.845159 358.646974 
L 375.990237 358.845387 
L 376.13529 359.464329 
L 376.280318 359.464417 
L 376.42532 360.414227 
L 376.71525 360.600058 
L 376.860178 362.033744 
L 377.149957 362.033918 
L 377.584438 362.699815 
L 378.018695 363.182978 
L 378.308073 363.183152 
L 378.452725 364.514021 
L 378.597352 364.545295 
L 379.17561 365.697103 
L 379.320112 365.699627 
L 379.46459 366.16751 
L 379.753469 366.26904 
L 380.042249 366.818875 
L 380.186601 367.021673 
L 380.330928 367.49784 
L 380.763761 367.38895 
L 381.19637 368.058744 
L 381.484652 368.058919 
L 381.628755 367.857756 
L 381.772834 367.857843 
L 382.060917 368.471512 
L 382.204921 368.099799 
L 382.492855 369.272387 
L 382.780689 369.992772 
L 383.068424 369.612375 
L 383.212255 369.612462 
L 383.35606 370.6149 
L 383.787329 370.665352 
L 383.931035 371.280883 
L 384.362006 371.364958 
L 384.505614 371.889854 
L 384.649197 371.889941 
L 385.510175 372.621882 
L 385.653585 372.668262 
L 385.79697 373.12445 
L 385.940331 373.124537 
L 386.083667 372.933121 
L 386.226978 372.933208 
L 386.513526 373.119526 
L 386.799977 373.1197 
L 386.943165 373.401927 
L 387.086328 374.074471 
L 387.372581 372.689287 
L 387.515671 372.689375 
L 387.801776 374.223529 
L 387.944792 374.223617 
L 388.087783 374.71294 
L 388.23075 374.713027 
L 388.51661 374.56263 
L 388.802371 374.631025 
L 389.23083 374.155694 
L 389.3736 375.335504 
L 389.516346 375.441332 
L 389.659067 375.775699 
L 389.944437 375.775873 
L 390.229708 375.695645 
L 390.514881 376.223064 
L 390.657431 376.259211 
L 390.942458 376.955232 
L 391.084935 376.955319 
L 391.227387 376.763415 
L 391.369815 376.18363 
L 391.512218 376.183718 
L 391.654597 376.606283 
L 392.081587 376.543197 
L 392.223869 376.940423 
L 392.366126 376.543372 
L 392.508358 377.099454 
L 392.79275 377.099628 
L 392.93491 377.43838 
L 393.077045 376.900015 
L 393.219156 377.473639 
L 393.361242 377.397222 
L 393.503304 377.587839 
L 393.645342 377.397397 
L 393.787356 377.516869 
L 393.929345 377.229457 
L 394.355166 377.909972 
L 394.780769 377.984301 
L 394.922588 378.470701 
L 395.206153 378.512295 
L 395.63132 378.206053 
L 395.914643 378.540506 
L 396.197869 378.609876 
L 396.339445 378.855068 
L 396.480998 378.855154 
L 396.622526 378.498543 
L 396.76403 378.498626 
L 396.90551 378.719451 
L 397.046966 378.719534 
L 397.188397 378.198708 
L 397.471188 378.198875 
L 397.612547 378.79686 
L 397.753882 378.723363 
L 397.895192 379.134717 
L 398.036479 378.723528 
L 398.177742 379.134881 
L 398.31898 378.810428 
L 398.460194 378.810508 
L 398.601384 377.719065 
L 398.74255 377.719145 
L 398.883692 379.255155 
L 399.02481 379.255234 
L 399.306974 378.808544 
L 399.589041 379.388079 
L 399.730038 379.388151 
L 399.871011 379.105596 
L 400.011961 379.105666 
L 400.152886 379.331348 
L 400.293787 379.331415 
L 400.434665 378.701418 
L 400.575518 378.701483 
L 400.716347 379.906123 
L 400.857152 379.906187 
L 400.997933 379.644578 
L 401.279424 379.75288 
L 401.560818 379.847534 
L 401.842117 379.670765 
L 402.123319 380.059246 
L 402.685437 379.958107 
L 402.966352 378.85889 
L 403.247172 379.581634 
L 403.668222 380.053466 
L 403.808524 379.924867 
L 404.229288 380.167177 
L 404.369495 380.053681 
L 404.509678 380.343657 
L 404.789972 379.355519 
L 404.930084 379.355557 
L 405.070171 379.653814 
L 405.490291 379.641248 
L 405.630283 380.164627 
L 405.910197 380.253864 
L 406.190015 379.734964 
L 406.469738 379.687267 
L 406.609564 380.318818 
L 406.889144 380.297918 
L 407.028899 379.586017 
L 407.308337 379.615302 
L 407.44802 380.138671 
L 407.58768 380.138693 
L 407.727316 379.780071 
L 408.006517 379.78011 
L 408.285623 380.066671 
L 408.42514 379.935608 
L 408.564634 379.303612 
L 408.704104 379.303627 
L 408.982973 380.344986 
L 409.122372 380.166164 
L 409.261748 380.51215 
L 409.4011 380.144747 
L 409.540428 380.301664 
L 409.679733 380.144768 
L 409.958271 379.346611 
L 410.097505 379.631194 
L 410.236715 380.372852 
L 410.515064 380.459601 
L 410.654203 380.130687 
L 410.793319 380.623339 
L 411.07148 379.913858 
L 411.210525 379.913862 
L 411.349547 380.230601 
L 411.627519 380.247659 
L 411.905397 379.967471 
L 412.044301 379.898276 
L 412.183181 379.967469 
L 412.322038 379.799353 
L 412.460871 380.191617 
L 412.738467 380.191609 
L 412.87723 379.998639 
L 413.293377 380.087308 
L 413.432046 380.543889 
L 413.570691 380.543881 
L 413.709313 379.656523 
L 413.847911 379.656515 
L 413.986486 380.609152 
L 414.125038 380.609142 
L 414.402071 380.064821 
L 414.540552 380.06481 
L 414.67901 378.753509 
L 414.817444 380.520401 
L 414.955855 380.222169 
L 415.094243 380.489677 
L 415.509265 380.445295 
L 415.64756 380.888713 
L 416.062302 380.807784 
L 416.614964 380.29608 
L 416.753072 380.509011 
L 416.891156 380.296053 
L 417.305268 380.70533 
L 417.443259 380.705315 
L 417.581226 380.542059 
L 417.71917 380.056706 
L 417.857091 380.311054 
L 418.132863 380.311021 
L 418.270714 379.953823 
L 418.408542 379.953805 
L 418.546347 380.946878 
L 419.647947 380.954046 
L 419.923115 380.142193 
L 420.060664 380.642132 
L 420.198191 380.575356 
L 420.335693 380.921313 
L 420.61063 380.808715 
L 420.748063 380.808698 
L 420.885473 381.049401 
L 421.02286 381.049384 
L 421.434883 380.752578 
L 421.709449 381.132142 
L 421.846697 381.132127 
L 422.121125 381.259766 
L 422.258304 380.928884 
L 422.943853 381.018966 
L 423.080894 380.548721 
L 423.354906 380.548695 
L 423.491877 380.15934 
L 423.765751 380.829332 
L 423.902653 380.875124 
L 424.039533 381.117292 
L 424.176389 380.875098 
L 424.450033 380.981301 
L 424.58682 380.981288 
L 424.723585 380.700112 
L 426.089966 380.795012 
L 426.226477 381.494257 
L 426.362966 380.941662 
L 426.772296 380.991334 
L 427.045068 381.336313 
L 427.317748 381.438139 
L 427.590337 380.750074 
L 428.13524 381.424939 
L 428.407555 381.119399 
L 428.543678 381.119394 
L 428.679778 380.757823 
L 428.95191 380.757814 
L 429.087942 381.346453 
L 429.495901 381.377143 
L 429.76776 380.804091 
L 429.903655 380.49856 
L 430.311204 381.213894 
L 430.447008 380.989741 
L 430.582789 381.213892 
L 430.582789 381.213892 
" clip-path="url(#pf2a1be5f78)" style="fill: none; stroke: #5088c5; stroke-width: 2; stroke-linecap: round"/>
   </g>
   <g id="line2d_17">
    <defs>
     <path id="m6f0e396fb1" d="M 0 3 
C 0.795609 3 1.55874 2.683901 2.12132 2.12132 
C 2.683901 1.55874 3 0.795609 3 0 
C 3 -0.795609 2.683901 -1.55874 2.12132 -2.12132 
C 1.55874 -2.683901 0.795609 -3 0 -3 
C -0.795609 -3 -1.55874 -2.683901 -2.12132 -2.12132 
C -2.683901 -1.55874 -3 -0.795609 -3 0 
C -3 0.795609 -2.683901 1.55874 -2.12132 2.12132 
C -1.55874 2.683901 -0.795609 3 0 3 
z
"/>
    </defs>
    <g clip-path="url(#pf2a1be5f78)">
     <use xlink:href="#m6f0e396fb1" x="149.644107" y="331.630737" style="fill: #f28360"/>
     <use xlink:href="#m6f0e396fb1" x="198.291783" y="347.305974" style="fill: #f28360"/>
     <use xlink:href="#m6f0e396fb1" x="291.334593" y="172.835935" style="fill: #f28360"/>
     <use xlink:href="#m6f0e396fb1" x="364.905037" y="33.973602" style="fill: #f28360"/>
     <use xlink:href="#m6f0e396fb1" x="371.353202" y="317.405637" style="fill: #f28360"/>
    </g>
   </g>
   <g id="patch_3">
    <path d="M 81.762344 397.284897 
L 81.762344 20 
" style="fill: none; stroke: #000000; stroke-width: 0.75; stroke-linejoin: miter; stroke-linecap: square"/>
   </g>
   <g id="patch_4">
    <path d="M 81.762344 397.284897 
L 443.99896 397.284897 
" style="fill: none; stroke: #000000; stroke-width: 0.75; stroke-linejoin: miter; stroke-linecap: square"/>
   </g>
  </g>
 </g>
 <defs>
  <clipPath id="pf2a1be5f78">
   <rect x="81.762344" y="20" width="362.236616" height="377.284897"/>
  </clipPath>
 </defs>
</svg>
