<?xml version="1.0" encoding="utf-8" standalone="no"?>
<!DOCTYPE svg PUBLIC "-//W3C//DTD SVG 1.1//EN"
  "http://www.w3.org/Graphics/SVG/1.1/DTD/svg11.dtd">
<svg xmlns:xlink="http://www.w3.org/1999/xlink" width="463.99896pt" height="463.99896pt" viewBox="0 0 463.99896 463.99896" xmlns="http://www.w3.org/2000/svg" version="1.1">
 <metadata>
  <rdf:RDF xmlns:dc="http://purl.org/dc/elements/1.1/" xmlns:cc="http://creativecommons.org/ns#" xmlns:rdf="http://www.w3.org/1999/02/22-rdf-syntax-ns#">
   <cc:Work>
    <dc:type rdf:resource="http://purl.org/dc/dcmitype/StillImage"/>
    <dc:date>2025-02-06T14:52:36.609827</dc:date>
    <dc:format>image/svg+xml</dc:format>
    <dc:creator>
     <cc:Agent>
      <dc:title>Matplotlib v3.8.4, https://matplotlib.org/</dc:title>
     </cc:Agent>
    </dc:creator>
   </cc:Work>
  </rdf:RDF>
 </metadata>
 <defs>
  <style type="text/css">*{stroke-linejoin: round; stroke-linecap: butt}</style>
 </defs>
 <g id="figure_1">
  <g id="patch_1">
   <path d="M 0 463.99896 
L 463.99896 463.99896 
L 463.99896 0 
L 0 0 
L 0 463.99896 
z
" style="fill: none"/>
  </g>
  <g id="axes_1">
   <g id="patch_2">
    <path d="M 81.762344 397.284897 
L 443.99896 397.284897 
L 443.99896 20 
L 81.762344 20 
L 81.762344 397.284897 
z
" style="fill: none"/>
   </g>
   <g id="matplotlib.axis_1">
    <g id="xtick_1">
     <g id="line2d_1">
      <defs>
       <path id="mffdabd25bd" d="M 0 0 
L 0 5 
" style="stroke: #000000; stroke-width: 0.75"/>
      </defs>
      <g>
       <use xlink:href="#mffdabd25bd" x="105.127181" y="397.284897" style="stroke: #000000; stroke-width: 0.75"/>
      </g>
     </g>
     <g id="text_1">
      <text style="font: 14.5px &quot;Suisse Int&apos;l Mono&quot;; text-anchor: middle" x="105.127181" y="417.797397" transform="rotate(-0 105.127181 417.797397)">500</text>
     </g>
    </g>
    <g id="xtick_2">
     <g id="line2d_2">
      <g>
       <use xlink:href="#mffdabd25bd" x="158.361378" y="397.284897" style="stroke: #000000; stroke-width: 0.75"/>
      </g>
     </g>
     <g id="text_2">
      <text style="font: 14.5px &quot;Suisse Int&apos;l Mono&quot;; text-anchor: middle" x="158.361378" y="417.797397" transform="rotate(-0 158.361378 417.797397)">1000</text>
     </g>
    </g>
    <g id="xtick_3">
     <g id="line2d_3">
      <g>
       <use xlink:href="#mffdabd25bd" x="211.595575" y="397.284897" style="stroke: #000000; stroke-width: 0.75"/>
      </g>
     </g>
     <g id="text_3">
      <text style="font: 14.5px &quot;Suisse Int&apos;l Mono&quot;; text-anchor: middle" x="211.595575" y="417.797397" transform="rotate(-0 211.595575 417.797397)">1500</text>
     </g>
    </g>
    <g id="xtick_4">
     <g id="line2d_4">
      <g>
       <use xlink:href="#mffdabd25bd" x="264.829772" y="397.284897" style="stroke: #000000; stroke-width: 0.75"/>
      </g>
     </g>
     <g id="text_4">
      <text style="font: 14.5px &quot;Suisse Int&apos;l Mono&quot;; text-anchor: middle" x="264.829772" y="417.797397" transform="rotate(-0 264.829772 417.797397)">2000</text>
     </g>
    </g>
    <g id="xtick_5">
     <g id="line2d_5">
      <g>
       <use xlink:href="#mffdabd25bd" x="318.06397" y="397.284897" style="stroke: #000000; stroke-width: 0.75"/>
      </g>
     </g>
     <g id="text_5">
      <text style="font: 14.5px &quot;Suisse Int&apos;l Mono&quot;; text-anchor: middle" x="318.06397" y="417.797397" transform="rotate(-0 318.06397 417.797397)">2500</text>
     </g>
    </g>
    <g id="xtick_6">
     <g id="line2d_6">
      <g>
       <use xlink:href="#mffdabd25bd" x="371.298167" y="397.284897" style="stroke: #000000; stroke-width: 0.75"/>
      </g>
     </g>
     <g id="text_6">
      <text style="font: 14.5px &quot;Suisse Int&apos;l Mono&quot;; text-anchor: middle" x="371.298167" y="417.797397" transform="rotate(-0 371.298167 417.797397)">3000</text>
     </g>
    </g>
    <g id="xtick_7">
     <g id="line2d_7">
      <g>
       <use xlink:href="#mffdabd25bd" x="424.532364" y="397.284897" style="stroke: #000000; stroke-width: 0.75"/>
      </g>
     </g>
     <g id="text_7">
      <text style="font: 14.5px &quot;Suisse Int&apos;l Mono&quot;; text-anchor: middle" x="424.532364" y="417.797397" transform="rotate(-0 424.532364 417.797397)">3500</text>
     </g>
    </g>
    <g id="text_8">
     <text style="font: 500 15px &quot;Suisse Int&apos;l&quot;, sans-serif; text-anchor: middle" x="262.880652" y="441.209898" transform="rotate(-0 262.880652 441.209898)">Raman shift (cm-1)</text>
    </g>
   </g>
   <g id="matplotlib.axis_2">
    <g id="ytick_1">
     <g id="line2d_8">
      <defs>
       <path id="m584dce6134" d="M 0 0 
L -5 0 
" style="stroke: #000000; stroke-width: 0.75"/>
      </defs>
      <g>
       <use xlink:href="#m584dce6134" x="81.762344" y="377.915147" style="stroke: #000000; stroke-width: 0.75"/>
      </g>
     </g>
     <g id="text_9">
      <text style="font: 14.5px &quot;Suisse Int&apos;l Mono&quot;; text-anchor: end" x="71.762344" y="383.171397" transform="rotate(-0 71.762344 383.171397)">0.0</text>
     </g>
    </g>
    <g id="ytick_2">
     <g id="line2d_9">
      <g>
       <use xlink:href="#m584dce6134" x="81.762344" y="297.017461" style="stroke: #000000; stroke-width: 0.75"/>
      </g>
     </g>
     <g id="text_10">
      <text style="font: 14.5px &quot;Suisse Int&apos;l Mono&quot;; text-anchor: end" x="71.762344" y="302.273711" transform="rotate(-0 71.762344 302.273711)">0.2</text>
     </g>
    </g>
    <g id="ytick_3">
     <g id="line2d_10">
      <g>
       <use xlink:href="#m584dce6134" x="81.762344" y="216.119775" style="stroke: #000000; stroke-width: 0.75"/>
      </g>
     </g>
     <g id="text_11">
      <text style="font: 14.5px &quot;Suisse Int&apos;l Mono&quot;; text-anchor: end" x="71.762344" y="221.376025" transform="rotate(-0 71.762344 221.376025)">0.4</text>
     </g>
    </g>
    <g id="ytick_4">
     <g id="line2d_11">
      <g>
       <use xlink:href="#m584dce6134" x="81.762344" y="135.222088" style="stroke: #000000; stroke-width: 0.75"/>
      </g>
     </g>
     <g id="text_12">
      <text style="font: 14.5px &quot;Suisse Int&apos;l Mono&quot;; text-anchor: end" x="71.762344" y="140.478338" transform="rotate(-0 71.762344 140.478338)">0.6</text>
     </g>
    </g>
    <g id="ytick_5">
     <g id="line2d_12">
      <g>
       <use xlink:href="#m584dce6134" x="81.762344" y="54.324402" style="stroke: #000000; stroke-width: 0.75"/>
      </g>
     </g>
     <g id="text_13">
      <text style="font: 14.5px &quot;Suisse Int&apos;l Mono&quot;; text-anchor: end" x="71.762344" y="59.580652" transform="rotate(-0 71.762344 59.580652)">0.8</text>
     </g>
    </g>
    <g id="text_14">
     <text style="font: 500 15px &quot;Suisse Int&apos;l&quot;, sans-serif; text-anchor: middle" x="30.875" y="208.642449" transform="rotate(-90 30.875 208.642449)">Intensity (au)</text>
    </g>
   </g>
   <g id="line2d_13">
    <path d="M 95.178515 375.214926 
L 95.376236 374.693133 
L 95.573918 375.214918 
L 95.771559 374.624356 
L 95.969161 375.45759 
L 96.166723 374.62433 
L 96.364244 375.166326 
L 96.561726 374.996421 
L 97.153933 375.097464 
L 97.351255 375.263273 
L 97.548538 375.263238 
L 97.745781 374.866802 
L 98.337271 374.777684 
L 98.534355 374.676513 
L 98.731399 374.777582 
L 98.928403 375.457067 
L 99.322292 375.456947 
L 99.519177 373.887469 
L 99.716023 375.137271 
L 99.912828 374.154294 
L 100.109594 375.137127 
L 100.306321 374.902447 
L 100.503007 375.14506 
L 100.896262 375.144893 
L 101.09283 375.031548 
L 101.485847 374.376092 
L 101.878705 374.375893 
L 102.075075 374.751962 
L 102.271406 373.946923 
L 102.467697 374.751743 
L 102.663948 373.946696 
L 102.86016 374.945663 
L 103.056332 374.512739 
L 103.448559 376.033362 
L 103.644613 376.033233 
L 104.036602 373.929627 
L 104.232538 374.851722 
L 104.428434 373.929347 
L 104.624291 374.3256 
L 104.820109 374.1677 
L 105.407325 374.502956 
L 105.602985 373.20034 
L 105.798606 373.200172 
L 105.994187 374.405375 
L 106.189729 374.797552 
L 106.385232 374.449513 
L 106.580696 374.44933 
L 106.77612 374.133643 
L 106.971505 374.133453 
L 107.166851 374.27483 
L 107.362158 375.532591 
L 107.752653 375.532189 
L 107.947842 374.221442 
L 108.142992 373.857194 
L 108.338103 373.856982 
L 108.533174 374.851807 
L 108.9232 374.851365 
L 109.118154 373.738796 
L 109.313069 373.738566 
L 109.702781 375.30751 
L 110.092337 375.307027 
L 110.287057 374.975102 
L 110.481737 375.638214 
L 111.065545 373.109401 
L 111.260069 373.109139 
L 111.454555 374.75514 
L 111.649001 374.75487 
L 112.037777 374.034331 
L 112.62065 374.814143 
L 112.814863 374.385095 
L 113.009037 374.22705 
L 113.203172 374.226753 
L 113.397268 375.007115 
L 113.591325 375.006811 
L 113.785344 374.205617 
L 113.979324 374.205306 
L 114.367167 375.195671 
L 114.56103 375.40164 
L 114.754855 375.195028 
L 114.948641 374.195616 
L 115.336096 374.194954 
L 115.529765 373.595974 
L 115.916988 373.595288 
L 116.110542 375.063231 
L 116.69097 375.676989 
L 116.884368 375.211468 
L 117.27105 375.271414 
L 117.464333 375.473291 
L 118.430168 375.475461 
L 118.623219 375.135308 
L 119.009206 375.134535 
L 119.202142 374.919766 
L 119.395039 374.292415 
L 119.587897 374.292018 
L 119.780718 375.052055 
L 119.973499 375.051651 
L 120.166243 374.400018 
L 120.358948 374.399608 
L 120.551614 374.516496 
L 120.744242 375.414043 
L 121.129383 375.413202 
L 121.321895 375.756592 
L 121.51437 376.989855 
L 121.706806 376.989427 
L 121.899203 375.977778 
L 122.091563 375.673981 
L 122.283884 373.52167 
L 122.476166 373.521233 
L 122.860617 375.267736 
L 123.244914 375.258748 
L 123.437005 374.789089 
L 123.629058 374.788633 
L 123.821073 375.483894 
L 124.013049 375.483432 
L 124.204988 374.734665 
L 124.396888 374.734197 
L 124.972359 375.549845 
L 125.164106 375.549367 
L 125.355815 375.779445 
L 125.739119 375.778478 
L 126.122271 375.356834 
L 126.50527 375.355848 
L 126.696712 375.844782 
L 127.270811 376.081928 
L 127.462102 375.980301 
L 127.653354 375.093965 
L 127.844568 375.093456 
L 128.035744 374.878565 
L 128.226883 376.354432 
L 128.417983 374.824949 
L 128.609045 376.778109 
L 128.991056 376.777066 
L 129.182005 375.441731 
L 129.372915 375.441205 
L 129.563788 375.8573 
L 129.754623 376.779003 
L 129.94542 376.778472 
L 130.136179 375.576609 
L 130.3269 375.576074 
L 130.517584 376.178224 
L 130.708229 376.177686 
L 131.089407 373.555516 
L 131.66089 373.626668 
L 131.851309 373.68678 
L 132.04169 374.054299 
L 132.232033 374.05373 
L 132.422338 374.287761 
L 132.802836 374.286604 
L 132.993029 374.739048 
L 133.183184 374.738461 
L 133.56338 375.74041 
L 133.943426 375.739218 
L 134.133392 375.53233 
L 134.323321 375.960486 
L 134.513212 375.142816 
L 134.703066 375.825795 
L 134.892882 374.352849 
L 135.08266 375.739633 
L 135.272401 375.362844 
L 135.65177 375.361609 
L 135.841399 376.178054 
L 136.030989 376.17743 
L 136.220543 375.873439 
L 136.410058 374.651257 
L 136.788977 374.609544 
L 136.978381 375.268223 
L 137.167747 375.299942 
L 137.357075 375.590532 
L 137.546366 376.394819 
L 137.73562 376.394173 
L 137.924836 376.0578 
L 138.303156 376.056499 
L 138.49226 376.642354 
L 138.870356 376.669358 
L 139.059348 375.835454 
L 139.43722 375.733012 
L 139.814942 375.905613 
L 140.192516 375.904276 
L 140.381246 375.317096 
L 140.56994 375.316422 
L 140.758596 375.84158 
L 140.947216 375.840901 
L 141.135797 375.277982 
L 141.51285 375.276612 
L 141.70132 375.676367 
L 142.078149 375.634533 
L 142.266508 375.209125 
L 142.454829 375.208427 
L 142.643114 374.932674 
L 143.019571 373.988804 
L 143.207745 373.988093 
L 143.395881 373.777043 
L 143.772042 373.7756 
L 144.148054 375.982649 
L 144.336005 375.298332 
L 144.523919 375.087263 
L 144.711796 375.086525 
L 144.899635 376.64711 
L 145.087438 376.646368 
L 145.275204 375.428115 
L 145.838279 375.154863 
L 146.025897 375.631406 
L 146.401023 375.585398 
L 146.58853 374.063761 
L 147.15083 374.154488 
L 147.33819 373.745179 
L 147.525513 373.744399 
L 147.900048 370.43816 
L 148.08726 369.138968 
L 148.274436 366.456426 
L 148.648677 354.728738 
L 149.022771 336.35935 
L 149.396717 325.849172 
L 149.583635 325.848387 
L 149.770517 326.029623 
L 150.330941 336.790708 
L 150.517676 344.600595 
L 150.704374 345.813276 
L 150.891036 358.351633 
L 151.4508 370.43135 
L 151.637315 370.430566 
L 151.823793 372.100319 
L 152.010235 372.758851 
L 152.19664 374.270848 
L 152.383009 373.279059 
L 152.569341 374.269258 
L 152.755636 373.27746 
L 153.314304 376.785993 
L 153.500453 377.137086 
L 154.244686 375.718117 
L 154.430653 376.097517 
L 154.616583 375.663893 
L 154.802478 375.752057 
L 154.988335 374.602484 
L 155.359942 376.481695 
L 155.731402 376.480028 
L 156.102718 376.818127 
L 156.288321 376.817289 
L 156.473888 377.038919 
L 156.659418 377.038079 
L 156.844912 376.555897 
L 157.03037 376.555055 
L 157.215792 377.435997 
L 157.401177 377.503916 
L 157.586526 377.434309 
L 157.771839 376.219999 
L 157.957115 376.219152 
L 158.32756 377.96889 
L 158.512728 377.968041 
L 158.697859 378.116854 
L 158.882955 378.116005 
L 159.068014 377.051352 
L 159.253037 377.050503 
L 159.438024 377.522905 
L 159.622975 377.522054 
L 159.807889 376.445264 
L 159.992768 376.444412 
L 160.362416 376.835057 
L 160.547187 376.587463 
L 161.101281 376.62938 
L 161.285907 376.612339 
L 161.470496 375.842949 
L 161.65505 375.842084 
L 161.839568 375.303248 
L 162.02405 375.755405 
L 162.392905 375.75366 
L 162.577279 376.165363 
L 162.761617 377.139302 
L 162.945919 377.138424 
L 163.130185 375.932169 
L 163.314415 375.931288 
L 163.498609 376.512868 
L 163.682767 376.511984 
L 164.050975 376.396953 
L 164.41904 376.953368 
L 164.970869 376.46935 
L 165.15474 376.917437 
L 165.338575 376.916541 
L 165.522374 376.499021 
L 165.706138 375.499036 
L 166.257214 378.040562 
L 166.62442 378.038758 
L 166.807969 378.292683 
L 166.991482 377.648645 
L 167.17496 378.400091 
L 167.358402 377.003705 
L 167.541808 377.306169 
L 167.725179 377.001899 
L 167.908513 377.304362 
L 168.091813 377.347951 
L 168.275076 377.577604 
L 168.641496 377.122765 
L 168.824653 377.121859 
L 169.007774 378.556885 
L 169.190859 378.555978 
L 169.373909 377.535761 
L 169.556923 377.534854 
L 169.922845 378.867852 
L 170.288624 378.744695 
L 170.471461 378.743791 
L 170.654262 379.187825 
L 170.837027 379.186922 
L 171.019757 378.081768 
L 171.202451 378.080868 
L 171.38511 378.613892 
L 171.567734 378.645351 
L 171.750322 378.919504 
L 172.115391 378.917709 
L 172.297873 379.644893 
L 172.480319 379.643998 
L 172.66273 378.215262 
L 172.845106 378.214369 
L 173.20975 379.167179 
L 173.39202 378.782025 
L 173.574254 379.1654 
L 173.756452 380.143375 
L 174.120743 380.279132 
L 174.302836 379.691743 
L 174.848902 379.636528 
L 175.030854 378.859036 
L 175.21277 379.448717 
L 175.394651 379.447845 
L 175.576496 380.292356 
L 175.758307 380.291489 
L 175.940082 378.814241 
L 176.121822 378.813377 
L 176.303527 378.929816 
L 176.666831 379.987853 
L 176.84843 379.61891 
L 177.211523 377.716101 
L 177.393017 377.715245 
L 177.574476 378.159326 
L 177.755899 379.683391 
L 177.937288 379.039399 
L 178.118641 379.536067 
L 178.481242 379.425152 
L 178.66249 378.959142 
L 179.024881 378.957447 
L 179.206024 379.595693 
L 179.387132 378.745423 
L 179.568205 379.246146 
L 179.749243 379.245304 
L 179.930246 379.612548 
L 180.473044 379.707113 
L 180.653907 379.212804 
L 180.834735 379.211972 
L 181.015529 379.546866 
L 181.196287 379.546037 
L 181.557698 378.379455 
L 182.099554 378.340573 
L 182.280103 379.116366 
L 182.460617 379.115542 
L 182.82154 379.757034 
L 183.182324 379.755397 
L 183.362664 378.76763 
L 183.542969 379.098495 
L 183.723239 379.097681 
L 183.903474 379.473043 
L 184.083675 380.673563 
L 184.263841 380.672754 
L 184.443972 378.649507 
L 184.624068 378.648702 
L 184.80413 378.316218 
L 184.984157 380.248869 
L 185.164149 379.358193 
L 185.52403 379.356594 
L 185.703918 379.998934 
L 185.883771 379.998139 
L 186.06359 378.828375 
L 186.243374 378.827583 
L 186.423124 379.089709 
L 186.602839 379.08892 
L 186.782519 378.760495 
L 186.962165 378.759707 
L 187.321353 379.336553 
L 187.500895 379.242736 
L 187.680402 379.824417 
L 188.039313 378.585121 
L 188.577421 378.655593 
L 188.756721 378.929868 
L 189.115218 378.928317 
L 189.294415 378.268226 
L 189.473577 378.267453 
L 189.652705 377.401074 
L 189.831798 377.4003 
L 190.010857 379.972072 
L 190.189882 379.971299 
L 190.547827 379.043482 
L 190.726749 379.042714 
L 190.905636 379.244192 
L 191.084488 379.243426 
L 191.263306 379.125361 
L 191.44209 378.17405 
L 191.799554 378.172526 
L 191.978235 378.551983 
L 192.156882 376.941358 
L 192.335494 377.163064 
L 192.514072 376.138946 
L 192.692615 377.161537 
L 192.871124 376.137415 
L 193.049599 377.111465 
L 193.22804 376.131835 
L 193.584819 376.239505 
L 193.763157 376.238732 
L 194.11973 375.440338 
L 194.476167 375.438777 
L 194.654334 375.765628 
L 194.832467 375.764841 
L 195.010565 376.188765 
L 195.18863 373.004651 
L 195.36666 373.003856 
L 195.544657 372.699689 
L 195.722619 371.837323 
L 196.078441 371.746725 
L 196.434126 370.260641 
L 197.322744 354.570553 
L 197.500366 353.748636 
L 197.677953 351.057982 
L 197.855506 350.337187 
L 198.033026 348.787191 
L 198.387963 348.033231 
L 198.56538 348.485453 
L 199.097429 357.43841 
L 199.451959 358.808015 
L 199.629173 362.730748 
L 199.806353 362.936231 
L 199.983499 365.030676 
L 200.160611 365.571885 
L 200.514734 365.610723 
L 200.691745 366.095303 
L 200.868722 366.094498 
L 201.045665 365.600216 
L 201.222574 365.599411 
L 201.399449 365.990959 
L 201.576291 365.990154 
L 201.753099 367.263487 
L 201.929873 365.551695 
L 202.283319 365.550084 
L 202.459992 364.493564 
L 202.636631 364.492759 
L 202.813236 364.338247 
L 203.166346 364.336636 
L 203.34285 365.735361 
L 203.51932 364.53727 
L 203.87216 364.535659 
L 204.048529 365.133496 
L 204.401167 365.022673 
L 204.577436 362.708194 
L 204.929872 362.706583 
L 205.106039 363.324645 
L 205.282173 363.323839 
L 205.458274 363.060116 
L 205.634341 363.059311 
L 205.810374 363.713777 
L 206.16234 363.712166 
L 206.338272 363.428218 
L 206.690037 366.383418 
L 206.865869 366.382612 
L 207.041668 366.017767 
L 207.217433 366.016962 
L 207.393164 366.982884 
L 207.568862 368.875084 
L 207.744527 368.874279 
L 207.920158 367.94315 
L 208.095756 367.942344 
L 208.27132 369.80623 
L 209.324005 372.187879 
L 209.499335 372.433806 
L 209.674632 372.432989 
L 209.849896 373.200695 
L 210.025127 373.199868 
L 210.200324 372.503316 
L 210.375488 372.502479 
L 210.550618 373.771731 
L 210.725716 373.770884 
L 211.07581 373.449633 
L 211.250808 373.582254 
L 211.425772 375.106312 
L 211.7756 375.169294 
L 211.950465 375.483923 
L 212.125296 375.167547 
L 212.474858 375.719939 
L 212.998954 375.822454 
L 213.173586 376.112797 
L 213.348184 376.111907 
L 213.52275 375.649899 
L 213.697283 375.649004 
L 214.046248 376.15282 
L 214.220682 376.301581 
L 214.569449 376.340225 
L 214.743783 377.095713 
L 215.092351 377.093901 
L 215.440788 378.00623 
L 215.614956 378.454304 
L 215.789092 378.453397 
L 215.963194 377.057006 
L 216.137264 377.056099 
L 216.311301 378.434496 
L 216.485304 378.433589 
L 216.833212 375.790464 
L 217.180989 378.462313 
L 217.354828 378.659602 
L 217.528634 378.658693 
L 217.702406 377.61016 
L 217.876146 377.609252 
L 218.223528 379.310331 
L 218.397169 378.375055 
L 218.570778 378.624932 
L 218.744353 378.624026 
L 218.917896 378.748512 
L 219.091406 379.139962 
L 219.264883 379.139058 
L 219.438327 377.936826 
L 219.611738 377.935924 
L 219.785117 379.326463 
L 220.305056 379.267137 
L 220.478303 380.281507 
L 220.651518 380.55162 
L 220.997849 380.509391 
L 221.170965 379.707618 
L 221.344049 379.706734 
L 221.5171 379.212375 
L 221.690118 379.709015 
L 221.863104 379.708135 
L 222.036057 379.905457 
L 222.208977 380.361653 
L 222.381864 380.36078 
L 222.554719 381.120348 
L 222.727541 379.521751 
L 222.900331 381.118614 
L 223.073088 381.34022 
L 223.591163 381.313383 
L 223.936383 379.216437 
L 224.281473 379.214748 
L 224.453969 381.357694 
L 224.626433 379.41531 
L 224.971262 382.083262 
L 225.143628 382.082432 
L 225.315962 380.301856 
L 225.488263 380.074519 
L 225.832767 380.416694 
L 226.004971 381.010475 
L 226.177142 381.009662 
L 226.34928 380.135157 
L 226.521386 380.134348 
L 226.69346 382.066997 
L 226.865501 382.066195 
L 227.03751 380.815528 
L 227.209486 380.814734 
L 227.38143 380.122267 
L 227.553342 381.569546 
L 227.725221 380.565628 
L 227.897068 381.567976 
L 228.240665 381.683722 
L 228.412414 381.322955 
L 228.755817 381.329511 
L 228.92747 381.676609 
L 229.09909 381.388664 
L 229.442234 381.387158 
L 229.613758 382.425946 
L 229.956708 382.424464 
L 230.128135 382.075869 
L 230.470891 382.033964 
L 230.642221 381.462914 
L 230.813519 381.462196 
L 230.984785 382.37158 
L 231.327219 382.370164 
L 231.498388 381.924525 
L 231.669525 382.465842 
L 232.011702 382.464461 
L 232.182743 381.747833 
L 232.353751 380.165603 
L 232.695671 380.16425 
L 232.866583 380.871431 
L 233.037462 380.870761 
L 233.379126 380.756173 
L 233.549909 381.382468 
L 233.72066 381.38181 
L 233.89138 380.920039 
L 234.232722 380.918738 
L 234.573937 381.325984 
L 234.744496 383.311383 
L 234.915023 381.899085 
L 235.085518 382.06025 
L 235.255981 381.897829 
L 235.426412 382.059003 
L 235.596812 381.585134 
L 235.767179 382.175074 
L 235.937514 381.996489 
L 236.107818 381.995884 
L 236.278089 380.34497 
L 236.448329 380.344371 
L 236.618536 381.945549 
L 236.788712 382.325176 
L 236.958856 382.324588 
L 237.128967 380.948743 
L 237.299047 380.948163 
L 237.469096 381.526004 
L 237.639112 381.52543 
L 237.809096 382.151817 
L 237.979049 382.15125 
L 238.14897 382.454055 
L 238.318859 382.453498 
L 238.488716 380.964427 
L 238.658541 380.963878 
L 238.828334 382.051405 
L 238.998096 382.050862 
L 239.167826 381.083596 
L 239.507191 380.993542 
L 239.676825 380.993012 
L 240.185539 381.525369 
L 240.524522 381.524342 
L 240.693967 381.143614 
L 240.863379 381.143109 
L 241.03276 377.554795 
L 241.202109 382.804552 
L 241.371427 381.453064 
L 241.540713 381.45257 
L 241.709967 381.108264 
L 242.048381 381.176056 
L 242.21754 381.640737 
L 242.386668 381.640261 
L 242.724829 381.995268 
L 242.893862 382.722882 
L 243.062863 382.722422 
L 243.231833 381.637937 
L 243.400771 378.579553 
L 243.569678 378.579101 
L 243.907397 381.862649 
L 244.076209 382.517476 
L 244.244989 381.861766 
L 244.582456 381.500904 
L 244.751142 381.71081 
L 245.08842 381.56435 
L 245.425572 380.746452 
L 245.762598 380.745633 
L 245.931064 380.429727 
L 246.099498 380.967293 
L 246.436273 381.010991 
L 246.604613 380.7315 
L 246.9412 380.661958 
L 247.109446 382.542444 
L 247.277661 381.025232 
L 247.445844 381.655856 
L 247.782117 381.655112 
L 247.950207 382.200805 
L 248.118265 382.014378 
L 248.790185 382.057465 
L 248.958086 381.680949 
L 249.125957 379.993895 
L 249.293796 379.928841 
L 249.461604 379.366268 
L 249.629381 379.365936 
L 249.964841 381.54547 
L 250.300176 381.544826 
L 250.467796 380.937776 
L 250.635386 380.937462 
L 250.970471 381.06628 
L 251.137967 382.174274 
L 251.472866 382.307159 
L 251.80764 381.497603 
L 251.97498 381.28294 
L 252.14229 381.282659 
L 252.309568 382.180346 
L 252.476815 382.180073 
L 252.644031 380.784319 
L 252.811216 380.784053 
L 252.97837 381.046708 
L 253.312584 381.046191 
L 253.479645 380.61718 
L 253.646675 380.616929 
L 253.813673 379.443664 
L 253.980641 379.443417 
L 254.147578 381.78516 
L 254.648202 382.366912 
L 254.815015 380.963108 
L 255.148547 381.071873 
L 255.315267 381.156596 
L 255.481956 381.706485 
L 255.815242 381.706064 
L 255.981838 381.107217 
L 256.148403 381.107015 
L 256.314938 381.519396 
L 256.814356 381.518823 
L 256.980767 381.971666 
L 257.313496 381.979401 
L 257.479815 381.42508 
L 257.646102 381.424912 
L 257.812359 381.889909 
L 257.978585 381.889748 
L 258.643182 382.459476 
L 258.809254 382.107432 
L 258.975295 381.423712 
L 259.141306 379.324285 
L 259.473235 379.324027 
L 259.639153 381.944985 
L 259.970898 381.8598 
L 260.136725 381.774742 
L 260.799723 382.053417 
L 260.965396 380.973338 
L 261.131039 382.38491 
L 261.296651 380.973158 
L 261.462232 381.341157 
L 261.627782 380.952767 
L 261.958792 381.46227 
L 262.78578 381.433634 
L 262.951086 381.28392 
L 263.116361 382.040263 
L 263.281606 381.283823 
L 263.44682 381.073447 
L 263.777157 381.073371 
L 263.94228 381.356479 
L 264.272434 381.421141 
L 264.437466 382.088524 
L 264.602467 381.421099 
L 264.767437 379.552347 
L 264.932377 379.552334 
L 265.097287 381.299712 
L 265.262166 381.530262 
L 265.427015 381.530256 
L 265.591833 381.182395 
L 265.756621 381.182397 
L 265.921378 381.514083 
L 266.086105 381.514091 
L 266.250802 380.709172 
L 266.415469 380.709187 
L 266.580105 380.551454 
L 266.74471 380.850796 
L 266.909286 380.551498 
L 267.073831 379.981196 
L 267.238345 379.981224 
L 267.40283 381.934933 
L 267.896101 381.86224 
L 268.060464 382.857328 
L 268.389099 382.857435 
L 268.717614 380.9686 
L 268.881826 380.620808 
L 269.046007 380.620878 
L 269.210159 381.514871 
L 269.37428 381.640339 
L 269.538371 381.515028 
L 269.866462 379.893201 
L 270.030462 380.459573 
L 270.194432 380.043041 
L 270.522282 380.04323 
L 270.686162 380.16063 
L 270.850012 380.852405 
L 271.013831 380.852507 
L 271.341379 379.890039 
L 271.505108 380.40385 
L 271.668807 381.819672 
L 271.832476 381.819788 
L 271.996115 380.938124 
L 272.323302 380.364 
L 272.486851 380.113346 
L 272.650369 380.113477 
L 272.813858 381.343255 
L 273.140745 381.343532 
L 273.304143 379.960325 
L 273.467511 381.962688 
L 273.794158 381.845689 
L 273.957437 380.138906 
L 274.120685 380.139065 
L 274.283903 380.89562 
L 274.447092 380.895785 
L 274.61025 381.336845 
L 274.773379 381.021516 
L 275.099546 381.021867 
L 275.262585 381.349684 
L 275.425594 381.349867 
L 275.588573 381.766678 
L 275.751522 380.860815 
L 275.914441 380.861009 
L 276.07733 380.497167 
L 276.24019 380.497366 
L 276.565819 380.732377 
L 276.891329 380.801559 
L 277.054039 381.121318 
L 277.21672 382.116576 
L 277.37937 381.190519 
L 277.541991 381.190743 
L 277.704582 381.02513 
L 277.867143 381.025361 
L 278.029674 380.730318 
L 278.192176 380.730555 
L 278.354648 379.711483 
L 278.51709 379.711724 
L 278.679502 381.212619 
L 278.841885 381.212865 
L 279.328854 380.627115 
L 279.491118 380.979278 
L 279.815556 381.056657 
L 279.977731 380.571539 
L 280.139876 380.571809 
L 280.301991 380.980616 
L 280.464077 380.980892 
L 280.626133 380.576683 
L 280.788159 380.55674 
L 280.950156 380.043324 
L 281.112123 380.043611 
L 281.27406 379.764803 
L 281.921514 379.656764 
L 282.245064 381.364304 
L 282.891808 379.448259 
L 283.376556 379.437065 
L 283.538079 379.967262 
L 283.699574 379.96758 
L 283.861038 379.162969 
L 284.022473 379.009585 
L 284.183879 379.009908 
L 284.345255 378.888886 
L 284.506602 379.11168 
L 284.66792 379.637841 
L 284.829207 379.638169 
L 284.990466 377.442127 
L 285.312895 377.442785 
L 285.796317 376.238391 
L 285.957399 375.328616 
L 286.118452 375.328938 
L 286.440469 375.454965 
L 286.601434 374.925399 
L 286.762369 374.92571 
L 286.923275 375.856342 
L 287.244999 375.933804 
L 287.566605 375.610815 
L 287.888095 375.611408 
L 288.048795 374.790589 
L 288.209467 374.5765 
L 288.370109 371.191219 
L 288.530722 371.191498 
L 288.691306 368.307769 
L 288.85186 370.28599 
L 289.493786 361.942486 
L 289.814574 346.370227 
L 290.135245 315.577069 
L 290.455799 269.623684 
L 290.936412 182.416797 
L 291.096558 167.798858 
L 291.256675 166.913301 
L 291.416762 166.913574 
L 291.736851 185.095875 
L 292.216765 245.219855 
L 292.696417 308.304689 
L 293.016041 331.939494 
L 293.335548 351.460652 
L 293.814591 362.431197 
L 293.974214 362.973484 
L 294.133808 363.94453 
L 294.452909 361.760838 
L 294.612416 361.761111 
L 294.771894 361.54296 
L 294.931344 358.14553 
L 295.250155 356.969015 
L 295.409518 354.036747 
L 295.568852 354.03702 
L 295.728156 354.154594 
L 295.887432 355.445185 
L 296.046679 355.445458 
L 296.205897 358.604786 
L 296.524247 360.2516 
L 296.842481 365.846221 
L 297.319616 369.968777 
L 297.478603 370.757802 
L 297.796491 374.071089 
L 298.114264 374.823946 
L 298.273108 376.017437 
L 298.431922 375.762857 
L 298.590708 376.017931 
L 298.749465 375.763347 
L 298.908194 376.730316 
L 299.066893 376.730557 
L 299.225564 377.713703 
L 299.384207 377.713942 
L 299.701405 377.593073 
L 300.018488 377.5531 
L 300.176987 377.12458 
L 300.652311 377.084839 
L 300.969051 378.310908 
L 301.285676 378.428679 
L 301.443945 376.794782 
L 301.602186 376.795016 
L 301.918582 378.595457 
L 302.076737 378.59569 
L 302.392962 377.936844 
L 302.551031 377.937078 
L 302.709072 377.306311 
L 303.025069 377.306779 
L 303.183024 377.9097 
L 303.81456 377.882317 
L 303.972372 378.181871 
L 304.130157 378.902094 
L 304.287912 378.6475 
L 304.44564 378.647735 
L 304.603339 378.174719 
L 304.761009 378.174955 
L 304.918651 379.26731 
L 305.076264 379.267547 
L 305.233849 378.960375 
L 305.391406 378.960615 
L 305.548934 377.682672 
L 305.706434 378.289646 
L 305.863905 377.683154 
L 306.021348 378.290128 
L 306.178763 377.91015 
L 306.336149 377.910391 
L 306.493507 377.607266 
L 306.808138 377.583478 
L 306.965411 378.627298 
L 307.122655 378.627539 
L 307.279871 378.995865 
L 307.594219 377.463339 
L 307.908453 377.528542 
L 308.065527 377.775522 
L 308.222573 377.775763 
L 308.693543 378.22547 
L 309.164258 378.29496 
L 309.321106 378.602614 
L 309.477926 379.254084 
L 309.791482 379.254576 
L 309.948218 376.658008 
L 310.104925 376.10815 
L 310.261605 376.108395 
L 310.574879 378.960524 
L 310.731473 378.960768 
L 310.88804 379.094494 
L 311.044578 378.880362 
L 311.201089 378.880609 
L 311.357571 378.658388 
L 311.670451 377.756877 
L 311.826849 377.757126 
L 312.295874 378.146181 
L 312.452159 378.15452 
L 312.608416 378.955657 
L 312.764646 378.725349 
L 312.920847 378.830767 
L 313.07702 378.725852 
L 313.233165 378.831272 
L 313.389282 378.095357 
L 313.545371 378.900543 
L 313.701432 378.095867 
L 313.857465 378.803977 
L 314.325397 376.717585 
L 314.481318 376.717839 
L 314.637211 377.753583 
L 314.948913 377.754089 
L 315.104722 378.005125 
L 315.260503 378.005378 
L 315.416257 376.945872 
L 315.571982 376.946124 
L 315.72768 377.241652 
L 316.038991 378.447528 
L 316.35019 378.448031 
L 316.661279 379.115941 
L 316.816781 379.116196 
L 316.972255 378.873758 
L 317.127702 378.352224 
L 317.28312 378.352481 
L 317.438511 379.032279 
L 317.593874 379.032537 
L 317.749209 379.166277 
L 317.904517 378.58812 
L 318.215048 378.588643 
L 318.370272 377.986218 
L 318.680636 377.986743 
L 318.99089 378.731528 
L 319.145975 378.731792 
L 319.301032 378.914077 
L 319.456062 378.792996 
L 319.611063 378.967193 
L 320.075903 378.324863 
L 320.230793 376.343139 
L 320.385657 376.343408 
L 320.85008 379.131133 
L 321.159558 379.062906 
L 321.314255 378.007462 
L 321.468925 378.007732 
L 321.623567 377.595424 
L 321.778181 377.89906 
L 322.087327 377.8996 
L 322.241858 377.438754 
L 322.550838 377.439292 
L 322.705287 379.077739 
L 322.859708 377.836229 
L 323.014101 377.913351 
L 323.168467 377.836768 
L 323.322806 377.913891 
L 323.477117 378.824259 
L 323.6314 378.824529 
L 323.785656 377.821669 
L 323.939884 377.821941 
L 324.094085 378.157937 
L 324.248258 378.158209 
L 324.402403 378.360725 
L 324.556522 378.886832 
L 324.864676 378.867154 
L 325.018711 378.386088 
L 325.17272 378.839391 
L 325.3267 378.03069 
L 325.480654 378.839943 
L 325.63458 378.528765 
L 325.788478 378.529043 
L 325.942349 378.254269 
L 326.557559 378.206849 
L 326.711293 378.470046 
L 326.865 378.470327 
L 327.018679 377.811292 
L 327.172331 377.811574 
L 327.325955 379.057679 
L 327.479552 379.057961 
L 327.633122 378.212864 
L 327.786664 378.213148 
L 328.093667 377.315751 
L 328.400561 377.316317 
L 328.553966 377.506708 
L 328.707345 378.36855 
L 328.860696 378.368832 
L 329.01402 379.275168 
L 329.167317 377.240875 
L 329.320586 378.709451 
L 329.473828 377.617617 
L 329.78023 379.086477 
L 329.933391 379.086763 
L 330.086524 377.181909 
L 330.23963 377.182195 
L 330.392708 376.725408 
L 330.54576 378.246569 
L 330.698784 377.13451 
L 330.851781 377.725347 
L 331.463497 377.803332 
L 331.616358 378.450797 
L 331.921999 378.451364 
L 332.227531 378.743165 
L 332.380257 378.743451 
L 332.685626 378.509422 
L 332.83827 378.50971 
L 333.143477 378.364672 
L 333.29604 378.60361 
L 333.448576 378.6039 
L 333.601085 378.867109 
L 333.753566 378.555944 
L 334.058448 378.427094 
L 334.667888 377.995468 
L 334.82018 377.995762 
L 334.972446 378.962785 
L 335.124684 378.96308 
L 335.276895 378.69237 
L 335.42908 377.827062 
L 335.581237 377.82736 
L 335.733368 377.57283 
L 336.037548 377.573424 
L 336.189597 378.079331 
L 336.34162 377.060316 
L 336.493616 378.690701 
L 336.645584 378.06404 
L 336.797526 378.064337 
L 336.949441 377.567113 
L 337.25319 377.567705 
L 337.556832 377.44695 
L 337.708613 377.827464 
L 337.860366 378.519434 
L 338.163793 378.520025 
L 338.315466 377.53337 
L 338.467112 378.314329 
L 338.618732 378.314625 
L 338.770324 378.808398 
L 338.92189 378.808696 
L 339.376426 377.579948 
L 339.527885 377.555977 
L 339.679317 376.662356 
L 339.830722 377.508034 
L 339.9821 376.840924 
L 340.284776 376.841514 
L 340.436074 376.684057 
L 340.587345 375.741891 
L 341.040999 375.520285 
L 341.343301 373.389193 
L 341.494411 372.491503 
L 341.645496 372.317842 
L 341.796553 369.142871 
L 341.947584 369.143134 
L 342.098588 368.985647 
L 342.249566 368.427716 
L 342.400517 366.753398 
L 342.551441 368.428243 
L 342.702339 367.186727 
L 342.853209 368.606745 
L 343.154872 368.607272 
L 343.305663 367.082614 
L 343.456427 367.082877 
L 343.607165 370.646683 
L 344.059219 372.463586 
L 344.209851 372.47596 
L 344.511034 373.168096 
L 344.661586 372.974165 
L 344.812111 374.167625 
L 344.96261 374.16784 
L 345.113082 375.810274 
L 345.263528 376.032952 
L 345.413947 375.81069 
L 345.56434 377.000091 
L 345.714706 375.685708 
L 345.865046 376.203655 
L 346.015359 375.86004 
L 346.165646 376.204053 
L 346.315906 377.098169 
L 346.616348 377.098559 
L 346.766529 375.541473 
L 346.916683 377.046362 
L 347.066811 375.161636 
L 347.216913 375.161824 
L 347.366988 374.802015 
L 347.517037 374.802197 
L 347.667059 376.501227 
L 347.817055 376.501405 
L 347.967025 377.173032 
L 348.266884 377.201696 
L 348.416775 376.016719 
L 348.716477 375.940208 
L 349.165832 376.713281 
L 349.315564 376.745804 
L 349.91423 375.634102 
L 350.063831 375.978072 
L 350.213405 376.641586 
L 350.362953 376.103768 
L 350.512475 376.678292 
L 350.661971 376.104067 
L 350.81144 376.209381 
L 350.960883 375.165946 
L 351.1103 375.45732 
L 351.409055 375.457597 
L 351.558393 375.077513 
L 351.856991 375.077774 
L 352.155483 373.953546 
L 352.453871 373.848613 
L 352.603026 373.080196 
L 352.752155 373.080302 
L 353.050333 373.201846 
L 353.199383 371.329156 
L 353.348407 371.175536 
L 353.497405 370.674048 
L 353.795322 370.674183 
L 354.093135 368.947123 
L 354.242002 368.947171 
L 354.390843 368.700482 
L 354.83721 366.200889 
L 354.985946 367.240472 
L 355.134657 367.240521 
L 355.283342 368.162803 
L 355.580633 368.1629 
L 355.87782 367.588623 
L 356.026374 367.398562 
L 356.174903 366.743339 
L 356.620332 366.290457 
L 356.768756 364.55525 
L 357.065527 364.349058 
L 357.213874 362.698793 
L 357.658757 361.857603 
L 357.807 361.857651 
L 357.955217 361.627141 
L 358.103408 361.09731 
L 358.251572 361.627238 
L 358.547825 359.115462 
L 358.695912 359.11551 
L 358.843973 360.349248 
L 358.992008 360.349297 
L 359.288002 359.233005 
L 359.583891 360.669036 
L 359.731797 360.669085 
L 360.027532 360.523566 
L 360.17536 360.867429 
L 360.47094 360.867526 
L 360.766416 357.716658 
L 360.914116 357.716707 
L 361.06179 357.951358 
L 361.209437 357.951407 
L 361.504656 356.733993 
L 361.652227 356.734042 
L 361.799771 353.101784 
L 361.94729 353.101832 
L 362.094784 352.228186 
L 362.242251 349.93883 
L 362.537109 344.498557 
L 362.6845 342.872562 
L 362.979203 334.151888 
L 363.273804 312.637246 
L 363.568303 278.158748 
L 364.009857 179.916744 
L 364.451181 64.924873 
L 364.745269 33.973515 
L 364.892274 33.973563 
L 365.039254 35.478309 
L 365.186208 40.655809 
L 365.626918 116.918203 
L 366.214172 231.566598 
L 366.801017 301.988227 
L 367.094286 319.454135 
L 367.533999 339.520951 
L 367.827014 345.293098 
L 368.119926 345.293194 
L 368.266344 346.761536 
L 368.559104 346.785902 
L 368.705446 346.624155 
L 368.998053 344.553271 
L 369.290559 344.47247 
L 370.313528 330.081111 
L 370.605576 328.515837 
L 371.043459 323.969533 
L 371.335254 323.96963 
L 371.626947 324.240734 
L 372.355739 329.495281 
L 372.647079 334.106545 
L 372.792711 334.660743 
L 373.083899 338.86752 
L 373.374986 342.843738 
L 373.520492 342.952998 
L 373.665973 345.97053 
L 373.811428 346.642029 
L 374.102263 349.768822 
L 374.392997 350.889352 
L 374.538327 352.195898 
L 374.683631 355.427809 
L 374.82891 356.03459 
L 374.974164 356.099356 
L 375.264596 356.435178 
L 375.409775 357.070274 
L 375.554928 357.199758 
L 375.700056 358.113951 
L 375.990237 358.114048 
L 376.13529 360.354962 
L 376.280318 360.35501 
L 376.42532 361.677736 
L 376.860178 361.653612 
L 377.149957 362.244262 
L 377.294809 361.965213 
L 377.439636 362.244359 
L 377.584438 363.587309 
L 377.729215 363.587357 
L 377.873968 363.158648 
L 378.163396 363.158745 
L 378.308073 364.250912 
L 378.452725 364.07703 
L 378.597352 364.534151 
L 378.741954 364.077127 
L 378.886531 364.756716 
L 379.17561 364.777037 
L 379.46459 366.273741 
L 379.609042 366.047276 
L 379.753469 366.273838 
L 379.897871 366.965562 
L 380.186601 367.038467 
L 380.330928 366.840316 
L 380.475231 367.84754 
L 380.619509 366.840412 
L 380.763761 367.273264 
L 380.907989 367.273312 
L 381.052192 368.248177 
L 381.19637 368.345303 
L 381.340524 368.248274 
L 381.628755 367.326138 
L 381.772834 366.885294 
L 382.060917 366.88539 
L 382.3489 369.23152 
L 382.492855 369.385265 
L 382.780689 369.162851 
L 383.212255 369.19118 
L 383.499841 370.906178 
L 383.643597 370.906151 
L 383.787329 371.031508 
L 383.931035 371.78786 
L 384.074717 371.787812 
L 384.362006 370.930183 
L 384.649197 371.035208 
L 384.936288 372.06244 
L 385.079797 372.062347 
L 385.223281 372.996616 
L 385.510175 372.996404 
L 385.653585 372.361243 
L 385.79697 372.361124 
L 385.940331 371.446855 
L 386.226978 371.446586 
L 386.513526 372.72852 
L 386.656764 373.306784 
L 386.943165 373.30646 
L 387.086328 373.751229 
L 387.229467 373.120054 
L 387.372581 371.218781 
L 387.515671 371.218596 
L 387.658736 372.144684 
L 387.801776 372.261788 
L 388.087783 374.732804 
L 388.23075 374.732594 
L 388.659503 373.753083 
L 388.802371 372.814445 
L 389.23083 372.914863 
L 389.3736 373.561799 
L 389.516346 373.577729 
L 389.801764 374.183951 
L 389.944437 374.18369 
L 390.087085 375.283633 
L 390.229708 375.283365 
L 390.372307 375.671404 
L 390.514881 375.37181 
L 390.657431 375.670856 
L 390.799957 376.613037 
L 390.942458 376.685566 
L 391.084935 376.612479 
L 391.227387 376.066138 
L 391.369815 375.038455 
L 391.512218 375.038169 
L 391.796952 375.15489 
L 391.939282 375.154596 
L 392.223869 375.873989 
L 392.508358 376.629777 
L 392.650567 376.495992 
L 392.79275 377.806229 
L 392.93491 377.138517 
L 393.503304 377.060433 
L 393.645342 376.926642 
L 393.929345 375.510308 
L 394.071309 375.509993 
L 394.497058 377.98046 
L 394.638926 377.980141 
L 394.780769 376.867479 
L 394.922588 378.958364 
L 395.064383 378.015587 
L 395.206153 378.015268 
L 395.3479 377.893602 
L 395.489622 377.585872 
L 395.772993 375.849976 
L 396.197869 377.264714 
L 396.339445 377.264388 
L 396.480998 377.854615 
L 397.046966 377.861399 
L 397.188397 376.72446 
L 397.471188 376.723804 
L 397.612547 378.074465 
L 397.753882 377.685826 
L 397.895192 378.073805 
L 398.31898 377.178894 
L 398.460194 377.081485 
L 398.601384 375.936451 
L 398.74255 375.936116 
L 398.883692 378.431474 
L 399.306974 378.462827 
L 399.730038 378.858225 
L 399.871011 378.259251 
L 400.152886 378.258589 
L 400.293787 378.500951 
L 400.434665 378.213434 
L 400.716347 378.932765 
L 400.857152 378.932437 
L 400.997933 378.005832 
L 401.279424 377.887876 
L 401.420133 378.943264 
L 401.560818 378.942938 
L 401.701479 378.627112 
L 401.842117 378.626788 
L 401.98273 379.366679 
L 402.123319 379.366357 
L 402.263884 378.573239 
L 402.544943 378.5726 
L 402.685437 378.08285 
L 402.825907 378.082532 
L 402.966352 377.155935 
L 403.106774 378.187062 
L 403.247172 378.28382 
L 403.387546 378.995401 
L 403.527896 378.404531 
L 403.668222 378.994767 
L 403.808524 378.460527 
L 403.948803 380.09839 
L 404.089057 378.459899 
L 404.369495 378.297479 
L 404.509678 379.005022 
L 404.930084 378.907016 
L 405.070171 378.700419 
L 405.490291 378.719726 
L 405.770252 380.183367 
L 405.910197 379.588469 
L 406.050118 379.58817 
L 406.190015 379.268327 
L 406.609564 379.315983 
L 406.749366 378.749407 
L 406.889144 379.028213 
L 407.16863 379.064039 
L 407.44802 379.836039 
L 407.727316 379.103348 
L 408.146081 379.049924 
L 408.285623 379.292339 
L 408.42514 378.098822 
L 408.704104 380.294643 
L 408.84355 380.29437 
L 409.122372 379.136994 
L 409.261748 379.500767 
L 409.4011 379.136461 
L 409.540428 379.508326 
L 409.679733 378.91751 
L 409.819014 379.362185 
L 409.958271 379.058558 
L 410.097505 379.296947 
L 410.375901 379.171041 
L 410.654203 379.117948 
L 410.793319 379.368477 
L 410.932411 379.117443 
L 411.07148 379.367975 
L 411.210525 378.756949 
L 411.349547 379.347254 
L 411.627519 379.346762 
L 411.76647 379.609435 
L 411.905397 378.945832 
L 412.322038 379.054324 
L 412.460871 379.523293 
L 412.599681 379.523056 
L 412.87723 378.394065 
L 413.015969 377.277444 
L 413.293377 377.276976 
L 413.432046 378.918964 
L 413.570691 378.91873 
L 413.709313 378.27536 
L 413.847911 378.275127 
L 413.986486 379.3387 
L 414.125038 379.338469 
L 414.263566 379.208803 
L 414.402071 378.654425 
L 414.540552 379.208347 
L 414.67901 378.678241 
L 414.817444 379.515307 
L 414.955855 378.677792 
L 415.094243 380.03665 
L 415.232607 378.560046 
L 415.370948 380.545864 
L 415.509265 378.689045 
L 415.64756 379.934652 
L 415.78583 379.784776 
L 416.062302 379.994686 
L 416.476834 379.901034 
L 416.614964 378.970507 
L 416.753072 379.945123 
L 416.891156 378.970106 
L 417.167254 378.856452 
L 417.581226 380.247307 
L 417.71917 380.247116 
L 417.857091 379.09009 
L 418.408542 378.996314 
L 418.546347 379.465338 
L 418.684128 379.465156 
L 418.821886 380.488332 
L 418.959621 380.500289 
L 419.097333 380.989545 
L 419.235021 380.989373 
L 419.372686 379.444059 
L 419.647947 379.443726 
L 419.785543 379.581088 
L 419.923115 379.293738 
L 420.198191 379.293417 
L 420.335693 379.750331 
L 420.473173 380.704767 
L 420.748063 380.700417 
L 420.885473 379.693093 
L 421.572178 379.62766 
L 421.709449 380.141223 
L 422.121125 380.278349 
L 422.258304 379.79688 
L 422.39546 379.796753 
L 422.532593 380.233476 
L 422.669702 380.233353 
L 422.806789 378.728536 
L 422.943853 378.728417 
L 423.080894 379.031665 
L 423.354906 379.031431 
L 423.491877 378.274922 
L 423.628826 379.953434 
L 423.765751 379.8522 
L 423.902653 380.470956 
L 424.039533 380.470848 
L 424.176389 381.417245 
L 424.313223 381.417143 
L 424.58682 379.896071 
L 424.723585 380.134625 
L 424.860326 379.596563 
L 424.997045 380.55511 
L 425.407062 377.796238 
L 425.543689 377.796152 
L 425.816873 380.315944 
L 425.953431 379.207563 
L 426.226477 381.517031 
L 426.362966 381.516956 
L 426.499433 380.440945 
L 426.635876 380.396383 
L 426.772296 379.91902 
L 427.181419 379.951191 
L 427.454054 380.711515 
L 427.590337 380.711461 
L 427.726597 379.955017 
L 427.862834 379.954969 
L 428.13524 380.804304 
L 428.271409 380.804263 
L 428.407555 380.986245 
L 428.543678 380.387567 
L 428.815856 380.092228 
L 428.95191 379.894001 
L 429.087942 379.416678 
L 429.495901 380.650301 
L 429.631842 379.266934 
L 429.76776 379.266918 
L 430.039527 379.602616 
L 430.311204 380.812017 
L 430.447008 380.553139 
L 430.582789 380.91313 
L 430.582789 380.91313 
" clip-path="url(#p94f20efd9c)" style="fill: none; stroke: #5088c5; stroke-linecap: round"/>
   </g>
   <g id="line2d_14">
    <defs>
     <path id="m38fb833cfd" d="M 0 2 
C 0.530406 2 1.03916 1.789267 1.414214 1.414214 
C 1.789267 1.03916 2 0.530406 2 0 
C 2 -0.530406 1.789267 -1.03916 1.414214 -1.414214 
C 1.03916 -1.789267 0.530406 -2 0 -2 
C -0.530406 -2 -1.03916 -1.789267 -1.414214 -1.414214 
C -1.789267 -1.03916 -2 -0.530406 -2 0 
C -2 0.530406 -1.789267 1.03916 -1.414214 1.414214 
C -1.03916 1.789267 -0.530406 2 0 2 
z
"/>
    </defs>
    <g clip-path="url(#p94f20efd9c)">
     <use xlink:href="#m38fb833cfd" x="149.699553" y="326.029623" style="fill: #f28360"/>
     <use xlink:href="#m38fb833cfd" x="198.286939" y="348.487064" style="fill: #f28360"/>
     <use xlink:href="#m38fb833cfd" x="291.394184" y="166.913574" style="fill: #f28360"/>
     <use xlink:href="#m38fb833cfd" x="364.956867" y="33.973563" style="fill: #f28360"/>
     <use xlink:href="#m38fb833cfd" x="371.342021" y="323.96963" style="fill: #f28360"/>
    </g>
   </g>
   <g id="patch_3">
    <path d="M 81.762344 397.284897 
L 81.762344 20 
" style="fill: none; stroke: #000000; stroke-width: 0.75; stroke-linejoin: miter; stroke-linecap: square"/>
   </g>
   <g id="patch_4">
    <path d="M 81.762344 397.284897 
L 443.99896 397.284897 
" style="fill: none; stroke: #000000; stroke-width: 0.75; stroke-linejoin: miter; stroke-linecap: square"/>
   </g>
  </g>
 </g>
 <defs>
  <clipPath id="p94f20efd9c">
   <rect x="81.762344" y="20" width="362.236616" height="377.284898"/>
  </clipPath>
 </defs>
</svg>
