<?xml version="1.0" encoding="utf-8" standalone="no"?>
<!DOCTYPE svg PUBLIC "-//W3C//DTD SVG 1.1//EN"
  "http://www.w3.org/Graphics/SVG/1.1/DTD/svg11.dtd">
<svg xmlns:xlink="http://www.w3.org/1999/xlink" width="463.947499pt" height="463.99896pt" viewBox="0 0 463.947499 463.99896" xmlns="http://www.w3.org/2000/svg" version="1.1">
 <metadata>
  <rdf:RDF xmlns:dc="http://purl.org/dc/elements/1.1/" xmlns:cc="http://creativecommons.org/ns#" xmlns:rdf="http://www.w3.org/1999/02/22-rdf-syntax-ns#">
   <cc:Work>
    <dc:type rdf:resource="http://purl.org/dc/dcmitype/StillImage"/>
    <dc:date>2025-02-07T20:41:19.137154</dc:date>
    <dc:format>image/svg+xml</dc:format>
    <dc:creator>
     <cc:Agent>
      <dc:title>Matplotlib v3.8.4, https://matplotlib.org/</dc:title>
     </cc:Agent>
    </dc:creator>
   </cc:Work>
  </rdf:RDF>
 </metadata>
 <defs>
  <style type="text/css">*{stroke-linejoin: round; stroke-linecap: butt}</style>
 </defs>
 <g id="figure_1">
  <g id="patch_1">
   <path d="M 0 463.99896 
L 463.947499 463.99896 
L 463.947499 0 
L 0 0 
L 0 463.99896 
z
" style="fill: none"/>
  </g>
  <g id="axes_1">
   <g id="patch_2">
    <path d="M 91.128438 397.284897 
L 443.829254 397.284897 
L 443.829254 20 
L 91.128438 20 
L 91.128438 397.284897 
z
" style="fill: none"/>
   </g>
   <g id="matplotlib.axis_1">
    <g id="xtick_1">
     <g id="line2d_1">
      <defs>
       <path id="m6df9ce1767" d="M 0 0 
L 0 5 
" style="stroke: #000000; stroke-width: 0.75"/>
      </defs>
      <g>
       <use xlink:href="#m6df9ce1767" x="114.832861" y="397.284897" style="stroke: #000000; stroke-width: 0.75"/>
      </g>
     </g>
     <g id="text_1">
      <text style="font: 14.5px &quot;Suisse Int&apos;l Mono&quot;; text-anchor: middle" x="114.832861" y="417.797397" transform="rotate(-0 114.832861 417.797397)">500</text>
     </g>
    </g>
    <g id="xtick_2">
     <g id="line2d_2">
      <g>
       <use xlink:href="#m6df9ce1767" x="166.56327" y="397.284897" style="stroke: #000000; stroke-width: 0.75"/>
      </g>
     </g>
     <g id="text_2">
      <text style="font: 14.5px &quot;Suisse Int&apos;l Mono&quot;; text-anchor: middle" x="166.56327" y="417.797397" transform="rotate(-0 166.56327 417.797397)">1000</text>
     </g>
    </g>
    <g id="xtick_3">
     <g id="line2d_3">
      <g>
       <use xlink:href="#m6df9ce1767" x="218.293678" y="397.284897" style="stroke: #000000; stroke-width: 0.75"/>
      </g>
     </g>
     <g id="text_3">
      <text style="font: 14.5px &quot;Suisse Int&apos;l Mono&quot;; text-anchor: middle" x="218.293678" y="417.797397" transform="rotate(-0 218.293678 417.797397)">1500</text>
     </g>
    </g>
    <g id="xtick_4">
     <g id="line2d_4">
      <g>
       <use xlink:href="#m6df9ce1767" x="270.024086" y="397.284897" style="stroke: #000000; stroke-width: 0.75"/>
      </g>
     </g>
     <g id="text_4">
      <text style="font: 14.5px &quot;Suisse Int&apos;l Mono&quot;; text-anchor: middle" x="270.024086" y="417.797397" transform="rotate(-0 270.024086 417.797397)">2000</text>
     </g>
    </g>
    <g id="xtick_5">
     <g id="line2d_5">
      <g>
       <use xlink:href="#m6df9ce1767" x="321.754495" y="397.284897" style="stroke: #000000; stroke-width: 0.75"/>
      </g>
     </g>
     <g id="text_5">
      <text style="font: 14.5px &quot;Suisse Int&apos;l Mono&quot;; text-anchor: middle" x="321.754495" y="417.797397" transform="rotate(-0 321.754495 417.797397)">2500</text>
     </g>
    </g>
    <g id="xtick_6">
     <g id="line2d_6">
      <g>
       <use xlink:href="#m6df9ce1767" x="373.484903" y="397.284897" style="stroke: #000000; stroke-width: 0.75"/>
      </g>
     </g>
     <g id="text_6">
      <text style="font: 14.5px &quot;Suisse Int&apos;l Mono&quot;; text-anchor: middle" x="373.484903" y="417.797397" transform="rotate(-0 373.484903 417.797397)">3000</text>
     </g>
    </g>
    <g id="xtick_7">
     <g id="line2d_7">
      <g>
       <use xlink:href="#m6df9ce1767" x="425.215312" y="397.284897" style="stroke: #000000; stroke-width: 0.75"/>
      </g>
     </g>
     <g id="text_7">
      <text style="font: 14.5px &quot;Suisse Int&apos;l Mono&quot;; text-anchor: middle" x="425.215312" y="417.797397" transform="rotate(-0 425.215312 417.797397)">3500</text>
     </g>
    </g>
    <g id="text_8">
     <text style="font: 500 15px &quot;Suisse Int&apos;l&quot;, sans-serif; text-anchor: middle" x="267.478846" y="441.209898" transform="rotate(-0 267.478846 441.209898)">Raman shift (cm-1)</text>
    </g>
   </g>
   <g id="matplotlib.axis_2">
    <g id="ytick_1">
     <g id="line2d_8">
      <defs>
       <path id="m9940395a96" d="M 0 0 
L -5 0 
" style="stroke: #000000; stroke-width: 0.75"/>
      </defs>
      <g>
       <use xlink:href="#m9940395a96" x="91.128438" y="383.276009" style="stroke: #000000; stroke-width: 0.75"/>
      </g>
     </g>
     <g id="text_9">
      <text style="font: 14.5px &quot;Suisse Int&apos;l Mono&quot;; text-anchor: end" x="81.128438" y="388.532259" transform="rotate(-0 81.128438 388.532259)">0.00</text>
     </g>
    </g>
    <g id="ytick_2">
     <g id="line2d_9">
      <g>
       <use xlink:href="#m9940395a96" x="91.128438" y="305.320794" style="stroke: #000000; stroke-width: 0.75"/>
      </g>
     </g>
     <g id="text_10">
      <text style="font: 14.5px &quot;Suisse Int&apos;l Mono&quot;; text-anchor: end" x="81.128438" y="310.577044" transform="rotate(-0 81.128438 310.577044)">0.01</text>
     </g>
    </g>
    <g id="ytick_3">
     <g id="line2d_10">
      <g>
       <use xlink:href="#m9940395a96" x="91.128438" y="227.36558" style="stroke: #000000; stroke-width: 0.75"/>
      </g>
     </g>
     <g id="text_11">
      <text style="font: 14.5px &quot;Suisse Int&apos;l Mono&quot;; text-anchor: end" x="81.128438" y="232.62183" transform="rotate(-0 81.128438 232.62183)">0.02</text>
     </g>
    </g>
    <g id="ytick_4">
     <g id="line2d_11">
      <g>
       <use xlink:href="#m9940395a96" x="91.128438" y="149.410366" style="stroke: #000000; stroke-width: 0.75"/>
      </g>
     </g>
     <g id="text_12">
      <text style="font: 14.5px &quot;Suisse Int&apos;l Mono&quot;; text-anchor: end" x="81.128438" y="154.666616" transform="rotate(-0 81.128438 154.666616)">0.03</text>
     </g>
    </g>
    <g id="ytick_5">
     <g id="line2d_12">
      <g>
       <use xlink:href="#m9940395a96" x="91.128438" y="71.455152" style="stroke: #000000; stroke-width: 0.75"/>
      </g>
     </g>
     <g id="text_13">
      <text style="font: 14.5px &quot;Suisse Int&apos;l Mono&quot;; text-anchor: end" x="81.128438" y="76.711402" transform="rotate(-0 81.128438 76.711402)">0.04</text>
     </g>
    </g>
    <g id="text_14">
     <text style="font: 500 15px &quot;Suisse Int&apos;l&quot;, sans-serif; text-anchor: middle" x="30.875" y="208.642449" transform="rotate(-90 30.875 208.642449)">Intensity (au)</text>
    </g>
   </g>
   <g id="line2d_13">
    <path d="M 104.191431 379.62125 
L 104.383985 379.922407 
L 104.5765 383.310247 
L 104.768976 382.251576 
L 104.961413 383.054996 
L 105.153811 379.118182 
L 105.34617 383.310247 
L 105.538491 374.114416 
L 105.730772 378.564738 
L 105.923015 376.514617 
L 106.307383 382.630732 
L 106.49951 374.770642 
L 106.691597 376.884109 
L 106.883645 383.310245 
L 107.075655 383.310245 
L 107.651452 361.697863 
L 107.843306 375.609338 
L 108.226899 383.310245 
L 108.418638 377.695708 
L 108.610337 379.783317 
L 108.801999 366.288178 
L 108.993621 362.588735 
L 109.185205 374.2941 
L 109.37675 373.882107 
L 109.568256 377.612007 
L 109.759724 368.269643 
L 110.142544 381.789829 
L 110.333896 378.93758 
L 110.525209 379.209246 
L 110.716484 378.277954 
L 110.90772 383.310244 
L 111.098918 377.571431 
L 111.290077 377.245796 
L 111.481198 378.68375 
L 111.67228 374.544726 
L 111.863324 374.308288 
L 112.054329 383.310244 
L 112.245295 383.310244 
L 112.627113 377.648131 
L 112.817965 377.230805 
L 113.008777 376.461458 
L 113.390288 370.485598 
L 113.771645 381.671244 
L 113.962266 383.310244 
L 114.152848 381.456945 
L 114.343392 382.148229 
L 114.533898 380.56976 
L 114.724366 383.310245 
L 114.914795 380.538664 
L 115.105186 383.310245 
L 115.295538 374.613328 
L 115.485853 377.520441 
L 115.676129 382.254732 
L 115.866366 377.968739 
L 116.056566 383.310246 
L 116.246727 382.501375 
L 116.43685 380.572054 
L 116.626935 371.532851 
L 116.816982 379.079828 
L 117.00699 374.271418 
L 117.19696 383.310247 
L 117.386893 371.908596 
L 117.576787 374.357871 
L 117.766642 361.661071 
L 117.95646 361.06144 
L 118.335981 383.310248 
L 118.71535 383.310249 
L 118.904977 380.913368 
L 119.094566 382.388375 
L 119.284117 378.461716 
L 119.47363 377.873833 
L 119.663105 367.719753 
L 119.852542 383.310251 
L 120.041941 373.117139 
L 120.231302 378.231929 
L 120.420625 362.724852 
L 120.60991 368.775191 
L 120.799157 383.310253 
L 120.988366 383.310253 
L 121.744823 371.529273 
L 121.933843 380.276854 
L 122.122824 382.394329 
L 122.500674 371.134354 
L 122.878373 383.310257 
L 123.25592 380.163978 
L 123.633315 383.310259 
L 123.821957 378.397538 
L 124.01056 370.484912 
L 124.199126 350.81689 
L 124.387654 357.005755 
L 124.764597 383.310262 
L 124.953011 383.310263 
L 125.141388 382.54897 
L 125.329728 375.328585 
L 125.51803 378.386145 
L 125.706294 375.129489 
L 125.89452 378.105001 
L 126.082709 374.345338 
L 126.27086 381.0586 
L 126.458974 378.615134 
L 126.647049 381.478406 
L 126.835088 378.949687 
L 127.023089 379.268002 
L 127.211052 382.049999 
L 127.398977 381.024717 
L 127.586865 383.31027 
L 127.774716 378.513531 
L 127.962529 380.933893 
L 128.150304 377.061577 
L 128.525743 373.446522 
L 128.713406 375.078048 
L 128.901031 373.883151 
L 129.088619 383.310275 
L 129.463683 383.310277 
L 129.651159 380.494091 
L 129.838597 383.310278 
L 130.025998 383.310279 
L 130.213361 382.168337 
L 130.775227 356.548724 
L 131.149618 375.779997 
L 131.52386 381.109671 
L 131.710924 380.559831 
L 131.897952 379.240892 
L 132.084942 381.126341 
L 132.271895 368.484687 
L 132.45881 373.76171 
L 132.645689 374.515148 
L 132.83253 383.31029 
L 133.019334 383.227025 
L 133.2061 382.007769 
L 133.39283 383.310292 
L 133.579522 371.119969 
L 133.766177 383.310294 
L 133.952795 381.847185 
L 134.139376 383.310296 
L 134.698895 370.72973 
L 134.885328 379.714475 
L 135.071723 368.609272 
L 135.258081 383.310301 
L 135.444402 374.315127 
L 135.630686 378.42633 
L 135.816933 373.11345 
L 136.003142 381.063658 
L 136.189315 379.630967 
L 136.375451 383.310306 
L 136.561549 371.457607 
L 136.747611 380.166195 
L 136.933636 383.310309 
L 137.119623 383.31031 
L 137.305574 378.790132 
L 137.677365 357.880854 
L 137.863205 375.188394 
L 138.049008 382.042981 
L 138.234774 383.310316 
L 138.606195 383.310318 
L 138.79185 372.551096 
L 138.977469 375.288495 
L 139.16305 372.530908 
L 139.534103 381.91109 
L 139.719574 367.088312 
L 139.905008 370.605419 
L 140.090406 378.995092 
L 140.46109 371.641213 
L 140.831628 377.736315 
L 141.016841 375.566308 
L 141.202018 374.85913 
L 141.387158 377.275314 
L 141.572261 383.310335 
L 141.757328 382.299242 
L 141.942358 383.310338 
L 142.127351 377.909913 
L 142.312308 377.775722 
L 142.497228 373.464676 
L 142.682111 379.255814 
L 142.866958 374.057605 
L 143.051768 373.248743 
L 143.236541 376.408152 
L 143.421278 383.310347 
L 143.790642 383.310349 
L 143.975269 376.078063 
L 144.159859 363.611303 
L 144.344413 359.662093 
L 144.713411 376.812103 
L 144.897855 377.528793 
L 145.082263 366.247989 
L 145.266634 371.8465 
L 145.450969 383.310361 
L 145.635267 383.310362 
L 145.819529 382.679918 
L 146.003754 380.824263 
L 146.187943 383.310365 
L 146.372096 383.310366 
L 146.556212 375.583259 
L 146.740291 376.790864 
L 146.924335 368.455144 
L 147.108341 380.504963 
L 147.292312 370.478785 
L 147.660144 383.310371 
L 148.02783 380.907544 
L 148.395371 374.749333 
L 148.579087 381.98053 
L 148.762767 379.778428 
L 148.94641 376.236635 
L 149.130017 378.693059 
L 149.313588 383.310379 
L 149.680621 376.339727 
L 149.864084 369.286082 
L 150.047509 380.221407 
L 150.414253 370.441537 
L 150.59757 379.556888 
L 150.780851 372.766241 
L 150.964096 375.518716 
L 151.147305 383.310388 
L 151.330478 360.577245 
L 151.513614 374.950316 
L 151.696715 370.73255 
L 151.879779 383.310391 
L 152.062807 371.340447 
L 152.2458 370.769348 
L 152.428756 367.93022 
L 152.611676 383.310395 
L 152.794559 383.310396 
L 152.977407 380.419864 
L 153.160219 373.682695 
L 153.342995 383.310399 
L 153.708438 377.12545 
L 153.891106 378.513537 
L 154.073738 366.183253 
L 154.256334 369.687107 
L 154.621417 383.310406 
L 154.803905 373.629851 
L 154.986357 383.310408 
L 155.168773 383.239038 
L 155.533498 375.934952 
L 155.715806 376.2052 
L 155.898079 383.310414 
L 156.080315 383.310415 
L 156.262516 378.150872 
L 156.444681 383.310417 
L 156.808903 372.248886 
L 156.99096 359.143369 
L 157.172982 374.936161 
L 157.354968 363.578867 
L 157.718832 318.26857 
L 157.900711 324.910668 
L 158.082553 315.242741 
L 158.26436 335.065818 
L 158.627867 326.848561 
L 159.172859 359.799454 
L 159.354452 383.310436 
L 160.261881 383.310442 
L 160.44326 380.532915 
L 160.624603 383.310445 
L 160.987183 383.310448 
L 161.168419 374.377172 
L 161.34962 377.056549 
L 161.530786 383.310453 
L 161.711915 380.845424 
L 161.89301 383.227189 
L 162.074068 382.190077 
L 162.255092 374.109872 
L 162.436079 373.351603 
L 162.797949 383.310463 
L 162.97883 383.310464 
L 163.159676 379.289887 
L 163.340486 383.310468 
L 163.702001 374.857709 
L 163.882705 373.415383 
L 164.063373 364.452328 
L 164.424605 383.310477 
L 164.966186 363.402747 
L 165.146643 378.181607 
L 165.327064 378.6568 
L 165.50745 372.18581 
L 165.6878 378.534687 
L 165.868115 380.125918 
L 166.048395 383.310491 
L 166.22864 383.143961 
L 166.408849 382.75142 
L 166.589023 381.508374 
L 166.769162 382.369476 
L 166.949266 376.570568 
L 167.129334 378.741442 
L 167.309367 367.729435 
L 167.489365 383.310501 
L 167.669328 381.333113 
L 167.849255 377.644546 
L 168.029147 367.130821 
L 168.388827 383.310506 
L 168.568613 382.382684 
L 168.748365 371.094146 
L 168.928082 374.088407 
L 169.107763 363.301589 
L 169.28741 377.84776 
L 169.467021 371.21007 
L 169.646597 380.965612 
L 169.826138 368.959661 
L 170.185115 383.310516 
L 170.364551 383.310517 
L 170.543952 377.791141 
L 170.723318 364.030324 
L 170.902649 374.028082 
L 171.081944 360.2891 
L 171.261205 381.435786 
L 171.440431 375.867719 
L 171.619622 381.939605 
L 171.798778 383.310526 
L 171.977899 377.688616 
L 172.156985 383.310529 
L 172.336036 382.882302 
L 172.515052 368.708739 
L 172.694033 372.210411 
L 172.87298 372.719615 
L 173.051891 383.310533 
L 173.230768 379.477616 
L 173.409609 380.880936 
L 173.588416 383.310536 
L 173.767188 382.63251 
L 173.945925 383.310537 
L 174.124628 374.762437 
L 174.303295 377.619177 
L 174.481928 365.661557 
L 174.839089 380.793719 
L 175.017617 383.310543 
L 175.19611 380.527067 
L 175.374569 383.310545 
L 175.909737 359.684271 
L 176.266342 383.310549 
L 176.444592 376.966937 
L 176.622808 364.745439 
L 176.800989 370.216883 
L 176.979135 380.839139 
L 177.157247 383.310554 
L 177.335324 376.806853 
L 177.513366 383.310557 
L 177.691374 375.515293 
L 177.869347 381.712757 
L 178.047286 368.170098 
L 178.22519 366.401763 
L 178.403059 378.756808 
L 178.580894 383.310563 
L 178.758694 383.310564 
L 178.93646 377.544366 
L 179.114191 379.114533 
L 179.291888 383.310568 
L 179.46955 374.787569 
L 179.647177 378.366564 
L 179.82477 379.273512 
L 180.002329 383.310572 
L 180.357342 368.355802 
L 180.534797 369.793064 
L 180.712218 368.916069 
L 180.889604 383.310578 
L 181.066956 383.31058 
L 181.244273 380.919648 
L 181.421556 374.959162 
L 181.776019 379.376739 
L 181.953198 373.793424 
L 182.130344 372.894212 
L 182.307454 383.310589 
L 182.661573 377.635709 
L 183.015555 367.287367 
L 183.192494 371.309468 
L 183.369399 380.722273 
L 183.54627 383.310598 
L 183.899908 373.499313 
L 184.076676 366.094738 
L 184.253409 382.504211 
L 184.430109 379.402538 
L 184.606774 383.310606 
L 184.783405 379.813419 
L 184.960001 383.310609 
L 185.313092 375.913036 
L 185.489586 376.68325 
L 186.018863 383.310617 
L 186.19522 383.310618 
L 186.371543 381.728556 
L 186.547833 376.603025 
L 186.724088 366.506984 
L 187.252648 383.310623 
L 187.604851 371.59879 
L 187.956918 383.310627 
L 188.1329 369.487376 
L 188.308849 370.392983 
L 188.484763 373.281848 
L 188.660643 369.18312 
L 188.83649 369.409113 
L 189.012302 378.359503 
L 189.18808 379.270044 
L 189.363825 383.310636 
L 189.539535 381.328103 
L 189.715212 383.310638 
L 189.890854 383.310639 
L 190.066463 382.513665 
L 190.242037 380.753172 
L 190.417578 362.423634 
L 190.593085 361.538766 
L 190.768558 379.065048 
L 190.943997 383.310646 
L 191.119402 370.405005 
L 191.470111 369.27302 
L 191.645415 383.310651 
L 191.820684 378.029178 
L 191.99592 379.530956 
L 192.171123 374.302539 
L 192.346291 377.326938 
L 192.521426 377.311754 
L 192.696526 375.532559 
L 192.871593 375.808748 
L 193.046627 375.653065 
L 193.396592 383.310663 
L 193.571524 383.310664 
L 193.746422 373.828661 
L 193.921287 372.368795 
L 194.270915 383.310669 
L 194.445678 381.859456 
L 194.620408 371.677181 
L 194.795104 371.109123 
L 194.969767 359.030977 
L 195.144395 361.799558 
L 195.318991 358.400478 
L 195.493552 365.271452 
L 195.66808 383.31068 
L 196.017035 381.205229 
L 196.191462 360.415237 
L 196.714542 383.310688 
L 196.888835 380.131075 
L 197.063095 378.999799 
L 197.23732 382.985557 
L 197.411513 378.713199 
L 197.585671 383.310694 
L 197.759797 375.329017 
L 198.107947 339.614228 
L 198.281972 348.502137 
L 198.629921 383.310701 
L 198.803845 381.53832 
L 199.151594 368.798094 
L 199.325418 371.41591 
L 199.499209 369.113425 
L 199.672966 383.310708 
L 200.020381 379.72877 
L 200.194038 368.96017 
L 200.541253 380.764089 
L 200.71481 381.79228 
L 200.888334 373.353341 
L 201.061824 381.601277 
L 201.235281 381.508597 
L 201.408705 383.31072 
L 201.582096 361.22406 
L 201.755453 368.306449 
L 201.928778 368.998225 
L 202.102068 368.824931 
L 202.275326 369.31418 
L 202.621741 383.310729 
L 202.794899 381.252861 
L 202.968024 377.315547 
L 203.141115 370.216128 
L 203.314174 373.847907 
L 203.487199 364.586127 
L 203.660191 361.74123 
L 203.833149 362.700627 
L 204.006075 373.270419 
L 204.178967 369.504092 
L 204.351827 376.71188 
L 204.524653 370.264314 
L 204.870206 332.644378 
L 205.042933 320.722064 
L 205.388287 340.498058 
L 205.560915 329.834955 
L 205.733509 342.558806 
L 205.906071 341.541102 
L 206.078599 383.310755 
L 206.251095 362.537484 
L 206.423557 378.492766 
L 206.595986 374.183138 
L 206.768383 383.31076 
L 208.318466 383.310773 
L 208.490533 376.524563 
L 208.662567 375.046744 
L 208.834568 375.317406 
L 209.006536 374.086261 
L 209.178472 383.310781 
L 209.350374 376.759068 
L 209.522244 383.310785 
L 209.69408 372.455055 
L 209.865884 381.904858 
L 210.037655 377.773078 
L 210.209393 383.310792 
L 210.381099 366.460696 
L 210.724411 375.735842 
L 210.896018 378.292011 
L 211.067593 383.3108 
L 211.239134 377.993649 
L 211.410643 380.471441 
L 211.582119 366.023224 
L 211.924973 379.688348 
L 212.096351 383.310811 
L 212.267696 382.692263 
L 212.610288 364.230653 
L 212.781536 368.669814 
L 212.95275 364.613572 
L 213.123932 380.826644 
L 213.295081 363.03958 
L 213.466198 383.310822 
L 213.637281 374.563468 
L 213.808333 381.224766 
L 213.979351 377.641338 
L 214.150337 381.950625 
L 214.321291 383.310828 
L 214.492212 383.31083 
L 214.6631 381.511554 
L 214.833956 370.300886 
L 215.004779 368.862146 
L 215.17557 383.310835 
L 215.346328 378.97082 
L 215.517053 383.310838 
L 215.687747 377.654674 
L 215.858407 383.310841 
L 216.199631 379.099944 
L 216.370194 378.862533 
L 216.540724 375.989784 
L 216.711223 377.360706 
L 216.881688 383.310849 
L 217.052122 381.489957 
L 217.222522 383.310852 
L 217.392891 379.441508 
L 217.563227 383.310855 
L 217.733531 375.464976 
L 217.903802 383.310858 
L 218.074041 383.31086 
L 218.414421 373.56498 
L 218.584563 377.608729 
L 218.754672 378.682268 
L 218.924749 383.310868 
L 219.434786 383.230518 
L 219.604734 370.280349 
L 219.774649 383.310877 
L 219.944533 376.528135 
L 220.114383 383.31088 
L 220.284202 376.923161 
L 220.453988 381.241118 
L 220.793464 368.744721 
L 220.963154 367.26373 
L 221.302437 383.310892 
L 221.47203 383.310894 
L 221.980615 363.051898 
L 222.15008 368.727741 
L 222.319512 381.529533 
L 222.488912 383.310905 
L 222.65828 378.065924 
L 222.827615 380.197775 
L 222.996919 380.280363 
L 223.16619 381.408298 
L 223.33543 375.831306 
L 223.504637 380.13849 
L 223.673812 371.074756 
L 223.842955 380.398451 
L 224.012066 383.310922 
L 224.181145 383.310924 
L 224.519207 373.450918 
L 224.68819 374.101067 
L 224.857141 383.310931 
L 225.02606 382.918391 
L 225.194947 381.215772 
L 225.363802 378.199093 
L 225.701415 383.31094 
L 225.870174 380.144213 
L 226.038901 374.320758 
L 226.207596 383.310945 
L 226.376259 383.310946 
L 226.71349 375.17757 
L 226.882057 365.329022 
L 227.050592 369.65663 
L 227.219096 363.386148 
L 227.387568 373.693388 
L 227.556007 369.166842 
L 227.724415 373.505052 
L 227.892791 383.310962 
L 228.229448 383.310965 
L 228.397728 375.28766 
L 228.565977 383.310969 
L 229.070532 380.803568 
L 229.238654 381.543732 
L 229.406744 380.227701 
L 229.574802 376.505996 
L 229.742828 369.203427 
L 230.078785 383.310986 
L 230.582483 383.310991 
L 230.918123 381.395869 
L 231.085895 368.258235 
L 231.253636 368.35342 
L 231.421345 379.673923 
L 231.756669 383.311005 
L 231.924283 366.191574 
L 232.091865 369.515431 
L 232.426935 383.311013 
L 232.761879 381.128248 
L 232.929304 369.946222 
L 233.096697 375.034906 
L 233.264058 368.058306 
L 233.431388 382.085757 
L 233.598686 383.311028 
L 233.765953 383.31103 
L 233.933188 379.230981 
L 234.100392 370.240205 
L 234.267564 372.49436 
L 234.601814 383.31104 
L 234.768891 382.835234 
L 234.935937 375.359067 
L 235.102952 382.373182 
L 235.436887 368.01421 
L 235.770696 383.311053 
L 235.937554 383.013674 
L 236.10438 381.002147 
L 236.271174 374.755161 
L 236.437938 383.311059 
L 236.77137 383.287272 
L 236.938039 382.145337 
L 237.104677 379.99577 
L 237.437858 368.789259 
L 237.604402 376.002208 
L 237.770914 372.219526 
L 237.937395 383.311073 
L 238.103845 381.824173 
L 238.270263 383.311076 
L 238.603006 367.323635 
L 238.769331 368.765262 
L 238.935624 367.136545 
L 239.101886 381.935456 
L 239.268117 374.042289 
L 239.434317 375.145513 
L 239.600485 379.637396 
L 239.766622 378.29373 
L 239.932728 374.502154 
L 240.098803 383.311095 
L 240.264846 369.306442 
L 240.430858 383.311098 
L 240.596839 376.632006 
L 240.762789 383.311101 
L 240.928708 382.527014 
L 241.094596 378.647995 
L 241.260452 383.311107 
L 241.426277 381.265135 
L 241.592072 377.226035 
L 241.757835 369.36469 
L 241.923567 382.111126 
L 242.089268 383.311116 
L 242.254937 379.825826 
L 242.420576 379.567102 
L 242.586184 370.488346 
L 242.75176 376.495296 
L 242.917306 372.344775 
L 243.08282 381.511484 
L 243.413756 375.998682 
L 243.579177 383.148812 
L 243.744568 383.311134 
L 243.909927 377.497352 
L 244.075255 383.311137 
L 244.571055 365.117331 
L 244.736259 371.984719 
L 245.066575 364.218668 
L 245.396767 383.311151 
L 245.561817 379.005086 
L 245.726836 382.026476 
L 245.891824 365.364151 
L 246.221707 378.054656 
L 246.386603 383.311162 
L 246.551467 378.672033 
L 246.716301 377.881998 
L 246.881103 367.241714 
L 247.045875 371.740823 
L 247.210616 371.148988 
L 247.375327 368.145454 
L 247.869272 383.311179 
L 248.033859 383.31118 
L 248.198416 382.668841 
L 248.362941 382.978118 
L 248.527436 363.027785 
L 248.6919 360.758822 
L 249.185107 383.311192 
L 249.349449 381.219679 
L 249.513759 383.311196 
L 249.678038 378.410371 
L 249.842287 379.83693 
L 250.006506 369.726023 
L 250.498976 383.311206 
L 250.663072 371.877282 
L 250.827137 373.605317 
L 250.991171 381.683553 
L 251.155175 383.311212 
L 251.319148 378.791472 
L 251.483091 378.490871 
L 251.647003 370.028273 
L 251.810884 382.860627 
L 251.974735 378.914274 
L 252.138555 383.311222 
L 252.302344 376.874929 
L 252.466103 376.00658 
L 252.629832 383.081748 
L 252.79353 374.072989 
L 252.957197 382.342947 
L 253.120834 373.8378 
L 253.28444 383.311231 
L 253.448016 374.059897 
L 253.775077 383.311234 
L 254.102015 383.311237 
L 254.428831 368.457731 
L 254.592194 372.911548 
L 254.755526 380.510662 
L 254.918828 381.666053 
L 255.24534 370.671822 
L 255.408551 378.341961 
L 255.571731 377.04446 
L 255.73488 383.31125 
L 255.898 379.314464 
L 256.061089 380.153077 
L 256.387175 372.887084 
L 256.550173 375.383523 
L 256.713141 376.165649 
L 256.876078 374.570921 
L 257.201862 383.311262 
L 257.527524 383.311265 
L 257.69031 378.645374 
L 257.853065 383.311268 
L 258.01579 376.959229 
L 258.178485 380.200679 
L 258.34115 380.584173 
L 258.503785 368.308715 
L 258.666389 375.210871 
L 258.828963 365.125261 
L 258.991506 383.121946 
L 259.15402 383.31128 
L 259.316503 382.300186 
L 259.478957 370.369314 
L 259.64138 383.169037 
L 259.803772 372.531716 
L 259.966135 374.167374 
L 260.29077 383.311289 
L 260.777496 372.187551 
L 260.939678 365.013101 
L 261.10183 376.238045 
L 261.263951 377.379988 
L 261.426043 369.142158 
L 261.750136 383.311301 
L 261.912137 382.657066 
L 262.074108 383.311303 
L 262.236049 373.359464 
L 262.397961 383.311306 
L 262.559842 379.183672 
L 262.721693 379.571135 
L 262.883514 358.008139 
L 263.045305 378.135725 
L 263.368797 382.917038 
L 263.530498 383.311315 
L 263.853811 376.094216 
L 264.015422 363.995576 
L 264.338555 383.311321 
L 264.500076 382.566819 
L 264.661568 379.574743 
L 264.823029 379.244962 
L 264.984461 383.311325 
L 265.307234 374.444468 
L 265.468576 383.311329 
L 265.791171 383.311331 
L 265.952423 371.176824 
L 266.113646 374.111371 
L 266.274838 368.407623 
L 266.597134 381.316167 
L 266.758238 383.311339 
L 266.919311 371.454196 
L 267.080355 370.72212 
L 267.241368 367.448002 
L 267.402353 383.311344 
L 267.563307 378.34188 
L 267.724231 383.311347 
L 267.885126 376.031485 
L 268.045991 375.13603 
L 268.206826 366.259193 
L 268.528408 381.859765 
L 268.689154 383.311355 
L 268.84987 383.002081 
L 269.010557 381.075056 
L 269.331841 355.704612 
L 269.492439 360.327357 
L 269.813545 383.311363 
L 269.974054 378.06911 
L 270.615792 383.311369 
L 270.776153 377.179389 
L 270.936484 382.894048 
L 271.096785 382.050727 
L 271.257057 372.049807 
L 271.417299 374.507658 
L 271.577511 364.427581 
L 271.737695 383.311375 
L 271.897848 378.041799 
L 272.057972 382.779067 
L 272.218066 383.311378 
L 272.378131 372.256003 
L 272.538167 378.313662 
L 272.698173 380.036231 
L 272.858149 383.311379 
L 273.018096 378.743625 
L 273.337901 346.999062 
L 273.657588 376.856503 
L 273.817388 383.311382 
L 273.977158 375.612767 
L 274.136899 382.727589 
L 274.456292 379.41211 
L 274.615944 369.327932 
L 274.775567 383.311383 
L 274.93516 374.380444 
L 275.094725 383.311383 
L 275.254259 383.156745 
L 275.573241 370.110525 
L 275.732688 368.53692 
L 275.892105 383.311382 
L 276.051493 383.037792 
L 276.210852 382.490615 
L 276.370181 361.343368 
L 276.688752 371.566259 
L 276.847993 373.475382 
L 277.007205 383.31138 
L 277.166388 383.31138 
L 277.325542 383.085371 
L 277.484666 383.311379 
L 277.643761 368.291202 
L 277.802827 374.978902 
L 277.961863 371.021349 
L 278.120871 370.371592 
L 278.279849 361.414459 
L 278.438797 363.634 
L 278.597717 383.311377 
L 278.756608 383.311376 
L 278.915469 382.502505 
L 279.233104 372.301371 
L 279.709337 383.311374 
L 279.868024 382.79988 
L 280.185309 378.261364 
L 280.343908 378.219174 
L 280.502477 381.776082 
L 280.661018 381.543876 
L 280.81953 370.99733 
L 280.978012 371.488759 
L 281.136465 377.979161 
L 281.29489 378.996445 
L 281.453285 382.428516 
L 281.611651 383.311366 
L 281.769988 382.550072 
L 281.928296 367.523874 
L 282.086575 376.886903 
L 282.244825 378.695346 
L 282.403046 383.311362 
L 282.719401 364.503184 
L 282.877535 376.898671 
L 283.03564 378.136451 
L 283.193716 383.311359 
L 283.351763 377.946621 
L 283.509781 379.766586 
L 283.66777 379.662624 
L 284.141564 373.992121 
L 284.299438 381.494242 
L 284.457282 383.311354 
L 284.615098 378.279679 
L 284.772884 381.402175 
L 284.930642 373.324431 
L 285.088371 373.402152 
L 285.246071 359.603689 
L 285.403742 371.397844 
L 285.561384 368.049667 
L 285.718998 383.311349 
L 285.876582 375.726173 
L 286.034138 382.897989 
L 286.191665 375.259274 
L 286.349163 383.311345 
L 286.506632 378.948776 
L 286.664073 383.311344 
L 286.821485 379.385923 
L 286.978867 380.521917 
L 287.136222 377.576121 
L 287.293547 360.775267 
L 287.450844 364.406342 
L 287.608111 379.825236 
L 287.76535 382.292502 
L 287.922561 375.648097 
L 288.079742 361.466336 
L 288.394019 378.798904 
L 288.551115 383.311333 
L 288.708182 383.311332 
L 289.17921 368.062432 
L 289.336162 366.691511 
L 289.493085 379.975468 
L 289.64998 383.311327 
L 289.806846 376.50727 
L 289.963683 383.311326 
L 290.120492 369.448471 
L 290.277272 383.311324 
L 290.434024 365.584775 
L 290.590747 367.568579 
L 290.747441 354.480911 
L 290.904107 373.832045 
L 291.060744 373.512038 
L 291.217352 383.31132 
L 291.373932 378.823359 
L 291.530484 377.773793 
L 291.687007 379.551444 
L 291.843501 383.311317 
L 291.999967 382.133694 
L 292.312813 367.067163 
L 292.469193 372.044213 
L 292.625545 370.920099 
L 292.781868 382.58744 
L 292.938163 372.539539 
L 293.094429 383.311312 
L 293.250667 380.286953 
L 293.406876 383.311311 
L 293.71921 368.348118 
L 293.875334 366.895032 
L 294.031429 380.756817 
L 294.187496 374.4722 
L 294.343535 376.944401 
L 294.811481 347.643521 
L 295.590822 176.516388 
L 295.746606 126.987542 
L 295.902361 118.080378 
L 296.058087 88.351377 
L 296.369455 161.803897 
L 297.14738 383.311297 
L 298.856329 383.311293 
L 299.011519 379.064706 
L 299.16668 383.311292 
L 299.321814 375.988803 
L 299.476919 383.311292 
L 299.787045 371.624246 
L 299.942065 355.833794 
L 300.097058 351.365089 
L 300.561867 368.451703 
L 300.716747 358.321111 
L 300.871599 360.012895 
L 301.181219 383.311291 
L 301.800121 383.311291 
L 301.954777 382.356699 
L 302.109404 383.311291 
L 302.418575 383.311292 
L 302.573119 378.811811 
L 302.727634 378.131176 
L 302.882122 383.311292 
L 303.036581 383.311293 
L 303.191012 382.335886 
L 303.345416 383.311293 
L 303.499791 379.290714 
L 303.654139 380.06725 
L 303.808459 365.974444 
L 303.96275 363.848138 
L 304.117014 380.588779 
L 304.27125 383.311295 
L 304.579638 375.731079 
L 304.73379 379.238487 
L 305.196079 369.084782 
L 305.350119 381.637607 
L 305.504132 383.311298 
L 305.812073 382.323995 
L 305.966002 380.745402 
L 306.119904 367.377486 
L 306.273777 366.403046 
L 306.427623 383.031575 
L 306.58144 379.836725 
L 306.73523 380.494238 
L 306.888993 370.884457 
L 307.042727 380.202435 
L 307.350112 370.803772 
L 307.503763 383.311296 
L 307.657387 383.311296 
L 307.810982 380.575395 
L 307.96455 383.311296 
L 308.271602 371.326773 
L 308.425087 381.001888 
L 308.578544 383.311295 
L 308.731973 383.061496 
L 309.038748 376.821469 
L 309.192094 383.06924 
L 309.498703 376.579167 
L 309.805201 371.332382 
L 309.958409 377.27801 
L 310.111589 367.923946 
L 310.264742 378.661941 
L 310.417866 380.227834 
L 310.570964 383.31129 
L 311.03009 371.443309 
L 311.183076 370.533025 
L 311.641871 381.43135 
L 311.794748 383.311286 
L 311.947597 378.438344 
L 312.100418 377.324527 
L 312.405978 370.440333 
L 312.711428 383.311283 
L 312.864112 383.311283 
L 313.016768 375.499079 
L 313.169397 380.612683 
L 313.321999 369.283865 
L 313.474572 370.42279 
L 313.627119 359.880672 
L 313.779638 377.960295 
L 314.084593 383.31128 
L 314.237029 377.179985 
L 314.389439 383.311279 
L 314.54182 381.681633 
L 314.694175 383.311279 
L 314.998801 365.827795 
L 315.151073 365.771277 
L 315.303317 375.497125 
L 315.455535 377.657217 
L 315.607725 383.311277 
L 315.759887 381.455623 
L 315.912022 377.840099 
L 316.06413 378.198506 
L 316.216211 377.648539 
L 316.368264 369.23272 
L 316.520289 378.638812 
L 316.672288 376.002912 
L 316.824259 383.311275 
L 316.976203 383.311275 
L 317.128119 381.503205 
L 317.583705 369.471963 
L 317.887293 383.311274 
L 318.039046 378.238097 
L 318.190771 378.287037 
L 318.34247 364.454765 
L 318.494141 370.232494 
L 318.645785 365.409015 
L 318.797402 383.311274 
L 318.948991 382.917369 
L 319.100553 383.311273 
L 319.252088 378.130541 
L 319.403596 383.311272 
L 319.70653 383.311272 
L 319.857957 382.062273 
L 320.160728 370.792521 
L 320.312073 368.88254 
L 320.463391 383.31127 
L 320.614681 382.312071 
L 321.06839 368.499856 
L 321.370728 377.274393 
L 321.672957 375.83866 
L 321.82403 380.096465 
L 321.975077 378.821756 
L 322.126097 383.311267 
L 322.428055 383.311267 
L 323.031647 369.637532 
L 323.182478 370.810368 
L 323.634807 376.557452 
L 323.78553 373.542697 
L 323.936225 383.311265 
L 324.086894 383.311265 
L 324.237535 379.27879 
L 324.538738 365.543166 
L 324.689298 369.416293 
L 324.839832 380.180723 
L 324.990339 377.826398 
L 325.140819 380.288707 
L 325.291272 378.796659 
L 325.441698 381.205935 
L 325.74247 376.649203 
L 326.043134 383.311264 
L 326.193426 380.765691 
L 326.493929 380.70225 
L 326.64414 383.311263 
L 326.794325 378.22191 
L 327.094613 383.311263 
L 327.244717 379.567246 
L 327.394794 383.311263 
L 327.544845 381.622145 
L 327.694868 383.311263 
L 327.844865 376.658869 
L 327.994835 377.811219 
L 328.144778 383.311264 
L 328.444584 374.427254 
L 328.594447 378.425865 
L 328.744283 372.918509 
L 328.894093 372.923966 
L 329.043876 383.311264 
L 329.193632 380.960166 
L 329.343361 368.405214 
L 329.493063 383.311265 
L 329.792389 383.311265 
L 329.942011 382.323963 
L 330.241176 376.360257 
L 330.540234 383.311266 
L 330.689724 383.251791 
L 330.839186 376.661851 
L 330.988622 356.003868 
L 331.138031 359.928055 
L 331.287414 360.820175 
L 331.586099 382.718119 
L 331.735402 383.311268 
L 331.884679 381.752998 
L 332.033928 372.391691 
L 332.183151 371.374687 
L 332.332348 364.870961 
L 332.481518 380.96593 
L 332.630661 383.311266 
L 332.779778 379.885446 
L 333.077932 367.212735 
L 333.226969 380.219936 
L 333.37598 380.934582 
L 333.673922 372.168035 
L 333.822853 372.687684 
L 334.120636 383.311264 
L 334.269488 381.170131 
L 334.418313 383.311264 
L 334.567112 383.156626 
L 334.715884 370.763047 
L 334.86463 367.851731 
L 335.013349 370.187659 
L 335.310709 383.311262 
L 335.459349 381.694939 
L 335.607963 382.174028 
L 335.75655 371.283786 
L 336.202153 383.311261 
L 336.350635 383.311261 
L 336.499091 380.322091 
L 336.64752 383.311261 
L 336.944298 375.786493 
L 337.092648 383.31126 
L 337.389269 373.447275 
L 337.685785 382.738184 
L 337.834003 383.31126 
L 337.982195 379.469111 
L 338.130361 368.622313 
L 338.2785 368.345338 
L 338.426613 364.449681 
L 338.5747 374.96506 
L 338.722761 374.853505 
L 338.870795 383.311256 
L 339.166785 383.311255 
L 339.314741 374.877591 
L 339.46267 359.809082 
L 339.610573 356.930507 
L 339.75845 363.318936 
L 339.906301 380.064418 
L 340.201924 379.347915 
L 340.349696 383.256545 
L 340.497442 382.258029 
L 340.645161 383.31125 
L 340.792855 383.31125 
L 340.940522 378.517362 
L 341.088164 381.22215 
L 341.235779 377.91529 
L 341.383368 383.311248 
L 341.825978 368.23806 
L 341.973462 381.375985 
L 342.268353 377.810889 
L 342.415759 368.961717 
L 342.710493 372.079535 
L 342.857821 383.311244 
L 343.005123 377.992913 
L 343.152398 383.311244 
L 343.299648 380.33298 
L 343.59407 383.311243 
L 343.741241 380.45639 
L 344.035506 364.201379 
L 344.1826 368.785067 
L 344.329667 383.311241 
L 344.623724 383.311241 
L 344.770714 381.134419 
L 345.211527 365.402355 
L 345.505272 382.986662 
L 345.798914 362.988003 
L 345.945696 366.455606 
L 346.092452 376.688584 
L 346.239182 378.126662 
L 346.385886 375.980945 
L 346.532564 371.974366 
L 346.679217 375.894515 
L 346.825843 373.878109 
L 346.972444 383.006111 
L 347.119019 378.67675 
L 347.265568 383.311234 
L 347.412091 381.567282 
L 347.558588 383.311233 
L 347.705059 383.311232 
L 347.851505 373.167777 
L 347.997924 383.311231 
L 348.290686 383.31123 
L 348.437028 368.258935 
L 348.583345 367.174421 
L 348.729635 370.01963 
L 348.8759 383.311228 
L 349.022139 382.478564 
L 349.460701 373.482788 
L 349.606837 373.238944 
L 349.752947 367.683933 
L 350.045091 383.311224 
L 350.191124 383.311223 
L 350.337131 379.350124 
L 350.483112 380.221444 
L 350.629068 383.264137 
L 350.774998 383.311222 
L 351.212634 371.853129 
L 351.358462 382.715655 
L 351.504263 381.95709 
L 351.650039 382.263882 
L 351.79579 377.348992 
L 351.941515 380.244731 
L 352.087214 367.995666 
L 352.378535 380.803433 
L 352.524157 383.311213 
L 352.669754 380.148881 
L 352.815325 381.729149 
L 352.96087 374.475064 
L 353.10639 383.311209 
L 353.251884 378.993253 
L 353.397353 381.544773 
L 353.542796 368.74317 
L 353.688213 370.070201 
L 353.833605 368.511953 
L 353.978971 370.285823 
L 354.124312 373.441761 
L 354.414917 383.311201 
L 354.560181 383.3112 
L 354.850633 361.890665 
L 355.140983 383.311197 
L 355.286119 382.442845 
L 355.431231 367.416361 
L 355.576316 367.937257 
L 355.721376 380.658441 
L 355.866411 383.311193 
L 356.301363 370.955134 
L 356.446295 372.728692 
L 356.591203 383.31119 
L 356.736085 373.584171 
L 356.880942 374.058918 
L 357.025773 368.768486 
L 357.170579 375.192541 
L 357.315359 376.357511 
L 357.460114 383.311186 
L 357.604844 373.762607 
L 357.749548 374.088771 
L 357.894227 378.462712 
L 358.183509 374.944951 
L 358.328111 371.467758 
L 358.472689 377.516856 
L 358.617241 376.603399 
L 358.906269 382.832397 
L 359.050745 383.311178 
L 359.339622 373.649952 
L 359.484022 362.070639 
L 359.628397 364.48421 
L 359.917071 383.311171 
L 360.205644 381.425784 
L 360.494116 373.926451 
L 360.638314 369.04583 
L 360.782486 383.311165 
L 361.070756 369.062665 
L 361.214853 371.29039 
L 361.358925 366.130378 
L 361.502972 375.086417 
L 361.646993 368.819597 
L 361.79099 373.428074 
L 361.934961 373.372959 
L 362.078907 383.311156 
L 362.222828 382.775871 
L 362.366723 383.168412 
L 362.510594 377.509265 
L 362.654439 379.203839 
L 362.798259 367.037297 
L 362.942054 370.804247 
L 363.085824 354.596966 
L 363.373288 362.798787 
L 363.516983 380.485842 
L 363.660652 382.449914 
L 363.804296 379.833213 
L 363.947915 373.562057 
L 364.091509 383.311135 
L 364.235078 380.791831 
L 364.378622 383.311132 
L 364.522141 378.874216 
L 364.665635 367.714863 
L 364.952547 383.311126 
L 365.095966 378.077235 
L 365.66939 345.708486 
L 365.955952 368.364295 
L 366.099196 372.819512 
L 366.385608 308.156204 
L 366.67192 262.73466 
L 367.387264 34.530118 
L 367.530258 46.79559 
L 367.673227 33.973515 
L 368.387698 318.002005 
L 368.530518 383.311089 
L 370.954649 383.31107 
L 371.097022 381.300783 
L 371.23937 375.147988 
L 371.381693 354.495936 
L 371.666265 373.961897 
L 371.808514 379.489981 
L 371.950738 372.998758 
L 372.092938 359.506425 
L 372.235112 358.105257 
L 372.377263 362.983927 
L 372.519388 360.558896 
L 372.661489 368.264924 
L 372.945616 356.595182 
L 373.229644 343.735689 
L 373.371622 345.068332 
L 373.513574 344.268121 
L 373.655502 338.743044 
L 374.081138 374.257099 
L 374.222968 362.137869 
L 374.364773 365.600404 
L 374.506553 374.596357 
L 374.790039 372.42273 
L 374.931746 374.108511 
L 375.073427 382.620442 
L 375.215085 383.311045 
L 376.064512 383.31104 
L 376.205997 382.024872 
L 376.347458 383.311039 
L 376.913056 383.311037 
L 377.054394 380.40266 
L 377.195708 383.311036 
L 377.336997 383.311036 
L 377.619502 378.680831 
L 377.901909 379.365542 
L 378.043076 383.311034 
L 378.184218 377.535909 
L 378.325336 383.311033 
L 378.46643 378.06934 
L 378.607499 377.495886 
L 378.748544 372.083533 
L 378.889564 383.297031 
L 379.312478 383.311032 
L 379.453401 382.293989 
L 379.594299 383.311031 
L 379.876023 383.311031 
L 380.016848 378.350733 
L 380.157649 383.311031 
L 380.439177 381.345842 
L 380.579905 362.123194 
L 380.861287 381.297518 
L 381.001942 383.311031 
L 381.142573 382.585424 
L 381.283179 378.934462 
L 381.423761 382.708836 
L 381.564318 372.611755 
L 381.704851 383.31103 
L 381.84536 378.683795 
L 381.985845 380.869542 
L 382.266742 356.383426 
L 382.687905 383.311026 
L 382.828244 373.735397 
L 382.968559 373.700083 
L 383.108849 353.224678 
L 383.249116 356.486323 
L 383.389358 373.526241 
L 383.529576 372.778339 
L 383.66977 375.652866 
L 383.80994 383.311022 
L 384.090206 383.311022 
L 384.230303 382.145295 
L 384.370376 371.833675 
L 384.510425 381.640362 
L 384.65045 383.31102 
L 384.79045 376.832598 
L 384.930426 379.57295 
L 385.070378 374.756682 
L 385.210306 383.311019 
L 385.35021 377.043918 
L 385.49009 383.311018 
L 385.629946 375.439334 
L 385.769777 383.311018 
L 385.909585 383.311017 
L 386.049368 380.598909 
L 386.189127 372.057792 
L 386.60826 383.311016 
L 386.887562 383.311016 
L 387.027177 372.252211 
L 387.166768 373.242477 
L 387.306335 383.311016 
L 387.445877 382.582744 
L 387.585396 383.311016 
L 387.724891 378.501881 
L 387.864361 383.311016 
L 388.003808 383.311016 
L 388.143231 382.874735 
L 388.282629 380.204384 
L 388.422004 383.311015 
L 388.561354 380.89629 
L 388.700681 382.016919 
L 388.979263 368.570619 
L 389.118517 370.976394 
L 389.396955 383.311013 
L 389.536138 383.311013 
L 389.814432 374.520471 
L 389.953543 376.511915 
L 390.09263 383.311012 
L 390.370733 365.882721 
L 390.64874 373.411011 
L 390.787708 374.395352 
L 390.926652 381.924601 
L 391.065572 376.612156 
L 391.204468 381.893996 
L 391.34334 372.327121 
L 391.482188 370.78275 
L 391.621013 383.31101 
L 391.898591 383.31101 
L 392.037344 371.751811 
L 392.176073 378.934074 
L 392.45346 373.649474 
L 392.730751 361.914486 
L 393.007948 383.311009 
L 393.146511 383.311009 
L 393.562056 372.366955 
L 393.700523 383.311009 
L 393.838967 383.311009 
L 394.254156 364.763281 
L 394.392505 372.353937 
L 394.53083 369.061966 
L 394.669131 383.31101 
L 394.807409 380.569224 
L 394.945663 369.695898 
L 395.083893 377.135234 
L 395.2221 369.495163 
L 395.360283 383.31101 
L 395.498442 377.315826 
L 395.636577 382.597299 
L 395.774689 382.328167 
L 395.912778 383.311011 
L 396.050842 377.722745 
L 396.188883 383.257978 
L 396.3269 382.157173 
L 396.464894 383.311011 
L 396.602864 374.620798 
L 396.740811 373.139961 
L 396.878733 363.877011 
L 397.154508 374.741785 
L 397.567993 383.311013 
L 397.705774 374.11604 
L 397.843532 374.642861 
L 397.981266 361.430856 
L 398.256664 372.469627 
L 398.394327 373.244268 
L 398.531967 383.311015 
L 398.807176 383.311015 
L 398.944745 382.823312 
L 399.219813 369.273854 
L 399.357312 362.104001 
L 399.494787 362.612581 
L 399.632239 366.884448 
L 399.769667 383.311015 
L 400.044453 383.311015 
L 400.319145 370.196531 
L 400.456456 379.141619 
L 400.593743 367.784675 
L 400.731007 374.117367 
L 400.868248 373.34865 
L 401.005465 382.403445 
L 401.142658 382.626731 
L 401.279829 383.311015 
L 401.416975 373.86144 
L 401.691199 383.311015 
L 401.828275 381.348306 
L 401.965328 383.311015 
L 402.102358 369.368258 
L 402.376348 382.463112 
L 402.513307 383.311016 
L 402.650244 368.568048 
L 402.787157 372.314108 
L 402.924046 383.311016 
L 403.197755 383.311017 
L 403.334575 371.577354 
L 403.471371 378.472392 
L 403.608144 379.358836 
L 403.88162 365.242246 
L 404.018323 375.341345 
L 404.155003 374.142004 
L 404.291659 383.311019 
L 404.428292 372.893084 
L 404.564902 377.757692 
L 404.701488 370.864534 
L 404.838052 383.31102 
L 404.974592 380.158792 
L 405.111109 382.766815 
L 405.247602 370.298814 
L 405.384072 371.09575 
L 405.520519 383.31102 
L 405.656943 383.215858 
L 405.793344 383.311019 
L 405.929721 371.621635 
L 406.066075 377.089827 
L 406.202406 362.321967 
L 406.61126 383.311018 
L 407.019904 371.094111 
L 407.428341 378.936249 
L 407.56444 370.721094 
L 407.700516 369.705572 
L 407.836569 364.234831 
L 408.108605 380.84877 
L 408.244589 383.311017 
L 408.380549 379.528341 
L 408.6524 364.42239 
L 408.788291 372.280275 
L 408.924159 368.467798 
L 409.060004 377.621205 
L 409.195826 366.877979 
L 409.603153 382.751941 
L 410.010272 361.138524 
L 410.145933 359.146066 
L 410.417184 369.791551 
L 410.552776 374.564124 
L 410.688344 383.311011 
L 410.823889 382.430763 
L 410.959412 373.093419 
L 411.094911 354.084897 
L 411.501271 383.311007 
L 411.772063 378.123585 
L 411.907424 378.153753 
L 412.042763 383.311005 
L 412.44864 383.311003 
L 412.719111 373.886373 
L 412.854312 370.997274 
L 413.124645 383.311001 
L 413.259777 380.801116 
L 413.394886 365.220869 
L 413.529972 365.667162 
L 413.665036 367.117051 
L 413.800076 358.962857 
L 413.935094 357.673712 
L 414.474936 383.310997 
L 414.609839 382.690464 
L 414.74472 383.310996 
L 414.879578 383.310995 
L 415.014413 380.741629 
L 415.149225 383.310994 
L 415.284014 381.229331 
L 415.41878 369.364336 
L 415.553524 369.252002 
L 415.688245 383.31099 
L 415.822943 377.09686 
L 416.092271 380.754447 
L 416.2269 380.090798 
L 416.361507 374.520835 
L 416.496091 374.541882 
L 416.630653 383.310985 
L 416.899707 377.645892 
L 417.168671 354.889992 
L 417.303119 375.213383 
L 417.437543 365.114051 
L 417.571946 376.958628 
L 417.706325 370.120567 
L 417.840682 371.766513 
L 417.975016 369.698204 
L 418.109328 370.695719 
L 418.512126 383.310975 
L 418.780545 383.310973 
L 419.048873 373.718427 
L 419.183003 380.635478 
L 419.31711 378.108185 
L 419.451195 383.31097 
L 419.585257 383.31097 
L 419.853313 369.802967 
L 419.987308 381.223857 
L 420.121279 382.478304 
L 420.389155 354.790116 
L 420.523059 357.631505 
L 420.65694 349.641563 
L 420.924635 374.978565 
L 421.058449 375.20557 
L 421.19224 368.292657 
L 421.326008 371.184249 
L 421.459754 369.557713 
L 421.593477 378.521658 
L 421.727178 373.592596 
L 421.860856 383.31096 
L 422.261756 383.310959 
L 422.395344 378.659932 
L 422.795974 332.480026 
L 423.196401 375.827879 
L 423.329831 374.403715 
L 423.46324 383.310955 
L 423.596626 376.304683 
L 423.729989 383.310954 
L 423.86333 377.517993 
L 423.996648 377.782845 
L 424.129944 358.902162 
L 424.396469 362.035104 
L 424.529698 383.310952 
L 424.662904 382.121433 
L 424.92925 360.996817 
L 425.062389 359.468037 
L 425.195505 360.063069 
L 425.461672 375.362402 
L 425.594721 375.893488 
L 425.727748 366.273993 
L 425.860753 383.310949 
L 426.126696 383.310949 
L 426.259634 381.562351 
L 426.392549 383.310948 
L 426.525442 376.875145 
L 426.791161 383.310948 
L 427.189573 363.580638 
L 427.322332 381.186106 
L 427.720476 358.238991 
L 428.118419 383.310946 
L 428.251022 381.58614 
L 428.781212 360.062284 
L 428.913704 372.061541 
L 429.046174 373.31202 
L 429.178622 383.310946 
L 429.311047 379.659118 
L 429.44345 383.310946 
L 429.70819 377.464453 
L 429.840526 369.253828 
L 430.105133 336.244238 
L 430.237402 333.72262 
L 430.501876 365.327067 
L 430.76626 378.66073 
L 430.76626 378.66073 
" clip-path="url(#pc974101be7)" style="fill: none; stroke: #5088c5; stroke-linecap: round"/>
   </g>
   <g id="line2d_14">
    <defs>
     <path id="mf88b98b4d3" d="M 0 2 
C 0.530406 2 1.03916 1.789267 1.414214 1.414214 
C 1.789267 1.03916 2 0.530406 2 0 
C 2 -0.530406 1.789267 -1.03916 1.414214 -1.414214 
C 1.03916 -1.789267 0.530406 -2 0 -2 
C -0.530406 -2 -1.03916 -1.789267 -1.414214 -1.414214 
C -1.789267 -1.03916 -2 -0.530406 -2 0 
C -2 0.530406 -1.789267 1.03916 -1.414214 1.414214 
C -1.03916 1.789267 -0.530406 2 0 2 
z
"/>
    </defs>
    <g clip-path="url(#pc974101be7)">
     <use xlink:href="#mf88b98b4d3" x="158.17949" y="335.065818" style="fill: #f28360"/>
     <use xlink:href="#mf88b98b4d3" x="205.24394" y="334.676907" style="fill: #f28360"/>
     <use xlink:href="#mf88b98b4d3" x="295.988493" y="88.351377" style="fill: #f28360"/>
     <use xlink:href="#mf88b98b4d3" x="367.465244" y="46.79559" style="fill: #f28360"/>
     <use xlink:href="#mf88b98b4d3" x="373.3183" y="345.068332" style="fill: #f28360"/>
    </g>
   </g>
   <g id="patch_3">
    <path d="M 91.128438 397.284898 
L 91.128438 20 
" style="fill: none; stroke: #000000; stroke-width: 0.75; stroke-linejoin: miter; stroke-linecap: square"/>
   </g>
   <g id="patch_4">
    <path d="M 91.128438 397.284897 
L 443.829254 397.284897 
" style="fill: none; stroke: #000000; stroke-width: 0.75; stroke-linejoin: miter; stroke-linecap: square"/>
   </g>
  </g>
 </g>
 <defs>
  <clipPath id="pc974101be7">
   <rect x="91.128438" y="20" width="352.700816" height="377.284898"/>
  </clipPath>
 </defs>
</svg>
