<?xml version="1.0" encoding="utf-8" standalone="no"?>
<!DOCTYPE svg PUBLIC "-//W3C//DTD SVG 1.1//EN"
  "http://www.w3.org/Graphics/SVG/1.1/DTD/svg11.dtd">
<svg xmlns:xlink="http://www.w3.org/1999/xlink" width="463.998698pt" height="463.99896pt" viewBox="0 0 463.998698 463.99896" xmlns="http://www.w3.org/2000/svg" version="1.1">
 <metadata>
  <rdf:RDF xmlns:dc="http://purl.org/dc/elements/1.1/" xmlns:cc="http://creativecommons.org/ns#" xmlns:rdf="http://www.w3.org/1999/02/22-rdf-syntax-ns#">
   <cc:Work>
    <dc:type rdf:resource="http://purl.org/dc/dcmitype/StillImage"/>
    <dc:date>2025-02-07T20:40:36.991485</dc:date>
    <dc:format>image/svg+xml</dc:format>
    <dc:creator>
     <cc:Agent>
      <dc:title>Matplotlib v3.8.4, https://matplotlib.org/</dc:title>
     </cc:Agent>
    </dc:creator>
   </cc:Work>
  </rdf:RDF>
 </metadata>
 <defs>
  <style type="text/css">*{stroke-linejoin: round; stroke-linecap: butt}</style>
 </defs>
 <g id="figure_1">
  <g id="patch_1">
   <path d="M 0 463.99896 
L 463.998698 463.99896 
L 463.998698 0 
L 0 0 
L 0 463.99896 
z
" style="fill: none"/>
  </g>
  <g id="axes_1">
   <g id="patch_2">
    <path d="M 72.39625 397.163023 
L 431.102409 397.163023 
L 431.102409 20 
L 72.39625 20 
L 72.39625 397.163023 
z
" style="fill: none"/>
   </g>
   <g id="matplotlib.axis_1">
    <g id="xtick_1">
     <g id="line2d_1">
      <defs>
       <path id="m83365af64e" d="M 0 0 
L 0 5 
" style="stroke: #000000; stroke-width: 0.75"/>
      </defs>
      <g>
       <use xlink:href="#m83365af64e" x="75.719383" y="397.163023" style="stroke: #000000; stroke-width: 0.75"/>
      </g>
     </g>
     <g id="text_1">
      <text style="font: 14.5px &quot;Suisse Int&apos;l Mono&quot;; text-anchor: middle" x="75.719383" y="417.675522" transform="rotate(-0 75.719383 417.675522)">540</text>
     </g>
    </g>
    <g id="xtick_2">
     <g id="line2d_2">
      <g>
       <use xlink:href="#m83365af64e" x="134.757745" y="397.163023" style="stroke: #000000; stroke-width: 0.75"/>
      </g>
     </g>
     <g id="text_2">
      <text style="font: 14.5px &quot;Suisse Int&apos;l Mono&quot;; text-anchor: middle" x="134.757745" y="417.675522" transform="rotate(-0 134.757745 417.675522)">560</text>
     </g>
    </g>
    <g id="xtick_3">
     <g id="line2d_3">
      <g>
       <use xlink:href="#m83365af64e" x="193.796108" y="397.163023" style="stroke: #000000; stroke-width: 0.75"/>
      </g>
     </g>
     <g id="text_3">
      <text style="font: 14.5px &quot;Suisse Int&apos;l Mono&quot;; text-anchor: middle" x="193.796108" y="417.675522" transform="rotate(-0 193.796108 417.675522)">580</text>
     </g>
    </g>
    <g id="xtick_4">
     <g id="line2d_4">
      <g>
       <use xlink:href="#m83365af64e" x="252.83447" y="397.163023" style="stroke: #000000; stroke-width: 0.75"/>
      </g>
     </g>
     <g id="text_4">
      <text style="font: 14.5px &quot;Suisse Int&apos;l Mono&quot;; text-anchor: middle" x="252.83447" y="417.675522" transform="rotate(-0 252.83447 417.675522)">600</text>
     </g>
    </g>
    <g id="xtick_5">
     <g id="line2d_5">
      <g>
       <use xlink:href="#m83365af64e" x="311.872832" y="397.163023" style="stroke: #000000; stroke-width: 0.75"/>
      </g>
     </g>
     <g id="text_5">
      <text style="font: 14.5px &quot;Suisse Int&apos;l Mono&quot;; text-anchor: middle" x="311.872832" y="417.675522" transform="rotate(-0 311.872832 417.675522)">620</text>
     </g>
    </g>
    <g id="xtick_6">
     <g id="line2d_6">
      <g>
       <use xlink:href="#m83365af64e" x="370.911195" y="397.163023" style="stroke: #000000; stroke-width: 0.75"/>
      </g>
     </g>
     <g id="text_6">
      <text style="font: 14.5px &quot;Suisse Int&apos;l Mono&quot;; text-anchor: middle" x="370.911195" y="417.675522" transform="rotate(-0 370.911195 417.675522)">640</text>
     </g>
    </g>
    <g id="xtick_7">
     <g id="line2d_7">
      <g>
       <use xlink:href="#m83365af64e" x="429.949557" y="397.163023" style="stroke: #000000; stroke-width: 0.75"/>
      </g>
     </g>
     <g id="text_7">
      <text style="font: 14.5px &quot;Suisse Int&apos;l Mono&quot;; text-anchor: middle" x="429.949557" y="417.675522" transform="rotate(-0 429.949557 417.675522)">660</text>
     </g>
    </g>
    <g id="text_8">
     <text style="font: 500 15px &quot;Suisse Int&apos;l&quot;, sans-serif; text-anchor: middle" x="251.74933" y="441.088023" transform="rotate(-0 251.74933 441.088023)">Wavelength (nm)</text>
    </g>
   </g>
   <g id="matplotlib.axis_2">
    <g id="ytick_1">
     <g id="line2d_8">
      <defs>
       <path id="m2534ea7325" d="M 0 0 
L -5 0 
" style="stroke: #000000; stroke-width: 0.75"/>
      </defs>
      <g>
       <use xlink:href="#m2534ea7325" x="72.39625" y="382.983927" style="stroke: #000000; stroke-width: 0.75"/>
      </g>
     </g>
     <g id="text_9">
      <text style="font: 14.5px &quot;Suisse Int&apos;l Mono&quot;; text-anchor: end" x="62.39625" y="388.240177" transform="rotate(-0 62.39625 388.240177)">0</text>
     </g>
    </g>
    <g id="ytick_2">
     <g id="line2d_9">
      <g>
       <use xlink:href="#m2534ea7325" x="72.39625" y="320.702691" style="stroke: #000000; stroke-width: 0.75"/>
      </g>
     </g>
     <g id="text_10">
      <text style="font: 14.5px &quot;Suisse Int&apos;l Mono&quot;; text-anchor: end" x="62.39625" y="325.958941" transform="rotate(-0 62.39625 325.958941)">10</text>
     </g>
    </g>
    <g id="ytick_3">
     <g id="line2d_10">
      <g>
       <use xlink:href="#m2534ea7325" x="72.39625" y="258.421455" style="stroke: #000000; stroke-width: 0.75"/>
      </g>
     </g>
     <g id="text_11">
      <text style="font: 14.5px &quot;Suisse Int&apos;l Mono&quot;; text-anchor: end" x="62.39625" y="263.677705" transform="rotate(-0 62.39625 263.677705)">20</text>
     </g>
    </g>
    <g id="ytick_4">
     <g id="line2d_11">
      <g>
       <use xlink:href="#m2534ea7325" x="72.39625" y="196.140219" style="stroke: #000000; stroke-width: 0.75"/>
      </g>
     </g>
     <g id="text_12">
      <text style="font: 14.5px &quot;Suisse Int&apos;l Mono&quot;; text-anchor: end" x="62.39625" y="201.396469" transform="rotate(-0 62.39625 201.396469)">30</text>
     </g>
    </g>
    <g id="ytick_5">
     <g id="line2d_12">
      <g>
       <use xlink:href="#m2534ea7325" x="72.39625" y="133.858984" style="stroke: #000000; stroke-width: 0.75"/>
      </g>
     </g>
     <g id="text_13">
      <text style="font: 14.5px &quot;Suisse Int&apos;l Mono&quot;; text-anchor: end" x="62.39625" y="139.115234" transform="rotate(-0 62.39625 139.115234)">40</text>
     </g>
    </g>
    <g id="ytick_6">
     <g id="line2d_13">
      <g>
       <use xlink:href="#m2534ea7325" x="72.39625" y="71.577748" style="stroke: #000000; stroke-width: 0.75"/>
      </g>
     </g>
     <g id="text_14">
      <text style="font: 14.5px &quot;Suisse Int&apos;l Mono&quot;; text-anchor: end" x="62.39625" y="76.833998" transform="rotate(-0 62.39625 76.833998)">50</text>
     </g>
    </g>
    <g id="text_15">
     <text style="font: 500 15px &quot;Suisse Int&apos;l&quot;, sans-serif; text-anchor: middle" x="30.875" y="208.581511" transform="rotate(-90 30.875 208.581511)">Intensity (au)</text>
    </g>
   </g>
   <g id="line2d_14">
    <path d="M 85.681663 383.107599 
L 92.334105 383.097181 
L 96.552727 383.101839 
L 103.042914 383.094477 
L 104.665461 383.093864 
L 106.774772 383.080229 
L 107.7483 383.112709 
L 150.421281 383.025728 
L 151.0703 382.853507 
L 152.530592 382.961451 
L 153.179611 383.047506 
L 177.517813 382.987186 
L 178.166832 382.534995 
L 178.978105 382.480648 
L 179.302614 382.624814 
L 179.951633 383.035404 
L 180.600652 383.063275 
L 181.898689 382.984743 
L 182.060944 382.920151 
L 182.223199 382.724705 
L 182.547708 381.421082 
L 182.872217 380.621875 
L 183.358981 380.432331 
L 183.683491 380.403293 
L 183.845746 380.471546 
L 184.008 380.825732 
L 184.494764 382.67621 
L 184.981528 383.004284 
L 185.630547 383.046044 
L 188.388877 383.055329 
L 193.905536 382.983271 
L 194.230045 382.830423 
L 194.554554 382.610996 
L 195.365828 382.527824 
L 195.852592 382.656357 
L 196.339356 382.903471 
L 198.286412 382.914667 
L 198.610922 382.805723 
L 198.773176 382.573781 
L 199.25994 381.535219 
L 199.746704 381.325435 
L 200.233468 381.305732 
L 200.395723 381.463296 
L 201.044742 382.682983 
L 201.531506 382.798616 
L 204.127581 382.68617 
L 205.750127 382.443834 
L 206.723656 382.155768 
L 207.21042 381.897138 
L 207.534929 381.524048 
L 207.859438 380.720345 
L 208.021693 378.731879 
L 208.183948 362.17141 
L 208.346202 291.860304 
L 208.670712 96.61558 
L 208.995221 56.096753 
L 209.31973 37.876476 
L 209.481985 33.969001 
L 209.64424 33.96905 
L 209.806495 37.712825 
L 209.968749 68.993625 
L 210.455513 326.659342 
L 210.780023 359.347125 
L 211.104532 376.752898 
L 211.429041 380.888658 
L 211.753551 381.636007 
L 212.240315 382.078539 
L 212.889333 382.313662 
L 214.187371 382.501524 
L 214.83639 382.154877 
L 215.809918 382.193601 
L 216.458936 382.542201 
L 216.621191 382.49965 
L 216.783446 382.10359 
L 216.945701 379.100439 
L 217.432465 359.437591 
L 217.756974 356.908449 
L 218.081483 355.591923 
L 218.243738 355.405128 
L 218.405993 355.405178 
L 218.568247 356.763581 
L 218.730502 362.223826 
L 219.055011 377.325381 
L 219.379521 380.467132 
L 219.70403 382.083492 
L 220.028539 382.699801 
L 220.515304 382.860945 
L 222.13785 382.947003 
L 222.786869 382.908145 
L 223.111378 382.553735 
L 223.435888 382.045429 
L 223.760397 381.879358 
L 224.084906 381.775381 
L 224.571671 381.46281 
L 224.733925 381.523769 
L 225.220689 382.17145 
L 226.031963 382.59819 
L 226.356472 382.753925 
L 229.601566 382.857204 
L 230.412839 382.996363 
L 233.820187 382.903949 
L 235.118225 382.631862 
L 235.28048 382.234549 
L 235.442734 378.687797 
L 235.929498 339.86653 
L 236.254008 334.110579 
L 236.740772 330.228711 
L 236.903026 330.228752 
L 237.065281 331.299407 
L 237.227536 338.857275 
L 237.552045 368.986028 
L 237.876554 376.91258 
L 238.363318 381.517091 
L 238.687828 382.670745 
L 239.012337 382.873177 
L 239.823611 382.951913 
L 240.797139 382.911605 
L 241.608412 382.76843 
L 242.095176 382.402955 
L 243.230959 382.497019 
L 243.879978 382.899944 
L 244.042232 382.899982 
L 244.204487 382.767983 
L 244.366742 382.370043 
L 244.528996 380.721496 
L 244.853506 373.529085 
L 245.178015 371.282613 
L 245.664779 370.015551 
L 245.827034 370.015588 
L 245.989288 370.189328 
L 246.151543 371.038632 
L 246.800562 381.05597 
L 247.125071 382.068115 
L 247.611835 382.841448 
L 247.936345 382.945656 
L 248.260854 382.854612 
L 248.747618 382.614565 
L 249.396637 382.456698 
L 249.721146 382.391559 
L 250.045656 382.548764 
L 250.53242 382.755081 
L 252.317221 382.989255 
L 253.615258 382.988466 
L 257.022607 383.06922 
L 260.2677 382.937097 
L 260.429955 382.623921 
L 260.59221 380.648023 
L 260.916719 372.163336 
L 261.241229 369.493785 
L 261.565738 368.33879 
L 261.890247 367.848522 
L 262.052502 367.848558 
L 262.214757 368.803179 
L 262.863775 380.363344 
L 263.188285 381.705515 
L 263.675049 382.7337 
L 263.999558 382.988814 
L 265.297596 383.048332 
L 268.380434 383.02536 
L 271.301019 382.91573 
L 273.248075 382.705969 
L 273.41033 382.392668 
L 273.572584 379.410927 
L 274.221603 336.612899 
L 274.546112 332.141177 
L 274.870622 329.691727 
L 275.032876 329.691762 
L 275.195131 329.955248 
L 275.357386 336.809333 
L 275.681895 364.470992 
L 276.006405 374.36176 
L 276.330914 378.507332 
L 276.817678 381.795452 
L 277.142187 382.573602 
L 277.466697 382.762073 
L 278.440225 382.785322 
L 279.251498 382.704272 
L 279.576008 382.542592 
L 279.738262 382.301657 
L 279.900517 381.085524 
L 280.062772 370.036179 
L 280.387281 316.768285 
L 280.71179 297.686001 
L 281.0363 290.438398 
L 281.360809 286.380216 
L 281.523064 286.380248 
L 281.685318 290.019372 
L 282.334337 362.852423 
L 282.658846 372.337234 
L 283.14561 379.699345 
L 283.47012 381.973421 
L 283.794629 382.620213 
L 284.281393 382.808334 
L 285.579431 382.884498 
L 289.311288 382.854206 
L 289.473543 382.707312 
L 289.635798 382.296158 
L 289.960307 381.120654 
L 290.284816 380.669978 
L 290.771581 380.424609 
L 291.09609 380.427279 
L 291.258345 380.69169 
L 291.745109 382.048381 
L 292.069618 382.358409 
L 292.718637 382.524559 
L 293.205401 382.43346 
L 293.367655 382.302385 
L 293.52991 382.009566 
L 293.692165 380.493854 
L 293.854419 364.934658 
L 294.341184 254.047359 
L 294.665693 231.540843 
L 295.152457 217.537611 
L 295.314712 217.537638 
L 295.476966 220.669788 
L 295.801476 291.5926 
L 296.125985 341.239518 
L 296.450494 359.979373 
L 296.937258 374.689535 
L 297.261768 379.940893 
L 297.586277 381.92448 
L 297.910786 382.392765 
L 298.397551 382.583488 
L 299.371079 382.657319 
L 299.533333 382.614369 
L 299.695588 382.374548 
L 299.857843 380.149762 
L 300.506861 347.57048 
L 300.831371 343.534704 
L 301.15588 341.440856 
L 301.318135 341.44088 
L 301.480389 341.883723 
L 301.642644 346.637051 
L 301.967154 366.138599 
L 302.291663 374.778238 
L 302.616172 378.440609 
L 303.102936 381.415544 
L 303.427446 382.347755 
L 303.751955 382.650115 
L 304.400974 382.75353 
L 305.536757 382.753244 
L 306.023521 382.59019 
L 306.834794 382.542078 
L 307.159303 382.6701 
L 307.646067 382.854876 
L 308.944105 382.94774 
L 310.728906 383.05429 
L 311.702434 383.06784 
L 313.974 382.904149 
L 314.623019 382.956779 
L 315.272037 382.580041 
L 315.434292 382.417439 
L 315.596547 381.901454 
L 315.758801 378.601373 
L 316.245565 361.081084 
L 316.570075 357.706094 
L 316.894584 356.114216 
L 317.056839 355.779158 
L 317.219094 355.779173 
L 317.381348 357.255253 
L 318.030367 376.139918 
L 318.354876 379.088902 
L 318.84164 381.449967 
L 319.328404 382.623764 
L 319.652914 382.885686 
L 320.464187 383.028631 
L 323.871536 383.075786 
L 328.090157 382.91789 
L 329.712704 382.629433 
L 329.874959 382.467827 
L 330.037213 381.837742 
L 330.199468 375.619037 
L 330.848487 305.886966 
L 331.172996 296.449518 
L 331.497506 291.518118 
L 331.65976 291.518132 
L 331.822015 292.694639 
L 331.98427 303.189041 
L 332.471034 353.62256 
L 332.795543 366.574594 
L 333.282307 375.719888 
L 333.769071 380.846236 
L 334.09358 382.21695 
L 334.41809 382.663597 
L 334.904854 382.844751 
L 336.202891 382.980503 
L 340.908277 382.908877 
L 341.232786 382.715144 
L 341.395041 382.029127 
L 341.557296 378.252342 
L 342.04406 357.557007 
L 342.368569 352.563944 
L 342.693079 350.298176 
L 342.855333 349.717103 
L 343.017588 349.717115 
L 343.179843 351.180735 
L 343.991116 375.481125 
L 344.315625 378.315256 
L 344.964644 381.600014 
L 345.289153 382.386525 
L 345.613663 382.663886 
L 346.424936 382.909202 
L 347.398464 382.931994 
L 348.371992 382.807364 
L 349.507775 381.969056 
L 349.832285 381.734148 
L 349.994539 381.375853 
L 350.156794 379.143328 
L 350.319049 367.863831 
L 350.805813 315.323406 
L 351.130322 302.206372 
L 351.617086 294.712719 
L 351.779341 294.712727 
L 351.941595 298.992079 
L 352.752869 362.144049 
L 353.239633 372.771183 
L 353.726397 379.330108 
L 354.050906 381.725523 
L 354.375416 382.520872 
L 354.699925 382.735446 
L 355.348944 382.838114 
L 362.48815 382.750542 
L 363.948442 382.430978 
L 364.110696 382.293958 
L 364.272951 381.994508 
L 364.435206 380.021189 
L 364.597461 368.1956 
L 365.246479 268.929271 
L 365.570989 252.274644 
L 365.895498 244.974658 
L 366.057753 244.974657 
L 366.220007 247.375597 
L 366.382262 262.595262 
L 366.869026 330.131162 
L 367.193535 352.859451 
L 367.680299 367.654356 
L 368.167064 377.495597 
L 368.491573 380.902503 
L 368.816082 381.76466 
L 369.140592 381.927275 
L 369.465101 381.888533 
L 369.78961 381.576378 
L 369.951865 381.059629 
L 370.11412 377.039935 
L 370.276374 354.451962 
L 370.925393 157.293855 
L 371.249902 118.462748 
L 371.574412 100.125282 
L 371.736667 100.125281 
L 371.898921 101.960085 
L 372.061176 128.485662 
L 372.710195 293.181535 
L 373.034704 326.995884 
L 373.683723 363.390542 
L 374.008232 375.541858 
L 374.332741 380.496142 
L 374.657251 381.816502 
L 374.98176 382.242752 
L 375.630779 382.60155 
L 376.442052 382.670794 
L 377.74009 382.746117 
L 379.200382 382.952521 
L 397.048397 383.04513 
L 398.18418 382.991827 
L 400.131236 382.744333 
L 400.618 382.452046 
L 400.780254 382.097043 
L 400.942509 379.66552 
L 401.104764 367.60208 
L 401.916037 240.326635 
L 402.240547 224.624911 
L 402.402801 219.775693 
L 402.565056 219.775693 
L 402.727311 221.248643 
L 402.889565 234.944286 
L 403.538584 327.076293 
L 403.863093 349.315675 
L 404.349857 366.488478 
L 404.836622 377.507148 
L 405.161131 381.141381 
L 405.48564 382.311146 
L 405.81015 382.669075 
L 406.459168 382.867807 
L 407.594951 382.933809 
L 408.406224 382.848968 
L 408.568479 382.67956 
L 408.730734 382.157952 
L 408.892989 379.464534 
L 409.866517 343.053845 
L 410.191026 340.016382 
L 410.353281 340.016379 
L 410.515535 340.400651 
L 410.67779 343.575122 
L 411.489063 371.599544 
L 411.975827 377.496009 
L 412.624846 381.540103 
L 412.949356 382.532922 
L 413.273865 382.894021 
L 413.760629 383.059552 
L 417.816996 383.194022 
L 417.816996 383.194022 
" clip-path="url(#p85e3bb6e40)" style="fill: none; stroke: #5088c5; stroke-linecap: round"/>
   </g>
   <g id="line2d_15">
    <defs>
     <path id="m12cdb4cb65" d="M 0 2 
C 0.530406 2 1.03916 1.789267 1.414214 1.414214 
C 1.789267 1.03916 2 0.530406 2 0 
C 2 -0.530406 1.789267 -1.03916 1.414214 -1.414214 
C 1.03916 -1.789267 0.530406 -2 0 -2 
C -0.530406 -2 -1.03916 -1.789267 -1.414214 -1.414214 
C -1.789267 -1.03916 -2 -0.530406 -2 0 
C -2 0.530406 -1.789267 1.03916 -1.414214 1.414214 
C -1.03916 1.789267 -0.530406 2 0 2 
z
"/>
    </defs>
    <g clip-path="url(#p85e3bb6e40)">
     <use xlink:href="#m12cdb4cb65" x="209.358567" y="37.876476" style="fill: #f28360"/>
     <use xlink:href="#m12cdb4cb65" x="218.033713" y="355.591923" style="fill: #f28360"/>
     <use xlink:href="#m12cdb4cb65" x="236.588658" y="331.087529" style="fill: #f28360"/>
     <use xlink:href="#m12cdb4cb65" x="274.75922" y="330.747981" style="fill: #f28360"/>
     <use xlink:href="#m12cdb4cb65" x="281.193861" y="288.161428" style="fill: #f28360"/>
     <use xlink:href="#m12cdb4cb65" x="295.032465" y="221.026579" style="fill: #f28360"/>
     <use xlink:href="#m12cdb4cb65" x="301.072345" y="342.294708" style="fill: #f28360"/>
     <use xlink:href="#m12cdb4cb65" x="316.904127" y="356.114216" style="fill: #f28360"/>
     <use xlink:href="#m12cdb4cb65" x="331.43838" y="291.518118" style="fill: #f28360"/>
     <use xlink:href="#m12cdb4cb65" x="342.75148" y="350.298176" style="fill: #f28360"/>
     <use xlink:href="#m12cdb4cb65" x="351.513028" y="296.405514" style="fill: #f28360"/>
     <use xlink:href="#m12cdb4cb65" x="365.866562" y="244.974658" style="fill: #f28360"/>
     <use xlink:href="#m12cdb4cb65" x="371.587986" y="100.125282" style="fill: #f28360"/>
     <use xlink:href="#m12cdb4cb65" x="402.444169" y="219.775693" style="fill: #f28360"/>
     <use xlink:href="#m12cdb4cb65" x="410.247875" y="340.016382" style="fill: #f28360"/>
    </g>
   </g>
   <g id="patch_3">
    <path d="M 72.39625 397.163023 
L 72.39625 20 
" style="fill: none; stroke: #000000; stroke-width: 0.75; stroke-linejoin: miter; stroke-linecap: square"/>
   </g>
   <g id="patch_4">
    <path d="M 72.39625 397.163023 
L 431.102409 397.163023 
" style="fill: none; stroke: #000000; stroke-width: 0.75; stroke-linejoin: miter; stroke-linecap: square"/>
   </g>
  </g>
 </g>
 <defs>
  <clipPath id="p85e3bb6e40">
   <rect x="72.39625" y="20" width="358.706159" height="377.163023"/>
  </clipPath>
 </defs>
</svg>
