<?xml version="1.0" encoding="utf-8" standalone="no"?>
<!DOCTYPE svg PUBLIC "-//W3C//DTD SVG 1.1//EN"
  "http://www.w3.org/Graphics/SVG/1.1/DTD/svg11.dtd">
<svg xmlns:xlink="http://www.w3.org/1999/xlink" width="463.998698pt" height="463.99896pt" viewBox="0 0 463.998698 463.99896" xmlns="http://www.w3.org/2000/svg" version="1.1">
 <metadata>
  <rdf:RDF xmlns:dc="http://purl.org/dc/elements/1.1/" xmlns:cc="http://creativecommons.org/ns#" xmlns:rdf="http://www.w3.org/1999/02/22-rdf-syntax-ns#">
   <cc:Work>
    <dc:type rdf:resource="http://purl.org/dc/dcmitype/StillImage"/>
    <dc:date>2025-02-06T14:49:54.939911</dc:date>
    <dc:format>image/svg+xml</dc:format>
    <dc:creator>
     <cc:Agent>
      <dc:title>Matplotlib v3.8.4, https://matplotlib.org/</dc:title>
     </cc:Agent>
    </dc:creator>
   </cc:Work>
  </rdf:RDF>
 </metadata>
 <defs>
  <style type="text/css">*{stroke-linejoin: round; stroke-linecap: butt}</style>
 </defs>
 <g id="figure_1">
  <g id="patch_1">
   <path d="M 0 463.99896 
L 463.998698 463.99896 
L 463.998698 0 
L 0 0 
L 0 463.99896 
z
" style="fill: none"/>
  </g>
  <g id="axes_1">
   <g id="patch_2">
    <path d="M 72.39625 397.163023 
L 431.102018 397.163023 
L 431.102018 20 
L 72.39625 20 
L 72.39625 397.163023 
z
" style="fill: none"/>
   </g>
   <g id="matplotlib.axis_1">
    <g id="xtick_1">
     <g id="line2d_1">
      <defs>
       <path id="m3bebf83f71" d="M 0 0 
L 0 5 
" style="stroke: #000000; stroke-width: 0.75"/>
      </defs>
      <g>
       <use xlink:href="#m3bebf83f71" x="75.719527" y="397.163023" style="stroke: #000000; stroke-width: 0.75"/>
      </g>
     </g>
     <g id="text_1">
      <text style="font: 14.5px &quot;Suisse Int&apos;l Mono&quot;; text-anchor: middle" x="75.719527" y="417.675522" transform="rotate(-0 75.719527 417.675522)">540</text>
     </g>
    </g>
    <g id="xtick_2">
     <g id="line2d_2">
      <g>
       <use xlink:href="#m3bebf83f71" x="134.757865" y="397.163023" style="stroke: #000000; stroke-width: 0.75"/>
      </g>
     </g>
     <g id="text_2">
      <text style="font: 14.5px &quot;Suisse Int&apos;l Mono&quot;; text-anchor: middle" x="134.757865" y="417.675522" transform="rotate(-0 134.757865 417.675522)">560</text>
     </g>
    </g>
    <g id="xtick_3">
     <g id="line2d_3">
      <g>
       <use xlink:href="#m3bebf83f71" x="193.796204" y="397.163023" style="stroke: #000000; stroke-width: 0.75"/>
      </g>
     </g>
     <g id="text_3">
      <text style="font: 14.5px &quot;Suisse Int&apos;l Mono&quot;; text-anchor: middle" x="193.796204" y="417.675522" transform="rotate(-0 193.796204 417.675522)">580</text>
     </g>
    </g>
    <g id="xtick_4">
     <g id="line2d_4">
      <g>
       <use xlink:href="#m3bebf83f71" x="252.834542" y="397.163023" style="stroke: #000000; stroke-width: 0.75"/>
      </g>
     </g>
     <g id="text_4">
      <text style="font: 14.5px &quot;Suisse Int&apos;l Mono&quot;; text-anchor: middle" x="252.834542" y="417.675522" transform="rotate(-0 252.834542 417.675522)">600</text>
     </g>
    </g>
    <g id="xtick_5">
     <g id="line2d_5">
      <g>
       <use xlink:href="#m3bebf83f71" x="311.87288" y="397.163023" style="stroke: #000000; stroke-width: 0.75"/>
      </g>
     </g>
     <g id="text_5">
      <text style="font: 14.5px &quot;Suisse Int&apos;l Mono&quot;; text-anchor: middle" x="311.87288" y="417.675522" transform="rotate(-0 311.87288 417.675522)">620</text>
     </g>
    </g>
    <g id="xtick_6">
     <g id="line2d_6">
      <g>
       <use xlink:href="#m3bebf83f71" x="370.911219" y="397.163023" style="stroke: #000000; stroke-width: 0.75"/>
      </g>
     </g>
     <g id="text_6">
      <text style="font: 14.5px &quot;Suisse Int&apos;l Mono&quot;; text-anchor: middle" x="370.911219" y="417.675522" transform="rotate(-0 370.911219 417.675522)">640</text>
     </g>
    </g>
    <g id="xtick_7">
     <g id="line2d_7">
      <g>
       <use xlink:href="#m3bebf83f71" x="429.949557" y="397.163023" style="stroke: #000000; stroke-width: 0.75"/>
      </g>
     </g>
     <g id="text_7">
      <text style="font: 14.5px &quot;Suisse Int&apos;l Mono&quot;; text-anchor: middle" x="429.949557" y="417.675522" transform="rotate(-0 429.949557 417.675522)">660</text>
     </g>
    </g>
    <g id="text_8">
     <text style="font: 500 15px &quot;Suisse Int&apos;l&quot;, sans-serif; text-anchor: middle" x="251.749134" y="441.088023" transform="rotate(-0 251.749134 441.088023)">Wavelength (nm)</text>
    </g>
   </g>
   <g id="matplotlib.axis_2">
    <g id="ytick_1">
     <g id="line2d_8">
      <defs>
       <path id="m23a35ee04d" d="M 0 0 
L -5 0 
" style="stroke: #000000; stroke-width: 0.75"/>
      </defs>
      <g>
       <use xlink:href="#m23a35ee04d" x="72.39625" y="383.10012" style="stroke: #000000; stroke-width: 0.75"/>
      </g>
     </g>
     <g id="text_9">
      <text style="font: 14.5px &quot;Suisse Int&apos;l Mono&quot;; text-anchor: end" x="62.39625" y="388.35637" transform="rotate(-0 62.39625 388.35637)">0</text>
     </g>
    </g>
    <g id="ytick_2">
     <g id="line2d_9">
      <g>
       <use xlink:href="#m23a35ee04d" x="72.39625" y="320.943818" style="stroke: #000000; stroke-width: 0.75"/>
      </g>
     </g>
     <g id="text_10">
      <text style="font: 14.5px &quot;Suisse Int&apos;l Mono&quot;; text-anchor: end" x="62.39625" y="326.200068" transform="rotate(-0 62.39625 326.200068)">10</text>
     </g>
    </g>
    <g id="ytick_3">
     <g id="line2d_10">
      <g>
       <use xlink:href="#m23a35ee04d" x="72.39625" y="258.787516" style="stroke: #000000; stroke-width: 0.75"/>
      </g>
     </g>
     <g id="text_11">
      <text style="font: 14.5px &quot;Suisse Int&apos;l Mono&quot;; text-anchor: end" x="62.39625" y="264.043766" transform="rotate(-0 62.39625 264.043766)">20</text>
     </g>
    </g>
    <g id="ytick_4">
     <g id="line2d_11">
      <g>
       <use xlink:href="#m23a35ee04d" x="72.39625" y="196.631214" style="stroke: #000000; stroke-width: 0.75"/>
      </g>
     </g>
     <g id="text_12">
      <text style="font: 14.5px &quot;Suisse Int&apos;l Mono&quot;; text-anchor: end" x="62.39625" y="201.887464" transform="rotate(-0 62.39625 201.887464)">30</text>
     </g>
    </g>
    <g id="ytick_5">
     <g id="line2d_12">
      <g>
       <use xlink:href="#m23a35ee04d" x="72.39625" y="134.474913" style="stroke: #000000; stroke-width: 0.75"/>
      </g>
     </g>
     <g id="text_13">
      <text style="font: 14.5px &quot;Suisse Int&apos;l Mono&quot;; text-anchor: end" x="62.39625" y="139.731163" transform="rotate(-0 62.39625 139.731163)">40</text>
     </g>
    </g>
    <g id="ytick_6">
     <g id="line2d_13">
      <g>
       <use xlink:href="#m23a35ee04d" x="72.39625" y="72.318611" style="stroke: #000000; stroke-width: 0.75"/>
      </g>
     </g>
     <g id="text_14">
      <text style="font: 14.5px &quot;Suisse Int&apos;l Mono&quot;; text-anchor: end" x="62.39625" y="77.574861" transform="rotate(-0 62.39625 77.574861)">50</text>
     </g>
    </g>
    <g id="text_15">
     <text style="font: 500 15px &quot;Suisse Int&apos;l&quot;, sans-serif; text-anchor: middle" x="30.875" y="208.581511" transform="rotate(-90 30.875 208.581511)">Intensity (au)</text>
    </g>
   </g>
   <g id="line2d_14">
    <path d="M 85.681649 383.147256 
L 88.764484 383.160031 
L 100.284554 383.137676 
L 102.069354 383.13795 
L 106.936989 383.141911 
L 110.506588 383.139193 
L 112.940406 383.142779 
L 116.023241 383.117586 
L 121.053131 383.121787 
L 122.675676 383.130442 
L 124.135966 383.077138 
L 136.467309 383.127779 
L 140.199162 383.125187 
L 150.745705 382.946844 
L 151.394723 382.88809 
L 157.722649 383.139615 
L 158.696176 383.130832 
L 160.480975 383.053104 
L 161.292248 382.984216 
L 164.375083 383.119419 
L 167.13341 383.119677 
L 168.269192 383.140313 
L 169.242719 383.036634 
L 170.216246 382.978063 
L 170.865264 383.034074 
L 172.001045 383.121955 
L 172.650063 383.116356 
L 176.057408 383.122862 
L 177.030935 383.103217 
L 177.355444 383.085736 
L 177.679953 382.879819 
L 178.166716 382.56359 
L 178.977989 382.509179 
L 179.302498 382.652993 
L 179.951516 383.062568 
L 180.600534 383.081838 
L 181.736315 383.03176 
L 182.060824 382.947033 
L 182.223079 382.751895 
L 182.547588 381.450825 
L 182.872097 380.653156 
L 183.35886 380.463849 
L 183.683369 380.414138 
L 183.845624 380.502849 
L 184.007878 380.856326 
L 184.494642 382.702951 
L 184.981405 383.030262 
L 185.630423 383.079804 
L 188.064241 383.06543 
L 191.63384 383.057396 
L 192.769622 383.041527 
L 193.905403 383.006875 
L 194.229912 382.854256 
L 194.554421 382.635169 
L 195.365694 382.551953 
L 195.852457 382.680063 
L 196.339221 382.935855 
L 198.12402 382.937174 
L 198.610784 382.828364 
L 198.773038 382.596842 
L 199.259802 381.560228 
L 199.746565 381.350764 
L 200.233329 381.330977 
L 200.395583 381.48815 
L 201.044601 382.705236 
L 201.531365 382.837805 
L 202.829401 382.801646 
L 203.965182 382.741367 
L 207.048018 382.030399 
L 207.372527 381.777526 
L 207.697036 381.249077 
L 207.859291 380.744821 
L 208.021545 378.760306 
L 208.1838 362.233298 
L 208.346054 292.063009 
L 208.670563 97.209862 
L 208.995072 56.772238 
L 209.319581 38.588435 
L 209.481836 34.68876 
L 209.64409 33.969001 
L 209.806345 38.424997 
L 209.968599 69.643011 
L 210.455363 326.791933 
L 210.779872 359.413572 
L 211.104381 376.784602 
L 211.42889 380.911996 
L 211.753399 381.657782 
L 212.240162 382.099294 
L 212.88918 382.333818 
L 214.187216 382.520961 
L 214.836234 382.174858 
L 215.809761 382.213282 
L 216.458779 382.606723 
L 216.621034 382.518545 
L 216.783288 382.123211 
L 216.945543 379.126039 
L 217.432306 359.502856 
L 217.756815 356.978525 
L 218.081324 355.664563 
L 218.243579 355.329366 
L 218.405833 355.477868 
L 218.568088 356.833322 
L 218.730342 362.282576 
L 219.054851 377.354079 
L 219.37936 380.489427 
L 219.703869 382.102511 
L 220.028378 382.717503 
L 220.515142 382.878204 
L 222.137687 382.963715 
L 222.786705 382.924798 
L 223.111214 382.570994 
L 223.435723 382.063675 
L 223.760232 381.897833 
L 224.084741 381.79398 
L 224.571504 381.4201 
L 224.896014 381.801303 
L 225.220523 382.189013 
L 226.031795 382.614711 
L 226.356304 382.792283 
L 227.492086 382.733179 
L 229.276885 382.818398 
L 232.359721 382.995984 
L 233.820011 382.918341 
L 235.118047 382.646561 
L 235.280302 382.249991 
L 235.442556 378.710293 
L 235.92932 339.966648 
L 236.253829 334.222183 
L 236.740592 330.348198 
L 236.902847 330.142284 
L 237.065101 331.416561 
L 237.227356 338.959611 
L 237.551865 369.027618 
L 237.876374 376.938209 
L 238.363137 381.533405 
L 238.687646 382.684667 
L 239.012155 382.886649 
L 239.823428 382.965042 
L 240.796955 382.924662 
L 241.608227 382.78163 
L 242.094991 382.416813 
L 243.230772 382.510517 
L 243.879791 382.922276 
L 244.042045 382.912498 
L 244.2043 382.78077 
L 244.366554 382.383554 
L 244.528809 380.738274 
L 244.853318 373.560267 
L 245.177827 371.318248 
L 245.66459 370.053647 
L 245.826845 369.949669 
L 245.989099 370.227021 
L 246.151354 371.074595 
L 246.800372 381.071762 
L 247.124881 382.081816 
L 247.611644 382.853484 
L 247.936153 382.98898 
L 248.260662 382.866518 
L 248.747426 382.626896 
L 249.396444 382.469249 
L 249.720953 382.378919 
L 250.045462 382.561045 
L 250.532225 382.766847 
L 252.317025 383.000295 
L 253.290552 382.981139 
L 256.048878 383.091491 
L 257.509169 383.065587 
L 258.482696 383.059533 
L 260.267495 382.947012 
L 260.42975 382.634432 
L 260.592004 380.662418 
L 260.916513 372.194721 
L 261.241022 369.53047 
L 261.565531 368.377736 
L 261.89004 367.821143 
L 262.052295 367.888156 
L 262.214549 368.841083 
L 262.863568 380.377942 
L 263.188077 381.717353 
L 263.67484 382.743389 
L 263.999349 382.997949 
L 265.297385 383.060707 
L 267.244439 383.028226 
L 268.055712 383.039718 
L 271.300802 382.923672 
L 273.247856 382.713961 
L 273.41011 382.401246 
L 273.572365 379.425469 
L 274.221383 336.713054 
L 274.545892 332.250429 
L 274.870401 329.805832 
L 275.032655 329.166995 
L 275.19491 330.068391 
L 275.357164 336.909071 
L 275.681673 364.515368 
L 276.006182 374.385986 
L 276.330691 378.523152 
L 276.817455 381.804598 
L 277.141964 382.581178 
L 277.466473 382.769208 
L 278.115491 382.779246 
L 279.089018 382.725027 
L 279.413527 382.644629 
L 279.575781 382.549753 
L 279.738036 382.309307 
L 279.90029 381.095611 
L 280.062545 370.068374 
L 280.387054 316.907343 
L 280.711563 297.863284 
L 281.036072 290.630166 
L 281.360581 286.580073 
L 281.522836 286.213978 
L 281.68509 290.211876 
L 282.334108 362.898783 
L 282.658617 372.364391 
L 283.145381 379.711674 
L 283.46989 381.981104 
L 283.794399 382.626567 
L 284.281162 382.814242 
L 285.579198 382.881303 
L 286.71498 382.879919 
L 287.526252 382.843925 
L 289.473306 382.71263 
L 289.635561 382.3023 
L 289.96007 381.129104 
L 290.284579 380.67929 
L 290.933597 380.394854 
L 291.095851 380.43697 
L 291.258106 380.700829 
L 291.744869 382.054715 
L 292.069378 382.364109 
L 292.718396 382.529859 
L 293.20516 382.438847 
L 293.367414 382.308045 
L 293.529669 382.015754 
L 293.691923 380.503049 
L 293.854178 364.975254 
L 294.340941 254.310202 
L 294.66545 231.84879 
L 295.152214 217.873583 
L 295.314468 216.581359 
L 295.476723 220.999435 
L 295.801232 291.779935 
L 296.125741 341.327158 
L 296.45025 360.029378 
L 296.937013 374.709967 
L 297.261522 379.950755 
L 297.586031 381.930345 
L 297.91054 382.397597 
L 298.397304 382.587908 
L 299.370831 382.661483 
L 299.533085 382.618562 
L 299.69534 382.379197 
L 299.857594 380.158899 
L 300.506613 347.644872 
L 300.831122 343.617217 
L 301.155631 341.527409 
L 301.317885 341.161873 
L 301.48014 341.969227 
L 301.642394 346.713063 
L 301.966903 366.175704 
L 302.291412 374.797851 
L 302.615921 378.452832 
L 303.102685 381.421763 
L 303.427194 382.352086 
L 303.751703 382.653796 
L 304.400721 382.756914 
L 305.536502 382.756535 
L 306.023266 382.593742 
L 306.834538 382.545681 
L 307.159047 382.67343 
L 307.645811 382.857805 
L 308.943847 382.948558 
L 314.622754 382.958968 
L 315.271772 382.582966 
L 315.434027 382.420653 
L 315.596281 381.90573 
L 315.758536 378.612221 
L 316.245299 361.127256 
L 316.569808 357.75858 
L 316.894317 356.170309 
L 317.056572 355.769468 
L 317.218826 355.835606 
L 317.381081 357.308653 
L 318.030099 376.15558 
L 318.354608 379.098634 
L 318.841371 381.454906 
L 319.328135 382.626308 
L 319.652644 382.887708 
L 320.463917 383.037793 
L 321.924207 383.069279 
L 324.358025 383.060893 
L 325.331552 382.963413 
L 328.089878 382.919211 
L 329.712423 382.631214 
L 329.874678 382.469907 
L 330.036932 381.841068 
L 330.199187 375.634852 
L 330.848205 306.042678 
L 331.172714 296.624139 
L 331.497223 291.702608 
L 331.659477 290.976004 
L 331.821732 292.876746 
L 331.983986 303.350086 
L 332.47075 353.682278 
L 332.795259 366.608184 
L 333.282022 375.735286 
L 333.768786 380.851336 
L 334.093295 382.219265 
L 334.417804 382.664982 
L 334.904567 382.845726 
L 336.040349 382.982378 
L 336.851621 383.006842 
L 338.311912 382.986336 
L 339.447694 382.881317 
L 341.070239 382.85914 
L 341.232493 382.715983 
L 341.394748 382.0313 
L 341.557002 378.262094 
L 342.043766 357.608325 
L 342.368275 352.624884 
L 342.692784 350.363828 
L 342.855038 349.725919 
L 343.017293 349.783975 
L 343.179547 351.24496 
L 343.99082 375.496306 
L 344.315329 378.324738 
L 344.964347 381.602831 
L 345.288856 382.38775 
L 345.613365 382.664546 
L 346.424637 382.909329 
L 347.398164 382.932045 
L 348.371691 382.807619 
L 349.507473 381.970948 
L 349.831982 381.736498 
L 349.994236 381.378896 
L 350.156491 379.150873 
L 350.318745 367.893971 
L 350.805509 315.458982 
L 351.130018 302.368246 
L 351.616781 294.779588 
L 351.779036 294.889607 
L 351.94129 299.160368 
L 352.752563 362.185561 
L 353.239326 372.791358 
L 353.72609 379.337124 
L 354.050599 381.727683 
L 354.375108 382.521422 
L 354.699617 382.735582 
L 355.510889 382.852989 
L 356.646671 382.831963 
L 358.269216 382.893003 
L 359.567252 382.889829 
L 360.865288 382.867478 
L 363.623615 382.547143 
L 364.110378 382.294862 
L 364.272633 381.995985 
L 364.434887 380.026639 
L 364.597142 368.224663 
L 365.24616 269.157656 
L 365.570669 252.536442 
L 365.895178 245.251105 
L 366.057432 244.287063 
L 366.219687 247.647234 
L 366.381941 262.836371 
L 366.868705 330.236805 
L 367.193214 352.919756 
L 367.679977 367.684494 
L 368.166741 377.506189 
L 368.49125 380.906266 
L 368.815759 381.76668 
L 369.140268 381.961345 
L 369.627031 381.787648 
L 369.789286 381.578823 
L 369.95154 381.063076 
L 370.113795 377.051485 
L 370.276049 354.508938 
L 370.925067 157.746271 
L 371.249576 118.993064 
L 371.574085 100.692387 
L 371.73634 97.814552 
L 371.898594 102.523515 
L 372.060849 128.995886 
L 372.709867 293.361395 
L 373.034376 327.108106 
L 373.683394 363.429458 
L 374.007903 375.556467 
L 374.332412 380.500793 
L 374.656921 381.818565 
L 374.98143 382.243942 
L 375.630448 382.602044 
L 376.441721 382.668804 
L 378.388775 382.857185 
L 380.822592 383.008505 
L 382.282883 383.040363 
L 383.094155 382.999298 
L 383.905428 382.919271 
L 385.041209 382.991639 
L 385.852482 383.071613 
L 389.422081 383.113951 
L 390.882371 383.125068 
L 392.342662 383.107391 
L 393.965207 383.085656 
L 395.100989 383.071299 
L 396.885788 383.051134 
L 399.644115 382.842254 
L 400.455387 382.603355 
L 400.617642 382.453386 
L 400.779896 382.099125 
L 400.942151 379.672468 
L 401.104405 367.633226 
L 401.915678 240.613151 
L 402.240187 224.942924 
L 402.402441 220.103433 
L 402.564696 218.593034 
L 402.72695 221.573428 
L 402.889205 235.241598 
L 403.538223 327.188603 
L 403.862732 349.383622 
L 404.349495 366.522038 
L 404.836259 377.518417 
L 405.160768 381.145379 
L 405.485277 382.312778 
L 405.809786 382.669961 
L 406.458804 382.868352 
L 407.594585 382.934186 
L 408.405858 382.849523 
L 408.568112 382.680453 
L 408.730367 382.159891 
L 408.892621 379.471903 
L 409.866148 343.134453 
L 410.190657 340.103026 
L 410.352912 339.631942 
L 410.515166 340.486404 
L 410.677421 343.654572 
L 411.488693 371.622728 
L 411.975457 377.507354 
L 412.624475 381.543376 
L 412.948984 382.534195 
L 413.273493 382.894583 
L 413.760257 383.059799 
L 417.816619 383.194022 
L 417.816619 383.194022 
" clip-path="url(#p9a238d832d)" style="fill: none; stroke: #5088c5; stroke-linecap: round"/>
   </g>
   <g id="line2d_15">
    <defs>
     <path id="md7a263a620" d="M 0 2 
C 0.530406 2 1.03916 1.789267 1.414214 1.414214 
C 1.789267 1.03916 2 0.530406 2 0 
C 2 -0.530406 1.789267 -1.03916 1.414214 -1.414214 
C 1.03916 -1.789267 0.530406 -2 0 -2 
C -0.530406 -2 -1.03916 -1.789267 -1.414214 -1.414214 
C -1.789267 -1.03916 -2 -0.530406 -2 0 
C -2 0.530406 -1.789267 1.03916 -1.414214 1.414214 
C -1.03916 1.789267 -0.530406 2 0 2 
z
"/>
    </defs>
    <g clip-path="url(#p9a238d832d)">
     <use xlink:href="#md7a263a620" x="209.358411" y="38.588435" style="fill: #f28360"/>
     <use xlink:href="#md7a263a620" x="218.033904" y="355.664563" style="fill: #f28360"/>
     <use xlink:href="#md7a263a620" x="236.588586" y="331.205385" style="fill: #f28360"/>
     <use xlink:href="#md7a263a620" x="274.759667" y="330.859687" style="fill: #f28360"/>
     <use xlink:href="#md7a263a620" x="281.193654" y="288.357737" style="fill: #f28360"/>
     <use xlink:href="#md7a263a620" x="295.032563" y="221.355574" style="fill: #f28360"/>
     <use xlink:href="#md7a263a620" x="301.07271" y="342.379504" style="fill: #f28360"/>
     <use xlink:href="#md7a263a620" x="316.904157" y="356.170309" style="fill: #f28360"/>
     <use xlink:href="#md7a263a620" x="331.438679" y="291.702608" style="fill: #f28360"/>
     <use xlink:href="#md7a263a620" x="342.751447" y="350.363828" style="fill: #f28360"/>
     <use xlink:href="#md7a263a620" x="351.512833" y="296.579012" style="fill: #f28360"/>
     <use xlink:href="#md7a263a620" x="365.866582" y="245.251105" style="fill: #f28360"/>
     <use xlink:href="#md7a263a620" x="371.587976" y="100.692387" style="fill: #f28360"/>
     <use xlink:href="#md7a263a620" x="402.444061" y="220.103433" style="fill: #f28360"/>
     <use xlink:href="#md7a263a620" x="410.247911" y="340.103026" style="fill: #f28360"/>
    </g>
   </g>
   <g id="patch_3">
    <path d="M 72.39625 397.163023 
L 72.39625 20 
" style="fill: none; stroke: #000000; stroke-width: 0.75; stroke-linejoin: miter; stroke-linecap: square"/>
   </g>
   <g id="patch_4">
    <path d="M 72.39625 397.163023 
L 431.102018 397.163023 
" style="fill: none; stroke: #000000; stroke-width: 0.75; stroke-linejoin: miter; stroke-linecap: square"/>
   </g>
  </g>
 </g>
 <defs>
  <clipPath id="p9a238d832d">
   <rect x="72.39625" y="20" width="358.705768" height="377.163023"/>
  </clipPath>
 </defs>
</svg>
