<?xml version="1.0" encoding="utf-8" standalone="no"?>
<!DOCTYPE svg PUBLIC "-//W3C//DTD SVG 1.1//EN"
  "http://www.w3.org/Graphics/SVG/1.1/DTD/svg11.dtd">
<svg xmlns:xlink="http://www.w3.org/1999/xlink" width="463.953368pt" height="463.99896pt" viewBox="0 0 463.953368 463.99896" xmlns="http://www.w3.org/2000/svg" version="1.1">
 <metadata>
  <rdf:RDF xmlns:dc="http://purl.org/dc/elements/1.1/" xmlns:cc="http://creativecommons.org/ns#" xmlns:rdf="http://www.w3.org/1999/02/22-rdf-syntax-ns#">
   <cc:Work>
    <dc:type rdf:resource="http://purl.org/dc/dcmitype/StillImage"/>
    <dc:date>2025-02-07T20:40:38.307651</dc:date>
    <dc:format>image/svg+xml</dc:format>
    <dc:creator>
     <cc:Agent>
      <dc:title>Matplotlib v3.8.4, https://matplotlib.org/</dc:title>
     </cc:Agent>
    </dc:creator>
   </cc:Work>
  </rdf:RDF>
 </metadata>
 <defs>
  <style type="text/css">*{stroke-linejoin: round; stroke-linecap: butt}</style>
 </defs>
 <g id="figure_1">
  <g id="patch_1">
   <path d="M 0 463.99896 
L 463.953368 463.99896 
L 463.953368 0 
L 0 0 
L 0 463.99896 
z
" style="fill: none"/>
  </g>
  <g id="axes_1">
   <g id="patch_2">
    <path d="M 91.128438 397.284897 
L 443.047194 397.284897 
L 443.047194 20 
L 91.128438 20 
L 91.128438 397.284897 
z
" style="fill: none"/>
   </g>
   <g id="matplotlib.axis_1">
    <g id="xtick_1">
     <g id="line2d_1">
      <defs>
       <path id="md0d21b1355" d="M 0 0 
L 0 5 
" style="stroke: #000000; stroke-width: 0.75"/>
      </defs>
      <g>
       <use xlink:href="#md0d21b1355" x="115.198171" y="397.284897" style="stroke: #000000; stroke-width: 0.75"/>
      </g>
     </g>
     <g id="text_1">
      <text style="font: 14.5px &quot;Suisse Int&apos;l Mono&quot;; text-anchor: middle" x="115.198171" y="417.797397" transform="rotate(-0 115.198171 417.797397)">500</text>
     </g>
    </g>
    <g id="xtick_2">
     <g id="line2d_2">
      <g>
       <use xlink:href="#md0d21b1355" x="166.868672" y="397.284897" style="stroke: #000000; stroke-width: 0.75"/>
      </g>
     </g>
     <g id="text_2">
      <text style="font: 14.5px &quot;Suisse Int&apos;l Mono&quot;; text-anchor: middle" x="166.868672" y="417.797397" transform="rotate(-0 166.868672 417.797397)">1000</text>
     </g>
    </g>
    <g id="xtick_3">
     <g id="line2d_3">
      <g>
       <use xlink:href="#md0d21b1355" x="218.539174" y="397.284897" style="stroke: #000000; stroke-width: 0.75"/>
      </g>
     </g>
     <g id="text_3">
      <text style="font: 14.5px &quot;Suisse Int&apos;l Mono&quot;; text-anchor: middle" x="218.539174" y="417.797397" transform="rotate(-0 218.539174 417.797397)">1500</text>
     </g>
    </g>
    <g id="xtick_4">
     <g id="line2d_4">
      <g>
       <use xlink:href="#md0d21b1355" x="270.209676" y="397.284897" style="stroke: #000000; stroke-width: 0.75"/>
      </g>
     </g>
     <g id="text_4">
      <text style="font: 14.5px &quot;Suisse Int&apos;l Mono&quot;; text-anchor: middle" x="270.209676" y="417.797397" transform="rotate(-0 270.209676 417.797397)">2000</text>
     </g>
    </g>
    <g id="xtick_5">
     <g id="line2d_5">
      <g>
       <use xlink:href="#md0d21b1355" x="321.880177" y="397.284897" style="stroke: #000000; stroke-width: 0.75"/>
      </g>
     </g>
     <g id="text_5">
      <text style="font: 14.5px &quot;Suisse Int&apos;l Mono&quot;; text-anchor: middle" x="321.880177" y="417.797397" transform="rotate(-0 321.880177 417.797397)">2500</text>
     </g>
    </g>
    <g id="xtick_6">
     <g id="line2d_6">
      <g>
       <use xlink:href="#md0d21b1355" x="373.550679" y="397.284897" style="stroke: #000000; stroke-width: 0.75"/>
      </g>
     </g>
     <g id="text_6">
      <text style="font: 14.5px &quot;Suisse Int&apos;l Mono&quot;; text-anchor: middle" x="373.550679" y="417.797397" transform="rotate(-0 373.550679 417.797397)">3000</text>
     </g>
    </g>
    <g id="xtick_7">
     <g id="line2d_7">
      <g>
       <use xlink:href="#md0d21b1355" x="425.22118" y="397.284897" style="stroke: #000000; stroke-width: 0.75"/>
      </g>
     </g>
     <g id="text_7">
      <text style="font: 14.5px &quot;Suisse Int&apos;l Mono&quot;; text-anchor: middle" x="425.22118" y="417.797397" transform="rotate(-0 425.22118 417.797397)">3500</text>
     </g>
    </g>
    <g id="text_8">
     <text style="font: 500 15px &quot;Suisse Int&apos;l&quot;, sans-serif; text-anchor: middle" x="267.087816" y="441.209898" transform="rotate(-0 267.087816 441.209898)">Raman shift (cm-1)</text>
    </g>
   </g>
   <g id="matplotlib.axis_2">
    <g id="ytick_1">
     <g id="line2d_8">
      <defs>
       <path id="mfb409efe67" d="M 0 0 
L -5 0 
" style="stroke: #000000; stroke-width: 0.75"/>
      </defs>
      <g>
       <use xlink:href="#mfb409efe67" x="91.128438" y="362.395848" style="stroke: #000000; stroke-width: 0.75"/>
      </g>
     </g>
     <g id="text_9">
      <text style="font: 14.5px &quot;Suisse Int&apos;l Mono&quot;; text-anchor: end" x="81.128438" y="367.652098" transform="rotate(-0 81.128438 367.652098)">0.00</text>
     </g>
    </g>
    <g id="ytick_2">
     <g id="line2d_9">
      <g>
       <use xlink:href="#mfb409efe67" x="91.128438" y="283.773644" style="stroke: #000000; stroke-width: 0.75"/>
      </g>
     </g>
     <g id="text_10">
      <text style="font: 14.5px &quot;Suisse Int&apos;l Mono&quot;; text-anchor: end" x="81.128438" y="289.029894" transform="rotate(-0 81.128438 289.029894)">0.05</text>
     </g>
    </g>
    <g id="ytick_3">
     <g id="line2d_10">
      <g>
       <use xlink:href="#mfb409efe67" x="91.128438" y="205.15144" style="stroke: #000000; stroke-width: 0.75"/>
      </g>
     </g>
     <g id="text_11">
      <text style="font: 14.5px &quot;Suisse Int&apos;l Mono&quot;; text-anchor: end" x="81.128438" y="210.40769" transform="rotate(-0 81.128438 210.40769)">0.10</text>
     </g>
    </g>
    <g id="ytick_4">
     <g id="line2d_11">
      <g>
       <use xlink:href="#mfb409efe67" x="91.128438" y="126.529235" style="stroke: #000000; stroke-width: 0.75"/>
      </g>
     </g>
     <g id="text_12">
      <text style="font: 14.5px &quot;Suisse Int&apos;l Mono&quot;; text-anchor: end" x="81.128438" y="131.785485" transform="rotate(-0 81.128438 131.785485)">0.15</text>
     </g>
    </g>
    <g id="ytick_5">
     <g id="line2d_12">
      <g>
       <use xlink:href="#mfb409efe67" x="91.128438" y="47.907031" style="stroke: #000000; stroke-width: 0.75"/>
      </g>
     </g>
     <g id="text_13">
      <text style="font: 14.5px &quot;Suisse Int&apos;l Mono&quot;; text-anchor: end" x="81.128438" y="53.163281" transform="rotate(-0 81.128438 53.163281)">0.20</text>
     </g>
    </g>
    <g id="text_14">
     <text style="font: 500 15px &quot;Suisse Int&apos;l&quot;, sans-serif; text-anchor: middle" x="30.875" y="208.642449" transform="rotate(-90 30.875 208.642449)">Intensity (au)</text>
    </g>
   </g>
   <g id="line2d_13">
    <path d="M 104.162466 371.566442 
L 104.354592 371.566452 
L 104.546681 372.651456 
L 104.73873 372.981698 
L 104.93074 372.651524 
L 105.122712 372.981787 
L 105.314645 372.384318 
L 105.506539 372.211419 
L 105.698394 371.786939 
L 106.081988 372.510452 
L 106.273727 372.510561 
L 106.465427 372.133294 
L 106.657088 372.133423 
L 106.848711 374.240636 
L 107.040295 374.240787 
L 107.23184 372.432639 
L 107.423347 372.008251 
L 107.614815 372.008433 
L 108.188986 376.45906 
L 108.3803 376.459289 
L 108.571574 375.940626 
L 108.762811 372.229915 
L 108.954008 372.230182 
L 109.145167 371.522859 
L 109.527369 371.523439 
L 109.718413 370.297237 
L 110.100384 370.297869 
L 110.4822 369.79535 
L 110.673051 369.795692 
L 111.054637 368.94728 
L 111.436069 368.963738 
L 111.626728 369.294328 
L 111.817348 369.294712 
L 112.198473 372.739155 
L 112.388978 372.739565 
L 112.769872 371.042176 
L 112.960262 370.712401 
L 113.150614 369.564963 
L 113.340927 369.565417 
L 113.721438 371.012996 
L 114.101796 371.768733 
L 114.482001 371.879805 
L 114.862053 373.579085 
L 115.241953 372.290764 
L 115.621699 372.370509 
L 116.001293 373.645353 
L 116.191032 373.645951 
L 116.760023 371.021829 
L 116.94961 372.343321 
L 117.32867 369.954512 
L 117.518143 369.813657 
L 117.707578 367.188348 
L 117.896974 367.189025 
L 118.275654 371.373097 
L 118.464937 371.798355 
L 118.654181 371.799062 
L 118.843388 371.202251 
L 119.032557 371.171527 
L 119.41078 369.962222 
L 119.599835 369.962972 
L 119.788852 368.438459 
L 119.977831 369.555658 
L 120.166772 368.439993 
L 120.544541 368.378655 
L 120.733368 371.807372 
L 120.922158 372.673015 
L 121.11091 372.673823 
L 121.4883 370.804261 
L 121.676938 370.805097 
L 121.865538 371.466368 
L 122.054101 371.467222 
L 122.242626 370.791934 
L 122.431113 370.792805 
L 122.619562 370.935204 
L 122.807974 372.021079 
L 123.561243 371.977554 
L 123.937651 368.661577 
L 124.125799 366.382484 
L 124.313908 366.383438 
L 124.501981 368.947481 
L 124.690015 373.712951 
L 124.878013 374.138488 
L 125.065972 374.139476 
L 125.253894 372.159196 
L 126.005205 371.17265 
L 126.192939 370.356024 
L 126.380636 370.687291 
L 126.755916 369.997548 
L 127.131046 370.109781 
L 127.318555 370.441087 
L 127.880857 369.343701 
L 128.255538 368.465384 
L 128.442822 368.466519 
L 128.817279 369.223581 
L 129.004451 372.448246 
L 129.191585 373.628744 
L 129.565743 374.370156 
L 129.752765 376.069595 
L 129.939751 376.070808 
L 130.126699 375.820444 
L 130.500483 370.869735 
L 130.687319 369.628763 
L 130.874118 369.63003 
L 131.06088 370.055863 
L 131.247604 370.120042 
L 131.434291 370.058432 
L 131.620941 369.635169 
L 131.807554 369.589299 
L 132.180668 368.915777 
L 132.367169 368.917101 
L 132.553633 369.531685 
L 132.74006 373.416959 
L 133.112802 373.419668 
L 133.299118 373.295243 
L 133.485396 374.004225 
L 133.671637 374.162863 
L 133.857842 374.746072 
L 134.230139 373.365168 
L 134.416232 372.407417 
L 134.602287 372.408868 
L 134.788306 371.010853 
L 134.974288 372.506143 
L 135.160233 370.431996 
L 135.346141 371.046736 
L 135.532012 370.434979 
L 135.717846 371.049736 
L 135.903642 371.12987 
L 136.089402 371.461605 
L 136.275125 371.132922 
L 136.460811 371.84206 
L 136.646461 371.843609 
L 136.832073 372.74146 
L 137.017648 372.743028 
L 137.203186 372.2257 
L 137.388688 369.333991 
L 137.574153 369.335586 
L 137.944971 373.285634 
L 138.130326 373.727541 
L 138.315643 375.395966 
L 138.500923 375.397612 
L 138.686167 372.09714 
L 138.871374 372.004462 
L 139.056544 371.61303 
L 139.426774 371.584967 
L 139.611834 367.922879 
L 139.981843 367.926309 
L 140.166793 367.582095 
L 140.351706 366.608908 
L 140.536582 366.61064 
L 140.721422 367.162733 
L 140.906225 367.243096 
L 141.090991 367.449261 
L 141.27572 368.551723 
L 141.460413 371.918511 
L 141.64507 372.329114 
L 141.829689 371.922055 
L 142.198819 370.541886 
L 142.383329 370.276374 
L 142.752239 368.896253 
L 142.936639 368.898077 
L 143.121003 369.120051 
L 143.30533 370.458466 
L 143.489621 370.774801 
L 143.673875 370.776655 
L 144.042274 364.77365 
L 144.410526 364.824567 
L 144.594598 365.754185 
L 144.778633 365.756063 
L 144.962632 364.955999 
L 145.146595 364.957884 
L 145.330521 368.482046 
L 145.51441 369.002846 
L 145.882081 369.006652 
L 146.065861 369.228708 
L 146.249605 369.230628 
L 146.433313 366.98396 
L 146.80062 366.987827 
L 146.984218 365.055662 
L 147.167781 366.142592 
L 147.351307 366.144539 
L 147.534797 367.310098 
L 147.718251 367.312054 
L 148.268394 365.55681 
L 148.634975 365.482133 
L 148.818212 364.729337 
L 149.184576 364.733299 
L 149.367703 364.436519 
L 149.550795 363.227723 
L 149.73385 363.103915 
L 149.916869 361.612081 
L 150.2828 361.616054 
L 150.465711 360.155667 
L 151.014227 360.130161 
L 151.379724 358.372974 
L 151.562418 359.397032 
L 151.745077 358.37691 
L 151.927699 358.44177 
L 152.110285 358.380831 
L 152.292836 358.445683 
L 152.47535 361.781215 
L 152.657828 361.783165 
L 152.840271 360.951719 
L 153.387382 360.957558 
L 153.569681 359.74872 
L 153.751944 359.703488 
L 153.934171 357.645524 
L 154.116362 357.647458 
L 154.298517 358.907341 
L 154.480636 358.909267 
L 154.662719 360.640877 
L 155.026778 360.628991 
L 155.208754 359.891858 
L 155.390694 359.720804 
L 155.572598 359.722715 
L 155.754466 361.391414 
L 155.936299 361.393322 
L 156.118096 361.788339 
L 156.299856 360.941126 
L 156.481582 359.402035 
L 157.208125 346.012368 
L 157.752658 325.76478 
L 157.934097 319.492491 
L 158.115501 319.462763 
L 158.296869 315.297463 
L 158.478202 313.789547 
L 158.659499 313.791129 
L 158.84076 315.459453 
L 159.203176 330.557847 
L 159.565449 341.048851 
L 160.108593 351.619729 
L 160.28957 351.91982 
L 160.651416 359.014169 
L 160.832286 359.015475 
L 161.013121 359.567133 
L 161.19392 359.568433 
L 161.555412 361.269266 
L 161.916762 361.271854 
L 162.097384 360.769964 
L 162.277971 360.771254 
L 162.999962 366.515839 
L 163.541085 364.318323 
L 163.721388 364.178109 
L 163.901656 363.802031 
L 164.081889 363.80334 
L 164.262087 365.314198 
L 164.442249 365.315512 
L 164.622376 363.524242 
L 164.802467 363.52556 
L 164.982524 364.659039 
L 165.342531 364.661684 
L 165.522481 364.80453 
L 165.702397 365.246143 
L 165.882277 367.055785 
L 166.062122 367.05712 
L 166.241931 366.838319 
L 166.421706 366.399379 
L 166.601445 366.385004 
L 166.78115 365.411441 
L 166.960819 365.114033 
L 167.320051 365.63566 
L 167.499615 365.637025 
L 167.858637 364.586226 
L 168.038096 364.587599 
L 168.217519 367.387925 
L 168.396907 367.389305 
L 168.57626 364.057109 
L 168.755578 363.775456 
L 168.934861 364.059884 
L 169.114109 362.34731 
L 169.293322 364.094113 
L 169.4725 362.350091 
L 169.651643 363.483643 
L 169.830751 363.485035 
L 170.009824 364.980251 
L 170.188862 364.981647 
L 170.546834 362.232669 
L 170.725767 360.425759 
L 170.904665 362.235468 
L 171.083529 361.765132 
L 171.262357 362.945863 
L 171.619909 362.948659 
L 172.155976 363.518939 
L 172.334595 361.31892 
L 172.51318 361.320321 
L 172.691729 361.620485 
L 172.870244 363.493093 
L 173.048724 364.170644 
L 173.227169 364.172046 
L 173.405579 365.525752 
L 173.583955 365.794474 
L 173.762296 365.528569 
L 174.118873 363.896056 
L 174.475312 365.785827 
L 175.009709 370.94773 
L 175.3658 367.978706 
L 175.543794 366.077506 
L 175.721753 366.078967 
L 176.077567 367.622896 
L 176.255422 367.62437 
L 176.433243 366.477965 
L 176.611029 366.479449 
L 176.78878 368.823879 
L 176.966497 368.825373 
L 177.144179 370.037655 
L 177.321827 368.246577 
L 177.49944 369.12866 
L 177.854563 366.490001 
L 178.032072 366.491531 
L 178.386987 370.913174 
L 178.564393 370.914724 
L 178.741765 369.799846 
L 179.096404 369.802985 
L 179.273673 369.615871 
L 179.80527 369.715002 
L 180.159497 368.303027 
L 180.513586 368.353449 
L 180.690578 372.710752 
L 180.867537 372.712396 
L 181.221351 370.860229 
L 181.575027 370.863581 
L 181.751814 369.796008 
L 181.928567 369.797704 
L 182.105285 370.915843 
L 182.281969 370.917555 
L 182.811815 367.935094 
L 182.988362 367.936833 
L 183.164875 369.621093 
L 183.341353 369.622845 
L 183.517798 369.262942 
L 183.694208 368.163997 
L 183.870584 368.165769 
L 184.046925 369.897235 
L 184.223233 370.4651 
L 184.399506 370.545515 
L 184.575745 371.412161 
L 184.928121 370.110661 
L 185.104258 369.467785 
L 185.280361 369.469618 
L 185.808464 370.654495 
L 185.98443 370.65636 
L 186.160363 370.375192 
L 186.512125 368.680721 
L 186.687955 368.682614 
L 186.863751 371.216149 
L 187.039513 371.218058 
L 187.390936 369.146275 
L 187.742222 369.150145 
L 187.917814 366.934945 
L 188.093372 366.873997 
L 188.268897 366.687258 
L 188.444387 365.74575 
L 188.619843 365.747712 
L 188.795266 367.557989 
L 188.970654 368.204661 
L 189.146009 369.857704 
L 189.32133 370.174177 
L 189.496617 372.471937 
L 189.67187 372.646907 
L 189.847089 372.648919 
L 190.022275 371.628853 
L 190.197426 368.014263 
L 190.372544 368.0163 
L 190.547628 371.100333 
L 190.722678 371.102385 
L 190.897694 369.752143 
L 191.247625 369.819183 
L 191.42254 372.510145 
L 191.597421 372.512237 
L 191.772269 372.294197 
L 191.947082 371.242772 
L 192.121862 370.883231 
L 192.296609 370.806739 
L 192.471321 370.195624 
L 192.820645 370.278546 
L 193.169835 372.468575 
L 193.344379 372.470756 
L 193.518889 371.325062 
L 193.693366 371.327262 
L 193.867809 372.555977 
L 194.042219 374.995484 
L 194.216595 374.997715 
L 194.390937 371.430511 
L 194.565246 370.536471 
L 194.739521 368.211515 
L 194.913763 367.773498 
L 195.262145 368.784412 
L 195.436286 374.101558 
L 195.610394 374.103854 
L 195.784468 373.257042 
L 195.958508 370.554757 
L 196.132515 370.557084 
L 196.306488 371.125499 
L 196.480428 372.841807 
L 196.654335 373.127201 
L 196.828208 373.129566 
L 197.175853 374.345111 
L 197.349626 374.017297 
L 197.523365 374.019707 
L 197.870743 365.659156 
L 198.044382 365.661589 
L 198.217988 369.610859 
L 198.39156 370.258004 
L 198.565099 370.260455 
L 198.912076 367.057592 
L 199.085515 366.729848 
L 199.25892 367.062535 
L 199.432292 368.354417 
L 199.605631 368.356901 
L 199.952209 366.537852 
L 200.125448 366.540351 
L 200.298653 366.794446 
L 200.471826 366.796954 
L 200.818071 365.984311 
L 200.991143 366.30132 
L 201.164183 365.989355 
L 201.337189 361.793457 
L 201.510162 361.512943 
L 202.028882 361.426172 
L 202.201722 362.387885 
L 202.374529 365.079288 
L 202.547303 365.081814 
L 203.583251 352.863338 
L 203.755793 352.771492 
L 204.273221 344.366353 
L 204.790352 323.900388 
L 204.962663 323.210863 
L 205.134941 321.168997 
L 205.307185 317.082912 
L 205.479397 316.597679 
L 205.651576 317.087315 
L 206.167915 324.546977 
L 206.339962 325.539632 
L 206.855905 336.756998 
L 207.027821 339.101831 
L 207.199703 339.591156 
L 207.54337 342.142185 
L 207.715153 345.147356 
L 207.886904 345.322112 
L 208.058623 345.323881 
L 208.230308 343.407251 
L 208.745167 343.380945 
L 208.916721 343.744283 
L 209.088242 345.617149 
L 209.259731 343.747581 
L 209.431186 345.022883 
L 209.602609 344.033848 
L 209.774 345.026074 
L 210.116682 342.764874 
L 210.287974 342.766405 
L 210.63046 343.649977 
L 210.972815 343.715803 
L 211.143943 343.371301 
L 211.315039 342.555047 
L 211.486102 342.556444 
L 211.999096 344.777667 
L 212.170028 340.612013 
L 212.511796 339.105047 
L 212.682631 339.609484 
L 212.853433 338.38421 
L 213.024203 341.200093 
L 213.19494 339.81753 
L 213.365644 341.627005 
L 213.536316 341.360834 
L 213.706956 341.629272 
L 213.877563 342.731085 
L 214.048137 344.76062 
L 214.218679 344.761685 
L 214.389188 344.621212 
L 214.559665 343.930366 
L 214.73011 343.931377 
L 214.900522 348.413835 
L 215.070901 348.917996 
L 215.241248 351.18328 
L 215.411563 351.184234 
L 215.581845 355.698091 
L 215.752095 355.699027 
L 215.922312 355.03953 
L 216.26265 355.057091 
L 216.43277 355.529731 
L 216.602857 357.228871 
L 216.772913 357.575704 
L 216.942936 358.252745 
L 217.112926 358.442324 
L 217.282885 359.05646 
L 217.452811 360.378192 
L 217.622704 362.816357 
L 217.792566 362.817234 
L 217.962395 361.088423 
L 218.132191 361.0893 
L 218.980691 364.01842 
L 219.150294 364.019298 
L 219.489404 364.587139 
L 219.65891 366.081845 
L 219.828384 365.626724 
L 219.997827 366.335214 
L 220.336614 364.82746 
L 220.675273 364.813539 
L 221.013803 371.026509 
L 221.18302 371.027428 
L 221.521358 366.988108 
L 221.690479 366.533038 
L 221.859567 366.533981 
L 222.028623 368.642003 
L 222.197648 368.642956 
L 222.36664 367.558929 
L 222.5356 367.386925 
L 222.873425 367.38887 
L 223.042289 366.996738 
L 223.211121 366.164327 
L 223.379921 366.998711 
L 223.548689 367.23557 
L 223.717425 368.054239 
L 223.886129 368.055242 
L 224.223442 367.412563 
L 224.39205 367.413582 
L 224.560626 370.197832 
L 224.72917 370.198864 
L 224.897683 369.916864 
L 225.066163 369.917911 
L 225.234612 370.705188 
L 225.403028 372.1529 
L 225.739766 372.155056 
L 226.076376 376.119812 
L 226.244633 376.12093 
L 226.581052 371.515945 
L 226.749214 371.02964 
L 226.917344 371.125148 
L 227.085442 369.915536 
L 227.253508 370.750109 
L 227.421543 370.751295 
L 227.589545 373.079707 
L 227.925455 373.097852 
L 228.093363 374.30986 
L 228.261238 374.106681 
L 228.429082 374.107931 
L 228.764675 373.402866 
L 228.932424 373.388425 
L 229.100141 372.996609 
L 229.267826 372.290315 
L 229.43548 372.291631 
L 229.603102 372.780414 
L 229.770692 374.652958 
L 229.93825 374.717204 
L 230.105777 375.143124 
L 230.273273 375.144497 
L 230.440737 375.004363 
L 230.608169 374.235264 
L 230.775569 371.406275 
L 230.942938 371.407694 
L 231.110275 373.31178 
L 231.277581 373.549086 
L 231.444855 373.550536 
L 231.612097 371.948104 
L 231.779308 371.949576 
L 231.946488 373.413429 
L 232.113636 376.827125 
L 232.280752 376.828631 
L 232.61489 375.039099 
L 232.781912 373.704068 
L 233.282788 377.812861 
L 233.449684 377.814461 
L 233.783381 374.877236 
L 233.950183 374.878878 
L 234.116953 375.556684 
L 234.283691 376.753409 
L 234.450399 376.755091 
L 235.116913 374.041625 
L 235.283463 374.342136 
L 235.449982 376.152204 
L 235.61647 376.153975 
L 235.782926 375.809823 
L 235.949351 375.811621 
L 236.115744 377.087113 
L 236.448437 377.106505 
L 236.614737 376.636628 
L 237.113448 374.456581 
L 237.279622 374.238346 
L 237.445765 374.711999 
L 237.611877 376.506517 
L 237.777958 376.791503 
L 238.110025 376.33943 
L 238.276012 373.589641 
L 238.607893 373.593652 
L 238.773786 373.296909 
L 239.105479 373.300986 
L 239.271279 373.696152 
L 239.602785 373.700296 
L 239.768492 373.041958 
L 239.934167 375.418448 
L 240.099811 374.382747 
L 240.265424 376.240356 
L 240.762077 376.199639 
L 240.927566 376.657827 
L 241.093023 376.660021 
L 241.25845 375.671589 
L 241.423845 375.673811 
L 241.58921 376.666685 
L 241.754543 376.668934 
L 242.415567 373.674699 
L 242.745893 375.110262 
L 243.076095 375.114952 
L 243.241149 377.082872 
L 243.406173 377.289668 
L 243.571166 378.895955 
L 243.736127 377.294472 
L 243.901058 377.218275 
L 244.065958 374.924946 
L 244.230827 374.534288 
L 244.395665 373.483215 
L 244.560473 373.328446 
L 244.725249 373.330932 
L 245.054709 377.235602 
L 245.384046 377.193494 
L 245.548668 375.60788 
L 245.713259 375.610448 
L 245.87782 376.084763 
L 246.04235 376.087358 
L 246.206848 375.869825 
L 246.371317 374.960429 
L 246.535754 373.123304 
L 246.70016 372.764288 
L 247.028881 372.76961 
L 247.357479 375.87269 
L 247.521732 379.146075 
L 247.685954 379.416109 
L 247.850145 379.418845 
L 248.014306 379.280078 
L 248.178436 374.219577 
L 248.342535 374.222359 
L 248.506604 374.681161 
L 248.998626 377.645813 
L 249.326487 376.519365 
L 249.490372 376.317825 
L 249.654226 374.575303 
L 249.81805 374.578207 
L 249.981843 375.115753 
L 250.145605 375.118681 
L 250.309337 373.203241 
L 250.473038 373.206192 
L 250.636709 374.640079 
L 250.800349 374.643054 
L 250.963958 373.812646 
L 251.291086 373.755757 
L 251.618091 374.956868 
L 251.781548 374.23659 
L 252.271736 373.994207 
L 252.435071 375.208081 
L 252.598375 373.717365 
L 252.761649 375.214303 
L 252.924893 373.660713 
L 253.088106 375.094778 
L 253.251289 375.097932 
L 253.414441 375.871596 
L 253.577563 376.079193 
L 253.740654 376.082387 
L 254.066746 372.802404 
L 254.229747 372.805633 
L 254.392716 373.830961 
L 254.555656 373.834212 
L 254.718565 372.658141 
L 254.881444 372.661414 
L 255.044293 372.507452 
L 255.369899 373.205923 
L 255.532657 373.209237 
L 255.695384 372.929522 
L 256.020748 370.90775 
L 256.508567 370.902111 
L 256.996113 373.097974 
L 257.158568 373.101383 
L 257.320993 373.435016 
L 257.483387 372.825194 
L 257.645752 373.426164 
L 257.808086 373.256647 
L 257.97039 373.26011 
L 258.294907 370.814056 
L 258.781457 374.865745 
L 258.943581 374.869271 
L 259.105673 374.511148 
L 259.267736 372.564868 
L 259.429769 372.851469 
L 259.591772 372.85504 
L 259.915687 374.072997 
L 260.077599 374.076602 
L 260.401334 371.363516 
L 260.563156 371.367152 
L 260.724948 371.528041 
L 261.210144 371.523304 
L 261.371817 374.074345 
L 261.533459 374.345353 
L 261.695071 374.081742 
L 261.856653 374.494294 
L 262.018205 373.491658 
L 262.179727 373.495398 
L 262.34122 373.247557 
L 262.502682 372.638065 
L 262.664114 372.641837 
L 263.148232 373.046325 
L 263.470827 371.167029 
L 263.793303 371.237599 
L 263.954496 372.247813 
L 264.115659 372.251672 
L 264.276793 371.799533 
L 264.437896 371.803411 
L 264.59897 372.20041 
L 264.921028 372.208215 
L 265.082012 373.847475 
L 265.242967 374.275963 
L 265.403891 374.279904 
L 265.564786 371.138968 
L 265.725651 370.749819 
L 266.047292 370.867838 
L 266.208068 371.658046 
L 266.368814 371.662042 
L 266.52953 369.653319 
L 266.850873 369.582729 
L 267.172098 373.804942 
L 267.332666 372.425239 
L 267.493204 372.429297 
L 267.653712 372.1346 
L 267.814191 372.138678 
L 268.135059 373.687858 
L 268.295449 374.666883 
L 268.455809 374.671004 
L 268.616139 373.778844 
L 268.936711 368.299312 
L 269.096952 368.303471 
L 269.257164 371.122311 
L 269.577499 372.105582 
L 269.737623 372.109775 
L 269.897716 372.742954 
L 270.05778 373.879327 
L 270.217815 373.883551 
L 270.537795 373.24733 
L 270.697741 373.251588 
L 271.017544 371.467547 
L 271.177402 372.037914 
L 271.497028 375.175682 
L 271.816536 375.184335 
L 271.976246 374.308112 
L 272.135927 374.31247 
L 272.295578 374.631329 
L 272.455199 374.635711 
L 272.614792 374.278443 
L 272.774354 369.832832 
L 272.933888 369.837246 
L 273.571727 371.83626 
L 273.731114 371.494779 
L 273.890471 371.499245 
L 274.368366 371.040963 
L 274.686816 374.100517 
L 274.845997 374.105041 
L 275.005149 371.939603 
L 275.164271 371.31517 
L 275.323364 371.319724 
L 275.482428 374.956632 
L 275.641463 374.961207 
L 275.800468 374.635581 
L 275.959444 371.102182 
L 276.118391 371.106791 
L 276.436197 372.23247 
L 276.753886 375.386643 
L 276.912686 375.469927 
L 277.071458 375.39598 
L 277.2302 372.019913 
L 277.547597 370.708463 
L 277.706252 370.22572 
L 277.864877 368.390683 
L 278.023474 368.395411 
L 278.182041 372.567122 
L 278.340579 372.776284 
L 278.499088 372.781039 
L 278.657568 370.883147 
L 278.816019 370.887921 
L 278.974441 371.09712 
L 279.449531 372.904109 
L 279.766112 371.325592 
L 280.240767 371.230068 
L 280.398927 368.939166 
L 280.557058 368.944039 
L 280.71516 370.427016 
L 280.873233 370.856463 
L 281.031277 371.710479 
L 281.189292 373.177757 
L 281.347278 373.182673 
L 281.505235 371.913921 
L 281.663163 371.918857 
L 281.821062 372.458434 
L 281.978932 372.46339 
L 282.136774 371.540614 
L 282.294586 371.545589 
L 282.610124 372.719177 
L 283.240852 372.723534 
L 283.556043 371.790169 
L 283.713595 371.795235 
L 283.871119 373.309856 
L 284.028613 373.377839 
L 284.186079 373.571629 
L 284.343516 373.388044 
L 284.500924 371.317537 
L 284.658303 371.16542 
L 284.972975 369.729053 
L 285.287531 371.626297 
L 285.444766 373.392604 
L 285.601973 372.297073 
L 285.75915 373.402974 
L 285.916299 373.471073 
L 286.073419 374.592721 
L 286.230511 374.000417 
L 286.387574 374.005653 
L 286.544607 373.790758 
L 286.701613 372.475164 
L 286.858589 368.848087 
L 287.015537 368.853363 
L 287.172456 371.453178 
L 287.329346 371.458469 
L 287.643041 369.189033 
L 287.799846 369.194347 
L 288.113369 371.893877 
L 288.426777 371.810219 
L 288.583438 369.645604 
L 288.740071 369.147787 
L 288.896675 369.153159 
L 289.05325 371.312786 
L 289.209797 371.318174 
L 289.366315 372.078344 
L 289.522805 370.511306 
L 289.679266 371.019902 
L 289.992102 366.329147 
L 290.148478 366.067264 
L 290.304825 366.072701 
L 290.461143 365.512062 
L 290.617433 366.146483 
L 290.773694 365.978962 
L 290.929927 365.984412 
L 291.086131 365.832623 
L 291.242307 365.83808 
L 291.398455 366.18948 
L 291.554573 366.194945 
L 291.866726 362.573538 
L 292.022759 362.012929 
L 292.178764 362.584478 
L 292.334741 362.023869 
L 292.490689 363.979169 
L 292.646609 362.931103 
L 292.8025 363.785695 
L 292.958363 362.942048 
L 293.270004 358.408631 
L 293.425782 358.351202 
L 293.892945 353.91756 
L 294.204245 341.820613 
L 294.515432 315.398615 
L 294.982 251.368744 
L 295.603695 148.440164 
L 295.759048 138.962685 
L 295.914373 137.834661 
L 296.069669 137.838572 
L 296.224938 142.921253 
L 296.53539 178.307973 
L 297.311025 291.475078 
L 297.621083 319.658241 
L 298.240859 345.927523 
L 298.550578 350.429322 
L 298.705395 348.859163 
L 298.860185 350.43388 
L 299.014946 348.753625 
L 299.169679 348.315587 
L 299.63371 338.400106 
L 300.097488 338.35937 
L 300.252025 337.16641 
L 300.406534 337.168482 
L 301.332997 356.348607 
L 301.48731 356.602167 
L 301.795851 360.835965 
L 302.104281 361.201541 
L 302.258453 362.304208 
L 302.720804 368.285371 
L 302.874865 367.972852 
L 303.182904 367.929633 
L 303.336881 365.431433 
L 303.490831 365.433422 
L 303.798646 369.698735 
L 303.952512 369.700741 
L 304.260161 368.321022 
L 304.413943 368.260149 
L 304.567698 367.97914 
L 304.721424 367.981177 
L 305.028794 372.639704 
L 305.182438 372.641764 
L 305.336053 372.250724 
L 305.489641 371.24644 
L 305.643201 368.543926 
L 305.796733 368.546021 
L 305.950238 370.16774 
L 306.410585 370.126919 
L 306.563978 369.059789 
L 306.870682 369.064075 
L 307.023992 372.08532 
L 307.33053 373.630651 
L 307.636957 371.748096 
L 307.790128 371.750299 
L 308.096389 373.342904 
L 308.249478 373.345138 
L 308.402539 371.916459 
L 308.555573 371.918714 
L 309.473195 368.850433 
L 309.931634 372.33249 
L 310.084391 374.992258 
L 310.237121 374.994608 
L 310.542499 371.744384 
L 310.847767 371.780607 
L 311.152924 372.351498 
L 311.305462 372.353919 
L 311.457972 371.255638 
L 311.610454 370.975038 
L 311.762909 370.065468 
L 311.915337 370.067924 
L 312.22011 373.956797 
L 312.372455 373.959282 
L 312.524773 372.153467 
L 312.677063 371.778587 
L 312.829326 369.831271 
L 313.13377 369.836324 
L 313.438104 372.483115 
L 313.59023 372.705813 
L 314.046443 375.811265 
L 314.198459 375.153443 
L 314.50241 371.431995 
L 314.654345 371.434632 
L 314.806252 373.119793 
L 314.958131 373.153899 
L 315.109984 374.02141 
L 315.261809 374.024089 
L 315.413607 372.784549 
L 315.868837 372.729785 
L 316.172187 373.269891 
L 316.323821 375.930074 
L 316.475428 375.932841 
L 316.627007 375.29092 
L 316.930085 373.14227 
L 317.081583 373.145085 
L 317.233054 373.855511 
L 317.384497 373.858349 
L 317.535914 372.744763 
L 317.687303 372.480307 
L 317.99 369.734278 
L 318.141308 370.696354 
L 318.292588 373.639718 
L 318.595068 373.724161 
L 318.897439 375.585513 
L 319.048583 375.934404 
L 319.199701 376.739317 
L 319.350792 376.742298 
L 319.652892 374.40536 
L 319.803901 374.40838 
L 319.954883 377.540576 
L 320.105838 377.543623 
L 320.558541 373.448771 
L 320.709388 373.451871 
L 320.860208 373.643676 
L 321.161767 373.649931 
L 321.915191 377.754138 
L 322.065795 377.757351 
L 322.517445 373.977488 
L 322.81841 374.015482 
L 322.968852 374.804994 
L 323.119267 374.82402 
L 323.269656 375.141824 
L 323.420017 378.99764 
L 323.570351 379.000984 
L 323.720659 377.652043 
L 324.021193 374.010737 
L 324.17142 374.014138 
L 324.32162 374.756599 
L 324.471794 374.932992 
L 324.62194 374.76346 
L 324.772059 374.861256 
L 324.922152 374.628851 
L 325.222257 374.635812 
L 325.372269 375.173941 
L 325.522254 376.341061 
L 325.822145 376.348126 
L 326.121928 376.496766 
L 326.271779 377.034978 
L 326.571402 377.057909 
L 326.721173 378.193694 
L 326.870917 377.741327 
L 327.020635 377.933677 
L 327.170326 377.748655 
L 327.31999 376.447214 
L 327.619238 376.454631 
L 328.217414 374.425451 
L 328.366891 374.429232 
L 328.516342 376.335682 
L 328.815163 376.343309 
L 328.964534 377.982486 
L 329.412486 378.68596 
L 329.56175 378.060881 
L 329.710987 378.064796 
L 329.860198 378.65053 
L 330.009383 380.0854 
L 330.15854 380.089364 
L 330.605854 373.339841 
L 330.754905 373.375308 
L 330.90393 376.712919 
L 331.2019 378.419262 
L 331.350846 378.423337 
L 331.499764 375.754273 
L 331.648656 375.648306 
L 331.797522 375.762495 
L 331.946361 377.653559 
L 332.095174 377.846398 
L 332.24396 377.85056 
L 332.39272 375.291653 
L 332.541453 375.295843 
L 332.69016 376.746695 
L 332.83884 376.750912 
L 333.136121 375.422812 
L 333.284722 375.42707 
L 333.730367 379.779875 
L 333.878862 380.491795 
L 334.027331 380.496132 
L 334.175773 376.993938 
L 334.324189 376.793891 
L 334.472579 376.798276 
L 334.620942 378.689608 
L 334.769279 378.756922 
L 334.917589 378.99722 
L 335.065874 378.765802 
L 335.214132 378.172739 
L 335.362363 378.177219 
L 335.510568 380.241618 
L 335.955026 380.443908 
L 336.103126 379.803774 
L 336.399246 379.812963 
L 336.547267 379.393023 
L 336.843231 379.402315 
L 336.991173 379.847271 
L 337.286978 381.271867 
L 337.434842 381.276594 
L 337.582679 377.869135 
L 337.73049 377.700927 
L 337.878275 377.705703 
L 338.026033 378.921276 
L 338.173765 379.083328 
L 338.321471 381.195228 
L 338.469151 381.561733 
L 338.616805 381.566595 
L 338.764433 380.187726 
L 338.912034 376.151444 
L 339.059609 376.156357 
L 339.207158 376.318529 
L 339.354681 378.996625 
L 339.649648 379.006556 
L 339.797093 380.017911 
L 339.944511 380.085817 
L 340.091903 380.939963 
L 340.239269 380.945007 
L 340.386609 381.531875 
L 340.533923 381.175295 
L 340.828472 381.798769 
L 340.975708 381.803908 
L 341.122918 380.378143 
L 341.270101 380.38332 
L 341.56439 380.236483 
L 341.711495 379.392594 
L 341.858575 377.353664 
L 342.152655 377.395653 
L 342.446631 379.717747 
L 342.593581 378.921126 
L 342.740504 379.335304 
L 343.034272 379.346039 
L 343.181118 378.486588 
L 343.327937 375.897465 
L 343.47473 375.902888 
L 343.621498 376.128466 
L 343.768239 379.12156 
L 344.061644 379.572794 
L 344.208308 379.578295 
L 344.501557 375.076431 
L 344.648143 374.625968 
L 344.941237 374.637095 
L 345.234228 369.773692 
L 345.380684 369.779291 
L 345.527115 370.571119 
L 345.67352 370.576733 
L 345.966251 369.188511 
L 346.112579 368.926832 
L 346.25888 369.199791 
L 346.697629 372.440276 
L 346.843827 372.870513 
L 346.99 373.992635 
L 347.136146 373.998334 
L 347.428362 376.887341 
L 347.574431 378.654216 
L 347.720475 378.65997 
L 347.866492 375.379332 
L 348.012484 375.385115 
L 348.15845 376.12996 
L 348.304391 378.714578 
L 348.450306 378.720405 
L 348.742058 376.357714 
L 349.033707 376.054982 
L 349.179494 376.123778 
L 349.616698 380.953243 
L 349.762382 381.289421 
L 349.908039 381.295404 
L 350.053672 382.056179 
L 350.199278 382.0622 
L 350.490414 379.558391 
L 350.635944 379.564468 
L 350.781448 380.608375 
L 350.926926 380.614487 
L 351.072379 380.447649 
L 351.363208 379.264906 
L 351.508584 378.972324 
L 351.653934 378.978523 
L 351.799259 379.80241 
L 351.944558 379.934439 
L 352.089832 380.380974 
L 352.23508 379.946958 
L 352.380303 380.393529 
L 352.5255 379.880927 
L 352.670672 379.887248 
L 352.815818 379.736343 
L 352.960938 376.597812 
L 353.106033 376.478387 
L 353.251103 376.091661 
L 353.396147 376.098059 
L 353.541165 376.812072 
L 353.976068 380.668165 
L 354.120984 377.749899 
L 354.265875 377.756393 
L 354.410741 378.218912 
L 354.555581 379.546291 
L 354.700396 379.552834 
L 354.845186 375.989946 
L 354.98995 375.996519 
L 355.134688 378.157355 
L 355.279401 378.163958 
L 355.713388 374.598684 
L 355.858 374.605343 
L 356.002586 374.45477 
L 356.436192 372.147634 
L 356.580677 371.761238 
L 356.725136 372.161073 
L 356.86957 371.774695 
L 357.013979 370.177545 
L 357.158363 370.042776 
L 357.447053 369.222905 
L 357.591361 368.31766 
L 357.8799 368.001009 
L 358.024131 368.212217 
L 358.312519 369.090659 
L 358.456675 369.097468 
L 358.600805 368.428133 
L 359.033045 364.643294 
L 359.177075 367.166035 
L 359.321079 367.393012 
L 359.465058 367.399853 
L 359.609012 366.887791 
L 359.896844 364.47993 
L 360.040722 364.486786 
L 360.184576 362.936923 
L 360.328404 362.880883 
L 360.472206 360.953636 
L 360.759736 360.668583 
L 360.903464 359.59045 
L 361.047166 360.682288 
L 361.190843 360.814932 
L 361.334495 361.151993 
L 361.478121 365.498785 
L 361.765299 365.449589 
L 362.626232 354.860983 
L 362.769632 355.135134 
L 362.913008 357.862291 
L 363.056359 357.869114 
L 363.199685 357.152609 
L 363.486261 357.134783 
L 363.629512 357.959258 
L 364.202264 355.093122 
L 364.34539 355.099895 
L 364.488491 353.597114 
L 365.203619 333.833646 
L 365.489496 326.708011 
L 366.06095 253.175017 
L 366.632006 121.601262 
L 367.060036 41.752498 
L 367.202663 33.973515 
L 367.345266 33.977801 
L 367.487843 39.202273 
L 367.630396 48.84499 
L 369.196836 301.026985 
L 369.765707 329.541123 
L 370.049994 335.015864 
L 370.476239 339.013626 
L 370.760279 332.726231 
L 370.902262 332.255645 
L 371.04422 332.256762 
L 371.186154 331.738943 
L 371.895452 317.78055 
L 372.037237 316.775044 
L 373.029047 289.780675 
L 373.170635 289.325046 
L 373.3122 289.325354 
L 373.736744 286.982891 
L 373.87821 288.602518 
L 374.019651 288.743974 
L 374.161068 289.671578 
L 374.30246 291.621198 
L 375.009053 309.372052 
L 375.150298 311.604343 
L 375.291519 317.075818 
L 375.432715 317.625497 
L 375.573886 319.448812 
L 375.997254 330.830905 
L 376.138328 331.44329 
L 376.84333 340.511529 
L 376.984257 340.510506 
L 377.406891 343.353433 
L 377.547721 345.443679 
L 377.688526 344.499091 
L 377.829307 345.237 
L 377.970063 344.937078 
L 378.110795 345.234668 
L 378.532844 351.709521 
L 378.673479 351.896985 
L 378.814089 352.540447 
L 378.954675 354.819241 
L 379.095237 354.880881 
L 379.235774 355.35135 
L 379.516775 357.345804 
L 379.65724 357.344521 
L 380.078487 356.758837 
L 380.359197 360.970375 
L 380.78008 361.076513 
L 381.200745 364.421881 
L 381.340918 363.901664 
L 381.481067 359.59186 
L 381.621191 359.590549 
L 381.761292 360.485528 
L 381.901368 362.166728 
L 382.041421 362.448452 
L 382.181448 362.447136 
L 382.321452 361.014896 
L 382.461432 357.066745 
L 382.601387 357.065422 
L 382.741319 360.020289 
L 382.881226 360.12903 
L 383.021109 360.866747 
L 383.300802 364.700843 
L 383.440613 364.699513 
L 383.580399 364.478042 
L 383.720161 364.476716 
L 383.8599 364.726983 
L 383.999614 364.725661 
L 384.139304 365.337594 
L 384.27897 364.99034 
L 384.418611 365.382137 
L 384.558229 366.575883 
L 384.697823 368.791723 
L 384.837392 367.658262 
L 385.116459 369.951447 
L 385.255957 369.950167 
L 385.534879 369.208579 
L 385.674305 369.20732 
L 385.813706 370.69989 
L 385.953083 370.745819 
L 386.092437 371.310663 
L 386.231766 371.309436 
L 386.371071 369.484183 
L 386.510352 369.482973 
L 386.64961 371.761813 
L 386.788843 371.902139 
L 386.928052 371.759434 
L 387.345536 372.96672 
L 388.040864 373.05545 
L 388.179858 371.875026 
L 388.457774 371.982943 
L 388.874468 376.681399 
L 389.013319 376.680375 
L 389.152145 375.893144 
L 389.429727 375.891166 
L 389.707213 372.225445 
L 390.123263 372.332703 
L 390.261899 372.394683 
L 390.400511 373.447313 
L 390.539099 372.4715 
L 390.677663 373.005245 
L 390.816204 373.004368 
L 391.093213 378.836419 
L 391.231682 378.835584 
L 391.508549 376.160806 
L 391.646947 376.128567 
L 391.785321 375.357293 
L 391.923672 373.626841 
L 392.061998 373.626089 
L 392.200301 374.83613 
L 392.33858 378.043187 
L 392.615067 378.057501 
L 392.753275 377.49074 
L 392.891459 378.056153 
L 393.02962 380.036782 
L 393.167756 380.036148 
L 393.305869 379.438004 
L 393.443959 377.927859 
L 393.582025 377.927276 
L 393.720067 376.841722 
L 393.99608 378.979155 
L 394.134051 378.978635 
L 394.271998 378.710815 
L 394.409922 377.405198 
L 394.823551 380.863206 
L 394.961381 380.784162 
L 395.099186 380.862381 
L 395.374727 380.594315 
L 395.512462 380.137959 
L 395.787861 380.137316 
L 396.063165 377.211997 
L 396.200782 376.724274 
L 396.338376 376.724024 
L 396.613492 378.909266 
L 396.751014 381.456422 
L 396.888514 381.456237 
L 397.163441 379.112982 
L 397.30087 378.122211 
L 397.438275 378.122095 
L 397.713015 378.798062 
L 397.987661 381.990008 
L 398.124949 383.090689 
L 398.262213 383.090681 
L 398.536671 378.640706 
L 398.673865 377.351348 
L 398.811035 377.351408 
L 398.948182 378.373573 
L 399.222405 383.31125 
L 399.359482 383.311383 
L 399.770571 380.025493 
L 399.907554 379.884183 
L 400.044514 379.507024 
L 400.18145 379.884655 
L 400.318363 381.158597 
L 400.592118 381.159177 
L 400.728961 380.687762 
L 400.86578 380.688099 
L 401.139349 382.355619 
L 401.412824 381.523032 
L 401.549527 381.523464 
L 401.686206 381.948476 
L 401.822862 381.948948 
L 401.959495 380.141128 
L 402.096104 380.141637 
L 402.369253 382.973109 
L 402.505792 382.973677 
L 402.642308 380.631323 
L 402.778801 380.427511 
L 402.915271 380.428135 
L 403.051717 377.661276 
L 403.18814 377.661933 
L 403.460917 378.46524 
L 403.59727 378.182905 
L 403.7336 379.535927 
L 403.869907 378.483126 
L 404.006191 379.537417 
L 404.142451 381.88113 
L 404.278689 382.023439 
L 404.414903 381.882729 
L 404.551094 380.028074 
L 404.687261 380.028921 
L 404.823406 382.482798 
L 405.095625 382.484587 
L 405.367752 379.687504 
L 405.50378 380.018678 
L 405.639786 380.019656 
L 405.911727 382.757719 
L 406.047663 382.758755 
L 406.319466 379.600273 
L 406.591176 379.602473 
L 406.726997 379.226213 
L 406.998568 376.618256 
L 407.134319 376.619428 
L 407.541434 380.664217 
L 407.677093 380.665454 
L 407.948342 376.217963 
L 408.083932 375.244332 
L 408.219498 375.308527 
L 408.355042 374.460717 
L 408.490563 372.669453 
L 408.62606 372.670785 
L 408.896986 372.799277 
L 409.303203 365.098411 
L 409.438563 364.486537 
L 409.709213 364.505025 
L 409.844503 364.868073 
L 409.979771 366.489078 
L 410.115016 366.49047 
L 410.385436 362.76657 
L 410.520612 362.767968 
L 410.790895 367.59817 
L 411.061087 367.600988 
L 411.196148 368.341453 
L 411.466202 371.772235 
L 411.601194 372.905835 
L 411.736164 372.907286 
L 412.006035 370.001195 
L 412.140936 369.719633 
L 412.545502 369.755558 
L 412.815098 364.082051 
L 412.949862 363.454584 
L 413.084603 360.971634 
L 413.219321 360.973145 
L 413.354017 361.430663 
L 413.623339 365.553485 
L 414.296247 369.790973 
L 414.43076 368.959119 
L 414.56525 368.960667 
L 414.699718 366.241894 
L 414.834163 366.243452 
L 415.102984 367.12715 
L 415.237361 366.924304 
L 415.371715 366.92588 
L 415.506046 366.502901 
L 415.640354 365.026388 
L 415.77464 365.027976 
L 415.908903 365.233983 
L 416.043143 365.235576 
L 416.579878 356.908001 
L 416.714005 358.214717 
L 416.98219 355.937832 
L 417.116249 355.530567 
L 417.250285 354.588664 
L 417.384299 354.590219 
L 417.920127 358.0872 
L 418.054028 358.088726 
L 418.187905 356.36056 
L 418.321761 356.362075 
L 418.856956 357.956252 
L 418.990698 355.819219 
L 419.124418 355.820702 
L 419.258115 355.617762 
L 419.391789 355.619232 
L 419.659071 346.643492 
L 419.926262 345.231147 
L 420.193364 345.233934 
L 420.32688 344.433355 
L 420.460375 342.846536 
L 420.727296 342.849177 
L 420.860723 345.209135 
L 420.994127 345.336204 
L 421.260868 351.062401 
L 421.660812 353.236041 
L 422.060553 340.204041 
L 422.193755 340.205189 
L 422.326935 341.039709 
L 422.460092 345.805319 
L 422.593227 345.837855 
L 422.859429 350.997598 
L 422.992497 349.347577 
L 423.125542 349.348609 
L 423.258565 348.154571 
L 423.391565 343.862803 
L 423.524543 343.769442 
L 423.657499 343.864757 
L 423.790432 345.909883 
L 423.923343 345.910815 
L 424.189098 339.05677 
L 424.321942 337.925482 
L 424.454764 337.926329 
L 424.72034 339.90923 
L 424.853094 339.910007 
L 424.985826 340.461117 
L 425.383889 349.457642 
L 425.516532 350.150203 
L 425.649153 349.459 
L 425.914327 349.39741 
L 426.046881 349.398044 
L 426.311922 346.112863 
L 426.444409 346.113453 
L 426.576874 344.164195 
L 426.709317 344.164751 
L 426.841737 342.718639 
L 426.974135 342.719156 
L 427.106511 343.175662 
L 427.371196 347.375029 
L 427.503505 347.375476 
L 427.768057 342.517471 
L 427.900299 341.810266 
L 428.03252 341.81064 
L 428.693289 347.724618 
L 428.825376 347.724887 
L 428.957441 345.680965 
L 429.485481 330.067401 
L 429.617435 330.067528 
L 430.013166 331.372844 
L 430.013166 331.372844 
" clip-path="url(#p9bf92ce104)" style="fill: none; stroke: #5088c5; stroke-linecap: round"/>
   </g>
   <g id="line2d_14">
    <defs>
     <path id="m851e9fbbbd" d="M 0 2 
C 0.530406 2 1.03916 1.789267 1.414214 1.414214 
C 1.789267 1.03916 2 0.530406 2 0 
C 2 -0.530406 1.789267 -1.03916 1.414214 -1.414214 
C 1.03916 -1.789267 0.530406 -2 0 -2 
C -0.530406 -2 -1.03916 -1.789267 -1.414214 -1.414214 
C -1.789267 -1.03916 -2 -0.530406 -2 0 
C -2 0.530406 -1.789267 1.03916 -1.414214 1.414214 
C -1.03916 1.789267 -0.530406 2 0 2 
z
"/>
    </defs>
    <g clip-path="url(#p9bf92ce104)">
     <use xlink:href="#m851e9fbbbd" x="158.450035" y="313.789547" style="fill: #f28360"/>
     <use xlink:href="#m851e9fbbbd" x="205.639877" y="317.087315" style="fill: #f28360"/>
     <use xlink:href="#m851e9fbbbd" x="295.988206" y="137.834661" style="fill: #f28360"/>
     <use xlink:href="#m851e9fbbbd" x="367.358619" y="33.977801" style="fill: #f28360"/>
     <use xlink:href="#m851e9fbbbd" x="373.628686" y="286.982807" style="fill: #f28360"/>
    </g>
   </g>
   <g id="patch_3">
    <path d="M 91.128438 397.284897 
L 91.128438 20 
" style="fill: none; stroke: #000000; stroke-width: 0.75; stroke-linejoin: miter; stroke-linecap: square"/>
   </g>
   <g id="patch_4">
    <path d="M 91.128438 397.284897 
L 443.047194 397.284897 
" style="fill: none; stroke: #000000; stroke-width: 0.75; stroke-linejoin: miter; stroke-linecap: square"/>
   </g>
  </g>
 </g>
 <defs>
  <clipPath id="p9bf92ce104">
   <rect x="91.128438" y="20" width="351.918756" height="377.284897"/>
  </clipPath>
 </defs>
</svg>
